<svg width="182" height="43" viewBox="0 0 182 43" fill="none" xmlns="http://www.w3.org/2000/svg">
<path d="M49.1191 15H47.3027V2.95898L43.6602 4.29688V2.65625L48.8359 0.712891H49.1191V15ZM63.7285 15H54.4121V13.7012L59.334 8.23242C60.0632 7.4056 60.5645 6.73503 60.8379 6.2207C61.1178 5.69987 61.2578 5.16276 61.2578 4.60938C61.2578 3.86719 61.0332 3.25846 60.584 2.7832C60.1348 2.30794 59.5358 2.07031 58.7871 2.07031C57.8887 2.07031 57.1888 2.32747 56.6875 2.8418C56.1927 3.34961 55.9453 4.05924 55.9453 4.9707H54.1387C54.1387 3.66211 54.5586 2.60417 55.3984 1.79688C56.2448 0.989583 57.3743 0.585938 58.7871 0.585938C60.1087 0.585938 61.1536 0.934245 61.9219 1.63086C62.6901 2.32096 63.0742 3.24219 63.0742 4.39453C63.0742 5.79427 62.1823 7.46094 60.3984 9.39453L56.5898 13.5254H63.7285V15ZM69.5879 9.69727H64.8223V8.22266H69.5879V9.69727ZM74.0605 0.78125L78.709 12.3828L83.3574 0.78125H85.7891V15H83.9141V9.46289L84.0898 3.48633L79.4219 15H77.9863L73.3281 3.51562L73.5137 9.46289V15H71.6387V0.78125H74.0605ZM88.3379 9.61914C88.3379 8.58398 88.5397 7.65299 88.9434 6.82617C89.3535 5.99935 89.9199 5.36133 90.6426 4.91211C91.3717 4.46289 92.2018 4.23828 93.1328 4.23828C94.5716 4.23828 95.7337 4.73633 96.6191 5.73242C97.5111 6.72852 97.957 8.05339 97.957 9.70703V9.83398C97.957 10.8626 97.7585 11.7871 97.3613 12.6074C96.9707 13.4212 96.4076 14.056 95.6719 14.5117C94.9427 14.9674 94.1029 15.1953 93.1523 15.1953C91.7201 15.1953 90.5579 14.6973 89.666 13.7012C88.7806 12.7051 88.3379 11.3867 88.3379 9.74609V9.61914ZM90.1543 9.83398C90.1543 11.0059 90.4245 11.9466 90.9648 12.6562C91.5117 13.3659 92.2409 13.7207 93.1523 13.7207C94.0703 13.7207 94.7995 13.3626 95.3398 12.6465C95.8802 11.9238 96.1504 10.9147 96.1504 9.61914C96.1504 8.46029 95.8737 7.52279 95.3203 6.80664C94.7734 6.08398 94.0443 5.72266 93.1328 5.72266C92.2409 5.72266 91.5215 6.07747 90.9746 6.78711C90.4277 7.49674 90.1543 8.51237 90.1543 9.83398ZM101.932 4.43359L101.99 5.76172C102.798 4.74609 103.852 4.23828 105.154 4.23828C107.387 4.23828 108.514 5.49805 108.533 8.01758V15H106.727V8.00781C106.72 7.24609 106.544 6.68294 106.199 6.31836C105.861 5.95378 105.33 5.77148 104.607 5.77148C104.021 5.77148 103.507 5.92773 103.064 6.24023C102.622 6.55273 102.277 6.96289 102.029 7.4707V15H100.223V4.43359H101.932ZM113.709 1.875V4.43359H115.682V5.83008H113.709V12.3828C113.709 12.806 113.797 13.125 113.973 13.3398C114.148 13.5482 114.448 13.6523 114.871 13.6523C115.079 13.6523 115.366 13.6133 115.73 13.5352V15C115.255 15.1302 114.793 15.1953 114.344 15.1953C113.536 15.1953 112.928 14.9512 112.518 14.4629C112.107 13.9746 111.902 13.2812 111.902 12.3828V5.83008H109.979V4.43359H111.902V1.875H113.709ZM119.607 5.71289C120.408 4.72982 121.45 4.23828 122.732 4.23828C124.965 4.23828 126.092 5.49805 126.111 8.01758V15H124.305V8.00781C124.298 7.24609 124.122 6.68294 123.777 6.31836C123.439 5.95378 122.908 5.77148 122.186 5.77148C121.6 5.77148 121.085 5.92773 120.643 6.24023C120.2 6.55273 119.855 6.96289 119.607 7.4707V15H117.801V0H119.607V5.71289ZM143.494 2.32422H138.924V15H137.059V2.32422H132.498V0.78125H143.494V2.32422ZM149.686 6.05469C149.412 6.00911 149.116 5.98633 148.797 5.98633C147.612 5.98633 146.808 6.49089 146.385 7.5V15H144.578V4.43359H146.336L146.365 5.6543C146.958 4.71029 147.798 4.23828 148.885 4.23828C149.236 4.23828 149.503 4.28385 149.686 4.375V6.05469ZM157.488 15C157.384 14.7917 157.299 14.4206 157.234 13.8867C156.395 14.7591 155.392 15.1953 154.227 15.1953C153.185 15.1953 152.329 14.9023 151.658 14.3164C150.994 13.724 150.662 12.9753 150.662 12.0703C150.662 10.9701 151.079 10.1172 151.912 9.51172C152.752 8.89974 153.93 8.59375 155.447 8.59375H157.205V7.76367C157.205 7.13216 157.016 6.63086 156.639 6.25977C156.261 5.88216 155.704 5.69336 154.969 5.69336C154.324 5.69336 153.784 5.85612 153.348 6.18164C152.911 6.50716 152.693 6.90104 152.693 7.36328H150.877C150.877 6.83594 151.062 6.32812 151.434 5.83984C151.811 5.34505 152.319 4.95443 152.957 4.66797C153.602 4.38151 154.308 4.23828 155.076 4.23828C156.294 4.23828 157.247 4.54427 157.938 5.15625C158.628 5.76172 158.986 6.59831 159.012 7.66602V12.5293C159.012 13.4993 159.135 14.2708 159.383 14.8438V15H157.488ZM154.49 13.623C155.057 13.623 155.594 13.4766 156.102 13.1836C156.609 12.8906 156.977 12.5098 157.205 12.041V9.87305H155.789C153.576 9.87305 152.469 10.5208 152.469 11.8164C152.469 12.3828 152.658 12.8255 153.035 13.1445C153.413 13.4635 153.898 13.623 154.49 13.623ZM161.404 9.62891C161.404 8.00781 161.788 6.70573 162.557 5.72266C163.325 4.73307 164.331 4.23828 165.574 4.23828C166.811 4.23828 167.791 4.66146 168.514 5.50781V0H170.32V15H168.66L168.572 13.8672C167.85 14.7526 166.844 15.1953 165.555 15.1953C164.331 15.1953 163.331 14.694 162.557 13.6914C161.788 12.6888 161.404 11.3802 161.404 9.76562V9.62891ZM163.211 9.83398C163.211 11.0319 163.458 11.9694 163.953 12.6465C164.448 13.3236 165.132 13.6621 166.004 13.6621C167.15 13.6621 167.986 13.1478 168.514 12.1191V7.26562C167.973 6.26953 167.143 5.77148 166.023 5.77148C165.138 5.77148 164.448 6.11328 163.953 6.79688C163.458 7.48047 163.211 8.49284 163.211 9.83398ZM177.518 15.1953C176.085 15.1953 174.92 14.7266 174.021 13.7891C173.123 12.8451 172.674 11.5853 172.674 10.0098V9.67773C172.674 8.62956 172.872 7.69531 173.27 6.875C173.673 6.04818 174.233 5.40365 174.949 4.94141C175.672 4.47266 176.453 4.23828 177.293 4.23828C178.667 4.23828 179.734 4.69076 180.496 5.5957C181.258 6.50065 181.639 7.79622 181.639 9.48242V10.2344H174.48C174.507 11.276 174.809 12.1191 175.389 12.7637C175.975 13.4017 176.717 13.7207 177.615 13.7207C178.253 13.7207 178.794 13.5905 179.236 13.3301C179.679 13.0697 180.066 12.7246 180.398 12.2949L181.502 13.1543C180.617 14.515 179.288 15.1953 177.518 15.1953ZM177.293 5.72266C176.564 5.72266 175.952 5.98958 175.457 6.52344C174.962 7.05078 174.656 7.79297 174.539 8.75H179.832V8.61328C179.78 7.69531 179.533 6.98568 179.09 6.48438C178.647 5.97656 178.048 5.72266 177.293 5.72266ZM48.8652 32.248H45.5254V38H43.6406V23.7812H48.3477C49.9492 23.7812 51.1797 24.1458 52.0391 24.875C52.9049 25.6042 53.3379 26.6654 53.3379 28.0586C53.3379 28.944 53.097 29.7155 52.6152 30.373C52.14 31.0306 51.4759 31.5221 50.623 31.8477L53.9629 37.8828V38H51.9512L48.8652 32.248ZM45.5254 30.7148H48.4062C49.3372 30.7148 50.0762 30.474 50.623 29.9922C51.1764 29.5104 51.4531 28.8659 51.4531 28.0586C51.4531 27.1797 51.1895 26.5059 50.6621 26.0371C50.1413 25.5684 49.3861 25.3307 48.3965 25.3242H45.5254V30.7148ZM62.2148 38C62.1107 37.7917 62.026 37.4206 61.9609 36.8867C61.1211 37.7591 60.1185 38.1953 58.9531 38.1953C57.9115 38.1953 57.0553 37.9023 56.3848 37.3164C55.7207 36.724 55.3887 35.9753 55.3887 35.0703C55.3887 33.9701 55.8053 33.1172 56.6387 32.5117C57.4785 31.8997 58.6569 31.5938 60.1738 31.5938H61.9316V30.7637C61.9316 30.1322 61.7428 29.6309 61.3652 29.2598C60.9876 28.8822 60.431 28.6934 59.6953 28.6934C59.0508 28.6934 58.5104 28.8561 58.0742 29.1816C57.638 29.5072 57.4199 29.901 57.4199 30.3633H55.6035C55.6035 29.8359 55.7891 29.3281 56.1602 28.8398C56.5378 28.3451 57.0456 27.9544 57.6836 27.668C58.3281 27.3815 59.0345 27.2383 59.8027 27.2383C61.0202 27.2383 61.974 27.5443 62.6641 28.1562C63.3542 28.7617 63.7122 29.5983 63.7383 30.666V35.5293C63.7383 36.4993 63.862 37.2708 64.1094 37.8438V38H62.2148ZM59.2168 36.623C59.7832 36.623 60.3203 36.4766 60.8281 36.1836C61.3359 35.8906 61.7038 35.5098 61.9316 35.041V32.873H60.5156C58.3021 32.873 57.1953 33.5208 57.1953 34.8164C57.1953 35.3828 57.3841 35.8255 57.7617 36.1445C58.1393 36.4635 58.6243 36.623 59.2168 36.623ZM68.2793 27.4336L68.3379 28.7617C69.1452 27.7461 70.1999 27.2383 71.502 27.2383C73.735 27.2383 74.8613 28.498 74.8809 31.0176V38H73.0742V31.0078C73.0677 30.2461 72.8919 29.6829 72.5469 29.3184C72.2083 28.9538 71.6777 28.7715 70.9551 28.7715C70.3691 28.7715 69.8548 28.9277 69.4121 29.2402C68.9694 29.5527 68.6243 29.9629 68.377 30.4707V38H66.5703V27.4336H68.2793ZM77.1758 32.6289C77.1758 30.9818 77.5566 29.6732 78.3184 28.7031C79.0801 27.7266 80.0892 27.2383 81.3457 27.2383C82.6348 27.2383 83.6406 27.694 84.3633 28.6055L84.4512 27.4336H86.1016V37.7461C86.1016 39.1133 85.6947 40.1908 84.8809 40.9785C84.0736 41.7663 82.9863 42.1602 81.6191 42.1602C80.8574 42.1602 80.112 41.9974 79.3828 41.6719C78.6536 41.3464 78.097 40.9004 77.7129 40.334L78.6504 39.25C79.4251 40.207 80.3724 40.6855 81.4922 40.6855C82.3711 40.6855 83.0547 40.4382 83.543 39.9434C84.0378 39.4486 84.2852 38.752 84.2852 37.8535V36.9453C83.5625 37.7786 82.5762 38.1953 81.3262 38.1953C80.0892 38.1953 79.0866 37.6973 78.3184 36.7012C77.5566 35.7051 77.1758 34.3477 77.1758 32.6289ZM78.9922 32.834C78.9922 34.0254 79.2363 34.9629 79.7246 35.6465C80.2129 36.3236 80.8965 36.6621 81.7754 36.6621C82.9147 36.6621 83.7513 36.1445 84.2852 35.1094V30.2852C83.7318 29.276 82.9017 28.7715 81.7949 28.7715C80.916 28.7715 80.2292 29.1133 79.7344 29.7969C79.2396 30.4805 78.9922 31.4928 78.9922 32.834ZM93.2207 38.1953C91.7884 38.1953 90.623 37.7266 89.7246 36.7891C88.8262 35.8451 88.377 34.5853 88.377 33.0098V32.6777C88.377 31.6296 88.5755 30.6953 88.9727 29.875C89.3763 29.0482 89.9362 28.4036 90.6523 27.9414C91.375 27.4727 92.1562 27.2383 92.9961 27.2383C94.3698 27.2383 95.4375 27.6908 96.1992 28.5957C96.9609 29.5007 97.3418 30.7962 97.3418 32.4824V33.2344H90.1836C90.2096 34.276 90.5124 35.1191 91.0918 35.7637C91.6777 36.4017 92.4199 36.7207 93.3184 36.7207C93.9564 36.7207 94.4967 36.5905 94.9395 36.3301C95.3822 36.0697 95.7695 35.7246 96.1016 35.2949L97.2051 36.1543C96.3197 37.515 94.9915 38.1953 93.2207 38.1953ZM92.9961 28.7227C92.2669 28.7227 91.6549 28.9896 91.1602 29.5234C90.6654 30.0508 90.3594 30.793 90.2422 31.75H95.5352V31.6133C95.4831 30.6953 95.2357 29.9857 94.793 29.4844C94.3503 28.9766 93.7513 28.7227 92.9961 28.7227Z" fill="#626262"/>
<path d="M15.8002 0.000685794C11.9239 0.00354346 8.82596 0.0153551 8.81212 0.0379307C8.79995 0.0577438 8.83654 0.214125 8.89352 0.385527L8.99718 0.697156L19.3567 0.709348C28.9125 0.720493 29.7231 0.727542 29.8043 0.800603C29.8842 0.872616 29.8923 0.973206 29.8923 1.9032C29.8923 2.46604 29.9083 2.9265 29.9279 2.9265C29.9896 2.9265 31.1688 2.67718 31.1871 2.66028C31.2152 2.63418 31.1972 0.280451 31.1681 0.189234C31.1535 0.143417 31.0741 0.0825007 30.9917 0.0539336C30.883 0.0162124 22.2607 -0.00407698 15.8002 0.000685794ZM5.91009 0.00925879C5.41351 0.00973507 4.87092 0.0111639 4.30532 0.013069L0.191957 0.0265L0.0998283 0.139711C0.0108601 0.249045 0.00789126 0.376259 0.0128712 3.87928C0.0157442 5.87378 0.031929 7.72474 0.0490714 7.99255C0.066118 8.26036 0.0638196 8.46946 0.044283 8.45719C0.0243633 8.4449 0.0080828 10.2376 0.0080828 12.441V16.447H15.6131H31.2182V12.5157C31.2182 10.3534 31.2106 8.58434 31.2022 8.58434C31.1936 8.58435 30.8952 8.84486 30.5395 9.16323L29.8927 9.7421V12.7591V15.7759L15.6132 15.7638L1.33363 15.7518V8.3047C1.33362 0.988276 1.33554 0.85647 1.42719 0.78962C1.50553 0.732657 1.98871 0.721608 4.39437 0.721608C6.84643 0.721608 7.28172 0.711225 7.36156 0.651214C7.48377 0.559388 7.74048 0.558435 7.81664 0.649309C7.87889 0.723894 8.39523 0.756023 8.39487 0.68522C8.39487 0.665407 8.27548 0.585306 8.12976 0.507121C7.87431 0.370067 7.80906 0.281718 7.91521 0.216468C7.96472 0.186081 8.62803 0.552415 8.69367 0.646461C8.77565 0.763825 8.77804 0.612169 8.69846 0.341481C8.63573 0.127728 8.58524 0.0397977 8.51544 0.0227279C8.47569 0.0130118 7.39981 0.00802046 5.91009 0.00925879ZM35.9789 2.46437C35.8931 2.47009 35.5565 2.53058 35.1648 2.61073C34.7171 2.70227 33.3965 2.973 32.2301 3.21227C31.0636 3.45154 29.9937 3.67039 29.8525 3.69864C29.6197 3.74522 29.6021 3.75741 29.6641 3.82973C29.7018 3.87354 30.0929 4.31467 30.5333 4.80993L31.3341 5.71046L31.0582 5.96057C30.9065 6.09816 30.2354 6.69358 29.5671 7.28369C28.8987 7.8738 28.3638 8.37587 28.3785 8.39949C28.3932 8.42311 28.3862 8.43655 28.3634 8.42931C28.324 8.41692 27.8592 8.78925 27.3121 9.27159L27.0696 9.48537L25.4323 7.97403C23.1315 5.85031 22.9852 5.72237 22.813 5.68475C22.7301 5.66665 22.5966 5.66608 22.5163 5.68379C22.4262 5.70351 21.7762 6.19585 20.8172 6.97077C19.963 7.66103 18.4555 8.87971 17.4673 9.679C16.4792 10.4783 15.651 11.1253 15.6269 11.1167C15.6029 11.1082 15.1099 10.6563 14.5315 10.1125C12.9775 8.65172 12.8232 8.51216 12.7602 8.51216C12.7286 8.51216 12.5093 8.71443 12.2728 8.96163L11.8428 9.41109L11.9921 9.53694C12.0743 9.60619 12.8402 10.3208 13.6943 11.1251C14.5483 11.9293 15.2832 12.602 15.3275 12.6199C15.3717 12.6378 15.5091 12.654 15.6326 12.6558C15.8263 12.6587 15.8927 12.6313 16.1146 12.4571C16.3426 12.2781 19.1466 10.0121 20.1117 9.22686C20.3128 9.06322 20.9614 8.53972 21.5528 8.06358L22.6283 7.19789L22.7515 7.29424C22.8192 7.3472 23.0286 7.53502 23.2169 7.71159C24.8283 9.22274 26.647 10.8766 26.7728 10.9452C26.9801 11.0584 27.1822 11.0504 27.3897 10.9209C27.4846 10.8618 28.4375 10.0367 29.5072 9.0874C30.577 8.13813 31.6244 7.21136 31.835 7.0279L32.2179 6.69427L32.3275 6.82096C32.7935 7.35982 33.9567 8.63246 33.9706 8.61864C34.0091 8.58035 36.0194 2.48464 35.9999 2.46525C35.9978 2.46335 35.9912 2.46333 35.9789 2.46437ZM0 17.741L0.0158974 18.616C0.030933 19.4424 0.0380198 19.4996 0.144121 19.6476C0.205891 19.7337 0.336049 19.8461 0.43333 19.8972C0.60575 19.9878 0.774483 19.9902 7.14155 19.9923L13.673 19.9942L13.8135 19.8462C13.9217 19.7322 13.9855 19.7027 14.0905 19.718C14.2125 19.7358 14.2484 19.7068 14.234 19.6024C14.2311 19.5847 14.2918 19.5038 14.368 19.4226C14.6174 19.1571 14.7972 19.2363 15.2028 19.7905C15.3514 19.9935 15.3531 19.9942 15.6601 19.9942H15.9683L15.9532 19.8411C15.9395 19.7028 15.8891 19.6585 15.4321 19.3834C14.834 19.0234 14.8141 19.0064 14.9434 18.9656C15.0129 18.9436 15.1554 18.9991 15.4169 19.1499C15.6226 19.2685 15.7992 19.3574 15.8093 19.3474C15.8193 19.3374 15.7692 19.1544 15.6976 18.9409C15.5757 18.5769 15.5652 18.4121 15.6639 18.4121C15.711 18.4121 16.0954 19.551 16.1394 19.8212L16.1677 19.9942H23.3813H30.5949L30.8072 19.8863C31.149 19.7126 31.1893 19.584 31.1941 18.6518C31.1961 18.2167 31.1969 17.8338 31.1961 17.8008C31.1941 17.7532 29.8901 17.7409 24.8407 17.7409H18.4874L18.4045 17.9279C18.2507 18.2745 18.3021 18.2683 15.5887 18.2683H13.181L13.0188 18.1596C12.9232 18.0954 12.8382 17.9872 12.8118 17.8959L12.7671 17.7409H6.38369L0 17.741ZM14.6214 19.4686C14.406 19.4724 14.2536 19.7743 14.3956 19.9156C14.4959 20.0154 15.1225 20.033 15.0659 19.9345C14.9586 19.7476 14.691 19.4673 14.6214 19.4686ZM14.0342 19.9176C14.0063 19.9176 13.9785 19.9262 13.9498 19.9426C13.881 19.9824 13.8966 19.9915 14.0342 19.9915C14.1718 19.9915 14.1874 19.9829 14.1186 19.9426C14.0899 19.926 14.0621 19.9176 14.0342 19.9176Z" fill="#313131"/>
<path d="M5.12891 11H4V6.64844L2.65234 7.06641V6.14844L5.00781 5.30469H5.12891V11ZM10.8789 11H6.98047V10.2266L8.82031 8.26562C9.07292 7.98958 9.25911 7.7487 9.37891 7.54297C9.5013 7.33724 9.5625 7.14193 9.5625 6.95703C9.5625 6.70443 9.4987 6.50651 9.37109 6.36328C9.24349 6.21745 9.0612 6.14453 8.82422 6.14453C8.56901 6.14453 8.36719 6.23307 8.21875 6.41016C8.07292 6.58464 8 6.8151 8 7.10156H6.86719C6.86719 6.75521 6.94922 6.4388 7.11328 6.15234C7.27995 5.86589 7.51432 5.64193 7.81641 5.48047C8.11849 5.31641 8.46094 5.23438 8.84375 5.23438C9.42969 5.23438 9.88411 5.375 10.207 5.65625C10.5326 5.9375 10.6953 6.33464 10.6953 6.84766C10.6953 7.12891 10.6224 7.41536 10.4766 7.70703C10.3307 7.9987 10.0807 8.33854 9.72656 8.72656L8.43359 10.0898H10.8789V11Z" fill="#313131"/>
</svg>
