<svg width="36" height="36" viewBox="0 0 36 36" fill="none" xmlns="http://www.w3.org/2000/svg">
<path d="M16.0693 35.8933C9.8873 35.2058 4.58087 31.4602 1.84704 25.8542C-0.871154 20.2803 -0.575149 13.8581 2.64226 8.60069C3.91553 6.5201 6.52473 3.91626 8.60961 2.6456C12.4618 0.29783 17.3165 -0.55308 21.6606 0.358108L22.7244 0.581263L21.9911 1.54642C21.5878 2.07727 21.2575 2.57626 21.257 2.6553C21.2567 2.73433 20.9383 2.5914 20.5496 2.33767C20.161 2.08394 19.6099 1.81972 19.3249 1.7505L18.8067 1.62465V4.74766V7.87067H19.7099C20.6045 7.87067 20.615 7.87786 20.8143 8.62283L21.0155 9.37498H19.9111H18.8067V13.3238V17.2726H22.0791H25.3515L25.8503 18.0247L26.349 18.7769H22.5779H18.8067V22.7301V26.6833L22.0564 26.6319L25.3061 26.5804L25.5351 25.8823C25.8966 24.7804 26.3433 22.3924 26.495 20.7513L26.634 19.247L27.3557 20.3166L28.0775 21.3863L27.8539 22.7611C27.7309 23.5173 27.5104 24.6136 27.3639 25.1973C27.2173 25.781 27.0974 26.3522 27.0974 26.4666C27.0974 26.6081 27.907 26.6745 29.6341 26.6745H32.1707L32.8211 25.3112C33.6916 23.4865 34.2575 21.5883 34.3909 20.0461L34.5006 18.7769H32.3037H30.1068L30.6056 18.0247L31.1044 17.2726H32.7752H34.446L34.4351 16.3794C34.4294 15.8881 34.2701 14.8957 34.0817 14.1739C33.7431 12.8767 33.7436 12.8524 34.1301 12.0585C34.3451 11.6168 34.5822 11.2553 34.6568 11.2553C34.8249 11.2553 35.2785 12.6162 35.6909 14.358C36.1075 16.1172 36.1021 19.7 35.68 21.6915C33.7813 30.6483 25.1452 36.9024 16.0693 35.8933H16.0693ZM17.2993 31.2814V28.1788H14.2713H11.2434L12.0506 29.6908C13.1388 31.7288 14.3865 33.0894 15.8256 33.807C16.462 34.1244 17.0539 34.384 17.141 34.384C17.2281 34.384 17.2993 32.9878 17.2993 31.2814ZM20.4083 33.716C21.4556 33.1034 22.0512 32.5599 22.8538 31.4844C23.4615 30.6701 24.6479 28.5499 24.6479 28.2782C24.6479 28.2235 23.3336 28.1788 21.7273 28.1788H18.8067V31.2941V34.4094L19.2307 34.2832C19.4638 34.2137 19.9938 33.9585 20.4083 33.716ZM11.7797 32.2659C11.2401 31.5147 10.5164 30.2877 10.1715 29.5394L9.54433 28.1788H7.28915H5.03395L5.60452 28.8839C6.26574 29.7011 7.5911 30.8555 8.8592 31.7188C9.7092 32.2974 12.3341 33.6319 12.6223 33.6319C12.6984 33.6319 12.3192 33.0172 11.7797 32.2659ZM24.7139 33.0942C25.3674 32.7985 26.3789 32.2522 26.9615 31.8802C28.0525 31.1837 30.8659 28.6349 30.8659 28.3429C30.8659 28.2526 29.8861 28.1788 28.6886 28.1788H26.5114L26.0454 29.2302C25.4534 30.5662 24.3991 32.2338 23.649 33.0207C22.9324 33.7726 23.1773 33.7895 24.7139 33.0942ZM8.93549 26.3794C8.63886 25.608 8.06624 22.2522 7.95107 20.6102L7.82246 18.7769H4.64705C2.23158 18.7769 1.47199 18.8331 1.47307 19.0119C1.48218 20.5161 2.32201 23.4704 3.29054 25.4052L3.9259 26.6745H6.48743C8.73712 26.6745 9.03514 26.6386 8.93549 26.3794ZM17.256 22.6787L17.307 18.7769H13.3241H9.34119L9.46665 20.2342C9.61984 22.0136 10.0371 24.3827 10.4295 25.7015L10.7217 26.6833L13.9634 26.6318L17.2051 26.5804L17.256 22.6787ZM7.95107 15.4392C8.06662 13.7919 8.63912 10.4408 8.93758 9.6646C9.04061 9.39667 8.76974 9.36976 6.44005 9.41653L3.82695 9.46898L3.11907 10.9012C2.37235 12.4121 1.79507 14.3913 1.57607 16.1913L1.44453 17.2726H4.6335H7.82246L7.95107 15.4392ZM17.256 13.2768L17.307 9.37498H14.011H10.715L10.4263 10.3661C10.003 11.8191 9.6216 13.9557 9.46966 15.7252L9.33613 17.2803L13.2706 17.2295L17.2051 17.1786L17.256 13.2768ZM10.1807 6.38313C10.5663 5.5656 11.3048 4.3389 11.8219 3.65714C12.3389 2.97538 12.6788 2.41757 12.577 2.41757C12.1917 2.41757 9.94911 3.53293 8.88856 4.25205C7.55367 5.1572 5.95006 6.57569 5.41683 7.323L5.02605 7.87067L7.25287 7.87012L9.47969 7.86956L10.1807 6.38313ZM17.2569 4.72103C17.2972 2.34154 17.2555 1.66633 17.0685 1.66955C16.5109 1.67914 15.1675 2.45775 14.2815 3.28477C13.277 4.22242 11.7611 6.47813 11.5437 7.35858L11.4148 7.88071L14.3099 7.82867L17.2051 7.77665L17.2569 4.72103ZM26.5372 16.1914C25.6978 14.8727 24.3636 12.4954 23.5724 10.9084C22.2285 8.21266 22.1287 7.92828 22.0535 6.58353C21.9891 5.42984 22.0535 4.93131 22.3785 4.072C22.9099 2.66661 24.194 1.25906 25.5518 0.593669C26.4736 0.14193 26.854 0.0672418 28.2279 0.0681089C29.5983 0.0688196 29.9847 0.145007 30.9041 0.594677C32.2617 1.25874 33.5456 2.66559 34.0774 4.072C34.403 4.93303 34.466 5.4218 34.3971 6.55441C34.3238 7.75989 34.1731 8.25668 33.3597 9.97534C31.9797 12.8908 28.5809 18.5888 28.2218 18.5888C28.1348 18.5888 27.3767 17.51 26.5372 16.1914ZM29.2991 9.17541C29.5909 9.06564 30.1068 8.70899 30.4456 8.38285C32.4133 6.48867 31.0015 3.16973 28.2279 3.16973C25.5344 3.16973 24.0955 6.21117 25.8471 8.20209C26.7925 9.27659 28.0716 9.63725 29.2991 9.17541Z" fill="#313131"/>
</svg>
