<svg width="37" height="36" viewBox="0 0 37 36" fill="none" xmlns="http://www.w3.org/2000/svg">
<path d="M14.6754 35.6805C12.2295 35.1534 10.3281 34.3625 8.24692 33.0067C-0.0589677 27.5955 -2.44545 17.0438 2.71646 8.55407C3.83573 6.71319 6.89151 3.73692 8.78156 2.64677C14.0468 -0.390137 20.3823 -0.841106 25.7901 1.43609C36.5297 5.95845 40.3575 18.9196 33.7168 28.2758C31.2196 31.7942 27.5018 34.3432 23.2365 35.4614C20.8682 36.0822 16.999 36.1813 14.6754 35.6805ZM20.3955 33.4376C31.6213 32.0667 37.9317 20.048 32.4475 10.4835C31.5578 8.93193 31.2639 8.65158 30.5268 8.65158C29.9602 8.65158 28.7108 9.79874 19.3851 18.8818C10.0595 27.9648 8.88168 29.1816 8.88168 29.7335C8.88168 30.4768 9.18336 30.7614 10.9509 31.6854C12.672 32.5852 14.7176 33.2301 16.487 33.4308C18.5167 33.661 18.5655 33.6611 20.3955 33.4377V33.4376ZM17.1585 21.6507C17.3002 21.4844 17.4978 21.3484 17.5977 21.3484C17.6975 21.3484 17.7792 21.4844 17.7792 21.6507C17.7792 21.8244 17.5925 21.953 17.3401 21.953C16.9731 21.953 16.9433 21.9032 17.1585 21.6507ZM19.0208 20.8923V19.8316L21.972 16.9623C23.5951 15.3842 25.0462 14.0931 25.1965 14.0931C25.6233 14.0931 25.4403 14.3584 23.803 16.1134L22.2741 17.7522L23.3032 18.7945C24.3651 19.8702 25.6422 21.5063 25.6422 21.7911C25.6422 21.8802 25.1799 21.953 24.6149 21.953C23.804 21.953 23.5415 21.8692 23.3691 21.5554C23.0123 20.9061 21.0914 18.7284 20.8755 18.7284C20.7642 18.7284 20.6761 19.4409 20.6761 20.3407V21.953H19.8485H19.0208V20.8923ZM26.8837 18.023V14.0931H29.5737H32.2637V14.7906V15.4881L30.4531 15.5464L28.6426 15.6046L28.5784 16.3604L28.5141 17.1161H30.182H31.8499V17.813V18.5099L30.2462 18.5688L28.6426 18.6277V19.5346V20.4415L30.5566 20.4995L32.4706 20.5574V21.2553V21.9531H29.6772H26.8838L26.8837 18.023ZM17.6218 17.1643C26.9475 8.08125 28.1253 6.8644 28.1253 6.31255C28.1253 5.57038 27.8264 5.28772 26.0561 4.3555C21.3106 1.85665 15.1866 1.93881 10.537 4.5637C8.79419 5.54762 5.69479 8.56637 4.68459 10.2639C1.98958 14.7925 1.90523 20.7571 4.47084 25.3791C5.42796 27.1034 5.71817 27.3945 6.48017 27.3945C7.04675 27.3945 8.29611 26.2473 17.6218 17.1643ZM4.53635 18.023V14.0931H7.22631H9.91628V14.7906V15.4881L8.10572 15.5464L6.29518 15.6046V16.4107V17.2169L7.89881 17.2758L9.50244 17.3347V18.0315V18.7284H7.84708H6.19172V20.3407V21.953H5.36403H4.53635V18.023ZM10.2457 20.6034C11.198 18.1221 12.2394 15.6174 12.6431 14.8377C13.0166 14.1162 13.0902 14.0745 13.8865 14.1323L14.733 14.1938L15.5428 15.9911L16.3526 17.7884L15.1584 18.9638C14.0799 20.0252 13.88 20.1391 13.0955 20.1391C12.2574 20.1391 12.2166 20.1692 11.9348 20.9957C11.6523 21.8241 11.6112 21.8542 10.6811 21.9134L9.71952 21.9747L10.2457 20.6034ZM14.8022 18.4448C14.7335 18.178 14.4801 17.5205 14.2391 16.9837L13.8011 16.0077L13.396 16.9146C13.1732 17.4134 12.9393 18.0709 12.8762 18.3757C12.7627 18.924 12.7731 18.9299 13.8443 18.9299C14.885 18.9299 14.9223 18.911 14.8022 18.4448ZM19.0208 14.5969C19.0208 14.1851 19.1218 14.0931 19.5741 14.0931H20.1275L19.6415 14.5969C19.3742 14.874 19.1252 15.1007 19.0882 15.1007C19.0511 15.1007 19.0208 14.874 19.0208 14.5969H19.0208Z" fill="#313131"/>
</svg>
