<svg width="40" height="39" viewBox="0 0 40 39" fill="none" xmlns="http://www.w3.org/2000/svg">
<mask id="path-1-outside-1_307:233" maskUnits="userSpaceOnUse" x="0" y="0" width="40" height="39" fill="black">
<rect fill="white" width="40" height="39"/>
<path d="M13.3777 37.6778C10.8654 36.9303 8.86523 35.7671 7.52955 34.2767C6.53495 33.1669 5.97544 32.1977 5.42471 30.6305L4.98099 29.3679L3.69597 29.3188L2.41095 29.2696L2.16804 28.6864C1.99603 28.2734 1.97381 28.0119 2.09193 27.7905C2.18366 27.6186 3.58473 26.222 5.20541 24.687L8.15209 21.896L9.09409 22.7764C9.6122 23.2606 11.0334 24.6169 12.2524 25.7903L14.4687 27.9238L14.2001 28.5972L13.9316 29.2706L12.6521 29.3192L11.3727 29.3679L11.4318 30.1222C11.5976 32.2418 12.8471 34.6677 14.4693 36.0195L15.1975 36.6263L14.8887 37.3131C14.719 37.6909 14.5351 37.9946 14.4801 37.988C14.4252 37.9814 13.9291 37.8418 13.3777 37.6778L13.3777 37.6778ZM11.588 35.1925C10.3077 32.6456 9.99089 31.5827 9.83926 29.326L9.73509 27.7756H10.8846H12.0341L10.5339 26.2551C9.70873 25.4188 8.82674 24.5839 8.57387 24.3997L8.11411 24.0649L6.27662 25.7945C5.266 26.7459 4.4391 27.577 4.43906 27.6415C4.43902 27.7061 4.86501 27.7815 5.38571 27.8092L6.33243 27.8594L6.55083 28.9368C6.83664 30.3468 7.7269 32.1882 8.5977 33.1705C9.50392 34.1928 11.8999 35.8129 11.588 35.1925V35.1925ZM17.4711 37.2457V36.4915H27.4958C36.9319 36.4915 37.5204 36.4743 37.52 36.1982C37.5187 35.2537 37.099 32.7163 36.7742 31.6866C36.0144 29.2782 34.4091 27.0606 32.2879 25.4891L31.3158 24.7689L30.4737 25.4366C29.4304 26.264 27.5335 27.1804 26.3598 27.4241C23.5667 28.0042 20.3422 27.2684 18.0962 25.5385C17.6589 25.2018 17.2194 24.9262 17.1195 24.9262C16.9051 24.9262 16.1107 25.464 15.3176 26.1461L14.7513 26.633L14.2385 26.1186L13.7257 25.6041L14.2193 25.0872C14.682 24.6028 17.1516 22.9148 17.3977 22.9148C17.4594 22.9148 17.9374 23.3108 18.4599 23.7948C20.1575 25.3673 22.0034 26.1031 24.2311 26.0954C26.4515 26.0877 28.1994 25.3947 29.9544 23.8264L30.9915 22.8996L31.541 23.1797C32.6623 23.7513 34.161 24.9425 35.3043 26.1706C37.4143 28.4372 38.6864 31.5847 38.9503 35.192C39.0148 36.0729 39.0168 37.0651 38.9548 37.3968L38.842 38H28.1565H17.4711V37.2457ZM1.02569 23.9397C0.851008 23.6562 1.6005 21.1472 2.26536 19.7898C3.07142 18.1441 4.76287 16.2488 6.35305 15.2094L7.44105 14.4983L8.31334 15.2851C9.86727 16.6867 11.7059 17.3274 13.5501 17.11L14.4272 17.0065L14.5456 17.7092C14.6107 18.0957 14.6226 18.4533 14.5721 18.504C14.3977 18.679 11.274 18.5779 10.6561 18.3772C9.79931 18.099 8.46997 17.4249 7.83344 16.9458C7.54091 16.7257 7.22413 16.5456 7.12947 16.5456C6.78237 16.5456 4.76845 18.6119 4.13585 19.6171C3.4983 20.6302 2.95827 21.952 2.60026 23.3758C2.42785 24.0615 2.39672 24.0881 1.76913 24.0881C1.41052 24.0881 1.07596 24.0213 1.02566 23.9397H1.02569ZM21.648 23.7717C18.4279 22.7261 15.936 20.0423 15.2908 16.9248C14.9978 15.509 15.1708 13.1852 15.6704 11.8279C16.7173 8.9833 19.2112 6.77487 22.1656 6.07626C28.0509 4.68454 33.6675 9.46227 33.2908 15.5399C33.0443 19.5158 30.3459 22.8448 26.5699 23.8315C25.2335 24.1807 22.8171 24.1513 21.648 23.7717V23.7717ZM26.454 22.2696C30.0241 21.1549 32.3152 17.4682 31.7041 13.8216C31.1441 10.4799 28.6111 7.95939 25.2951 7.44448C22.0771 6.94479 18.8965 8.67255 17.3845 11.7416C15.3746 15.8215 17.5533 20.8466 21.9424 22.2541C23.2199 22.6638 25.17 22.6705 26.454 22.2696V22.2696ZM10.9212 15.3839C9.59641 14.9589 8.65208 14.3679 7.74709 13.3973C3.80124 9.16537 6.11977 2.10096 11.783 1.10022C13.9036 0.725486 16.3756 1.42351 17.9026 2.8282C18.7104 3.5713 19.6431 4.74263 19.6431 5.01398C19.6431 5.09704 19.3643 5.28187 19.0235 5.42472L18.4039 5.68444L17.8957 5.04037C17.1056 4.03891 16.6324 3.64522 15.5497 3.08861C14.6507 2.62645 14.3979 2.5743 13.1018 2.5836C11.9232 2.59206 11.4853 2.67253 10.7299 3.01949C9.54553 3.56343 8.37729 4.73674 7.80898 5.95303C7.42907 6.7661 7.36285 7.13175 7.36285 8.41634C7.36285 9.81402 7.40459 10.0021 7.93076 10.9755C8.87912 12.73 10.5183 13.8927 12.3887 14.1377C13.4262 14.2735 13.6283 14.4372 13.6283 15.1414V15.7075L12.7511 15.6985C12.2687 15.6934 11.4452 15.552 10.9212 15.3839V15.3839Z"/>
</mask>
<path d="M13.3777 37.6778C10.8654 36.9303 8.86523 35.7671 7.52955 34.2767C6.53495 33.1669 5.97544 32.1977 5.42471 30.6305L4.98099 29.3679L3.69597 29.3188L2.41095 29.2696L2.16804 28.6864C1.99603 28.2734 1.97381 28.0119 2.09193 27.7905C2.18366 27.6186 3.58473 26.222 5.20541 24.687L8.15209 21.896L9.09409 22.7764C9.6122 23.2606 11.0334 24.6169 12.2524 25.7903L14.4687 27.9238L14.2001 28.5972L13.9316 29.2706L12.6521 29.3192L11.3727 29.3679L11.4318 30.1222C11.5976 32.2418 12.8471 34.6677 14.4693 36.0195L15.1975 36.6263L14.8887 37.3131C14.719 37.6909 14.5351 37.9946 14.4801 37.988C14.4252 37.9814 13.9291 37.8418 13.3777 37.6778L13.3777 37.6778ZM11.588 35.1925C10.3077 32.6456 9.99089 31.5827 9.83926 29.326L9.73509 27.7756H10.8846H12.0341L10.5339 26.2551C9.70873 25.4188 8.82674 24.5839 8.57387 24.3997L8.11411 24.0649L6.27662 25.7945C5.266 26.7459 4.4391 27.577 4.43906 27.6415C4.43902 27.7061 4.86501 27.7815 5.38571 27.8092L6.33243 27.8594L6.55083 28.9368C6.83664 30.3468 7.7269 32.1882 8.5977 33.1705C9.50392 34.1928 11.8999 35.8129 11.588 35.1925V35.1925ZM17.4711 37.2457V36.4915H27.4958C36.9319 36.4915 37.5204 36.4743 37.52 36.1982C37.5187 35.2537 37.099 32.7163 36.7742 31.6866C36.0144 29.2782 34.4091 27.0606 32.2879 25.4891L31.3158 24.7689L30.4737 25.4366C29.4304 26.264 27.5335 27.1804 26.3598 27.4241C23.5667 28.0042 20.3422 27.2684 18.0962 25.5385C17.6589 25.2018 17.2194 24.9262 17.1195 24.9262C16.9051 24.9262 16.1107 25.464 15.3176 26.1461L14.7513 26.633L14.2385 26.1186L13.7257 25.6041L14.2193 25.0872C14.682 24.6028 17.1516 22.9148 17.3977 22.9148C17.4594 22.9148 17.9374 23.3108 18.4599 23.7948C20.1575 25.3673 22.0034 26.1031 24.2311 26.0954C26.4515 26.0877 28.1994 25.3947 29.9544 23.8264L30.9915 22.8996L31.541 23.1797C32.6623 23.7513 34.161 24.9425 35.3043 26.1706C37.4143 28.4372 38.6864 31.5847 38.9503 35.192C39.0148 36.0729 39.0168 37.0651 38.9548 37.3968L38.842 38H28.1565H17.4711V37.2457ZM1.02569 23.9397C0.851008 23.6562 1.6005 21.1472 2.26536 19.7898C3.07142 18.1441 4.76287 16.2488 6.35305 15.2094L7.44105 14.4983L8.31334 15.2851C9.86727 16.6867 11.7059 17.3274 13.5501 17.11L14.4272 17.0065L14.5456 17.7092C14.6107 18.0957 14.6226 18.4533 14.5721 18.504C14.3977 18.679 11.274 18.5779 10.6561 18.3772C9.79931 18.099 8.46997 17.4249 7.83344 16.9458C7.54091 16.7257 7.22413 16.5456 7.12947 16.5456C6.78237 16.5456 4.76845 18.6119 4.13585 19.6171C3.4983 20.6302 2.95827 21.952 2.60026 23.3758C2.42785 24.0615 2.39672 24.0881 1.76913 24.0881C1.41052 24.0881 1.07596 24.0213 1.02566 23.9397H1.02569ZM21.648 23.7717C18.4279 22.7261 15.936 20.0423 15.2908 16.9248C14.9978 15.509 15.1708 13.1852 15.6704 11.8279C16.7173 8.9833 19.2112 6.77487 22.1656 6.07626C28.0509 4.68454 33.6675 9.46227 33.2908 15.5399C33.0443 19.5158 30.3459 22.8448 26.5699 23.8315C25.2335 24.1807 22.8171 24.1513 21.648 23.7717V23.7717ZM26.454 22.2696C30.0241 21.1549 32.3152 17.4682 31.7041 13.8216C31.1441 10.4799 28.6111 7.95939 25.2951 7.44448C22.0771 6.94479 18.8965 8.67255 17.3845 11.7416C15.3746 15.8215 17.5533 20.8466 21.9424 22.2541C23.2199 22.6638 25.17 22.6705 26.454 22.2696V22.2696ZM10.9212 15.3839C9.59641 14.9589 8.65208 14.3679 7.74709 13.3973C3.80124 9.16537 6.11977 2.10096 11.783 1.10022C13.9036 0.725486 16.3756 1.42351 17.9026 2.8282C18.7104 3.5713 19.6431 4.74263 19.6431 5.01398C19.6431 5.09704 19.3643 5.28187 19.0235 5.42472L18.4039 5.68444L17.8957 5.04037C17.1056 4.03891 16.6324 3.64522 15.5497 3.08861C14.6507 2.62645 14.3979 2.5743 13.1018 2.5836C11.9232 2.59206 11.4853 2.67253 10.7299 3.01949C9.54553 3.56343 8.37729 4.73674 7.80898 5.95303C7.42907 6.7661 7.36285 7.13175 7.36285 8.41634C7.36285 9.81402 7.40459 10.0021 7.93076 10.9755C8.87912 12.73 10.5183 13.8927 12.3887 14.1377C13.4262 14.2735 13.6283 14.4372 13.6283 15.1414V15.7075L12.7511 15.6985C12.2687 15.6934 11.4452 15.552 10.9212 15.3839V15.3839Z" fill="#313131"/>
<path d="M13.3777 37.6778C10.8654 36.9303 8.86523 35.7671 7.52955 34.2767C6.53495 33.1669 5.97544 32.1977 5.42471 30.6305L4.98099 29.3679L3.69597 29.3188L2.41095 29.2696L2.16804 28.6864C1.99603 28.2734 1.97381 28.0119 2.09193 27.7905C2.18366 27.6186 3.58473 26.222 5.20541 24.687L8.15209 21.896L9.09409 22.7764C9.6122 23.2606 11.0334 24.6169 12.2524 25.7903L14.4687 27.9238L14.2001 28.5972L13.9316 29.2706L12.6521 29.3192L11.3727 29.3679L11.4318 30.1222C11.5976 32.2418 12.8471 34.6677 14.4693 36.0195L15.1975 36.6263L14.8887 37.3131C14.719 37.6909 14.5351 37.9946 14.4801 37.988C14.4252 37.9814 13.9291 37.8418 13.3777 37.6778L13.3777 37.6778ZM11.588 35.1925C10.3077 32.6456 9.99089 31.5827 9.83926 29.326L9.73509 27.7756H10.8846H12.0341L10.5339 26.2551C9.70873 25.4188 8.82674 24.5839 8.57387 24.3997L8.11411 24.0649L6.27662 25.7945C5.266 26.7459 4.4391 27.577 4.43906 27.6415C4.43902 27.7061 4.86501 27.7815 5.38571 27.8092L6.33243 27.8594L6.55083 28.9368C6.83664 30.3468 7.7269 32.1882 8.5977 33.1705C9.50392 34.1928 11.8999 35.8129 11.588 35.1925V35.1925ZM17.4711 37.2457V36.4915H27.4958C36.9319 36.4915 37.5204 36.4743 37.52 36.1982C37.5187 35.2537 37.099 32.7163 36.7742 31.6866C36.0144 29.2782 34.4091 27.0606 32.2879 25.4891L31.3158 24.7689L30.4737 25.4366C29.4304 26.264 27.5335 27.1804 26.3598 27.4241C23.5667 28.0042 20.3422 27.2684 18.0962 25.5385C17.6589 25.2018 17.2194 24.9262 17.1195 24.9262C16.9051 24.9262 16.1107 25.464 15.3176 26.1461L14.7513 26.633L14.2385 26.1186L13.7257 25.6041L14.2193 25.0872C14.682 24.6028 17.1516 22.9148 17.3977 22.9148C17.4594 22.9148 17.9374 23.3108 18.4599 23.7948C20.1575 25.3673 22.0034 26.1031 24.2311 26.0954C26.4515 26.0877 28.1994 25.3947 29.9544 23.8264L30.9915 22.8996L31.541 23.1797C32.6623 23.7513 34.161 24.9425 35.3043 26.1706C37.4143 28.4372 38.6864 31.5847 38.9503 35.192C39.0148 36.0729 39.0168 37.0651 38.9548 37.3968L38.842 38H28.1565H17.4711V37.2457ZM1.02569 23.9397C0.851008 23.6562 1.6005 21.1472 2.26536 19.7898C3.07142 18.1441 4.76287 16.2488 6.35305 15.2094L7.44105 14.4983L8.31334 15.2851C9.86727 16.6867 11.7059 17.3274 13.5501 17.11L14.4272 17.0065L14.5456 17.7092C14.6107 18.0957 14.6226 18.4533 14.5721 18.504C14.3977 18.679 11.274 18.5779 10.6561 18.3772C9.79931 18.099 8.46997 17.4249 7.83344 16.9458C7.54091 16.7257 7.22413 16.5456 7.12947 16.5456C6.78237 16.5456 4.76845 18.6119 4.13585 19.6171C3.4983 20.6302 2.95827 21.952 2.60026 23.3758C2.42785 24.0615 2.39672 24.0881 1.76913 24.0881C1.41052 24.0881 1.07596 24.0213 1.02566 23.9397H1.02569ZM21.648 23.7717C18.4279 22.7261 15.936 20.0423 15.2908 16.9248C14.9978 15.509 15.1708 13.1852 15.6704 11.8279C16.7173 8.9833 19.2112 6.77487 22.1656 6.07626C28.0509 4.68454 33.6675 9.46227 33.2908 15.5399C33.0443 19.5158 30.3459 22.8448 26.5699 23.8315C25.2335 24.1807 22.8171 24.1513 21.648 23.7717V23.7717ZM26.454 22.2696C30.0241 21.1549 32.3152 17.4682 31.7041 13.8216C31.1441 10.4799 28.6111 7.95939 25.2951 7.44448C22.0771 6.94479 18.8965 8.67255 17.3845 11.7416C15.3746 15.8215 17.5533 20.8466 21.9424 22.2541C23.2199 22.6638 25.17 22.6705 26.454 22.2696V22.2696ZM10.9212 15.3839C9.59641 14.9589 8.65208 14.3679 7.74709 13.3973C3.80124 9.16537 6.11977 2.10096 11.783 1.10022C13.9036 0.725486 16.3756 1.42351 17.9026 2.8282C18.7104 3.5713 19.6431 4.74263 19.6431 5.01398C19.6431 5.09704 19.3643 5.28187 19.0235 5.42472L18.4039 5.68444L17.8957 5.04037C17.1056 4.03891 16.6324 3.64522 15.5497 3.08861C14.6507 2.62645 14.3979 2.5743 13.1018 2.5836C11.9232 2.59206 11.4853 2.67253 10.7299 3.01949C9.54553 3.56343 8.37729 4.73674 7.80898 5.95303C7.42907 6.7661 7.36285 7.13175 7.36285 8.41634C7.36285 9.81402 7.40459 10.0021 7.93076 10.9755C8.87912 12.73 10.5183 13.8927 12.3887 14.1377C13.4262 14.2735 13.6283 14.4372 13.6283 15.1414V15.7075L12.7511 15.6985C12.2687 15.6934 11.4452 15.552 10.9212 15.3839V15.3839Z" stroke="#313131" mask="url(#path-1-outside-1_307:233)"/>
</svg>
