<svg width="170" height="43" viewBox="0 0 170 43" fill="none" xmlns="http://www.w3.org/2000/svg">
<path d="M51.502 11.2891H45.5449L44.207 15H42.2734L47.7031 0.78125H49.3438L54.7832 15H52.8594L51.502 11.2891ZM46.1113 9.74609H50.9453L48.5234 3.0957L46.1113 9.74609ZM58.377 15H56.5703V0H58.377V15ZM63.2402 15H61.4336V0H63.2402V15ZM69.9004 9.69727H65.1348V8.22266H69.9004V9.69727ZM81.7754 2.32422H77.2051V15H75.3398V2.32422H70.7793V0.78125H81.7754V2.32422ZM85.5645 15H83.7578V4.43359H85.5645V15ZM83.6113 1.63086C83.6113 1.33789 83.6992 1.09049 83.875 0.888672C84.0573 0.686849 84.3242 0.585938 84.6758 0.585938C85.0273 0.585938 85.2943 0.686849 85.4766 0.888672C85.6589 1.09049 85.75 1.33789 85.75 1.63086C85.75 1.92383 85.6589 2.16797 85.4766 2.36328C85.2943 2.55859 85.0273 2.65625 84.6758 2.65625C84.3242 2.65625 84.0573 2.55859 83.875 2.36328C83.6992 2.16797 83.6113 1.92383 83.6113 1.63086ZM90.1641 4.43359L90.2129 5.60547C90.9876 4.69401 92.0326 4.23828 93.3477 4.23828C94.8255 4.23828 95.8314 4.80469 96.3652 5.9375C96.7168 5.42969 97.1725 5.01953 97.7324 4.70703C98.2988 4.39453 98.9661 4.23828 99.7344 4.23828C102.052 4.23828 103.23 5.46549 103.27 7.91992V15H101.463V8.02734C101.463 7.27214 101.29 6.70898 100.945 6.33789C100.6 5.96029 100.021 5.77148 99.207 5.77148C98.5365 5.77148 97.9798 5.97331 97.5371 6.37695C97.0944 6.77409 96.8372 7.3112 96.7656 7.98828V15H94.9492V8.07617C94.9492 6.53971 94.1973 5.77148 92.6934 5.77148C91.5085 5.77148 90.6979 6.27604 90.2617 7.28516V15H88.4551V4.43359H90.1641ZM110.389 15.1953C108.956 15.1953 107.791 14.7266 106.893 13.7891C105.994 12.8451 105.545 11.5853 105.545 10.0098V9.67773C105.545 8.62956 105.743 7.69531 106.141 6.875C106.544 6.04818 107.104 5.40365 107.82 4.94141C108.543 4.47266 109.324 4.23828 110.164 4.23828C111.538 4.23828 112.605 4.69076 113.367 5.5957C114.129 6.50065 114.51 7.79622 114.51 9.48242V10.2344H107.352C107.378 11.276 107.68 12.1191 108.26 12.7637C108.846 13.4017 109.588 13.7207 110.486 13.7207C111.124 13.7207 111.665 13.5905 112.107 13.3301C112.55 13.0697 112.938 12.7246 113.27 12.2949L114.373 13.1543C113.488 14.515 112.16 15.1953 110.389 15.1953ZM110.164 5.72266C109.435 5.72266 108.823 5.98958 108.328 6.52344C107.833 7.05078 107.527 7.79297 107.41 8.75H112.703V8.61328C112.651 7.69531 112.404 6.98568 111.961 6.48438C111.518 5.97656 110.919 5.72266 110.164 5.72266ZM131.287 2.32422H126.717V15H124.852V2.32422H120.291V0.78125H131.287V2.32422ZM137.479 6.05469C137.205 6.00911 136.909 5.98633 136.59 5.98633C135.405 5.98633 134.601 6.49089 134.178 7.5V15H132.371V4.43359H134.129L134.158 5.6543C134.751 4.71029 135.59 4.23828 136.678 4.23828C137.029 4.23828 137.296 4.28385 137.479 4.375V6.05469ZM145.281 15C145.177 14.7917 145.092 14.4206 145.027 13.8867C144.188 14.7591 143.185 15.1953 142.02 15.1953C140.978 15.1953 140.122 14.9023 139.451 14.3164C138.787 13.724 138.455 12.9753 138.455 12.0703C138.455 10.9701 138.872 10.1172 139.705 9.51172C140.545 8.89974 141.723 8.59375 143.24 8.59375H144.998V7.76367C144.998 7.13216 144.809 6.63086 144.432 6.25977C144.054 5.88216 143.497 5.69336 142.762 5.69336C142.117 5.69336 141.577 5.85612 141.141 6.18164C140.704 6.50716 140.486 6.90104 140.486 7.36328H138.67C138.67 6.83594 138.855 6.32812 139.227 5.83984C139.604 5.34505 140.112 4.95443 140.75 4.66797C141.395 4.38151 142.101 4.23828 142.869 4.23828C144.087 4.23828 145.04 4.54427 145.73 5.15625C146.421 5.76172 146.779 6.59831 146.805 7.66602V12.5293C146.805 13.4993 146.928 14.2708 147.176 14.8438V15H145.281ZM142.283 13.623C142.85 13.623 143.387 13.4766 143.895 13.1836C144.402 12.8906 144.77 12.5098 144.998 12.041V9.87305H143.582C141.368 9.87305 140.262 10.5208 140.262 11.8164C140.262 12.3828 140.451 12.8255 140.828 13.1445C141.206 13.4635 141.691 13.623 142.283 13.623ZM149.197 9.62891C149.197 8.00781 149.581 6.70573 150.35 5.72266C151.118 4.73307 152.124 4.23828 153.367 4.23828C154.604 4.23828 155.584 4.66146 156.307 5.50781V0H158.113V15H156.453L156.365 13.8672C155.643 14.7526 154.637 15.1953 153.348 15.1953C152.124 15.1953 151.124 14.694 150.35 13.6914C149.581 12.6888 149.197 11.3802 149.197 9.76562V9.62891ZM151.004 9.83398C151.004 11.0319 151.251 11.9694 151.746 12.6465C152.241 13.3236 152.924 13.6621 153.797 13.6621C154.943 13.6621 155.779 13.1478 156.307 12.1191V7.26562C155.766 6.26953 154.936 5.77148 153.816 5.77148C152.931 5.77148 152.241 6.11328 151.746 6.79688C151.251 7.48047 151.004 8.49284 151.004 9.83398ZM165.311 15.1953C163.878 15.1953 162.713 14.7266 161.814 13.7891C160.916 12.8451 160.467 11.5853 160.467 10.0098V9.67773C160.467 8.62956 160.665 7.69531 161.062 6.875C161.466 6.04818 162.026 5.40365 162.742 4.94141C163.465 4.47266 164.246 4.23828 165.086 4.23828C166.46 4.23828 167.527 4.69076 168.289 5.5957C169.051 6.50065 169.432 7.79622 169.432 9.48242V10.2344H162.273C162.299 11.276 162.602 12.1191 163.182 12.7637C163.768 13.4017 164.51 13.7207 165.408 13.7207C166.046 13.7207 166.587 13.5905 167.029 13.3301C167.472 13.0697 167.859 12.7246 168.191 12.2949L169.295 13.1543C168.41 14.515 167.081 15.1953 165.311 15.1953ZM165.086 5.72266C164.357 5.72266 163.745 5.98958 163.25 6.52344C162.755 7.05078 162.449 7.79297 162.332 8.75H167.625V8.61328C167.573 7.69531 167.326 6.98568 166.883 6.48438C166.44 5.97656 165.841 5.72266 165.086 5.72266ZM48.8652 32.248H45.5254V38H43.6406V23.7812H48.3477C49.9492 23.7812 51.1797 24.1458 52.0391 24.875C52.9049 25.6042 53.3379 26.6654 53.3379 28.0586C53.3379 28.944 53.097 29.7155 52.6152 30.373C52.14 31.0306 51.4759 31.5221 50.623 31.8477L53.9629 37.8828V38H51.9512L48.8652 32.248ZM45.5254 30.7148H48.4062C49.3372 30.7148 50.0762 30.474 50.623 29.9922C51.1764 29.5104 51.4531 28.8659 51.4531 28.0586C51.4531 27.1797 51.1895 26.5059 50.6621 26.0371C50.1413 25.5684 49.3861 25.3307 48.3965 25.3242H45.5254V30.7148ZM62.2148 38C62.1107 37.7917 62.026 37.4206 61.9609 36.8867C61.1211 37.7591 60.1185 38.1953 58.9531 38.1953C57.9115 38.1953 57.0553 37.9023 56.3848 37.3164C55.7207 36.724 55.3887 35.9753 55.3887 35.0703C55.3887 33.9701 55.8053 33.1172 56.6387 32.5117C57.4785 31.8997 58.6569 31.5938 60.1738 31.5938H61.9316V30.7637C61.9316 30.1322 61.7428 29.6309 61.3652 29.2598C60.9876 28.8822 60.431 28.6934 59.6953 28.6934C59.0508 28.6934 58.5104 28.8561 58.0742 29.1816C57.638 29.5072 57.4199 29.901 57.4199 30.3633H55.6035C55.6035 29.8359 55.7891 29.3281 56.1602 28.8398C56.5378 28.3451 57.0456 27.9544 57.6836 27.668C58.3281 27.3815 59.0345 27.2383 59.8027 27.2383C61.0202 27.2383 61.974 27.5443 62.6641 28.1562C63.3542 28.7617 63.7122 29.5983 63.7383 30.666V35.5293C63.7383 36.4993 63.862 37.2708 64.1094 37.8438V38H62.2148ZM59.2168 36.623C59.7832 36.623 60.3203 36.4766 60.8281 36.1836C61.3359 35.8906 61.7038 35.5098 61.9316 35.041V32.873H60.5156C58.3021 32.873 57.1953 33.5208 57.1953 34.8164C57.1953 35.3828 57.3841 35.8255 57.7617 36.1445C58.1393 36.4635 58.6243 36.623 59.2168 36.623ZM68.2793 27.4336L68.3379 28.7617C69.1452 27.7461 70.1999 27.2383 71.502 27.2383C73.735 27.2383 74.8613 28.498 74.8809 31.0176V38H73.0742V31.0078C73.0677 30.2461 72.8919 29.6829 72.5469 29.3184C72.2083 28.9538 71.6777 28.7715 70.9551 28.7715C70.3691 28.7715 69.8548 28.9277 69.4121 29.2402C68.9694 29.5527 68.6243 29.9629 68.377 30.4707V38H66.5703V27.4336H68.2793ZM77.1758 32.6289C77.1758 30.9818 77.5566 29.6732 78.3184 28.7031C79.0801 27.7266 80.0892 27.2383 81.3457 27.2383C82.6348 27.2383 83.6406 27.694 84.3633 28.6055L84.4512 27.4336H86.1016V37.7461C86.1016 39.1133 85.6947 40.1908 84.8809 40.9785C84.0736 41.7663 82.9863 42.1602 81.6191 42.1602C80.8574 42.1602 80.112 41.9974 79.3828 41.6719C78.6536 41.3464 78.097 40.9004 77.7129 40.334L78.6504 39.25C79.4251 40.207 80.3724 40.6855 81.4922 40.6855C82.3711 40.6855 83.0547 40.4382 83.543 39.9434C84.0378 39.4486 84.2852 38.752 84.2852 37.8535V36.9453C83.5625 37.7786 82.5762 38.1953 81.3262 38.1953C80.0892 38.1953 79.0866 37.6973 78.3184 36.7012C77.5566 35.7051 77.1758 34.3477 77.1758 32.6289ZM78.9922 32.834C78.9922 34.0254 79.2363 34.9629 79.7246 35.6465C80.2129 36.3236 80.8965 36.6621 81.7754 36.6621C82.9147 36.6621 83.7513 36.1445 84.2852 35.1094V30.2852C83.7318 29.276 82.9017 28.7715 81.7949 28.7715C80.916 28.7715 80.2292 29.1133 79.7344 29.7969C79.2396 30.4805 78.9922 31.4928 78.9922 32.834ZM93.2207 38.1953C91.7884 38.1953 90.623 37.7266 89.7246 36.7891C88.8262 35.8451 88.377 34.5853 88.377 33.0098V32.6777C88.377 31.6296 88.5755 30.6953 88.9727 29.875C89.3763 29.0482 89.9362 28.4036 90.6523 27.9414C91.375 27.4727 92.1562 27.2383 92.9961 27.2383C94.3698 27.2383 95.4375 27.6908 96.1992 28.5957C96.9609 29.5007 97.3418 30.7962 97.3418 32.4824V33.2344H90.1836C90.2096 34.276 90.5124 35.1191 91.0918 35.7637C91.6777 36.4017 92.4199 36.7207 93.3184 36.7207C93.9564 36.7207 94.4967 36.5905 94.9395 36.3301C95.3822 36.0697 95.7695 35.7246 96.1016 35.2949L97.2051 36.1543C96.3197 37.515 94.9915 38.1953 93.2207 38.1953ZM92.9961 28.7227C92.2669 28.7227 91.6549 28.9896 91.1602 29.5234C90.6654 30.0508 90.3594 30.793 90.2422 31.75H95.5352V31.6133C95.4831 30.6953 95.2357 29.9857 94.793 29.4844C94.3503 28.9766 93.7513 28.7227 92.9961 28.7227Z" fill="#626262"/>
<path d="M15.8002 0.000685794C11.9239 0.00354346 8.82596 0.0153551 8.81212 0.0379307C8.79995 0.0577438 8.83654 0.214125 8.89352 0.385527L8.99718 0.697156L19.3567 0.709348C28.9125 0.720493 29.7231 0.727542 29.8043 0.800603C29.8842 0.872616 29.8923 0.973206 29.8923 1.9032C29.8923 2.46604 29.9083 2.9265 29.9279 2.9265C29.9896 2.9265 31.1688 2.67718 31.1871 2.66028C31.2152 2.63418 31.1972 0.280451 31.1681 0.189234C31.1535 0.143417 31.0741 0.0825007 30.9917 0.0539336C30.883 0.0162124 22.2607 -0.00407698 15.8002 0.000685794H15.8002ZM5.91009 0.00925879C5.41351 0.00973507 4.87092 0.0111639 4.30532 0.013069L0.191957 0.0265L0.0998283 0.139711C0.0108601 0.249045 0.00789126 0.376259 0.0128712 3.87928C0.0157442 5.87378 0.031929 7.72474 0.0490714 7.99255C0.066118 8.26036 0.0638196 8.46946 0.044283 8.45719C0.0243633 8.4449 0.0080828 10.2376 0.0080828 12.441V16.447H15.6131H31.2182V12.5157C31.2182 10.3534 31.2106 8.58434 31.2022 8.58434C31.1936 8.58435 30.8952 8.84486 30.5395 9.16323L29.8927 9.7421V12.7591V15.7759L15.6132 15.7638L1.33363 15.7518V8.3047C1.33362 0.988276 1.33554 0.85647 1.42719 0.78962C1.50553 0.732657 1.98871 0.721608 4.39437 0.721608C6.84644 0.721608 7.28172 0.711225 7.36156 0.651214C7.48377 0.559388 7.74048 0.558435 7.81664 0.649309C7.87889 0.723894 8.39523 0.756023 8.39487 0.68522C8.39487 0.665407 8.27548 0.585306 8.12976 0.507121C7.87431 0.370067 7.80906 0.281718 7.91521 0.216468C7.96472 0.186081 8.62803 0.552415 8.69367 0.646461C8.77565 0.763825 8.77804 0.612169 8.69846 0.341481C8.63573 0.127728 8.58524 0.0397977 8.51544 0.0227279C8.47569 0.0130118 7.40006 0.00805856 5.91033 0.00929689L5.91009 0.00925879ZM35.9789 2.46437C35.8931 2.47009 35.5565 2.53058 35.1648 2.61073C34.7171 2.70227 33.3965 2.973 32.2301 3.21227C31.0636 3.45154 29.9937 3.67039 29.8525 3.69864C29.6197 3.74522 29.6021 3.75741 29.6641 3.82973C29.7018 3.87354 30.0929 4.31467 30.5333 4.80993L31.3341 5.71046L31.0582 5.96057C30.9065 6.09816 30.2354 6.69358 29.5671 7.28369C28.8987 7.8738 28.3638 8.37587 28.3785 8.39949C28.3932 8.42312 28.3862 8.43655 28.3634 8.42931C28.324 8.41693 27.8592 8.78925 27.3121 9.27159L27.0696 9.48537L25.4323 7.97403C23.1315 5.85031 22.9852 5.72237 22.813 5.68475C22.7301 5.66665 22.5966 5.66608 22.5163 5.68379C22.4262 5.70351 21.7762 6.19585 20.8172 6.97077C19.963 7.66103 18.4555 8.87971 17.4673 9.679C16.4792 10.4783 15.651 11.1253 15.6269 11.1167C15.6029 11.1082 15.1099 10.6563 14.5315 10.1125C12.9775 8.65172 12.8232 8.51216 12.7602 8.51216C12.7286 8.51216 12.5093 8.71443 12.2728 8.96163L11.8428 9.41109L11.9921 9.53694C12.0743 9.60619 12.8402 10.3208 13.6943 11.1251C14.5483 11.9293 15.2832 12.602 15.3275 12.6199C15.3717 12.6378 15.5091 12.654 15.6326 12.6558C15.8263 12.6587 15.8927 12.6313 16.1146 12.4571C16.3426 12.2781 19.1466 10.0121 20.1117 9.22686C20.3128 9.06322 20.9613 8.53972 21.5528 8.06358L22.6283 7.19789L22.7515 7.29424C22.8192 7.3472 23.0286 7.53502 23.2169 7.71159C24.8283 9.22274 26.647 10.8766 26.7728 10.9452C26.9801 11.0584 27.1822 11.0504 27.3897 10.9209C27.4846 10.8618 28.4375 10.0367 29.5072 9.0874C30.577 8.13813 31.6244 7.21136 31.835 7.0279L32.2179 6.69427L32.3275 6.82096C32.7935 7.35982 33.9567 8.63246 33.9706 8.61864C34.0091 8.58035 36.0194 2.48464 35.9999 2.46525C35.9978 2.46335 35.9912 2.46335 35.979 2.46439L35.9789 2.46437ZM6.71735 2.9601C6.53652 2.96391 6.3977 2.97991 6.36027 3.01087C6.32148 3.04288 6.18007 3.0666 6.04611 3.06364C5.71743 3.05602 5.67028 3.0926 5.79034 3.26028C5.87164 3.37381 5.87634 3.40414 5.82031 3.45046C5.76745 3.49408 5.72512 3.47113 5.61611 3.33988C5.48177 3.17807 5.47481 3.17578 5.31947 3.2409L5.16046 3.30757L5.30422 3.46471C5.47791 3.65456 5.48812 3.71756 5.3454 3.71847C5.27128 3.719 5.23279 3.75228 5.22235 3.82474C5.20147 3.9695 4.94551 4.17317 4.7844 4.17317C4.62938 4.17317 4.45876 4.01048 4.43249 3.83758C4.41564 3.72682 4.38145 3.75061 3.9824 4.14949C3.12712 5.00441 2.75402 5.97985 2.81814 7.1936C2.85079 7.81109 2.98092 8.28573 3.26212 8.81289C3.68758 9.61054 4.23054 10.1487 4.99556 10.5312C5.30841 10.6876 5.4342 10.7301 5.44952 10.6845C5.4612 10.6499 5.70434 9.76175 5.9898 8.71092C6.27528 7.66009 6.53976 6.76475 6.57762 6.72128C7.3314 5.85601 9.11383 3.67831 9.09415 3.64665C8.99953 3.49442 8.24968 3.17126 7.69717 3.04464C7.43699 2.98501 7.01882 2.95453 6.71743 2.96015L6.71735 2.9601ZM4.976 3.41266C4.93338 3.41074 4.88128 3.44819 4.78329 3.53018C4.62941 3.65896 4.59165 3.82321 4.69279 3.92383C4.7809 4.01146 4.89659 3.99289 5.00789 3.87344C5.13444 3.7376 5.16032 3.58767 5.07492 3.48531C5.03643 3.43921 5.00913 3.41406 4.97598 3.41263L4.976 3.41266ZM9.67201 4.12338L8.60115 5.40436C8.01218 6.1089 7.53797 6.69309 7.54741 6.70247C7.55698 6.712 8.28819 6.83457 9.1726 6.97515C10.057 7.11573 10.7999 7.23317 10.8235 7.23612C10.9062 7.2465 10.8187 6.17924 10.7084 5.82714C10.556 5.34233 10.1946 4.68542 9.91453 4.38416L9.67201 4.12338ZM7.1618 7.38529C7.08787 7.38529 7.05205 7.50132 6.54028 9.3989C6.33759 10.1504 6.16124 10.8015 6.14836 10.8458C6.13131 10.9044 6.16157 10.9327 6.25963 10.9497C6.57264 11.0041 7.55518 10.938 7.9044 10.8391C8.30082 10.7267 8.80694 10.4902 9.15225 10.2562C9.47541 10.0371 9.97803 9.52371 10.2023 9.18344C10.3905 8.89795 10.6718 8.29032 10.7262 8.0519C10.7542 7.92935 10.7488 7.92653 10.382 7.87381C10.1771 7.84437 9.38317 7.72242 8.6178 7.60281C7.85245 7.48321 7.19726 7.38529 7.1618 7.38529ZM0 17.741L0.0158974 18.616C0.030933 19.4424 0.0380198 19.4996 0.144121 19.6476C0.205891 19.7337 0.336049 19.8461 0.43333 19.8972C0.60575 19.9878 0.774483 19.9902 7.14155 19.9923L13.673 19.9942L13.8135 19.8462C13.9217 19.7322 13.9855 19.7027 14.0905 19.718C14.2125 19.7358 14.2484 19.7068 14.234 19.6024C14.2311 19.5847 14.2918 19.5038 14.368 19.4226C14.6174 19.1571 14.7972 19.2363 15.2028 19.7905C15.3514 19.9935 15.3531 19.9942 15.6601 19.9942H15.9683L15.9532 19.8411C15.9395 19.7028 15.8891 19.6584 15.4321 19.3834C14.834 19.0234 14.8141 19.0064 14.9434 18.9656C15.0129 18.9436 15.1554 18.9991 15.4169 19.1499C15.6226 19.2685 15.7992 19.3574 15.8093 19.3474C15.8193 19.3374 15.7692 19.1544 15.6976 18.9409C15.5757 18.5769 15.5652 18.4121 15.6639 18.4121C15.711 18.4121 16.0954 19.551 16.1394 19.8212L16.1677 19.9942H23.3813H30.5949L30.8072 19.8863C31.149 19.7126 31.1893 19.584 31.1941 18.6518C31.1961 18.2167 31.1969 17.8338 31.1961 17.8008C31.1941 17.7532 29.8901 17.7409 24.8407 17.7409H18.4874L18.4045 17.9279C18.2507 18.2745 18.3021 18.2683 15.5887 18.2683H13.181L13.0188 18.1596C12.9232 18.0954 12.8382 17.9872 12.8118 17.8959L12.7671 17.7409H6.38369L0 17.741ZM14.6214 19.4686C14.406 19.4724 14.2536 19.7743 14.3956 19.9156C14.4959 20.0154 15.1225 20.033 15.0659 19.9345C14.9586 19.7476 14.691 19.4673 14.6214 19.4686V19.4686ZM14.0342 19.9176C14.0063 19.9176 13.9785 19.9262 13.9498 19.9426C13.881 19.9824 13.8966 19.9915 14.0342 19.9915C14.1718 19.9915 14.1874 19.9829 14.1186 19.9426C14.0899 19.926 14.0621 19.9176 14.0342 19.9176Z" fill="#313131"/>
</svg>
