<svg width="149" height="42" viewBox="0 0 149 42" fill="none" xmlns="http://www.w3.org/2000/svg">
<path d="M43.502 14.2891H37.5449L36.207 18H34.2734L39.7031 3.78125H41.3438L46.7832 18H44.8594L43.502 14.2891ZM38.1113 12.7461H42.9453L40.5234 6.0957L38.1113 12.7461ZM51.4121 15.5488L54.0293 7.43359H55.875L52.0859 18H50.709L46.8809 7.43359H48.7266L51.4121 15.5488ZM61.8613 18.1953C60.429 18.1953 59.2637 17.7266 58.3652 16.7891C57.4668 15.8451 57.0176 14.5853 57.0176 13.0098V12.6777C57.0176 11.6296 57.2161 10.6953 57.6133 9.875C58.0169 9.04818 58.5768 8.40365 59.293 7.94141C60.0156 7.47266 60.7969 7.23828 61.6367 7.23828C63.0104 7.23828 64.0781 7.69076 64.8398 8.5957C65.6016 9.50065 65.9824 10.7962 65.9824 12.4824V13.2344H58.8242C58.8503 14.276 59.153 15.1191 59.7324 15.7637C60.3184 16.4017 61.0605 16.7207 61.959 16.7207C62.597 16.7207 63.1374 16.5905 63.5801 16.3301C64.0228 16.0697 64.4102 15.7246 64.7422 15.2949L65.8457 16.1543C64.9603 17.515 63.6322 18.1953 61.8613 18.1953ZM61.6367 8.72266C60.9076 8.72266 60.2956 8.98958 59.8008 9.52344C59.306 10.0508 59 10.793 58.8828 11.75H64.1758V11.6133C64.1237 10.6953 63.8763 9.98568 63.4336 9.48438C62.9909 8.97656 62.3919 8.72266 61.6367 8.72266ZM73.1895 9.05469C72.916 9.00911 72.6198 8.98633 72.3008 8.98633C71.1159 8.98633 70.3118 9.49089 69.8887 10.5V18H68.082V7.43359H69.8398L69.8691 8.6543C70.4616 7.71029 71.3014 7.23828 72.3887 7.23828C72.7402 7.23828 73.0072 7.28385 73.1895 7.375V9.05469ZM80.9922 18C80.888 17.7917 80.8034 17.4206 80.7383 16.8867C79.8984 17.7591 78.8958 18.1953 77.7305 18.1953C76.6888 18.1953 75.8327 17.9023 75.1621 17.3164C74.498 16.724 74.166 15.9753 74.166 15.0703C74.166 13.9701 74.5827 13.1172 75.416 12.5117C76.2559 11.8997 77.4342 11.5938 78.9512 11.5938H80.709V10.7637C80.709 10.1322 80.5202 9.63086 80.1426 9.25977C79.765 8.88216 79.2083 8.69336 78.4727 8.69336C77.8281 8.69336 77.2878 8.85612 76.8516 9.18164C76.4154 9.50716 76.1973 9.90104 76.1973 10.3633H74.3809C74.3809 9.83594 74.5664 9.32812 74.9375 8.83984C75.3151 8.34505 75.8229 7.95443 76.4609 7.66797C77.1055 7.38151 77.8118 7.23828 78.5801 7.23828C79.7975 7.23828 80.7513 7.54427 81.4414 8.15625C82.1315 8.76172 82.4896 9.59831 82.5156 10.666V15.5293C82.5156 16.4993 82.6393 17.2708 82.8867 17.8438V18H80.9922ZM77.9941 16.623C78.5605 16.623 79.0977 16.4766 79.6055 16.1836C80.1133 15.8906 80.4811 15.5098 80.709 15.041V12.873H79.293C77.0794 12.873 75.9727 13.5208 75.9727 14.8164C75.9727 15.3828 76.1615 15.8255 76.5391 16.1445C76.9167 16.4635 77.4017 16.623 77.9941 16.623ZM84.918 12.6289C84.918 10.9818 85.2988 9.67318 86.0605 8.70312C86.8223 7.72656 87.8314 7.23828 89.0879 7.23828C90.377 7.23828 91.3828 7.69401 92.1055 8.60547L92.1934 7.43359H93.8438V17.7461C93.8438 19.1133 93.4368 20.1908 92.623 20.9785C91.8158 21.7663 90.7285 22.1602 89.3613 22.1602C88.5996 22.1602 87.8542 21.9974 87.125 21.6719C86.3958 21.3464 85.8392 20.9004 85.4551 20.334L86.3926 19.25C87.1673 20.207 88.1146 20.6855 89.2344 20.6855C90.1133 20.6855 90.7969 20.4382 91.2852 19.9434C91.7799 19.4486 92.0273 18.752 92.0273 17.8535V16.9453C91.3047 17.7786 90.3184 18.1953 89.0684 18.1953C87.8314 18.1953 86.8288 17.6973 86.0605 16.7012C85.2988 15.7051 84.918 14.3477 84.918 12.6289ZM86.7344 12.834C86.7344 14.0254 86.9785 14.9629 87.4668 15.6465C87.9551 16.3236 88.6387 16.6621 89.5176 16.6621C90.6569 16.6621 91.4935 16.1445 92.0273 15.1094V10.2852C91.474 9.27604 90.6439 8.77148 89.5371 8.77148C88.6582 8.77148 87.9714 9.11328 87.4766 9.79688C86.9818 10.4805 86.7344 11.4928 86.7344 12.834ZM100.963 18.1953C99.5306 18.1953 98.3652 17.7266 97.4668 16.7891C96.5684 15.8451 96.1191 14.5853 96.1191 13.0098V12.6777C96.1191 11.6296 96.3177 10.6953 96.7148 9.875C97.1185 9.04818 97.6784 8.40365 98.3945 7.94141C99.1172 7.47266 99.8984 7.23828 100.738 7.23828C102.112 7.23828 103.18 7.69076 103.941 8.5957C104.703 9.50065 105.084 10.7962 105.084 12.4824V13.2344H97.9258C97.9518 14.276 98.2546 15.1191 98.834 15.7637C99.4199 16.4017 100.162 16.7207 101.061 16.7207C101.699 16.7207 102.239 16.5905 102.682 16.3301C103.124 16.0697 103.512 15.7246 103.844 15.2949L104.947 16.1543C104.062 17.515 102.734 18.1953 100.963 18.1953ZM100.738 8.72266C100.009 8.72266 99.3971 8.98958 98.9023 9.52344C98.4076 10.0508 98.1016 10.793 97.9844 11.75H103.277V11.6133C103.225 10.6953 102.978 9.98568 102.535 9.48438C102.092 8.97656 101.493 8.72266 100.738 8.72266ZM116.617 11.6621C115.009 11.1999 113.837 10.6335 113.102 9.96289C112.372 9.28581 112.008 8.45247 112.008 7.46289C112.008 6.3431 112.454 5.41862 113.346 4.68945C114.244 3.95378 115.41 3.58594 116.842 3.58594C117.818 3.58594 118.688 3.77474 119.449 4.15234C120.217 4.52995 120.81 5.05078 121.227 5.71484C121.65 6.37891 121.861 7.10482 121.861 7.89258H119.977C119.977 7.0332 119.703 6.35938 119.156 5.87109C118.609 5.3763 117.838 5.12891 116.842 5.12891C115.917 5.12891 115.195 5.33398 114.674 5.74414C114.16 6.14779 113.902 6.71094 113.902 7.43359C113.902 8.01302 114.146 8.50456 114.635 8.9082C115.13 9.30534 115.966 9.66992 117.145 10.002C118.329 10.334 119.254 10.7018 119.918 11.1055C120.589 11.5026 121.083 11.9681 121.402 12.502C121.728 13.0358 121.891 13.6641 121.891 14.3867C121.891 15.5391 121.441 16.4635 120.543 17.1602C119.645 17.8503 118.443 18.1953 116.939 18.1953C115.963 18.1953 115.051 18.0098 114.205 17.6387C113.359 17.2611 112.704 16.7467 112.242 16.0957C111.786 15.4447 111.559 14.7057 111.559 13.8789H113.443C113.443 14.7383 113.759 15.4186 114.391 15.9199C115.029 16.4147 115.878 16.6621 116.939 16.6621C117.929 16.6621 118.688 16.4603 119.215 16.0566C119.742 15.653 120.006 15.1029 120.006 14.4062C120.006 13.7096 119.762 13.1725 119.273 12.7949C118.785 12.4108 117.9 12.0332 116.617 11.6621ZM130.543 18C130.439 17.7917 130.354 17.4206 130.289 16.8867C129.449 17.7591 128.447 18.1953 127.281 18.1953C126.24 18.1953 125.383 17.9023 124.713 17.3164C124.049 16.724 123.717 15.9753 123.717 15.0703C123.717 13.9701 124.133 13.1172 124.967 12.5117C125.807 11.8997 126.985 11.5938 128.502 11.5938H130.26V10.7637C130.26 10.1322 130.071 9.63086 129.693 9.25977C129.316 8.88216 128.759 8.69336 128.023 8.69336C127.379 8.69336 126.839 8.85612 126.402 9.18164C125.966 9.50716 125.748 9.90104 125.748 10.3633H123.932C123.932 9.83594 124.117 9.32812 124.488 8.83984C124.866 8.34505 125.374 7.95443 126.012 7.66797C126.656 7.38151 127.363 7.23828 128.131 7.23828C129.348 7.23828 130.302 7.54427 130.992 8.15625C131.682 8.76172 132.04 9.59831 132.066 10.666V15.5293C132.066 16.4993 132.19 17.2708 132.438 17.8438V18H130.543ZM127.545 16.623C128.111 16.623 128.648 16.4766 129.156 16.1836C129.664 15.8906 130.032 15.5098 130.26 15.041V12.873H128.844C126.63 12.873 125.523 13.5208 125.523 14.8164C125.523 15.3828 125.712 15.8255 126.09 16.1445C126.467 16.4635 126.952 16.623 127.545 16.623ZM136.861 18H135.055V3H136.861V18ZM144.146 18.1953C142.714 18.1953 141.549 17.7266 140.65 16.7891C139.752 15.8451 139.303 14.5853 139.303 13.0098V12.6777C139.303 11.6296 139.501 10.6953 139.898 9.875C140.302 9.04818 140.862 8.40365 141.578 7.94141C142.301 7.47266 143.082 7.23828 143.922 7.23828C145.296 7.23828 146.363 7.69076 147.125 8.5957C147.887 9.50065 148.268 10.7962 148.268 12.4824V13.2344H141.109C141.135 14.276 141.438 15.1191 142.018 15.7637C142.604 16.4017 143.346 16.7207 144.244 16.7207C144.882 16.7207 145.423 16.5905 145.865 16.3301C146.308 16.0697 146.695 15.7246 147.027 15.2949L148.131 16.1543C147.245 17.515 145.917 18.1953 144.146 18.1953ZM143.922 8.72266C143.193 8.72266 142.581 8.98958 142.086 9.52344C141.591 10.0508 141.285 10.793 141.168 11.75H146.461V11.6133C146.409 10.6953 146.161 9.98568 145.719 9.48438C145.276 8.97656 144.677 8.72266 143.922 8.72266ZM37.5254 35.4336V41H35.6504V26.7812H40.8945C42.4505 26.7812 43.668 27.1784 44.5469 27.9727C45.4323 28.7669 45.875 29.8184 45.875 31.127C45.875 32.5072 45.4421 33.5716 44.5762 34.3203C43.7168 35.0625 42.4831 35.4336 40.875 35.4336H37.5254ZM37.5254 33.9004H40.8945C41.8971 33.9004 42.6654 33.666 43.1992 33.1973C43.7331 32.722 44 32.0384 44 31.1465C44 30.3001 43.7331 29.623 43.1992 29.1152C42.6654 28.6074 41.9329 28.3438 41.002 28.3242H37.5254V33.9004ZM53.0918 32.0547C52.8184 32.0091 52.5221 31.9863 52.2031 31.9863C51.0182 31.9863 50.2142 32.4909 49.791 33.5V41H47.9844V30.4336H49.7422L49.7715 31.6543C50.3639 30.7103 51.2038 30.2383 52.291 30.2383C52.6426 30.2383 52.9095 30.2839 53.0918 30.375V32.0547ZM56.7246 41H54.918V30.4336H56.7246V41ZM54.7715 27.6309C54.7715 27.3379 54.8594 27.0905 55.0352 26.8887C55.2174 26.6868 55.4844 26.5859 55.8359 26.5859C56.1875 26.5859 56.4544 26.6868 56.6367 26.8887C56.819 27.0905 56.9102 27.3379 56.9102 27.6309C56.9102 27.9238 56.819 28.168 56.6367 28.3633C56.4544 28.5586 56.1875 28.6562 55.8359 28.6562C55.4844 28.6562 55.2174 28.5586 55.0352 28.3633C54.8594 28.168 54.7715 27.9238 54.7715 27.6309ZM63.8633 39.7207C64.5078 39.7207 65.071 39.5254 65.5527 39.1348C66.0345 38.7441 66.3014 38.2559 66.3535 37.6699H68.0625C68.0299 38.2754 67.8216 38.8516 67.4375 39.3984C67.0534 39.9453 66.5391 40.3815 65.8945 40.707C65.2565 41.0326 64.5794 41.1953 63.8633 41.1953C62.4245 41.1953 61.2786 40.7168 60.4258 39.7598C59.5794 38.7962 59.1562 37.4811 59.1562 35.8145V35.5117C59.1562 34.4831 59.3451 33.5684 59.7227 32.7676C60.1003 31.9668 60.6406 31.3451 61.3438 30.9023C62.0534 30.4596 62.89 30.2383 63.8535 30.2383C65.0384 30.2383 66.0215 30.5931 66.8027 31.3027C67.5905 32.0124 68.0104 32.9336 68.0625 34.0664H66.3535C66.3014 33.3828 66.041 32.8229 65.5723 32.3867C65.11 31.944 64.5371 31.7227 63.8535 31.7227C62.9355 31.7227 62.2227 32.0547 61.7148 32.7188C61.2135 33.3763 60.9629 34.3301 60.9629 35.5801V35.9219C60.9629 37.1393 61.2135 38.0768 61.7148 38.7344C62.2161 39.3919 62.9323 39.7207 63.8633 39.7207ZM74.4785 41.1953C73.0462 41.1953 71.8809 40.7266 70.9824 39.7891C70.084 38.8451 69.6348 37.5853 69.6348 36.0098V35.6777C69.6348 34.6296 69.8333 33.6953 70.2305 32.875C70.6341 32.0482 71.194 31.4036 71.9102 30.9414C72.6328 30.4727 73.4141 30.2383 74.2539 30.2383C75.6276 30.2383 76.6953 30.6908 77.457 31.5957C78.2188 32.5007 78.5996 33.7962 78.5996 35.4824V36.2344H71.4414C71.4674 37.276 71.7702 38.1191 72.3496 38.7637C72.9355 39.4017 73.6777 39.7207 74.5762 39.7207C75.2142 39.7207 75.7546 39.5905 76.1973 39.3301C76.64 39.0697 77.0273 38.7246 77.3594 38.2949L78.4629 39.1543C77.5775 40.515 76.2493 41.1953 74.4785 41.1953ZM74.2539 31.7227C73.5247 31.7227 72.9128 31.9896 72.418 32.5234C71.9232 33.0508 71.6172 33.793 71.5 34.75H76.793V34.6133C76.7409 33.6953 76.4935 32.9857 76.0508 32.4844C75.6081 31.9766 75.0091 31.7227 74.2539 31.7227Z" fill="#626262"/>
<path d="M0.159467 17.8852C0.0377246 17.7976 0 15.6683 0 8.8852V0L0.431892 0.0299788L0.863778 0.0599577L0.897731 8.69511L0.931684 17.3303H4.65187H8.37206V13.8698C8.37206 11.9666 8.34227 10.4308 8.30589 10.457C8.26948 10.4832 7.78685 11.4053 7.23334 12.5062C6.03139 14.8967 5.21261 16.1621 4.64568 16.5056C4.32209 16.7017 4.08975 16.7562 3.57785 16.7562C2.93951 16.7562 2.9236 16.7492 2.9236 16.4691C2.9236 16.1987 2.95389 16.1821 3.4484 16.1821C3.8915 16.1821 4.02814 16.1302 4.32619 15.8489C4.78544 15.4154 5.48278 14.2391 6.51113 12.1635C8.59183 7.96384 9.74866 6.35753 11.2725 5.55218C12.729 4.78238 14.3264 5.08051 15.6452 6.36827C16.8203 7.51567 17.5936 8.73383 19.2019 11.9709C20.2785 14.1379 20.9286 15.2668 21.3785 15.7504C21.6887 16.0838 21.8094 16.1381 22.2963 16.1637C22.819 16.1911 22.857 16.2122 22.857 16.4746C22.857 16.7476 22.8372 16.7562 22.2119 16.7562C20.9269 16.7562 20.4383 16.1794 18.5242 12.4027L17.5544 10.4891L17.5479 13.9082L17.5414 17.3272L21.2291 17.3527L24.9167 17.3781L24.9584 17.689L25 18H12.6595C3.23848 18 0.281229 17.9728 0.159487 17.8852L0.159467 17.8852ZM12.4916 11.5355V5.7407L11.9378 5.9621C11.2779 6.2259 10.4045 7.04405 9.68637 8.07107L9.16935 8.81047V13.0704V17.3303H10.8305H12.4916V11.5355ZM16.6111 13.0292V8.72813L16.0659 7.98206C15.766 7.57172 15.3072 7.02638 15.0464 6.77018C14.6054 6.3371 13.661 5.75295 13.4019 5.75295C13.3397 5.75295 13.2889 8.35784 13.2889 11.5416V17.3303H14.95H16.6111V13.0292ZM12.4916 4.22206C12.4916 3.96691 12.5359 3.93502 12.8902 3.93502C13.2446 3.93502 13.2889 3.96692 13.2889 4.22206C13.2889 4.47721 13.2446 4.5091 12.8902 4.5091C12.5359 4.5091 12.4916 4.47721 12.4916 4.22206ZM10.8185 3.22942C10.6592 2.9306 10.8205 2.73902 11.231 2.73902C11.5833 2.73902 11.6278 2.7712 11.6278 3.02606C11.6278 3.26821 11.5705 3.31784 11.2616 3.34343C11.0279 3.36277 10.8676 3.32151 10.8185 3.22942ZM12.4916 3.02606C12.4916 2.71775 12.5232 2.69117 12.8902 2.69117C13.2573 2.69117 13.2889 2.71775 13.2889 3.02606C13.2889 3.33436 13.2573 3.36094 12.8902 3.36094C12.5232 3.36094 12.4916 3.33436 12.4916 3.02606ZM14.1407 3.22942C13.9814 2.9306 14.1427 2.73902 14.5532 2.73902C14.9055 2.73902 14.95 2.7712 14.95 3.02606C14.95 3.26821 14.8928 3.31784 14.5838 3.34343C14.3501 3.36277 14.1898 3.32151 14.1407 3.22942ZM9.16935 1.83005C9.16935 1.57491 9.21365 1.54301 9.56801 1.54301C9.92239 1.54301 9.96668 1.57491 9.96668 1.83005C9.96668 2.0852 9.92238 2.11709 9.56801 2.11709C9.21364 2.11709 9.16935 2.0852 9.16935 1.83005ZM10.764 1.83005C10.764 1.56579 10.8009 1.54301 11.2291 1.54301C11.6573 1.54301 11.6942 1.56579 11.6942 1.83005C11.6942 2.09431 11.6573 2.11709 11.2291 2.11709C10.8009 2.11709 10.764 2.09431 10.764 1.83005ZM12.4916 1.83005C12.4916 1.57491 12.5359 1.54301 12.8902 1.54301C13.2446 1.54301 13.2889 1.57491 13.2889 1.83005C13.2889 2.0852 13.2446 2.11709 12.8902 2.11709C12.5359 2.11709 12.4916 2.0852 12.4916 1.83005ZM14.0862 1.83005C14.0862 1.56579 14.1232 1.54301 14.5514 1.54301C14.9796 1.54301 15.0165 1.56579 15.0165 1.83005C15.0165 2.09431 14.9796 2.11709 14.5514 2.11709C14.1232 2.11709 14.0862 2.09431 14.0862 1.83005ZM15.8138 1.83005C15.8138 1.57491 15.8581 1.54301 16.2125 1.54301C16.5668 1.54301 16.6111 1.57491 16.6111 1.83005C16.6111 2.0852 16.5668 2.11709 16.2125 2.11709C15.8581 2.11709 15.8138 2.0852 15.8138 1.83005Z" fill="#313131"/>
</svg>
