<svg width="17" height="18" viewBox="0 0 17 18" fill="none" xmlns="http://www.w3.org/2000/svg">
<path d="M8.2377 17.8855C7.79619 17.6707 7.02767 17.2501 3.94184 15.5348C0.691449 13.7279 0.144289 13.4132 0.0695848 13.3076C0.00841978 13.2211 2.53124e-05 12.6534 5.22385e-08 8.59724C-2.5208e-05 4.76511 0.00909424 4.09693 0.0628833 3.98921C0.0996723 3.91554 0.224039 3.84268 0.77591 3.57152C1.35654 3.28623 6.80152 0.761967 7.78525 0.322034L8.50534 0L8.88319 0.164296C9.47739 0.422659 16.0202 3.45763 16.4287 3.66442C16.8832 3.89445 16.9375 3.93185 16.9727 4.03939C16.9946 4.10622 17 5.07082 17 8.89015V13.6575L16.9254 13.7207C16.8086 13.8197 15.4464 14.5316 12.7148 15.9212C12.363 16.1001 11.8354 16.3688 11.5422 16.5182C9.62228 17.4966 8.58773 18.0012 8.5042 18C8.48663 17.9998 8.36669 17.9482 8.2377 17.8855ZM9.06358 16.9313C9.36496 16.7904 10.5222 16.2041 15.1985 13.823C15.4154 13.7125 15.7285 13.5529 15.8941 13.4683L16.1953 13.3145L16.2113 10.6546C16.228 7.89005 16.2171 4.85931 16.1902 4.79941C16.1816 4.78042 16.1632 4.76485 16.1491 4.76485C16.1351 4.76485 15.7769 4.92422 15.3532 5.119L14.5828 5.47315L14.5748 6.8821C14.5691 7.91674 14.56 8.31036 14.541 8.36369C14.5267 8.40362 14.4813 8.48189 14.4399 8.53758C14.3985 8.59326 14.3358 8.70919 14.3003 8.79516C14.2214 8.98671 14.0901 9.12543 13.9191 9.19791C13.7198 9.28238 13.5625 9.28287 13.2129 9.20027C13.1597 9.18765 13.1539 9.19402 13.1009 9.32188C13.013 9.53375 12.8469 9.70235 12.6416 9.7879C12.5237 9.83703 12.3366 9.83968 12.1552 9.79486C12.0819 9.77675 11.9284 9.75658 11.8141 9.75009C11.5967 9.73771 11.5247 9.71323 11.4299 9.61978L11.3824 9.57284L11.3629 8.32954C11.3522 7.64572 11.3367 7.07068 11.3286 7.05167C11.3204 7.03268 11.3028 7.01681 11.2894 7.0164C11.276 7.01602 10.7366 7.26128 10.0907 7.5614L8.91627 8.10709L8.90208 10.094C8.87904 13.3301 8.89062 16.9932 8.92397 16.9932C8.92843 16.9932 8.99107 16.9655 9.06354 16.9316L9.06358 16.9313ZM8.1064 16.5354C8.12467 15.9911 8.12467 9.60932 8.10636 8.75948L8.0923 8.10531L4.45238 6.41532C2.45042 5.48582 0.806632 4.72533 0.799522 4.72533C0.792399 4.72533 0.786606 6.57235 0.786606 8.82982V12.9343L3.13708 14.2403C5.12911 15.3471 6.55997 16.138 7.79005 16.8121C7.93075 16.8892 8.05634 16.9526 8.06914 16.9529C8.0848 16.9532 8.09701 16.8168 8.10643 16.5354H8.1064ZM5.10023 14.2125C5.0635 14.1935 4.99962 14.1499 4.95832 14.1157L4.88323 14.0535L4.86102 13.1562C4.84879 12.6627 4.83238 12.2433 4.82449 12.2243C4.81207 12.1943 4.80005 12.1989 4.73309 12.2591C4.60635 12.3732 4.46497 12.4001 4.30917 12.3398C4.09555 12.2571 4.01951 12.0871 4.10933 11.893C4.22338 11.6464 4.91905 10.6995 5.06341 10.5943C5.10618 10.5631 5.15058 10.5529 5.24378 10.5529C5.39349 10.5529 5.46096 10.5748 5.53353 10.6466C5.6496 10.7615 6.40577 11.6928 6.72466 12.1136C6.84628 12.274 6.85191 12.2868 6.85191 12.4015C6.85191 12.5034 6.84261 12.5329 6.79043 12.5963C6.72888 12.6711 6.59086 12.7446 6.51079 12.7452C6.32815 12.7463 6.19781 12.6463 5.89491 12.2716L5.67933 12.0049L5.67361 12.2025C5.67042 12.3111 5.66069 12.7721 5.65229 13.2269L5.63701 14.0539L5.56239 14.1131C5.38488 14.2539 5.24051 14.2849 5.1005 14.2125L5.10023 14.2125ZM12.3962 8.96765C12.4516 8.81075 12.4994 8.73418 12.601 8.63971C12.8122 8.44336 13.0648 8.39233 13.3973 8.4788C13.4878 8.50233 13.5687 8.51413 13.5771 8.50511C13.5855 8.49602 13.6047 8.44861 13.6197 8.39973C13.6348 8.35084 13.6796 8.25104 13.7193 8.17798L13.7914 8.04513L13.7889 7.11123C13.7857 6.08046 13.7771 5.90421 13.7275 5.8955C13.7099 5.89255 13.3477 6.04977 12.9226 6.24519L12.1496 6.60051L12.1553 7.82024L12.1611 9.03997L12.2144 9.05371C12.3397 9.08603 12.358 9.07736 12.3968 8.96768L12.3962 8.96765ZM9.36477 7.08412C10.2358 6.67999 10.7854 6.40898 10.7854 6.38363C10.7854 6.35615 10.5523 6.24593 7.08646 4.63463L3.63271 3.02897L2.98246 3.33196C2.11594 3.73574 1.35413 4.10561 1.34697 4.12603C1.34378 4.13511 1.3723 4.15976 1.41029 4.1807C1.55146 4.25857 8.47332 7.46996 8.50133 7.47058C8.51731 7.47095 8.90588 7.29702 9.36476 7.08411L9.36477 7.08412ZM12.4628 5.65064C13.2297 5.28977 13.2712 5.26709 13.2361 5.22798C13.2229 5.21318 13.1002 5.14616 12.9634 5.07899C10.4347 3.8369 7.88972 2.60086 6.74708 2.0598C6.37754 1.88483 6.26827 1.84121 6.22475 1.8513C6.16193 1.86587 4.65729 2.55807 4.61091 2.59374C4.58488 2.61379 4.58596 2.62063 4.61829 2.64127C4.76527 2.73515 11.7035 5.96989 11.7579 5.96989C11.7725 5.96989 12.0897 5.82624 12.4628 5.65066L12.4628 5.65064ZM14.813 4.56057C15.1493 4.40477 15.4809 4.24378 15.55 4.20282L15.6757 4.12836L15.5917 4.08094C15.4557 4.00424 9.16327 1.09146 8.81506 0.944039L8.49699 0.809384L8.37801 0.854029C8.23091 0.909231 7.38912 1.29157 7.29432 1.34623C7.2562 1.36823 7.22509 1.393 7.22517 1.40131C7.22533 1.41853 7.22707 1.41953 7.75802 1.69295C8.37302 2.00966 9.56095 2.59653 11.4356 3.50978C12.0102 3.78967 12.7825 4.16591 13.1518 4.34587C13.5212 4.52582 13.9002 4.71137 13.994 4.7582C14.0878 4.80502 14.1729 4.84346 14.1831 4.8436C14.1933 4.84374 14.4768 4.71638 14.813 4.56057Z" fill="#313131"/>
</svg>
