<svg width="35" height="33" viewBox="0 0 35 33" fill="none" xmlns="http://www.w3.org/2000/svg">
<path d="M9.0086 32.9446C7.9032 32.7525 6.95399 31.9659 6.53316 30.8929C6.40731 30.5721 6.37831 30.363 6.37799 29.7745C6.37758 29.0547 6.38468 29.022 6.70959 28.2475C6.74786 28.1558 6.70208 28.1245 6.4743 28.0856C6.31862 28.0578 5.97456 27.9283 5.70968 27.795C4.80154 27.3378 4.17096 26.473 3.99565 25.4443C3.76312 24.0799 4.50546 22.6499 5.75454 22.056C6.01828 21.9305 6.24206 21.8217 6.25181 21.8138C6.26162 21.8058 6.1467 20.3756 5.99655 18.635C5.40319 11.7558 5.03714 7.47828 4.92643 6.12975C4.86247 5.35089 4.77631 4.68161 4.73441 4.63866C4.69264 4.59578 3.70667 4.24286 2.54341 3.85456C0.100104 3.03878 0 2.98226 0 2.41845C0 2.01773 0.178365 1.77175 0.561099 1.64463C0.775523 1.57358 0.988324 1.63273 3.27415 2.40976C4.63836 2.87308 5.84173 3.29675 5.94832 3.35129C6.05492 3.40568 6.18243 3.549 6.2317 3.66968C6.28098 3.79037 6.40028 4.81663 6.49678 5.95015C6.59328 7.08372 6.69696 8.03371 6.72718 8.06126C6.75756 8.08905 7.8765 8.27207 9.21409 8.46846C12.8589 9.00368 15.2638 9.36943 15.3859 9.4071C15.5888 9.46983 15.8017 9.76797 15.8381 10.0408C15.8852 10.3941 15.7191 10.719 15.4172 10.8639C15.1967 10.9698 15.0438 10.9532 11.8408 10.48C10.0005 10.208 8.13156 9.92906 7.68763 9.85999C7.24371 9.79092 6.86803 9.75478 6.85278 9.7794C6.82793 9.81989 6.94612 11.3152 6.97666 11.3459C6.99876 11.3697 32.0599 15.2064 32.0813 15.1909C32.1439 15.1457 32.4994 13.6103 32.4558 13.5736C32.427 13.5498 31.4941 13.3973 30.3825 13.2358C26.8921 12.728 26.1065 12.6035 25.9102 12.5271C25.614 12.4116 25.4501 12.1527 25.4501 11.8004C25.4501 11.5424 25.4876 11.4547 25.683 11.2582C25.858 11.082 25.9748 11.024 26.1527 11.024C26.2829 11.024 27.8468 11.2404 29.6282 11.505C31.4095 11.7694 32.8892 11.9721 32.9164 11.9552C32.9436 11.9393 33.0695 11.5125 33.1961 11.0089C33.4525 9.98969 33.5972 9.76026 34.0356 9.67753C34.3556 9.61719 34.6825 9.79941 34.8663 10.1408L35 10.3889L33.369 16.5832C32.472 19.99 31.69 22.8601 31.6313 22.9611C31.5726 23.0619 31.4448 23.1838 31.3475 23.2314C31.2077 23.2997 28.6021 23.32 18.9738 23.3275L6.77719 23.3355L6.45419 23.4927C5.79732 23.8127 5.424 24.5682 5.57882 25.2644C5.68696 25.7505 5.98441 26.1459 6.40247 26.3591L6.74337 26.533H18.9123C30.0333 26.533 31.1015 26.541 31.3172 26.6457C31.85 26.9002 31.9074 27.6979 31.4168 28.0303C31.2702 28.1295 31.0432 28.1553 30.1257 28.176C29.5134 28.1919 29.0125 28.2117 29.0125 28.2201C29.0125 28.232 29.0816 28.39 29.166 28.575C29.299 28.866 29.3197 29.0268 29.3202 29.7728C29.3207 30.6264 29.3183 30.6394 29.0684 31.154C28.2961 32.7432 26.4259 33.4163 24.8651 32.6668C23.2563 31.8942 22.6266 30.0713 23.3595 28.308C23.407 28.1937 23.1189 28.1873 17.8618 28.1873H12.3139L12.4679 28.6182C12.791 29.5221 12.7483 30.3475 12.3348 31.1912C11.8856 32.1077 10.9705 32.7845 9.96773 32.9418C9.47442 33.0192 9.44784 33.0192 9.00864 32.9428L9.0086 32.9446ZM10.2499 31.1674C11.3126 30.6087 11.3791 29.0882 10.3701 28.4164C10.04 28.1964 9.38401 28.1218 8.97523 28.2576C7.87125 28.6244 7.57775 30.2218 8.47466 30.9825C8.99114 31.4205 9.63978 31.488 10.2498 31.1675L10.2499 31.1674ZM26.8545 31.2313C27.1957 31.0749 27.5987 30.6332 27.7103 30.2932C27.9474 29.5702 27.6179 28.7246 26.9655 28.3816C25.6905 27.7113 24.3087 28.8562 24.6966 30.2615C24.7889 30.5958 25.2112 31.0755 25.549 31.23C25.9086 31.3943 26.4975 31.3951 26.8545 31.2309V31.2313ZM30.4088 21.5885C30.4281 21.5222 30.6795 20.5682 30.9671 19.4687C31.2548 18.3692 31.5336 17.317 31.5869 17.1305C31.6401 16.9439 31.6761 16.7843 31.6668 16.7755C31.653 16.7636 23.675 15.5332 16.4758 14.4348C15.628 14.3054 13.9171 14.0433 12.6737 13.8522C8.17969 13.1614 7.15011 13.0095 7.12723 13.0335C7.11461 13.0454 7.26958 14.9658 7.472 17.2975C7.67444 19.6292 7.84096 21.5758 7.84203 21.6231C7.84359 21.6918 10.1436 21.7093 19.1087 21.7093C29.7777 21.7093 30.3752 21.7013 30.4088 21.5886V21.5885ZM20.1066 11.0944C18.1397 10.5683 16.5791 9.01237 16.0566 7.05648C15.8506 6.28541 15.8511 5.00758 16.0576 4.23416C16.3556 3.1183 16.8426 2.30931 17.7117 1.48663C18.6063 0.639809 19.8018 0.114836 21.0577 0.0173757C21.5003 -0.0183578 21.6311 -0.002483 21.8005 0.0979533C22.2176 0.346073 22.341 0.810715 22.0967 1.2139C21.9212 1.5033 21.8106 1.55332 21.2175 1.6101C19.0645 1.81653 17.4947 3.48234 17.4782 5.57837C17.4691 6.73781 17.844 7.65522 18.6596 8.46945C21.0573 10.8629 25.0004 9.41408 25.388 5.99703C25.4709 5.26661 25.5255 5.13155 25.8083 4.95807C26.0927 4.78379 26.3154 4.78419 26.6017 4.96006C26.9661 5.18357 27.052 5.48449 26.9644 6.23146C26.6977 8.50761 25.1985 10.3291 23.0181 11.0262C22.3128 11.2517 20.8246 11.2867 20.1066 11.0945L20.1066 11.0944ZM21.1685 7.99746C21.0931 7.9657 20.9544 7.85375 20.8602 7.75212C20.7147 7.59492 20.6838 7.48217 20.6547 7.00352L20.6204 6.44008L20.0493 6.40434C19.5098 6.37258 19.4673 6.35749 19.2786 6.14471C19.1243 5.97083 19.079 5.85292 19.079 5.62581C19.079 5.06923 19.4159 4.81881 20.1646 4.81881H20.6406L20.6646 4.22721C20.6879 3.65928 20.6978 3.62759 20.9125 3.43446C21.1687 3.2042 21.4972 3.16927 21.8214 3.33799C22.1156 3.49123 22.2302 3.77 22.2302 4.33297V4.81893H22.6777C23.2287 4.81893 23.5575 4.94914 23.6985 5.2237C23.8693 5.55598 23.8363 5.88536 23.6061 6.14483C23.4175 6.35762 23.3749 6.37191 22.8354 6.40446L22.2644 6.4402L22.2301 7.00785C22.1989 7.52684 22.1779 7.59353 21.9869 7.78548C21.7646 8.00898 21.4055 8.10187 21.1682 7.99746H21.1685Z" fill="white"/>
</svg>
