<svg width="27" height="25" viewBox="0 0 27 25" fill="none" xmlns="http://www.w3.org/2000/svg">
<path d="M6.94949 24.9581C6.09676 24.8125 5.36451 24.2166 5.03987 23.4037C4.94278 23.1607 4.92041 23.0022 4.92017 22.5564C4.91985 22.0111 4.92532 21.9863 5.17597 21.3996C5.20549 21.3302 5.17017 21.3064 4.99446 21.2769C4.87436 21.2559 4.60895 21.1578 4.40461 21.0568C3.70405 20.7105 3.2176 20.0553 3.08236 19.276C2.90297 18.2423 3.47564 17.159 4.43922 16.7091C4.64267 16.614 4.8153 16.5316 4.82282 16.5256C4.83039 16.5195 4.74174 15.436 4.62591 14.1174C4.16818 8.90594 3.8858 5.66537 3.80039 4.64375C3.75105 4.05371 3.68458 3.54668 3.65226 3.51413C3.62003 3.48165 2.85943 3.21428 1.96206 2.92012C0.0772231 2.30211 0 2.25928 0 1.83216C0 1.52858 0.137596 1.34224 0.432848 1.24593C0.598261 1.1921 0.762421 1.23691 2.52577 1.82557C3.57816 2.17658 4.50648 2.49753 4.5887 2.53886C4.67093 2.58006 4.7693 2.68864 4.80731 2.78006C4.84533 2.87149 4.93736 3.64896 5.0118 4.50769C5.08625 5.36645 5.16623 6.08614 5.18954 6.10702C5.21297 6.12807 6.07616 6.26672 7.10801 6.4155C9.91973 6.82097 11.7749 7.09805 11.8692 7.12659C12.0257 7.17411 12.1899 7.39997 12.218 7.60668C12.2543 7.87435 12.1262 8.12045 11.8933 8.23019C11.7232 8.31049 11.6052 8.29786 9.13436 7.93937C7.71467 7.73336 6.27292 7.52202 5.93046 7.46969C5.588 7.41736 5.29819 7.38999 5.28643 7.40864C5.26726 7.43931 5.35844 8.57209 5.382 8.59537C5.39904 8.61341 24.7319 11.52 24.7484 11.5083C24.7967 11.474 25.071 10.3108 25.0373 10.283C25.0151 10.265 24.2954 10.1495 23.438 10.0271C20.7453 9.64246 20.1393 9.54814 19.9879 9.49022C19.7594 9.4027 19.6329 9.20661 19.6329 8.93972C19.6329 8.74424 19.6618 8.67777 19.8126 8.52896C19.9476 8.39543 20.0377 8.35152 20.1749 8.35152C20.2753 8.35152 21.4818 8.51543 22.856 8.71591C24.2302 8.91621 25.3717 9.0698 25.3926 9.05699C25.4136 9.04495 25.5108 8.72156 25.6085 8.34009C25.8063 7.56794 25.9178 7.39414 26.256 7.33146C26.5029 7.28575 26.755 7.42379 26.8969 7.68244L27 7.87041L25.7418 12.563C25.0498 15.1439 24.4466 17.3182 24.4013 17.3948C24.356 17.4712 24.2574 17.5635 24.1823 17.5996C24.0745 17.6513 22.0645 17.6666 14.6369 17.6724L5.22812 17.6784L4.97895 17.7975C4.47222 18.0399 4.18423 18.6123 4.30366 19.1397C4.38708 19.508 4.61654 19.8075 4.93905 19.969L5.20203 20.1007H14.5895C23.1685 20.1007 23.9926 20.1068 24.159 20.1861C24.57 20.3789 24.6143 20.9832 24.2358 21.2351C24.1227 21.3103 23.9476 21.3298 23.2398 21.3454C22.7675 21.3575 22.381 21.3725 22.381 21.3788C22.381 21.3879 22.4344 21.5075 22.4995 21.6477C22.6021 21.8681 22.6181 21.99 22.6184 22.5552C22.6189 23.2018 22.617 23.2117 22.4242 23.6015C21.8284 24.8055 20.3857 25.3154 19.1816 24.7476C17.9405 24.1622 17.4548 22.7813 18.0202 21.4454C18.0568 21.3588 17.8346 21.354 13.7791 21.354H9.4993L9.61812 21.6804C9.86735 22.3652 9.83442 22.9905 9.51543 23.6297C9.1689 24.324 8.46294 24.8367 7.68939 24.9559C7.30884 25.0146 7.28834 25.0146 6.94953 24.9567L6.94949 24.9581ZM7.90703 23.6117C8.72689 23.1884 8.77819 22.0365 7.99982 21.5275C7.74515 21.3609 7.2391 21.3044 6.92375 21.4073C6.07211 21.6851 5.8457 22.8953 6.53759 23.4716C6.93602 23.8034 7.43641 23.8546 7.90702 23.6117L7.90703 23.6117ZM20.7163 23.6601C20.9796 23.5416 21.2905 23.2069 21.3765 22.9494C21.5594 22.4017 21.3052 21.761 20.8019 21.5012C19.8184 20.9934 18.7524 21.8608 19.0517 22.9254C19.1229 23.1786 19.4487 23.5421 19.7093 23.6591C19.9867 23.7836 20.4409 23.7842 20.7163 23.6598V23.6601ZM23.4582 16.3549C23.4731 16.3047 23.6671 15.582 23.8889 14.749C24.1108 13.9161 24.326 13.1189 24.367 12.9776C24.4081 12.8363 24.4358 12.7154 24.4287 12.7087C24.418 12.6997 18.2636 11.7676 12.7099 10.9354C12.0559 10.8374 10.736 10.6389 9.77685 10.4941C6.31005 9.97078 5.5158 9.85565 5.49815 9.87388C5.48841 9.8829 5.60796 11.3377 5.76412 13.1041C5.92028 14.8706 6.04874 16.3453 6.04956 16.3812C6.05077 16.4332 7.8251 16.4464 14.741 16.4464C22.9714 16.4464 23.4323 16.4404 23.4582 16.355V16.3549ZM15.5108 8.40487C13.9935 8.00631 12.7896 6.82755 12.3865 5.34582C12.2276 4.76167 12.228 3.79362 12.3873 3.2077C12.6172 2.36235 12.9929 1.74948 13.6633 1.12623C14.3534 0.484704 15.2757 0.0869972 16.2445 0.0131634C16.586 -0.0139074 16.6869 -0.00188106 16.8176 0.0742071C17.1393 0.262176 17.2345 0.614178 17.046 0.91962C16.9107 1.13887 16.8253 1.17676 16.3678 1.21977C14.7069 1.37616 13.4959 2.63813 13.4832 4.22603C13.4762 5.1044 13.7653 5.79941 14.3946 6.41625C16.2442 8.2295 19.286 7.13188 19.5851 4.54321C19.649 3.98986 19.6911 3.88754 19.9093 3.75611C20.1286 3.62408 20.3004 3.62438 20.5213 3.75762C20.8024 3.92695 20.8687 4.15492 20.8011 4.72081C20.5953 6.44516 19.4388 7.82506 17.7568 8.3532C17.2127 8.52403 16.0647 8.55049 15.5108 8.40493L15.5108 8.40487ZM16.33 6.05868C16.2718 6.03462 16.1648 5.94981 16.0921 5.87282C15.9799 5.75372 15.956 5.66831 15.9336 5.3057L15.9071 4.87885L15.4666 4.85178C15.0504 4.82771 15.0176 4.81628 14.8721 4.65508C14.753 4.52335 14.7181 4.43403 14.7181 4.26197C14.7181 3.84032 14.9779 3.65061 15.5556 3.65061H15.9227L15.9413 3.20243C15.9592 2.77218 15.9668 2.74818 16.1325 2.60186C16.3301 2.42743 16.5835 2.40096 16.8336 2.52878C17.0606 2.64487 17.149 2.85606 17.149 3.28255V3.6507H17.4942C17.9193 3.6507 18.1729 3.74935 18.2817 3.95735C18.4135 4.20907 18.388 4.4586 18.2104 4.65517C18.0649 4.81638 18.0321 4.82721 17.6159 4.85187L17.1754 4.87894L17.1489 5.30898C17.1249 5.70215 17.1087 5.75268 16.9613 5.89809C16.7899 6.06741 16.5128 6.13778 16.3298 6.05868H16.33Z" fill="#313131"/>
</svg>
