<svg width="37" height="35" viewBox="0 0 37 35" fill="none" xmlns="http://www.w3.org/2000/svg">
<mask id="path-1-outside-1_342:455" maskUnits="userSpaceOnUse" x="0" y="0" width="37" height="35" fill="black">
<rect fill="white" width="37" height="35"/>
<path d="M10.0086 33.9446C8.9032 33.7525 7.95399 32.9659 7.53316 31.8929C7.40731 31.5721 7.37831 31.363 7.37799 30.7745C7.37758 30.0547 7.38468 30.022 7.70959 29.2475C7.74786 29.1558 7.70208 29.1245 7.4743 29.0856C7.31862 29.0578 6.97456 28.9283 6.70968 28.795C5.80154 28.3378 5.17096 27.473 4.99565 26.4443C4.76312 25.0799 5.50546 23.6499 6.75454 23.056C7.01828 22.9305 7.24206 22.8217 7.25181 22.8138C7.26162 22.8058 7.1467 21.3756 6.99655 19.635C6.40319 12.7558 6.03714 8.47828 5.92643 7.12975C5.86247 6.35089 5.77631 5.68161 5.73441 5.63866C5.69264 5.59578 4.70667 5.24286 3.54341 4.85456C1.1001 4.03878 1 3.98226 1 3.41845C1 3.01773 1.17837 2.77175 1.5611 2.64463C1.77552 2.57358 1.98832 2.63273 4.27415 3.40976C5.63836 3.87308 6.84173 4.29675 6.94832 4.35129C7.05492 4.40568 7.18243 4.549 7.2317 4.66968C7.28098 4.79037 7.40028 5.81663 7.49678 6.95015C7.59328 8.08372 7.69696 9.03371 7.72718 9.06126C7.75756 9.08905 8.8765 9.27207 10.2141 9.46846C13.8589 10.0037 16.2638 10.3694 16.3859 10.4071C16.5888 10.4698 16.8017 10.768 16.8381 11.0408C16.8852 11.3941 16.7191 11.719 16.4172 11.8639C16.1967 11.9698 16.0438 11.9532 12.8408 11.48C11.0005 11.208 9.13156 10.9291 8.68763 10.86C8.24371 10.7909 7.86803 10.7548 7.85278 10.7794C7.82793 10.8199 7.94612 12.3152 7.97666 12.3459C7.99876 12.3697 33.0599 16.2064 33.0813 16.1909C33.1439 16.1457 33.4994 14.6103 33.4558 14.5736C33.427 14.5498 32.4941 14.3973 31.3825 14.2358C27.8921 13.728 27.1065 13.6035 26.9102 13.5271C26.614 13.4116 26.4501 13.1527 26.4501 12.8004C26.4501 12.5424 26.4876 12.4547 26.683 12.2582C26.858 12.082 26.9748 12.024 27.1527 12.024C27.2829 12.024 28.8468 12.2404 30.6282 12.505C32.4095 12.7694 33.8892 12.9721 33.9164 12.9552C33.9436 12.9393 34.0695 12.5125 34.1961 12.0089C34.4525 10.9897 34.5972 10.7603 35.0356 10.6775C35.3556 10.6172 35.6825 10.7994 35.8663 11.1408L36 11.3889L34.369 17.5832C33.472 20.99 32.69 23.8601 32.6313 23.9611C32.5726 24.0619 32.4448 24.1838 32.3475 24.2314C32.2077 24.2997 29.6021 24.32 19.9738 24.3275L7.77719 24.3355L7.45419 24.4927C6.79732 24.8127 6.424 25.5682 6.57882 26.2644C6.68696 26.7505 6.98441 27.1459 7.40247 27.3591L7.74337 27.533H19.9123C31.0333 27.533 32.1015 27.541 32.3172 27.6457C32.85 27.9002 32.9074 28.6979 32.4168 29.0303C32.2702 29.1295 32.0432 29.1553 31.1257 29.176C30.5134 29.1919 30.0125 29.2117 30.0125 29.2201C30.0125 29.232 30.0816 29.39 30.166 29.575C30.299 29.866 30.3197 30.0268 30.3202 30.7728C30.3207 31.6264 30.3183 31.6394 30.0684 32.154C29.2961 33.7432 27.4259 34.4163 25.8651 33.6668C24.2563 32.8942 23.6266 31.0713 24.3595 29.308C24.407 29.1937 24.1189 29.1873 18.8618 29.1873H13.3139L13.4679 29.6182C13.791 30.5221 13.7483 31.3475 13.3348 32.1912C12.8856 33.1077 11.9705 33.7845 10.9677 33.9418C10.4744 34.0192 10.4478 34.0192 10.0086 33.9428L10.0086 33.9446ZM11.2499 32.1674C12.3126 31.6087 12.3791 30.0882 11.3701 29.4164C11.04 29.1964 10.384 29.1218 9.97523 29.2576C8.87125 29.6244 8.57775 31.2218 9.47466 31.9825C9.99114 32.4205 10.6398 32.488 11.2498 32.1675L11.2499 32.1674ZM27.8545 32.2313C28.1957 32.0749 28.5987 31.6332 28.7103 31.2932C28.9474 30.5702 28.6179 29.7246 27.9655 29.3816C26.6905 28.7113 25.3087 29.8562 25.6966 31.2615C25.7889 31.5958 26.2112 32.0755 26.549 32.23C26.9086 32.3943 27.4975 32.3951 27.8545 32.2309V32.2313ZM31.4088 22.5885C31.4281 22.5222 31.6795 21.5682 31.9671 20.4687C32.2548 19.3692 32.5336 18.317 32.5869 18.1305C32.6401 17.9439 32.6761 17.7843 32.6668 17.7755C32.653 17.7636 24.675 16.5332 17.4758 15.4348C16.628 15.3054 14.9171 15.0433 13.6737 14.8522C9.17969 14.1614 8.15011 14.0095 8.12723 14.0335C8.11461 14.0454 8.26958 15.9658 8.472 18.2975C8.67444 20.6292 8.84096 22.5758 8.84203 22.6231C8.84359 22.6918 11.1436 22.7093 20.1087 22.7093C30.7777 22.7093 31.3752 22.7013 31.4088 22.5886V22.5885ZM21.1066 12.0944C19.1397 11.5683 17.5791 10.0124 17.0566 8.05648C16.8506 7.28541 16.8511 6.00758 17.0576 5.23416C17.3556 4.1183 17.8426 3.30931 18.7117 2.48663C19.6063 1.63981 20.8018 1.11484 22.0577 1.01738C22.5003 0.981642 22.6311 0.997517 22.8005 1.09795C23.2176 1.34607 23.341 1.81072 23.0967 2.2139C22.9212 2.5033 22.8106 2.55332 22.2175 2.6101C20.0645 2.81653 18.4947 4.48234 18.4782 6.57837C18.4691 7.73781 18.844 8.65522 19.6596 9.46945C22.0573 11.8629 26.0004 10.4141 26.388 6.99703C26.4709 6.26661 26.5255 6.13155 26.8083 5.95807C27.0927 5.78379 27.3154 5.78419 27.6017 5.96006C27.9661 6.18357 28.052 6.48449 27.9644 7.23146C27.6977 9.50761 26.1985 11.3291 24.0181 12.0262C23.3128 12.2517 21.8246 12.2867 21.1066 12.0945L21.1066 12.0944ZM22.1685 8.99746C22.0931 8.9657 21.9544 8.85375 21.8602 8.75212C21.7147 8.59492 21.6838 8.48217 21.6547 8.00352L21.6204 7.44008L21.0493 7.40434C20.5098 7.37258 20.4673 7.35749 20.2786 7.14471C20.1243 6.97083 20.079 6.85292 20.079 6.62581C20.079 6.06923 20.4159 5.81881 21.1646 5.81881H21.6406L21.6646 5.22721C21.6879 4.65928 21.6978 4.62759 21.9125 4.43446C22.1687 4.2042 22.4972 4.16927 22.8214 4.33799C23.1156 4.49123 23.2302 4.77 23.2302 5.33297V5.81893H23.6777C24.2287 5.81893 24.5575 5.94914 24.6985 6.2237C24.8693 6.55598 24.8363 6.88536 24.6061 7.14483C24.4175 7.35762 24.3749 7.37191 23.8354 7.40446L23.2644 7.4402L23.2301 8.00785C23.1989 8.52684 23.1779 8.59353 22.9869 8.78548C22.7646 9.00898 22.4055 9.10187 22.1682 8.99746H22.1685Z"/>
</mask>
<path d="M10.0086 33.9446C8.9032 33.7525 7.95399 32.9659 7.53316 31.8929C7.40731 31.5721 7.37831 31.363 7.37799 30.7745C7.37758 30.0547 7.38468 30.022 7.70959 29.2475C7.74786 29.1558 7.70208 29.1245 7.4743 29.0856C7.31862 29.0578 6.97456 28.9283 6.70968 28.795C5.80154 28.3378 5.17096 27.473 4.99565 26.4443C4.76312 25.0799 5.50546 23.6499 6.75454 23.056C7.01828 22.9305 7.24206 22.8217 7.25181 22.8138C7.26162 22.8058 7.1467 21.3756 6.99655 19.635C6.40319 12.7558 6.03714 8.47828 5.92643 7.12975C5.86247 6.35089 5.77631 5.68161 5.73441 5.63866C5.69264 5.59578 4.70667 5.24286 3.54341 4.85456C1.1001 4.03878 1 3.98226 1 3.41845C1 3.01773 1.17837 2.77175 1.5611 2.64463C1.77552 2.57358 1.98832 2.63273 4.27415 3.40976C5.63836 3.87308 6.84173 4.29675 6.94832 4.35129C7.05492 4.40568 7.18243 4.549 7.2317 4.66968C7.28098 4.79037 7.40028 5.81663 7.49678 6.95015C7.59328 8.08372 7.69696 9.03371 7.72718 9.06126C7.75756 9.08905 8.8765 9.27207 10.2141 9.46846C13.8589 10.0037 16.2638 10.3694 16.3859 10.4071C16.5888 10.4698 16.8017 10.768 16.8381 11.0408C16.8852 11.3941 16.7191 11.719 16.4172 11.8639C16.1967 11.9698 16.0438 11.9532 12.8408 11.48C11.0005 11.208 9.13156 10.9291 8.68763 10.86C8.24371 10.7909 7.86803 10.7548 7.85278 10.7794C7.82793 10.8199 7.94612 12.3152 7.97666 12.3459C7.99876 12.3697 33.0599 16.2064 33.0813 16.1909C33.1439 16.1457 33.4994 14.6103 33.4558 14.5736C33.427 14.5498 32.4941 14.3973 31.3825 14.2358C27.8921 13.728 27.1065 13.6035 26.9102 13.5271C26.614 13.4116 26.4501 13.1527 26.4501 12.8004C26.4501 12.5424 26.4876 12.4547 26.683 12.2582C26.858 12.082 26.9748 12.024 27.1527 12.024C27.2829 12.024 28.8468 12.2404 30.6282 12.505C32.4095 12.7694 33.8892 12.9721 33.9164 12.9552C33.9436 12.9393 34.0695 12.5125 34.1961 12.0089C34.4525 10.9897 34.5972 10.7603 35.0356 10.6775C35.3556 10.6172 35.6825 10.7994 35.8663 11.1408L36 11.3889L34.369 17.5832C33.472 20.99 32.69 23.8601 32.6313 23.9611C32.5726 24.0619 32.4448 24.1838 32.3475 24.2314C32.2077 24.2997 29.6021 24.32 19.9738 24.3275L7.77719 24.3355L7.45419 24.4927C6.79732 24.8127 6.424 25.5682 6.57882 26.2644C6.68696 26.7505 6.98441 27.1459 7.40247 27.3591L7.74337 27.533H19.9123C31.0333 27.533 32.1015 27.541 32.3172 27.6457C32.85 27.9002 32.9074 28.6979 32.4168 29.0303C32.2702 29.1295 32.0432 29.1553 31.1257 29.176C30.5134 29.1919 30.0125 29.2117 30.0125 29.2201C30.0125 29.232 30.0816 29.39 30.166 29.575C30.299 29.866 30.3197 30.0268 30.3202 30.7728C30.3207 31.6264 30.3183 31.6394 30.0684 32.154C29.2961 33.7432 27.4259 34.4163 25.8651 33.6668C24.2563 32.8942 23.6266 31.0713 24.3595 29.308C24.407 29.1937 24.1189 29.1873 18.8618 29.1873H13.3139L13.4679 29.6182C13.791 30.5221 13.7483 31.3475 13.3348 32.1912C12.8856 33.1077 11.9705 33.7845 10.9677 33.9418C10.4744 34.0192 10.4478 34.0192 10.0086 33.9428L10.0086 33.9446ZM11.2499 32.1674C12.3126 31.6087 12.3791 30.0882 11.3701 29.4164C11.04 29.1964 10.384 29.1218 9.97523 29.2576C8.87125 29.6244 8.57775 31.2218 9.47466 31.9825C9.99114 32.4205 10.6398 32.488 11.2498 32.1675L11.2499 32.1674ZM27.8545 32.2313C28.1957 32.0749 28.5987 31.6332 28.7103 31.2932C28.9474 30.5702 28.6179 29.7246 27.9655 29.3816C26.6905 28.7113 25.3087 29.8562 25.6966 31.2615C25.7889 31.5958 26.2112 32.0755 26.549 32.23C26.9086 32.3943 27.4975 32.3951 27.8545 32.2309V32.2313ZM31.4088 22.5885C31.4281 22.5222 31.6795 21.5682 31.9671 20.4687C32.2548 19.3692 32.5336 18.317 32.5869 18.1305C32.6401 17.9439 32.6761 17.7843 32.6668 17.7755C32.653 17.7636 24.675 16.5332 17.4758 15.4348C16.628 15.3054 14.9171 15.0433 13.6737 14.8522C9.17969 14.1614 8.15011 14.0095 8.12723 14.0335C8.11461 14.0454 8.26958 15.9658 8.472 18.2975C8.67444 20.6292 8.84096 22.5758 8.84203 22.6231C8.84359 22.6918 11.1436 22.7093 20.1087 22.7093C30.7777 22.7093 31.3752 22.7013 31.4088 22.5886V22.5885ZM21.1066 12.0944C19.1397 11.5683 17.5791 10.0124 17.0566 8.05648C16.8506 7.28541 16.8511 6.00758 17.0576 5.23416C17.3556 4.1183 17.8426 3.30931 18.7117 2.48663C19.6063 1.63981 20.8018 1.11484 22.0577 1.01738C22.5003 0.981642 22.6311 0.997517 22.8005 1.09795C23.2176 1.34607 23.341 1.81072 23.0967 2.2139C22.9212 2.5033 22.8106 2.55332 22.2175 2.6101C20.0645 2.81653 18.4947 4.48234 18.4782 6.57837C18.4691 7.73781 18.844 8.65522 19.6596 9.46945C22.0573 11.8629 26.0004 10.4141 26.388 6.99703C26.4709 6.26661 26.5255 6.13155 26.8083 5.95807C27.0927 5.78379 27.3154 5.78419 27.6017 5.96006C27.9661 6.18357 28.052 6.48449 27.9644 7.23146C27.6977 9.50761 26.1985 11.3291 24.0181 12.0262C23.3128 12.2517 21.8246 12.2867 21.1066 12.0945L21.1066 12.0944ZM22.1685 8.99746C22.0931 8.9657 21.9544 8.85375 21.8602 8.75212C21.7147 8.59492 21.6838 8.48217 21.6547 8.00352L21.6204 7.44008L21.0493 7.40434C20.5098 7.37258 20.4673 7.35749 20.2786 7.14471C20.1243 6.97083 20.079 6.85292 20.079 6.62581C20.079 6.06923 20.4159 5.81881 21.1646 5.81881H21.6406L21.6646 5.22721C21.6879 4.65928 21.6978 4.62759 21.9125 4.43446C22.1687 4.2042 22.4972 4.16927 22.8214 4.33799C23.1156 4.49123 23.2302 4.77 23.2302 5.33297V5.81893H23.6777C24.2287 5.81893 24.5575 5.94914 24.6985 6.2237C24.8693 6.55598 24.8363 6.88536 24.6061 7.14483C24.4175 7.35762 24.3749 7.37191 23.8354 7.40446L23.2644 7.4402L23.2301 8.00785C23.1989 8.52684 23.1779 8.59353 22.9869 8.78548C22.7646 9.00898 22.4055 9.10187 22.1682 8.99746H22.1685Z" fill="#F9F9F9"/>
<path d="M10.0086 33.9446C8.9032 33.7525 7.95399 32.9659 7.53316 31.8929C7.40731 31.5721 7.37831 31.363 7.37799 30.7745C7.37758 30.0547 7.38468 30.022 7.70959 29.2475C7.74786 29.1558 7.70208 29.1245 7.4743 29.0856C7.31862 29.0578 6.97456 28.9283 6.70968 28.795C5.80154 28.3378 5.17096 27.473 4.99565 26.4443C4.76312 25.0799 5.50546 23.6499 6.75454 23.056C7.01828 22.9305 7.24206 22.8217 7.25181 22.8138C7.26162 22.8058 7.1467 21.3756 6.99655 19.635C6.40319 12.7558 6.03714 8.47828 5.92643 7.12975C5.86247 6.35089 5.77631 5.68161 5.73441 5.63866C5.69264 5.59578 4.70667 5.24286 3.54341 4.85456C1.1001 4.03878 1 3.98226 1 3.41845C1 3.01773 1.17837 2.77175 1.5611 2.64463C1.77552 2.57358 1.98832 2.63273 4.27415 3.40976C5.63836 3.87308 6.84173 4.29675 6.94832 4.35129C7.05492 4.40568 7.18243 4.549 7.2317 4.66968C7.28098 4.79037 7.40028 5.81663 7.49678 6.95015C7.59328 8.08372 7.69696 9.03371 7.72718 9.06126C7.75756 9.08905 8.8765 9.27207 10.2141 9.46846C13.8589 10.0037 16.2638 10.3694 16.3859 10.4071C16.5888 10.4698 16.8017 10.768 16.8381 11.0408C16.8852 11.3941 16.7191 11.719 16.4172 11.8639C16.1967 11.9698 16.0438 11.9532 12.8408 11.48C11.0005 11.208 9.13156 10.9291 8.68763 10.86C8.24371 10.7909 7.86803 10.7548 7.85278 10.7794C7.82793 10.8199 7.94612 12.3152 7.97666 12.3459C7.99876 12.3697 33.0599 16.2064 33.0813 16.1909C33.1439 16.1457 33.4994 14.6103 33.4558 14.5736C33.427 14.5498 32.4941 14.3973 31.3825 14.2358C27.8921 13.728 27.1065 13.6035 26.9102 13.5271C26.614 13.4116 26.4501 13.1527 26.4501 12.8004C26.4501 12.5424 26.4876 12.4547 26.683 12.2582C26.858 12.082 26.9748 12.024 27.1527 12.024C27.2829 12.024 28.8468 12.2404 30.6282 12.505C32.4095 12.7694 33.8892 12.9721 33.9164 12.9552C33.9436 12.9393 34.0695 12.5125 34.1961 12.0089C34.4525 10.9897 34.5972 10.7603 35.0356 10.6775C35.3556 10.6172 35.6825 10.7994 35.8663 11.1408L36 11.3889L34.369 17.5832C33.472 20.99 32.69 23.8601 32.6313 23.9611C32.5726 24.0619 32.4448 24.1838 32.3475 24.2314C32.2077 24.2997 29.6021 24.32 19.9738 24.3275L7.77719 24.3355L7.45419 24.4927C6.79732 24.8127 6.424 25.5682 6.57882 26.2644C6.68696 26.7505 6.98441 27.1459 7.40247 27.3591L7.74337 27.533H19.9123C31.0333 27.533 32.1015 27.541 32.3172 27.6457C32.85 27.9002 32.9074 28.6979 32.4168 29.0303C32.2702 29.1295 32.0432 29.1553 31.1257 29.176C30.5134 29.1919 30.0125 29.2117 30.0125 29.2201C30.0125 29.232 30.0816 29.39 30.166 29.575C30.299 29.866 30.3197 30.0268 30.3202 30.7728C30.3207 31.6264 30.3183 31.6394 30.0684 32.154C29.2961 33.7432 27.4259 34.4163 25.8651 33.6668C24.2563 32.8942 23.6266 31.0713 24.3595 29.308C24.407 29.1937 24.1189 29.1873 18.8618 29.1873H13.3139L13.4679 29.6182C13.791 30.5221 13.7483 31.3475 13.3348 32.1912C12.8856 33.1077 11.9705 33.7845 10.9677 33.9418C10.4744 34.0192 10.4478 34.0192 10.0086 33.9428L10.0086 33.9446ZM11.2499 32.1674C12.3126 31.6087 12.3791 30.0882 11.3701 29.4164C11.04 29.1964 10.384 29.1218 9.97523 29.2576C8.87125 29.6244 8.57775 31.2218 9.47466 31.9825C9.99114 32.4205 10.6398 32.488 11.2498 32.1675L11.2499 32.1674ZM27.8545 32.2313C28.1957 32.0749 28.5987 31.6332 28.7103 31.2932C28.9474 30.5702 28.6179 29.7246 27.9655 29.3816C26.6905 28.7113 25.3087 29.8562 25.6966 31.2615C25.7889 31.5958 26.2112 32.0755 26.549 32.23C26.9086 32.3943 27.4975 32.3951 27.8545 32.2309V32.2313ZM31.4088 22.5885C31.4281 22.5222 31.6795 21.5682 31.9671 20.4687C32.2548 19.3692 32.5336 18.317 32.5869 18.1305C32.6401 17.9439 32.6761 17.7843 32.6668 17.7755C32.653 17.7636 24.675 16.5332 17.4758 15.4348C16.628 15.3054 14.9171 15.0433 13.6737 14.8522C9.17969 14.1614 8.15011 14.0095 8.12723 14.0335C8.11461 14.0454 8.26958 15.9658 8.472 18.2975C8.67444 20.6292 8.84096 22.5758 8.84203 22.6231C8.84359 22.6918 11.1436 22.7093 20.1087 22.7093C30.7777 22.7093 31.3752 22.7013 31.4088 22.5886V22.5885ZM21.1066 12.0944C19.1397 11.5683 17.5791 10.0124 17.0566 8.05648C16.8506 7.28541 16.8511 6.00758 17.0576 5.23416C17.3556 4.1183 17.8426 3.30931 18.7117 2.48663C19.6063 1.63981 20.8018 1.11484 22.0577 1.01738C22.5003 0.981642 22.6311 0.997517 22.8005 1.09795C23.2176 1.34607 23.341 1.81072 23.0967 2.2139C22.9212 2.5033 22.8106 2.55332 22.2175 2.6101C20.0645 2.81653 18.4947 4.48234 18.4782 6.57837C18.4691 7.73781 18.844 8.65522 19.6596 9.46945C22.0573 11.8629 26.0004 10.4141 26.388 6.99703C26.4709 6.26661 26.5255 6.13155 26.8083 5.95807C27.0927 5.78379 27.3154 5.78419 27.6017 5.96006C27.9661 6.18357 28.052 6.48449 27.9644 7.23146C27.6977 9.50761 26.1985 11.3291 24.0181 12.0262C23.3128 12.2517 21.8246 12.2867 21.1066 12.0945L21.1066 12.0944ZM22.1685 8.99746C22.0931 8.9657 21.9544 8.85375 21.8602 8.75212C21.7147 8.59492 21.6838 8.48217 21.6547 8.00352L21.6204 7.44008L21.0493 7.40434C20.5098 7.37258 20.4673 7.35749 20.2786 7.14471C20.1243 6.97083 20.079 6.85292 20.079 6.62581C20.079 6.06923 20.4159 5.81881 21.1646 5.81881H21.6406L21.6646 5.22721C21.6879 4.65928 21.6978 4.62759 21.9125 4.43446C22.1687 4.2042 22.4972 4.16927 22.8214 4.33799C23.1156 4.49123 23.2302 4.77 23.2302 5.33297V5.81893H23.6777C24.2287 5.81893 24.5575 5.94914 24.6985 6.2237C24.8693 6.55598 24.8363 6.88536 24.6061 7.14483C24.4175 7.35762 24.3749 7.37191 23.8354 7.40446L23.2644 7.4402L23.2301 8.00785C23.1989 8.52684 23.1779 8.59353 22.9869 8.78548C22.7646 9.00898 22.4055 9.10187 22.1682 8.99746H22.1685Z" stroke="white" mask="url(#path-1-outside-1_342:455)"/>
</svg>
