<svg width="977" height="289" viewBox="0 0 977 289" fill="none" xmlns="http://www.w3.org/2000/svg">
<path d="M43.0527 15H40.5918V0.78125H43.0527V15ZM48.834 1.86523V4.43359H50.6992V6.19141H48.834V12.0898C48.834 12.4935 48.9121 12.7865 49.0684 12.9688C49.2311 13.1445 49.5176 13.2324 49.9277 13.2324C50.2012 13.2324 50.4779 13.1999 50.7578 13.1348V14.9707C50.2174 15.1204 49.6966 15.1953 49.1953 15.1953C47.3724 15.1953 46.4609 14.1895 46.4609 12.1777V6.19141H44.7227V4.43359H46.4609V1.86523H48.834ZM57.1738 15.1953C55.6699 15.1953 54.4492 14.7233 53.5117 13.7793C52.5807 12.8288 52.1152 11.5658 52.1152 9.99023V9.69727C52.1152 8.64258 52.3171 7.70182 52.7207 6.875C53.1309 6.04167 53.7038 5.39388 54.4395 4.93164C55.1751 4.4694 55.9954 4.23828 56.9004 4.23828C58.3392 4.23828 59.4492 4.69727 60.2305 5.61523C61.0182 6.5332 61.4121 7.83203 61.4121 9.51172V10.4688H54.5078C54.5794 11.3411 54.8691 12.0312 55.377 12.5391C55.8913 13.0469 56.5358 13.3008 57.3105 13.3008C58.3978 13.3008 59.2832 12.8613 59.9668 11.9824L61.2461 13.2031C60.8229 13.8346 60.2565 14.3262 59.5469 14.6777C58.8438 15.0228 58.0527 15.1953 57.1738 15.1953ZM56.8906 6.14258C56.2396 6.14258 55.7122 6.37044 55.3086 6.82617C54.9115 7.2819 54.6576 7.91667 54.5469 8.73047H59.0684V8.55469C59.0163 7.76042 58.8047 7.16146 58.4336 6.75781C58.0625 6.34766 57.5482 6.14258 56.8906 6.14258ZM65.4941 4.43359L65.5625 5.53711C66.3047 4.67122 67.3203 4.23828 68.6094 4.23828C70.0221 4.23828 70.9889 4.77865 71.5098 5.85938C72.278 4.77865 73.3587 4.23828 74.752 4.23828C75.9173 4.23828 76.7832 4.56055 77.3496 5.20508C77.9225 5.84961 78.2155 6.80013 78.2285 8.05664V15H75.8555V8.125C75.8555 7.45443 75.709 6.96289 75.416 6.65039C75.123 6.33789 74.638 6.18164 73.9609 6.18164C73.4206 6.18164 72.9779 6.32812 72.6328 6.62109C72.2943 6.90755 72.0566 7.28516 71.9199 7.75391L71.9297 15H69.5566V8.04688C69.5241 6.80339 68.8893 6.18164 67.6523 6.18164C66.7018 6.18164 66.028 6.56901 65.6309 7.34375V15H63.2578V4.43359H65.4941ZM96.7246 10.3711C96.5814 11.888 96.0215 13.0729 95.0449 13.9258C94.0684 14.7721 92.7695 15.1953 91.1484 15.1953C90.0156 15.1953 89.0163 14.9284 88.1504 14.3945C87.291 13.8542 86.627 13.0892 86.1582 12.0996C85.6895 11.11 85.4453 9.96094 85.4258 8.65234V7.32422C85.4258 5.98307 85.6634 4.80143 86.1387 3.7793C86.6139 2.75716 87.2943 1.9694 88.1797 1.41602C89.0716 0.86263 90.1003 0.585938 91.2656 0.585938C92.8346 0.585938 94.0977 1.01237 95.0547 1.86523C96.0117 2.7181 96.5684 3.92253 96.7246 5.47852H94.2637C94.1465 4.45638 93.847 3.7207 93.3652 3.27148C92.89 2.81576 92.1901 2.58789 91.2656 2.58789C90.1914 2.58789 89.3646 2.98177 88.7852 3.76953C88.2122 4.55078 87.9193 5.69987 87.9062 7.2168V8.47656C87.9062 10.013 88.1797 11.1849 88.7266 11.9922C89.2799 12.7995 90.0872 13.2031 91.1484 13.2031C92.1185 13.2031 92.8477 12.985 93.3359 12.5488C93.8242 12.1126 94.1335 11.3867 94.2637 10.3711H96.7246ZM98.2676 9.61914C98.2676 8.58398 98.4727 7.65299 98.8828 6.82617C99.293 5.99284 99.8691 5.35482 100.611 4.91211C101.354 4.46289 102.206 4.23828 103.17 4.23828C104.596 4.23828 105.751 4.69727 106.637 5.61523C107.529 6.5332 108.01 7.75065 108.082 9.26758L108.092 9.82422C108.092 10.8659 107.89 11.7969 107.486 12.6172C107.089 13.4375 106.516 14.0723 105.768 14.5215C105.025 14.9707 104.166 15.1953 103.189 15.1953C101.699 15.1953 100.504 14.7005 99.6055 13.7109C98.7135 12.7148 98.2676 11.39 98.2676 9.73633V9.61914ZM100.641 9.82422C100.641 10.9115 100.865 11.7643 101.314 12.3828C101.764 12.9948 102.389 13.3008 103.189 13.3008C103.99 13.3008 104.612 12.9883 105.055 12.3633C105.504 11.7383 105.729 10.8236 105.729 9.61914C105.729 8.55143 105.497 7.70508 105.035 7.08008C104.579 6.45508 103.958 6.14258 103.17 6.14258C102.395 6.14258 101.78 6.45182 101.324 7.07031C100.868 7.68229 100.641 8.60026 100.641 9.82422ZM116.5 13.9648C115.803 14.7852 114.814 15.1953 113.531 15.1953C112.385 15.1953 111.516 14.86 110.924 14.1895C110.338 13.5189 110.045 12.5488 110.045 11.2793V4.43359H112.418V11.25C112.418 12.5911 112.975 13.2617 114.088 13.2617C115.24 13.2617 116.018 12.8483 116.422 12.0215V4.43359H118.795V15H116.559L116.5 13.9648ZM123.414 4.43359L123.482 5.6543C124.264 4.71029 125.289 4.23828 126.559 4.23828C128.759 4.23828 129.879 5.49805 129.918 8.01758V15H127.545V8.1543C127.545 7.48372 127.398 6.98893 127.105 6.66992C126.819 6.3444 126.347 6.18164 125.689 6.18164C124.732 6.18164 124.02 6.61458 123.551 7.48047V15H121.178V4.43359H123.414ZM135.318 1.86523V4.43359H137.184V6.19141H135.318V12.0898C135.318 12.4935 135.396 12.7865 135.553 12.9688C135.715 13.1445 136.002 13.2324 136.412 13.2324C136.686 13.2324 136.962 13.1999 137.242 13.1348V14.9707C136.702 15.1204 136.181 15.1953 135.68 15.1953C133.857 15.1953 132.945 14.1895 132.945 12.1777V6.19141H131.207V4.43359H132.945V1.86523H135.318Z" fill="#313131"/>
<path d="M260.998 0.78125L265.1 11.6797L269.191 0.78125H272.385V15H269.924V10.3125L270.168 4.04297L265.969 15H264.201L260.012 4.05273L260.256 10.3125V15H257.795V0.78125H260.998ZM281.398 15C281.294 14.7982 281.203 14.4694 281.125 14.0137C280.37 14.8014 279.445 15.1953 278.352 15.1953C277.29 15.1953 276.424 14.8926 275.754 14.2871C275.083 13.6816 274.748 12.9329 274.748 12.041C274.748 10.9147 275.165 10.0521 275.998 9.45312C276.838 8.84766 278.036 8.54492 279.592 8.54492H281.047V7.85156C281.047 7.30469 280.894 6.86849 280.588 6.54297C280.282 6.21094 279.816 6.04492 279.191 6.04492C278.651 6.04492 278.208 6.18164 277.863 6.45508C277.518 6.72201 277.346 7.0638 277.346 7.48047H274.973C274.973 6.90104 275.165 6.36068 275.549 5.85938C275.933 5.35156 276.454 4.95443 277.111 4.66797C277.775 4.38151 278.514 4.23828 279.328 4.23828C280.565 4.23828 281.551 4.55078 282.287 5.17578C283.023 5.79427 283.4 6.66667 283.42 7.79297V12.5586C283.42 13.5091 283.553 14.2676 283.82 14.834V15H281.398ZM278.791 13.291C279.26 13.291 279.699 13.1771 280.109 12.9492C280.526 12.7214 280.839 12.4154 281.047 12.0312V10.0391H279.768C278.889 10.0391 278.228 10.1921 277.785 10.498C277.342 10.804 277.121 11.237 277.121 11.7969C277.121 12.2526 277.271 12.6172 277.57 12.8906C277.876 13.1576 278.283 13.291 278.791 13.291ZM291.438 6.60156C291.125 6.54948 290.803 6.52344 290.471 6.52344C289.383 6.52344 288.651 6.9401 288.273 7.77344V15H285.9V4.43359H288.166L288.225 5.61523C288.798 4.69727 289.592 4.23828 290.607 4.23828C290.946 4.23828 291.226 4.28385 291.447 4.375L291.438 6.60156ZM296.369 10.4688L295.314 11.5527V15H292.941V0H295.314V8.65234L296.057 7.72461L298.977 4.43359H301.828L297.902 8.83789L302.248 15H299.504L296.369 10.4688ZM307.844 15.1953C306.34 15.1953 305.119 14.7233 304.182 13.7793C303.251 12.8288 302.785 11.5658 302.785 9.99023V9.69727C302.785 8.64258 302.987 7.70182 303.391 6.875C303.801 6.04167 304.374 5.39388 305.109 4.93164C305.845 4.4694 306.665 4.23828 307.57 4.23828C309.009 4.23828 310.119 4.69727 310.9 5.61523C311.688 6.5332 312.082 7.83203 312.082 9.51172V10.4688H305.178C305.249 11.3411 305.539 12.0312 306.047 12.5391C306.561 13.0469 307.206 13.3008 307.98 13.3008C309.068 13.3008 309.953 12.8613 310.637 11.9824L311.916 13.2031C311.493 13.8346 310.926 14.3262 310.217 14.6777C309.514 15.0228 308.723 15.1953 307.844 15.1953ZM307.561 6.14258C306.91 6.14258 306.382 6.37044 305.979 6.82617C305.581 7.2819 305.327 7.91667 305.217 8.73047H309.738V8.55469C309.686 7.76042 309.475 7.16146 309.104 6.75781C308.732 6.34766 308.218 6.14258 307.561 6.14258ZM316.906 1.86523V4.43359H318.771V6.19141H316.906V12.0898C316.906 12.4935 316.984 12.7865 317.141 12.9688C317.303 13.1445 317.59 13.2324 318 13.2324C318.273 13.2324 318.55 13.1999 318.83 13.1348V14.9707C318.29 15.1204 317.769 15.1953 317.268 15.1953C315.445 15.1953 314.533 14.1895 314.533 12.1777V6.19141H312.795V4.43359H314.533V1.86523H316.906ZM330.812 11.9043L334.426 0.78125H337.141L332.023 15H329.631L324.533 0.78125H327.238L330.812 11.9043ZM344.387 15C344.283 14.7982 344.191 14.4694 344.113 14.0137C343.358 14.8014 342.434 15.1953 341.34 15.1953C340.279 15.1953 339.413 14.8926 338.742 14.2871C338.072 13.6816 337.736 12.9329 337.736 12.041C337.736 10.9147 338.153 10.0521 338.986 9.45312C339.826 8.84766 341.024 8.54492 342.58 8.54492H344.035V7.85156C344.035 7.30469 343.882 6.86849 343.576 6.54297C343.27 6.21094 342.805 6.04492 342.18 6.04492C341.639 6.04492 341.197 6.18164 340.852 6.45508C340.507 6.72201 340.334 7.0638 340.334 7.48047H337.961C337.961 6.90104 338.153 6.36068 338.537 5.85938C338.921 5.35156 339.442 4.95443 340.1 4.66797C340.764 4.38151 341.503 4.23828 342.316 4.23828C343.553 4.23828 344.54 4.55078 345.275 5.17578C346.011 5.79427 346.389 6.66667 346.408 7.79297V12.5586C346.408 13.5091 346.542 14.2676 346.809 14.834V15H344.387ZM341.779 13.291C342.248 13.291 342.688 13.1771 343.098 12.9492C343.514 12.7214 343.827 12.4154 344.035 12.0312V10.0391H342.756C341.877 10.0391 341.216 10.1921 340.773 10.498C340.331 10.804 340.109 11.237 340.109 11.7969C340.109 12.2526 340.259 12.6172 340.559 12.8906C340.865 13.1576 341.271 13.291 341.779 13.291ZM351.418 15H349.045V0H351.418V15ZM360.412 13.9648C359.715 14.7852 358.726 15.1953 357.443 15.1953C356.298 15.1953 355.428 14.86 354.836 14.1895C354.25 13.5189 353.957 12.5488 353.957 11.2793V4.43359H356.33V11.25C356.33 12.5911 356.887 13.2617 358 13.2617C359.152 13.2617 359.93 12.8483 360.334 12.0215V4.43359H362.707V15H360.471L360.412 13.9648ZM369.777 15.1953C368.273 15.1953 367.053 14.7233 366.115 13.7793C365.184 12.8288 364.719 11.5658 364.719 9.99023V9.69727C364.719 8.64258 364.921 7.70182 365.324 6.875C365.734 6.04167 366.307 5.39388 367.043 4.93164C367.779 4.4694 368.599 4.23828 369.504 4.23828C370.943 4.23828 372.053 4.69727 372.834 5.61523C373.622 6.5332 374.016 7.83203 374.016 9.51172V10.4688H367.111C367.183 11.3411 367.473 12.0312 367.98 12.5391C368.495 13.0469 369.139 13.3008 369.914 13.3008C371.001 13.3008 371.887 12.8613 372.57 11.9824L373.85 13.2031C373.426 13.8346 372.86 14.3262 372.15 14.6777C371.447 15.0228 370.656 15.1953 369.777 15.1953ZM369.494 6.14258C368.843 6.14258 368.316 6.37044 367.912 6.82617C367.515 7.2819 367.261 7.91667 367.15 8.73047H371.672V8.55469C371.62 7.76042 371.408 7.16146 371.037 6.75781C370.666 6.34766 370.152 6.14258 369.494 6.14258Z" fill="#313131"/>
<path d="M89.0392 229.961C100.722 229.956 112.289 227.649 123.08 223.174C133.871 218.699 143.675 212.141 151.932 203.877C160.19 195.613 166.738 185.803 171.204 175.008C175.67 164.212 177.966 152.643 177.961 140.961L132.618 140.981C132.62 146.709 131.495 152.381 129.305 157.674C127.115 162.967 123.905 167.777 119.856 171.829C115.808 175.881 111.001 179.096 105.71 181.29C100.419 183.485 94.7472 184.615 89.0192 184.618L89.0392 229.961Z" fill="#BBD7E3"/>
<path d="M404.959 140.961C404.954 129.278 402.648 117.711 398.172 106.92C393.697 96.1287 387.139 86.3246 378.875 78.0675C370.611 69.8104 360.801 63.2619 350.006 58.796C339.21 54.33 327.641 52.0341 315.959 52.0392L315.979 97.382C321.707 97.3795 327.379 98.5052 332.672 100.695C337.965 102.885 342.775 106.095 346.827 110.144C350.879 114.192 354.094 118.999 356.288 124.29C358.483 129.581 359.613 135.253 359.616 140.981L404.959 140.961Z" fill="#BBD7E3"/>
<path d="M177.961 140.961C177.953 123.366 172.728 106.169 162.946 91.5434C153.165 76.9182 139.266 65.522 123.008 58.796C106.749 52.0699 88.8613 50.3161 71.6061 53.7562C54.351 57.1964 38.5034 65.6761 26.0675 78.123C13.6316 90.5699 5.16589 106.425 1.74093 123.683C-1.68403 140.941 0.085573 158.828 6.82597 175.08C13.5664 191.333 24.9748 205.221 39.6087 214.99C54.2425 224.759 71.4444 229.969 89.0392 229.961L89.0192 184.618C80.3924 184.622 71.9582 182.067 64.7831 177.278C57.6081 172.488 52.0145 165.678 48.7096 157.71C45.4047 149.741 44.5371 140.971 46.2164 132.509C47.8957 124.048 52.0464 116.274 58.1438 110.171C64.2412 104.068 72.0114 99.9106 80.4717 98.2239C88.932 96.5372 97.7025 97.3971 105.674 100.695C113.646 103.993 120.46 109.58 125.256 116.751C130.052 123.922 132.614 132.354 132.618 140.981L177.961 140.961Z" fill="#52ABC2"/>
<path d="M315.959 52.0392C298.364 52.047 281.167 57.272 266.541 67.0536C251.916 76.8352 240.52 90.734 233.794 106.992C227.068 123.251 225.314 141.139 228.754 158.394C232.194 175.649 240.674 191.497 253.121 203.933C265.568 216.368 281.423 224.834 298.681 228.259C315.939 231.684 333.826 229.914 350.078 223.174C366.331 216.434 380.219 205.025 389.988 190.391C399.757 175.758 404.967 158.556 404.959 140.961L359.616 140.981C359.62 149.608 357.065 158.042 352.276 165.217C347.486 172.392 340.676 177.986 332.708 181.29C324.739 184.595 315.969 185.463 307.507 183.784C299.046 182.104 291.272 177.954 285.169 171.856C279.066 165.759 274.909 157.989 273.222 149.528C271.535 141.068 272.395 132.298 275.693 124.326C278.991 116.354 284.578 109.54 291.749 104.744C298.92 99.9477 307.352 97.3858 315.979 97.382L315.959 52.0392Z" fill="#52ABC2"/>
<path d="M177.961 140.961C177.956 129.278 175.649 117.711 171.174 106.92C166.699 96.1287 160.141 86.3246 151.877 78.0675C143.613 69.8104 133.803 63.2619 123.008 58.796C112.212 54.33 100.643 52.0341 88.9608 52.0392L88.9808 97.382C94.7088 97.3795 100.381 98.5052 105.674 100.695C110.967 102.885 115.777 106.095 119.829 110.144C123.881 114.192 127.096 118.999 129.29 124.29C131.485 129.581 132.615 135.253 132.618 140.981L177.961 140.961Z" fill="#91C3D5"/>
<path d="M378.875 78.0675C362.184 61.3915 339.553 52.0288 315.959 52.0392L315.979 97.382C327.547 97.3769 338.643 101.967 346.827 110.144L378.875 78.0675Z" fill="#91C3D5"/>
<path d="M119.126 284.217H114.659L113.655 287H112.205L116.277 276.336H117.508L121.587 287H120.145L119.126 284.217ZM115.083 283.06H118.709L116.893 278.072L115.083 283.06ZM122.481 282.972C122.481 281.756 122.769 280.779 123.345 280.042C123.921 279.3 124.676 278.929 125.608 278.929C126.536 278.929 127.271 279.246 127.813 279.881V275.75H129.168V287H127.923L127.857 286.15C127.315 286.814 126.561 287.146 125.594 287.146C124.676 287.146 123.926 286.771 123.345 286.019C122.769 285.267 122.481 284.285 122.481 283.074V282.972ZM123.836 283.125C123.836 284.024 124.021 284.727 124.393 285.235C124.764 285.743 125.276 285.997 125.931 285.997C126.79 285.997 127.417 285.611 127.813 284.839V281.199C127.408 280.452 126.785 280.079 125.945 280.079C125.281 280.079 124.764 280.335 124.393 280.848C124.021 281.36 123.836 282.12 123.836 283.125ZM132.75 287H131.395V279.075H132.75V287ZM131.285 276.973C131.285 276.753 131.351 276.568 131.482 276.417C131.619 276.265 131.819 276.189 132.083 276.189C132.347 276.189 132.547 276.265 132.684 276.417C132.82 276.568 132.889 276.753 132.889 276.973C132.889 277.193 132.82 277.376 132.684 277.522C132.547 277.669 132.347 277.742 132.083 277.742C131.819 277.742 131.619 277.669 131.482 277.522C131.351 277.376 131.285 277.193 131.285 276.973ZM134.595 282.972C134.595 281.756 134.883 280.779 135.459 280.042C136.036 279.3 136.79 278.929 137.723 278.929C138.65 278.929 139.385 279.246 139.927 279.881V275.75H141.282V287H140.037L139.971 286.15C139.429 286.814 138.675 287.146 137.708 287.146C136.79 287.146 136.041 286.771 135.459 286.019C134.883 285.267 134.595 284.285 134.595 283.074V282.972ZM135.95 283.125C135.95 284.024 136.136 284.727 136.507 285.235C136.878 285.743 137.391 285.997 138.045 285.997C138.904 285.997 139.532 285.611 139.927 284.839V281.199C139.522 280.452 138.899 280.079 138.06 280.079C137.396 280.079 136.878 280.335 136.507 280.848C136.136 281.36 135.95 282.12 135.95 283.125ZM148.284 287C148.206 286.844 148.143 286.565 148.094 286.165C147.464 286.819 146.712 287.146 145.838 287.146C145.057 287.146 144.415 286.927 143.912 286.487C143.414 286.043 143.165 285.481 143.165 284.803C143.165 283.978 143.477 283.338 144.102 282.884C144.732 282.425 145.616 282.195 146.753 282.195H148.072V281.573C148.072 281.099 147.93 280.723 147.647 280.445C147.364 280.162 146.946 280.02 146.395 280.02C145.911 280.02 145.506 280.142 145.179 280.386C144.852 280.63 144.688 280.926 144.688 281.272H143.326C143.326 280.877 143.465 280.496 143.743 280.13C144.026 279.759 144.407 279.466 144.886 279.251C145.369 279.036 145.899 278.929 146.475 278.929C147.388 278.929 148.104 279.158 148.621 279.617C149.139 280.071 149.407 280.699 149.427 281.5V285.147C149.427 285.875 149.52 286.453 149.705 286.883V287H148.284ZM146.036 285.967C146.46 285.967 146.863 285.857 147.244 285.638C147.625 285.418 147.901 285.132 148.072 284.781V283.155H147.01C145.35 283.155 144.52 283.641 144.52 284.612C144.52 285.037 144.661 285.369 144.944 285.608C145.228 285.848 145.591 285.967 146.036 285.967ZM156.165 284.898C156.165 284.532 156.026 284.249 155.748 284.048C155.474 283.843 154.993 283.667 154.305 283.521C153.621 283.375 153.077 283.199 152.671 282.994C152.271 282.789 151.973 282.544 151.778 282.261C151.587 281.978 151.492 281.641 151.492 281.25C151.492 280.601 151.766 280.052 152.312 279.603C152.864 279.153 153.567 278.929 154.422 278.929C155.32 278.929 156.048 279.161 156.604 279.625C157.166 280.088 157.447 280.682 157.447 281.404H156.084C156.084 281.033 155.926 280.713 155.608 280.445C155.296 280.176 154.9 280.042 154.422 280.042C153.929 280.042 153.543 280.149 153.265 280.364C152.986 280.579 152.847 280.86 152.847 281.207C152.847 281.534 152.977 281.78 153.235 281.946C153.494 282.112 153.96 282.271 154.634 282.422C155.313 282.574 155.862 282.754 156.282 282.964C156.702 283.174 157.012 283.428 157.212 283.726C157.417 284.019 157.52 284.378 157.52 284.803C157.52 285.511 157.237 286.08 156.67 286.509C156.104 286.934 155.369 287.146 154.466 287.146C153.831 287.146 153.27 287.034 152.781 286.81C152.293 286.585 151.91 286.272 151.631 285.872C151.358 285.467 151.221 285.03 151.221 284.561H152.576C152.601 285.015 152.781 285.376 153.118 285.645C153.46 285.909 153.909 286.041 154.466 286.041C154.979 286.041 155.389 285.938 155.696 285.733C156.009 285.523 156.165 285.245 156.165 284.898Z" fill="#313131"/>
<path d="M201.644 282.825V287H200.238V276.336H204.171C205.338 276.336 206.251 276.634 206.91 277.229C207.574 277.825 207.906 278.614 207.906 279.595C207.906 280.63 207.582 281.429 206.932 281.99C206.288 282.547 205.362 282.825 204.156 282.825H201.644ZM201.644 281.675H204.171C204.923 281.675 205.499 281.5 205.899 281.148C206.3 280.792 206.5 280.279 206.5 279.61C206.5 278.975 206.3 278.467 205.899 278.086C205.499 277.706 204.95 277.508 204.251 277.493H201.644V281.675ZM214.381 286.216C213.854 286.836 213.08 287.146 212.059 287.146C211.214 287.146 210.57 286.902 210.125 286.414C209.686 285.921 209.464 285.193 209.459 284.231V279.075H210.814V284.195C210.814 285.396 211.302 285.997 212.279 285.997C213.314 285.997 214.002 285.611 214.344 284.839V279.075H215.699V287H214.41L214.381 286.216ZM219.039 279.075L219.076 279.954C219.657 279.271 220.44 278.929 221.427 278.929C222.535 278.929 223.29 279.354 223.69 280.203C223.954 279.822 224.295 279.515 224.715 279.28C225.14 279.046 225.641 278.929 226.217 278.929C227.955 278.929 228.839 279.849 228.868 281.69V287H227.513V281.771C227.513 281.204 227.384 280.782 227.125 280.503C226.866 280.22 226.432 280.079 225.821 280.079C225.318 280.079 224.901 280.23 224.569 280.533C224.237 280.831 224.044 281.233 223.99 281.741V287H222.628V281.807C222.628 280.655 222.064 280.079 220.936 280.079C220.047 280.079 219.439 280.457 219.112 281.214V287H217.757V279.075H219.039ZM235.812 287C235.733 286.844 235.67 286.565 235.621 286.165C234.991 286.819 234.239 287.146 233.365 287.146C232.584 287.146 231.942 286.927 231.439 286.487C230.941 286.043 230.692 285.481 230.692 284.803C230.692 283.978 231.004 283.338 231.629 282.884C232.259 282.425 233.143 282.195 234.281 282.195H235.599V281.573C235.599 281.099 235.458 280.723 235.174 280.445C234.891 280.162 234.474 280.02 233.922 280.02C233.438 280.02 233.033 280.142 232.706 280.386C232.379 280.63 232.215 280.926 232.215 281.272H230.853C230.853 280.877 230.992 280.496 231.271 280.13C231.554 279.759 231.935 279.466 232.413 279.251C232.896 279.036 233.426 278.929 234.002 278.929C234.916 278.929 235.631 279.158 236.148 279.617C236.666 280.071 236.935 280.699 236.954 281.5V285.147C236.954 285.875 237.047 286.453 237.232 286.883V287H235.812ZM233.563 285.967C233.988 285.967 234.391 285.857 234.771 285.638C235.152 285.418 235.428 285.132 235.599 284.781V283.155H234.537C232.877 283.155 232.047 283.641 232.047 284.612C232.047 285.037 232.188 285.369 232.472 285.608C232.755 285.848 233.119 285.967 233.563 285.967Z" fill="#313131"/>
<path d="M283.768 285.132L286.815 276.336H288.353L284.398 287H283.153L279.205 276.336H280.736L283.768 285.132ZM294.132 287C294.054 286.844 293.99 286.565 293.941 286.165C293.312 286.819 292.56 287.146 291.686 287.146C290.904 287.146 290.262 286.927 289.759 286.487C289.261 286.043 289.012 285.481 289.012 284.803C289.012 283.978 289.325 283.338 289.95 282.884C290.58 282.425 291.463 282.195 292.601 282.195H293.919V281.573C293.919 281.099 293.778 280.723 293.495 280.445C293.211 280.162 292.794 280.02 292.242 280.02C291.759 280.02 291.354 280.142 291.026 280.386C290.699 280.63 290.536 280.926 290.536 281.272H289.173C289.173 280.877 289.312 280.496 289.591 280.13C289.874 279.759 290.255 279.466 290.733 279.251C291.217 279.036 291.747 278.929 292.323 278.929C293.236 278.929 293.951 279.158 294.469 279.617C294.986 280.071 295.255 280.699 295.274 281.5V285.147C295.274 285.875 295.367 286.453 295.553 286.883V287H294.132ZM291.883 285.967C292.308 285.967 292.711 285.857 293.092 285.638C293.473 285.418 293.749 285.132 293.919 284.781V283.155H292.857C291.197 283.155 290.367 283.641 290.367 284.612C290.367 285.037 290.509 285.369 290.792 285.608C291.075 285.848 291.439 285.967 291.883 285.967ZM298.68 279.075L298.724 280.071C299.33 279.31 300.121 278.929 301.097 278.929C302.772 278.929 303.617 279.874 303.631 281.763V287H302.276V281.756C302.271 281.185 302.14 280.762 301.881 280.489C301.627 280.215 301.229 280.079 300.687 280.079C300.248 280.079 299.862 280.196 299.53 280.43C299.198 280.665 298.939 280.972 298.753 281.353V287H297.398V279.075H298.68ZM310.289 284.898C310.289 284.532 310.15 284.249 309.872 284.048C309.598 283.843 309.117 283.667 308.429 283.521C307.745 283.375 307.201 283.199 306.795 282.994C306.395 282.789 306.097 282.544 305.902 282.261C305.711 281.978 305.616 281.641 305.616 281.25C305.616 280.601 305.89 280.052 306.437 279.603C306.988 279.153 307.691 278.929 308.546 278.929C309.444 278.929 310.172 279.161 310.729 279.625C311.29 280.088 311.571 280.682 311.571 281.404H310.208C310.208 281.033 310.05 280.713 309.732 280.445C309.42 280.176 309.024 280.042 308.546 280.042C308.053 280.042 307.667 280.149 307.389 280.364C307.11 280.579 306.971 280.86 306.971 281.207C306.971 281.534 307.101 281.78 307.359 281.946C307.618 282.112 308.084 282.271 308.758 282.422C309.437 282.574 309.986 282.754 310.406 282.964C310.826 283.174 311.136 283.428 311.336 283.726C311.542 284.019 311.644 284.378 311.644 284.803C311.644 285.511 311.361 286.08 310.794 286.509C310.228 286.934 309.493 287.146 308.59 287.146C307.955 287.146 307.394 287.034 306.905 286.81C306.417 286.585 306.034 286.272 305.755 285.872C305.482 285.467 305.345 285.03 305.345 284.561H306.7C306.725 285.015 306.905 285.376 307.242 285.645C307.584 285.909 308.033 286.041 308.59 286.041C309.103 286.041 309.513 285.938 309.82 285.733C310.133 285.523 310.289 285.245 310.289 284.898Z" fill="#313131"/>
<circle cx="98.5" cy="281.5" r="7.5" fill="#52ABC2"/>
<circle cx="185.5" cy="281.5" r="7.5" fill="#BBD7E3"/>
<circle cx="265.5" cy="281.5" r="7.5" fill="#91C3D5"/>
<path d="M631.126 284.217H626.659L625.655 287H624.205L628.277 276.336H629.508L633.587 287H632.145L631.126 284.217ZM627.083 283.06H630.709L628.893 278.072L627.083 283.06ZM634.481 282.972C634.481 281.756 634.769 280.779 635.345 280.042C635.921 279.3 636.676 278.929 637.608 278.929C638.536 278.929 639.271 279.246 639.813 279.881V275.75H641.168V287H639.923L639.857 286.15C639.315 286.814 638.561 287.146 637.594 287.146C636.676 287.146 635.926 286.771 635.345 286.019C634.769 285.267 634.481 284.285 634.481 283.074V282.972ZM635.836 283.125C635.836 284.024 636.021 284.727 636.393 285.235C636.764 285.743 637.276 285.997 637.931 285.997C638.79 285.997 639.417 285.611 639.813 284.839V281.199C639.408 280.452 638.785 280.079 637.945 280.079C637.281 280.079 636.764 280.335 636.393 280.848C636.021 281.36 635.836 282.12 635.836 283.125ZM644.75 287H643.395V279.075H644.75V287ZM643.285 276.973C643.285 276.753 643.351 276.568 643.482 276.417C643.619 276.265 643.819 276.189 644.083 276.189C644.347 276.189 644.547 276.265 644.684 276.417C644.82 276.568 644.889 276.753 644.889 276.973C644.889 277.193 644.82 277.376 644.684 277.522C644.547 277.669 644.347 277.742 644.083 277.742C643.819 277.742 643.619 277.669 643.482 277.522C643.351 277.376 643.285 277.193 643.285 276.973ZM646.595 282.972C646.595 281.756 646.883 280.779 647.459 280.042C648.036 279.3 648.79 278.929 649.723 278.929C650.65 278.929 651.385 279.246 651.927 279.881V275.75H653.282V287H652.037L651.971 286.15C651.429 286.814 650.675 287.146 649.708 287.146C648.79 287.146 648.041 286.771 647.459 286.019C646.883 285.267 646.595 284.285 646.595 283.074V282.972ZM647.95 283.125C647.95 284.024 648.136 284.727 648.507 285.235C648.878 285.743 649.391 285.997 650.045 285.997C650.904 285.997 651.532 285.611 651.927 284.839V281.199C651.522 280.452 650.899 280.079 650.06 280.079C649.396 280.079 648.878 280.335 648.507 280.848C648.136 281.36 647.95 282.12 647.95 283.125ZM660.284 287C660.206 286.844 660.143 286.565 660.094 286.165C659.464 286.819 658.712 287.146 657.838 287.146C657.057 287.146 656.415 286.927 655.912 286.487C655.414 286.043 655.165 285.481 655.165 284.803C655.165 283.978 655.477 283.338 656.102 282.884C656.732 282.425 657.616 282.195 658.753 282.195H660.072V281.573C660.072 281.099 659.93 280.723 659.647 280.445C659.364 280.162 658.946 280.02 658.395 280.02C657.911 280.02 657.506 280.142 657.179 280.386C656.852 280.63 656.688 280.926 656.688 281.272H655.326C655.326 280.877 655.465 280.496 655.743 280.13C656.026 279.759 656.407 279.466 656.886 279.251C657.369 279.036 657.899 278.929 658.475 278.929C659.388 278.929 660.104 279.158 660.621 279.617C661.139 280.071 661.407 280.699 661.427 281.5V285.147C661.427 285.875 661.52 286.453 661.705 286.883V287H660.284ZM658.036 285.967C658.46 285.967 658.863 285.857 659.244 285.638C659.625 285.418 659.901 285.132 660.072 284.781V283.155H659.01C657.35 283.155 656.52 283.641 656.52 284.612C656.52 285.037 656.661 285.369 656.944 285.608C657.228 285.848 657.591 285.967 658.036 285.967ZM668.165 284.898C668.165 284.532 668.026 284.249 667.748 284.048C667.474 283.843 666.993 283.667 666.305 283.521C665.621 283.375 665.077 283.199 664.671 282.994C664.271 282.789 663.973 282.544 663.778 282.261C663.587 281.978 663.492 281.641 663.492 281.25C663.492 280.601 663.766 280.052 664.312 279.603C664.864 279.153 665.567 278.929 666.422 278.929C667.32 278.929 668.048 279.161 668.604 279.625C669.166 280.088 669.447 280.682 669.447 281.404H668.084C668.084 281.033 667.926 280.713 667.608 280.445C667.296 280.176 666.9 280.042 666.422 280.042C665.929 280.042 665.543 280.149 665.265 280.364C664.986 280.579 664.847 280.86 664.847 281.207C664.847 281.534 664.977 281.78 665.235 281.946C665.494 282.112 665.96 282.271 666.634 282.422C667.313 282.574 667.862 282.754 668.282 282.964C668.702 283.174 669.012 283.428 669.212 283.726C669.417 284.019 669.52 284.378 669.52 284.803C669.52 285.511 669.237 286.08 668.67 286.509C668.104 286.934 667.369 287.146 666.466 287.146C665.831 287.146 665.27 287.034 664.781 286.81C664.293 286.585 663.91 286.272 663.631 285.872C663.358 285.467 663.221 285.03 663.221 284.561H664.576C664.601 285.015 664.781 285.376 665.118 285.645C665.46 285.909 665.909 286.041 666.466 286.041C666.979 286.041 667.389 285.938 667.696 285.733C668.009 285.523 668.165 285.245 668.165 284.898Z" fill="#313131"/>
<path d="M713.644 282.825V287H712.238V276.336H716.171C717.338 276.336 718.251 276.634 718.91 277.229C719.574 277.825 719.906 278.614 719.906 279.595C719.906 280.63 719.582 281.429 718.932 281.99C718.288 282.547 717.362 282.825 716.156 282.825H713.644ZM713.644 281.675H716.171C716.923 281.675 717.499 281.5 717.899 281.148C718.3 280.792 718.5 280.279 718.5 279.61C718.5 278.975 718.3 278.467 717.899 278.086C717.499 277.706 716.95 277.508 716.251 277.493H713.644V281.675ZM726.381 286.216C725.854 286.836 725.08 287.146 724.059 287.146C723.214 287.146 722.57 286.902 722.125 286.414C721.686 285.921 721.464 285.193 721.459 284.231V279.075H722.814V284.195C722.814 285.396 723.302 285.997 724.279 285.997C725.314 285.997 726.002 285.611 726.344 284.839V279.075H727.699V287H726.41L726.381 286.216ZM731.039 279.075L731.076 279.954C731.657 279.271 732.44 278.929 733.427 278.929C734.535 278.929 735.29 279.354 735.69 280.203C735.954 279.822 736.295 279.515 736.715 279.28C737.14 279.046 737.641 278.929 738.217 278.929C739.955 278.929 740.839 279.849 740.868 281.69V287H739.513V281.771C739.513 281.204 739.384 280.782 739.125 280.503C738.866 280.22 738.432 280.079 737.821 280.079C737.318 280.079 736.901 280.23 736.569 280.533C736.237 280.831 736.044 281.233 735.99 281.741V287H734.628V281.807C734.628 280.655 734.064 280.079 732.936 280.079C732.047 280.079 731.439 280.457 731.112 281.214V287H729.757V279.075H731.039ZM747.812 287C747.733 286.844 747.67 286.565 747.621 286.165C746.991 286.819 746.239 287.146 745.365 287.146C744.584 287.146 743.942 286.927 743.439 286.487C742.941 286.043 742.692 285.481 742.692 284.803C742.692 283.978 743.004 283.338 743.629 282.884C744.259 282.425 745.143 282.195 746.281 282.195H747.599V281.573C747.599 281.099 747.458 280.723 747.174 280.445C746.891 280.162 746.474 280.02 745.922 280.02C745.438 280.02 745.033 280.142 744.706 280.386C744.379 280.63 744.215 280.926 744.215 281.272H742.853C742.853 280.877 742.992 280.496 743.271 280.13C743.554 279.759 743.935 279.466 744.413 279.251C744.896 279.036 745.426 278.929 746.002 278.929C746.916 278.929 747.631 279.158 748.148 279.617C748.666 280.071 748.935 280.699 748.954 281.5V285.147C748.954 285.875 749.047 286.453 749.232 286.883V287H747.812ZM745.563 285.967C745.988 285.967 746.391 285.857 746.771 285.638C747.152 285.418 747.428 285.132 747.599 284.781V283.155H746.537C744.877 283.155 744.047 283.641 744.047 284.612C744.047 285.037 744.188 285.369 744.472 285.608C744.755 285.848 745.119 285.967 745.563 285.967Z" fill="#313131"/>
<path d="M795.768 285.132L798.815 276.336H800.353L796.398 287H795.153L791.205 276.336H792.736L795.768 285.132ZM806.132 287C806.054 286.844 805.99 286.565 805.941 286.165C805.312 286.819 804.56 287.146 803.686 287.146C802.904 287.146 802.262 286.927 801.759 286.487C801.261 286.043 801.012 285.481 801.012 284.803C801.012 283.978 801.325 283.338 801.95 282.884C802.58 282.425 803.463 282.195 804.601 282.195H805.919V281.573C805.919 281.099 805.778 280.723 805.495 280.445C805.211 280.162 804.794 280.02 804.242 280.02C803.759 280.02 803.354 280.142 803.026 280.386C802.699 280.63 802.536 280.926 802.536 281.272H801.173C801.173 280.877 801.312 280.496 801.591 280.13C801.874 279.759 802.255 279.466 802.733 279.251C803.217 279.036 803.747 278.929 804.323 278.929C805.236 278.929 805.951 279.158 806.469 279.617C806.986 280.071 807.255 280.699 807.274 281.5V285.147C807.274 285.875 807.367 286.453 807.553 286.883V287H806.132ZM803.883 285.967C804.308 285.967 804.711 285.857 805.092 285.638C805.473 285.418 805.749 285.132 805.919 284.781V283.155H804.857C803.197 283.155 802.367 283.641 802.367 284.612C802.367 285.037 802.509 285.369 802.792 285.608C803.075 285.848 803.439 285.967 803.883 285.967ZM810.68 279.075L810.724 280.071C811.33 279.31 812.121 278.929 813.097 278.929C814.772 278.929 815.617 279.874 815.631 281.763V287H814.276V281.756C814.271 281.185 814.14 280.762 813.881 280.489C813.627 280.215 813.229 280.079 812.687 280.079C812.248 280.079 811.862 280.196 811.53 280.43C811.198 280.665 810.939 280.972 810.753 281.353V287H809.398V279.075H810.68ZM822.289 284.898C822.289 284.532 822.15 284.249 821.872 284.048C821.598 283.843 821.117 283.667 820.429 283.521C819.745 283.375 819.201 283.199 818.795 282.994C818.395 282.789 818.097 282.544 817.902 282.261C817.711 281.978 817.616 281.641 817.616 281.25C817.616 280.601 817.89 280.052 818.437 279.603C818.988 279.153 819.691 278.929 820.546 278.929C821.444 278.929 822.172 279.161 822.729 279.625C823.29 280.088 823.571 280.682 823.571 281.404H822.208C822.208 281.033 822.05 280.713 821.732 280.445C821.42 280.176 821.024 280.042 820.546 280.042C820.053 280.042 819.667 280.149 819.389 280.364C819.11 280.579 818.971 280.86 818.971 281.207C818.971 281.534 819.101 281.78 819.359 281.946C819.618 282.112 820.084 282.271 820.758 282.422C821.437 282.574 821.986 282.754 822.406 282.964C822.826 283.174 823.136 283.428 823.336 283.726C823.542 284.019 823.644 284.378 823.644 284.803C823.644 285.511 823.361 286.08 822.794 286.509C822.228 286.934 821.493 287.146 820.59 287.146C819.955 287.146 819.394 287.034 818.905 286.81C818.417 286.585 818.034 286.272 817.755 285.872C817.482 285.467 817.345 285.03 817.345 284.561H818.7C818.725 285.015 818.905 285.376 819.242 285.645C819.584 285.909 820.033 286.041 820.59 286.041C821.103 286.041 821.513 285.938 821.82 285.733C822.133 285.523 822.289 285.245 822.289 284.898Z" fill="#313131"/>
<circle cx="610.5" cy="281.5" r="7.5" fill="#52ABC2"/>
<circle cx="697.5" cy="281.5" r="7.5" fill="#BBD7E3"/>
<circle cx="777.5" cy="281.5" r="7.5" fill="#91C3D5"/>
<path d="M500.67 9.52148H497.916V15H495.445V0.78125H500.445C502.086 0.78125 503.352 1.14909 504.244 1.88477C505.136 2.62044 505.582 3.6849 505.582 5.07812C505.582 6.02865 505.351 6.82617 504.889 7.4707C504.433 8.10872 503.795 8.60026 502.975 8.94531L506.168 14.873V15H503.521L500.67 9.52148ZM497.916 7.53906H500.455C501.288 7.53906 501.939 7.33073 502.408 6.91406C502.877 6.49089 503.111 5.91471 503.111 5.18555C503.111 4.42383 502.893 3.83464 502.457 3.41797C502.027 3.0013 501.383 2.78646 500.523 2.77344H497.916V7.53906ZM512.35 15.1953C510.846 15.1953 509.625 14.7233 508.688 13.7793C507.757 12.8288 507.291 11.5658 507.291 9.99023V9.69727C507.291 8.64258 507.493 7.70182 507.896 6.875C508.307 6.04167 508.88 5.39388 509.615 4.93164C510.351 4.4694 511.171 4.23828 512.076 4.23828C513.515 4.23828 514.625 4.69727 515.406 5.61523C516.194 6.5332 516.588 7.83203 516.588 9.51172V10.4688H509.684C509.755 11.3411 510.045 12.0312 510.553 12.5391C511.067 13.0469 511.712 13.3008 512.486 13.3008C513.574 13.3008 514.459 12.8613 515.143 11.9824L516.422 13.2031C515.999 13.8346 515.432 14.3262 514.723 14.6777C514.02 15.0228 513.229 15.1953 512.35 15.1953ZM512.066 6.14258C511.415 6.14258 510.888 6.37044 510.484 6.82617C510.087 7.2819 509.833 7.91667 509.723 8.73047H514.244V8.55469C514.192 7.76042 513.98 7.16146 513.609 6.75781C513.238 6.34766 512.724 6.14258 512.066 6.14258ZM524.361 12.1289C524.361 11.7057 524.186 11.3835 523.834 11.1621C523.489 10.9408 522.913 10.7454 522.105 10.5762C521.298 10.4069 520.624 10.1921 520.084 9.93164C518.899 9.35872 518.307 8.52865 518.307 7.44141C518.307 6.52995 518.691 5.76823 519.459 5.15625C520.227 4.54427 521.204 4.23828 522.389 4.23828C523.652 4.23828 524.671 4.55078 525.445 5.17578C526.227 5.80078 526.617 6.61133 526.617 7.60742H524.244C524.244 7.15169 524.075 6.77409 523.736 6.47461C523.398 6.16862 522.949 6.01562 522.389 6.01562C521.868 6.01562 521.441 6.13607 521.109 6.37695C520.784 6.61784 520.621 6.9401 520.621 7.34375C520.621 7.70833 520.774 7.99154 521.08 8.19336C521.386 8.39518 522.005 8.60026 522.936 8.80859C523.867 9.01042 524.596 9.25456 525.123 9.54102C525.657 9.82096 526.051 10.1595 526.305 10.5566C526.565 10.9538 526.695 11.4355 526.695 12.002C526.695 12.9525 526.301 13.724 525.514 14.3164C524.726 14.9023 523.694 15.1953 522.418 15.1953C521.552 15.1953 520.781 15.0391 520.104 14.7266C519.426 14.4141 518.899 13.9844 518.521 13.4375C518.144 12.8906 517.955 12.3014 517.955 11.6699H520.26C520.292 12.2298 520.504 12.6628 520.895 12.9688C521.285 13.2682 521.803 13.418 522.447 13.418C523.072 13.418 523.548 13.3008 523.873 13.0664C524.199 12.8255 524.361 12.513 524.361 12.1289ZM533.424 15.1953C531.92 15.1953 530.699 14.7233 529.762 13.7793C528.831 12.8288 528.365 11.5658 528.365 9.99023V9.69727C528.365 8.64258 528.567 7.70182 528.971 6.875C529.381 6.04167 529.954 5.39388 530.689 4.93164C531.425 4.4694 532.245 4.23828 533.15 4.23828C534.589 4.23828 535.699 4.69727 536.48 5.61523C537.268 6.5332 537.662 7.83203 537.662 9.51172V10.4688H530.758C530.829 11.3411 531.119 12.0312 531.627 12.5391C532.141 13.0469 532.786 13.3008 533.561 13.3008C534.648 13.3008 535.533 12.8613 536.217 11.9824L537.496 13.2031C537.073 13.8346 536.507 14.3262 535.797 14.6777C535.094 15.0228 534.303 15.1953 533.424 15.1953ZM533.141 6.14258C532.49 6.14258 531.962 6.37044 531.559 6.82617C531.161 7.2819 530.908 7.91667 530.797 8.73047H535.318V8.55469C535.266 7.76042 535.055 7.16146 534.684 6.75781C534.312 6.34766 533.798 6.14258 533.141 6.14258ZM542.037 15H539.664V0H542.037V15ZM547.154 15H544.781V0H547.154V15ZM557.428 9.7168V15H554.957V0.78125H560.396C561.985 0.78125 563.245 1.19466 564.176 2.02148C565.113 2.84831 565.582 3.94206 565.582 5.30273C565.582 6.69596 565.123 7.77995 564.205 8.55469C563.294 9.32943 562.014 9.7168 560.367 9.7168H557.428ZM557.428 7.73438H560.396C561.275 7.73438 561.946 7.5293 562.408 7.11914C562.87 6.70247 563.102 6.10352 563.102 5.32227C563.102 4.55404 562.867 3.94206 562.398 3.48633C561.93 3.02409 561.285 2.78646 560.465 2.77344H557.428V7.73438ZM573.053 6.60156C572.74 6.54948 572.418 6.52344 572.086 6.52344C570.999 6.52344 570.266 6.9401 569.889 7.77344V15H567.516V4.43359H569.781L569.84 5.61523C570.413 4.69727 571.207 4.23828 572.223 4.23828C572.561 4.23828 572.841 4.28385 573.062 4.375L573.053 6.60156ZM577.076 15H574.703V4.43359H577.076V15ZM574.557 1.68945C574.557 1.32487 574.671 1.02214 574.898 0.78125C575.133 0.540365 575.465 0.419922 575.895 0.419922C576.324 0.419922 576.656 0.540365 576.891 0.78125C577.125 1.02214 577.242 1.32487 577.242 1.68945C577.242 2.04753 577.125 2.34701 576.891 2.58789C576.656 2.82227 576.324 2.93945 575.895 2.93945C575.465 2.93945 575.133 2.82227 574.898 2.58789C574.671 2.34701 574.557 2.04753 574.557 1.68945ZM584.01 13.3008C584.602 13.3008 585.094 13.1283 585.484 12.7832C585.875 12.4382 586.083 12.0117 586.109 11.5039H588.346C588.32 12.1615 588.115 12.7767 587.73 13.3496C587.346 13.916 586.826 14.3652 586.168 14.6973C585.51 15.0293 584.801 15.1953 584.039 15.1953C582.561 15.1953 581.389 14.7168 580.523 13.7598C579.658 12.8027 579.225 11.4811 579.225 9.79492V9.55078C579.225 7.94271 579.654 6.6569 580.514 5.69336C581.373 4.72331 582.545 4.23828 584.029 4.23828C585.286 4.23828 586.308 4.60612 587.096 5.3418C587.89 6.07096 588.307 7.03125 588.346 8.22266H586.109C586.083 7.61719 585.875 7.11914 585.484 6.72852C585.1 6.33789 584.609 6.14258 584.01 6.14258C583.242 6.14258 582.649 6.42253 582.232 6.98242C581.816 7.53581 581.604 8.37891 581.598 9.51172V9.89258C581.598 11.0384 581.803 11.8945 582.213 12.4609C582.63 13.0208 583.229 13.3008 584.01 13.3008ZM594.791 15.1953C593.287 15.1953 592.066 14.7233 591.129 13.7793C590.198 12.8288 589.732 11.5658 589.732 9.99023V9.69727C589.732 8.64258 589.934 7.70182 590.338 6.875C590.748 6.04167 591.321 5.39388 592.057 4.93164C592.792 4.4694 593.613 4.23828 594.518 4.23828C595.956 4.23828 597.066 4.69727 597.848 5.61523C598.635 6.5332 599.029 7.83203 599.029 9.51172V10.4688H592.125C592.197 11.3411 592.486 12.0312 592.994 12.5391C593.508 13.0469 594.153 13.3008 594.928 13.3008C596.015 13.3008 596.9 12.8613 597.584 11.9824L598.863 13.2031C598.44 13.8346 597.874 14.3262 597.164 14.6777C596.461 15.0228 595.67 15.1953 594.791 15.1953ZM594.508 6.14258C593.857 6.14258 593.329 6.37044 592.926 6.82617C592.529 7.2819 592.275 7.91667 592.164 8.73047H596.686V8.55469C596.633 7.76042 596.422 7.16146 596.051 6.75781C595.68 6.34766 595.165 6.14258 594.508 6.14258ZM608.561 9.7168V15H606.09V0.78125H611.529C613.118 0.78125 614.378 1.19466 615.309 2.02148C616.246 2.84831 616.715 3.94206 616.715 5.30273C616.715 6.69596 616.256 7.77995 615.338 8.55469C614.426 9.32943 613.147 9.7168 611.5 9.7168H608.561ZM608.561 7.73438H611.529C612.408 7.73438 613.079 7.5293 613.541 7.11914C614.003 6.70247 614.234 6.10352 614.234 5.32227C614.234 4.55404 614 3.94206 613.531 3.48633C613.062 3.02409 612.418 2.78646 611.598 2.77344H608.561V7.73438ZM624.186 6.60156C623.873 6.54948 623.551 6.52344 623.219 6.52344C622.132 6.52344 621.399 6.9401 621.021 7.77344V15H618.648V4.43359H620.914L620.973 5.61523C621.546 4.69727 622.34 4.23828 623.355 4.23828C623.694 4.23828 623.974 4.28385 624.195 4.375L624.186 6.60156ZM630.143 15.1953C628.639 15.1953 627.418 14.7233 626.48 13.7793C625.549 12.8288 625.084 11.5658 625.084 9.99023V9.69727C625.084 8.64258 625.286 7.70182 625.689 6.875C626.1 6.04167 626.673 5.39388 627.408 4.93164C628.144 4.4694 628.964 4.23828 629.869 4.23828C631.308 4.23828 632.418 4.69727 633.199 5.61523C633.987 6.5332 634.381 7.83203 634.381 9.51172V10.4688H627.477C627.548 11.3411 627.838 12.0312 628.346 12.5391C628.86 13.0469 629.505 13.3008 630.279 13.3008C631.367 13.3008 632.252 12.8613 632.936 11.9824L634.215 13.2031C633.792 13.8346 633.225 14.3262 632.516 14.6777C631.812 15.0228 631.021 15.1953 630.143 15.1953ZM629.859 6.14258C629.208 6.14258 628.681 6.37044 628.277 6.82617C627.88 7.2819 627.626 7.91667 627.516 8.73047H632.037V8.55469C631.985 7.76042 631.773 7.16146 631.402 6.75781C631.031 6.34766 630.517 6.14258 629.859 6.14258ZM638.463 4.43359L638.531 5.53711C639.273 4.67122 640.289 4.23828 641.578 4.23828C642.991 4.23828 643.958 4.77865 644.479 5.85938C645.247 4.77865 646.327 4.23828 647.721 4.23828C648.886 4.23828 649.752 4.56055 650.318 5.20508C650.891 5.84961 651.184 6.80013 651.197 8.05664V15H648.824V8.125C648.824 7.45443 648.678 6.96289 648.385 6.65039C648.092 6.33789 647.607 6.18164 646.93 6.18164C646.389 6.18164 645.947 6.32812 645.602 6.62109C645.263 6.90755 645.025 7.28516 644.889 7.75391L644.898 15H642.525V8.04688C642.493 6.80339 641.858 6.18164 640.621 6.18164C639.671 6.18164 638.997 6.56901 638.6 7.34375V15H636.227V4.43359H638.463ZM656.158 15H653.785V4.43359H656.158V15ZM653.639 1.68945C653.639 1.32487 653.753 1.02214 653.98 0.78125C654.215 0.540365 654.547 0.419922 654.977 0.419922C655.406 0.419922 655.738 0.540365 655.973 0.78125C656.207 1.02214 656.324 1.32487 656.324 1.68945C656.324 2.04753 656.207 2.34701 655.973 2.58789C655.738 2.82227 655.406 2.93945 654.977 2.93945C654.547 2.93945 654.215 2.82227 653.98 2.58789C653.753 2.34701 653.639 2.04753 653.639 1.68945ZM665.152 13.9648C664.456 14.7852 663.466 15.1953 662.184 15.1953C661.038 15.1953 660.169 14.86 659.576 14.1895C658.99 13.5189 658.697 12.5488 658.697 11.2793V4.43359H661.07V11.25C661.07 12.5911 661.627 13.2617 662.74 13.2617C663.893 13.2617 664.671 12.8483 665.074 12.0215V4.43359H667.447V15H665.211L665.152 13.9648ZM672.096 4.43359L672.164 5.53711C672.906 4.67122 673.922 4.23828 675.211 4.23828C676.624 4.23828 677.59 4.77865 678.111 5.85938C678.88 4.77865 679.96 4.23828 681.354 4.23828C682.519 4.23828 683.385 4.56055 683.951 5.20508C684.524 5.84961 684.817 6.80013 684.83 8.05664V15H682.457V8.125C682.457 7.45443 682.311 6.96289 682.018 6.65039C681.725 6.33789 681.24 6.18164 680.562 6.18164C680.022 6.18164 679.579 6.32812 679.234 6.62109C678.896 6.90755 678.658 7.28516 678.521 7.75391L678.531 15H676.158V8.04688C676.126 6.80339 675.491 6.18164 674.254 6.18164C673.303 6.18164 672.63 6.56901 672.232 7.34375V15H669.859V4.43359H672.096Z" fill="#313131"/>
<path d="M805.844 11.6895H800.336L799.184 15H796.615L801.986 0.78125H804.203L809.584 15H807.006L805.844 11.6895ZM801.029 9.69727H805.15L803.09 3.79883L801.029 9.69727ZM814.213 11.9922L816.449 4.43359H818.9L815.238 15H813.178L809.486 4.43359H811.947L814.213 11.9922ZM824.906 15.1953C823.402 15.1953 822.182 14.7233 821.244 13.7793C820.313 12.8288 819.848 11.5658 819.848 9.99023V9.69727C819.848 8.64258 820.049 7.70182 820.453 6.875C820.863 6.04167 821.436 5.39388 822.172 4.93164C822.908 4.4694 823.728 4.23828 824.633 4.23828C826.072 4.23828 827.182 4.69727 827.963 5.61523C828.751 6.5332 829.145 7.83203 829.145 9.51172V10.4688H822.24C822.312 11.3411 822.602 12.0312 823.109 12.5391C823.624 13.0469 824.268 13.3008 825.043 13.3008C826.13 13.3008 827.016 12.8613 827.699 11.9824L828.979 13.2031C828.555 13.8346 827.989 14.3262 827.279 14.6777C826.576 15.0228 825.785 15.1953 824.906 15.1953ZM824.623 6.14258C823.972 6.14258 823.445 6.37044 823.041 6.82617C822.644 7.2819 822.39 7.91667 822.279 8.73047H826.801V8.55469C826.749 7.76042 826.537 7.16146 826.166 6.75781C825.795 6.34766 825.281 6.14258 824.623 6.14258ZM836.527 6.60156C836.215 6.54948 835.893 6.52344 835.561 6.52344C834.473 6.52344 833.741 6.9401 833.363 7.77344V15H830.99V4.43359H833.256L833.314 5.61523C833.887 4.69727 834.682 4.23828 835.697 4.23828C836.036 4.23828 836.316 4.28385 836.537 4.375L836.527 6.60156ZM844.047 15C843.943 14.7982 843.852 14.4694 843.773 14.0137C843.018 14.8014 842.094 15.1953 841 15.1953C839.939 15.1953 839.073 14.8926 838.402 14.2871C837.732 13.6816 837.396 12.9329 837.396 12.041C837.396 10.9147 837.813 10.0521 838.646 9.45312C839.486 8.84766 840.684 8.54492 842.24 8.54492H843.695V7.85156C843.695 7.30469 843.542 6.86849 843.236 6.54297C842.93 6.21094 842.465 6.04492 841.84 6.04492C841.299 6.04492 840.857 6.18164 840.512 6.45508C840.167 6.72201 839.994 7.0638 839.994 7.48047H837.621C837.621 6.90104 837.813 6.36068 838.197 5.85938C838.581 5.35156 839.102 4.95443 839.76 4.66797C840.424 4.38151 841.163 4.23828 841.977 4.23828C843.214 4.23828 844.2 4.55078 844.936 5.17578C845.671 5.79427 846.049 6.66667 846.068 7.79297V12.5586C846.068 13.5091 846.202 14.2676 846.469 14.834V15H844.047ZM841.439 13.291C841.908 13.291 842.348 13.1771 842.758 12.9492C843.174 12.7214 843.487 12.4154 843.695 12.0312V10.0391H842.416C841.537 10.0391 840.876 10.1921 840.434 10.498C839.991 10.804 839.77 11.237 839.77 11.7969C839.77 12.2526 839.919 12.6172 840.219 12.8906C840.525 13.1576 840.932 13.291 841.439 13.291ZM848.139 9.63867C848.139 7.99805 848.523 6.68945 849.291 5.71289C850.066 4.72982 851.091 4.23828 852.367 4.23828C853.572 4.23828 854.519 4.6582 855.209 5.49805L855.316 4.43359H857.455V14.6777C857.455 16.0645 857.022 17.1582 856.156 17.959C855.297 18.7598 854.135 19.1602 852.67 19.1602C851.895 19.1602 851.137 18.9974 850.395 18.6719C849.659 18.3529 849.099 17.9329 848.715 17.4121L849.838 15.9863C850.567 16.8522 851.465 17.2852 852.533 17.2852C853.321 17.2852 853.943 17.0703 854.398 16.6406C854.854 16.2174 855.082 15.5924 855.082 14.7656V14.0527C854.398 14.8145 853.487 15.1953 852.348 15.1953C851.111 15.1953 850.098 14.7038 849.311 13.7207C848.529 12.7376 848.139 11.377 848.139 9.63867ZM850.502 9.84375C850.502 10.9049 850.717 11.7415 851.146 12.3535C851.583 12.959 852.185 13.2617 852.953 13.2617C853.91 13.2617 854.62 12.8516 855.082 12.0312V7.38281C854.633 6.58203 853.93 6.18164 852.973 6.18164C852.191 6.18164 851.583 6.49089 851.146 7.10938C850.717 7.72786 850.502 8.63932 850.502 9.84375ZM864.555 15.1953C863.051 15.1953 861.83 14.7233 860.893 13.7793C859.962 12.8288 859.496 11.5658 859.496 9.99023V9.69727C859.496 8.64258 859.698 7.70182 860.102 6.875C860.512 6.04167 861.085 5.39388 861.82 4.93164C862.556 4.4694 863.376 4.23828 864.281 4.23828C865.72 4.23828 866.83 4.69727 867.611 5.61523C868.399 6.5332 868.793 7.83203 868.793 9.51172V10.4688H861.889C861.96 11.3411 862.25 12.0312 862.758 12.5391C863.272 13.0469 863.917 13.3008 864.691 13.3008C865.779 13.3008 866.664 12.8613 867.348 11.9824L868.627 13.2031C868.204 13.8346 867.637 14.3262 866.928 14.6777C866.225 15.0228 865.434 15.1953 864.555 15.1953ZM864.271 6.14258C863.62 6.14258 863.093 6.37044 862.689 6.82617C862.292 7.2819 862.038 7.91667 861.928 8.73047H866.449V8.55469C866.397 7.76042 866.186 7.16146 865.814 6.75781C865.443 6.34766 864.929 6.14258 864.271 6.14258ZM878.324 9.7168V15H875.854V0.78125H881.293C882.882 0.78125 884.141 1.19466 885.072 2.02148C886.01 2.84831 886.479 3.94206 886.479 5.30273C886.479 6.69596 886.02 7.77995 885.102 8.55469C884.19 9.32943 882.911 9.7168 881.264 9.7168H878.324ZM878.324 7.73438H881.293C882.172 7.73438 882.842 7.5293 883.305 7.11914C883.767 6.70247 883.998 6.10352 883.998 5.32227C883.998 4.55404 883.764 3.94206 883.295 3.48633C882.826 3.02409 882.182 2.78646 881.361 2.77344H878.324V7.73438ZM893.949 6.60156C893.637 6.54948 893.314 6.52344 892.982 6.52344C891.895 6.52344 891.163 6.9401 890.785 7.77344V15H888.412V4.43359H890.678L890.736 5.61523C891.309 4.69727 892.104 4.23828 893.119 4.23828C893.458 4.23828 893.738 4.28385 893.959 4.375L893.949 6.60156ZM897.973 15H895.6V4.43359H897.973V15ZM895.453 1.68945C895.453 1.32487 895.567 1.02214 895.795 0.78125C896.029 0.540365 896.361 0.419922 896.791 0.419922C897.221 0.419922 897.553 0.540365 897.787 0.78125C898.021 1.02214 898.139 1.32487 898.139 1.68945C898.139 2.04753 898.021 2.34701 897.787 2.58789C897.553 2.82227 897.221 2.93945 896.791 2.93945C896.361 2.93945 896.029 2.82227 895.795 2.58789C895.567 2.34701 895.453 2.04753 895.453 1.68945ZM904.906 13.3008C905.499 13.3008 905.99 13.1283 906.381 12.7832C906.771 12.4382 906.98 12.0117 907.006 11.5039H909.242C909.216 12.1615 909.011 12.7767 908.627 13.3496C908.243 13.916 907.722 14.3652 907.064 14.6973C906.407 15.0293 905.697 15.1953 904.936 15.1953C903.458 15.1953 902.286 14.7168 901.42 13.7598C900.554 12.8027 900.121 11.4811 900.121 9.79492V9.55078C900.121 7.94271 900.551 6.6569 901.41 5.69336C902.27 4.72331 903.441 4.23828 904.926 4.23828C906.182 4.23828 907.204 4.60612 907.992 5.3418C908.786 6.07096 909.203 7.03125 909.242 8.22266H907.006C906.98 7.61719 906.771 7.11914 906.381 6.72852C905.997 6.33789 905.505 6.14258 904.906 6.14258C904.138 6.14258 903.546 6.42253 903.129 6.98242C902.712 7.53581 902.501 8.37891 902.494 9.51172V9.89258C902.494 11.0384 902.699 11.8945 903.109 12.4609C903.526 13.0208 904.125 13.3008 904.906 13.3008ZM915.688 15.1953C914.184 15.1953 912.963 14.7233 912.025 13.7793C911.094 12.8288 910.629 11.5658 910.629 9.99023V9.69727C910.629 8.64258 910.831 7.70182 911.234 6.875C911.645 6.04167 912.217 5.39388 912.953 4.93164C913.689 4.4694 914.509 4.23828 915.414 4.23828C916.853 4.23828 917.963 4.69727 918.744 5.61523C919.532 6.5332 919.926 7.83203 919.926 9.51172V10.4688H913.021C913.093 11.3411 913.383 12.0312 913.891 12.5391C914.405 13.0469 915.049 13.3008 915.824 13.3008C916.911 13.3008 917.797 12.8613 918.48 11.9824L919.76 13.2031C919.337 13.8346 918.77 14.3262 918.061 14.6777C917.357 15.0228 916.566 15.1953 915.688 15.1953ZM915.404 6.14258C914.753 6.14258 914.226 6.37044 913.822 6.82617C913.425 7.2819 913.171 7.91667 913.061 8.73047H917.582V8.55469C917.53 7.76042 917.318 7.16146 916.947 6.75781C916.576 6.34766 916.062 6.14258 915.404 6.14258Z" fill="#313131"/>
<path d="M471.32 232.361C471.32 233.631 471.104 234.574 470.67 235.191C470.236 235.809 469.559 236.117 468.637 236.117C467.727 236.117 467.053 235.816 466.615 235.215C466.178 234.609 465.951 233.707 465.936 232.508V231.061C465.936 229.807 466.152 228.875 466.586 228.266C467.02 227.656 467.699 227.352 468.625 227.352C469.543 227.352 470.219 227.646 470.652 228.236C471.086 228.822 471.309 229.729 471.32 230.955V232.361ZM470.236 230.879C470.236 229.961 470.107 229.293 469.85 228.875C469.592 228.453 469.184 228.242 468.625 228.242C468.07 228.242 467.666 228.451 467.412 228.869C467.158 229.287 467.027 229.93 467.02 230.797V232.531C467.02 233.453 467.152 234.135 467.418 234.576C467.688 235.014 468.094 235.232 468.637 235.232C469.172 235.232 469.568 235.025 469.826 234.611C470.088 234.197 470.225 233.545 470.236 232.654V230.879Z" fill="#313131"/>
<path d="M459.73 194.723L460.164 190.469H464.535V191.471H461.084L460.826 193.797C461.244 193.551 461.719 193.428 462.25 193.428C463.027 193.428 463.645 193.686 464.102 194.201C464.559 194.713 464.787 195.406 464.787 196.281C464.787 197.16 464.549 197.854 464.072 198.361C463.6 198.865 462.938 199.117 462.086 199.117C461.332 199.117 460.717 198.908 460.24 198.49C459.764 198.072 459.492 197.494 459.426 196.756H460.451C460.518 197.244 460.691 197.613 460.973 197.863C461.254 198.109 461.625 198.232 462.086 198.232C462.59 198.232 462.984 198.061 463.27 197.717C463.559 197.373 463.703 196.898 463.703 196.293C463.703 195.723 463.547 195.266 463.234 194.922C462.926 194.574 462.514 194.4 461.998 194.4C461.525 194.4 461.154 194.504 460.885 194.711L460.598 194.945L459.73 194.723ZM471.32 195.361C471.32 196.631 471.104 197.574 470.67 198.191C470.236 198.809 469.559 199.117 468.637 199.117C467.727 199.117 467.053 198.816 466.615 198.215C466.178 197.609 465.951 196.707 465.936 195.508V194.061C465.936 192.807 466.152 191.875 466.586 191.266C467.02 190.656 467.699 190.352 468.625 190.352C469.543 190.352 470.219 190.646 470.652 191.236C471.086 191.822 471.309 192.729 471.32 193.955V195.361ZM470.236 193.879C470.236 192.961 470.107 192.293 469.85 191.875C469.592 191.453 469.184 191.242 468.625 191.242C468.07 191.242 467.666 191.451 467.412 191.869C467.158 192.287 467.027 192.93 467.02 193.797V195.531C467.02 196.453 467.152 197.135 467.418 197.576C467.688 198.014 468.094 198.232 468.637 198.232C469.172 198.232 469.568 198.025 469.826 197.611C470.088 197.197 470.225 196.545 470.236 195.654V193.879Z" fill="#313131"/>
<path d="M456.057 162H454.967V154.775L452.781 155.578V154.594L455.887 153.428H456.057V162ZM464.582 158.361C464.582 159.631 464.365 160.574 463.932 161.191C463.498 161.809 462.82 162.117 461.898 162.117C460.988 162.117 460.314 161.816 459.877 161.215C459.439 160.609 459.213 159.707 459.197 158.508V157.061C459.197 155.807 459.414 154.875 459.848 154.266C460.281 153.656 460.961 153.352 461.887 153.352C462.805 153.352 463.48 153.646 463.914 154.236C464.348 154.822 464.57 155.729 464.582 156.955V158.361ZM463.498 156.879C463.498 155.961 463.369 155.293 463.111 154.875C462.854 154.453 462.445 154.242 461.887 154.242C461.332 154.242 460.928 154.451 460.674 154.869C460.42 155.287 460.289 155.93 460.281 156.797V158.531C460.281 159.453 460.414 160.135 460.68 160.576C460.949 161.014 461.355 161.232 461.898 161.232C462.434 161.232 462.83 161.025 463.088 160.611C463.35 160.197 463.486 159.545 463.498 158.654V156.879ZM471.32 158.361C471.32 159.631 471.104 160.574 470.67 161.191C470.236 161.809 469.559 162.117 468.637 162.117C467.727 162.117 467.053 161.816 466.615 161.215C466.178 160.609 465.951 159.707 465.936 158.508V157.061C465.936 155.807 466.152 154.875 466.586 154.266C467.02 153.656 467.699 153.352 468.625 153.352C469.543 153.352 470.219 153.646 470.652 154.236C471.086 154.822 471.309 155.729 471.32 156.955V158.361ZM470.236 156.879C470.236 155.961 470.107 155.293 469.85 154.875C469.592 154.453 469.184 154.242 468.625 154.242C468.07 154.242 467.666 154.451 467.412 154.869C467.158 155.287 467.027 155.93 467.02 156.797V158.531C467.02 159.453 467.152 160.135 467.418 160.576C467.688 161.014 468.094 161.232 468.637 161.232C469.172 161.232 469.568 161.025 469.826 160.611C470.088 160.197 470.225 159.545 470.236 158.654V156.879Z" fill="#313131"/>
<path d="M456.057 125H454.967V117.775L452.781 118.578V117.594L455.887 116.428H456.057V125ZM459.73 120.723L460.164 116.469H464.535V117.471H461.084L460.826 119.797C461.244 119.551 461.719 119.428 462.25 119.428C463.027 119.428 463.645 119.686 464.102 120.201C464.559 120.713 464.787 121.406 464.787 122.281C464.787 123.16 464.549 123.854 464.072 124.361C463.6 124.865 462.938 125.117 462.086 125.117C461.332 125.117 460.717 124.908 460.24 124.49C459.764 124.072 459.492 123.494 459.426 122.756H460.451C460.518 123.244 460.691 123.613 460.973 123.863C461.254 124.109 461.625 124.232 462.086 124.232C462.59 124.232 462.984 124.061 463.27 123.717C463.559 123.373 463.703 122.898 463.703 122.293C463.703 121.723 463.547 121.266 463.234 120.922C462.926 120.574 462.514 120.4 461.998 120.4C461.525 120.4 461.154 120.504 460.885 120.711L460.598 120.945L459.73 120.723ZM471.32 121.361C471.32 122.631 471.104 123.574 470.67 124.191C470.236 124.809 469.559 125.117 468.637 125.117C467.727 125.117 467.053 124.816 466.615 124.215C466.178 123.609 465.951 122.707 465.936 121.508V120.061C465.936 118.807 466.152 117.875 466.586 117.266C467.02 116.656 467.699 116.352 468.625 116.352C469.543 116.352 470.219 116.646 470.652 117.236C471.086 117.822 471.309 118.729 471.32 119.955V121.361ZM470.236 119.879C470.236 118.961 470.107 118.293 469.85 117.875C469.592 117.453 469.184 117.242 468.625 117.242C468.07 117.242 467.666 117.451 467.412 117.869C467.158 118.287 467.027 118.93 467.02 119.797V121.531C467.02 122.453 467.152 123.135 467.418 123.576C467.688 124.014 468.094 124.232 468.637 124.232C469.172 124.232 469.568 124.025 469.826 123.611C470.088 123.197 470.225 122.545 470.236 121.654V119.879Z" fill="#313131"/>
<path d="M458.084 88H452.494V87.2207L455.447 83.9395C455.885 83.4434 456.186 83.041 456.35 82.7324C456.518 82.4199 456.602 82.0977 456.602 81.7656C456.602 81.3203 456.467 80.9551 456.197 80.6699C455.928 80.3848 455.568 80.2422 455.119 80.2422C454.58 80.2422 454.16 80.3965 453.859 80.7051C453.562 81.0098 453.414 81.4355 453.414 81.9824H452.33C452.33 81.1973 452.582 80.5625 453.086 80.0781C453.594 79.5938 454.271 79.3516 455.119 79.3516C455.912 79.3516 456.539 79.5605 457 79.9785C457.461 80.3926 457.691 80.9453 457.691 81.6367C457.691 82.4766 457.156 83.4766 456.086 84.6367L453.801 87.1152H458.084V88ZM464.582 84.3613C464.582 85.6309 464.365 86.5742 463.932 87.1914C463.498 87.8086 462.82 88.1172 461.898 88.1172C460.988 88.1172 460.314 87.8164 459.877 87.2148C459.439 86.6094 459.213 85.707 459.197 84.5078V83.0605C459.197 81.8066 459.414 80.875 459.848 80.2656C460.281 79.6562 460.961 79.3516 461.887 79.3516C462.805 79.3516 463.48 79.6465 463.914 80.2363C464.348 80.8223 464.57 81.7285 464.582 82.9551V84.3613ZM463.498 82.8789C463.498 81.9609 463.369 81.293 463.111 80.875C462.854 80.4531 462.445 80.2422 461.887 80.2422C461.332 80.2422 460.928 80.4512 460.674 80.8691C460.42 81.2871 460.289 81.9297 460.281 82.7969V84.5312C460.281 85.4531 460.414 86.1348 460.68 86.5762C460.949 87.0137 461.355 87.2324 461.898 87.2324C462.434 87.2324 462.83 87.0254 463.088 86.6113C463.35 86.1973 463.486 85.5449 463.498 84.6543V82.8789ZM471.32 84.3613C471.32 85.6309 471.104 86.5742 470.67 87.1914C470.236 87.8086 469.559 88.1172 468.637 88.1172C467.727 88.1172 467.053 87.8164 466.615 87.2148C466.178 86.6094 465.951 85.707 465.936 84.5078V83.0605C465.936 81.8066 466.152 80.875 466.586 80.2656C467.02 79.6562 467.699 79.3516 468.625 79.3516C469.543 79.3516 470.219 79.6465 470.652 80.2363C471.086 80.8223 471.309 81.7285 471.32 82.9551V84.3613ZM470.236 82.8789C470.236 81.9609 470.107 81.293 469.85 80.875C469.592 80.4531 469.184 80.2422 468.625 80.2422C468.07 80.2422 467.666 80.4512 467.412 80.8691C467.158 81.2871 467.027 81.9297 467.02 82.7969V84.5312C467.02 85.4531 467.152 86.1348 467.418 86.5762C467.688 87.0137 468.094 87.2324 468.637 87.2324C469.172 87.2324 469.568 87.0254 469.826 86.6113C470.088 86.1973 470.225 85.5449 470.236 84.6543V82.8789Z" fill="#313131"/>
<path d="M458.084 51H452.494V50.2207L455.447 46.9395C455.885 46.4434 456.186 46.041 456.35 45.7324C456.518 45.4199 456.602 45.0977 456.602 44.7656C456.602 44.3203 456.467 43.9551 456.197 43.6699C455.928 43.3848 455.568 43.2422 455.119 43.2422C454.58 43.2422 454.16 43.3965 453.859 43.7051C453.562 44.0098 453.414 44.4355 453.414 44.9824H452.33C452.33 44.1973 452.582 43.5625 453.086 43.0781C453.594 42.5938 454.271 42.3516 455.119 42.3516C455.912 42.3516 456.539 42.5605 457 42.9785C457.461 43.3926 457.691 43.9453 457.691 44.6367C457.691 45.4766 457.156 46.4766 456.086 47.6367L453.801 50.1152H458.084V51ZM459.73 46.7227L460.164 42.4688H464.535V43.4707H461.084L460.826 45.7969C461.244 45.5508 461.719 45.4277 462.25 45.4277C463.027 45.4277 463.645 45.6855 464.102 46.2012C464.559 46.7129 464.787 47.4062 464.787 48.2812C464.787 49.1602 464.549 49.8535 464.072 50.3613C463.6 50.8652 462.938 51.1172 462.086 51.1172C461.332 51.1172 460.717 50.9082 460.24 50.4902C459.764 50.0723 459.492 49.4941 459.426 48.7559H460.451C460.518 49.2441 460.691 49.6133 460.973 49.8633C461.254 50.1094 461.625 50.2324 462.086 50.2324C462.59 50.2324 462.984 50.0605 463.27 49.7168C463.559 49.373 463.703 48.8984 463.703 48.293C463.703 47.7227 463.547 47.2656 463.234 46.9219C462.926 46.5742 462.514 46.4004 461.998 46.4004C461.525 46.4004 461.154 46.5039 460.885 46.7109L460.598 46.9453L459.73 46.7227ZM471.32 47.3613C471.32 48.6309 471.104 49.5742 470.67 50.1914C470.236 50.8086 469.559 51.1172 468.637 51.1172C467.727 51.1172 467.053 50.8164 466.615 50.2148C466.178 49.6094 465.951 48.707 465.936 47.5078V46.0605C465.936 44.8066 466.152 43.875 466.586 43.2656C467.02 42.6562 467.699 42.3516 468.625 42.3516C469.543 42.3516 470.219 42.6465 470.652 43.2363C471.086 43.8223 471.309 44.7285 471.32 45.9551V47.3613ZM470.236 45.8789C470.236 44.9609 470.107 44.293 469.85 43.875C469.592 43.4531 469.184 43.2422 468.625 43.2422C468.07 43.2422 467.666 43.4512 467.412 43.8691C467.158 44.2871 467.027 44.9297 467.02 45.7969V47.5312C467.02 48.4531 467.152 49.1348 467.418 49.5762C467.688 50.0137 468.094 50.2324 468.637 50.2324C469.172 50.2324 469.568 50.0254 469.826 49.6113C470.088 49.1973 470.225 48.5449 470.236 47.6543V45.8789Z" fill="#313131"/>
<line x1="481" y1="46.75" x2="977" y2="46.75" stroke="#52ABC2" stroke-width="0.5"/>
<line x1="481" y1="83.75" x2="977" y2="83.75" stroke="#52ABC2" stroke-width="0.5"/>
<line x1="481" y1="120.75" x2="977" y2="120.75" stroke="#52ABC2" stroke-width="0.5"/>
<line x1="481" y1="157.75" x2="977" y2="157.75" stroke="#52ABC2" stroke-width="0.5"/>
<line x1="481" y1="194.75" x2="977" y2="194.75" stroke="#52ABC2" stroke-width="0.5"/>
<line x1="481" y1="231.75" x2="977" y2="231.75" stroke="#52ABC2" stroke-width="0.5"/>
<path d="M749.32 232.361C749.32 233.631 749.104 234.574 748.67 235.191C748.236 235.809 747.559 236.117 746.637 236.117C745.727 236.117 745.053 235.816 744.615 235.215C744.178 234.609 743.951 233.707 743.936 232.508V231.061C743.936 229.807 744.152 228.875 744.586 228.266C745.02 227.656 745.699 227.352 746.625 227.352C747.543 227.352 748.219 227.646 748.652 228.236C749.086 228.822 749.309 229.729 749.32 230.955V232.361ZM748.236 230.879C748.236 229.961 748.107 229.293 747.85 228.875C747.592 228.453 747.184 228.242 746.625 228.242C746.07 228.242 745.666 228.451 745.412 228.869C745.158 229.287 745.027 229.93 745.02 230.797V232.531C745.02 233.453 745.152 234.135 745.418 234.576C745.688 235.014 746.094 235.232 746.637 235.232C747.172 235.232 747.568 235.025 747.826 234.611C748.088 234.197 748.225 233.545 748.236 232.654V230.879Z" fill="#313131"/>
<path d="M737.73 194.723L738.164 190.469H742.535V191.471H739.084L738.826 193.797C739.244 193.551 739.719 193.428 740.25 193.428C741.027 193.428 741.645 193.686 742.102 194.201C742.559 194.713 742.787 195.406 742.787 196.281C742.787 197.16 742.549 197.854 742.072 198.361C741.6 198.865 740.938 199.117 740.086 199.117C739.332 199.117 738.717 198.908 738.24 198.49C737.764 198.072 737.492 197.494 737.426 196.756H738.451C738.518 197.244 738.691 197.613 738.973 197.863C739.254 198.109 739.625 198.232 740.086 198.232C740.59 198.232 740.984 198.061 741.27 197.717C741.559 197.373 741.703 196.898 741.703 196.293C741.703 195.723 741.547 195.266 741.234 194.922C740.926 194.574 740.514 194.4 739.998 194.4C739.525 194.4 739.154 194.504 738.885 194.711L738.598 194.945L737.73 194.723ZM749.32 195.361C749.32 196.631 749.104 197.574 748.67 198.191C748.236 198.809 747.559 199.117 746.637 199.117C745.727 199.117 745.053 198.816 744.615 198.215C744.178 197.609 743.951 196.707 743.936 195.508V194.061C743.936 192.807 744.152 191.875 744.586 191.266C745.02 190.656 745.699 190.352 746.625 190.352C747.543 190.352 748.219 190.646 748.652 191.236C749.086 191.822 749.309 192.729 749.32 193.955V195.361ZM748.236 193.879C748.236 192.961 748.107 192.293 747.85 191.875C747.592 191.453 747.184 191.242 746.625 191.242C746.07 191.242 745.666 191.451 745.412 191.869C745.158 192.287 745.027 192.93 745.02 193.797V195.531C745.02 196.453 745.152 197.135 745.418 197.576C745.688 198.014 746.094 198.232 746.637 198.232C747.172 198.232 747.568 198.025 747.826 197.611C748.088 197.197 748.225 196.545 748.236 195.654V193.879Z" fill="#313131"/>
<path d="M734.057 162H732.967V154.775L730.781 155.578V154.594L733.887 153.428H734.057V162ZM742.582 158.361C742.582 159.631 742.365 160.574 741.932 161.191C741.498 161.809 740.82 162.117 739.898 162.117C738.988 162.117 738.314 161.816 737.877 161.215C737.439 160.609 737.213 159.707 737.197 158.508V157.061C737.197 155.807 737.414 154.875 737.848 154.266C738.281 153.656 738.961 153.352 739.887 153.352C740.805 153.352 741.48 153.646 741.914 154.236C742.348 154.822 742.57 155.729 742.582 156.955V158.361ZM741.498 156.879C741.498 155.961 741.369 155.293 741.111 154.875C740.854 154.453 740.445 154.242 739.887 154.242C739.332 154.242 738.928 154.451 738.674 154.869C738.42 155.287 738.289 155.93 738.281 156.797V158.531C738.281 159.453 738.414 160.135 738.68 160.576C738.949 161.014 739.355 161.232 739.898 161.232C740.434 161.232 740.83 161.025 741.088 160.611C741.35 160.197 741.486 159.545 741.498 158.654V156.879ZM749.32 158.361C749.32 159.631 749.104 160.574 748.67 161.191C748.236 161.809 747.559 162.117 746.637 162.117C745.727 162.117 745.053 161.816 744.615 161.215C744.178 160.609 743.951 159.707 743.936 158.508V157.061C743.936 155.807 744.152 154.875 744.586 154.266C745.02 153.656 745.699 153.352 746.625 153.352C747.543 153.352 748.219 153.646 748.652 154.236C749.086 154.822 749.309 155.729 749.32 156.955V158.361ZM748.236 156.879C748.236 155.961 748.107 155.293 747.85 154.875C747.592 154.453 747.184 154.242 746.625 154.242C746.07 154.242 745.666 154.451 745.412 154.869C745.158 155.287 745.027 155.93 745.02 156.797V158.531C745.02 159.453 745.152 160.135 745.418 160.576C745.688 161.014 746.094 161.232 746.637 161.232C747.172 161.232 747.568 161.025 747.826 160.611C748.088 160.197 748.225 159.545 748.236 158.654V156.879Z" fill="#313131"/>
<path d="M734.057 125H732.967V117.775L730.781 118.578V117.594L733.887 116.428H734.057V125ZM737.73 120.723L738.164 116.469H742.535V117.471H739.084L738.826 119.797C739.244 119.551 739.719 119.428 740.25 119.428C741.027 119.428 741.645 119.686 742.102 120.201C742.559 120.713 742.787 121.406 742.787 122.281C742.787 123.16 742.549 123.854 742.072 124.361C741.6 124.865 740.938 125.117 740.086 125.117C739.332 125.117 738.717 124.908 738.24 124.49C737.764 124.072 737.492 123.494 737.426 122.756H738.451C738.518 123.244 738.691 123.613 738.973 123.863C739.254 124.109 739.625 124.232 740.086 124.232C740.59 124.232 740.984 124.061 741.27 123.717C741.559 123.373 741.703 122.898 741.703 122.293C741.703 121.723 741.547 121.266 741.234 120.922C740.926 120.574 740.514 120.4 739.998 120.4C739.525 120.4 739.154 120.504 738.885 120.711L738.598 120.945L737.73 120.723ZM749.32 121.361C749.32 122.631 749.104 123.574 748.67 124.191C748.236 124.809 747.559 125.117 746.637 125.117C745.727 125.117 745.053 124.816 744.615 124.215C744.178 123.609 743.951 122.707 743.936 121.508V120.061C743.936 118.807 744.152 117.875 744.586 117.266C745.02 116.656 745.699 116.352 746.625 116.352C747.543 116.352 748.219 116.646 748.652 117.236C749.086 117.822 749.309 118.729 749.32 119.955V121.361ZM748.236 119.879C748.236 118.961 748.107 118.293 747.85 117.875C747.592 117.453 747.184 117.242 746.625 117.242C746.07 117.242 745.666 117.451 745.412 117.869C745.158 118.287 745.027 118.93 745.02 119.797V121.531C745.02 122.453 745.152 123.135 745.418 123.576C745.688 124.014 746.094 124.232 746.637 124.232C747.172 124.232 747.568 124.025 747.826 123.611C748.088 123.197 748.225 122.545 748.236 121.654V119.879Z" fill="#313131"/>
<path d="M736.084 88H730.494V87.2207L733.447 83.9395C733.885 83.4434 734.186 83.041 734.35 82.7324C734.518 82.4199 734.602 82.0977 734.602 81.7656C734.602 81.3203 734.467 80.9551 734.197 80.6699C733.928 80.3848 733.568 80.2422 733.119 80.2422C732.58 80.2422 732.16 80.3965 731.859 80.7051C731.562 81.0098 731.414 81.4355 731.414 81.9824H730.33C730.33 81.1973 730.582 80.5625 731.086 80.0781C731.594 79.5938 732.271 79.3516 733.119 79.3516C733.912 79.3516 734.539 79.5605 735 79.9785C735.461 80.3926 735.691 80.9453 735.691 81.6367C735.691 82.4766 735.156 83.4766 734.086 84.6367L731.801 87.1152H736.084V88ZM742.582 84.3613C742.582 85.6309 742.365 86.5742 741.932 87.1914C741.498 87.8086 740.82 88.1172 739.898 88.1172C738.988 88.1172 738.314 87.8164 737.877 87.2148C737.439 86.6094 737.213 85.707 737.197 84.5078V83.0605C737.197 81.8066 737.414 80.875 737.848 80.2656C738.281 79.6562 738.961 79.3516 739.887 79.3516C740.805 79.3516 741.48 79.6465 741.914 80.2363C742.348 80.8223 742.57 81.7285 742.582 82.9551V84.3613ZM741.498 82.8789C741.498 81.9609 741.369 81.293 741.111 80.875C740.854 80.4531 740.445 80.2422 739.887 80.2422C739.332 80.2422 738.928 80.4512 738.674 80.8691C738.42 81.2871 738.289 81.9297 738.281 82.7969V84.5312C738.281 85.4531 738.414 86.1348 738.68 86.5762C738.949 87.0137 739.355 87.2324 739.898 87.2324C740.434 87.2324 740.83 87.0254 741.088 86.6113C741.35 86.1973 741.486 85.5449 741.498 84.6543V82.8789ZM749.32 84.3613C749.32 85.6309 749.104 86.5742 748.67 87.1914C748.236 87.8086 747.559 88.1172 746.637 88.1172C745.727 88.1172 745.053 87.8164 744.615 87.2148C744.178 86.6094 743.951 85.707 743.936 84.5078V83.0605C743.936 81.8066 744.152 80.875 744.586 80.2656C745.02 79.6562 745.699 79.3516 746.625 79.3516C747.543 79.3516 748.219 79.6465 748.652 80.2363C749.086 80.8223 749.309 81.7285 749.32 82.9551V84.3613ZM748.236 82.8789C748.236 81.9609 748.107 81.293 747.85 80.875C747.592 80.4531 747.184 80.2422 746.625 80.2422C746.07 80.2422 745.666 80.4512 745.412 80.8691C745.158 81.2871 745.027 81.9297 745.02 82.7969V84.5312C745.02 85.4531 745.152 86.1348 745.418 86.5762C745.688 87.0137 746.094 87.2324 746.637 87.2324C747.172 87.2324 747.568 87.0254 747.826 86.6113C748.088 86.1973 748.225 85.5449 748.236 84.6543V82.8789Z" fill="#313131"/>
<rect x="506" y="69" width="30" height="163" fill="#52ABC2"/>
<rect x="793" y="54" width="30" height="178" fill="#52ABC2"/>
<rect x="555" y="121" width="30" height="111" fill="#BBD7E3"/>
<rect x="842" y="100" width="30" height="132" fill="#BBD7E3"/>
<rect x="891" y="165" width="30" height="67" fill="#91C3D5"/>
<rect x="604" y="158" width="30" height="74" fill="#91C3D5"/>
</svg>
