<svg width="17" height="19" viewBox="0 0 17 19" fill="none" xmlns="http://www.w3.org/2000/svg">
<path d="M7.50133 18.9607C5.3798 18.7267 3.22059 17.5659 1.91037 15.955C-0.195361 13.366 -0.587798 10.0095 0.870042 7.05721C2.02605 4.71617 4.39139 2.94688 6.93582 2.52L7.46342 2.43146V2.08428V1.73709H6.76875C5.81413 1.73709 5.72477 1.66584 5.72477 0.904839C5.72477 0.385896 5.73837 0.337804 5.93237 0.174621L6.13995 0H8.49333C10.7622 0 10.8537 0.00570036 11.0417 0.15011C11.2244 0.290909 11.2366 0.337652 11.2366 0.906017C11.2366 1.69248 11.1818 1.73725 10.2214 1.73725H9.53496V2.08444V2.43161L10.0626 2.52015C13.1166 3.03252 15.8001 5.42658 16.6703 8.41508C18.0191 13.0469 15.0994 17.8023 10.2817 18.8204C9.49729 18.9861 8.28608 19.0474 7.50133 18.9608V18.9607ZM9.29743 17.8014C10.1725 17.7077 11.3508 17.3379 12.095 16.9237C13.7712 15.9906 15.0754 14.3277 15.5755 12.4859C15.7466 11.8554 15.772 11.6221 15.7718 10.6763C15.7715 9.79894 15.7417 9.48306 15.6158 9.03021C15.2518 7.72019 14.7068 6.74784 13.8295 5.84286C12.7994 4.78035 11.7566 4.15836 10.3794 3.78501C9.72487 3.60754 9.52263 3.58618 8.49922 3.58618C7.47583 3.58618 7.27357 3.60765 6.61901 3.78501C5.27827 4.1485 4.20865 4.77591 3.24255 5.76558C2.5968 6.42711 2.33184 6.78648 1.97013 7.49151C0.200669 10.9404 1.52994 15.0743 5.02625 16.9956C5.61502 17.3192 6.8841 17.7165 7.57455 17.7934C8.41258 17.8867 8.49605 17.8873 9.29747 17.8011L9.29743 17.8014ZM8.15858 11.6914C7.77034 11.5316 7.75935 11.4437 7.75935 8.49589V5.7794L7.97561 5.56782C8.24009 5.30906 8.49477 5.29724 8.7725 5.53077L8.98008 5.70539L9.00164 7.99177C9.01329 9.24929 9.03582 10.2782 9.05117 10.2782C9.06671 10.2782 9.81897 10.0013 10.7231 9.66291C11.6271 9.32454 12.441 9.04767 12.5316 9.04767C12.8278 9.04767 13.0862 9.3147 13.0862 9.62077C13.0862 10.0641 13.2455 9.98111 10.2009 11.1248C8.36641 11.8139 8.42017 11.799 8.1586 11.6914L8.15858 11.6914ZM13.6651 3.81813C13.1646 3.41008 12.744 3.01939 12.7304 2.94996C12.6956 2.77249 12.9935 2.38857 13.1661 2.38857C13.3758 2.38857 15.1157 3.81731 15.1428 4.01183C15.1706 4.21045 14.8964 4.56003 14.7131 4.56003C14.6372 4.56003 14.1656 4.22618 13.6651 3.81813Z" fill="#313131"/>
</svg>
