<svg width="33" height="36" viewBox="0 0 33 36" fill="none" xmlns="http://www.w3.org/2000/svg">
<path d="M17.5645 33.3224L14.8558 30.6448L15.9512 29.5538L17.0466 28.4629L18.9596 30.3458L20.8726 32.2287L25.791 27.3762L30.7094 22.5236L31.8547 23.6543L33 24.785L27.312 30.3925C21.7474 35.8783 21.6093 36 20.9486 36C20.3023 36 20.1567 35.8848 17.5645 33.3224ZM1.95331 32.5853C1.25546 32.2851 0.401168 31.2875 0.185474 30.5209C-0.0676577 29.6211 -0.0589548 6.18056 0.194846 5.27819C0.434913 4.42466 1.43484 3.43768 2.29956 3.20072C2.67066 3.09903 4.10025 3.0154 5.47643 3.01489L7.97857 3.01394V4.60464V6.19534H5.60365H3.22874V18V29.8046H6.41296H9.59719L11.1169 31.3116L12.6365 32.8186L7.55094 32.812C3.73274 32.8071 2.33776 32.7506 1.95331 32.5853L1.95331 32.5853ZM22.3579 16.3225L22.4029 6.19535H19.9406H17.4782V4.60465V3.01395L19.9804 3.0149C21.3566 3.01542 22.7664 3.09366 23.1134 3.18878C23.9572 3.42011 24.7523 4.10682 25.1323 4.93262C25.4217 5.56154 25.444 6.23609 25.4474 14.487L25.4512 23.3648L23.882 24.9072L22.3129 26.4497L22.3579 16.3225L22.3579 16.3225ZM6.45184 22.7249C6.45184 22.0796 6.54552 21.9148 7.39052 21.0741C10.073 18.4052 13.7969 18.0286 16.9506 20.1073C18.4094 21.0688 19.005 21.8282 19.005 22.7265V23.4419H12.7284H6.45184V22.7249ZM11.5409 16.8914C10.999 16.6788 10.222 15.9525 9.91425 15.3711C9.58965 14.7578 9.61236 13.325 9.95808 12.6058C10.3314 11.8293 11.3851 11.0948 12.3254 10.9556C14.445 10.6418 16.3093 12.6532 15.789 14.6925C15.5304 15.7064 15.1821 16.1822 14.3434 16.6673C13.58 17.1089 12.3465 17.2075 11.5409 16.8914ZM9.67494 3.50867C9.67494 0.879398 9.68384 0.813206 10.0913 0.410995C10.4919 0.0156138 10.5939 0 12.7759 0C14.9942 0 15.0532 0.00951758 15.4554 0.431604C15.8496 0.845283 15.8689 0.97394 15.9208 3.52928L15.9748 6.19535H12.8249H9.67494V3.50867ZM13.797 4.22592C14.3069 3.77271 14.4603 3.20906 14.2472 2.57175C14.0067 1.85237 13.4992 1.50698 12.6826 1.50698C11.0961 1.50698 10.6029 3.65886 12.0117 4.43413C12.5543 4.73272 13.3283 4.64245 13.797 4.22592Z" fill="#F9F9F9"/>
</svg>
