<svg width="36" height="40" viewBox="0 0 36 40" fill="none" xmlns="http://www.w3.org/2000/svg">
<path d="M30.9033 2.34375C30.0497 2.34375 29.2496 2.57414 28.5595 2.97437V1.17188C28.5595 0.524687 28.0348 0 27.3876 0H8.63764C7.99037 0 7.46568 0.524687 7.46568 1.17188V2.98867C6.77014 2.57953 5.96084 2.34375 5.09717 2.34375C2.51248 2.34375 0.409668 4.44656 0.409668 7.03125C0.409668 9.00273 0.993887 10.9077 2.09912 12.5402C3.98068 15.3193 6.30092 16.0405 8.22084 16.8084C9.32787 19.5653 11.5665 21.7502 14.3591 22.7846L13.495 28.2812H13.3251C11.3866 28.2812 9.80951 29.8584 9.80951 31.7969V37.6562H8.63764C7.99045 37.6562 7.46576 38.1809 7.46576 38.8281C7.46576 39.4753 7.99045 40 8.63764 40H27.3876C28.0348 40 28.5595 39.4753 28.5595 38.8281C28.5595 38.1809 28.0348 37.6562 27.3876 37.6562H26.2158V31.7969C26.2158 29.8584 24.6387 28.2812 22.7001 28.2812H22.5303L21.6662 22.7847C24.4629 21.7487 26.704 19.5591 27.8094 16.7966C29.6231 16.0711 32.0005 15.3478 33.9014 12.5402C35.0066 10.9077 35.5908 9.00266 35.5908 7.03125C35.5908 4.44656 33.4879 2.34375 30.9033 2.34375ZM7.45701 13.9787C4.59967 12.8357 2.75342 10.1087 2.75342 7.03125C2.75342 5.73891 3.80482 4.6875 5.09717 4.6875C6.38951 4.6875 7.44092 5.73891 7.44092 7.03125C7.44092 7.11367 7.44959 7.19398 7.46576 7.27156V12.8906C7.46576 13.2673 7.486 13.6392 7.52475 14.0058L7.45701 13.9787ZM23.872 37.6562H12.1533V35.3125H23.872V37.6562ZM22.7001 30.625C23.3463 30.625 23.872 31.1507 23.872 31.7969V32.9688H12.1533V31.7969C12.1533 31.1507 12.679 30.625 13.3251 30.625C13.9609 30.625 21.2091 30.625 22.7001 30.625ZM15.8675 28.2812L16.6429 23.3487C17.0914 23.4071 17.5485 23.4375 18.0126 23.4375C18.4768 23.4375 18.9339 23.407 19.3823 23.3487L20.1578 28.2812H15.8675ZM26.2158 12.8906C26.2158 17.4138 22.5358 21.0938 18.0126 21.0938C13.4894 21.0938 9.80951 17.4138 9.80951 12.8906V7.03125H26.2158V12.8906ZM26.2158 4.6875H9.80951V2.34375H26.2158V4.6875ZM28.5433 13.9787L28.5017 13.9953C28.5397 13.6322 28.5594 13.2637 28.5594 12.8906V7.03125C28.5595 5.73891 29.6109 4.6875 30.9033 4.6875C32.1956 4.6875 33.247 5.73891 33.247 7.03125C33.247 10.1087 31.4008 12.8358 28.5433 13.9787Z" fill="#3A3A3A"/>
</svg>
