<svg width="36" height="40" viewBox="0 0 36 40" fill="none" xmlns="http://www.w3.org/2000/svg">
<path d="M34.4625 15.9752C34.1996 7.12163 26.9162 -1.52588e-05 18.0001 -1.52588e-05C9.08393 -1.52588e-05 1.80056 7.12163 1.53758 15.9752L0.353027 17.1597V25.1932L1.5295 26.3696V31.8431C1.5295 35.0434 4.13311 37.647 7.33342 37.647H8.79068C9.27632 39.0164 10.584 40 12.1177 40H14.4707C16.0054 40 17.3138 39.015 17.7987 37.6442C17.8659 37.6454 17.9333 37.647 18.0001 37.647C23.6815 37.647 28.4352 33.5987 29.5282 28.2353H32.605L35.6471 25.1932V17.1597L34.4625 15.9752ZM18.0001 2.35293C24.9829 2.35293 30.797 7.44932 31.9206 14.1176H29.5282C28.4352 8.75418 23.6815 4.70587 18.0001 4.70587C12.3187 4.70587 7.56495 8.75418 6.47193 14.1176H4.07962C5.20315 7.44932 11.0173 2.35293 18.0001 2.35293ZM27.114 14.1176C23.311 14.1063 20.6247 14.3379 18.41 11.1004L17.3345 9.52838L16.4103 11.1938C15.0636 13.6204 13.25 14.1176 10.9413 14.1176H8.88613C9.93358 10.0629 13.6226 7.05881 18.0001 7.05881C22.3776 7.05881 26.0666 10.0629 27.114 14.1176ZM6.23538 25.8823H4.36973L2.70597 24.2186V18.1343L4.36973 16.4706H6.23538V25.8823ZM3.88244 31.8431V28.2353H6.46966C6.91256 30.4294 7.97224 32.4434 9.54213 34.0611C9.21303 34.4127 8.95491 34.8311 8.79068 35.2941H7.33342C5.43052 35.2941 3.88244 33.746 3.88244 31.8431ZM14.4707 37.647H12.1177C11.469 37.647 10.9413 37.1194 10.9413 36.4706C10.9413 35.8219 11.469 35.2941 12.1177 35.2941H14.4707C15.1194 35.2941 15.6471 35.8219 15.6471 36.4706C15.6471 37.1194 15.1194 37.647 14.4707 37.647ZM27.4119 25.8823C27.4119 31.072 23.1897 35.2941 18.0001 35.2941C17.9326 35.2941 17.8646 35.2928 17.7967 35.2912C17.3103 33.9234 16.0033 32.9412 14.4707 32.9412C12.055 32.9465 12.0935 32.9291 11.7924 32.9568C9.74989 31.1665 8.58832 28.6165 8.58832 25.8823V16.4706H10.9413C13.0234 16.4706 15.5591 16.1273 17.5219 13.7384C20.1117 16.4524 23.2766 16.4706 26.1176 16.4706H27.4119V25.8823ZM33.2942 24.2186L31.6304 25.8823H29.7648V16.4706H31.6304L33.2942 18.1343V24.2186Z" fill="#3A3A3A"/>
</svg>
