<svg width="26" height="24" viewBox="0 0 26 24" fill="none" xmlns="http://www.w3.org/2000/svg">
<path d="M2.74331 23.9641C1.62537 23.7938 0.739738 23.1551 0.272153 22.1818C0.070681 21.7625 0.00141942 21.4503 2.71236e-05 20.9553C-0.00170602 20.2375 0.0773647 20.0227 0.889863 18.5463C1.33552 17.7365 2.47124 15.6526 2.69624 15.2319C2.81037 15.0185 2.95232 14.7566 3.01169 14.6499C3.20539 14.3017 3.34468 14.0456 3.72411 13.34C3.92965 12.9578 4.13882 12.5723 4.18894 12.4834C4.23909 12.3945 4.41813 12.0671 4.58687 11.7559C5.1475 10.7218 5.43833 10.1888 5.50439 10.0744C5.54032 10.0122 5.7013 9.71389 5.86211 9.41155C6.02292 9.10921 6.16505 8.8473 6.17795 8.82952C6.201 8.79773 6.3283 8.564 6.74146 7.79478C7.04367 7.23213 7.20489 6.93676 7.43862 6.51753C7.55264 6.31301 7.7321 5.98562 7.8374 5.78999C7.9427 5.59436 8.08243 5.33972 8.1479 5.22412C8.21338 5.10852 8.3433 4.86843 8.43662 4.69059C8.52994 4.51274 8.84803 3.92343 9.14348 3.381C9.43894 2.83858 9.76703 2.23472 9.87257 2.03909C10.1564 1.51288 10.2187 1.4117 10.3902 1.19837C10.8313 0.649699 11.4291 0.273183 12.1722 0.0761016C12.5529 -0.0248793 13.4043 -0.025476 13.8116 0.0749752C14.688 0.291064 15.4135 0.817679 15.8491 1.55408C15.9228 1.67857 16.1882 2.15876 16.4388 2.62115C16.6895 3.08355 16.9352 3.53462 16.9847 3.62355C17.0343 3.71247 17.191 4.00349 17.333 4.27025C17.475 4.53702 17.6019 4.76983 17.615 4.78762C17.6281 4.80542 17.7627 5.05277 17.914 5.33732C18.0654 5.62187 18.3179 6.08751 18.4751 6.37206C18.6324 6.65661 18.8333 7.02765 18.9217 7.19661C19.0101 7.36556 19.0936 7.51835 19.1072 7.53613C19.1209 7.55394 19.266 7.81583 19.4296 8.11816C19.7584 8.72556 20.2352 9.60245 20.4406 9.97745C20.5136 10.1108 20.7299 10.511 20.9213 10.8667C21.2555 11.488 21.4106 11.773 21.6429 12.1924C21.702 12.2991 21.8288 12.5319 21.9246 12.7098C22.0205 12.8876 22.2702 13.346 22.4796 13.7283C22.8692 14.4396 23.0097 14.6974 23.3171 15.2643C23.4135 15.4421 23.6074 15.7986 23.748 16.0565C23.8887 16.3144 24.0824 16.6709 24.1786 16.8487C24.2748 17.0266 24.4873 17.4194 24.6508 17.7218C24.8144 18.0241 24.9967 18.3588 25.056 18.4655C25.9355 20.0472 26.0316 20.3164 25.993 21.0913C25.9241 22.4768 24.9475 23.5752 23.4636 23.936C23.2485 23.9884 22.5826 23.9924 13.1228 23.9985C5.10776 24.0036 2.9562 23.9968 2.74331 23.9641V23.9641ZM23.0561 22.0889C23.3523 22.0276 23.5296 21.9339 23.7323 21.7314C23.9898 21.4742 24.0603 21.3079 24.0615 20.9553C24.0626 20.6316 24.0514 20.6035 23.5807 19.7427C23.3444 19.3105 22.5685 17.8906 22.388 17.5601C22.32 17.4356 22.1897 17.1955 22.0983 17.0265C22.007 16.8576 21.7458 16.3774 21.5179 15.9595C20.9156 14.855 20.8659 14.7631 20.5813 14.2295C20.4391 13.9628 20.3113 13.7299 20.2974 13.712C20.2835 13.6942 20.1314 13.4177 19.9593 13.0976C19.7872 12.7776 19.5863 12.4066 19.5128 12.2732C19.4394 12.1398 19.1148 11.5433 18.7915 10.9475C18.4683 10.3517 18.1479 9.76238 18.0796 9.63789C18.0113 9.5134 17.8729 9.25877 17.7721 9.07203C17.4436 8.46366 17.3745 8.33659 16.2327 6.24268C15.6121 5.10448 15.0182 4.01316 14.913 3.81754C14.1697 2.43599 14.085 2.30048 13.8529 2.12052C13.6665 1.97608 13.3924 1.88671 13.0809 1.86881C12.4827 1.83444 12.0345 2.08117 11.7402 2.60684C11.6065 2.84574 10.812 4.30605 10.5537 4.78759C10.4583 4.96543 10.3318 5.19825 10.2726 5.30496C10.098 5.61943 10.0026 5.7945 9.12782 7.40675C9.03132 7.5846 8.90425 7.81742 8.84543 7.92412C8.78662 8.03083 8.60442 8.3655 8.44055 8.66784C8.27668 8.97017 8.08309 9.32667 8.01036 9.46005C7.93762 9.59343 7.78411 9.87718 7.66922 10.0906C7.55433 10.304 7.41815 10.5538 7.36661 10.6456C7.31507 10.7374 7.14812 11.043 6.99563 11.3246C6.84313 11.6063 6.64712 11.9677 6.56003 12.1277C6.47295 12.2878 6.32674 12.557 6.23512 12.7259C6.1435 12.8949 6.0128 13.135 5.94467 13.2595C5.55163 13.9776 3.81401 17.1701 3.5335 17.6894C2.97654 18.7206 2.92484 18.8155 2.82926 18.9828C2.77848 19.0717 2.60321 19.3919 2.43982 19.6942C2.27642 19.9965 2.11138 20.2979 2.07307 20.3639C1.88195 20.6929 1.85919 21.0802 2.01186 21.4052C2.15821 21.7167 2.57813 22.032 2.9395 22.1017C3.01577 22.1164 7.52365 22.1298 12.957 22.1314C21.3342 22.1336 22.8694 22.1274 23.0561 22.0888V22.0889ZM12.7393 20.3568C12.5737 20.3295 12.289 20.1994 12.1206 20.0743C11.764 19.8091 11.5529 19.2348 11.6477 18.7874C11.8709 17.7337 13.1879 17.3418 13.9634 18.0982C14.4121 18.5359 14.4966 19.2362 14.1625 19.7483C13.9553 20.0659 13.6613 20.2632 13.2767 20.3427C13.0361 20.3925 12.9665 20.3943 12.7393 20.3568V20.3568ZM12.7534 16.7031C12.5308 16.6713 12.2305 16.5358 12.1643 16.4372C12.1238 16.3768 12.0821 16.0011 11.9802 14.777C11.9077 13.9068 11.8264 12.9547 11.7994 12.6613C11.7724 12.3678 11.7346 11.9386 11.7155 11.7074C11.6964 11.4762 11.6198 10.574 11.5453 9.70256C11.3883 7.86498 11.3878 7.66604 11.5395 7.34933C11.7971 6.81244 12.3501 6.48519 12.9998 6.48519C13.612 6.48519 14.1771 6.80639 14.4286 7.29713C14.6133 7.65766 14.614 7.6865 14.4811 9.25513C14.415 10.0348 14.3539 10.7672 14.3452 10.8828C14.3365 10.9984 14.2926 11.515 14.2475 12.0307C14.2024 12.5465 14.1426 13.2449 14.1144 13.5828C13.8784 16.4191 13.883 16.3766 13.7983 16.4648C13.6898 16.5776 13.4659 16.6717 13.2249 16.7057C13.0003 16.7374 12.9932 16.7374 12.7531 16.7029L12.7534 16.7031Z" fill="#E65B5B"/>
</svg>
