<svg width="18" height="21" viewBox="0 0 18 21" fill="none" xmlns="http://www.w3.org/2000/svg">
<path d="M4.09367 20.9247C3.41408 20.718 2.89087 20.2519 2.61911 19.611C2.51706 19.3703 2.36151 17.4124 2.02924 12.186C1.78104 8.28203 1.57645 4.95129 1.5746 4.78435L1.57107 4.48081H1.02075C0.377881 4.48081 0.106935 4.31138 0.0185695 3.85413C-0.0299186 3.60323 0.0069499 3.50802 0.244714 3.2704L0.528795 2.98647L2.89548 2.98653L5.26217 2.98659L5.23039 2.52825C5.2129 2.27616 5.24953 1.82433 5.31181 1.52418C5.40232 1.08787 5.50243 0.901028 5.81113 0.592272C6.03768 0.365693 6.3516 0.163265 6.57073 0.102466C7.05136 -0.0308953 10.9323 -0.0354348 11.4088 0.0968177C11.848 0.218724 12.398 0.691572 12.5649 1.09075C12.6374 1.26432 12.6911 1.73162 12.6911 2.18962V2.98648H15.0812H17.4712L17.7553 3.27041C17.993 3.50803 18.0299 3.60324 17.9814 3.85414C17.8931 4.31139 17.6221 4.48082 16.9793 4.48082H16.4289L16.4258 4.78436C16.424 4.9513 16.2201 8.28573 15.9726 12.1942L15.5225 19.3005L15.2514 19.8028C14.9471 20.3669 14.4162 20.7917 13.8522 20.9224C13.412 21.0245 4.42842 21.0265 4.09339 20.9245L4.09367 20.9247ZM13.851 19.2302C13.9841 19.0722 14.093 18.865 14.093 18.7698C14.093 18.6747 14.2822 15.5789 14.5135 11.8903C14.7447 8.20167 14.934 5.02557 14.934 4.83227V4.48081H9.00016H3.06637L3.06531 4.78435C3.06354 5.3028 3.90905 18.7116 3.9574 18.9313C3.98254 19.0454 4.0946 19.224 4.20646 19.3282C4.40506 19.5131 4.51808 19.5176 9.00947 19.5176H13.6091L13.851 19.2302ZM5.52615 17.7992L5.26559 17.5752L5.10798 13.2462C4.89013 7.26272 4.88197 6.47877 5.03558 6.29378C5.33646 5.93144 6.03912 5.96701 6.24693 6.3551C6.35571 6.55825 6.7615 17.1547 6.67387 17.5036C6.61569 17.7353 6.20145 18.0232 5.92631 18.0232C5.84954 18.0232 5.66946 17.9224 5.52615 17.7992ZM8.76655 17.9589C8.68946 17.9295 8.5528 17.8414 8.46285 17.7631C8.31053 17.6305 8.29932 17.2385 8.29932 12.0418C8.29932 6.81994 8.31003 6.4496 8.46661 6.25634C8.69952 5.96886 9.30081 5.96886 9.53372 6.25634C9.6903 6.4496 9.70101 6.81994 9.70101 12.0418C9.70101 17.2367 9.68974 17.6308 9.53748 17.768C9.34564 17.9408 8.96572 18.0349 8.76655 17.9589ZM11.686 17.9287C11.2495 17.7492 11.2482 17.7151 11.458 11.9551C11.571 8.8529 11.6961 6.46215 11.7508 6.35999C11.8644 6.14784 12.3502 5.95969 12.5771 6.03999C12.6656 6.0713 12.8116 6.16011 12.9015 6.23732C13.1112 6.4173 13.1101 7.19706 12.8915 13.1451C12.7394 17.2825 12.7177 17.5711 12.5467 17.739C12.3183 17.9631 11.9612 18.0418 11.686 17.9287H11.686ZM11.2896 2.41996C11.2896 1.44144 11.4147 1.49214 9.00016 1.49214C6.58565 1.49214 6.71075 1.44144 6.71075 2.41996V2.98648H9.00016H11.2896V2.41996Z" fill="#E65B5B"/>
</svg>
