<svg width="20" height="13" viewBox="0 0 20 13" fill="none" xmlns="http://www.w3.org/2000/svg">
<path d="M0.664209 12.9769C0.454092 12.9349 0.272681 12.8117 0.141081 12.6216L0.0233458 12.4515L0.0116724 11.1111L0 9.77074L0.36255 9.72351C1.13529 9.62285 1.70723 9.3392 2.25005 8.78741C2.71645 8.31329 2.94127 7.9161 3.11734 7.25514C3.22151 6.86409 3.21122 6.0633 3.0968 5.65621C2.85997 4.81366 2.34181 4.12899 1.60673 3.68728C1.25701 3.47714 0.700624 3.29494 0.316793 3.26488L0.00381306 3.24036V1.95533C0.00381306 0.556688 0.0116402 0.498192 0.230509 0.261102C0.288455 0.198332 0.406182 0.113905 0.492124 0.0734871C0.642846 0.00260453 0.980014 0 10.0044 0C18.9707 0 19.367 0.00300975 19.5171 0.0722616C19.7128 0.162568 19.9102 0.387073 19.9661 0.582899C19.9963 0.688749 20.0053 2.44213 19.9971 6.59187L19.9855 12.4514L19.8666 12.6234C19.8012 12.7181 19.6693 12.8401 19.5736 12.8947L19.3996 12.9939L10.1021 12.9995C4.9885 13.0025 0.741448 12.9924 0.664209 12.9769V12.9769ZM5.5901 11.7836V11.3868H6.00028H6.41046V11.7836V12.1804H12.8172H19.224L19.2141 6.49607L19.2042 0.811724L12.8074 0.801686L6.41048 0.791647V1.20842V1.62519H6.0003H5.59011V1.20823V0.791274L3.19739 0.801499L0.804658 0.811724V1.6608V2.50988L1.07729 2.58574C1.69152 2.75665 2.26766 3.09607 2.76223 3.57837C3.31049 4.11302 3.67993 4.75189 3.8775 5.507C3.9804 5.90026 4.01694 6.71153 3.95058 7.12941C3.81697 7.97071 3.41961 8.75646 2.81947 9.36607C2.33898 9.85414 1.75573 10.204 1.10363 10.3954L0.785125 10.4889V11.3347V12.1804H3.18762H5.59011L5.5901 11.7836ZM9.90948 10.2941C9.60979 10.0286 9.60926 10.0278 9.68301 9.94353C9.72368 9.89708 11.1585 8.19394 12.8714 6.15878C14.5844 4.12363 15.9955 2.4585 16.0073 2.4585C16.0657 2.4585 16.5991 2.95424 16.578 2.98893C16.5562 3.0248 10.3753 10.3774 10.2578 10.5073C10.2186 10.5506 10.1553 10.5119 9.90948 10.2941ZM14.7312 10.4793C14.1616 10.2941 13.744 9.80367 13.6325 9.18895C13.4427 8.14243 14.4118 7.15057 15.4442 7.33468C15.9853 7.43116 16.4184 7.76954 16.6578 8.28279C16.7716 8.52687 16.7819 8.58167 16.7791 8.92655C16.7755 9.35633 16.7191 9.54826 16.5012 9.87151C16.1304 10.4216 15.3636 10.685 14.7312 10.4793ZM15.5621 9.65654C15.849 9.50896 15.9937 9.26428 15.9939 8.92655C15.994 8.66866 15.9221 8.51026 15.7251 8.33457C15.544 8.17302 15.4387 8.13293 15.1956 8.13293C14.8879 8.13293 14.6362 8.29433 14.489 8.58599C14.3812 8.79952 14.4029 9.17742 14.534 9.37184C14.7712 9.72351 15.2008 9.84245 15.5621 9.65654ZM5.6078 9.7098C5.59741 9.68227 5.59355 9.13318 5.59927 8.4896L5.60963 7.31946L6.01005 7.30815L6.41046 7.29684V8.52835V9.75986H6.01859C5.73921 9.75986 5.62128 9.7455 5.6078 9.7098ZM5.5901 4.46241V3.25213H6.00028H6.41046V4.46241V5.67269H6.00028H5.5901V4.46241ZM10.0154 5.63644C9.24276 5.43622 8.69772 4.59691 8.83194 3.81399C8.98446 2.92433 9.76523 2.33441 10.6265 2.45807C11.9182 2.64353 12.4517 4.26201 11.5298 5.1984C11.2346 5.4983 10.8949 5.64649 10.4739 5.65907C10.2909 5.66454 10.0846 5.65436 10.0154 5.63644ZM10.6445 4.83026C10.7365 4.80232 10.8746 4.71117 10.9674 4.61702C11.5874 3.98813 10.8633 2.95674 10.0614 3.32671C9.52007 3.57649 9.45511 4.3732 9.94812 4.71635C10.178 4.87636 10.3824 4.9098 10.6445 4.83026Z" fill="#313131"/>
</svg>
