<svg width="10" height="15" viewBox="0 0 10 15" fill="none" xmlns="http://www.w3.org/2000/svg">
<path d="M4.51336 14.2708L4.48639 13.5415L3.7085 13.408C3.28066 13.3346 2.65838 13.1707 2.32566 13.0438C1.2739 12.6429 0.377041 11.6718 0.10853 10.6433C-0.0889023 9.887 -0.104577 9.90599 0.829913 9.76898C1.28402 9.70241 1.70382 9.648 1.76281 9.64809C1.82181 9.64817 1.90004 9.80803 1.9367 10.0033C2.06392 10.681 2.36265 11.1673 2.93009 11.6206C3.32213 11.9338 3.59065 12.0783 3.92913 12.1584C4.18373 12.2186 4.42388 12.2531 4.4628 12.235C4.50173 12.2169 4.53357 11.156 4.53357 9.87726V7.55237L3.85352 7.38737C2.89845 7.15564 1.94513 6.75468 1.42475 6.36585C0.562673 5.72171 0.145942 4.62708 0.354006 3.55332C0.63198 2.11873 1.81158 1.16353 3.70615 0.838845L4.48639 0.705133L4.51512 0.352566L4.54384 0H5.05766H5.57147V0.359693V0.719387L6.20841 0.815515C7.86871 1.06608 9.02139 1.89908 9.48545 3.18368C9.57136 3.42152 9.61891 3.64551 9.5911 3.68145C9.52561 3.76614 7.87387 3.94712 7.74538 3.88369C7.69151 3.85708 7.647 3.76101 7.64649 3.67017C7.64513 3.40616 7.22647 2.77229 6.88049 2.5101C6.70547 2.37747 6.40439 2.21635 6.21144 2.15206C5.52657 1.92388 5.56572 1.79712 5.5936 4.15297L5.61867 6.27076L6.61291 6.51124C7.74819 6.78585 8.16755 6.96589 8.81113 7.45498C9.59069 8.0474 10.0077 8.88288 9.99989 9.83669C9.98475 11.684 8.48382 13.131 6.27505 13.4274L5.57149 13.5219V14.2609V15H5.05592H4.54036L4.51336 14.2708ZM6.47115 12.0591C7.64579 11.6048 8.30812 10.4743 8.02893 9.39998C7.86355 8.76364 7.51051 8.43463 6.60427 8.07229C6.17993 7.90263 5.77395 7.76382 5.70212 7.76382C5.59383 7.76382 5.5715 8.14381 5.5715 9.98744V12.2111H5.82479C5.9641 12.2111 6.25496 12.1427 6.47115 12.0591ZM4.51154 3.98993L4.48633 1.99749L4.25043 2.02281C3.80607 2.07054 3.23005 2.32202 2.85155 2.63358C1.9966 3.33731 1.93412 4.54728 2.71509 5.27612C3.05131 5.58989 4.32867 6.14856 4.46353 6.04082C4.50382 6.00864 4.52538 5.08576 4.51152 3.98992L4.51154 3.98993Z" fill="#313131"/>
</svg>
