<svg width="19" height="14" viewBox="0 0 19 14" fill="none" xmlns="http://www.w3.org/2000/svg">
<path d="M1.25834 13.9458C0.801496 13.7951 0.398613 13.3858 0.195538 12.8659C-0.00861709 12.3433 0.0085956 12.8557 0.00105721 7.07624C-0.00263395 4.24633 0.00365429 1.84085 0.0150318 1.73072C0.103094 0.878314 0.711755 0.159467 1.45751 0.0271164C1.59735 0.00229715 3.78735 -0.00429433 9.62586 0.00252848C17.2159 0.0113957 17.6101 0.014463 17.7464 0.0656664C18.0517 0.180296 18.2819 0.350891 18.5008 0.62464C18.6709 0.837383 18.7249 0.929575 18.8178 1.16599C19.0124 1.66136 18.9995 1.24441 18.9999 7.01894C19.0004 12.089 18.9997 12.1705 18.952 12.4042C18.8029 13.1368 18.4202 13.6544 17.83 13.9214L17.6748 13.9916L9.5542 13.9976C1.60496 14.0035 1.42992 14.0024 1.25834 13.9458V13.9458ZM17.5482 13.2533C17.9729 13.1416 18.3335 12.6674 18.4038 12.1281C18.4179 12.0202 18.4269 10.1551 18.427 7.33526L18.4272 2.719L18.3734 2.73412C18.3439 2.74245 16.9709 3.55498 15.3223 4.53977C9.17225 8.21346 9.83471 7.84016 9.47065 7.83717C9.1498 7.83452 9.26954 7.89888 6.52097 6.25174C5.50948 5.64558 4.25736 4.89547 3.73848 4.58483C3.2196 4.27419 2.30066 3.72394 1.69639 3.36206L0.597723 2.7041L0.591491 7.37281C0.587163 10.6157 0.593104 12.0893 0.610946 12.1981C0.692672 12.6963 1.0249 13.1205 1.43003 13.244C1.59827 13.2952 17.3542 13.3044 17.5483 13.2533H17.5482ZM9.83686 6.98998C9.95726 6.92604 10.8081 6.42494 11.7277 5.87644C12.6472 5.32794 13.8133 4.63244 14.3191 4.3309C14.8248 4.02936 15.69 3.51326 16.2417 3.18401C16.7935 2.85477 17.5028 2.43218 17.8181 2.24493C18.1334 2.05769 18.396 1.90001 18.4018 1.89453C18.4076 1.88906 18.3883 1.79091 18.3589 1.67643C18.2645 1.30818 18.0571 1.02811 17.7411 0.842093L17.6031 0.760889L9.56615 0.752112C2.13727 0.743993 1.51781 0.7471 1.37919 0.79318C1.20317 0.851693 0.992062 1.01525 0.867077 1.18994C0.75976 1.33994 0.640019 1.62902 0.620109 1.78617L0.605567 1.90096L1.01959 2.1465C1.39086 2.36667 2.01273 2.7391 4.49078 4.22531C8.17752 6.43642 8.89364 6.86262 9.11235 6.97586C9.4416 7.14633 9.53893 7.14822 9.83686 6.98999V6.98998Z" fill="black"/>
</svg>
