<svg width="375" height="360" viewBox="0 0 375 360" fill="none" xmlns="http://www.w3.org/2000/svg">
<path d="M270 79C270 122.63 234.63 158 191 158C147.37 158 112 122.63 112 79C112 35.3695 147.37 0 191 0C234.63 0 270 35.3695 270 79ZM117.681 79C117.681 119.493 150.507 152.319 191 152.319C231.493 152.319 264.319 119.493 264.319 79C264.319 38.5069 231.493 5.68077 191 5.68077C150.507 5.68077 117.681 38.5069 117.681 79Z" fill="#3CB043"/>
<path d="M140.34 222.845C140.34 221.932 140.018 221.233 139.374 220.75C138.729 220.256 137.569 219.74 135.893 219.203C134.217 218.655 132.891 218.118 131.913 217.592C129.249 216.152 127.917 214.213 127.917 211.775C127.917 210.507 128.271 209.379 128.98 208.391C129.7 207.392 130.726 206.613 132.058 206.055C133.401 205.496 134.905 205.217 136.57 205.217C138.246 205.217 139.739 205.523 141.049 206.135C142.36 206.737 143.375 207.591 144.095 208.697C144.825 209.804 145.19 211.061 145.19 212.468H140.356C140.356 211.394 140.018 210.561 139.341 209.97C138.665 209.369 137.714 209.068 136.489 209.068C135.308 209.068 134.389 209.32 133.734 209.825C133.079 210.319 132.751 210.975 132.751 211.791C132.751 212.554 133.132 213.193 133.895 213.708C134.668 214.224 135.802 214.708 137.295 215.159C140.045 215.986 142.048 217.012 143.305 218.236C144.562 219.461 145.19 220.986 145.19 222.812C145.19 224.843 144.422 226.438 142.886 227.598C141.35 228.748 139.282 229.322 136.683 229.322C134.878 229.322 133.234 228.995 131.752 228.339C130.27 227.673 129.136 226.766 128.352 225.616C127.579 224.467 127.192 223.135 127.192 221.62H132.042C132.042 224.209 133.589 225.503 136.683 225.503C137.832 225.503 138.729 225.272 139.374 224.811C140.018 224.338 140.34 223.683 140.34 222.845ZM152.715 213.467C153.951 211.984 155.503 211.243 157.372 211.243C161.153 211.243 163.071 213.44 163.125 217.833V229H158.468V217.962C158.468 216.963 158.253 216.228 157.823 215.755C157.394 215.271 156.679 215.03 155.68 215.03C154.316 215.03 153.328 215.556 152.715 216.609V229H148.059V204.25H152.715V213.467ZM171.552 229H166.879V211.565H171.552V229ZM166.605 207.054C166.605 206.355 166.836 205.781 167.298 205.33C167.771 204.878 168.41 204.653 169.215 204.653C170.01 204.653 170.644 204.878 171.117 205.33C171.589 205.781 171.826 206.355 171.826 207.054C171.826 207.763 171.584 208.343 171.101 208.794C170.628 209.245 170 209.471 169.215 209.471C168.431 209.471 167.797 209.245 167.314 208.794C166.841 208.343 166.605 207.763 166.605 207.054ZM191.097 220.444C191.097 223.129 190.485 225.283 189.26 226.905C188.046 228.517 186.403 229.322 184.33 229.322C182.568 229.322 181.145 228.71 180.06 227.485V235.703H175.403V211.565H179.721L179.882 213.273C181.01 211.92 182.482 211.243 184.297 211.243C186.446 211.243 188.116 212.038 189.309 213.628C190.501 215.218 191.097 217.409 191.097 220.202V220.444ZM186.44 220.105C186.44 218.483 186.15 217.232 185.57 216.351C185.001 215.47 184.168 215.03 183.073 215.03C181.612 215.03 180.607 215.588 180.06 216.706V223.844C180.629 224.993 181.644 225.568 183.105 225.568C185.329 225.568 186.44 223.747 186.44 220.105ZM209.692 220.444C209.692 223.129 209.08 225.283 207.855 226.905C206.641 228.517 204.998 229.322 202.924 229.322C201.163 229.322 199.739 228.71 198.654 227.485V235.703H193.998V211.565H198.316L198.477 213.273C199.605 211.92 201.077 211.243 202.892 211.243C205.041 211.243 206.711 212.038 207.903 213.628C209.096 215.218 209.692 217.409 209.692 220.202V220.444ZM205.035 220.105C205.035 218.483 204.745 217.232 204.165 216.351C203.596 215.47 202.763 215.03 201.667 215.03C200.207 215.03 199.202 215.588 198.654 216.706V223.844C199.224 224.993 200.239 225.568 201.7 225.568C203.923 225.568 205.035 223.747 205.035 220.105ZM217.507 229H212.834V211.565H217.507V229ZM212.56 207.054C212.56 206.355 212.791 205.781 213.253 205.33C213.726 204.878 214.365 204.653 215.17 204.653C215.965 204.653 216.599 204.878 217.072 205.33C217.544 205.781 217.781 206.355 217.781 207.054C217.781 207.763 217.539 208.343 217.056 208.794C216.583 209.245 215.955 209.471 215.17 209.471C214.386 209.471 213.752 209.245 213.269 208.794C212.796 208.343 212.56 207.763 212.56 207.054ZM225.644 211.565L225.789 213.58C227.035 212.022 228.706 211.243 230.8 211.243C232.648 211.243 234.023 211.786 234.925 212.871C235.828 213.956 236.29 215.578 236.311 217.737V229H231.654V217.85C231.654 216.861 231.439 216.147 231.01 215.707C230.58 215.255 229.866 215.03 228.867 215.03C227.556 215.03 226.573 215.588 225.918 216.706V229H221.261V211.565H225.644ZM239.179 220.154C239.179 217.479 239.813 215.325 241.081 213.692C242.359 212.06 244.078 211.243 246.237 211.243C248.149 211.243 249.637 211.898 250.7 213.209L250.894 211.565H255.115V228.42C255.115 229.945 254.766 231.272 254.068 232.4C253.38 233.528 252.408 234.387 251.151 234.978C249.895 235.569 248.423 235.864 246.736 235.864C245.458 235.864 244.212 235.606 242.998 235.091C241.784 234.586 240.866 233.931 240.243 233.125L242.305 230.289C243.465 231.589 244.873 232.239 246.527 232.239C247.762 232.239 248.724 231.906 249.411 231.24C250.099 230.584 250.442 229.65 250.442 228.436V227.501C249.368 228.715 247.956 229.322 246.205 229.322C244.11 229.322 242.413 228.506 241.113 226.873C239.824 225.229 239.179 223.054 239.179 220.347V220.154ZM243.836 220.492C243.836 222.071 244.153 223.312 244.787 224.214C245.42 225.106 246.291 225.552 247.397 225.552C248.815 225.552 249.83 225.02 250.442 223.957V216.625C249.819 215.562 248.815 215.03 247.429 215.03C246.312 215.03 245.431 215.486 244.787 216.399C244.153 217.312 243.836 218.677 243.836 220.492Z" fill="#3CB043"/>
<path d="M3.85986 299H0.537598V279.805H3.85986V299ZM10.623 284.735L10.7153 286.383C11.77 285.109 13.1543 284.472 14.8682 284.472C17.8389 284.472 19.3506 286.172 19.4033 289.574V299H16.1997V289.758C16.1997 288.853 16.002 288.185 15.6064 287.754C15.2197 287.315 14.5825 287.095 13.6948 287.095C12.4028 287.095 11.4404 287.68 10.8076 288.849V299H7.604V284.735H10.623ZM30.6753 295.124C30.6753 294.553 30.438 294.118 29.9634 293.819C29.4976 293.52 28.7197 293.256 27.6299 293.028C26.54 292.799 25.6304 292.509 24.9009 292.158C23.3013 291.384 22.5015 290.264 22.5015 288.796C22.5015 287.565 23.02 286.537 24.0571 285.711C25.0942 284.885 26.4126 284.472 28.0122 284.472C29.7173 284.472 31.0928 284.894 32.1387 285.737C33.1934 286.581 33.7207 287.675 33.7207 289.02H30.5171C30.5171 288.405 30.2886 287.895 29.8315 287.491C29.3745 287.078 28.7681 286.871 28.0122 286.871C27.3091 286.871 26.7334 287.034 26.2852 287.359C25.8457 287.684 25.626 288.119 25.626 288.664C25.626 289.156 25.8325 289.539 26.2456 289.811C26.6587 290.083 27.4937 290.36 28.7505 290.642C30.0073 290.914 30.9917 291.244 31.7036 291.63C32.4243 292.008 32.9561 292.465 33.2988 293.001C33.6504 293.538 33.8262 294.188 33.8262 294.953C33.8262 296.236 33.2944 297.277 32.231 298.077C31.1675 298.868 29.7744 299.264 28.0518 299.264C26.8828 299.264 25.8413 299.053 24.9272 298.631C24.0132 298.209 23.3013 297.629 22.7915 296.891C22.2817 296.152 22.0269 295.357 22.0269 294.504H25.1382C25.1821 295.26 25.4678 295.845 25.9951 296.258C26.5225 296.662 27.2212 296.864 28.0913 296.864C28.9351 296.864 29.5767 296.706 30.0161 296.39C30.4556 296.064 30.6753 295.643 30.6753 295.124ZM40.6421 281.268V284.735H43.1602V287.108H40.6421V295.071C40.6421 295.616 40.7476 296.012 40.9585 296.258C41.1782 296.495 41.5649 296.614 42.1187 296.614C42.4878 296.614 42.8613 296.57 43.2393 296.482V298.96C42.5098 299.163 41.8066 299.264 41.1299 299.264C38.6689 299.264 37.4385 297.906 37.4385 295.19V287.108H35.0918V284.735H37.4385V281.268H40.6421ZM53.0874 287.662C52.6655 287.592 52.2305 287.557 51.7822 287.557C50.3145 287.557 49.3257 288.119 48.8159 289.244V299H45.6123V284.735H48.6709L48.75 286.331C49.5234 285.091 50.5957 284.472 51.9668 284.472C52.4238 284.472 52.8018 284.533 53.1006 284.656L53.0874 287.662ZM63.7529 297.603C62.8125 298.71 61.4766 299.264 59.7451 299.264C58.1982 299.264 57.0249 298.811 56.2251 297.906C55.4341 297 55.0386 295.691 55.0386 293.977V284.735H58.2422V293.938C58.2422 295.748 58.9937 296.653 60.4966 296.653C62.0522 296.653 63.1025 296.095 63.6475 294.979V284.735H66.8511V299H63.832L63.7529 297.603ZM75.9741 296.706C76.7739 296.706 77.4375 296.473 77.9648 296.007C78.4922 295.542 78.7734 294.966 78.8086 294.28H81.8276C81.7925 295.168 81.5156 295.999 80.9971 296.772C80.4785 297.537 79.7754 298.143 78.8877 298.591C78 299.04 77.042 299.264 76.0137 299.264C74.0186 299.264 72.4365 298.618 71.2676 297.326C70.0986 296.034 69.5142 294.25 69.5142 291.973V291.644C69.5142 289.473 70.0942 287.737 71.2544 286.436C72.4146 285.126 73.9966 284.472 76.0005 284.472C77.6968 284.472 79.0767 284.968 80.1401 285.961C81.2124 286.946 81.7749 288.242 81.8276 289.851H78.8086C78.7734 289.033 78.4922 288.361 77.9648 287.833C77.4463 287.306 76.7827 287.042 75.9741 287.042C74.937 287.042 74.1372 287.42 73.5747 288.176C73.0122 288.923 72.7266 290.062 72.7178 291.591V292.105C72.7178 293.652 72.9946 294.808 73.5483 295.572C74.1108 296.328 74.9194 296.706 75.9741 296.706ZM88.2612 281.268V284.735H90.7793V287.108H88.2612V295.071C88.2612 295.616 88.3667 296.012 88.5776 296.258C88.7974 296.495 89.1841 296.614 89.7378 296.614C90.1069 296.614 90.4805 296.57 90.8584 296.482V298.96C90.1289 299.163 89.4258 299.264 88.749 299.264C86.2881 299.264 85.0576 297.906 85.0576 295.19V287.108H82.7109V284.735H85.0576V281.268H88.2612ZM96.646 299H93.4424V284.735H96.646V299ZM93.2446 281.031C93.2446 280.539 93.3984 280.13 93.7061 279.805C94.0225 279.479 94.4707 279.317 95.0508 279.317C95.6309 279.317 96.0791 279.479 96.3955 279.805C96.7119 280.13 96.8701 280.539 96.8701 281.031C96.8701 281.514 96.7119 281.918 96.3955 282.244C96.0791 282.56 95.6309 282.718 95.0508 282.718C94.4707 282.718 94.0225 282.56 93.7061 282.244C93.3984 281.918 93.2446 281.514 93.2446 281.031ZM99.5464 291.736C99.5464 290.338 99.8232 289.082 100.377 287.965C100.931 286.84 101.708 285.979 102.71 285.381C103.712 284.775 104.864 284.472 106.165 284.472C108.089 284.472 109.649 285.091 110.845 286.331C112.049 287.57 112.699 289.213 112.796 291.261L112.809 292.013C112.809 293.419 112.537 294.676 111.992 295.783C111.456 296.891 110.682 297.748 109.671 298.354C108.669 298.96 107.509 299.264 106.191 299.264C104.178 299.264 102.565 298.596 101.353 297.26C100.148 295.915 99.5464 294.126 99.5464 291.894V291.736ZM102.75 292.013C102.75 293.48 103.053 294.632 103.66 295.467C104.266 296.293 105.11 296.706 106.191 296.706C107.272 296.706 108.111 296.284 108.709 295.44C109.315 294.597 109.619 293.362 109.619 291.736C109.619 290.294 109.307 289.152 108.683 288.308C108.067 287.464 107.228 287.042 106.165 287.042C105.119 287.042 104.288 287.46 103.673 288.295C103.058 289.121 102.75 290.36 102.75 292.013ZM118.491 284.735L118.583 286.383C119.638 285.109 121.022 284.472 122.736 284.472C125.707 284.472 127.219 286.172 127.271 289.574V299H124.068V289.758C124.068 288.853 123.87 288.185 123.475 287.754C123.088 287.315 122.451 287.095 121.563 287.095C120.271 287.095 119.309 287.68 118.676 288.849V299H115.472V284.735H118.491ZM138.543 295.124C138.543 294.553 138.306 294.118 137.832 293.819C137.366 293.52 136.588 293.256 135.498 293.028C134.408 292.799 133.499 292.509 132.769 292.158C131.169 291.384 130.37 290.264 130.37 288.796C130.37 287.565 130.888 286.537 131.925 285.711C132.962 284.885 134.281 284.472 135.88 284.472C137.585 284.472 138.961 284.894 140.007 285.737C141.062 286.581 141.589 287.675 141.589 289.02H138.385C138.385 288.405 138.157 287.895 137.7 287.491C137.243 287.078 136.636 286.871 135.88 286.871C135.177 286.871 134.602 287.034 134.153 287.359C133.714 287.684 133.494 288.119 133.494 288.664C133.494 289.156 133.701 289.539 134.114 289.811C134.527 290.083 135.362 290.36 136.619 290.642C137.875 290.914 138.86 291.244 139.572 291.63C140.292 292.008 140.824 292.465 141.167 293.001C141.519 293.538 141.694 294.188 141.694 294.953C141.694 296.236 141.163 297.277 140.099 298.077C139.036 298.868 137.643 299.264 135.92 299.264C134.751 299.264 133.709 299.053 132.795 298.631C131.881 298.209 131.169 297.629 130.66 296.891C130.15 296.152 129.895 295.357 129.895 294.504H133.006C133.05 295.26 133.336 295.845 133.863 296.258C134.391 296.662 135.089 296.864 135.959 296.864C136.803 296.864 137.445 296.706 137.884 296.39C138.324 296.064 138.543 295.643 138.543 295.124ZM144.951 303.324L143.224 302.296C143.733 301.496 144.081 300.797 144.265 300.2C144.458 299.611 144.56 299.009 144.568 298.394V295.902H147.456L147.442 298.209C147.434 299.141 147.196 300.072 146.73 301.004C146.273 301.944 145.68 302.718 144.951 303.324ZM156.552 291.736C156.552 290.338 156.829 289.082 157.383 287.965C157.937 286.84 158.714 285.979 159.716 285.381C160.718 284.775 161.87 284.472 163.17 284.472C165.095 284.472 166.655 285.091 167.851 286.331C169.055 287.57 169.705 289.213 169.802 291.261L169.815 292.013C169.815 293.419 169.542 294.676 168.998 295.783C168.461 296.891 167.688 297.748 166.677 298.354C165.675 298.96 164.515 299.264 163.197 299.264C161.184 299.264 159.571 298.596 158.358 297.26C157.154 295.915 156.552 294.126 156.552 291.894V291.736ZM159.756 292.013C159.756 293.48 160.059 294.632 160.666 295.467C161.272 296.293 162.116 296.706 163.197 296.706C164.278 296.706 165.117 296.284 165.715 295.44C166.321 294.597 166.625 293.362 166.625 291.736C166.625 290.294 166.312 289.152 165.688 288.308C165.073 287.464 164.234 287.042 163.17 287.042C162.125 287.042 161.294 287.46 160.679 288.295C160.063 289.121 159.756 290.36 159.756 292.013ZM185.016 292.013C185.016 294.219 184.515 295.981 183.513 297.299C182.511 298.609 181.166 299.264 179.479 299.264C177.914 299.264 176.662 298.75 175.721 297.721V304.484H172.518V284.735H175.471L175.603 286.186C176.543 285.043 177.822 284.472 179.439 284.472C181.179 284.472 182.542 285.122 183.526 286.423C184.519 287.715 185.016 289.512 185.016 291.815V292.013ZM181.825 291.736C181.825 290.312 181.54 289.183 180.968 288.348C180.406 287.513 179.597 287.095 178.542 287.095C177.233 287.095 176.292 287.636 175.721 288.717V295.045C176.301 296.152 177.25 296.706 178.569 296.706C179.588 296.706 180.384 296.297 180.955 295.48C181.535 294.654 181.825 293.406 181.825 291.736ZM191.752 281.268V284.735H194.271V287.108H191.752V295.071C191.752 295.616 191.858 296.012 192.069 296.258C192.289 296.495 192.675 296.614 193.229 296.614C193.598 296.614 193.972 296.57 194.35 296.482V298.96C193.62 299.163 192.917 299.264 192.24 299.264C189.779 299.264 188.549 297.906 188.549 295.19V287.108H186.202V284.735H188.549V281.268H191.752ZM200.137 299H196.934V284.735H200.137V299ZM196.736 281.031C196.736 280.539 196.89 280.13 197.197 279.805C197.514 279.479 197.962 279.317 198.542 279.317C199.122 279.317 199.57 279.479 199.887 279.805C200.203 280.13 200.361 280.539 200.361 281.031C200.361 281.514 200.203 281.918 199.887 282.244C199.57 282.56 199.122 282.718 198.542 282.718C197.962 282.718 197.514 282.56 197.197 282.244C196.89 281.918 196.736 281.514 196.736 281.031ZM203.038 291.736C203.038 290.338 203.314 289.082 203.868 287.965C204.422 286.84 205.2 285.979 206.202 285.381C207.204 284.775 208.355 284.472 209.656 284.472C211.581 284.472 213.141 285.091 214.336 286.331C215.54 287.57 216.19 289.213 216.287 291.261L216.3 292.013C216.3 293.419 216.028 294.676 215.483 295.783C214.947 296.891 214.173 297.748 213.163 298.354C212.161 298.96 211 299.264 209.682 299.264C207.669 299.264 206.057 298.596 204.844 297.26C203.64 295.915 203.038 294.126 203.038 291.894V291.736ZM206.241 292.013C206.241 293.48 206.544 294.632 207.151 295.467C207.757 296.293 208.601 296.706 209.682 296.706C210.763 296.706 211.603 296.284 212.2 295.44C212.807 294.597 213.11 293.362 213.11 291.736C213.11 290.294 212.798 289.152 212.174 288.308C211.559 287.464 210.719 287.042 209.656 287.042C208.61 287.042 207.779 287.46 207.164 288.295C206.549 289.121 206.241 290.36 206.241 292.013ZM221.982 284.735L222.075 286.383C223.129 285.109 224.514 284.472 226.228 284.472C229.198 284.472 230.71 286.172 230.763 289.574V299H227.559V289.758C227.559 288.853 227.361 288.185 226.966 287.754C226.579 287.315 225.942 287.095 225.054 287.095C223.762 287.095 222.8 287.68 222.167 288.849V299H218.963V284.735H221.982ZM242.035 295.124C242.035 294.553 241.797 294.118 241.323 293.819C240.857 293.52 240.079 293.256 238.989 293.028C237.899 292.799 236.99 292.509 236.26 292.158C234.661 291.384 233.861 290.264 233.861 288.796C233.861 287.565 234.379 286.537 235.417 285.711C236.454 284.885 237.772 284.472 239.372 284.472C241.077 284.472 242.452 284.894 243.498 285.737C244.553 286.581 245.08 287.675 245.08 289.02H241.876C241.876 288.405 241.648 287.895 241.191 287.491C240.734 287.078 240.127 286.871 239.372 286.871C238.668 286.871 238.093 287.034 237.645 287.359C237.205 287.684 236.985 288.119 236.985 288.664C236.985 289.156 237.192 289.539 237.605 289.811C238.018 290.083 238.853 290.36 240.11 290.642C241.367 290.914 242.351 291.244 243.063 291.63C243.784 292.008 244.315 292.465 244.658 293.001C245.01 293.538 245.186 294.188 245.186 294.953C245.186 296.236 244.654 297.277 243.59 298.077C242.527 298.868 241.134 299.264 239.411 299.264C238.242 299.264 237.201 299.053 236.287 298.631C235.373 298.209 234.661 297.629 234.151 296.891C233.641 296.152 233.386 295.357 233.386 294.504H236.498C236.542 295.26 236.827 295.845 237.354 296.258C237.882 296.662 238.581 296.864 239.451 296.864C240.294 296.864 240.936 296.706 241.375 296.39C241.815 296.064 242.035 295.643 242.035 295.124ZM248.442 303.324L246.715 302.296C247.225 301.496 247.572 300.797 247.756 300.2C247.95 299.611 248.051 299.009 248.06 298.394V295.902H250.947L250.934 298.209C250.925 299.141 250.688 300.072 250.222 301.004C249.765 301.944 249.171 302.718 248.442 303.324ZM260.043 291.762C260.043 289.565 260.553 287.803 261.573 286.476C262.592 285.14 263.959 284.472 265.673 284.472C267.185 284.472 268.406 284.999 269.338 286.054V278.75H272.542V299H269.641L269.483 297.523C268.525 298.684 267.246 299.264 265.646 299.264C263.977 299.264 262.623 298.591 261.586 297.247C260.558 295.902 260.043 294.074 260.043 291.762ZM263.247 292.039C263.247 293.489 263.524 294.623 264.078 295.44C264.64 296.249 265.436 296.653 266.464 296.653C267.773 296.653 268.731 296.069 269.338 294.9V288.809C268.749 287.667 267.8 287.095 266.49 287.095C265.453 287.095 264.653 287.508 264.091 288.334C263.528 289.152 263.247 290.387 263.247 292.039ZM282.166 299.264C280.135 299.264 278.487 298.626 277.222 297.352C275.965 296.069 275.336 294.364 275.336 292.237V291.841C275.336 290.417 275.609 289.147 276.154 288.031C276.708 286.906 277.481 286.032 278.474 285.408C279.467 284.784 280.575 284.472 281.796 284.472C283.739 284.472 285.237 285.091 286.292 286.331C287.355 287.57 287.887 289.323 287.887 291.591V292.883H278.566C278.663 294.061 279.054 294.992 279.74 295.678C280.434 296.363 281.304 296.706 282.35 296.706C283.818 296.706 285.013 296.113 285.936 294.926L287.663 296.574C287.092 297.427 286.327 298.09 285.369 298.565C284.42 299.031 283.352 299.264 282.166 299.264ZM281.783 287.042C280.904 287.042 280.192 287.35 279.647 287.965C279.111 288.581 278.769 289.438 278.619 290.536H284.723V290.299C284.653 289.227 284.367 288.418 283.866 287.873C283.365 287.319 282.671 287.042 281.783 287.042ZM298.909 299C298.768 298.728 298.645 298.284 298.54 297.668C297.52 298.732 296.272 299.264 294.795 299.264C293.363 299.264 292.194 298.855 291.289 298.038C290.383 297.22 289.931 296.209 289.931 295.005C289.931 293.485 290.493 292.32 291.618 291.512C292.752 290.694 294.369 290.286 296.47 290.286H298.434V289.35C298.434 288.611 298.228 288.022 297.814 287.583C297.401 287.135 296.773 286.911 295.929 286.911C295.2 286.911 294.602 287.095 294.136 287.464C293.67 287.825 293.438 288.286 293.438 288.849H290.234C290.234 288.066 290.493 287.337 291.012 286.66C291.53 285.975 292.233 285.438 293.121 285.052C294.018 284.665 295.015 284.472 296.114 284.472C297.784 284.472 299.115 284.894 300.108 285.737C301.102 286.572 301.611 287.75 301.638 289.271V295.704C301.638 296.987 301.818 298.011 302.178 298.776V299H298.909ZM295.389 296.693C296.021 296.693 296.615 296.539 297.168 296.231C297.731 295.924 298.153 295.511 298.434 294.992V292.303H296.707C295.521 292.303 294.628 292.509 294.031 292.922C293.433 293.335 293.134 293.92 293.134 294.676C293.134 295.291 293.336 295.783 293.741 296.152C294.154 296.513 294.703 296.693 295.389 296.693ZM304.393 291.762C304.393 289.565 304.903 287.803 305.922 286.476C306.942 285.14 308.309 284.472 310.022 284.472C311.534 284.472 312.756 284.999 313.688 286.054V278.75H316.891V299H313.991L313.833 297.523C312.875 298.684 311.596 299.264 309.996 299.264C308.326 299.264 306.973 298.591 305.936 297.247C304.907 295.902 304.393 294.074 304.393 291.762ZM307.597 292.039C307.597 293.489 307.874 294.623 308.427 295.44C308.99 296.249 309.785 296.653 310.813 296.653C312.123 296.653 313.081 296.069 313.688 294.9V288.809C313.099 287.667 312.149 287.095 310.84 287.095C309.803 287.095 309.003 287.508 308.44 288.334C307.878 289.152 307.597 290.387 307.597 292.039ZM323.641 299H320.438V278.75H323.641V299ZM330.549 299H327.346V284.735H330.549V299ZM327.148 281.031C327.148 280.539 327.302 280.13 327.609 279.805C327.926 279.479 328.374 279.317 328.954 279.317C329.534 279.317 329.982 279.479 330.299 279.805C330.615 280.13 330.773 280.539 330.773 281.031C330.773 281.514 330.615 281.918 330.299 282.244C329.982 282.56 329.534 282.718 328.954 282.718C328.374 282.718 327.926 282.56 327.609 282.244C327.302 281.918 327.148 281.514 327.148 281.031ZM337.022 284.735L337.115 286.383C338.169 285.109 339.554 284.472 341.268 284.472C344.238 284.472 345.75 286.172 345.803 289.574V299H342.599V289.758C342.599 288.853 342.401 288.185 342.006 287.754C341.619 287.315 340.982 287.095 340.094 287.095C338.802 287.095 337.84 287.68 337.207 288.849V299H334.003V284.735H337.022ZM355.361 299.264C353.331 299.264 351.683 298.626 350.417 297.352C349.16 296.069 348.532 294.364 348.532 292.237V291.841C348.532 290.417 348.804 289.147 349.349 288.031C349.903 286.906 350.676 286.032 351.669 285.408C352.663 284.784 353.77 284.472 354.992 284.472C356.934 284.472 358.433 285.091 359.487 286.331C360.551 287.57 361.083 289.323 361.083 291.591V292.883H351.762C351.858 294.061 352.25 294.992 352.935 295.678C353.629 296.363 354.5 296.706 355.545 296.706C357.013 296.706 358.208 296.113 359.131 294.926L360.858 296.574C360.287 297.427 359.522 298.09 358.564 298.565C357.615 299.031 356.547 299.264 355.361 299.264ZM354.979 287.042C354.1 287.042 353.388 287.35 352.843 287.965C352.307 288.581 351.964 289.438 351.814 290.536H357.918V290.299C357.848 289.227 357.562 288.418 357.062 287.873C356.561 287.319 355.866 287.042 354.979 287.042ZM371.577 295.124C371.577 294.553 371.339 294.118 370.865 293.819C370.399 293.52 369.621 293.256 368.531 293.028C367.441 292.799 366.532 292.509 365.802 292.158C364.203 291.384 363.403 290.264 363.403 288.796C363.403 287.565 363.921 286.537 364.958 285.711C365.996 284.885 367.314 284.472 368.914 284.472C370.619 284.472 371.994 284.894 373.04 285.737C374.095 286.581 374.622 287.675 374.622 289.02H371.418C371.418 288.405 371.19 287.895 370.733 287.491C370.276 287.078 369.669 286.871 368.914 286.871C368.21 286.871 367.635 287.034 367.187 287.359C366.747 287.684 366.527 288.119 366.527 288.664C366.527 289.156 366.734 289.539 367.147 289.811C367.56 290.083 368.395 290.36 369.652 290.642C370.909 290.914 371.893 291.244 372.605 291.63C373.326 292.008 373.857 292.465 374.2 293.001C374.552 293.538 374.728 294.188 374.728 294.953C374.728 296.236 374.196 297.277 373.132 298.077C372.069 298.868 370.676 299.264 368.953 299.264C367.784 299.264 366.743 299.053 365.829 298.631C364.915 298.209 364.203 297.629 363.693 296.891C363.183 296.152 362.928 295.357 362.928 294.504H366.04C366.083 295.26 366.369 295.845 366.896 296.258C367.424 296.662 368.123 296.864 368.993 296.864C369.836 296.864 370.478 296.706 370.917 296.39C371.357 296.064 371.577 295.643 371.577 295.124ZM43.5176 359C43.3613 358.697 43.2246 358.204 43.1074 357.521C41.9746 358.702 40.5879 359.293 38.9473 359.293C37.3555 359.293 36.0566 358.839 35.0508 357.931C34.0449 357.022 33.542 355.899 33.542 354.562C33.542 352.872 34.167 351.578 35.417 350.68C36.6768 349.771 38.4736 349.317 40.8076 349.317H42.9902V348.277C42.9902 347.457 42.7607 346.803 42.3018 346.314C41.8428 345.816 41.1445 345.567 40.207 345.567C39.3965 345.567 38.7324 345.772 38.2148 346.183C37.6973 346.583 37.4385 347.096 37.4385 347.721H33.8789C33.8789 346.852 34.167 346.041 34.7432 345.289C35.3193 344.527 36.1006 343.932 37.0869 343.502C38.083 343.072 39.1914 342.857 40.4121 342.857C42.2676 342.857 43.7471 343.326 44.8506 344.264C45.9541 345.191 46.5205 346.5 46.5498 348.189V355.338C46.5498 356.764 46.75 357.901 47.1504 358.751V359H43.5176ZM39.6064 356.437C40.3096 356.437 40.9688 356.266 41.584 355.924C42.209 355.582 42.6777 355.123 42.9902 354.547V351.559H41.0713C39.7529 351.559 38.7617 351.788 38.0977 352.247C37.4336 352.706 37.1016 353.355 37.1016 354.195C37.1016 354.879 37.3262 355.426 37.7754 355.836C38.2344 356.236 38.8447 356.437 39.6064 356.437ZM53.5811 343.15L53.6836 344.981C54.8555 343.565 56.3936 342.857 58.2979 342.857C61.5986 342.857 63.2783 344.747 63.3369 348.526V359H59.7773V348.731C59.7773 347.726 59.5576 346.983 59.1182 346.505C58.6885 346.017 57.9805 345.772 56.9941 345.772C55.5586 345.772 54.4893 346.422 53.7861 347.721V359H50.2266V343.15H53.5811ZM66.3105 350.958C66.3105 348.517 66.877 346.559 68.0098 345.084C69.1426 343.6 70.6611 342.857 72.5654 342.857C74.2451 342.857 75.6025 343.443 76.6377 344.615V336.5H80.1973V359H76.9746L76.7988 357.359C75.7344 358.648 74.3135 359.293 72.5361 359.293C70.6807 359.293 69.1768 358.546 68.0244 357.052C66.8818 355.558 66.3105 353.526 66.3105 350.958ZM69.8701 351.266C69.8701 352.877 70.1777 354.137 70.793 355.045C71.418 355.943 72.3018 356.393 73.4443 356.393C74.8994 356.393 75.9639 355.743 76.6377 354.444V347.677C75.9834 346.407 74.9287 345.772 73.4736 345.772C72.3213 345.772 71.4326 346.231 70.8076 347.149C70.1826 348.058 69.8701 349.43 69.8701 351.266ZM94.8896 344.879C96.0518 343.531 97.5215 342.857 99.2988 342.857C102.678 342.857 104.392 344.786 104.44 348.644V359H100.881V348.775C100.881 347.682 100.642 346.91 100.163 346.461C99.6943 346.002 99.001 345.772 98.083 345.772C96.6572 345.772 95.5928 346.407 94.8896 347.677V359H91.3301V336.5H94.8896V344.879ZM107.385 350.929C107.385 349.376 107.692 347.979 108.308 346.739C108.923 345.489 109.787 344.532 110.9 343.868C112.014 343.194 113.293 342.857 114.738 342.857C116.877 342.857 118.61 343.546 119.938 344.923C121.276 346.3 121.999 348.126 122.106 350.401L122.121 351.236C122.121 352.799 121.818 354.195 121.213 355.426C120.617 356.656 119.758 357.608 118.635 358.282C117.521 358.956 116.232 359.293 114.768 359.293C112.531 359.293 110.739 358.551 109.392 357.066C108.054 355.572 107.385 353.585 107.385 351.104V350.929ZM110.944 351.236C110.944 352.867 111.281 354.146 111.955 355.074C112.629 355.992 113.566 356.451 114.768 356.451C115.969 356.451 116.901 355.982 117.565 355.045C118.239 354.107 118.576 352.735 118.576 350.929C118.576 349.327 118.229 348.058 117.536 347.12C116.853 346.183 115.92 345.714 114.738 345.714C113.576 345.714 112.653 346.178 111.97 347.105C111.286 348.023 110.944 349.4 110.944 351.236ZM139.055 354.093L141.574 343.15H145.046L140.725 359H137.795L134.396 348.116L131.057 359H128.127L123.791 343.15H127.263L129.826 353.976L133.078 343.15H135.759L139.055 354.093ZM159.357 339.298V343.15H162.155V345.787H159.357V354.635C159.357 355.24 159.475 355.68 159.709 355.953C159.953 356.217 160.383 356.349 160.998 356.349C161.408 356.349 161.823 356.3 162.243 356.202V358.956C161.433 359.181 160.651 359.293 159.899 359.293C157.165 359.293 155.798 357.784 155.798 354.767V345.787H153.19V343.15H155.798V339.298H159.357ZM163.781 350.929C163.781 349.376 164.089 347.979 164.704 346.739C165.319 345.489 166.184 344.532 167.297 343.868C168.41 343.194 169.689 342.857 171.135 342.857C173.273 342.857 175.007 343.546 176.335 344.923C177.673 346.3 178.396 348.126 178.503 350.401L178.518 351.236C178.518 352.799 178.215 354.195 177.609 355.426C177.014 356.656 176.154 357.608 175.031 358.282C173.918 358.956 172.629 359.293 171.164 359.293C168.928 359.293 167.136 358.551 165.788 357.066C164.45 355.572 163.781 353.585 163.781 351.104V350.929ZM167.341 351.236C167.341 352.867 167.678 354.146 168.352 355.074C169.025 355.992 169.963 356.451 171.164 356.451C172.365 356.451 173.298 355.982 173.962 355.045C174.636 354.107 174.973 352.735 174.973 350.929C174.973 349.327 174.626 348.058 173.933 347.12C173.249 346.183 172.316 345.714 171.135 345.714C169.973 345.714 169.05 346.178 168.366 347.105C167.683 348.023 167.341 349.4 167.341 351.236ZM193.459 339.298V343.15H196.257V345.787H193.459V354.635C193.459 355.24 193.576 355.68 193.811 355.953C194.055 356.217 194.484 356.349 195.1 356.349C195.51 356.349 195.925 356.3 196.345 356.202V358.956C195.534 359.181 194.753 359.293 194.001 359.293C191.267 359.293 189.899 357.784 189.899 354.767V345.787H187.292V343.15H189.899V339.298H193.459ZM207.287 346.402C206.818 346.324 206.335 346.285 205.837 346.285C204.206 346.285 203.107 346.91 202.541 348.16V359H198.981V343.15H202.38L202.468 344.923C203.327 343.546 204.519 342.857 206.042 342.857C206.55 342.857 206.97 342.926 207.302 343.062L207.287 346.402ZM218.566 359C218.41 358.697 218.273 358.204 218.156 357.521C217.023 358.702 215.637 359.293 213.996 359.293C212.404 359.293 211.105 358.839 210.1 357.931C209.094 357.022 208.591 355.899 208.591 354.562C208.591 352.872 209.216 351.578 210.466 350.68C211.726 349.771 213.522 349.317 215.856 349.317H218.039V348.277C218.039 347.457 217.81 346.803 217.351 346.314C216.892 345.816 216.193 345.567 215.256 345.567C214.445 345.567 213.781 345.772 213.264 346.183C212.746 346.583 212.487 347.096 212.487 347.721H208.928C208.928 346.852 209.216 346.041 209.792 345.289C210.368 344.527 211.149 343.932 212.136 343.502C213.132 343.072 214.24 342.857 215.461 342.857C217.316 342.857 218.796 343.326 219.899 344.264C221.003 345.191 221.569 346.5 221.599 348.189V355.338C221.599 356.764 221.799 357.901 222.199 358.751V359H218.566ZM214.655 356.437C215.358 356.437 216.018 356.266 216.633 355.924C217.258 355.582 217.727 355.123 218.039 354.547V351.559H216.12C214.802 351.559 213.811 351.788 213.146 352.247C212.482 352.706 212.15 353.355 212.15 354.195C212.15 354.879 212.375 355.426 212.824 355.836C213.283 356.236 213.894 356.437 214.655 356.437ZM231.838 356.451C232.727 356.451 233.464 356.192 234.05 355.675C234.636 355.157 234.948 354.518 234.987 353.756H238.342C238.303 354.742 237.995 355.665 237.419 356.524C236.843 357.374 236.062 358.048 235.075 358.546C234.089 359.044 233.024 359.293 231.882 359.293C229.665 359.293 227.907 358.575 226.608 357.14C225.31 355.704 224.66 353.722 224.66 351.192V350.826C224.66 348.414 225.305 346.485 226.594 345.04C227.883 343.585 229.641 342.857 231.867 342.857C233.752 342.857 235.285 343.409 236.467 344.513C237.658 345.606 238.283 347.047 238.342 348.834H234.987C234.948 347.926 234.636 347.179 234.05 346.593C233.474 346.007 232.736 345.714 231.838 345.714C230.686 345.714 229.797 346.134 229.172 346.974C228.547 347.804 228.229 349.068 228.22 350.768V351.339C228.22 353.058 228.527 354.342 229.143 355.191C229.768 356.031 230.666 356.451 231.838 356.451ZM246.179 352.203L244.597 353.829V359H241.037V336.5H244.597V349.479L245.71 348.087L250.09 343.15H254.367L248.479 349.757L254.997 359H250.881L246.179 352.203ZM263.508 350.929C263.508 349.376 263.815 347.979 264.431 346.739C265.046 345.489 265.91 344.532 267.023 343.868C268.137 343.194 269.416 342.857 270.861 342.857C273 342.857 274.733 343.546 276.062 344.923C277.399 346.3 278.122 348.126 278.229 350.401L278.244 351.236C278.244 352.799 277.941 354.195 277.336 355.426C276.74 356.656 275.881 357.608 274.758 358.282C273.645 358.956 272.355 359.293 270.891 359.293C268.654 359.293 266.862 358.551 265.515 357.066C264.177 355.572 263.508 353.585 263.508 351.104V350.929ZM267.067 351.236C267.067 352.867 267.404 354.146 268.078 355.074C268.752 355.992 269.689 356.451 270.891 356.451C272.092 356.451 273.024 355.982 273.688 355.045C274.362 354.107 274.699 352.735 274.699 350.929C274.699 349.327 274.353 348.058 273.659 347.12C272.976 346.183 272.043 345.714 270.861 345.714C269.699 345.714 268.776 346.178 268.093 347.105C267.409 348.023 267.067 349.4 267.067 351.236ZM289.553 346.402C289.084 346.324 288.601 346.285 288.103 346.285C286.472 346.285 285.373 346.91 284.807 348.16V359H281.247V343.15H284.646L284.733 344.923C285.593 343.546 286.784 342.857 288.308 342.857C288.815 342.857 289.235 342.926 289.567 343.062L289.553 346.402ZM290.842 350.958C290.842 348.517 291.408 346.559 292.541 345.084C293.674 343.6 295.192 342.857 297.097 342.857C298.776 342.857 300.134 343.443 301.169 344.615V336.5H304.729V359H301.506L301.33 357.359C300.266 358.648 298.845 359.293 297.067 359.293C295.212 359.293 293.708 358.546 292.556 357.052C291.413 355.558 290.842 353.526 290.842 350.958ZM294.401 351.266C294.401 352.877 294.709 354.137 295.324 355.045C295.949 355.943 296.833 356.393 297.976 356.393C299.431 356.393 300.495 355.743 301.169 354.444V347.677C300.515 346.407 299.46 345.772 298.005 345.772C296.853 345.772 295.964 346.231 295.339 347.149C294.714 348.058 294.401 349.43 294.401 351.266ZM315.422 359.293C313.166 359.293 311.335 358.585 309.929 357.169C308.532 355.743 307.834 353.849 307.834 351.485V351.046C307.834 349.464 308.137 348.053 308.742 346.812C309.357 345.562 310.217 344.591 311.32 343.897C312.424 343.204 313.654 342.857 315.012 342.857C317.17 342.857 318.835 343.546 320.007 344.923C321.188 346.3 321.779 348.248 321.779 350.768V352.203H311.423C311.53 353.512 311.965 354.547 312.727 355.309C313.498 356.07 314.465 356.451 315.627 356.451C317.258 356.451 318.586 355.792 319.611 354.474L321.53 356.305C320.896 357.252 320.046 357.989 318.981 358.517C317.927 359.034 316.74 359.293 315.422 359.293ZM314.997 345.714C314.021 345.714 313.229 346.056 312.624 346.739C312.028 347.423 311.647 348.375 311.481 349.596H318.264V349.332C318.186 348.141 317.868 347.242 317.312 346.637C316.755 346.021 315.983 345.714 314.997 345.714ZM332.854 346.402C332.385 346.324 331.901 346.285 331.403 346.285C329.772 346.285 328.674 346.91 328.107 348.16V359H324.548V343.15H327.946L328.034 344.923C328.894 343.546 330.085 342.857 331.608 342.857C332.116 342.857 332.536 342.926 332.868 343.062L332.854 346.402ZM343.986 354.693C343.986 354.059 343.723 353.575 343.195 353.243C342.678 352.911 341.813 352.618 340.603 352.364C339.392 352.11 338.381 351.788 337.57 351.397C335.793 350.538 334.904 349.293 334.904 347.662C334.904 346.295 335.48 345.152 336.633 344.234C337.785 343.316 339.25 342.857 341.027 342.857C342.922 342.857 344.45 343.326 345.612 344.264C346.784 345.201 347.37 346.417 347.37 347.911H343.811C343.811 347.228 343.557 346.661 343.049 346.212C342.541 345.753 341.867 345.523 341.027 345.523C340.246 345.523 339.606 345.704 339.108 346.065C338.62 346.427 338.376 346.91 338.376 347.516C338.376 348.062 338.605 348.487 339.064 348.79C339.523 349.093 340.451 349.4 341.848 349.713C343.244 350.016 344.338 350.382 345.129 350.812C345.93 351.231 346.521 351.739 346.901 352.335C347.292 352.931 347.487 353.653 347.487 354.503C347.487 355.929 346.896 357.086 345.715 357.975C344.533 358.854 342.985 359.293 341.071 359.293C339.772 359.293 338.615 359.059 337.6 358.59C336.584 358.121 335.793 357.477 335.227 356.656C334.66 355.836 334.377 354.952 334.377 354.005H337.834C337.883 354.845 338.2 355.494 338.786 355.953C339.372 356.402 340.148 356.627 341.115 356.627C342.053 356.627 342.766 356.451 343.254 356.1C343.742 355.738 343.986 355.27 343.986 354.693Z" fill="#3A3A3A"/>
<path d="M170.36 120.959C167.48 120.405 165.07 118.599 163.77 116.02C163.394 115.274 163.087 114.564 163.087 114.442C163.087 114.277 162.527 114.205 160.879 114.157C157.485 114.059 157.372 113.913 157.372 109.646V106.791H156.922C156.182 106.791 155.342 106.292 155.048 105.677C154.825 105.21 154.775 104.409 154.775 101.299C154.775 97.2116 154.877 96.6101 155.661 96.0645C156.178 95.7047 157.181 95.7047 157.699 96.0645C158.437 96.5779 158.585 97.2771 158.585 100.25V103.008H182.568H206.551L206.508 86.5396L206.465 70.0716L205.136 69.9856C204.047 69.9151 203.728 69.8259 203.37 69.491C202.795 68.9538 202.66 68.276 202.978 67.521C203.474 66.342 203.33 66.3586 212.609 66.412L220.916 66.4598L221.338 66.8898C221.582 67.1389 222.901 69.9964 224.473 73.6834C225.966 77.1834 227.345 80.4134 227.539 80.8613C227.868 81.6223 228.102 81.8151 231.123 83.8058C234.503 86.0333 235.105 86.5966 235.662 88.0542C235.992 88.9156 236.016 90.4621 235.994 108.997L235.989 113.009L235.483 113.512L234.977 114.015H232.004C229.068 114.015 229.029 114.019 228.929 114.401C228.679 115.351 227.449 117.442 226.691 118.209C224.774 120.144 222.84 120.96 220.145 120.968C218.227 120.975 217.174 120.709 215.578 119.817C213.807 118.827 212.107 116.754 211.562 114.918L211.345 114.187H195.983H180.622L180.394 114.994C180.269 115.437 179.793 116.356 179.336 117.034C177.667 119.513 175.274 120.848 172.265 120.978C171.455 121.014 170.598 121.005 170.36 120.959L170.36 120.959ZM174.096 116.869C176.019 115.995 177.116 114.26 177.142 112.053C177.162 110.415 176.628 109.227 175.372 108.105C174.347 107.19 173.273 106.791 171.832 106.791C170.233 106.791 169.224 107.206 168.093 108.328C166.845 109.567 166.475 110.577 166.586 112.445C166.677 113.958 166.972 114.641 167.998 115.706C169.644 117.417 171.932 117.853 174.096 116.869ZM222.333 116.912C223.411 116.452 224.774 114.995 225.148 113.904C225.508 112.855 225.503 111.204 225.137 110.133C224.742 108.98 223.223 107.471 222.063 107.079C220.984 106.715 219.322 106.71 218.265 107.068C217.139 107.45 215.703 108.792 215.205 109.928C214.658 111.178 214.685 112.994 215.269 114.262C216.502 116.936 219.578 118.09 222.334 116.913L222.333 116.912ZM163.168 109.5C163.33 109.003 163.682 108.191 163.95 107.694L164.439 106.791H162.81H161.182V108.597V110.403H162.028H162.874L163.168 109.5ZM211.408 109.672C211.515 109.27 211.86 108.457 212.174 107.866L212.745 106.791H195.988H179.231L179.802 107.866C180.116 108.457 180.461 109.27 180.568 109.672L180.763 110.403H195.988H211.213L211.408 109.672ZM232.353 108.597V106.791H229.927H227.501L228.003 107.694C228.279 108.191 228.637 109.004 228.798 109.5L229.09 110.403H230.721H232.353V108.597ZM232.353 96.308C232.353 91.708 232.292 89.4753 232.158 89.1834C232.037 88.9204 230.628 87.8753 228.462 86.4416L224.962 84.1247L224.406 82.8598C224.099 82.164 222.741 79.002 221.387 75.8331L218.926 70.0715L214.557 70.0256L210.188 69.9796V75.5722V81.1648H214.936H219.685L220.205 81.5995C220.863 82.1495 221.022 82.8342 220.68 83.6471C220.236 84.7031 219.846 84.7766 214.695 84.7766H210.188V93.8921V103.008H221.27H232.353L232.353 96.308ZM152.764 91.8316C151.812 91.4494 151.404 90.2353 151.905 89.2733C152.36 88.399 152.469 88.3884 161.03 88.3884H169.001L169.507 88.8911C170.38 89.7578 170.136 91.2458 169.029 91.8081C168.574 92.0394 153.337 92.0615 152.764 91.8316ZM148.528 84.1019C147.655 83.2352 147.899 81.7472 149.006 81.185C149.497 80.9355 172.029 80.9123 172.686 81.1606C173.863 81.6051 174.112 83.2557 173.134 84.1317L172.605 84.6046H160.82H149.034L148.528 84.1019ZM155.707 77.0526C154.872 76.547 154.775 76.0059 154.775 71.8462C154.775 66.0806 154.503 66.3344 160.598 66.4082L164.847 66.4597L165.352 67.0214C166.106 67.8598 166.003 68.9554 165.101 69.6807C164.783 69.9369 164.309 69.9784 161.658 69.9817L158.585 69.9854L158.584 72.6943C158.583 75.8832 158.436 76.5785 157.665 77.0453C156.969 77.4669 156.394 77.469 155.707 77.0526V77.0526ZM181.209 73.5059C169.142 71.2403 162.522 58.4471 167.757 47.5055C171.1 40.5165 178.68 36.2644 186.297 37.1056C194.647 38.0277 201.136 43.9498 202.667 52.0449C203.102 54.347 202.942 58.1976 202.325 60.2681C201.383 63.4289 200.009 65.79 197.753 68.123C195.307 70.653 192.445 72.3301 189.097 73.1954C186.949 73.7506 183.282 73.8949 181.209 73.5059ZM187.076 69.8937C190.135 69.3638 192.563 68.0864 194.881 65.7876C195.915 64.7614 196.733 63.7535 197.259 62.8555C200.134 57.951 199.944 51.9305 196.762 47.1818C191.534 39.3775 180.152 38.4292 173.716 45.2619C170.81 48.3474 169.533 51.7922 169.717 56.0535C169.894 60.1738 171.309 63.2358 174.372 66.1258C177.809 69.3677 182.345 70.7131 187.076 69.8937ZM183.78 57.0995C183.589 57.0153 182.128 55.6377 180.533 54.0381C177.693 51.1906 177.633 51.1144 177.633 50.397C177.633 49.3264 178.337 48.6588 179.467 48.6588C180.285 48.6588 180.298 48.6683 182.381 50.7173L184.473 52.7758L188.023 49.2678C190.266 47.0506 191.748 45.7167 192.049 45.6427C193.424 45.3048 194.604 46.517 194.233 47.8848C194.137 48.2354 192.688 49.7942 189.709 52.7483C185.959 56.468 185.24 57.1072 184.726 57.1742C184.396 57.2172 183.97 57.1837 183.78 57.0995Z" fill="#313131"/>
</svg>
