<svg width="291" height="370" viewBox="0 0 291 370" fill="none" xmlns="http://www.w3.org/2000/svg">
<path d="M225 79C225 122.63 189.63 158 146 158C102.37 158 67 122.63 67 79C67 35.3695 102.37 0 146 0C189.63 0 225 35.3695 225 79ZM72.6808 79C72.6808 119.493 105.507 152.319 146 152.319C186.493 152.319 219.319 119.493 219.319 79C219.319 38.5069 186.493 5.68077 146 5.68077C105.507 5.68077 72.6808 38.5069 72.6808 79Z" fill="#3CB043"/>
<path d="M18.2222 229V205.539H26.4399C29.2866 205.539 31.4458 206.087 32.9175 207.183C34.3892 208.268 35.125 209.863 35.125 211.968C35.125 213.118 34.8296 214.133 34.2388 215.014C33.6479 215.884 32.8262 216.523 31.7734 216.931C32.9766 217.232 33.9219 217.839 34.6094 218.752C35.3076 219.665 35.6567 220.782 35.6567 222.104C35.6567 224.359 34.937 226.067 33.4976 227.228C32.0581 228.388 30.0063 228.979 27.3423 229H18.2222ZM23.0562 218.784V225.117H27.1973C28.3359 225.117 29.2222 224.848 29.856 224.311C30.5005 223.763 30.8228 223.011 30.8228 222.055C30.8228 219.907 29.7109 218.816 27.4873 218.784H23.0562ZM23.0562 215.368H26.6333C29.0718 215.325 30.291 214.353 30.291 212.452C30.291 211.388 29.9795 210.625 29.3564 210.164C28.7441 209.691 27.772 209.455 26.4399 209.455H23.0562V215.368ZM49.4336 227.228C48.2842 228.624 46.6943 229.322 44.6641 229.322C42.7949 229.322 41.3662 228.785 40.3779 227.711C39.4004 226.637 38.9009 225.063 38.8794 222.99V211.565H43.5361V222.829C43.5361 224.644 44.3633 225.552 46.0176 225.552C47.5967 225.552 48.6816 225.004 49.2725 223.908V211.565H53.9453V229H49.5625L49.4336 227.228ZM63.9678 222.41L67.1904 211.565H72.1855L65.1763 231.707L64.7896 232.625C63.7476 234.903 62.0288 236.042 59.6333 236.042C58.9565 236.042 58.269 235.939 57.5708 235.735V232.207L58.2798 232.223C59.1606 232.223 59.8159 232.088 60.2456 231.82C60.686 231.551 61.0298 231.105 61.2769 230.482L61.8247 229.048L55.7178 211.565H60.729L63.9678 222.41ZM78.937 229H74.2642V211.565H78.937V229ZM73.9902 207.054C73.9902 206.355 74.2212 205.781 74.6831 205.33C75.1558 204.878 75.7949 204.653 76.6006 204.653C77.3955 204.653 78.0293 204.878 78.502 205.33C78.9746 205.781 79.2109 206.355 79.2109 207.054C79.2109 207.763 78.9692 208.343 78.4858 208.794C78.0132 209.245 77.3848 209.471 76.6006 209.471C75.8164 209.471 75.1826 209.245 74.6992 208.794C74.2266 208.343 73.9902 207.763 73.9902 207.054ZM87.0742 211.565L87.2192 213.58C88.4653 212.022 90.1357 211.243 92.2305 211.243C94.0781 211.243 95.4531 211.786 96.3555 212.871C97.2578 213.956 97.7197 215.578 97.7412 217.737V229H93.0845V217.85C93.0845 216.861 92.8696 216.147 92.4399 215.707C92.0103 215.255 91.2959 215.03 90.2969 215.03C88.9863 215.03 88.0034 215.588 87.3481 216.706V229H82.6914V211.565H87.0742ZM100.609 220.154C100.609 217.479 101.243 215.325 102.511 213.692C103.789 212.06 105.508 211.243 107.667 211.243C109.579 211.243 111.067 211.898 112.13 213.209L112.324 211.565H116.545V228.42C116.545 229.945 116.196 231.272 115.498 232.4C114.811 233.528 113.838 234.387 112.582 234.978C111.325 235.569 109.853 235.864 108.167 235.864C106.888 235.864 105.642 235.606 104.428 235.091C103.214 234.586 102.296 233.931 101.673 233.125L103.735 230.289C104.896 231.589 106.303 232.239 107.957 232.239C109.192 232.239 110.154 231.906 110.841 231.24C111.529 230.584 111.873 229.65 111.873 228.436V227.501C110.798 228.715 109.386 229.322 107.635 229.322C105.54 229.322 103.843 228.506 102.543 226.873C101.254 225.229 100.609 223.054 100.609 220.347V220.154ZM105.266 220.492C105.266 222.071 105.583 223.312 106.217 224.214C106.851 225.106 107.721 225.552 108.827 225.552C110.245 225.552 111.26 225.02 111.873 223.957V216.625C111.25 215.562 110.245 215.03 108.859 215.03C107.742 215.03 106.861 215.486 106.217 216.399C105.583 217.312 105.266 218.677 105.266 220.492ZM127.631 220.122C127.631 218.392 127.964 216.851 128.63 215.497C129.296 214.144 130.252 213.096 131.499 212.355C132.755 211.614 134.211 211.243 135.865 211.243C138.218 211.243 140.135 211.963 141.618 213.402C143.111 214.842 143.943 216.797 144.115 219.268L144.147 220.46C144.147 223.135 143.401 225.283 141.908 226.905C140.415 228.517 138.411 229.322 135.897 229.322C133.384 229.322 131.375 228.517 129.871 226.905C128.378 225.294 127.631 223.103 127.631 220.331V220.122ZM132.288 220.46C132.288 222.114 132.6 223.382 133.223 224.263C133.846 225.133 134.737 225.568 135.897 225.568C137.025 225.568 137.906 225.138 138.54 224.279C139.174 223.409 139.491 222.023 139.491 220.122C139.491 218.5 139.174 217.243 138.54 216.351C137.906 215.459 137.015 215.014 135.865 215.014C134.727 215.014 133.846 215.459 133.223 216.351C132.6 217.232 132.288 218.602 132.288 220.46ZM151.302 211.565L151.447 213.58C152.693 212.022 154.363 211.243 156.458 211.243C158.306 211.243 159.681 211.786 160.583 212.871C161.485 213.956 161.947 215.578 161.969 217.737V229H157.312V217.85C157.312 216.861 157.097 216.147 156.667 215.707C156.238 215.255 155.523 215.03 154.524 215.03C153.214 215.03 152.231 215.588 151.576 216.706V229H146.919V211.565H151.302ZM193.309 217.801C193.309 220.111 192.901 222.136 192.084 223.876C191.268 225.616 190.097 226.959 188.572 227.904C187.057 228.85 185.317 229.322 183.351 229.322C181.407 229.322 179.672 228.855 178.146 227.92C176.621 226.986 175.439 225.654 174.602 223.924C173.764 222.184 173.339 220.186 173.329 217.93V216.77C173.329 214.46 173.742 212.43 174.569 210.679C175.407 208.917 176.583 207.569 178.098 206.635C179.624 205.689 181.364 205.217 183.319 205.217C185.274 205.217 187.009 205.689 188.523 206.635C190.049 207.569 191.225 208.917 192.052 210.679C192.89 212.43 193.309 214.455 193.309 216.754V217.801ZM188.411 216.738C188.411 214.278 187.97 212.409 187.089 211.13C186.208 209.852 184.952 209.213 183.319 209.213C181.697 209.213 180.445 209.847 179.564 211.114C178.684 212.371 178.238 214.219 178.227 216.657V217.801C178.227 220.197 178.667 222.055 179.548 223.376C180.429 224.698 181.697 225.358 183.351 225.358C184.973 225.358 186.219 224.725 187.089 223.457C187.959 222.179 188.4 220.32 188.411 217.882V216.738ZM203.138 205.539L209.165 222.555L215.159 205.539H221.507V229H216.657V222.587L217.141 211.517L210.808 229H207.489L201.172 211.533L201.656 222.587V229H196.822V205.539H203.138ZM244.807 229H239.973L230.563 213.563V229H225.729V205.539H230.563L239.989 221.008V205.539H244.807V229ZM254.169 229H249.335V205.539H254.169V229ZM270.83 222.845C270.83 221.932 270.508 221.233 269.863 220.75C269.219 220.256 268.059 219.74 266.383 219.203C264.707 218.655 263.38 218.118 262.403 217.592C259.739 216.152 258.407 214.213 258.407 211.775C258.407 210.507 258.761 209.379 259.47 208.391C260.19 207.392 261.216 206.613 262.548 206.055C263.891 205.496 265.395 205.217 267.06 205.217C268.735 205.217 270.229 205.523 271.539 206.135C272.85 206.737 273.865 207.591 274.584 208.697C275.315 209.804 275.68 211.061 275.68 212.468H270.846C270.846 211.394 270.508 210.561 269.831 209.97C269.154 209.369 268.204 209.068 266.979 209.068C265.797 209.068 264.879 209.32 264.224 209.825C263.568 210.319 263.241 210.975 263.241 211.791C263.241 212.554 263.622 213.193 264.385 213.708C265.158 214.224 266.292 214.708 267.785 215.159C270.535 215.986 272.538 217.012 273.795 218.236C275.052 219.461 275.68 220.986 275.68 222.812C275.68 224.843 274.912 226.438 273.376 227.598C271.84 228.748 269.772 229.322 267.172 229.322C265.368 229.322 263.724 228.995 262.242 228.339C260.759 227.673 259.626 226.766 258.842 225.616C258.068 224.467 257.682 223.135 257.682 221.62H262.532C262.532 224.209 264.079 225.503 267.172 225.503C268.322 225.503 269.219 225.272 269.863 224.811C270.508 224.338 270.83 223.683 270.83 222.845Z" fill="#3CB043"/>
<path d="M45.3174 303V281.672H52.627C55.0391 281.672 56.875 282.155 58.1348 283.122C59.3945 284.089 60.0244 285.529 60.0244 287.443C60.0244 288.42 59.7607 289.299 59.2334 290.08C58.7061 290.861 57.9346 291.467 56.9189 291.896C58.0713 292.209 58.96 292.8 59.585 293.669C60.2197 294.528 60.5371 295.563 60.5371 296.774C60.5371 298.776 59.8926 300.314 58.6035 301.389C57.3242 302.463 55.4883 303 53.0957 303H45.3174ZM49.0234 293.376V300.041H53.1396C54.3018 300.041 55.21 299.753 55.8643 299.177C56.5186 298.601 56.8457 297.8 56.8457 296.774C56.8457 294.558 55.7129 293.425 53.4473 293.376H49.0234ZM49.0234 290.651H52.6562C53.8086 290.651 54.707 290.393 55.3516 289.875C56.0059 289.348 56.333 288.605 56.333 287.648C56.333 286.594 56.0303 285.832 55.4248 285.363C54.8291 284.895 53.8965 284.66 52.627 284.66H49.0234V290.651ZM67.6855 303H64.126V287.15H67.6855V303ZM63.9062 283.034C63.9062 282.487 64.0771 282.033 64.4189 281.672C64.7705 281.311 65.2686 281.13 65.9131 281.13C66.5576 281.13 67.0557 281.311 67.4072 281.672C67.7588 282.033 67.9346 282.487 67.9346 283.034C67.9346 283.571 67.7588 284.021 67.4072 284.382C67.0557 284.733 66.5576 284.909 65.9131 284.909C65.2686 284.909 64.7705 284.733 64.4189 284.382C64.0771 284.021 63.9062 283.571 63.9062 283.034ZM70.9082 294.958C70.9082 292.517 71.4746 290.559 72.6074 289.084C73.7402 287.6 75.2588 286.857 77.1631 286.857C78.8428 286.857 80.2002 287.443 81.2354 288.615V280.5H84.7949V303H81.5723L81.3965 301.359C80.332 302.648 78.9111 303.293 77.1338 303.293C75.2783 303.293 73.7744 302.546 72.6221 301.052C71.4795 299.558 70.9082 297.526 70.9082 294.958ZM74.4678 295.266C74.4678 296.877 74.7754 298.137 75.3906 299.045C76.0156 299.943 76.8994 300.393 78.042 300.393C79.4971 300.393 80.5615 299.743 81.2354 298.444V291.677C80.5811 290.407 79.5264 289.772 78.0713 289.772C76.9189 289.772 76.0303 290.231 75.4053 291.149C74.7803 292.058 74.4678 293.43 74.4678 295.266ZM97.3926 298.693C97.3926 298.059 97.1289 297.575 96.6016 297.243C96.084 296.911 95.2197 296.618 94.0088 296.364C92.7979 296.11 91.7871 295.788 90.9766 295.397C89.1992 294.538 88.3105 293.293 88.3105 291.662C88.3105 290.295 88.8867 289.152 90.0391 288.234C91.1914 287.316 92.6562 286.857 94.4336 286.857C96.3281 286.857 97.8564 287.326 99.0186 288.264C100.19 289.201 100.776 290.417 100.776 291.911H97.2168C97.2168 291.228 96.9629 290.661 96.4551 290.212C95.9473 289.753 95.2734 289.523 94.4336 289.523C93.6523 289.523 93.0127 289.704 92.5146 290.065C92.0264 290.427 91.7822 290.91 91.7822 291.516C91.7822 292.062 92.0117 292.487 92.4707 292.79C92.9297 293.093 93.8574 293.4 95.2539 293.713C96.6504 294.016 97.7441 294.382 98.5352 294.812C99.3359 295.231 99.9268 295.739 100.308 296.335C100.698 296.931 100.894 297.653 100.894 298.503C100.894 299.929 100.303 301.086 99.1211 301.975C97.9395 302.854 96.3916 303.293 94.4775 303.293C93.1787 303.293 92.0215 303.059 91.0059 302.59C89.9902 302.121 89.1992 301.477 88.6328 300.656C88.0664 299.836 87.7832 298.952 87.7832 298.005H91.2402C91.2891 298.845 91.6064 299.494 92.1924 299.953C92.7783 300.402 93.5547 300.627 94.5215 300.627C95.459 300.627 96.1719 300.451 96.6602 300.1C97.1484 299.738 97.3926 299.27 97.3926 298.693ZM104.512 307.805L102.593 306.662C103.159 305.773 103.545 304.997 103.75 304.333C103.965 303.679 104.077 303.01 104.087 302.326V299.558H107.295L107.28 302.121C107.271 303.156 107.007 304.191 106.489 305.227C105.981 306.271 105.322 307.131 104.512 307.805ZM118.413 303V281.672H125.723C128.135 281.672 129.971 282.155 131.23 283.122C132.49 284.089 133.12 285.529 133.12 287.443C133.12 288.42 132.856 289.299 132.329 290.08C131.802 290.861 131.03 291.467 130.015 291.896C131.167 292.209 132.056 292.8 132.681 293.669C133.315 294.528 133.633 295.563 133.633 296.774C133.633 298.776 132.988 300.314 131.699 301.389C130.42 302.463 128.584 303 126.191 303H118.413ZM122.119 293.376V300.041H126.235C127.397 300.041 128.306 299.753 128.96 299.177C129.614 298.601 129.941 297.8 129.941 296.774C129.941 294.558 128.809 293.425 126.543 293.376H122.119ZM122.119 290.651H125.752C126.904 290.651 127.803 290.393 128.447 289.875C129.102 289.348 129.429 288.605 129.429 287.648C129.429 286.594 129.126 285.832 128.521 285.363C127.925 284.895 126.992 284.66 125.723 284.66H122.119V290.651ZM146.597 301.447C145.552 302.678 144.067 303.293 142.144 303.293C140.425 303.293 139.121 302.79 138.232 301.784C137.354 300.778 136.914 299.323 136.914 297.419V287.15H140.474V297.375C140.474 299.387 141.309 300.393 142.979 300.393C144.707 300.393 145.874 299.772 146.479 298.532V287.15H150.039V303H146.685L146.597 301.447ZM159.209 297.902L162.432 287.15H166.226L159.927 305.402C158.96 308.068 157.319 309.401 155.005 309.401C154.487 309.401 153.916 309.313 153.291 309.138V306.384L153.965 306.428C154.863 306.428 155.537 306.262 155.986 305.93C156.445 305.607 156.807 305.061 157.07 304.289L157.583 302.927L152.017 287.15H155.854L159.209 297.902ZM193.018 303H189.312L179.805 287.868V303H176.099V281.672H179.805L189.341 296.862V281.672H193.018V303ZM196.387 294.929C196.387 293.376 196.694 291.979 197.31 290.739C197.925 289.489 198.789 288.532 199.902 287.868C201.016 287.194 202.295 286.857 203.74 286.857C205.879 286.857 207.612 287.546 208.94 288.923C210.278 290.3 211.001 292.126 211.108 294.401L211.123 295.236C211.123 296.799 210.82 298.195 210.215 299.426C209.619 300.656 208.76 301.608 207.637 302.282C206.523 302.956 205.234 303.293 203.77 303.293C201.533 303.293 199.741 302.551 198.394 301.066C197.056 299.572 196.387 297.585 196.387 295.104V294.929ZM199.946 295.236C199.946 296.867 200.283 298.146 200.957 299.074C201.631 299.992 202.568 300.451 203.77 300.451C204.971 300.451 205.903 299.982 206.567 299.045C207.241 298.107 207.578 296.735 207.578 294.929C207.578 293.327 207.231 292.058 206.538 291.12C205.854 290.183 204.922 289.714 203.74 289.714C202.578 289.714 201.655 290.178 200.972 291.105C200.288 292.023 199.946 293.4 199.946 295.236ZM228.057 298.093L230.576 287.15H234.048L229.727 303H226.797L223.398 292.116L220.059 303H217.129L212.793 287.15H216.265L218.828 297.976L222.08 287.15H224.761L228.057 298.093ZM235.117 307.805L233.198 306.662C233.765 305.773 234.15 304.997 234.355 304.333C234.57 303.679 234.683 303.01 234.692 302.326V299.558H237.9L237.886 302.121C237.876 303.156 237.612 304.191 237.095 305.227C236.587 306.271 235.928 307.131 235.117 307.805ZM17.5732 363H13.8818V353.522H4.3457V363H0.639648V341.672H4.3457V350.549H13.8818V341.672H17.5732V363ZM20.957 354.929C20.957 353.376 21.2646 351.979 21.8799 350.739C22.4951 349.489 23.3594 348.532 24.4727 347.868C25.5859 347.194 26.8652 346.857 28.3105 346.857C30.4492 346.857 32.1826 347.546 33.5107 348.923C34.8486 350.3 35.5713 352.126 35.6787 354.401L35.6934 355.236C35.6934 356.799 35.3906 358.195 34.7852 359.426C34.1895 360.656 33.3301 361.608 32.207 362.282C31.0938 362.956 29.8047 363.293 28.3398 363.293C26.1035 363.293 24.3115 362.551 22.9639 361.066C21.626 359.572 20.957 357.585 20.957 355.104V354.929ZM24.5166 355.236C24.5166 356.867 24.8535 358.146 25.5273 359.074C26.2012 359.992 27.1387 360.451 28.3398 360.451C29.541 360.451 30.4736 359.982 31.1377 359.045C31.8115 358.107 32.1484 356.735 32.1484 354.929C32.1484 353.327 31.8018 352.058 31.1084 351.12C30.4248 350.183 29.4922 349.714 28.3105 349.714C27.1484 349.714 26.2256 350.178 25.542 351.105C24.8584 352.023 24.5166 353.4 24.5166 355.236ZM52.627 358.093L55.1465 347.15H58.6182L54.2969 363H51.3672L47.9688 352.116L44.6289 363H41.6992L37.3633 347.15H40.835L43.3984 357.976L46.6504 347.15H49.3311L52.627 358.093ZM72.9297 343.298V347.15H75.7275V349.787H72.9297V358.635C72.9297 359.24 73.0469 359.68 73.2812 359.953C73.5254 360.217 73.9551 360.349 74.5703 360.349C74.9805 360.349 75.3955 360.3 75.8154 360.202V362.956C75.0049 363.181 74.2236 363.293 73.4717 363.293C70.7373 363.293 69.3701 361.784 69.3701 358.767V349.787H66.7627V347.15H69.3701V343.298H72.9297ZM77.3535 354.929C77.3535 353.376 77.6611 351.979 78.2764 350.739C78.8916 349.489 79.7559 348.532 80.8691 347.868C81.9824 347.194 83.2617 346.857 84.707 346.857C86.8457 346.857 88.5791 347.546 89.9072 348.923C91.2451 350.3 91.9678 352.126 92.0752 354.401L92.0898 355.236C92.0898 356.799 91.7871 358.195 91.1816 359.426C90.5859 360.656 89.7266 361.608 88.6035 362.282C87.4902 362.956 86.2012 363.293 84.7363 363.293C82.5 363.293 80.708 362.551 79.3604 361.066C78.0225 359.572 77.3535 357.585 77.3535 355.104V354.929ZM80.9131 355.236C80.9131 356.867 81.25 358.146 81.9238 359.074C82.5977 359.992 83.5352 360.451 84.7363 360.451C85.9375 360.451 86.8701 359.982 87.5342 359.045C88.208 358.107 88.5449 356.735 88.5449 354.929C88.5449 353.327 88.1982 352.058 87.5049 351.12C86.8213 350.183 85.8887 349.714 84.707 349.714C83.5449 349.714 82.6221 350.178 81.9385 351.105C81.2549 352.023 80.9131 353.4 80.9131 355.236ZM116.45 355.236C116.45 357.688 115.894 359.646 114.78 361.11C113.667 362.565 112.173 363.293 110.298 363.293C108.56 363.293 107.168 362.722 106.123 361.579V369.094H102.563V347.15H105.845L105.991 348.762C107.036 347.492 108.457 346.857 110.254 346.857C112.188 346.857 113.701 347.58 114.795 349.025C115.898 350.461 116.45 352.458 116.45 355.017V355.236ZM112.905 354.929C112.905 353.347 112.588 352.092 111.953 351.164C111.328 350.236 110.43 349.772 109.258 349.772C107.803 349.772 106.758 350.373 106.123 351.574V358.605C106.768 359.836 107.822 360.451 109.287 360.451C110.42 360.451 111.304 359.997 111.938 359.089C112.583 358.171 112.905 356.784 112.905 354.929ZM128.945 363C128.789 362.697 128.652 362.204 128.535 361.521C127.402 362.702 126.016 363.293 124.375 363.293C122.783 363.293 121.484 362.839 120.479 361.931C119.473 361.022 118.97 359.899 118.97 358.562C118.97 356.872 119.595 355.578 120.845 354.68C122.104 353.771 123.901 353.317 126.235 353.317H128.418V352.277C128.418 351.457 128.188 350.803 127.729 350.314C127.271 349.816 126.572 349.567 125.635 349.567C124.824 349.567 124.16 349.772 123.643 350.183C123.125 350.583 122.866 351.096 122.866 351.721H119.307C119.307 350.852 119.595 350.041 120.171 349.289C120.747 348.527 121.528 347.932 122.515 347.502C123.511 347.072 124.619 346.857 125.84 346.857C127.695 346.857 129.175 347.326 130.278 348.264C131.382 349.191 131.948 350.5 131.978 352.189V359.338C131.978 360.764 132.178 361.901 132.578 362.751V363H128.945ZM125.034 360.437C125.737 360.437 126.396 360.266 127.012 359.924C127.637 359.582 128.105 359.123 128.418 358.547V355.559H126.499C125.181 355.559 124.189 355.788 123.525 356.247C122.861 356.706 122.529 357.355 122.529 358.195C122.529 358.879 122.754 359.426 123.203 359.836C123.662 360.236 124.272 360.437 125.034 360.437ZM141.016 357.902L144.238 347.15H148.032L141.733 365.402C140.767 368.068 139.126 369.401 136.812 369.401C136.294 369.401 135.723 369.313 135.098 369.138V366.384L135.771 366.428C136.67 366.428 137.344 366.262 137.793 365.93C138.252 365.607 138.613 365.061 138.877 364.289L139.39 362.927L133.823 347.15H137.661L141.016 357.902ZM148.135 367.805L146.216 366.662C146.782 365.773 147.168 364.997 147.373 364.333C147.588 363.679 147.7 363.01 147.71 362.326V359.558H150.918L150.903 362.121C150.894 363.156 150.63 364.191 150.112 365.227C149.604 366.271 148.945 367.131 148.135 367.805ZM162.036 363V341.672H168.335C170.22 341.672 171.89 342.092 173.345 342.932C174.81 343.771 175.942 344.963 176.743 346.506C177.544 348.049 177.944 349.816 177.944 351.809V352.878C177.944 354.899 177.539 356.677 176.729 358.21C175.928 359.743 174.78 360.925 173.286 361.755C171.802 362.585 170.098 363 168.174 363H162.036ZM165.742 344.66V360.041H168.159C170.103 360.041 171.592 359.436 172.627 358.225C173.672 357.004 174.204 355.256 174.224 352.98V351.794C174.224 349.479 173.721 347.712 172.715 346.491C171.709 345.271 170.249 344.66 168.335 344.66H165.742ZM188.271 363.293C186.016 363.293 184.185 362.585 182.778 361.169C181.382 359.743 180.684 357.849 180.684 355.485V355.046C180.684 353.464 180.986 352.053 181.592 350.812C182.207 349.562 183.066 348.591 184.17 347.897C185.273 347.204 186.504 346.857 187.861 346.857C190.02 346.857 191.685 347.546 192.856 348.923C194.038 350.3 194.629 352.248 194.629 354.768V356.203H184.272C184.38 357.512 184.814 358.547 185.576 359.309C186.348 360.07 187.314 360.451 188.477 360.451C190.107 360.451 191.436 359.792 192.461 358.474L194.38 360.305C193.745 361.252 192.896 361.989 191.831 362.517C190.776 363.034 189.59 363.293 188.271 363.293ZM187.847 349.714C186.87 349.714 186.079 350.056 185.474 350.739C184.878 351.423 184.497 352.375 184.331 353.596H191.113V353.332C191.035 352.141 190.718 351.242 190.161 350.637C189.604 350.021 188.833 349.714 187.847 349.714ZM201.191 363H197.632V340.5H201.191V363ZM208.867 363H205.308V347.15H208.867V363ZM205.088 343.034C205.088 342.487 205.259 342.033 205.601 341.672C205.952 341.311 206.45 341.13 207.095 341.13C207.739 341.13 208.237 341.311 208.589 341.672C208.94 342.033 209.116 342.487 209.116 343.034C209.116 343.571 208.94 344.021 208.589 344.382C208.237 344.733 207.739 344.909 207.095 344.909C206.45 344.909 205.952 344.733 205.601 344.382C205.259 344.021 205.088 343.571 205.088 343.034ZM218.345 358.488L221.699 347.15H225.376L219.883 363H216.792L211.255 347.15H214.946L218.345 358.488ZM234.385 363.293C232.129 363.293 230.298 362.585 228.892 361.169C227.495 359.743 226.797 357.849 226.797 355.485V355.046C226.797 353.464 227.1 352.053 227.705 350.812C228.32 349.562 229.18 348.591 230.283 347.897C231.387 347.204 232.617 346.857 233.975 346.857C236.133 346.857 237.798 347.546 238.97 348.923C240.151 350.3 240.742 352.248 240.742 354.768V356.203H230.386C230.493 357.512 230.928 358.547 231.689 359.309C232.461 360.07 233.428 360.451 234.59 360.451C236.221 360.451 237.549 359.792 238.574 358.474L240.493 360.305C239.858 361.252 239.009 361.989 237.944 362.517C236.89 363.034 235.703 363.293 234.385 363.293ZM233.96 349.714C232.983 349.714 232.192 350.056 231.587 350.739C230.991 351.423 230.61 352.375 230.444 353.596H237.227V353.332C237.148 352.141 236.831 351.242 236.274 350.637C235.718 350.021 234.946 349.714 233.96 349.714ZM251.816 350.402C251.348 350.324 250.864 350.285 250.366 350.285C248.735 350.285 247.637 350.91 247.07 352.16V363H243.511V347.15H246.909L246.997 348.923C247.856 347.546 249.048 346.857 250.571 346.857C251.079 346.857 251.499 346.926 251.831 347.062L251.816 350.402ZM257.852 363H254.292V347.15H257.852V363ZM254.072 343.034C254.072 342.487 254.243 342.033 254.585 341.672C254.937 341.311 255.435 341.13 256.079 341.13C256.724 341.13 257.222 341.311 257.573 341.672C257.925 342.033 258.101 342.487 258.101 343.034C258.101 343.571 257.925 344.021 257.573 344.382C257.222 344.733 256.724 344.909 256.079 344.909C255.435 344.909 254.937 344.733 254.585 344.382C254.243 344.021 254.072 343.571 254.072 343.034ZM268.721 363.293C266.465 363.293 264.634 362.585 263.228 361.169C261.831 359.743 261.133 357.849 261.133 355.485V355.046C261.133 353.464 261.436 352.053 262.041 350.812C262.656 349.562 263.516 348.591 264.619 347.897C265.723 347.204 266.953 346.857 268.311 346.857C270.469 346.857 272.134 347.546 273.306 348.923C274.487 350.3 275.078 352.248 275.078 354.768V356.203H264.722C264.829 357.512 265.264 358.547 266.025 359.309C266.797 360.07 267.764 360.451 268.926 360.451C270.557 360.451 271.885 359.792 272.91 358.474L274.829 360.305C274.194 361.252 273.345 361.989 272.28 362.517C271.226 363.034 270.039 363.293 268.721 363.293ZM268.296 349.714C267.319 349.714 266.528 350.056 265.923 350.739C265.327 351.423 264.946 352.375 264.78 353.596H271.562V353.332C271.484 352.141 271.167 351.242 270.61 350.637C270.054 350.021 269.282 349.714 268.296 349.714ZM286.738 358.693C286.738 358.059 286.475 357.575 285.947 357.243C285.43 356.911 284.565 356.618 283.354 356.364C282.144 356.11 281.133 355.788 280.322 355.397C278.545 354.538 277.656 353.293 277.656 351.662C277.656 350.295 278.232 349.152 279.385 348.234C280.537 347.316 282.002 346.857 283.779 346.857C285.674 346.857 287.202 347.326 288.364 348.264C289.536 349.201 290.122 350.417 290.122 351.911H286.562C286.562 351.228 286.309 350.661 285.801 350.212C285.293 349.753 284.619 349.523 283.779 349.523C282.998 349.523 282.358 349.704 281.86 350.065C281.372 350.427 281.128 350.91 281.128 351.516C281.128 352.062 281.357 352.487 281.816 352.79C282.275 353.093 283.203 353.4 284.6 353.713C285.996 354.016 287.09 354.382 287.881 354.812C288.682 355.231 289.272 355.739 289.653 356.335C290.044 356.931 290.239 357.653 290.239 358.503C290.239 359.929 289.648 361.086 288.467 361.975C287.285 362.854 285.737 363.293 283.823 363.293C282.524 363.293 281.367 363.059 280.352 362.59C279.336 362.121 278.545 361.477 277.979 360.656C277.412 359.836 277.129 358.952 277.129 358.005H280.586C280.635 358.845 280.952 359.494 281.538 359.953C282.124 360.402 282.9 360.627 283.867 360.627C284.805 360.627 285.518 360.451 286.006 360.1C286.494 359.738 286.738 359.27 286.738 358.693Z" fill="#3A3A3A"/>
<mask id="path-4-outside-1_0:1" maskUnits="userSpaceOnUse" x="101" y="40" width="82" height="78" fill="black">
<rect fill="white" x="101" y="40" width="82" height="78"/>
<path d="M122.591 116.872C120.064 116.43 117.895 114.618 116.933 112.147C116.645 111.409 116.579 110.927 116.578 109.572C116.577 107.914 116.594 107.838 117.336 106.055C117.424 105.844 117.319 105.771 116.798 105.682C116.443 105.618 115.656 105.32 115.051 105.013C112.975 103.96 111.534 101.968 111.133 99.5989C110.601 96.4566 112.298 93.1633 115.153 91.7955C115.756 91.5066 116.268 91.2561 116.29 91.2378C116.312 91.2194 116.05 87.9256 115.706 83.917C114.35 68.0741 113.513 58.2227 113.26 55.117C113.114 53.3233 112.917 51.7819 112.822 51.683C112.726 51.5842 110.472 50.7714 107.813 49.8772C102.229 47.9984 102 47.8682 102 46.5698C102 45.6469 102.408 45.0804 103.283 44.7876C103.773 44.624 104.259 44.7602 109.484 46.5497C112.602 47.6168 115.353 48.5925 115.596 48.7181C115.84 48.8434 116.131 49.1735 116.244 49.4514C116.357 49.7293 116.629 52.0928 116.85 54.7034C117.07 57.314 117.307 59.5019 117.376 59.5653C117.446 59.6293 120.003 60.0508 123.061 60.5031C131.392 61.7358 136.889 62.5781 137.168 62.6648C137.632 62.8093 138.118 63.4959 138.201 64.1243C138.309 64.938 137.929 65.6862 137.239 66.0198C136.735 66.2639 136.386 66.2255 129.065 65.1357C124.858 64.5094 120.586 63.8669 119.572 63.7079C118.557 63.5488 117.698 63.4656 117.664 63.5223C117.607 63.6155 117.877 67.0592 117.947 67.1299C117.997 67.1848 175.28 76.0207 175.329 75.9852C175.472 75.8809 176.284 72.3449 176.185 72.2604C176.119 72.2055 173.986 71.8544 171.446 71.4823C163.468 70.3131 161.672 70.0263 161.223 69.8503C160.546 69.5842 160.172 68.9881 160.172 68.1768C160.172 67.5825 160.257 67.3804 160.704 66.928C161.104 66.5221 161.371 66.3886 161.778 66.3886C162.075 66.3886 165.65 66.8869 169.721 67.4964C173.793 68.1053 177.175 68.5722 177.237 68.5332C177.3 68.4967 177.587 67.5135 177.877 66.3539C178.463 64.0065 178.794 63.4782 179.796 63.2877C180.527 63.1487 181.274 63.5683 181.694 64.3546L182 64.926L178.272 79.1916C176.222 87.0375 174.434 93.6474 174.3 93.8801C174.166 94.1123 173.874 94.393 173.651 94.5027C173.332 94.66 167.376 94.7066 145.369 94.724L117.491 94.7424L116.752 95.1044C115.251 95.8413 114.398 97.5814 114.752 99.1846C114.999 100.304 115.679 101.215 116.634 101.706L117.413 102.106H145.228C170.647 102.106 173.089 102.125 173.582 102.366C174.8 102.952 174.931 104.789 173.81 105.555C173.475 105.783 172.956 105.843 170.859 105.89C169.459 105.927 168.314 105.972 168.314 105.992C168.314 106.019 168.472 106.383 168.665 106.809C168.969 107.479 169.017 107.85 169.018 109.568C169.019 111.533 169.013 111.564 168.442 112.749C166.677 116.409 162.402 117.959 158.834 116.233C155.157 114.453 153.718 110.255 155.393 106.194C155.502 105.931 154.843 105.916 142.827 105.916H130.146L130.498 106.908C131.237 108.99 131.139 110.891 130.194 112.834C129.167 114.945 127.075 116.504 124.783 116.866C123.656 117.044 123.595 117.044 122.591 116.868L122.591 116.872ZM125.428 112.78C127.857 111.493 128.009 107.991 125.703 106.444C124.949 105.937 123.449 105.765 122.515 106.078C119.991 106.923 119.321 110.602 121.371 112.354C122.551 113.362 124.034 113.518 125.428 112.78L125.428 112.78ZM163.382 112.927C164.162 112.567 165.083 111.549 165.338 110.766C165.88 109.101 165.127 107.154 163.635 106.364C160.721 104.82 157.563 107.457 158.449 110.693C158.66 111.463 159.626 112.568 160.398 112.924C161.22 113.302 162.566 113.304 163.382 112.926V112.927ZM171.506 90.7189C171.55 90.5662 172.125 88.3693 172.782 85.8371C173.439 83.3049 174.077 80.8816 174.199 80.452C174.32 80.0223 174.403 79.6547 174.381 79.6346C174.35 79.6072 156.114 76.7734 139.659 74.2437C137.721 73.9457 133.81 73.3423 130.968 72.9019C120.696 71.3112 118.343 70.9612 118.291 71.0166C118.262 71.044 118.616 75.4667 119.079 80.8366C119.542 86.2066 119.922 90.6896 119.925 90.7988C119.928 90.957 125.185 90.9972 145.677 90.9972C170.063 90.9972 171.429 90.9788 171.506 90.7192V90.7189ZM147.958 66.5508C143.462 65.3392 139.895 61.7558 138.701 57.2513C138.23 55.4755 138.231 52.5326 138.703 50.7514C139.384 48.1815 140.497 46.3184 142.484 44.4237C144.529 42.4735 147.261 41.2645 150.132 41.04C151.144 40.9577 151.443 40.9943 151.83 41.2256C152.783 41.797 153.065 42.8671 152.507 43.7956C152.106 44.4622 151.853 44.5774 150.497 44.7081C145.576 45.1835 141.988 49.0199 141.95 53.8471C141.929 56.5174 142.786 58.6302 144.651 60.5054C150.131 66.0177 159.144 62.6809 160.03 54.8113C160.219 53.1292 160.344 52.8181 160.99 52.4186C161.64 52.0172 162.149 52.0181 162.804 52.4232C163.637 52.9379 163.833 53.6309 163.633 55.3513C163.023 60.5933 159.597 64.7882 154.613 66.3937C153.001 66.913 149.599 66.9935 147.958 66.551L147.958 66.5508ZM150.385 59.4184C150.213 59.3453 149.896 59.0874 149.68 58.8534C149.348 58.4913 149.277 58.2317 149.211 57.1293L149.132 55.8317L147.827 55.7494C146.594 55.6762 146.497 55.6415 146.065 55.1515C145.713 54.751 145.609 54.4795 145.609 53.9564C145.609 52.6746 146.379 52.0979 148.091 52.0979H149.178L149.233 50.7354C149.287 49.4274 149.309 49.3545 149.8 48.9097C150.386 48.3794 151.136 48.2989 151.877 48.6875C152.55 49.0404 152.812 49.6824 152.812 50.979V52.0981H153.835C155.094 52.0981 155.846 52.398 156.168 53.0303C156.558 53.7956 156.483 54.5542 155.957 55.1517C155.526 55.6418 155.428 55.6747 154.195 55.7497L152.89 55.832L152.812 57.1393C152.74 58.3345 152.692 58.4881 152.256 58.9302C151.748 59.4449 150.927 59.6589 150.385 59.4184H150.385Z"/>
</mask>
<path d="M122.591 116.872C120.064 116.43 117.895 114.618 116.933 112.147C116.645 111.409 116.579 110.927 116.578 109.572C116.577 107.914 116.594 107.838 117.336 106.055C117.424 105.844 117.319 105.771 116.798 105.682C116.443 105.618 115.656 105.32 115.051 105.013C112.975 103.96 111.534 101.968 111.133 99.5989C110.601 96.4566 112.298 93.1633 115.153 91.7955C115.756 91.5066 116.268 91.2561 116.29 91.2378C116.312 91.2194 116.05 87.9256 115.706 83.917C114.35 68.0741 113.513 58.2227 113.26 55.117C113.114 53.3233 112.917 51.7819 112.822 51.683C112.726 51.5842 110.472 50.7714 107.813 49.8772C102.229 47.9984 102 47.8682 102 46.5698C102 45.6469 102.408 45.0804 103.283 44.7876C103.773 44.624 104.259 44.7602 109.484 46.5497C112.602 47.6168 115.353 48.5925 115.596 48.7181C115.84 48.8434 116.131 49.1735 116.244 49.4514C116.357 49.7293 116.629 52.0928 116.85 54.7034C117.07 57.314 117.307 59.5019 117.376 59.5653C117.446 59.6293 120.003 60.0508 123.061 60.5031C131.392 61.7358 136.889 62.5781 137.168 62.6648C137.632 62.8093 138.118 63.4959 138.201 64.1243C138.309 64.938 137.929 65.6862 137.239 66.0198C136.735 66.2639 136.386 66.2255 129.065 65.1357C124.858 64.5094 120.586 63.8669 119.572 63.7079C118.557 63.5488 117.698 63.4656 117.664 63.5223C117.607 63.6155 117.877 67.0592 117.947 67.1299C117.997 67.1848 175.28 76.0207 175.329 75.9852C175.472 75.8809 176.284 72.3449 176.185 72.2604C176.119 72.2055 173.986 71.8544 171.446 71.4823C163.468 70.3131 161.672 70.0263 161.223 69.8503C160.546 69.5842 160.172 68.9881 160.172 68.1768C160.172 67.5825 160.257 67.3804 160.704 66.928C161.104 66.5221 161.371 66.3886 161.778 66.3886C162.075 66.3886 165.65 66.8869 169.721 67.4964C173.793 68.1053 177.175 68.5722 177.237 68.5332C177.3 68.4967 177.587 67.5135 177.877 66.3539C178.463 64.0065 178.794 63.4782 179.796 63.2877C180.527 63.1487 181.274 63.5683 181.694 64.3546L182 64.926L178.272 79.1916C176.222 87.0375 174.434 93.6474 174.3 93.8801C174.166 94.1123 173.874 94.393 173.651 94.5027C173.332 94.66 167.376 94.7066 145.369 94.724L117.491 94.7424L116.752 95.1044C115.251 95.8413 114.398 97.5814 114.752 99.1846C114.999 100.304 115.679 101.215 116.634 101.706L117.413 102.106H145.228C170.647 102.106 173.089 102.125 173.582 102.366C174.8 102.952 174.931 104.789 173.81 105.555C173.475 105.783 172.956 105.843 170.859 105.89C169.459 105.927 168.314 105.972 168.314 105.992C168.314 106.019 168.472 106.383 168.665 106.809C168.969 107.479 169.017 107.85 169.018 109.568C169.019 111.533 169.013 111.564 168.442 112.749C166.677 116.409 162.402 117.959 158.834 116.233C155.157 114.453 153.718 110.255 155.393 106.194C155.502 105.931 154.843 105.916 142.827 105.916H130.146L130.498 106.908C131.237 108.99 131.139 110.891 130.194 112.834C129.167 114.945 127.075 116.504 124.783 116.866C123.656 117.044 123.595 117.044 122.591 116.868L122.591 116.872ZM125.428 112.78C127.857 111.493 128.009 107.991 125.703 106.444C124.949 105.937 123.449 105.765 122.515 106.078C119.991 106.923 119.321 110.602 121.371 112.354C122.551 113.362 124.034 113.518 125.428 112.78L125.428 112.78ZM163.382 112.927C164.162 112.567 165.083 111.549 165.338 110.766C165.88 109.101 165.127 107.154 163.635 106.364C160.721 104.82 157.563 107.457 158.449 110.693C158.66 111.463 159.626 112.568 160.398 112.924C161.22 113.302 162.566 113.304 163.382 112.926V112.927ZM171.506 90.7189C171.55 90.5662 172.125 88.3693 172.782 85.8371C173.439 83.3049 174.077 80.8816 174.199 80.452C174.32 80.0223 174.403 79.6547 174.381 79.6346C174.35 79.6072 156.114 76.7734 139.659 74.2437C137.721 73.9457 133.81 73.3423 130.968 72.9019C120.696 71.3112 118.343 70.9612 118.291 71.0166C118.262 71.044 118.616 75.4667 119.079 80.8366C119.542 86.2066 119.922 90.6896 119.925 90.7988C119.928 90.957 125.185 90.9972 145.677 90.9972C170.063 90.9972 171.429 90.9788 171.506 90.7192V90.7189ZM147.958 66.5508C143.462 65.3392 139.895 61.7558 138.701 57.2513C138.23 55.4755 138.231 52.5326 138.703 50.7514C139.384 48.1815 140.497 46.3184 142.484 44.4237C144.529 42.4735 147.261 41.2645 150.132 41.04C151.144 40.9577 151.443 40.9943 151.83 41.2256C152.783 41.797 153.065 42.8671 152.507 43.7956C152.106 44.4622 151.853 44.5774 150.497 44.7081C145.576 45.1835 141.988 49.0199 141.95 53.8471C141.929 56.5174 142.786 58.6302 144.651 60.5054C150.131 66.0177 159.144 62.6809 160.03 54.8113C160.219 53.1292 160.344 52.8181 160.99 52.4186C161.64 52.0172 162.149 52.0181 162.804 52.4232C163.637 52.9379 163.833 53.6309 163.633 55.3513C163.023 60.5933 159.597 64.7882 154.613 66.3937C153.001 66.913 149.599 66.9935 147.958 66.551L147.958 66.5508ZM150.385 59.4184C150.213 59.3453 149.896 59.0874 149.68 58.8534C149.348 58.4913 149.277 58.2317 149.211 57.1293L149.132 55.8317L147.827 55.7494C146.594 55.6762 146.497 55.6415 146.065 55.1515C145.713 54.751 145.609 54.4795 145.609 53.9564C145.609 52.6746 146.379 52.0979 148.091 52.0979H149.178L149.233 50.7354C149.287 49.4274 149.309 49.3545 149.8 48.9097C150.386 48.3794 151.136 48.2989 151.877 48.6875C152.55 49.0404 152.812 49.6824 152.812 50.979V52.0981H153.835C155.094 52.0981 155.846 52.398 156.168 53.0303C156.558 53.7956 156.483 54.5542 155.957 55.1517C155.526 55.6418 155.428 55.6747 154.195 55.7497L152.89 55.832L152.812 57.1393C152.74 58.3345 152.692 58.4881 152.256 58.9302C151.748 59.4449 150.927 59.6589 150.385 59.4184H150.385Z" fill="#313131"/>
<path d="M122.591 116.872C120.064 116.43 117.895 114.618 116.933 112.147C116.645 111.409 116.579 110.927 116.578 109.572C116.577 107.914 116.594 107.838 117.336 106.055C117.424 105.844 117.319 105.771 116.798 105.682C116.443 105.618 115.656 105.32 115.051 105.013C112.975 103.96 111.534 101.968 111.133 99.5989C110.601 96.4566 112.298 93.1633 115.153 91.7955C115.756 91.5066 116.268 91.2561 116.29 91.2378C116.312 91.2194 116.05 87.9256 115.706 83.917C114.35 68.0741 113.513 58.2227 113.26 55.117C113.114 53.3233 112.917 51.7819 112.822 51.683C112.726 51.5842 110.472 50.7714 107.813 49.8772C102.229 47.9984 102 47.8682 102 46.5698C102 45.6469 102.408 45.0804 103.283 44.7876C103.773 44.624 104.259 44.7602 109.484 46.5497C112.602 47.6168 115.353 48.5925 115.596 48.7181C115.84 48.8434 116.131 49.1735 116.244 49.4514C116.357 49.7293 116.629 52.0928 116.85 54.7034C117.07 57.314 117.307 59.5019 117.376 59.5653C117.446 59.6293 120.003 60.0508 123.061 60.5031C131.392 61.7358 136.889 62.5781 137.168 62.6648C137.632 62.8093 138.118 63.4959 138.201 64.1243C138.309 64.938 137.929 65.6862 137.239 66.0198C136.735 66.2639 136.386 66.2255 129.065 65.1357C124.858 64.5094 120.586 63.8669 119.572 63.7079C118.557 63.5488 117.698 63.4656 117.664 63.5223C117.607 63.6155 117.877 67.0592 117.947 67.1299C117.997 67.1848 175.28 76.0207 175.329 75.9852C175.472 75.8809 176.284 72.3449 176.185 72.2604C176.119 72.2055 173.986 71.8544 171.446 71.4823C163.468 70.3131 161.672 70.0263 161.223 69.8503C160.546 69.5842 160.172 68.9881 160.172 68.1768C160.172 67.5825 160.257 67.3804 160.704 66.928C161.104 66.5221 161.371 66.3886 161.778 66.3886C162.075 66.3886 165.65 66.8869 169.721 67.4964C173.793 68.1053 177.175 68.5722 177.237 68.5332C177.3 68.4967 177.587 67.5135 177.877 66.3539C178.463 64.0065 178.794 63.4782 179.796 63.2877C180.527 63.1487 181.274 63.5683 181.694 64.3546L182 64.926L178.272 79.1916C176.222 87.0375 174.434 93.6474 174.3 93.8801C174.166 94.1123 173.874 94.393 173.651 94.5027C173.332 94.66 167.376 94.7066 145.369 94.724L117.491 94.7424L116.752 95.1044C115.251 95.8413 114.398 97.5814 114.752 99.1846C114.999 100.304 115.679 101.215 116.634 101.706L117.413 102.106H145.228C170.647 102.106 173.089 102.125 173.582 102.366C174.8 102.952 174.931 104.789 173.81 105.555C173.475 105.783 172.956 105.843 170.859 105.89C169.459 105.927 168.314 105.972 168.314 105.992C168.314 106.019 168.472 106.383 168.665 106.809C168.969 107.479 169.017 107.85 169.018 109.568C169.019 111.533 169.013 111.564 168.442 112.749C166.677 116.409 162.402 117.959 158.834 116.233C155.157 114.453 153.718 110.255 155.393 106.194C155.502 105.931 154.843 105.916 142.827 105.916H130.146L130.498 106.908C131.237 108.99 131.139 110.891 130.194 112.834C129.167 114.945 127.075 116.504 124.783 116.866C123.656 117.044 123.595 117.044 122.591 116.868L122.591 116.872ZM125.428 112.78C127.857 111.493 128.009 107.991 125.703 106.444C124.949 105.937 123.449 105.765 122.515 106.078C119.991 106.923 119.321 110.602 121.371 112.354C122.551 113.362 124.034 113.518 125.428 112.78L125.428 112.78ZM163.382 112.927C164.162 112.567 165.083 111.549 165.338 110.766C165.88 109.101 165.127 107.154 163.635 106.364C160.721 104.82 157.563 107.457 158.449 110.693C158.66 111.463 159.626 112.568 160.398 112.924C161.22 113.302 162.566 113.304 163.382 112.926V112.927ZM171.506 90.7189C171.55 90.5662 172.125 88.3693 172.782 85.8371C173.439 83.3049 174.077 80.8816 174.199 80.452C174.32 80.0223 174.403 79.6547 174.381 79.6346C174.35 79.6072 156.114 76.7734 139.659 74.2437C137.721 73.9457 133.81 73.3423 130.968 72.9019C120.696 71.3112 118.343 70.9612 118.291 71.0166C118.262 71.044 118.616 75.4667 119.079 80.8366C119.542 86.2066 119.922 90.6896 119.925 90.7988C119.928 90.957 125.185 90.9972 145.677 90.9972C170.063 90.9972 171.429 90.9788 171.506 90.7192V90.7189ZM147.958 66.5508C143.462 65.3392 139.895 61.7558 138.701 57.2513C138.23 55.4755 138.231 52.5326 138.703 50.7514C139.384 48.1815 140.497 46.3184 142.484 44.4237C144.529 42.4735 147.261 41.2645 150.132 41.04C151.144 40.9577 151.443 40.9943 151.83 41.2256C152.783 41.797 153.065 42.8671 152.507 43.7956C152.106 44.4622 151.853 44.5774 150.497 44.7081C145.576 45.1835 141.988 49.0199 141.95 53.8471C141.929 56.5174 142.786 58.6302 144.651 60.5054C150.131 66.0177 159.144 62.6809 160.03 54.8113C160.219 53.1292 160.344 52.8181 160.99 52.4186C161.64 52.0172 162.149 52.0181 162.804 52.4232C163.637 52.9379 163.833 53.6309 163.633 55.3513C163.023 60.5933 159.597 64.7882 154.613 66.3937C153.001 66.913 149.599 66.9935 147.958 66.551L147.958 66.5508ZM150.385 59.4184C150.213 59.3453 149.896 59.0874 149.68 58.8534C149.348 58.4913 149.277 58.2317 149.211 57.1293L149.132 55.8317L147.827 55.7494C146.594 55.6762 146.497 55.6415 146.065 55.1515C145.713 54.751 145.609 54.4795 145.609 53.9564C145.609 52.6746 146.379 52.0979 148.091 52.0979H149.178L149.233 50.7354C149.287 49.4274 149.309 49.3545 149.8 48.9097C150.386 48.3794 151.136 48.2989 151.877 48.6875C152.55 49.0404 152.812 49.6824 152.812 50.979V52.0981H153.835C155.094 52.0981 155.846 52.398 156.168 53.0303C156.558 53.7956 156.483 54.5542 155.957 55.1517C155.526 55.6418 155.428 55.6747 154.195 55.7497L152.89 55.832L152.812 57.1393C152.74 58.3345 152.692 58.4881 152.256 58.9302C151.748 59.4449 150.927 59.6589 150.385 59.4184H150.385Z" stroke="#313131" mask="url(#path-4-outside-1_0:1)"/>
</svg>
