<svg width="731" height="567" viewBox="0 0 731 567" fill="none" xmlns="http://www.w3.org/2000/svg">
<g filter="url(#filter0_d_0:1)">
<rect x="16" y="16" width="697" height="533" rx="5" fill="white"/>
</g>
<rect x="48" y="171" width="634" height="48" fill="#E8E8E8"/>
<rect x="48" y="219" width="634" height="48" fill="white"/>
<rect x="48" y="267" width="634" height="48" fill="#E8E8E8"/>
<rect x="48" y="315" width="634" height="48" fill="white"/>
<rect x="48" y="363" width="634" height="48" fill="#E8E8E8"/>
<rect x="48" y="459" width="634" height="48" fill="#E8E8E8"/>
<rect x="48" y="411" width="634" height="48" fill="white"/>
<rect x="15" y="16" width="699" height="75" rx="5" fill="#AFDDB1"/>
<path d="M327.412 59.6055H319.707L318.242 64H313.569L321.509 42.6719H325.581L333.564 64H328.892L327.412 59.6055ZM320.894 56.0459H326.226L323.545 48.0625L320.894 56.0459ZM339.746 64H335.498V41.5H339.746V64ZM347.715 64H343.467V41.5H347.715V64ZM358.965 64V42.6719H366.436C369.023 42.6719 370.986 43.1699 372.324 44.166C373.662 45.1523 374.331 46.6025 374.331 48.5166C374.331 49.5615 374.062 50.4844 373.525 51.2852C372.988 52.0762 372.241 52.6572 371.284 53.0283C372.378 53.3018 373.237 53.8535 373.862 54.6836C374.497 55.5137 374.814 56.5293 374.814 57.7305C374.814 59.7812 374.16 61.334 372.852 62.3887C371.543 63.4434 369.678 63.9805 367.256 64H358.965ZM363.359 54.7129V60.4697H367.124C368.159 60.4697 368.965 60.2256 369.541 59.7373C370.127 59.2393 370.42 58.5557 370.42 57.6865C370.42 55.7334 369.409 54.7422 367.388 54.7129H363.359ZM363.359 51.6074H366.611C368.828 51.5684 369.937 50.6846 369.937 48.9561C369.937 47.9893 369.653 47.2959 369.087 46.876C368.53 46.4463 367.646 46.2314 366.436 46.2314H363.359V51.6074ZM382.314 64H378.066V48.1504H382.314V64ZM377.817 44.0488C377.817 43.4141 378.027 42.8916 378.447 42.4814C378.877 42.0713 379.458 41.8662 380.19 41.8662C380.913 41.8662 381.489 42.0713 381.919 42.4814C382.349 42.8916 382.563 43.4141 382.563 44.0488C382.563 44.6934 382.344 45.2207 381.904 45.6309C381.475 46.041 380.903 46.2461 380.19 46.2461C379.478 46.2461 378.901 46.041 378.462 45.6309C378.032 45.2207 377.817 44.6934 377.817 44.0488ZM385.156 55.958C385.156 53.4873 385.708 51.5195 386.812 50.0547C387.925 48.5898 389.443 47.8574 391.367 47.8574C392.91 47.8574 394.185 48.4336 395.19 49.5859V41.5H399.438V64H395.615L395.41 62.3154C394.355 63.6338 392.998 64.293 391.338 64.293C389.473 64.293 387.974 63.5605 386.841 62.0957C385.718 60.6211 385.156 58.5752 385.156 55.958ZM389.39 56.2656C389.39 57.75 389.648 58.8877 390.166 59.6787C390.684 60.4697 391.436 60.8652 392.422 60.8652C393.73 60.8652 394.653 60.3135 395.19 59.21V52.9551C394.663 51.8516 393.75 51.2998 392.451 51.2998C390.41 51.2998 389.39 52.9551 389.39 56.2656ZM411.304 59.6201C411.304 59.1025 411.045 58.6973 410.527 58.4043C410.02 58.1016 409.199 57.833 408.066 57.5986C404.297 56.8076 402.412 55.2061 402.412 52.7939C402.412 51.3877 402.993 50.2158 404.155 49.2783C405.327 48.3311 406.855 47.8574 408.74 47.8574C410.752 47.8574 412.358 48.3311 413.56 49.2783C414.771 50.2256 415.376 51.4561 415.376 52.9697H411.143C411.143 52.3643 410.947 51.8662 410.557 51.4756C410.166 51.0752 409.556 50.875 408.726 50.875C408.013 50.875 407.461 51.0361 407.07 51.3584C406.68 51.6807 406.484 52.0908 406.484 52.5889C406.484 53.0576 406.704 53.4385 407.144 53.7314C407.593 54.0146 408.345 54.2637 409.399 54.4785C410.454 54.6836 411.343 54.918 412.065 55.1816C414.302 56.002 415.42 57.4229 415.42 59.4443C415.42 60.8896 414.8 62.0615 413.56 62.96C412.319 63.8486 410.718 64.293 408.755 64.293C407.427 64.293 406.245 64.0586 405.21 63.5898C404.185 63.1113 403.379 62.4619 402.793 61.6416C402.207 60.8115 401.914 59.918 401.914 58.9609H405.928C405.967 59.7129 406.245 60.2891 406.763 60.6895C407.28 61.0898 407.974 61.29 408.843 61.29C409.653 61.29 410.264 61.1387 410.674 60.8359C411.094 60.5234 411.304 60.1182 411.304 59.6201Z" fill="#313131"/>
<path d="M89.2676 134.337C89.2676 133.645 89.0234 133.116 88.5352 132.75C88.0469 132.376 87.168 131.985 85.8984 131.578C84.6289 131.163 83.6239 130.756 82.8833 130.357C80.8651 129.267 79.856 127.798 79.856 125.951C79.856 124.99 80.1245 124.136 80.6616 123.387C81.2069 122.63 81.984 122.04 82.9932 121.617C84.0104 121.194 85.1497 120.982 86.4111 120.982C87.6807 120.982 88.8118 121.214 89.8047 121.678C90.7975 122.134 91.5666 122.781 92.1118 123.619C92.6652 124.457 92.9419 125.41 92.9419 126.476H89.2798C89.2798 125.662 89.0234 125.031 88.5107 124.583C87.998 124.128 87.2778 123.9 86.3501 123.9C85.4549 123.9 84.7591 124.091 84.2627 124.474C83.7663 124.848 83.5181 125.344 83.5181 125.963C83.5181 126.541 83.807 127.025 84.3848 127.416C84.9707 127.806 85.8293 128.172 86.9604 128.514C89.0438 129.141 90.5615 129.918 91.5137 130.846C92.4658 131.773 92.9419 132.929 92.9419 134.312C92.9419 135.851 92.36 137.059 91.1963 137.938C90.0326 138.809 88.466 139.244 86.4966 139.244C85.1294 139.244 83.8843 138.996 82.7612 138.5C81.6382 137.995 80.7796 137.307 80.1855 136.437C79.5996 135.566 79.3066 134.557 79.3066 133.409H82.981C82.981 135.37 84.1528 136.351 86.4966 136.351C87.3674 136.351 88.0469 136.176 88.5352 135.826C89.0234 135.468 89.2676 134.972 89.2676 134.337ZM98.9233 139H95.3833V125.792H98.9233V139ZM95.1758 122.374C95.1758 121.845 95.3507 121.41 95.7007 121.068C96.0588 120.726 96.543 120.555 97.1533 120.555C97.7555 120.555 98.2357 120.726 98.5938 121.068C98.9518 121.41 99.1309 121.845 99.1309 122.374C99.1309 122.911 98.9478 123.351 98.5815 123.692C98.2235 124.034 97.7474 124.205 97.1533 124.205C96.5592 124.205 96.0791 124.034 95.7129 123.692C95.3548 123.351 95.1758 122.911 95.1758 122.374ZM105.894 136.156H112.351V139H101.389V136.852L107.603 128.648H101.572V125.792H112.156V127.879L105.894 136.156ZM120.444 139.244C118.507 139.244 116.929 138.65 115.708 137.462C114.495 136.274 113.889 134.691 113.889 132.713V132.372C113.889 131.045 114.146 129.861 114.658 128.819C115.171 127.77 115.895 126.964 116.831 126.402C117.775 125.833 118.849 125.548 120.054 125.548C121.86 125.548 123.28 126.118 124.314 127.257C125.356 128.396 125.876 130.012 125.876 132.103V133.543H117.466C117.58 134.406 117.922 135.098 118.491 135.619C119.069 136.139 119.797 136.4 120.676 136.4C122.035 136.4 123.097 135.908 123.862 134.923L125.596 136.864C125.067 137.612 124.351 138.198 123.447 138.622C122.544 139.037 121.543 139.244 120.444 139.244ZM120.042 128.404C119.342 128.404 118.772 128.64 118.333 129.112C117.901 129.584 117.625 130.26 117.502 131.139H122.41V130.858C122.393 130.077 122.182 129.474 121.775 129.051C121.368 128.62 120.79 128.404 120.042 128.404Z" fill="#313131"/>
<path d="M98.623 201H96.2598V189.584L92.7734 190.775V188.773L98.3203 186.732H98.623V201ZM112.832 195.014C112.832 197.058 112.448 198.601 111.68 199.643C110.918 200.678 109.756 201.195 108.193 201.195C106.657 201.195 105.498 200.691 104.717 199.682C103.942 198.666 103.545 197.165 103.525 195.18V192.719C103.525 190.674 103.906 189.141 104.668 188.119C105.436 187.097 106.605 186.586 108.174 186.586C109.73 186.586 110.889 187.084 111.65 188.08C112.419 189.076 112.812 190.567 112.832 192.553V195.014ZM110.459 192.357C110.459 191.023 110.277 190.046 109.912 189.428C109.548 188.803 108.968 188.49 108.174 188.49C107.399 188.49 106.829 188.786 106.465 189.379C106.1 189.965 105.908 190.883 105.889 192.133V195.355C105.889 196.684 106.074 197.673 106.445 198.324C106.816 198.975 107.399 199.301 108.193 199.301C108.955 199.301 109.518 199.001 109.883 198.402C110.247 197.797 110.439 196.853 110.459 195.57V192.357Z" fill="#313131"/>
<path d="M349.264 197.289C349.264 196.736 349.088 196.28 348.736 195.922C348.385 195.557 347.799 195.232 346.979 194.945C346.158 194.652 345.52 194.382 345.064 194.135C343.548 193.321 342.789 192.117 342.789 190.521C342.789 189.441 343.118 188.552 343.775 187.855C344.433 187.159 345.325 186.745 346.451 186.615V184.486H348.014V186.635C349.146 186.798 350.022 187.279 350.641 188.08C351.259 188.874 351.568 189.91 351.568 191.186H349.205C349.205 190.365 349.02 189.721 348.648 189.252C348.284 188.777 347.786 188.539 347.154 188.539C346.529 188.539 346.041 188.708 345.689 189.047C345.338 189.385 345.162 189.87 345.162 190.502C345.162 191.068 345.335 191.524 345.68 191.869C346.031 192.208 346.624 192.53 347.457 192.836C348.29 193.142 348.945 193.425 349.42 193.686C349.895 193.946 350.296 194.245 350.621 194.584C350.947 194.916 351.197 195.3 351.373 195.736C351.549 196.173 351.637 196.684 351.637 197.27C351.637 198.37 351.298 199.262 350.621 199.945C349.951 200.629 349.013 201.033 347.809 201.156V203.061H346.256V201.166C344.967 201.023 343.974 200.561 343.277 199.779C342.587 198.998 342.242 197.963 342.242 196.674H344.615C344.615 197.494 344.82 198.129 345.23 198.578C345.647 199.027 346.233 199.252 346.988 199.252C347.73 199.252 348.294 199.073 348.678 198.715C349.068 198.357 349.264 197.882 349.264 197.289ZM360.123 201H357.76V189.584L354.273 190.775V188.773L359.82 186.732H360.123V201ZM374.625 201H365.064V199.369L369.801 194.203C370.484 193.441 370.969 192.807 371.256 192.299C371.549 191.785 371.695 191.27 371.695 190.756C371.695 190.079 371.503 189.532 371.119 189.115C370.742 188.699 370.23 188.49 369.586 188.49C368.818 188.49 368.222 188.725 367.799 189.193C367.376 189.662 367.164 190.303 367.164 191.117H364.791C364.791 190.251 364.986 189.473 365.377 188.783C365.774 188.087 366.337 187.546 367.066 187.162C367.802 186.778 368.648 186.586 369.605 186.586C370.986 186.586 372.073 186.934 372.867 187.631C373.668 188.321 374.068 189.278 374.068 190.502C374.068 191.212 373.867 191.957 373.463 192.738C373.066 193.513 372.411 194.395 371.5 195.385L368.023 199.105H374.625V201ZM385.699 195.014C385.699 197.058 385.315 198.601 384.547 199.643C383.785 200.678 382.623 201.195 381.061 201.195C379.524 201.195 378.365 200.691 377.584 199.682C376.809 198.666 376.412 197.165 376.393 195.18V192.719C376.393 190.674 376.773 189.141 377.535 188.119C378.303 187.097 379.472 186.586 381.041 186.586C382.597 186.586 383.756 187.084 384.518 188.08C385.286 189.076 385.68 190.567 385.699 192.553V195.014ZM383.326 192.357C383.326 191.023 383.144 190.046 382.779 189.428C382.415 188.803 381.835 188.49 381.041 188.49C380.266 188.49 379.697 188.786 379.332 189.379C378.967 189.965 378.775 190.883 378.756 192.133V195.355C378.756 196.684 378.941 197.673 379.312 198.324C379.684 198.975 380.266 199.301 381.061 199.301C381.822 199.301 382.385 199.001 382.75 198.402C383.115 197.797 383.307 196.853 383.326 195.57V192.357Z" fill="#313131"/>
<path d="M610.807 201H608.443V189.584L604.957 190.775V188.773L610.504 186.732H610.807V201Z" fill="#313131"/>
<path d="M98.623 249H96.2598V237.584L92.7734 238.775V236.773L98.3203 234.732H98.623V249ZM112.832 243.014C112.832 245.058 112.448 246.601 111.68 247.643C110.918 248.678 109.756 249.195 108.193 249.195C106.657 249.195 105.498 248.691 104.717 247.682C103.942 246.666 103.545 245.165 103.525 243.18V240.719C103.525 238.674 103.906 237.141 104.668 236.119C105.436 235.097 106.605 234.586 108.174 234.586C109.73 234.586 110.889 235.084 111.65 236.08C112.419 237.076 112.812 238.567 112.832 240.553V243.014ZM110.459 240.357C110.459 239.023 110.277 238.046 109.912 237.428C109.548 236.803 108.968 236.49 108.174 236.49C107.399 236.49 106.829 236.786 106.465 237.379C106.1 237.965 105.908 238.883 105.889 240.133V243.355C105.889 244.684 106.074 245.673 106.445 246.324C106.816 246.975 107.399 247.301 108.193 247.301C108.955 247.301 109.518 247.001 109.883 246.402C110.247 245.797 110.439 244.853 110.459 243.57V240.357Z" fill="#313131"/>
<path d="M349.264 245.289C349.264 244.736 349.088 244.28 348.736 243.922C348.385 243.557 347.799 243.232 346.979 242.945C346.158 242.652 345.52 242.382 345.064 242.135C343.548 241.321 342.789 240.117 342.789 238.521C342.789 237.441 343.118 236.552 343.775 235.855C344.433 235.159 345.325 234.745 346.451 234.615V232.486H348.014V234.635C349.146 234.798 350.022 235.279 350.641 236.08C351.259 236.874 351.568 237.91 351.568 239.186H349.205C349.205 238.365 349.02 237.721 348.648 237.252C348.284 236.777 347.786 236.539 347.154 236.539C346.529 236.539 346.041 236.708 345.689 237.047C345.338 237.385 345.162 237.87 345.162 238.502C345.162 239.068 345.335 239.524 345.68 239.869C346.031 240.208 346.624 240.53 347.457 240.836C348.29 241.142 348.945 241.425 349.42 241.686C349.895 241.946 350.296 242.245 350.621 242.584C350.947 242.916 351.197 243.3 351.373 243.736C351.549 244.173 351.637 244.684 351.637 245.27C351.637 246.37 351.298 247.262 350.621 247.945C349.951 248.629 349.013 249.033 347.809 249.156V251.061H346.256V249.166C344.967 249.023 343.974 248.561 343.277 247.779C342.587 246.998 342.242 245.963 342.242 244.674H344.615C344.615 245.494 344.82 246.129 345.23 246.578C345.647 247.027 346.233 247.252 346.988 247.252C347.73 247.252 348.294 247.073 348.678 246.715C349.068 246.357 349.264 245.882 349.264 245.289ZM360.123 249H357.76V237.584L354.273 238.775V236.773L359.82 234.732H360.123V249ZM374.625 249H365.064V247.369L369.801 242.203C370.484 241.441 370.969 240.807 371.256 240.299C371.549 239.785 371.695 239.27 371.695 238.756C371.695 238.079 371.503 237.532 371.119 237.115C370.742 236.699 370.23 236.49 369.586 236.49C368.818 236.49 368.222 236.725 367.799 237.193C367.376 237.662 367.164 238.303 367.164 239.117H364.791C364.791 238.251 364.986 237.473 365.377 236.783C365.774 236.087 366.337 235.546 367.066 235.162C367.802 234.778 368.648 234.586 369.605 234.586C370.986 234.586 372.073 234.934 372.867 235.631C373.668 236.321 374.068 237.278 374.068 238.502C374.068 239.212 373.867 239.957 373.463 240.738C373.066 241.513 372.411 242.395 371.5 243.385L368.023 247.105H374.625V249ZM385.699 243.014C385.699 245.058 385.315 246.601 384.547 247.643C383.785 248.678 382.623 249.195 381.061 249.195C379.524 249.195 378.365 248.691 377.584 247.682C376.809 246.666 376.412 245.165 376.393 243.18V240.719C376.393 238.674 376.773 237.141 377.535 236.119C378.303 235.097 379.472 234.586 381.041 234.586C382.597 234.586 383.756 235.084 384.518 236.08C385.286 237.076 385.68 238.567 385.699 240.553V243.014ZM383.326 240.357C383.326 239.023 383.144 238.046 382.779 237.428C382.415 236.803 381.835 236.49 381.041 236.49C380.266 236.49 379.697 236.786 379.332 237.379C378.967 237.965 378.775 238.883 378.756 240.133V243.355C378.756 244.684 378.941 245.673 379.312 246.324C379.684 246.975 380.266 247.301 381.061 247.301C381.822 247.301 382.385 247.001 382.75 246.402C383.115 245.797 383.307 244.853 383.326 243.57V240.357Z" fill="#313131"/>
<path d="M610.807 249H608.443V237.584L604.957 238.775V236.773L610.504 234.732H610.807V249Z" fill="#313131"/>
<path d="M98.623 297H96.2598V285.584L92.7734 286.775V284.773L98.3203 282.732H98.623V297ZM112.832 291.014C112.832 293.058 112.448 294.601 111.68 295.643C110.918 296.678 109.756 297.195 108.193 297.195C106.657 297.195 105.498 296.691 104.717 295.682C103.942 294.666 103.545 293.165 103.525 291.18V288.719C103.525 286.674 103.906 285.141 104.668 284.119C105.436 283.097 106.605 282.586 108.174 282.586C109.73 282.586 110.889 283.084 111.65 284.08C112.419 285.076 112.812 286.567 112.832 288.553V291.014ZM110.459 288.357C110.459 287.023 110.277 286.046 109.912 285.428C109.548 284.803 108.968 284.49 108.174 284.49C107.399 284.49 106.829 284.786 106.465 285.379C106.1 285.965 105.908 286.883 105.889 288.133V291.355C105.889 292.684 106.074 293.673 106.445 294.324C106.816 294.975 107.399 295.301 108.193 295.301C108.955 295.301 109.518 295.001 109.883 294.402C110.247 293.797 110.439 292.853 110.459 291.57V288.357Z" fill="#313131"/>
<path d="M349.264 293.289C349.264 292.736 349.088 292.28 348.736 291.922C348.385 291.557 347.799 291.232 346.979 290.945C346.158 290.652 345.52 290.382 345.064 290.135C343.548 289.321 342.789 288.117 342.789 286.521C342.789 285.441 343.118 284.552 343.775 283.855C344.433 283.159 345.325 282.745 346.451 282.615V280.486H348.014V282.635C349.146 282.798 350.022 283.279 350.641 284.08C351.259 284.874 351.568 285.91 351.568 287.186H349.205C349.205 286.365 349.02 285.721 348.648 285.252C348.284 284.777 347.786 284.539 347.154 284.539C346.529 284.539 346.041 284.708 345.689 285.047C345.338 285.385 345.162 285.87 345.162 286.502C345.162 287.068 345.335 287.524 345.68 287.869C346.031 288.208 346.624 288.53 347.457 288.836C348.29 289.142 348.945 289.425 349.42 289.686C349.895 289.946 350.296 290.245 350.621 290.584C350.947 290.916 351.197 291.3 351.373 291.736C351.549 292.173 351.637 292.684 351.637 293.27C351.637 294.37 351.298 295.262 350.621 295.945C349.951 296.629 349.013 297.033 347.809 297.156V299.061H346.256V297.166C344.967 297.023 343.974 296.561 343.277 295.779C342.587 294.998 342.242 293.963 342.242 292.674H344.615C344.615 293.494 344.82 294.129 345.23 294.578C345.647 295.027 346.233 295.252 346.988 295.252C347.73 295.252 348.294 295.073 348.678 294.715C349.068 294.357 349.264 293.882 349.264 293.289ZM360.123 297H357.76V285.584L354.273 286.775V284.773L359.82 282.732H360.123V297ZM374.625 297H365.064V295.369L369.801 290.203C370.484 289.441 370.969 288.807 371.256 288.299C371.549 287.785 371.695 287.27 371.695 286.756C371.695 286.079 371.503 285.532 371.119 285.115C370.742 284.699 370.23 284.49 369.586 284.49C368.818 284.49 368.222 284.725 367.799 285.193C367.376 285.662 367.164 286.303 367.164 287.117H364.791C364.791 286.251 364.986 285.473 365.377 284.783C365.774 284.087 366.337 283.546 367.066 283.162C367.802 282.778 368.648 282.586 369.605 282.586C370.986 282.586 372.073 282.934 372.867 283.631C373.668 284.321 374.068 285.278 374.068 286.502C374.068 287.212 373.867 287.957 373.463 288.738C373.066 289.513 372.411 290.395 371.5 291.385L368.023 295.105H374.625V297ZM385.699 291.014C385.699 293.058 385.315 294.601 384.547 295.643C383.785 296.678 382.623 297.195 381.061 297.195C379.524 297.195 378.365 296.691 377.584 295.682C376.809 294.666 376.412 293.165 376.393 291.18V288.719C376.393 286.674 376.773 285.141 377.535 284.119C378.303 283.097 379.472 282.586 381.041 282.586C382.597 282.586 383.756 283.084 384.518 284.08C385.286 285.076 385.68 286.567 385.699 288.553V291.014ZM383.326 288.357C383.326 287.023 383.144 286.046 382.779 285.428C382.415 284.803 381.835 284.49 381.041 284.49C380.266 284.49 379.697 284.786 379.332 285.379C378.967 285.965 378.775 286.883 378.756 288.133V291.355C378.756 292.684 378.941 293.673 379.312 294.324C379.684 294.975 380.266 295.301 381.061 295.301C381.822 295.301 382.385 295.001 382.75 294.402C383.115 293.797 383.307 292.853 383.326 291.57V288.357Z" fill="#313131"/>
<path d="M610.807 297H608.443V285.584L604.957 286.775V284.773L610.504 282.732H610.807V297Z" fill="#313131"/>
<path d="M98.623 345H96.2598V333.584L92.7734 334.775V332.773L98.3203 330.732H98.623V345ZM112.832 339.014C112.832 341.058 112.448 342.601 111.68 343.643C110.918 344.678 109.756 345.195 108.193 345.195C106.657 345.195 105.498 344.691 104.717 343.682C103.942 342.666 103.545 341.165 103.525 339.18V336.719C103.525 334.674 103.906 333.141 104.668 332.119C105.436 331.097 106.605 330.586 108.174 330.586C109.73 330.586 110.889 331.084 111.65 332.08C112.419 333.076 112.812 334.567 112.832 336.553V339.014ZM110.459 336.357C110.459 335.023 110.277 334.046 109.912 333.428C109.548 332.803 108.968 332.49 108.174 332.49C107.399 332.49 106.829 332.786 106.465 333.379C106.1 333.965 105.908 334.883 105.889 336.133V339.355C105.889 340.684 106.074 341.673 106.445 342.324C106.816 342.975 107.399 343.301 108.193 343.301C108.955 343.301 109.518 343.001 109.883 342.402C110.247 341.797 110.439 340.853 110.459 339.57V336.357Z" fill="#313131"/>
<path d="M349.264 341.289C349.264 340.736 349.088 340.28 348.736 339.922C348.385 339.557 347.799 339.232 346.979 338.945C346.158 338.652 345.52 338.382 345.064 338.135C343.548 337.321 342.789 336.117 342.789 334.521C342.789 333.441 343.118 332.552 343.775 331.855C344.433 331.159 345.325 330.745 346.451 330.615V328.486H348.014V330.635C349.146 330.798 350.022 331.279 350.641 332.08C351.259 332.874 351.568 333.91 351.568 335.186H349.205C349.205 334.365 349.02 333.721 348.648 333.252C348.284 332.777 347.786 332.539 347.154 332.539C346.529 332.539 346.041 332.708 345.689 333.047C345.338 333.385 345.162 333.87 345.162 334.502C345.162 335.068 345.335 335.524 345.68 335.869C346.031 336.208 346.624 336.53 347.457 336.836C348.29 337.142 348.945 337.425 349.42 337.686C349.895 337.946 350.296 338.245 350.621 338.584C350.947 338.916 351.197 339.3 351.373 339.736C351.549 340.173 351.637 340.684 351.637 341.27C351.637 342.37 351.298 343.262 350.621 343.945C349.951 344.629 349.013 345.033 347.809 345.156V347.061H346.256V345.166C344.967 345.023 343.974 344.561 343.277 343.779C342.587 342.998 342.242 341.963 342.242 340.674H344.615C344.615 341.494 344.82 342.129 345.23 342.578C345.647 343.027 346.233 343.252 346.988 343.252C347.73 343.252 348.294 343.073 348.678 342.715C349.068 342.357 349.264 341.882 349.264 341.289ZM360.123 345H357.76V333.584L354.273 334.775V332.773L359.82 330.732H360.123V345ZM374.625 345H365.064V343.369L369.801 338.203C370.484 337.441 370.969 336.807 371.256 336.299C371.549 335.785 371.695 335.27 371.695 334.756C371.695 334.079 371.503 333.532 371.119 333.115C370.742 332.699 370.23 332.49 369.586 332.49C368.818 332.49 368.222 332.725 367.799 333.193C367.376 333.662 367.164 334.303 367.164 335.117H364.791C364.791 334.251 364.986 333.473 365.377 332.783C365.774 332.087 366.337 331.546 367.066 331.162C367.802 330.778 368.648 330.586 369.605 330.586C370.986 330.586 372.073 330.934 372.867 331.631C373.668 332.321 374.068 333.278 374.068 334.502C374.068 335.212 373.867 335.957 373.463 336.738C373.066 337.513 372.411 338.395 371.5 339.385L368.023 343.105H374.625V345ZM385.699 339.014C385.699 341.058 385.315 342.601 384.547 343.643C383.785 344.678 382.623 345.195 381.061 345.195C379.524 345.195 378.365 344.691 377.584 343.682C376.809 342.666 376.412 341.165 376.393 339.18V336.719C376.393 334.674 376.773 333.141 377.535 332.119C378.303 331.097 379.472 330.586 381.041 330.586C382.597 330.586 383.756 331.084 384.518 332.08C385.286 333.076 385.68 334.567 385.699 336.553V339.014ZM383.326 336.357C383.326 335.023 383.144 334.046 382.779 333.428C382.415 332.803 381.835 332.49 381.041 332.49C380.266 332.49 379.697 332.786 379.332 333.379C378.967 333.965 378.775 334.883 378.756 336.133V339.355C378.756 340.684 378.941 341.673 379.312 342.324C379.684 342.975 380.266 343.301 381.061 343.301C381.822 343.301 382.385 343.001 382.75 342.402C383.115 341.797 383.307 340.853 383.326 339.57V336.357Z" fill="#313131"/>
<path d="M610.807 345H608.443V333.584L604.957 334.775V332.773L610.504 330.732H610.807V345Z" fill="#313131"/>
<path d="M98.623 393H96.2598V381.584L92.7734 382.775V380.773L98.3203 378.732H98.623V393ZM112.832 387.014C112.832 389.058 112.448 390.601 111.68 391.643C110.918 392.678 109.756 393.195 108.193 393.195C106.657 393.195 105.498 392.691 104.717 391.682C103.942 390.666 103.545 389.165 103.525 387.18V384.719C103.525 382.674 103.906 381.141 104.668 380.119C105.436 379.097 106.605 378.586 108.174 378.586C109.73 378.586 110.889 379.084 111.65 380.08C112.419 381.076 112.812 382.567 112.832 384.553V387.014ZM110.459 384.357C110.459 383.023 110.277 382.046 109.912 381.428C109.548 380.803 108.968 380.49 108.174 380.49C107.399 380.49 106.829 380.786 106.465 381.379C106.1 381.965 105.908 382.883 105.889 384.133V387.355C105.889 388.684 106.074 389.673 106.445 390.324C106.816 390.975 107.399 391.301 108.193 391.301C108.955 391.301 109.518 391.001 109.883 390.402C110.247 389.797 110.439 388.853 110.459 387.57V384.357Z" fill="#313131"/>
<path d="M349.264 389.289C349.264 388.736 349.088 388.28 348.736 387.922C348.385 387.557 347.799 387.232 346.979 386.945C346.158 386.652 345.52 386.382 345.064 386.135C343.548 385.321 342.789 384.117 342.789 382.521C342.789 381.441 343.118 380.552 343.775 379.855C344.433 379.159 345.325 378.745 346.451 378.615V376.486H348.014V378.635C349.146 378.798 350.022 379.279 350.641 380.08C351.259 380.874 351.568 381.91 351.568 383.186H349.205C349.205 382.365 349.02 381.721 348.648 381.252C348.284 380.777 347.786 380.539 347.154 380.539C346.529 380.539 346.041 380.708 345.689 381.047C345.338 381.385 345.162 381.87 345.162 382.502C345.162 383.068 345.335 383.524 345.68 383.869C346.031 384.208 346.624 384.53 347.457 384.836C348.29 385.142 348.945 385.425 349.42 385.686C349.895 385.946 350.296 386.245 350.621 386.584C350.947 386.916 351.197 387.3 351.373 387.736C351.549 388.173 351.637 388.684 351.637 389.27C351.637 390.37 351.298 391.262 350.621 391.945C349.951 392.629 349.013 393.033 347.809 393.156V395.061H346.256V393.166C344.967 393.023 343.974 392.561 343.277 391.779C342.587 390.998 342.242 389.963 342.242 388.674H344.615C344.615 389.494 344.82 390.129 345.23 390.578C345.647 391.027 346.233 391.252 346.988 391.252C347.73 391.252 348.294 391.073 348.678 390.715C349.068 390.357 349.264 389.882 349.264 389.289ZM360.123 393H357.76V381.584L354.273 382.775V380.773L359.82 378.732H360.123V393ZM374.625 393H365.064V391.369L369.801 386.203C370.484 385.441 370.969 384.807 371.256 384.299C371.549 383.785 371.695 383.27 371.695 382.756C371.695 382.079 371.503 381.532 371.119 381.115C370.742 380.699 370.23 380.49 369.586 380.49C368.818 380.49 368.222 380.725 367.799 381.193C367.376 381.662 367.164 382.303 367.164 383.117H364.791C364.791 382.251 364.986 381.473 365.377 380.783C365.774 380.087 366.337 379.546 367.066 379.162C367.802 378.778 368.648 378.586 369.605 378.586C370.986 378.586 372.073 378.934 372.867 379.631C373.668 380.321 374.068 381.278 374.068 382.502C374.068 383.212 373.867 383.957 373.463 384.738C373.066 385.513 372.411 386.395 371.5 387.385L368.023 391.105H374.625V393ZM385.699 387.014C385.699 389.058 385.315 390.601 384.547 391.643C383.785 392.678 382.623 393.195 381.061 393.195C379.524 393.195 378.365 392.691 377.584 391.682C376.809 390.666 376.412 389.165 376.393 387.18V384.719C376.393 382.674 376.773 381.141 377.535 380.119C378.303 379.097 379.472 378.586 381.041 378.586C382.597 378.586 383.756 379.084 384.518 380.08C385.286 381.076 385.68 382.567 385.699 384.553V387.014ZM383.326 384.357C383.326 383.023 383.144 382.046 382.779 381.428C382.415 380.803 381.835 380.49 381.041 380.49C380.266 380.49 379.697 380.786 379.332 381.379C378.967 381.965 378.775 382.883 378.756 384.133V387.355C378.756 388.684 378.941 389.673 379.312 390.324C379.684 390.975 380.266 391.301 381.061 391.301C381.822 391.301 382.385 391.001 382.75 390.402C383.115 389.797 383.307 388.853 383.326 387.57V384.357Z" fill="#313131"/>
<path d="M610.807 393H608.443V381.584L604.957 382.775V380.773L610.504 378.732H610.807V393Z" fill="#313131"/>
<path d="M98.623 441H96.2598V429.584L92.7734 430.775V428.773L98.3203 426.732H98.623V441ZM112.832 435.014C112.832 437.058 112.448 438.601 111.68 439.643C110.918 440.678 109.756 441.195 108.193 441.195C106.657 441.195 105.498 440.691 104.717 439.682C103.942 438.666 103.545 437.165 103.525 435.18V432.719C103.525 430.674 103.906 429.141 104.668 428.119C105.436 427.097 106.605 426.586 108.174 426.586C109.73 426.586 110.889 427.084 111.65 428.08C112.419 429.076 112.812 430.567 112.832 432.553V435.014ZM110.459 432.357C110.459 431.023 110.277 430.046 109.912 429.428C109.548 428.803 108.968 428.49 108.174 428.49C107.399 428.49 106.829 428.786 106.465 429.379C106.1 429.965 105.908 430.883 105.889 432.133V435.355C105.889 436.684 106.074 437.673 106.445 438.324C106.816 438.975 107.399 439.301 108.193 439.301C108.955 439.301 109.518 439.001 109.883 438.402C110.247 437.797 110.439 436.853 110.459 435.57V432.357Z" fill="#313131"/>
<path d="M349.264 437.289C349.264 436.736 349.088 436.28 348.736 435.922C348.385 435.557 347.799 435.232 346.979 434.945C346.158 434.652 345.52 434.382 345.064 434.135C343.548 433.321 342.789 432.117 342.789 430.521C342.789 429.441 343.118 428.552 343.775 427.855C344.433 427.159 345.325 426.745 346.451 426.615V424.486H348.014V426.635C349.146 426.798 350.022 427.279 350.641 428.08C351.259 428.874 351.568 429.91 351.568 431.186H349.205C349.205 430.365 349.02 429.721 348.648 429.252C348.284 428.777 347.786 428.539 347.154 428.539C346.529 428.539 346.041 428.708 345.689 429.047C345.338 429.385 345.162 429.87 345.162 430.502C345.162 431.068 345.335 431.524 345.68 431.869C346.031 432.208 346.624 432.53 347.457 432.836C348.29 433.142 348.945 433.425 349.42 433.686C349.895 433.946 350.296 434.245 350.621 434.584C350.947 434.916 351.197 435.3 351.373 435.736C351.549 436.173 351.637 436.684 351.637 437.27C351.637 438.37 351.298 439.262 350.621 439.945C349.951 440.629 349.013 441.033 347.809 441.156V443.061H346.256V441.166C344.967 441.023 343.974 440.561 343.277 439.779C342.587 438.998 342.242 437.963 342.242 436.674H344.615C344.615 437.494 344.82 438.129 345.23 438.578C345.647 439.027 346.233 439.252 346.988 439.252C347.73 439.252 348.294 439.073 348.678 438.715C349.068 438.357 349.264 437.882 349.264 437.289ZM360.123 441H357.76V429.584L354.273 430.775V428.773L359.82 426.732H360.123V441ZM374.625 441H365.064V439.369L369.801 434.203C370.484 433.441 370.969 432.807 371.256 432.299C371.549 431.785 371.695 431.27 371.695 430.756C371.695 430.079 371.503 429.532 371.119 429.115C370.742 428.699 370.23 428.49 369.586 428.49C368.818 428.49 368.222 428.725 367.799 429.193C367.376 429.662 367.164 430.303 367.164 431.117H364.791C364.791 430.251 364.986 429.473 365.377 428.783C365.774 428.087 366.337 427.546 367.066 427.162C367.802 426.778 368.648 426.586 369.605 426.586C370.986 426.586 372.073 426.934 372.867 427.631C373.668 428.321 374.068 429.278 374.068 430.502C374.068 431.212 373.867 431.957 373.463 432.738C373.066 433.513 372.411 434.395 371.5 435.385L368.023 439.105H374.625V441ZM385.699 435.014C385.699 437.058 385.315 438.601 384.547 439.643C383.785 440.678 382.623 441.195 381.061 441.195C379.524 441.195 378.365 440.691 377.584 439.682C376.809 438.666 376.412 437.165 376.393 435.18V432.719C376.393 430.674 376.773 429.141 377.535 428.119C378.303 427.097 379.472 426.586 381.041 426.586C382.597 426.586 383.756 427.084 384.518 428.08C385.286 429.076 385.68 430.567 385.699 432.553V435.014ZM383.326 432.357C383.326 431.023 383.144 430.046 382.779 429.428C382.415 428.803 381.835 428.49 381.041 428.49C380.266 428.49 379.697 428.786 379.332 429.379C378.967 429.965 378.775 430.883 378.756 432.133V435.355C378.756 436.684 378.941 437.673 379.312 438.324C379.684 438.975 380.266 439.301 381.061 439.301C381.822 439.301 382.385 439.001 382.75 438.402C383.115 437.797 383.307 436.853 383.326 435.57V432.357Z" fill="#313131"/>
<path d="M610.807 441H608.443V429.584L604.957 430.775V428.773L610.504 426.732H610.807V441Z" fill="#313131"/>
<path d="M98.623 489H96.2598V477.584L92.7734 478.775V476.773L98.3203 474.732H98.623V489ZM112.832 483.014C112.832 485.058 112.448 486.601 111.68 487.643C110.918 488.678 109.756 489.195 108.193 489.195C106.657 489.195 105.498 488.691 104.717 487.682C103.942 486.666 103.545 485.165 103.525 483.18V480.719C103.525 478.674 103.906 477.141 104.668 476.119C105.436 475.097 106.605 474.586 108.174 474.586C109.73 474.586 110.889 475.084 111.65 476.08C112.419 477.076 112.812 478.567 112.832 480.553V483.014ZM110.459 480.357C110.459 479.023 110.277 478.046 109.912 477.428C109.548 476.803 108.968 476.49 108.174 476.49C107.399 476.49 106.829 476.786 106.465 477.379C106.1 477.965 105.908 478.883 105.889 480.133V483.355C105.889 484.684 106.074 485.673 106.445 486.324C106.816 486.975 107.399 487.301 108.193 487.301C108.955 487.301 109.518 487.001 109.883 486.402C110.247 485.797 110.439 484.853 110.459 483.57V480.357Z" fill="#313131"/>
<path d="M349.264 485.289C349.264 484.736 349.088 484.28 348.736 483.922C348.385 483.557 347.799 483.232 346.979 482.945C346.158 482.652 345.52 482.382 345.064 482.135C343.548 481.321 342.789 480.117 342.789 478.521C342.789 477.441 343.118 476.552 343.775 475.855C344.433 475.159 345.325 474.745 346.451 474.615V472.486H348.014V474.635C349.146 474.798 350.022 475.279 350.641 476.08C351.259 476.874 351.568 477.91 351.568 479.186H349.205C349.205 478.365 349.02 477.721 348.648 477.252C348.284 476.777 347.786 476.539 347.154 476.539C346.529 476.539 346.041 476.708 345.689 477.047C345.338 477.385 345.162 477.87 345.162 478.502C345.162 479.068 345.335 479.524 345.68 479.869C346.031 480.208 346.624 480.53 347.457 480.836C348.29 481.142 348.945 481.425 349.42 481.686C349.895 481.946 350.296 482.245 350.621 482.584C350.947 482.916 351.197 483.3 351.373 483.736C351.549 484.173 351.637 484.684 351.637 485.27C351.637 486.37 351.298 487.262 350.621 487.945C349.951 488.629 349.013 489.033 347.809 489.156V491.061H346.256V489.166C344.967 489.023 343.974 488.561 343.277 487.779C342.587 486.998 342.242 485.963 342.242 484.674H344.615C344.615 485.494 344.82 486.129 345.23 486.578C345.647 487.027 346.233 487.252 346.988 487.252C347.73 487.252 348.294 487.073 348.678 486.715C349.068 486.357 349.264 485.882 349.264 485.289ZM360.123 489H357.76V477.584L354.273 478.775V476.773L359.82 474.732H360.123V489ZM374.625 489H365.064V487.369L369.801 482.203C370.484 481.441 370.969 480.807 371.256 480.299C371.549 479.785 371.695 479.27 371.695 478.756C371.695 478.079 371.503 477.532 371.119 477.115C370.742 476.699 370.23 476.49 369.586 476.49C368.818 476.49 368.222 476.725 367.799 477.193C367.376 477.662 367.164 478.303 367.164 479.117H364.791C364.791 478.251 364.986 477.473 365.377 476.783C365.774 476.087 366.337 475.546 367.066 475.162C367.802 474.778 368.648 474.586 369.605 474.586C370.986 474.586 372.073 474.934 372.867 475.631C373.668 476.321 374.068 477.278 374.068 478.502C374.068 479.212 373.867 479.957 373.463 480.738C373.066 481.513 372.411 482.395 371.5 483.385L368.023 487.105H374.625V489ZM385.699 483.014C385.699 485.058 385.315 486.601 384.547 487.643C383.785 488.678 382.623 489.195 381.061 489.195C379.524 489.195 378.365 488.691 377.584 487.682C376.809 486.666 376.412 485.165 376.393 483.18V480.719C376.393 478.674 376.773 477.141 377.535 476.119C378.303 475.097 379.472 474.586 381.041 474.586C382.597 474.586 383.756 475.084 384.518 476.08C385.286 477.076 385.68 478.567 385.699 480.553V483.014ZM383.326 480.357C383.326 479.023 383.144 478.046 382.779 477.428C382.415 476.803 381.835 476.49 381.041 476.49C380.266 476.49 379.697 476.786 379.332 477.379C378.967 477.965 378.775 478.883 378.756 480.133V483.355C378.756 484.684 378.941 485.673 379.312 486.324C379.684 486.975 380.266 487.301 381.061 487.301C381.822 487.301 382.385 487.001 382.75 486.402C383.115 485.797 383.307 484.853 383.326 483.57V480.357Z" fill="#313131"/>
<path d="M610.807 489H608.443V477.584L604.957 478.775V476.773L610.504 474.732H610.807V489Z" fill="#313131"/>
<path d="M570.12 135.338H563.699L562.478 139H558.584L565.2 121.227H568.594L575.247 139H571.353L570.12 135.338ZM564.688 132.372H569.131L566.897 125.719L564.688 132.372ZM581.008 134.691L583.462 125.792H587.148L582.693 139H579.324L574.868 125.792H578.555L581.008 134.691ZM596.169 139C596.007 138.683 595.889 138.288 595.815 137.816C594.961 138.768 593.85 139.244 592.483 139.244C591.189 139.244 590.115 138.87 589.26 138.121C588.414 137.372 587.991 136.428 587.991 135.289C587.991 133.889 588.507 132.815 589.541 132.066C590.583 131.318 592.084 130.939 594.045 130.931H595.669V130.174C595.669 129.564 595.51 129.076 595.193 128.709C594.884 128.343 594.391 128.16 593.716 128.16C593.122 128.16 592.654 128.303 592.312 128.587C591.978 128.872 591.812 129.263 591.812 129.759H588.284C588.284 128.994 588.52 128.286 588.992 127.635C589.464 126.984 590.131 126.476 590.994 126.109C591.856 125.735 592.825 125.548 593.899 125.548C595.527 125.548 596.816 125.959 597.769 126.781C598.729 127.595 599.209 128.742 599.209 130.223V135.948C599.217 137.201 599.392 138.15 599.734 138.792V139H596.169ZM593.252 136.546C593.773 136.546 594.253 136.432 594.692 136.205C595.132 135.969 595.457 135.655 595.669 135.265V132.994H594.351C592.585 132.994 591.645 133.604 591.531 134.825L591.519 135.033C591.519 135.472 591.673 135.834 591.982 136.119C592.292 136.404 592.715 136.546 593.252 136.546ZM605.642 139H602.102V125.792H605.642V139ZM601.895 122.374C601.895 121.845 602.069 121.41 602.419 121.068C602.778 120.726 603.262 120.555 603.872 120.555C604.474 120.555 604.954 120.726 605.312 121.068C605.671 121.41 605.85 121.845 605.85 122.374C605.85 122.911 605.667 123.351 605.3 123.692C604.942 124.034 604.466 124.205 603.872 124.205C603.278 124.205 602.798 124.034 602.432 123.692C602.074 123.351 601.895 122.911 601.895 122.374ZM612.283 139H608.743V120.25H612.283V139ZM622.854 139C622.691 138.683 622.573 138.288 622.5 137.816C621.646 138.768 620.535 139.244 619.167 139.244C617.874 139.244 616.799 138.87 615.945 138.121C615.098 137.372 614.675 136.428 614.675 135.289C614.675 133.889 615.192 132.815 616.226 132.066C617.267 131.318 618.769 130.939 620.73 130.931H622.354V130.174C622.354 129.564 622.195 129.076 621.877 128.709C621.568 128.343 621.076 128.16 620.4 128.16C619.806 128.16 619.338 128.303 618.997 128.587C618.663 128.872 618.496 129.263 618.496 129.759H614.968C614.968 128.994 615.204 128.286 615.676 127.635C616.148 126.984 616.816 126.476 617.678 126.109C618.541 125.735 619.509 125.548 620.583 125.548C622.211 125.548 623.501 125.959 624.453 126.781C625.413 127.595 625.894 128.742 625.894 130.223V135.948C625.902 137.201 626.077 138.15 626.418 138.792V139H622.854ZM619.937 136.546C620.457 136.546 620.938 136.432 621.377 136.205C621.816 135.969 622.142 135.655 622.354 135.265V132.994H621.035C619.269 132.994 618.329 133.604 618.215 134.825L618.203 135.033C618.203 135.472 618.358 135.834 618.667 136.119C618.976 136.404 619.399 136.546 619.937 136.546ZM640.505 132.518C640.505 134.634 640.054 136.286 639.15 137.474C638.247 138.654 636.986 139.244 635.366 139.244C633.934 139.244 632.791 138.695 631.936 137.596L631.777 139H628.604V120.25H632.131V126.976C632.945 126.024 634.015 125.548 635.342 125.548C636.953 125.548 638.215 126.142 639.126 127.33C640.046 128.51 640.505 130.174 640.505 132.323V132.518ZM636.978 132.262C636.978 130.927 636.766 129.955 636.343 129.344C635.92 128.726 635.289 128.417 634.451 128.417C633.328 128.417 632.555 128.876 632.131 129.796V135.008C632.563 135.936 633.344 136.4 634.475 136.4C635.614 136.4 636.363 135.838 636.721 134.715C636.892 134.178 636.978 133.36 636.978 132.262ZM646.414 139H642.874V120.25H646.414V139ZM655.41 139.244C653.473 139.244 651.895 138.65 650.674 137.462C649.461 136.274 648.855 134.691 648.855 132.713V132.372C648.855 131.045 649.111 129.861 649.624 128.819C650.137 127.77 650.861 126.964 651.797 126.402C652.741 125.833 653.815 125.548 655.02 125.548C656.826 125.548 658.246 126.118 659.28 127.257C660.321 128.396 660.842 130.012 660.842 132.103V133.543H652.432C652.546 134.406 652.887 135.098 653.457 135.619C654.035 136.139 654.763 136.4 655.642 136.4C657.001 136.4 658.063 135.908 658.828 134.923L660.562 136.864C660.033 137.612 659.316 138.198 658.413 138.622C657.51 139.037 656.509 139.244 655.41 139.244ZM655.007 128.404C654.307 128.404 653.738 128.64 653.298 129.112C652.867 129.584 652.59 130.26 652.468 131.139H657.375V130.858C657.359 130.077 657.148 129.474 656.741 129.051C656.334 128.62 655.756 128.404 655.007 128.404Z" fill="#313131"/>
<path d="M315.891 139V121.227H322.117C324.273 121.227 325.909 121.642 327.024 122.472C328.139 123.294 328.696 124.502 328.696 126.097C328.696 126.968 328.472 127.737 328.025 128.404C327.577 129.063 326.955 129.548 326.157 129.857C327.069 130.085 327.785 130.545 328.306 131.236C328.835 131.928 329.099 132.774 329.099 133.775C329.099 135.484 328.554 136.778 327.463 137.657C326.373 138.536 324.819 138.984 322.8 139H315.891ZM319.553 131.261V136.058H322.69C323.553 136.058 324.224 135.855 324.705 135.448C325.193 135.033 325.437 134.463 325.437 133.739C325.437 132.111 324.595 131.285 322.91 131.261H319.553ZM319.553 128.673H322.263C324.111 128.64 325.034 127.904 325.034 126.463C325.034 125.658 324.798 125.08 324.326 124.73C323.862 124.372 323.126 124.193 322.117 124.193H319.553V128.673ZM335.349 139H331.809V125.792H335.349V139ZM331.602 122.374C331.602 121.845 331.777 121.41 332.126 121.068C332.485 120.726 332.969 120.555 333.579 120.555C334.181 120.555 334.661 120.726 335.02 121.068C335.378 121.41 335.557 121.845 335.557 122.374C335.557 122.911 335.374 123.351 335.007 123.692C334.649 124.034 334.173 124.205 333.579 124.205C332.985 124.205 332.505 124.034 332.139 123.692C331.781 123.351 331.602 122.911 331.602 122.374ZM337.717 132.298C337.717 130.239 338.177 128.6 339.097 127.379C340.024 126.158 341.29 125.548 342.893 125.548C344.179 125.548 345.241 126.028 346.079 126.988V120.25H349.619V139H346.433L346.262 137.596C345.383 138.695 344.252 139.244 342.869 139.244C341.314 139.244 340.065 138.634 339.121 137.413C338.185 136.184 337.717 134.479 337.717 132.298ZM341.245 132.555C341.245 133.792 341.461 134.74 341.892 135.399C342.323 136.058 342.95 136.388 343.772 136.388C344.862 136.388 345.632 135.928 346.079 135.008V129.796C345.64 128.876 344.879 128.417 343.796 128.417C342.096 128.417 341.245 129.796 341.245 132.555ZM362.473 132.738V139H358.811V121.227H365.745C367.079 121.227 368.251 121.471 369.26 121.959C370.278 122.447 371.059 123.143 371.604 124.046C372.149 124.942 372.422 125.963 372.422 127.11C372.422 128.852 371.824 130.227 370.627 131.236C369.439 132.237 367.791 132.738 365.684 132.738H362.473ZM362.473 129.771H365.745C366.713 129.771 367.45 129.544 367.954 129.088C368.467 128.632 368.723 127.981 368.723 127.135C368.723 126.264 368.467 125.56 367.954 125.023C367.441 124.486 366.733 124.209 365.83 124.193H362.473V129.771ZM382.139 129.1C381.659 129.035 381.235 129.002 380.869 129.002C379.535 129.002 378.66 129.454 378.245 130.357V139H374.717V125.792H378.049L378.147 127.367C378.855 126.154 379.836 125.548 381.089 125.548C381.479 125.548 381.846 125.601 382.188 125.707L382.139 129.1ZM387.571 139H384.031V125.792H387.571V139ZM383.823 122.374C383.823 121.845 383.998 121.41 384.348 121.068C384.706 120.726 385.19 120.555 385.801 120.555C386.403 120.555 386.883 120.726 387.241 121.068C387.599 121.41 387.778 121.845 387.778 122.374C387.778 122.911 387.595 123.351 387.229 123.692C386.871 124.034 386.395 124.205 385.801 124.205C385.207 124.205 384.727 124.034 384.36 123.692C384.002 123.351 383.823 122.911 383.823 122.374ZM395.981 136.4C396.632 136.4 397.161 136.221 397.568 135.863C397.975 135.505 398.187 135.029 398.203 134.435H401.511C401.503 135.33 401.259 136.152 400.779 136.9C400.299 137.641 399.639 138.219 398.801 138.634C397.971 139.041 397.052 139.244 396.042 139.244C394.154 139.244 392.665 138.646 391.575 137.45C390.484 136.245 389.939 134.585 389.939 132.469V132.237C389.939 130.203 390.48 128.579 391.562 127.367C392.645 126.154 394.13 125.548 396.018 125.548C397.67 125.548 398.993 126.02 399.985 126.964C400.986 127.9 401.495 129.149 401.511 130.711H398.203C398.187 130.028 397.975 129.474 397.568 129.051C397.161 128.62 396.624 128.404 395.957 128.404C395.135 128.404 394.513 128.705 394.089 129.308C393.674 129.902 393.467 130.87 393.467 132.213V132.579C393.467 133.938 393.674 134.915 394.089 135.509C394.504 136.103 395.135 136.4 395.981 136.4ZM409.604 139.244C407.668 139.244 406.089 138.65 404.868 137.462C403.656 136.274 403.049 134.691 403.049 132.713V132.372C403.049 131.045 403.306 129.861 403.818 128.819C404.331 127.77 405.055 126.964 405.991 126.402C406.935 125.833 408.009 125.548 409.214 125.548C411.021 125.548 412.441 126.118 413.474 127.257C414.516 128.396 415.037 130.012 415.037 132.103V133.543H406.626C406.74 134.406 407.082 135.098 407.651 135.619C408.229 136.139 408.958 136.4 409.836 136.4C411.195 136.4 412.257 135.908 413.022 134.923L414.756 136.864C414.227 137.612 413.511 138.198 412.607 138.622C411.704 139.037 410.703 139.244 409.604 139.244ZM409.202 128.404C408.502 128.404 407.932 128.64 407.493 129.112C407.061 129.584 406.785 130.26 406.663 131.139H411.57V130.858C411.554 130.077 411.342 129.474 410.935 129.051C410.528 128.62 409.95 128.404 409.202 128.404Z" fill="#313131"/>
<defs>
<filter id="filter0_d_0:1" x="0" y="0" width="731" height="567" filterUnits="userSpaceOnUse" color-interpolation-filters="sRGB">
<feFlood flood-opacity="0" result="BackgroundImageFix"/>
<feColorMatrix in="SourceAlpha" type="matrix" values="0 0 0 0 0 0 0 0 0 0 0 0 0 0 0 0 0 0 127 0" result="hardAlpha"/>
<feMorphology radius="2" operator="dilate" in="SourceAlpha" result="effect1_dropShadow_0:1"/>
<feOffset dx="1" dy="1"/>
<feGaussianBlur stdDeviation="7.5"/>
<feComposite in2="hardAlpha" operator="out"/>
<feColorMatrix type="matrix" values="0 0 0 0 0 0 0 0 0 0 0 0 0 0 0 0 0 0 0.15 0"/>
<feBlend mode="normal" in2="BackgroundImageFix" result="effect1_dropShadow_0:1"/>
<feBlend mode="normal" in="SourceGraphic" in2="effect1_dropShadow_0:1" result="shape"/>
</filter>
</defs>
</svg>
