<svg width="26" height="23" viewBox="0 0 26 23" fill="none" xmlns="http://www.w3.org/2000/svg">
<path d="M10.5813 13.5174L10.5075 13.697L10.5813 13.5174C10.2206 13.3693 9.86021 13.2776 9.58564 13.2776C9.08876 13.2776 8.43019 13.4123 7.70661 13.6421C6.9796 13.8729 6.17396 14.2039 5.37888 14.6063C3.16432 15.7269 1.59176 17.0686 1.00918 18.4026C0.71911 19.0668 0.731724 19.9942 1.04078 20.6451C1.31655 21.2259 1.91244 21.8 2.48439 22.0274L2.55828 21.8415L2.48442 22.0274C2.71489 22.119 2.89846 22.1553 4.21516 22.1752C5.54457 22.1953 8.0587 22.197 12.9853 22.1991C17.96 22.201 20.4734 22.2017 21.7931 22.1823C23.103 22.163 23.2649 22.1253 23.5063 22.0318L23.4391 21.8581L23.5063 22.0318C24.0955 21.8038 24.6916 21.2372 24.9727 20.6451L24.8335 20.579L24.9727 20.6451C25.0646 20.4516 25.1249 20.3009 25.1593 20.1204C25.1929 19.9442 25.2 19.7486 25.2 19.4685C25.2 19.1747 25.1944 18.9785 25.154 18.7919C25.1133 18.6035 25.0392 18.4347 24.9228 18.1916C24.7411 17.8125 24.3736 17.3408 23.9381 16.8856C23.4998 16.4273 22.9788 15.9716 22.477 15.6267C21.0741 14.6624 18.957 13.7175 17.4888 13.4042C17.0533 13.3113 16.7082 13.2675 16.3849 13.2846C16.0585 13.3019 15.7654 13.3805 15.4322 13.5174C14.6732 13.8292 13.9289 13.9689 13.0067 13.9689C12.0845 13.9689 11.3402 13.8292 10.5813 13.5174ZM15.8079 15.1893L15.7393 15.0014L15.8079 15.1893C16.1746 15.0554 16.3943 14.9999 16.6448 15.0066C16.9039 15.0136 17.2098 15.0872 17.7474 15.2484C19.6322 15.8133 21.7656 17.0052 22.7964 18.0556C23.275 18.5434 23.5153 18.9943 23.5575 19.3742C23.598 19.739 23.4593 20.0679 23.104 20.3423C23.082 20.3593 23.0781 20.3616 23.0668 20.3659C23.0494 20.3726 23.0114 20.3832 22.9247 20.3937C22.7505 20.4147 22.4286 20.4301 21.7918 20.4411C20.5236 20.463 18.044 20.4673 13.0938 20.4756C12.6312 20.4764 12.1897 20.4772 11.7682 20.4779C7.32349 20.4857 5.10772 20.4896 3.96657 20.4493C3.33473 20.427 3.05822 20.3913 2.91859 20.3461C2.85775 20.3263 2.83192 20.3074 2.81353 20.2904C2.79486 20.2732 2.78424 20.2603 2.76705 20.2394C2.7538 20.2232 2.73665 20.2024 2.70892 20.1711C2.49896 19.9347 2.41654 19.6828 2.44028 19.4139C2.46467 19.1378 2.60324 18.8227 2.87734 18.4749C3.4272 17.7772 4.4788 17.0028 6.00559 16.2246C6.58928 15.927 7.2385 15.646 7.82575 15.4288C8.41714 15.21 8.93144 15.0613 9.24988 15.0205C9.41544 14.9993 9.52082 14.9967 9.64507 15.018C9.77644 15.0406 9.93637 15.091 10.2094 15.1906C11.1399 15.5303 11.9758 15.6746 13.0067 15.6746C14.0389 15.6746 14.8737 15.5303 15.8079 15.1893ZM8.62354 2.65587L8.75757 2.78545L8.62354 2.65587C7.31769 4.00661 6.71482 5.6229 6.81767 7.49777C6.87372 8.51955 7.0134 9.07925 7.44059 9.99105L7.5912 9.92049L7.4406 9.99105C8.29679 11.8184 9.90002 13.0774 11.8897 13.4866L11.9299 13.2907L11.8897 13.4866C12.2319 13.557 12.7208 13.5791 13.2032 13.5631C13.6863 13.547 14.1831 13.4919 14.5421 13.3991C14.8984 13.307 15.3461 13.1182 15.7715 12.8965C16.1971 12.6747 16.6145 12.4125 16.9075 12.1669L16.9075 12.1669C17.5938 11.5913 18.1853 10.8183 18.573 9.99109C18.8156 9.47357 18.969 9.08104 19.0601 8.65829C19.1511 8.23645 19.1782 7.79425 19.1801 7.18023C19.1821 6.54943 19.158 6.1055 19.0608 5.67211C18.9635 5.23876 18.7955 4.82635 18.5239 4.25537C18.3576 3.90586 18.2334 3.66887 18.0732 3.44094C17.9135 3.21384 17.7223 3.00173 17.4289 2.69709L17.2882 2.83265L17.4289 2.69709C16.624 1.86109 15.9769 1.4372 14.9305 1.06356L14.9305 1.06355C14.5922 0.942812 14.3868 0.87275 14.1227 0.836899C13.8656 0.801984 13.5557 0.8 13.0067 0.8C12.4578 0.8 12.1479 0.801948 11.8908 0.836843C11.6267 0.872676 11.4213 0.942745 11.0829 1.06356C10.0614 1.42833 9.38936 1.86373 8.62354 2.65587ZM14.4089 11.6385L14.4088 11.6385C14.1003 11.7394 13.7027 11.8121 13.3104 11.846C12.9166 11.88 12.5439 11.8735 12.2832 11.8243L12.25 11.9999L12.2832 11.8243C10.1497 11.422 8.59562 9.63619 8.4768 7.44464C8.43 6.58129 8.57311 5.8619 8.9492 5.07284L8.7794 4.99191L8.94921 5.07284C9.46602 3.98853 10.3606 3.16663 11.5213 2.71496L11.5214 2.71495C11.7677 2.61905 11.9134 2.57149 12.0993 2.54445C12.2919 2.51644 12.5328 2.50965 12.9706 2.50746L12.9707 2.50746C13.7272 2.50352 13.9915 2.5344 14.277 2.63494C16.3812 3.37613 17.6551 5.26026 17.5367 7.44464C17.432 9.37568 16.1667 11.0642 14.4089 11.6385Z" fill="#3CB043" stroke="#3CB043" stroke-width="0.4"/>
</svg>
