<svg width="346" height="370" viewBox="0 0 346 370" fill="none" xmlns="http://www.w3.org/2000/svg">
<path d="M253 79C253 122.63 217.63 158 174 158C130.37 158 95 122.63 95 79C95 35.3695 130.37 0 174 0C217.63 0 253 35.3695 253 79ZM100.681 79C100.681 119.493 133.507 152.319 174 152.319C214.493 152.319 247.319 119.493 247.319 79C247.319 38.5069 214.493 5.68077 174 5.68077C133.507 5.68077 100.681 38.5069 100.681 79Z" fill="#3CB043"/>
<path d="M58.5972 222.845C58.5972 221.932 58.2749 221.233 57.6304 220.75C56.9858 220.256 55.8257 219.74 54.1499 219.203C52.4741 218.655 51.1475 218.118 50.1699 217.592C47.5059 216.152 46.1738 214.213 46.1738 211.775C46.1738 210.507 46.5283 209.379 47.2373 208.391C47.957 207.392 48.9829 206.613 50.3149 206.055C51.6577 205.496 53.1616 205.217 54.8267 205.217C56.5024 205.217 57.9956 205.523 59.3062 206.135C60.6167 206.737 61.6318 207.591 62.3516 208.697C63.082 209.804 63.4473 211.061 63.4473 212.468H58.6133C58.6133 211.394 58.2749 210.561 57.5981 209.97C56.9214 209.369 55.9707 209.068 54.7461 209.068C53.5645 209.068 52.646 209.32 51.9907 209.825C51.3354 210.319 51.0078 210.975 51.0078 211.791C51.0078 212.554 51.3892 213.193 52.1519 213.708C52.9253 214.224 54.0586 214.708 55.5518 215.159C58.3018 215.986 60.3052 217.012 61.562 218.236C62.8188 219.461 63.4473 220.986 63.4473 222.812C63.4473 224.843 62.6792 226.438 61.1431 227.598C59.6069 228.748 57.5391 229.322 54.9395 229.322C53.1348 229.322 51.4912 228.995 50.0088 228.339C48.5264 227.673 47.3931 226.766 46.6089 225.616C45.8354 224.467 45.4487 223.135 45.4487 221.62H50.2988C50.2988 224.209 51.8457 225.503 54.9395 225.503C56.0889 225.503 56.9858 225.272 57.6304 224.811C58.2749 224.338 58.5972 223.683 58.5972 222.845ZM74.4526 229.322C71.896 229.322 69.812 228.538 68.2007 226.97C66.6001 225.401 65.7998 223.312 65.7998 220.702V220.25C65.7998 218.5 66.1382 216.937 66.8149 215.562C67.4917 214.176 68.4478 213.112 69.6831 212.371C70.9292 211.619 72.3472 211.243 73.937 211.243C76.3218 211.243 78.1963 211.995 79.5605 213.499C80.9355 215.003 81.623 217.135 81.623 219.896V221.797H70.521C70.6714 222.936 71.1226 223.849 71.8745 224.537C72.6372 225.224 73.5986 225.568 74.7588 225.568C76.5527 225.568 77.9546 224.918 78.9644 223.618L81.2524 226.18C80.5542 227.168 79.6089 227.942 78.4165 228.5C77.2241 229.048 75.9028 229.322 74.4526 229.322ZM73.9209 215.014C72.9971 215.014 72.2451 215.325 71.665 215.948C71.0957 216.571 70.7305 217.463 70.5693 218.623H77.0469V218.252C77.0254 217.221 76.7461 216.426 76.209 215.868C75.6719 215.298 74.9092 215.014 73.9209 215.014ZM89.1963 229H84.5234V204.25H89.1963V229ZM97.9619 229H93.2891V204.25H97.9619V229ZM106.728 229H102.055V211.565H106.728V229ZM101.781 207.054C101.781 206.355 102.012 205.781 102.474 205.33C102.946 204.878 103.585 204.653 104.391 204.653C105.186 204.653 105.82 204.878 106.292 205.33C106.765 205.781 107.001 206.355 107.001 207.054C107.001 207.763 106.76 208.343 106.276 208.794C105.804 209.245 105.175 209.471 104.391 209.471C103.607 209.471 102.973 209.245 102.49 208.794C102.017 208.343 101.781 207.763 101.781 207.054ZM114.865 211.565L115.01 213.58C116.256 212.022 117.926 211.243 120.021 211.243C121.869 211.243 123.244 211.786 124.146 212.871C125.048 213.956 125.51 215.578 125.532 217.737V229H120.875V217.85C120.875 216.861 120.66 216.147 120.23 215.707C119.801 215.255 119.086 215.03 118.087 215.03C116.777 215.03 115.794 215.588 115.139 216.706V229H110.482V211.565H114.865ZM128.4 220.154C128.4 217.479 129.034 215.325 130.301 213.692C131.58 212.06 133.298 211.243 135.458 211.243C137.37 211.243 138.857 211.898 139.921 213.209L140.114 211.565H144.336V228.42C144.336 229.945 143.987 231.272 143.289 232.4C142.601 233.528 141.629 234.387 140.372 234.978C139.115 235.569 137.644 235.864 135.957 235.864C134.679 235.864 133.433 235.606 132.219 235.091C131.005 234.586 130.086 233.931 129.463 233.125L131.526 230.289C132.686 231.589 134.093 232.239 135.748 232.239C136.983 232.239 137.944 231.906 138.632 231.24C139.319 230.584 139.663 229.65 139.663 228.436V227.501C138.589 228.715 137.176 229.322 135.425 229.322C133.331 229.322 131.633 228.506 130.333 226.873C129.044 225.229 128.4 223.054 128.4 220.347V220.154ZM133.057 220.492C133.057 222.071 133.374 223.312 134.007 224.214C134.641 225.106 135.511 225.552 136.618 225.552C138.036 225.552 139.051 225.02 139.663 223.957V216.625C139.04 215.562 138.036 215.03 136.65 215.03C135.533 215.03 134.652 215.486 134.007 216.399C133.374 217.312 133.057 218.677 133.057 220.492ZM155.422 220.122C155.422 218.392 155.755 216.851 156.421 215.497C157.087 214.144 158.043 213.096 159.289 212.355C160.546 211.614 162.001 211.243 163.656 211.243C166.008 211.243 167.926 211.963 169.408 213.402C170.901 214.842 171.734 216.797 171.906 219.268L171.938 220.46C171.938 223.135 171.191 225.283 169.698 226.905C168.205 228.517 166.202 229.322 163.688 229.322C161.174 229.322 159.166 228.517 157.662 226.905C156.168 225.294 155.422 223.103 155.422 220.331V220.122ZM160.079 220.46C160.079 222.114 160.39 223.382 161.013 224.263C161.636 225.133 162.528 225.568 163.688 225.568C164.816 225.568 165.697 225.138 166.331 224.279C166.964 223.409 167.281 222.023 167.281 220.122C167.281 218.5 166.964 217.243 166.331 216.351C165.697 215.459 164.805 215.014 163.656 215.014C162.517 215.014 161.636 215.459 161.013 216.351C160.39 217.232 160.079 218.602 160.079 220.46ZM179.092 211.565L179.237 213.58C180.483 212.022 182.154 211.243 184.249 211.243C186.096 211.243 187.471 211.786 188.374 212.871C189.276 213.956 189.738 215.578 189.759 217.737V229H185.103V217.85C185.103 216.861 184.888 216.147 184.458 215.707C184.028 215.255 183.314 215.03 182.315 215.03C181.004 215.03 180.021 215.588 179.366 216.706V229H174.709V211.565H179.092ZM221.1 217.801C221.1 220.111 220.691 222.136 219.875 223.876C219.059 225.616 217.888 226.959 216.362 227.904C214.848 228.85 213.107 229.322 211.142 229.322C209.197 229.322 207.462 228.855 205.937 227.92C204.412 226.986 203.23 225.654 202.392 223.924C201.554 222.184 201.13 220.186 201.119 217.93V216.77C201.119 214.46 201.533 212.43 202.36 210.679C203.198 208.917 204.374 207.569 205.889 206.635C207.414 205.689 209.154 205.217 211.109 205.217C213.064 205.217 214.799 205.689 216.314 206.635C217.839 207.569 219.016 208.917 219.843 210.679C220.681 212.43 221.1 214.455 221.1 216.754V217.801ZM216.201 216.738C216.201 214.278 215.761 212.409 214.88 211.13C213.999 209.852 212.742 209.213 211.109 209.213C209.487 209.213 208.236 209.847 207.355 211.114C206.474 212.371 206.028 214.219 206.018 216.657V217.801C206.018 220.197 206.458 222.055 207.339 223.376C208.22 224.698 209.487 225.358 211.142 225.358C212.764 225.358 214.01 224.725 214.88 223.457C215.75 222.179 216.19 220.32 216.201 217.882V216.738ZM230.929 205.539L236.955 222.555L242.949 205.539H249.298V229H244.448V222.587L244.931 211.517L238.599 229H235.279L228.963 211.533L229.446 222.587V229H224.612V205.539H230.929ZM272.598 229H267.764L258.354 213.563V229H253.52V205.539H258.354L267.78 221.008V205.539H272.598V229ZM281.959 229H277.125V205.539H281.959V229ZM298.621 222.845C298.621 221.932 298.298 221.233 297.654 220.75C297.009 220.256 295.849 219.74 294.173 219.203C292.498 218.655 291.171 218.118 290.193 217.592C287.529 216.152 286.197 214.213 286.197 211.775C286.197 210.507 286.552 209.379 287.261 208.391C287.98 207.392 289.006 206.613 290.338 206.055C291.681 205.496 293.185 205.217 294.85 205.217C296.526 205.217 298.019 205.523 299.33 206.135C300.64 206.737 301.655 207.591 302.375 208.697C303.105 209.804 303.471 211.061 303.471 212.468H298.637C298.637 211.394 298.298 210.561 297.622 209.97C296.945 209.369 295.994 209.068 294.77 209.068C293.588 209.068 292.669 209.32 292.014 209.825C291.359 210.319 291.031 210.975 291.031 211.791C291.031 212.554 291.413 213.193 292.175 213.708C292.949 214.224 294.082 214.708 295.575 215.159C298.325 215.986 300.329 217.012 301.585 218.236C302.842 219.461 303.471 220.986 303.471 222.812C303.471 224.843 302.703 226.438 301.167 227.598C299.63 228.748 297.562 229.322 294.963 229.322C293.158 229.322 291.515 228.995 290.032 228.339C288.55 227.673 287.417 226.766 286.632 225.616C285.859 224.467 285.472 223.135 285.472 221.62H290.322C290.322 224.209 291.869 225.503 294.963 225.503C296.112 225.503 297.009 225.272 297.654 224.811C298.298 224.338 298.621 223.683 298.621 222.845Z" fill="#3CB043"/>
<path d="M23.4414 298.034H15.1797L13.4512 303H9.59863L17.6553 281.672H20.9805L29.0518 303H25.1846L23.4414 298.034ZM16.2197 295.046H22.4014L19.3105 286.198L16.2197 295.046ZM40.0234 298.693C40.0234 298.059 39.7598 297.575 39.2324 297.243C38.7148 296.911 37.8506 296.618 36.6396 296.364C35.4287 296.11 34.418 295.788 33.6074 295.397C31.8301 294.538 30.9414 293.293 30.9414 291.662C30.9414 290.295 31.5176 289.152 32.6699 288.234C33.8223 287.316 35.2871 286.857 37.0645 286.857C38.959 286.857 40.4873 287.326 41.6494 288.264C42.8213 289.201 43.4072 290.417 43.4072 291.911H39.8477C39.8477 291.228 39.5938 290.661 39.0859 290.212C38.5781 289.753 37.9043 289.523 37.0645 289.523C36.2832 289.523 35.6436 289.704 35.1455 290.065C34.6572 290.427 34.4131 290.91 34.4131 291.516C34.4131 292.062 34.6426 292.487 35.1016 292.79C35.5605 293.093 36.4883 293.4 37.8848 293.713C39.2812 294.016 40.375 294.382 41.166 294.812C41.9668 295.231 42.5576 295.739 42.9385 296.335C43.3291 296.931 43.5244 297.653 43.5244 298.503C43.5244 299.929 42.9336 301.086 41.752 301.975C40.5703 302.854 39.0225 303.293 37.1084 303.293C35.8096 303.293 34.6523 303.059 33.6367 302.59C32.6211 302.121 31.8301 301.477 31.2637 300.656C30.6973 299.836 30.4141 298.952 30.4141 298.005H33.8711C33.9199 298.845 34.2373 299.494 34.8232 299.953C35.4092 300.402 36.1855 300.627 37.1523 300.627C38.0898 300.627 38.8027 300.451 39.291 300.1C39.7793 299.738 40.0234 299.27 40.0234 298.693ZM51.7861 296.203L50.2041 297.829V303H46.6445V280.5H50.2041V293.479L51.3174 292.087L55.6973 287.15H59.9746L54.0859 293.757L60.6045 303H56.4883L51.7861 296.203ZM71.1953 298.693C71.1953 298.059 70.9316 297.575 70.4043 297.243C69.8867 296.911 69.0225 296.618 67.8115 296.364C66.6006 296.11 65.5898 295.788 64.7793 295.397C63.002 294.538 62.1133 293.293 62.1133 291.662C62.1133 290.295 62.6895 289.152 63.8418 288.234C64.9941 287.316 66.459 286.857 68.2363 286.857C70.1309 286.857 71.6592 287.326 72.8213 288.264C73.9932 289.201 74.5791 290.417 74.5791 291.911H71.0195C71.0195 291.228 70.7656 290.661 70.2578 290.212C69.75 289.753 69.0762 289.523 68.2363 289.523C67.4551 289.523 66.8154 289.704 66.3174 290.065C65.8291 290.427 65.585 290.91 65.585 291.516C65.585 292.062 65.8145 292.487 66.2734 292.79C66.7324 293.093 67.6602 293.4 69.0566 293.713C70.4531 294.016 71.5469 294.382 72.3379 294.812C73.1387 295.231 73.7295 295.739 74.1104 296.335C74.501 296.931 74.6963 297.653 74.6963 298.503C74.6963 299.929 74.1055 301.086 72.9238 301.975C71.7422 302.854 70.1943 303.293 68.2803 303.293C66.9814 303.293 65.8242 303.059 64.8086 302.59C63.793 302.121 63.002 301.477 62.4355 300.656C61.8691 299.836 61.5859 298.952 61.5859 298.005H65.043C65.0918 298.845 65.4092 299.494 65.9951 299.953C66.5811 300.402 67.3574 300.627 68.3242 300.627C69.2617 300.627 69.9746 300.451 70.4629 300.1C70.9512 299.738 71.1953 299.27 71.1953 298.693ZM78.3145 307.805L76.3955 306.662C76.9619 305.773 77.3477 304.997 77.5527 304.333C77.7676 303.679 77.8799 303.01 77.8896 302.326V299.558H81.0977L81.083 302.121C81.0732 303.156 80.8096 304.191 80.292 305.227C79.7842 306.271 79.125 307.131 78.3145 307.805ZM103.363 297.507C103.363 296.569 103.031 295.847 102.367 295.339C101.713 294.831 100.526 294.318 98.8076 293.801C97.0889 293.283 95.7217 292.707 94.7061 292.072C92.7627 290.852 91.791 289.26 91.791 287.297C91.791 285.578 92.4893 284.162 93.8857 283.049C95.292 281.936 97.1133 281.379 99.3496 281.379C100.834 281.379 102.157 281.652 103.319 282.199C104.481 282.746 105.395 283.527 106.059 284.543C106.723 285.549 107.055 286.667 107.055 287.897H103.363C103.363 286.784 103.012 285.915 102.309 285.29C101.615 284.655 100.619 284.338 99.3203 284.338C98.1094 284.338 97.167 284.597 96.4932 285.114C95.8291 285.632 95.4971 286.354 95.4971 287.282C95.4971 288.063 95.8584 288.718 96.5811 289.245C97.3037 289.763 98.4951 290.271 100.155 290.769C101.815 291.257 103.148 291.818 104.154 292.453C105.16 293.078 105.897 293.801 106.366 294.621C106.835 295.432 107.069 296.384 107.069 297.478C107.069 299.255 106.386 300.671 105.019 301.726C103.661 302.771 101.815 303.293 99.4814 303.293C97.9385 303.293 96.5176 303.01 95.2188 302.443C93.9297 301.867 92.9238 301.076 92.2012 300.07C91.4883 299.064 91.1318 297.893 91.1318 296.555H94.8379C94.8379 297.766 95.2383 298.703 96.0391 299.367C96.8398 300.031 97.9873 300.363 99.4814 300.363C100.771 300.363 101.737 300.104 102.382 299.587C103.036 299.06 103.363 298.366 103.363 297.507ZM116.957 303.293C114.701 303.293 112.87 302.585 111.464 301.169C110.067 299.743 109.369 297.849 109.369 295.485V295.046C109.369 293.464 109.672 292.053 110.277 290.812C110.893 289.562 111.752 288.591 112.855 287.897C113.959 287.204 115.189 286.857 116.547 286.857C118.705 286.857 120.37 287.546 121.542 288.923C122.724 290.3 123.314 292.248 123.314 294.768V296.203H112.958C113.065 297.512 113.5 298.547 114.262 299.309C115.033 300.07 116 300.451 117.162 300.451C118.793 300.451 120.121 299.792 121.146 298.474L123.065 300.305C122.431 301.252 121.581 301.989 120.517 302.517C119.462 303.034 118.275 303.293 116.957 303.293ZM116.532 289.714C115.556 289.714 114.765 290.056 114.159 290.739C113.563 291.423 113.183 292.375 113.017 293.596H119.799V293.332C119.721 292.141 119.403 291.242 118.847 290.637C118.29 290.021 117.519 289.714 116.532 289.714ZM129.877 303H126.317V280.5H129.877V303ZM137.553 303H133.993V280.5H137.553V303ZM166.176 303H162.47L152.963 287.868V303H149.257V281.672H152.963L162.499 296.862V281.672H166.176V303ZM169.545 294.929C169.545 293.376 169.853 291.979 170.468 290.739C171.083 289.489 171.947 288.532 173.061 287.868C174.174 287.194 175.453 286.857 176.898 286.857C179.037 286.857 180.771 287.546 182.099 288.923C183.437 290.3 184.159 292.126 184.267 294.401L184.281 295.236C184.281 296.799 183.979 298.195 183.373 299.426C182.777 300.656 181.918 301.608 180.795 302.282C179.682 302.956 178.393 303.293 176.928 303.293C174.691 303.293 172.899 302.551 171.552 301.066C170.214 299.572 169.545 297.585 169.545 295.104V294.929ZM173.104 295.236C173.104 296.867 173.441 298.146 174.115 299.074C174.789 299.992 175.727 300.451 176.928 300.451C178.129 300.451 179.062 299.982 179.726 299.045C180.399 298.107 180.736 296.735 180.736 294.929C180.736 293.327 180.39 292.058 179.696 291.12C179.013 290.183 178.08 289.714 176.898 289.714C175.736 289.714 174.813 290.178 174.13 291.105C173.446 292.023 173.104 293.4 173.104 295.236ZM201.215 298.093L203.734 287.15H207.206L202.885 303H199.955L196.557 292.116L193.217 303H190.287L185.951 287.15H189.423L191.986 297.976L195.238 287.15H197.919L201.215 298.093ZM208.275 307.805L206.356 306.662C206.923 305.773 207.309 304.997 207.514 304.333C207.729 303.679 207.841 303.01 207.851 302.326V299.558H211.059L211.044 302.121C211.034 303.156 210.771 304.191 210.253 305.227C209.745 306.271 209.086 307.131 208.275 307.805ZM233.324 297.507C233.324 296.569 232.992 295.847 232.328 295.339C231.674 294.831 230.487 294.318 228.769 293.801C227.05 293.283 225.683 292.707 224.667 292.072C222.724 290.852 221.752 289.26 221.752 287.297C221.752 285.578 222.45 284.162 223.847 283.049C225.253 281.936 227.074 281.379 229.311 281.379C230.795 281.379 232.118 281.652 233.28 282.199C234.442 282.746 235.355 283.527 236.02 284.543C236.684 285.549 237.016 286.667 237.016 287.897H233.324C233.324 286.784 232.973 285.915 232.27 285.29C231.576 284.655 230.58 284.338 229.281 284.338C228.07 284.338 227.128 284.597 226.454 285.114C225.79 285.632 225.458 286.354 225.458 287.282C225.458 288.063 225.819 288.718 226.542 289.245C227.265 289.763 228.456 290.271 230.116 290.769C231.776 291.257 233.109 291.818 234.115 292.453C235.121 293.078 235.858 293.801 236.327 294.621C236.796 295.432 237.03 296.384 237.03 297.478C237.03 299.255 236.347 300.671 234.979 301.726C233.622 302.771 231.776 303.293 229.442 303.293C227.899 303.293 226.479 303.01 225.18 302.443C223.891 301.867 222.885 301.076 222.162 300.07C221.449 299.064 221.093 297.893 221.093 296.555H224.799C224.799 297.766 225.199 298.703 226 299.367C226.801 300.031 227.948 300.363 229.442 300.363C230.731 300.363 231.698 300.104 232.343 299.587C232.997 299.06 233.324 298.366 233.324 297.507ZM243.446 288.879C244.608 287.531 246.078 286.857 247.855 286.857C251.234 286.857 252.948 288.786 252.997 292.644V303H249.438V292.775C249.438 291.682 249.198 290.91 248.72 290.461C248.251 290.002 247.558 289.772 246.64 289.772C245.214 289.772 244.149 290.407 243.446 291.677V303H239.887V280.5H243.446V288.879ZM260.395 303H256.835V287.15H260.395V303ZM256.615 283.034C256.615 282.487 256.786 282.033 257.128 281.672C257.479 281.311 257.978 281.13 258.622 281.13C259.267 281.13 259.765 281.311 260.116 281.672C260.468 282.033 260.644 282.487 260.644 283.034C260.644 283.571 260.468 284.021 260.116 284.382C259.765 284.733 259.267 284.909 258.622 284.909C257.978 284.909 257.479 284.733 257.128 284.382C256.786 284.021 256.615 283.571 256.615 283.034ZM278.163 295.236C278.163 297.688 277.606 299.646 276.493 301.11C275.38 302.565 273.886 303.293 272.011 303.293C270.272 303.293 268.881 302.722 267.836 301.579V309.094H264.276V287.15H267.558L267.704 288.762C268.749 287.492 270.17 286.857 271.967 286.857C273.9 286.857 275.414 287.58 276.508 289.025C277.611 290.461 278.163 292.458 278.163 295.017V295.236ZM274.618 294.929C274.618 293.347 274.301 292.092 273.666 291.164C273.041 290.236 272.143 289.772 270.971 289.772C269.516 289.772 268.471 290.373 267.836 291.574V298.605C268.48 299.836 269.535 300.451 271 300.451C272.133 300.451 273.017 299.997 273.651 299.089C274.296 298.171 274.618 296.784 274.618 294.929ZM295.067 295.236C295.067 297.688 294.511 299.646 293.397 301.11C292.284 302.565 290.79 303.293 288.915 303.293C287.177 303.293 285.785 302.722 284.74 301.579V309.094H281.181V287.15H284.462L284.608 288.762C285.653 287.492 287.074 286.857 288.871 286.857C290.805 286.857 292.318 287.58 293.412 289.025C294.516 290.461 295.067 292.458 295.067 295.017V295.236ZM291.522 294.929C291.522 293.347 291.205 292.092 290.57 291.164C289.945 290.236 289.047 289.772 287.875 289.772C286.42 289.772 285.375 290.373 284.74 291.574V298.605C285.385 299.836 286.439 300.451 287.904 300.451C289.037 300.451 289.921 299.997 290.556 299.089C291.2 298.171 291.522 296.784 291.522 294.929ZM301.879 303H298.319V287.15H301.879V303ZM298.1 283.034C298.1 282.487 298.271 282.033 298.612 281.672C298.964 281.311 299.462 281.13 300.106 281.13C300.751 281.13 301.249 281.311 301.601 281.672C301.952 282.033 302.128 282.487 302.128 283.034C302.128 283.571 301.952 284.021 301.601 284.382C301.249 284.733 300.751 284.909 300.106 284.909C299.462 284.909 298.964 284.733 298.612 284.382C298.271 284.021 298.1 283.571 298.1 283.034ZM309.071 287.15L309.174 288.981C310.346 287.565 311.884 286.857 313.788 286.857C317.089 286.857 318.769 288.747 318.827 292.526V303H315.268V292.731C315.268 291.726 315.048 290.983 314.608 290.505C314.179 290.017 313.471 289.772 312.484 289.772C311.049 289.772 309.979 290.422 309.276 291.721V303H305.717V287.15H309.071ZM321.845 294.958C321.845 292.497 322.421 290.534 323.573 289.069C324.735 287.595 326.273 286.857 328.188 286.857C329.994 286.857 331.415 287.487 332.45 288.747L332.611 287.15H335.819V302.517C335.819 304.597 335.17 306.237 333.871 307.438C332.582 308.64 330.839 309.24 328.642 309.24C327.479 309.24 326.342 308.996 325.229 308.508C324.125 308.029 323.285 307.399 322.709 306.618L324.394 304.479C325.487 305.778 326.835 306.428 328.437 306.428C329.618 306.428 330.551 306.105 331.234 305.461C331.918 304.826 332.26 303.889 332.26 302.648V301.579C331.234 302.722 329.867 303.293 328.158 303.293C326.303 303.293 324.784 302.556 323.603 301.081C322.431 299.606 321.845 297.565 321.845 294.958ZM325.39 295.266C325.39 296.857 325.712 298.112 326.356 299.03C327.011 299.938 327.914 300.393 329.066 300.393C330.502 300.393 331.566 299.777 332.26 298.547V291.574C331.586 290.373 330.531 289.772 329.096 289.772C327.924 289.772 327.011 290.236 326.356 291.164C325.712 292.092 325.39 293.459 325.39 295.266ZM10.126 358.356L15.5459 341.672H19.6182L11.9424 363H8.35352L0.707031 341.672H4.76465L10.126 358.356ZM28.0264 363.293C25.7705 363.293 23.9395 362.585 22.5332 361.169C21.1367 359.743 20.4385 357.849 20.4385 355.485V355.046C20.4385 353.464 20.7412 352.053 21.3467 350.812C21.9619 349.562 22.8213 348.591 23.9248 347.897C25.0283 347.204 26.2588 346.857 27.6162 346.857C29.7744 346.857 31.4395 347.546 32.6113 348.923C33.793 350.3 34.3838 352.248 34.3838 354.768V356.203H24.0273C24.1348 357.512 24.5693 358.547 25.3311 359.309C26.1025 360.07 27.0693 360.451 28.2314 360.451C29.8623 360.451 31.1904 359.792 32.2158 358.474L34.1348 360.305C33.5 361.252 32.6504 361.989 31.5859 362.517C30.5312 363.034 29.3447 363.293 28.0264 363.293ZM27.6016 349.714C26.625 349.714 25.834 350.056 25.2285 350.739C24.6328 351.423 24.252 352.375 24.0859 353.596H30.8682V353.332C30.79 352.141 30.4727 351.242 29.916 350.637C29.3594 350.021 28.5879 349.714 27.6016 349.714ZM45.458 350.402C44.9893 350.324 44.5059 350.285 44.0078 350.285C42.377 350.285 41.2783 350.91 40.7119 352.16V363H37.1523V347.15H40.5508L40.6387 348.923C41.498 347.546 42.6895 346.857 44.2129 346.857C44.7207 346.857 45.1406 346.926 45.4727 347.062L45.458 350.402ZM51.4932 363H47.9336V347.15H51.4932V363ZM47.7139 343.034C47.7139 342.487 47.8848 342.033 48.2266 341.672C48.5781 341.311 49.0762 341.13 49.7207 341.13C50.3652 341.13 50.8633 341.311 51.2148 341.672C51.5664 342.033 51.7422 342.487 51.7422 343.034C51.7422 343.571 51.5664 344.021 51.2148 344.382C50.8633 344.733 50.3652 344.909 49.7207 344.909C49.0762 344.909 48.5781 344.733 48.2266 344.382C47.8848 344.021 47.7139 343.571 47.7139 343.034ZM56.3271 363V349.787H53.9102V347.15H56.3271V346.066C56.3369 344.826 56.6006 343.762 57.1182 342.873C57.6357 341.984 58.3682 341.315 59.3154 340.866C60.2627 340.417 61.4004 340.192 62.7285 340.192C63.5098 340.192 64.2568 340.275 64.9697 340.441C65.6924 340.607 66.4395 340.817 67.2109 341.071L66.6689 344.016C65.3213 343.547 64.0908 343.312 62.9775 343.312C61.8936 343.312 61.1074 343.552 60.6191 344.03C60.1309 344.499 59.8867 345.207 59.8867 346.154V347.15H63.0068V349.787H59.8867V363H56.3271ZM68.8955 363H65.3359V347.15H68.8955V363ZM79.3545 360.451C80.2432 360.451 80.9805 360.192 81.5664 359.675C82.1523 359.157 82.4648 358.518 82.5039 357.756H85.8584C85.8193 358.742 85.5117 359.665 84.9355 360.524C84.3594 361.374 83.5781 362.048 82.5918 362.546C81.6055 363.044 80.541 363.293 79.3984 363.293C77.1816 363.293 75.4238 362.575 74.125 361.14C72.8262 359.704 72.1768 357.722 72.1768 355.192V354.826C72.1768 352.414 72.8213 350.485 74.1104 349.04C75.3994 347.585 77.1572 346.857 79.3838 346.857C81.2686 346.857 82.8018 347.409 83.9834 348.513C85.1748 349.606 85.7998 351.047 85.8584 352.834H82.5039C82.4648 351.926 82.1523 351.179 81.5664 350.593C80.9902 350.007 80.2529 349.714 79.3545 349.714C78.2021 349.714 77.3135 350.134 76.6885 350.974C76.0635 351.804 75.7461 353.068 75.7363 354.768V355.339C75.7363 357.058 76.0439 358.342 76.6592 359.191C77.2842 360.031 78.1826 360.451 79.3545 360.451ZM98.0166 363C97.8604 362.697 97.7236 362.204 97.6064 361.521C96.4736 362.702 95.0869 363.293 93.4463 363.293C91.8545 363.293 90.5557 362.839 89.5498 361.931C88.5439 361.022 88.041 359.899 88.041 358.562C88.041 356.872 88.666 355.578 89.916 354.68C91.1758 353.771 92.9727 353.317 95.3066 353.317H97.4893V352.277C97.4893 351.457 97.2598 350.803 96.8008 350.314C96.3418 349.816 95.6436 349.567 94.7061 349.567C93.8955 349.567 93.2314 349.772 92.7139 350.183C92.1963 350.583 91.9375 351.096 91.9375 351.721H88.3779C88.3779 350.852 88.666 350.041 89.2422 349.289C89.8184 348.527 90.5996 347.932 91.5859 347.502C92.582 347.072 93.6904 346.857 94.9111 346.857C96.7666 346.857 98.2461 347.326 99.3496 348.264C100.453 349.191 101.02 350.5 101.049 352.189V359.338C101.049 360.764 101.249 361.901 101.649 362.751V363H98.0166ZM94.1055 360.437C94.8086 360.437 95.4678 360.266 96.083 359.924C96.708 359.582 97.1768 359.123 97.4893 358.547V355.559H95.5703C94.252 355.559 93.2607 355.788 92.5967 356.247C91.9326 356.706 91.6006 357.355 91.6006 358.195C91.6006 358.879 91.8252 359.426 92.2744 359.836C92.7334 360.236 93.3438 360.437 94.1055 360.437ZM109.237 343.298V347.15H112.035V349.787H109.237V358.635C109.237 359.24 109.354 359.68 109.589 359.953C109.833 360.217 110.263 360.349 110.878 360.349C111.288 360.349 111.703 360.3 112.123 360.202V362.956C111.312 363.181 110.531 363.293 109.779 363.293C107.045 363.293 105.678 361.784 105.678 358.767V349.787H103.07V347.15H105.678V343.298H109.237ZM118.554 363H114.994V347.15H118.554V363ZM114.774 343.034C114.774 342.487 114.945 342.033 115.287 341.672C115.639 341.311 116.137 341.13 116.781 341.13C117.426 341.13 117.924 341.311 118.275 341.672C118.627 342.033 118.803 342.487 118.803 343.034C118.803 343.571 118.627 344.021 118.275 344.382C117.924 344.733 117.426 344.909 116.781 344.909C116.137 344.909 115.639 344.733 115.287 344.382C114.945 344.021 114.774 343.571 114.774 343.034ZM121.776 354.929C121.776 353.376 122.084 351.979 122.699 350.739C123.314 349.489 124.179 348.532 125.292 347.868C126.405 347.194 127.685 346.857 129.13 346.857C131.269 346.857 133.002 347.546 134.33 348.923C135.668 350.3 136.391 352.126 136.498 354.401L136.513 355.236C136.513 356.799 136.21 358.195 135.604 359.426C135.009 360.656 134.149 361.608 133.026 362.282C131.913 362.956 130.624 363.293 129.159 363.293C126.923 363.293 125.131 362.551 123.783 361.066C122.445 359.572 121.776 357.585 121.776 355.104V354.929ZM125.336 355.236C125.336 356.867 125.673 358.146 126.347 359.074C127.021 359.992 127.958 360.451 129.159 360.451C130.36 360.451 131.293 359.982 131.957 359.045C132.631 358.107 132.968 356.735 132.968 354.929C132.968 353.327 132.621 352.058 131.928 351.12C131.244 350.183 130.312 349.714 129.13 349.714C127.968 349.714 127.045 350.178 126.361 351.105C125.678 352.023 125.336 353.4 125.336 355.236ZM142.826 347.15L142.929 348.981C144.101 347.565 145.639 346.857 147.543 346.857C150.844 346.857 152.523 348.747 152.582 352.526V363H149.022V352.731C149.022 351.726 148.803 350.983 148.363 350.505C147.934 350.017 147.226 349.772 146.239 349.772C144.804 349.772 143.734 350.422 143.031 351.721V363H139.472V347.15H142.826ZM156.728 367.805L154.809 366.662C155.375 365.773 155.761 364.997 155.966 364.333C156.181 363.679 156.293 363.01 156.303 362.326V359.558H159.511L159.496 362.121C159.486 363.156 159.223 364.191 158.705 365.227C158.197 366.271 157.538 367.131 156.728 367.805ZM174.335 355.075V363H170.629V341.672H178.788C181.171 341.672 183.061 342.292 184.457 343.532C185.863 344.772 186.566 346.413 186.566 348.454C186.566 350.544 185.878 352.17 184.501 353.332C183.134 354.494 181.215 355.075 178.744 355.075H174.335ZM174.335 352.102H178.788C180.106 352.102 181.112 351.794 181.806 351.179C182.499 350.554 182.846 349.655 182.846 348.483C182.846 347.331 182.494 346.413 181.791 345.729C181.088 345.036 180.121 344.68 178.891 344.66H174.335V352.102ZM198.769 363C198.612 362.697 198.476 362.204 198.358 361.521C197.226 362.702 195.839 363.293 194.198 363.293C192.606 363.293 191.308 362.839 190.302 361.931C189.296 361.022 188.793 359.899 188.793 358.562C188.793 356.872 189.418 355.578 190.668 354.68C191.928 353.771 193.725 353.317 196.059 353.317H198.241V352.277C198.241 351.457 198.012 350.803 197.553 350.314C197.094 349.816 196.396 349.567 195.458 349.567C194.647 349.567 193.983 349.772 193.466 350.183C192.948 350.583 192.689 351.096 192.689 351.721H189.13C189.13 350.852 189.418 350.041 189.994 349.289C190.57 348.527 191.352 347.932 192.338 347.502C193.334 347.072 194.442 346.857 195.663 346.857C197.519 346.857 198.998 347.326 200.102 348.264C201.205 349.191 201.771 350.5 201.801 352.189V359.338C201.801 360.764 202.001 361.901 202.401 362.751V363H198.769ZM194.857 360.437C195.561 360.437 196.22 360.266 196.835 359.924C197.46 359.582 197.929 359.123 198.241 358.547V355.559H196.322C195.004 355.559 194.013 355.788 193.349 356.247C192.685 356.706 192.353 357.355 192.353 358.195C192.353 358.879 192.577 359.426 193.026 359.836C193.485 360.236 194.096 360.437 194.857 360.437ZM210.839 357.902L214.062 347.15H217.855L211.557 365.402C210.59 368.068 208.949 369.401 206.635 369.401C206.117 369.401 205.546 369.313 204.921 369.138V366.384L205.595 366.428C206.493 366.428 207.167 366.262 207.616 365.93C208.075 365.607 208.437 365.061 208.7 364.289L209.213 362.927L203.646 347.15H207.484L210.839 357.902ZM223.261 347.15L223.363 348.806C224.477 347.507 226 346.857 227.934 346.857C230.053 346.857 231.503 347.668 232.284 349.289C233.437 347.668 235.058 346.857 237.147 346.857C238.896 346.857 240.194 347.341 241.044 348.308C241.903 349.274 242.343 350.7 242.362 352.585V363H238.803V352.688C238.803 351.682 238.583 350.944 238.144 350.476C237.704 350.007 236.977 349.772 235.961 349.772C235.15 349.772 234.486 349.992 233.969 350.432C233.461 350.861 233.104 351.428 232.899 352.131L232.914 363H229.354V352.57C229.306 350.705 228.354 349.772 226.498 349.772C225.072 349.772 224.062 350.354 223.466 351.516V363H219.906V347.15H223.261ZM252.997 363.293C250.741 363.293 248.91 362.585 247.504 361.169C246.107 359.743 245.409 357.849 245.409 355.485V355.046C245.409 353.464 245.712 352.053 246.317 350.812C246.933 349.562 247.792 348.591 248.896 347.897C249.999 347.204 251.229 346.857 252.587 346.857C254.745 346.857 256.41 347.546 257.582 348.923C258.764 350.3 259.354 352.248 259.354 354.768V356.203H248.998C249.105 357.512 249.54 358.547 250.302 359.309C251.073 360.07 252.04 360.451 253.202 360.451C254.833 360.451 256.161 359.792 257.187 358.474L259.105 360.305C258.471 361.252 257.621 361.989 256.557 362.517C255.502 363.034 254.315 363.293 252.997 363.293ZM252.572 349.714C251.596 349.714 250.805 350.056 250.199 350.739C249.604 351.423 249.223 352.375 249.057 353.596H255.839V353.332C255.761 352.141 255.443 351.242 254.887 350.637C254.33 350.021 253.559 349.714 252.572 349.714ZM265.434 347.15L265.536 348.981C266.708 347.565 268.246 346.857 270.15 346.857C273.451 346.857 275.131 348.747 275.189 352.526V363H271.63V352.731C271.63 351.726 271.41 350.983 270.971 350.505C270.541 350.017 269.833 349.772 268.847 349.772C267.411 349.772 266.342 350.422 265.639 351.721V363H262.079V347.15H265.434ZM283.29 343.298V347.15H286.088V349.787H283.29V358.635C283.29 359.24 283.407 359.68 283.642 359.953C283.886 360.217 284.315 360.349 284.931 360.349C285.341 360.349 285.756 360.3 286.176 360.202V362.956C285.365 363.181 284.584 363.293 283.832 363.293C281.098 363.293 279.73 361.784 279.73 358.767V349.787H277.123V347.15H279.73V343.298H283.29ZM300.077 363H296.518V347.15H300.077V363ZM296.298 343.034C296.298 342.487 296.469 342.033 296.811 341.672C297.162 341.311 297.66 341.13 298.305 341.13C298.949 341.13 299.447 341.311 299.799 341.672C300.15 342.033 300.326 342.487 300.326 343.034C300.326 343.571 300.15 344.021 299.799 344.382C299.447 344.733 298.949 344.909 298.305 344.909C297.66 344.909 297.162 344.733 296.811 344.382C296.469 344.021 296.298 343.571 296.298 343.034ZM307.27 347.15L307.372 348.981C308.544 347.565 310.082 346.857 311.986 346.857C315.287 346.857 316.967 348.747 317.025 352.526V363H313.466V352.731C313.466 351.726 313.246 350.983 312.807 350.505C312.377 350.017 311.669 349.772 310.683 349.772C309.247 349.772 308.178 350.422 307.475 351.721V363H303.915V347.15H307.27ZM321.918 363V349.787H319.501V347.15H321.918V345.7C321.918 343.942 322.406 342.585 323.383 341.628C324.359 340.671 325.727 340.192 327.484 340.192C328.109 340.192 328.773 340.28 329.477 340.456L329.389 343.239C328.998 343.161 328.544 343.122 328.026 343.122C326.327 343.122 325.478 343.996 325.478 345.744V347.15H328.7V349.787H325.478V363H321.918ZM330.634 354.929C330.634 353.376 330.941 351.979 331.557 350.739C332.172 349.489 333.036 348.532 334.149 347.868C335.263 347.194 336.542 346.857 337.987 346.857C340.126 346.857 341.859 347.546 343.188 348.923C344.525 350.3 345.248 352.126 345.355 354.401L345.37 355.236C345.37 356.799 345.067 358.195 344.462 359.426C343.866 360.656 343.007 361.608 341.884 362.282C340.771 362.956 339.481 363.293 338.017 363.293C335.78 363.293 333.988 362.551 332.641 361.066C331.303 359.572 330.634 357.585 330.634 355.104V354.929ZM334.193 355.236C334.193 356.867 334.53 358.146 335.204 359.074C335.878 359.992 336.815 360.451 338.017 360.451C339.218 360.451 340.15 359.982 340.814 359.045C341.488 358.107 341.825 356.735 341.825 354.929C341.825 353.327 341.479 352.058 340.785 351.12C340.102 350.183 339.169 349.714 337.987 349.714C336.825 349.714 335.902 350.178 335.219 351.105C334.535 352.023 334.193 353.4 334.193 355.236Z" fill="#3A3A3A"/>
<mask id="path-4-outside-1_0:1" maskUnits="userSpaceOnUse" x="131" y="37" width="86" height="83" fill="black">
<rect fill="white" x="131" y="37" width="86" height="83"/>
<path d="M145.748 110.002L132.013 101.004L132.007 99.5264L132.001 98.0488L133.075 98.7961C133.666 99.2075 139.939 103.328 147.014 107.954L159.88 116.364L162.836 114.798C164.462 113.937 169.044 111.501 173.019 109.385L180.246 105.539L180.365 103.755C180.43 102.774 180.411 101.971 180.321 101.971C180.232 101.971 175.562 104.424 169.944 107.421L159.73 112.871L145.865 103.751L132 94.6322V93.248C132 92.2435 132.134 91.9435 132.488 92.1549C132.757 92.3146 138.954 96.3725 146.259 101.172C153.564 105.971 159.767 109.875 160.043 109.846C160.319 109.813 165.019 107.381 170.487 104.431L180.43 99.0693L180.436 97.4245C180.439 96.5196 180.33 95.7797 180.194 95.7797C179.966 95.7797 166.513 102.907 161.827 105.511L159.815 106.628L147.568 98.5609C140.832 94.1238 134.574 90.0262 133.661 89.4552C132.225 88.5579 132.001 88.2343 132.001 87.0673C132.001 86.3254 132.079 85.7177 132.174 85.7177C132.269 85.7177 138.322 89.637 145.625 94.4273C152.928 99.2176 159.178 103.242 159.514 103.37C160.211 103.634 179.996 93.2752 180.302 92.4855C180.407 92.2131 180.438 91.3722 180.369 90.6158L180.246 89.2404L173.409 92.9328C169.649 94.9638 165.152 97.3929 163.416 98.3311C161.679 99.2688 160.066 100.037 159.831 100.037C159.488 100.037 148.439 92.903 133.856 83.2668C132.258 82.2109 132.001 81.8613 132.001 80.742C132 79.8174 132.15 79.4999 132.521 79.641C132.808 79.7504 138.917 83.7076 146.097 88.4356C153.276 93.1636 159.359 97.113 159.615 97.212C159.87 97.3105 162.595 96.0458 165.67 94.4004C182.156 85.5792 180.441 86.704 180.441 84.7103V82.9956L178.586 83.9289C177.565 84.4421 172.954 86.8867 168.338 89.3606C163.723 91.8345 159.763 93.7888 159.539 93.7037C159.315 93.6162 155.972 91.4684 152.109 88.9256C148.247 86.3829 142.222 82.4371 138.721 80.1572C135.219 77.8772 132.262 75.7722 132.148 75.4793C132.035 75.1861 131.999 74.5077 132.069 73.9713L132.195 72.9964L134.735 74.6629C136.131 75.5799 142.355 79.677 148.564 83.7682C158.408 90.2537 159.96 91.1541 160.675 90.7959C161.125 90.5705 163.175 89.4656 165.229 88.3417C167.283 87.2177 171.546 84.9152 174.703 83.225L180.441 80.152V78.4843C180.441 77.5674 180.346 76.8166 180.229 76.8166C180.112 76.8166 178.926 77.4009 177.592 78.1146C176.258 78.828 171.827 81.2005 167.745 83.3857C163.663 85.5709 160.21 87.4232 160.073 87.5019C159.936 87.5785 157.475 86.1098 154.604 84.2331C151.733 82.3566 145.473 78.2646 140.692 75.1398C132.116 69.5344 132 69.4402 132 68.1064C132 67.3634 132.082 66.7545 132.183 66.7545C132.283 66.7545 137.601 70.206 144 74.4245C150.399 78.643 156.603 82.7065 157.786 83.4545L159.938 84.8144L170.184 79.3643L180.43 73.9141L180.436 72.4628C180.439 71.6652 180.302 71.0115 180.132 71.0115C179.961 71.0115 175.386 73.3626 169.966 76.2361C164.545 79.1095 159.943 81.4606 159.739 81.4606C159.536 81.4606 154.398 78.1908 148.322 74.1944C142.246 70.1981 136.095 66.1643 134.653 65.2305C133.212 64.2972 132.097 63.4299 132.175 63.3044C132.253 63.1786 136.729 61.0784 142.121 58.6363C147.512 56.1944 151.924 54.1018 151.924 53.9861C151.924 53.8701 151.45 53.4904 150.87 53.1425L149.817 52.5089L151.163 51.9432C153.895 50.795 160.889 47.7985 167.08 45.1237C170.581 43.6109 173.704 42.3732 174.019 42.3732C174.334 42.3732 174.922 42.5767 175.324 42.8262C175.92 43.1949 176.448 43.0965 178.151 42.301C179.303 41.7626 181.874 40.575 183.864 39.6612L187.483 38L191.873 40.0651C201.758 44.715 215.991 51.6462 215.991 51.81C215.991 51.9084 213.09 53.5123 209.545 55.3789L203.099 58.7726V60.2832V61.7938L206.127 60.135C212.74 56.5118 215.361 55.1448 215.693 55.1448C215.884 55.1448 215.985 55.7104 215.918 56.4025C215.802 57.6002 215.498 57.8192 209.545 60.9938L203.295 64.3273L203.176 66.1215C203.11 67.1085 203.124 67.9159 203.205 67.9159C203.287 67.9159 206.104 66.4356 209.466 64.6263C212.828 62.817 215.671 61.3368 215.785 61.3368C215.899 61.3368 215.991 61.9025 215.99 62.5946C215.989 63.8233 215.841 63.9318 209.545 67.2975L203.1 70.7426V72.4253C203.1 73.351 203.205 74.108 203.334 74.108C203.463 74.108 205.792 72.9128 208.51 71.452C211.228 69.9913 214.023 68.5065 214.722 68.1526L215.991 67.5092V68.8532C215.991 70.1949 215.98 70.203 209.558 73.6039L203.124 77.0106L203.112 78.8329L203.1 80.6551L206.128 79.0403C207.793 78.1518 210.65 76.6071 212.476 75.607L215.797 73.7887L215.925 74.9956C216.083 76.4761 216.06 76.4933 209.546 79.9131C202.836 83.4358 203.022 83.281 203.172 85.2387L203.296 86.8596L209.137 83.7313C216.513 79.7805 215.992 79.9484 215.992 81.5222C215.992 82.7196 215.806 82.9224 213.74 83.9824C212.501 84.6182 209.601 86.1669 207.294 87.4248L203.1 89.7117V91.3916C203.1 92.3151 203.174 93.0713 203.265 93.0713C203.356 93.0713 206.197 91.591 209.58 89.7818C212.963 87.9725 215.79 86.4922 215.862 86.4922C215.934 86.4922 215.992 87.0874 215.992 87.8155C215.992 89.1298 215.949 89.162 209.564 92.5563C203.693 95.6774 203.126 96.0713 203.021 97.0986C202.912 98.1479 202.18 98.6071 192.054 103.968C186.085 107.127 181.043 109.712 180.849 109.712C180.655 109.712 180.441 109.367 180.372 108.944C180.262 108.265 179.461 108.602 173.411 111.874C163.524 117.22 160.12 119 159.783 119C159.618 119 153.303 114.951 145.749 110.002L145.748 110.002ZM191.113 101.525C195.234 99.3641 199.004 97.3561 199.49 97.0632L200.372 96.5303L200.271 78.4854L200.169 60.4406L195.872 57.9309C190.552 54.8241 179.956 48.617 176.473 46.5669L173.872 45.0361L165.144 48.7845C160.343 50.8462 156.285 52.6488 156.126 52.7905C155.966 52.9316 161.064 56.1661 167.455 59.9769C173.845 63.788 179.997 67.4867 181.125 68.1964L183.176 69.4867V87.4705C183.176 97.3616 183.275 105.454 183.397 105.454C183.519 105.454 186.99 103.686 191.112 101.525L191.113 101.525ZM180.696 62.4437C178.435 62.1089 178.149 61.8933 178.932 61.1175C179.396 60.658 179.757 60.6175 180.594 60.9326C181.856 61.4075 183.95 61.4513 184.64 61.0202C184.962 60.8178 184.097 60.17 182.101 59.1194L179.074 57.5255L176.934 58.0781C173.004 59.0935 168.773 57.4555 168.734 54.9034C168.728 54.4504 168.987 53.8617 169.313 53.5943C169.762 53.2245 169.797 52.9815 169.46 52.5789C169.216 52.2878 169.17 52.0394 169.357 52.0274C169.545 52.0164 170.401 51.9038 171.261 51.7812C173.539 51.4562 177.631 51.4595 177.961 51.7867C178.118 51.9421 177.988 52.3251 177.672 52.638C177.259 53.0472 176.771 53.1194 175.937 52.8962C175.299 52.7255 174.249 52.6927 173.604 52.8196C172.475 53.0483 172.539 53.1118 175.35 54.5341C177.964 55.8576 178.393 55.966 179.479 55.5769C182.16 54.6162 186.476 55.2902 188.337 56.9589C189.214 57.7456 189.24 59.529 188.386 60.3746C187.729 61.0246 187.923 61.3649 189.23 61.856C189.445 61.9326 189.495 62.1371 189.341 62.3013C189.187 62.4654 188.538 62.3888 187.9 62.124C187.261 61.8625 186.564 61.7542 186.351 61.8855C185.494 62.4107 182.481 62.7072 180.696 62.4425L180.696 62.4437ZM186.614 58.9452C186.737 57.9254 185.843 57.0886 184.021 56.5176C183.03 56.2069 180.438 56.5614 180.447 57.0002C180.456 57.3766 185.622 60.1284 186.106 60.0144C186.321 59.9597 186.55 59.4826 186.614 58.9453L186.614 58.9452ZM176.47 56.74C176.837 56.5091 176.19 56.0014 174.273 55.0196C172.779 54.2536 171.446 53.7356 171.311 53.8692C170.673 54.5006 171.128 55.9269 172.14 56.4707C173.323 57.1064 175.655 57.252 176.47 56.7399V56.74ZM168.791 73.8774C173.48 71.4097 177.31 69.2763 177.304 69.1366C177.286 68.758 155.573 55.9161 154.976 55.9306C154.235 55.9526 137.665 63.4799 137.665 63.7987C137.665 64.1225 159.39 78.3437 159.903 78.3557C160.103 78.3612 164.102 76.3451 168.791 73.8774ZM205.267 54.6421C207.774 53.3017 209.818 52.0588 209.809 51.88C209.8 51.7016 204.766 49.15 198.623 46.2105L187.453 40.8661L183.114 42.882L178.775 44.8977L185.746 48.9566C189.581 51.189 194.219 53.9133 196.053 55.0107C197.887 56.1081 199.685 57.0224 200.048 57.0425C200.411 57.0645 202.759 55.9823 205.267 54.6421Z"/>
</mask>
<path d="M145.748 110.002L132.013 101.004L132.007 99.5264L132.001 98.0488L133.075 98.7961C133.666 99.2075 139.939 103.328 147.014 107.954L159.88 116.364L162.836 114.798C164.462 113.937 169.044 111.501 173.019 109.385L180.246 105.539L180.365 103.755C180.43 102.774 180.411 101.971 180.321 101.971C180.232 101.971 175.562 104.424 169.944 107.421L159.73 112.871L145.865 103.751L132 94.6322V93.248C132 92.2435 132.134 91.9435 132.488 92.1549C132.757 92.3146 138.954 96.3725 146.259 101.172C153.564 105.971 159.767 109.875 160.043 109.846C160.319 109.813 165.019 107.381 170.487 104.431L180.43 99.0693L180.436 97.4245C180.439 96.5196 180.33 95.7797 180.194 95.7797C179.966 95.7797 166.513 102.907 161.827 105.511L159.815 106.628L147.568 98.5609C140.832 94.1238 134.574 90.0262 133.661 89.4552C132.225 88.5579 132.001 88.2343 132.001 87.0673C132.001 86.3254 132.079 85.7177 132.174 85.7177C132.269 85.7177 138.322 89.637 145.625 94.4273C152.928 99.2176 159.178 103.242 159.514 103.37C160.211 103.634 179.996 93.2752 180.302 92.4855C180.407 92.2131 180.438 91.3722 180.369 90.6158L180.246 89.2404L173.409 92.9328C169.649 94.9638 165.152 97.3929 163.416 98.3311C161.679 99.2688 160.066 100.037 159.831 100.037C159.488 100.037 148.439 92.903 133.856 83.2668C132.258 82.2109 132.001 81.8613 132.001 80.742C132 79.8174 132.15 79.4999 132.521 79.641C132.808 79.7504 138.917 83.7076 146.097 88.4356C153.276 93.1636 159.359 97.113 159.615 97.212C159.87 97.3105 162.595 96.0458 165.67 94.4004C182.156 85.5792 180.441 86.704 180.441 84.7103V82.9956L178.586 83.9289C177.565 84.4421 172.954 86.8867 168.338 89.3606C163.723 91.8345 159.763 93.7888 159.539 93.7037C159.315 93.6162 155.972 91.4684 152.109 88.9256C148.247 86.3829 142.222 82.4371 138.721 80.1572C135.219 77.8772 132.262 75.7722 132.148 75.4793C132.035 75.1861 131.999 74.5077 132.069 73.9713L132.195 72.9964L134.735 74.6629C136.131 75.5799 142.355 79.677 148.564 83.7682C158.408 90.2537 159.96 91.1541 160.675 90.7959C161.125 90.5705 163.175 89.4656 165.229 88.3417C167.283 87.2177 171.546 84.9152 174.703 83.225L180.441 80.152V78.4843C180.441 77.5674 180.346 76.8166 180.229 76.8166C180.112 76.8166 178.926 77.4009 177.592 78.1146C176.258 78.828 171.827 81.2005 167.745 83.3857C163.663 85.5709 160.21 87.4232 160.073 87.5019C159.936 87.5785 157.475 86.1098 154.604 84.2331C151.733 82.3566 145.473 78.2646 140.692 75.1398C132.116 69.5344 132 69.4402 132 68.1064C132 67.3634 132.082 66.7545 132.183 66.7545C132.283 66.7545 137.601 70.206 144 74.4245C150.399 78.643 156.603 82.7065 157.786 83.4545L159.938 84.8144L170.184 79.3643L180.43 73.9141L180.436 72.4628C180.439 71.6652 180.302 71.0115 180.132 71.0115C179.961 71.0115 175.386 73.3626 169.966 76.2361C164.545 79.1095 159.943 81.4606 159.739 81.4606C159.536 81.4606 154.398 78.1908 148.322 74.1944C142.246 70.1981 136.095 66.1643 134.653 65.2305C133.212 64.2972 132.097 63.4299 132.175 63.3044C132.253 63.1786 136.729 61.0784 142.121 58.6363C147.512 56.1944 151.924 54.1018 151.924 53.9861C151.924 53.8701 151.45 53.4904 150.87 53.1425L149.817 52.5089L151.163 51.9432C153.895 50.795 160.889 47.7985 167.08 45.1237C170.581 43.6109 173.704 42.3732 174.019 42.3732C174.334 42.3732 174.922 42.5767 175.324 42.8262C175.92 43.1949 176.448 43.0965 178.151 42.301C179.303 41.7626 181.874 40.575 183.864 39.6612L187.483 38L191.873 40.0651C201.758 44.715 215.991 51.6462 215.991 51.81C215.991 51.9084 213.09 53.5123 209.545 55.3789L203.099 58.7726V60.2832V61.7938L206.127 60.135C212.74 56.5118 215.361 55.1448 215.693 55.1448C215.884 55.1448 215.985 55.7104 215.918 56.4025C215.802 57.6002 215.498 57.8192 209.545 60.9938L203.295 64.3273L203.176 66.1215C203.11 67.1085 203.124 67.9159 203.205 67.9159C203.287 67.9159 206.104 66.4356 209.466 64.6263C212.828 62.817 215.671 61.3368 215.785 61.3368C215.899 61.3368 215.991 61.9025 215.99 62.5946C215.989 63.8233 215.841 63.9318 209.545 67.2975L203.1 70.7426V72.4253C203.1 73.351 203.205 74.108 203.334 74.108C203.463 74.108 205.792 72.9128 208.51 71.452C211.228 69.9913 214.023 68.5065 214.722 68.1526L215.991 67.5092V68.8532C215.991 70.1949 215.98 70.203 209.558 73.6039L203.124 77.0106L203.112 78.8329L203.1 80.6551L206.128 79.0403C207.793 78.1518 210.65 76.6071 212.476 75.607L215.797 73.7887L215.925 74.9956C216.083 76.4761 216.06 76.4933 209.546 79.9131C202.836 83.4358 203.022 83.281 203.172 85.2387L203.296 86.8596L209.137 83.7313C216.513 79.7805 215.992 79.9484 215.992 81.5222C215.992 82.7196 215.806 82.9224 213.74 83.9824C212.501 84.6182 209.601 86.1669 207.294 87.4248L203.1 89.7117V91.3916C203.1 92.3151 203.174 93.0713 203.265 93.0713C203.356 93.0713 206.197 91.591 209.58 89.7818C212.963 87.9725 215.79 86.4922 215.862 86.4922C215.934 86.4922 215.992 87.0874 215.992 87.8155C215.992 89.1298 215.949 89.162 209.564 92.5563C203.693 95.6774 203.126 96.0713 203.021 97.0986C202.912 98.1479 202.18 98.6071 192.054 103.968C186.085 107.127 181.043 109.712 180.849 109.712C180.655 109.712 180.441 109.367 180.372 108.944C180.262 108.265 179.461 108.602 173.411 111.874C163.524 117.22 160.12 119 159.783 119C159.618 119 153.303 114.951 145.749 110.002L145.748 110.002ZM191.113 101.525C195.234 99.3641 199.004 97.3561 199.49 97.0632L200.372 96.5303L200.271 78.4854L200.169 60.4406L195.872 57.9309C190.552 54.8241 179.956 48.617 176.473 46.5669L173.872 45.0361L165.144 48.7845C160.343 50.8462 156.285 52.6488 156.126 52.7905C155.966 52.9316 161.064 56.1661 167.455 59.9769C173.845 63.788 179.997 67.4867 181.125 68.1964L183.176 69.4867V87.4705C183.176 97.3616 183.275 105.454 183.397 105.454C183.519 105.454 186.99 103.686 191.112 101.525L191.113 101.525ZM180.696 62.4437C178.435 62.1089 178.149 61.8933 178.932 61.1175C179.396 60.658 179.757 60.6175 180.594 60.9326C181.856 61.4075 183.95 61.4513 184.64 61.0202C184.962 60.8178 184.097 60.17 182.101 59.1194L179.074 57.5255L176.934 58.0781C173.004 59.0935 168.773 57.4555 168.734 54.9034C168.728 54.4504 168.987 53.8617 169.313 53.5943C169.762 53.2245 169.797 52.9815 169.46 52.5789C169.216 52.2878 169.17 52.0394 169.357 52.0274C169.545 52.0164 170.401 51.9038 171.261 51.7812C173.539 51.4562 177.631 51.4595 177.961 51.7867C178.118 51.9421 177.988 52.3251 177.672 52.638C177.259 53.0472 176.771 53.1194 175.937 52.8962C175.299 52.7255 174.249 52.6927 173.604 52.8196C172.475 53.0483 172.539 53.1118 175.35 54.5341C177.964 55.8576 178.393 55.966 179.479 55.5769C182.16 54.6162 186.476 55.2902 188.337 56.9589C189.214 57.7456 189.24 59.529 188.386 60.3746C187.729 61.0246 187.923 61.3649 189.23 61.856C189.445 61.9326 189.495 62.1371 189.341 62.3013C189.187 62.4654 188.538 62.3888 187.9 62.124C187.261 61.8625 186.564 61.7542 186.351 61.8855C185.494 62.4107 182.481 62.7072 180.696 62.4425L180.696 62.4437ZM186.614 58.9452C186.737 57.9254 185.843 57.0886 184.021 56.5176C183.03 56.2069 180.438 56.5614 180.447 57.0002C180.456 57.3766 185.622 60.1284 186.106 60.0144C186.321 59.9597 186.55 59.4826 186.614 58.9453L186.614 58.9452ZM176.47 56.74C176.837 56.5091 176.19 56.0014 174.273 55.0196C172.779 54.2536 171.446 53.7356 171.311 53.8692C170.673 54.5006 171.128 55.9269 172.14 56.4707C173.323 57.1064 175.655 57.252 176.47 56.7399V56.74ZM168.791 73.8774C173.48 71.4097 177.31 69.2763 177.304 69.1366C177.286 68.758 155.573 55.9161 154.976 55.9306C154.235 55.9526 137.665 63.4799 137.665 63.7987C137.665 64.1225 159.39 78.3437 159.903 78.3557C160.103 78.3612 164.102 76.3451 168.791 73.8774ZM205.267 54.6421C207.774 53.3017 209.818 52.0588 209.809 51.88C209.8 51.7016 204.766 49.15 198.623 46.2105L187.453 40.8661L183.114 42.882L178.775 44.8977L185.746 48.9566C189.581 51.189 194.219 53.9133 196.053 55.0107C197.887 56.1081 199.685 57.0224 200.048 57.0425C200.411 57.0645 202.759 55.9823 205.267 54.6421Z" fill="#313131"/>
<path d="M145.748 110.002L132.013 101.004L132.007 99.5264L132.001 98.0488L133.075 98.7961C133.666 99.2075 139.939 103.328 147.014 107.954L159.88 116.364L162.836 114.798C164.462 113.937 169.044 111.501 173.019 109.385L180.246 105.539L180.365 103.755C180.43 102.774 180.411 101.971 180.321 101.971C180.232 101.971 175.562 104.424 169.944 107.421L159.73 112.871L145.865 103.751L132 94.6322V93.248C132 92.2435 132.134 91.9435 132.488 92.1549C132.757 92.3146 138.954 96.3725 146.259 101.172C153.564 105.971 159.767 109.875 160.043 109.846C160.319 109.813 165.019 107.381 170.487 104.431L180.43 99.0693L180.436 97.4245C180.439 96.5196 180.33 95.7797 180.194 95.7797C179.966 95.7797 166.513 102.907 161.827 105.511L159.815 106.628L147.568 98.5609C140.832 94.1238 134.574 90.0262 133.661 89.4552C132.225 88.5579 132.001 88.2343 132.001 87.0673C132.001 86.3254 132.079 85.7177 132.174 85.7177C132.269 85.7177 138.322 89.637 145.625 94.4273C152.928 99.2176 159.178 103.242 159.514 103.37C160.211 103.634 179.996 93.2752 180.302 92.4855C180.407 92.2131 180.438 91.3722 180.369 90.6158L180.246 89.2404L173.409 92.9328C169.649 94.9638 165.152 97.3929 163.416 98.3311C161.679 99.2688 160.066 100.037 159.831 100.037C159.488 100.037 148.439 92.903 133.856 83.2668C132.258 82.2109 132.001 81.8613 132.001 80.742C132 79.8174 132.15 79.4999 132.521 79.641C132.808 79.7504 138.917 83.7076 146.097 88.4356C153.276 93.1636 159.359 97.113 159.615 97.212C159.87 97.3105 162.595 96.0458 165.67 94.4004C182.156 85.5792 180.441 86.704 180.441 84.7103V82.9956L178.586 83.9289C177.565 84.4421 172.954 86.8867 168.338 89.3606C163.723 91.8345 159.763 93.7888 159.539 93.7037C159.315 93.6162 155.972 91.4684 152.109 88.9256C148.247 86.3829 142.222 82.4371 138.721 80.1572C135.219 77.8772 132.262 75.7722 132.148 75.4793C132.035 75.1861 131.999 74.5077 132.069 73.9713L132.195 72.9964L134.735 74.6629C136.131 75.5799 142.355 79.677 148.564 83.7682C158.408 90.2537 159.96 91.1541 160.675 90.7959C161.125 90.5705 163.175 89.4656 165.229 88.3417C167.283 87.2177 171.546 84.9152 174.703 83.225L180.441 80.152V78.4843C180.441 77.5674 180.346 76.8166 180.229 76.8166C180.112 76.8166 178.926 77.4009 177.592 78.1146C176.258 78.828 171.827 81.2005 167.745 83.3857C163.663 85.5709 160.21 87.4232 160.073 87.5019C159.936 87.5785 157.475 86.1098 154.604 84.2331C151.733 82.3566 145.473 78.2646 140.692 75.1398C132.116 69.5344 132 69.4402 132 68.1064C132 67.3634 132.082 66.7545 132.183 66.7545C132.283 66.7545 137.601 70.206 144 74.4245C150.399 78.643 156.603 82.7065 157.786 83.4545L159.938 84.8144L170.184 79.3643L180.43 73.9141L180.436 72.4628C180.439 71.6652 180.302 71.0115 180.132 71.0115C179.961 71.0115 175.386 73.3626 169.966 76.2361C164.545 79.1095 159.943 81.4606 159.739 81.4606C159.536 81.4606 154.398 78.1908 148.322 74.1944C142.246 70.1981 136.095 66.1643 134.653 65.2305C133.212 64.2972 132.097 63.4299 132.175 63.3044C132.253 63.1786 136.729 61.0784 142.121 58.6363C147.512 56.1944 151.924 54.1018 151.924 53.9861C151.924 53.8701 151.45 53.4904 150.87 53.1425L149.817 52.5089L151.163 51.9432C153.895 50.795 160.889 47.7985 167.08 45.1237C170.581 43.6109 173.704 42.3732 174.019 42.3732C174.334 42.3732 174.922 42.5767 175.324 42.8262C175.92 43.1949 176.448 43.0965 178.151 42.301C179.303 41.7626 181.874 40.575 183.864 39.6612L187.483 38L191.873 40.0651C201.758 44.715 215.991 51.6462 215.991 51.81C215.991 51.9084 213.09 53.5123 209.545 55.3789L203.099 58.7726V60.2832V61.7938L206.127 60.135C212.74 56.5118 215.361 55.1448 215.693 55.1448C215.884 55.1448 215.985 55.7104 215.918 56.4025C215.802 57.6002 215.498 57.8192 209.545 60.9938L203.295 64.3273L203.176 66.1215C203.11 67.1085 203.124 67.9159 203.205 67.9159C203.287 67.9159 206.104 66.4356 209.466 64.6263C212.828 62.817 215.671 61.3368 215.785 61.3368C215.899 61.3368 215.991 61.9025 215.99 62.5946C215.989 63.8233 215.841 63.9318 209.545 67.2975L203.1 70.7426V72.4253C203.1 73.351 203.205 74.108 203.334 74.108C203.463 74.108 205.792 72.9128 208.51 71.452C211.228 69.9913 214.023 68.5065 214.722 68.1526L215.991 67.5092V68.8532C215.991 70.1949 215.98 70.203 209.558 73.6039L203.124 77.0106L203.112 78.8329L203.1 80.6551L206.128 79.0403C207.793 78.1518 210.65 76.6071 212.476 75.607L215.797 73.7887L215.925 74.9956C216.083 76.4761 216.06 76.4933 209.546 79.9131C202.836 83.4358 203.022 83.281 203.172 85.2387L203.296 86.8596L209.137 83.7313C216.513 79.7805 215.992 79.9484 215.992 81.5222C215.992 82.7196 215.806 82.9224 213.74 83.9824C212.501 84.6182 209.601 86.1669 207.294 87.4248L203.1 89.7117V91.3916C203.1 92.3151 203.174 93.0713 203.265 93.0713C203.356 93.0713 206.197 91.591 209.58 89.7818C212.963 87.9725 215.79 86.4922 215.862 86.4922C215.934 86.4922 215.992 87.0874 215.992 87.8155C215.992 89.1298 215.949 89.162 209.564 92.5563C203.693 95.6774 203.126 96.0713 203.021 97.0986C202.912 98.1479 202.18 98.6071 192.054 103.968C186.085 107.127 181.043 109.712 180.849 109.712C180.655 109.712 180.441 109.367 180.372 108.944C180.262 108.265 179.461 108.602 173.411 111.874C163.524 117.22 160.12 119 159.783 119C159.618 119 153.303 114.951 145.749 110.002L145.748 110.002ZM191.113 101.525C195.234 99.3641 199.004 97.3561 199.49 97.0632L200.372 96.5303L200.271 78.4854L200.169 60.4406L195.872 57.9309C190.552 54.8241 179.956 48.617 176.473 46.5669L173.872 45.0361L165.144 48.7845C160.343 50.8462 156.285 52.6488 156.126 52.7905C155.966 52.9316 161.064 56.1661 167.455 59.9769C173.845 63.788 179.997 67.4867 181.125 68.1964L183.176 69.4867V87.4705C183.176 97.3616 183.275 105.454 183.397 105.454C183.519 105.454 186.99 103.686 191.112 101.525L191.113 101.525ZM180.696 62.4437C178.435 62.1089 178.149 61.8933 178.932 61.1175C179.396 60.658 179.757 60.6175 180.594 60.9326C181.856 61.4075 183.95 61.4513 184.64 61.0202C184.962 60.8178 184.097 60.17 182.101 59.1194L179.074 57.5255L176.934 58.0781C173.004 59.0935 168.773 57.4555 168.734 54.9034C168.728 54.4504 168.987 53.8617 169.313 53.5943C169.762 53.2245 169.797 52.9815 169.46 52.5789C169.216 52.2878 169.17 52.0394 169.357 52.0274C169.545 52.0164 170.401 51.9038 171.261 51.7812C173.539 51.4562 177.631 51.4595 177.961 51.7867C178.118 51.9421 177.988 52.3251 177.672 52.638C177.259 53.0472 176.771 53.1194 175.937 52.8962C175.299 52.7255 174.249 52.6927 173.604 52.8196C172.475 53.0483 172.539 53.1118 175.35 54.5341C177.964 55.8576 178.393 55.966 179.479 55.5769C182.16 54.6162 186.476 55.2902 188.337 56.9589C189.214 57.7456 189.24 59.529 188.386 60.3746C187.729 61.0246 187.923 61.3649 189.23 61.856C189.445 61.9326 189.495 62.1371 189.341 62.3013C189.187 62.4654 188.538 62.3888 187.9 62.124C187.261 61.8625 186.564 61.7542 186.351 61.8855C185.494 62.4107 182.481 62.7072 180.696 62.4425L180.696 62.4437ZM186.614 58.9452C186.737 57.9254 185.843 57.0886 184.021 56.5176C183.03 56.2069 180.438 56.5614 180.447 57.0002C180.456 57.3766 185.622 60.1284 186.106 60.0144C186.321 59.9597 186.55 59.4826 186.614 58.9453L186.614 58.9452ZM176.47 56.74C176.837 56.5091 176.19 56.0014 174.273 55.0196C172.779 54.2536 171.446 53.7356 171.311 53.8692C170.673 54.5006 171.128 55.9269 172.14 56.4707C173.323 57.1064 175.655 57.252 176.47 56.7399V56.74ZM168.791 73.8774C173.48 71.4097 177.31 69.2763 177.304 69.1366C177.286 68.758 155.573 55.9161 154.976 55.9306C154.235 55.9526 137.665 63.4799 137.665 63.7987C137.665 64.1225 159.39 78.3437 159.903 78.3557C160.103 78.3612 164.102 76.3451 168.791 73.8774ZM205.267 54.6421C207.774 53.3017 209.818 52.0588 209.809 51.88C209.8 51.7016 204.766 49.15 198.623 46.2105L187.453 40.8661L183.114 42.882L178.775 44.8977L185.746 48.9566C189.581 51.189 194.219 53.9133 196.053 55.0107C197.887 56.1081 199.685 57.0224 200.048 57.0425C200.411 57.0645 202.759 55.9823 205.267 54.6421Z" stroke="#313131" stroke-width="0.5" mask="url(#path-4-outside-1_0:1)"/>
</svg>
