<svg width="48" height="45" viewBox="0 0 48 45" fill="none" xmlns="http://www.w3.org/2000/svg">
<path d="M26.6543 0C8.16044 0 6.72973 0.0451765 6.22683 0.645062C5.92941 0.999846 5.58578 1.5804 5.46297 1.93519C5.33894 2.29349 4.87465 2.58091 4.41872 2.58169C3.30599 2.58353 1.44066 3.7975 0.649316 5.03451C0.0582462 5.95845 0 7.08997 0 17.6766C0 24.0717 0.124192 29.7576 0.275467 30.3114C0.656339 31.7057 2.63384 33.9222 4.03082 34.5202C4.67069 34.7941 5.928 35.0176 6.82485 35.0176H8.45516V39.7483C8.45516 42.3501 8.56358 44.5894 8.6955 44.7245C9.50373 45.5526 10.7426 44.6635 15.2913 39.9938L20.1386 35.0176H26.4484H32.7581L35.6196 37.9665C37.1934 39.5884 38.6873 40.9153 38.9393 40.9153C39.2899 40.9153 39.3975 39.6247 39.3975 35.4208V29.9263L42.9835 29.7996C45.8327 29.6989 46.7011 29.5382 47.2111 29.0155C47.7989 28.413 47.8611 27.2495 47.9552 15.1669C48.056 2.22846 48.0436 1.95671 47.2996 0.987751L46.5414 0H26.6543ZM5.1615 5.35488C5.24429 5.35709 5.30935 5.37821 5.35124 5.42111C5.47527 5.54818 5.57681 10.7542 5.57681 16.9905V28.3294L6.52478 29.0933C7.4329 29.8251 7.89959 29.8571 17.6081 29.8571H27.7428L28.9634 31.1473L30.1841 32.4374H24.4527H18.7212L14.8612 36.3805L11.0004 40.3228L10.8971 36.4726L10.7938 32.6217L8.1804 32.4136C5.38202 32.1906 3.97917 31.4672 3.15382 29.8219C2.83141 29.1791 2.70789 25.9837 2.70408 18.1841C2.7012 12.2707 2.79899 7.16396 2.92192 6.83578C3.14765 6.23315 4.582 5.33898 5.1615 5.35488ZM24.6691 9.24037C25.6131 9.12513 26.5506 11.0295 28.0836 15.0315C29.6684 19.1687 29.7683 19.6072 29.2452 20.1431C28.5244 20.8815 27.9502 20.5258 27.3029 18.9386C26.8094 17.7286 26.7368 17.6931 24.7309 17.6967L22.667 17.701L22.0641 19.1711C21.5076 20.5287 20.7967 20.9987 20.2089 20.3965C19.7099 19.8852 20.0567 18.482 21.7401 14.2086C22.9978 11.016 23.8361 9.34204 24.6691 9.24036V9.24037ZM35.7777 9.32028C38.6027 9.36047 40.8366 11.6923 40.8366 14.817C40.8366 15.8107 40.5783 17.1358 40.2625 17.7615C39.7022 18.8716 39.7126 18.9189 40.6806 19.7097C41.2588 20.1819 41.5646 20.6997 41.4136 20.9501C41.0519 21.5496 40.4716 21.484 39.2176 20.7032C38.3638 20.1716 37.9027 20.1054 37.0103 20.3857C34.1453 21.2854 31.0339 19.2446 30.5839 16.1705C30.0563 12.5657 31.7693 9.86141 34.8839 9.38291C35.187 9.33636 35.4855 9.31612 35.7777 9.32028ZM17.5449 9.63993C20.0806 9.63661 20.6947 9.97806 19.9812 10.8588C19.6543 11.2623 18.8553 11.4268 17.2266 11.4268H14.9315V12.7169V14.0071H17.0691C19.3037 14.0071 19.9695 14.4087 19.2363 15.3137C18.9543 15.6619 18.1218 15.8501 16.8668 15.8501H14.9315V18.0229C14.9315 19.6636 14.7921 20.2498 14.3623 20.4188C13.6135 20.7132 13.6438 20.7197 13.1662 20.1301C12.887 19.7854 12.7843 18.0103 12.8521 14.6932L12.9526 9.76808L16.3383 9.66153C16.7807 9.6476 17.1827 9.64041 17.5449 9.63993ZM35.4025 11.2871C34.7545 11.3041 34.1447 11.4901 33.789 11.8545C32.4433 13.2332 32.5751 16.9534 34.0118 18.1452C34.4453 18.5049 35.2274 18.7901 35.7496 18.7795L36.699 18.7608L35.8895 18.1819C35.0569 17.5869 34.7866 16.5873 35.458 16.5873C35.6657 16.5873 36.3151 16.8418 36.9014 17.1524C37.9428 17.7042 37.9762 17.6935 38.3532 16.6917C38.8841 15.2808 38.5235 12.9482 37.6336 12.0366C37.132 11.5227 36.2356 11.2653 35.4025 11.2871V11.2871ZM24.6916 12.3613C24.604 12.3545 24.5313 12.4817 24.4463 12.7169C24.2999 13.1224 23.9613 14.0138 23.6937 14.6975C23.4261 15.3811 23.2067 16.0031 23.2067 16.0798C23.2067 16.1564 23.8544 16.2187 24.6459 16.2187C26.29 16.2187 26.342 16.0364 25.3788 13.6384C25.0246 12.7565 24.8375 12.3725 24.6916 12.3613Z" fill="#313131"/>
</svg>
