<svg width="57" height="50" viewBox="0 0 57 50" fill="none" xmlns="http://www.w3.org/2000/svg">
<path d="M3.70091 49.6227C2.46128 49.1286 1.13285 47.8512 0.525933 46.5698C-0.14856 45.1457 -0.177297 43.0816 0.457093 41.6253C1.77323 38.604 5.38437 35.4738 10.6143 32.8208C14.3501 30.9257 18.1734 29.7087 20.3909 29.7087C20.9554 29.7087 21.7459 29.9024 22.5751 30.2439C24.441 31.0124 26.2709 31.3545 28.516 31.3545C30.7611 31.3545 32.5911 31.0124 34.4569 30.2439C35.9707 29.6204 37.0274 29.5643 39.0616 29.9995C42.4798 30.7308 47.4509 32.9523 50.7388 35.2179C53.0602 36.8175 55.5904 39.469 56.3882 41.1381C56.9415 42.2959 57 42.5667 57 43.9725C57 45.3048 56.9294 45.6759 56.5061 46.5698C55.8877 47.8755 54.5609 49.1352 53.2811 49.6317C52.3215 50.0039 52.1005 50.0072 28.4653 49.9978C5.05901 49.9881 4.60072 49.9812 3.70091 49.6227ZM52.7874 46.43C54.7051 44.9454 54.4535 42.6741 52.1054 40.2752C49.5863 37.7015 44.4413 34.8296 39.9116 33.4685C37.369 32.7046 36.7765 32.6886 35.0058 33.3367C32.8415 34.1287 30.9141 34.4633 28.516 34.4633C26.1207 34.4633 24.1906 34.1287 22.0351 33.3399C20.7407 32.8662 20.3694 32.8024 19.5331 32.9099C17.9085 33.1187 14.48 34.39 11.6725 35.8247C4.37809 39.5524 1.39153 43.3515 3.70349 45.9617C4.5623 46.9313 3.37228 46.8893 28.7236 46.8467C52.2312 46.8073 52.3018 46.8059 52.7874 46.43ZM25.9586 29.2636C21.3788 28.3194 17.6958 25.4188 15.7265 21.2052C14.7382 19.0905 14.4211 17.8178 14.2913 15.4448C14.0542 11.1133 15.4378 7.39434 18.4474 4.27353C20.2164 2.43918 21.7506 1.44322 24.1067 0.599791C25.7194 0.0224628 25.8848 0 28.516 0C31.1473 0 31.3126 0.0228084 32.9253 0.599791C35.3378 1.46347 36.8131 2.43082 38.6766 4.37098C40.0661 5.81773 40.4056 6.30182 41.1903 7.95542C42.4725 10.6578 42.7121 11.7281 42.7027 14.7133C42.6936 17.6169 42.4463 18.7665 41.3059 21.2052C40.4136 23.1135 39.0511 24.8981 37.4751 26.223C36.1549 27.3327 33.6395 28.6469 32.0434 29.0606C30.4327 29.4782 27.478 29.5767 25.9586 29.2636ZM31.9936 25.7824C36.3643 24.3508 39.4902 20.1539 39.7489 15.3701C40.0419 9.95302 36.8824 5.27689 31.6907 3.44358C30.9288 3.17458 30.2287 3.1036 28.4278 3.113C26.3599 3.12336 26.0056 3.1752 24.8159 3.63946C21.9505 4.75727 19.7319 6.79731 18.4506 9.49236C17.5235 11.4422 17.1676 13.2342 17.2831 15.3701C17.577 20.8041 21.4247 25.2411 26.7095 26.2401C28.0666 26.4966 30.4408 26.2912 31.9936 25.7824Z" fill="white"/>
</svg>
