<svg width="33" height="40" viewBox="0 0 33 40" fill="none" xmlns="http://www.w3.org/2000/svg">
<path d="M4.72624 39.9107C2.56033 39.6446 0.693575 38.0889 0.147683 36.0951C0.0366261 35.6895 0.000248129 35.0489 0.000248129 33.499C0.000248129 31.1346 0.0391838 30.9993 0.823635 30.638C1.35162 30.3949 1.89156 30.4521 2.32219 30.7968C2.85695 31.2249 2.89416 31.3864 2.89416 33.2797C2.89416 35.2883 2.99498 35.7631 3.54416 36.3414C3.7365 36.544 4.07047 36.7996 4.28631 36.9095L4.67874 37.1094L17.3879 37.1336L30.097 37.1579V23.7602V10.3625L17.1949 10.3376C4.35922 10.3128 4.29016 10.3118 3.76234 10.1203C3.47053 10.0145 3.15582 9.89651 3.06297 9.85814C2.90294 9.79197 2.89416 10.2004 2.89416 17.7147C2.89416 25.2538 2.88543 25.6565 2.71557 25.9579C2.45388 26.422 2.11057 26.6265 1.52355 26.6678C0.923245 26.71 0.498455 26.5062 0.192655 26.029C0.00428329 25.7351 0.000963001 25.545 0.00060869 15.0326C0.000209035 3.1762 -0.0413498 3.97472 0.640745 2.73288C1.2553 1.61401 2.33843 0.757229 3.73071 0.288685L4.48582 0.0345832L17.7978 0.00623487C25.1194 -0.00929052 31.3478 0.00519191 31.6387 0.0384308C32.0924 0.0903211 32.2261 0.154616 32.5792 0.490589C32.962 0.854686 32.9909 0.9169 32.9905 1.37607C32.9901 1.93472 32.772 2.35811 32.3486 2.62204C32.0967 2.77912 31.3792 2.78998 18.3809 2.8335L4.67874 2.87936L4.28631 3.07918C3.38701 3.53711 2.80106 4.57176 2.93085 5.47259C3.00794 6.00764 3.42226 6.72096 3.82617 7.01405C4.55836 7.54535 3.60292 7.5137 18.9041 7.5137H32.9909V23.7568V40L19.1242 39.988C11.4975 39.9818 5.01845 39.9467 4.72624 39.9107V39.9107ZM15.8685 32.9887C15.0043 32.6258 14.7129 31.4921 15.3103 30.8167C15.9994 30.0376 17.1264 30.0938 17.7855 30.9402C18.0968 31.34 18.0611 32.0803 17.7093 32.5191C17.2649 33.0734 16.5217 33.263 15.8685 32.9887H15.8685ZM15.7229 28.7813C15.0029 28.3152 15.0035 28.3177 14.9722 25.7464C14.9447 23.4918 14.9494 23.4258 15.1651 23.0249C15.446 22.503 15.8328 22.293 16.7054 22.1887C17.5384 22.0892 18.1357 21.8296 18.6443 21.3457C20.1218 19.9401 19.6793 17.5716 17.7724 16.6795C17.4027 16.5066 17.159 16.4658 16.4956 16.4658C15.8321 16.4658 15.5884 16.5065 15.2187 16.6795C14.2018 17.1553 13.5653 18.0585 13.4478 19.1925C13.372 19.9243 13.1322 20.3302 12.6351 20.5678C11.9109 20.9139 11.0335 20.6789 10.6298 20.0307C10.43 19.7099 10.4123 19.593 10.4579 18.8932C10.615 16.4825 12.2932 14.4995 14.8074 13.7535C15.8129 13.4552 17.2442 13.4701 18.2801 13.7896C19.9941 14.3182 21.198 15.3136 21.985 16.8526C22.4145 17.6926 22.5247 18.2041 22.5233 19.352C22.5212 21.0625 22.0371 22.1656 20.7466 23.3997C20.1738 23.9475 19.8383 24.1798 19.1895 24.478C18.7347 24.6871 18.2933 24.8581 18.2087 24.8581C18.0751 24.8581 18.0507 25.0677 18.0228 26.4576C17.9937 27.9096 17.9721 28.081 17.789 28.3159C17.4466 28.7551 16.9986 28.9877 16.4956 28.9877C16.1838 28.9877 15.942 28.9231 15.7229 28.7813V28.7813ZM5.47378 6.39196C4.99287 6.12679 4.68332 5.53255 4.75633 5.0147C4.81965 4.56562 5.06392 4.22994 5.50877 3.98066C5.83196 3.79956 6.0098 3.79712 18.9072 3.79712C31.807 3.79712 31.9822 3.7992 32.2982 3.98066C33.2698 4.53762 33.223 5.95461 32.2172 6.43535C31.9025 6.58577 31.0671 6.59567 18.8589 6.59383L5.83631 6.59175L5.47378 6.39185L5.47378 6.39196Z" fill="white"/>
</svg>
