<svg width="67" height="64" viewBox="0 0 67 64" fill="none" xmlns="http://www.w3.org/2000/svg">
<path d="M17.0239 63.9689C14.8312 63.5469 12.9968 62.1708 12.0071 60.2054C11.7208 59.637 11.4866 59.0962 11.4866 59.0036C11.4866 58.878 11.0605 58.823 9.80562 58.7865C7.22176 58.7114 7.13585 58.6007 7.13585 55.3495V53.1744H6.7932C6.22958 53.1744 5.58976 52.7938 5.36617 52.3255C5.19626 51.9696 5.15822 51.3594 5.15822 48.9899C5.15822 45.8755 5.23567 45.4172 5.83284 45.0015C6.22658 44.7274 6.99036 44.7274 7.38411 45.0015C7.94603 45.3927 8.05872 45.9254 8.05872 48.1907V50.2915H26.3188H44.5788L44.5458 37.7444L44.5127 25.1974L43.501 25.1319C42.6718 25.0782 42.4293 25.0102 42.1565 24.755C41.7189 24.3458 41.6162 23.8293 41.8581 23.2541C42.2357 22.3558 42.1263 22.3684 49.1908 22.4091L55.5157 22.4456L55.8367 22.7732C56.0228 22.963 57.0269 25.1401 58.224 27.9492C59.3604 30.6159 60.4107 33.0769 60.558 33.4181C60.8083 33.9979 60.987 34.1449 63.2867 35.6616C65.86 37.3587 66.3183 37.7879 66.7429 38.8984C66.9938 39.5548 67.0124 40.733 66.9953 54.8552L66.992 57.912L66.6065 58.295L66.2212 58.6781H63.9574C61.722 58.6781 61.6926 58.6814 61.6162 58.9723C61.4259 59.6956 60.4897 61.2894 59.9122 61.8732C58.4532 63.348 56.9806 63.9693 54.9285 63.9759C53.4685 63.981 52.6667 63.7784 51.4517 63.0989C50.103 62.3447 48.8088 60.7648 48.3939 59.366L48.2287 58.8091H36.5329H24.837L24.6639 59.4237C24.5687 59.7617 24.2061 60.4613 23.8581 60.9784C22.5871 62.8672 20.7656 63.8839 18.4744 63.9836C17.858 64.0104 17.2054 64.0038 17.0241 63.9684L17.0239 63.9689ZM19.8687 60.8524C21.3324 60.1864 22.1676 58.8648 22.1873 57.1835C22.2025 55.9354 21.7965 55.0303 20.8399 54.1754C20.0595 53.4781 19.2418 53.1744 18.1446 53.1744C16.9277 53.1744 16.159 53.4906 15.2981 54.3453C14.3477 55.289 14.0661 56.059 14.1511 57.4821C14.2199 58.6346 14.4448 59.1548 15.2254 59.9665C16.4791 61.2701 18.2206 61.6023 19.8687 60.8524ZM56.5943 60.8854C57.4149 60.5346 58.4527 59.4249 58.7376 58.5938C59.0117 57.7942 59.0077 56.5364 58.7291 55.7202C58.4287 54.8419 57.2723 53.6926 56.3887 53.3939C55.5675 53.1163 54.3019 53.1123 53.4975 53.3855C52.6399 53.6759 51.5464 54.6984 51.1678 55.5639C50.751 56.5165 50.7713 57.9002 51.2163 58.8661C52.1547 60.9035 54.4971 61.7832 56.5951 60.8862L56.5943 60.8854ZM11.5483 55.2382C11.6715 54.8598 11.9395 54.2406 12.1441 53.8623L12.5159 53.1743H11.2762H10.0363V54.5502V55.9261H10.6804H11.3244L11.5483 55.2382ZM48.2767 55.3692C48.3584 55.0629 48.6208 54.4438 48.8599 53.9933L49.2945 53.1743H36.5364H23.7782L24.2129 53.9933C24.452 54.4438 24.7144 55.0629 24.7961 55.3692L24.9445 55.9262H36.5364H48.1282L48.2767 55.3692ZM64.223 54.5502V53.1743H62.3761H60.5292L60.9114 53.8623C61.1216 54.2407 61.3938 54.8598 61.5164 55.2382L61.7392 55.9262H62.9811H64.223V54.5502ZM64.223 45.187C64.223 41.6823 64.1766 39.9812 64.0745 39.7588C63.9827 39.5584 62.9103 38.7621 61.2612 37.6698L58.5964 35.9046L58.1724 34.9408C57.9392 34.4107 56.9051 32.0016 55.8744 29.5872L54.0005 25.1973L50.6739 25.1623L47.3473 25.1273V29.3884V33.6494H50.9628H54.5783L54.9743 33.9805C55.4753 34.3996 55.5963 34.9213 55.3359 35.5406C54.9977 36.3452 54.7011 36.4012 50.7794 36.4012H47.3473V43.3463V50.2915H55.7852H64.223L64.223 45.187ZM3.6273 41.7765C2.90215 41.4853 2.59161 40.5602 2.97297 39.8273C3.31953 39.1611 3.4028 39.1531 9.92083 39.1531H15.9895L16.3749 39.5361C17.0393 40.1964 16.8535 41.3302 16.0108 41.7585C15.664 41.9348 4.06349 41.9516 3.6273 41.7765ZM0.401798 35.8871C-0.262585 35.2268 -0.0768759 34.0931 0.765831 33.6647C1.13973 33.4747 18.2946 33.457 18.7951 33.6461C19.6915 33.9849 19.8808 35.2424 19.1359 35.9098L18.7337 36.2702H9.76042H0.787191L0.401798 35.8871ZM5.86762 30.5163C5.23196 30.131 5.15822 29.7188 5.15822 26.5495C5.15822 22.1567 4.95133 22.35 9.59197 22.4063L12.8271 22.4455L13.2116 22.8734C13.7855 23.5122 13.7067 24.3469 13.0203 24.8996C12.7778 25.0948 12.4169 25.1264 10.3989 25.1289L8.05872 25.1317L8.058 27.1956C8.05713 29.6253 7.94529 30.155 7.35848 30.5107C6.82842 30.8319 6.3912 30.8335 5.86762 30.5163V30.5163ZM25.2845 27.814C16.0966 26.0878 11.0569 16.3406 15.0419 8.00416C17.5874 2.67924 23.3589 -0.56048 29.1579 0.0804285C35.5151 0.78302 40.4557 5.29509 41.6211 11.4628C41.9526 13.2168 41.8308 16.1505 41.3611 17.7281C40.6441 20.1363 39.5979 21.9352 37.8804 23.7128C36.018 25.6404 33.8389 26.9182 31.2899 27.5774C29.6544 28.0004 26.8621 28.1104 25.2845 27.814ZM29.7509 25.0619C32.0801 24.6582 33.9287 23.6849 35.6931 21.9334C36.4808 21.1515 37.1034 20.3836 37.5042 19.6994C39.6932 15.9627 39.5479 11.3757 37.1258 7.75758C33.1451 1.8114 24.479 1.08893 19.5794 6.29479C17.3668 8.64567 16.3948 11.2702 16.5343 14.517C16.6692 17.6562 17.7467 19.9892 20.079 22.1911C22.6951 24.6611 26.1488 25.6862 29.7509 25.0619ZM27.2416 15.3139C27.0965 15.2498 25.9842 14.2002 24.7696 12.9814C22.6075 10.8119 22.5612 10.7538 22.5612 10.2072C22.5612 9.39158 23.0976 8.88287 23.9577 8.88287C24.5805 8.88287 24.5908 8.89012 26.1762 10.4513L27.769 12.0197L30.4717 9.34688C32.18 7.65757 33.3079 6.6413 33.537 6.58493C34.5838 6.32744 35.4828 7.25102 35.1998 8.29319C35.1273 8.56031 34.0235 9.74796 31.756 11.9987C28.9009 14.8327 28.3529 15.3198 27.9621 15.3708C27.7108 15.4036 27.3866 15.378 27.2416 15.3139Z" fill="white"/>
</svg>
