<svg width="26" height="26" viewBox="0 0 26 26" fill="none" xmlns="http://www.w3.org/2000/svg">
<mask id="path-1-outside-1_348:1421" maskUnits="userSpaceOnUse" x="0" y="0" width="26" height="26" fill="black">
<rect fill="white" width="26" height="26"/>
<path d="M4.92796 22.3339L1.00368 19.6678L1.00192 19.23L1.00017 18.7922L1.3071 19.0137C1.47591 19.1356 3.26816 20.3565 5.28985 21.7271L8.96564 24.2191L9.81026 23.7549C10.2748 23.4998 11.5841 22.778 12.7198 22.1512L14.7847 21.0115L14.8187 20.483C14.8373 20.1922 14.8316 19.9545 14.806 19.9545C14.7805 19.9545 13.4463 20.6811 11.8412 21.5692L8.92294 23.184L4.96147 20.4819L1.00001 17.7799V17.3698C1.00001 17.0721 1.03828 16.9833 1.13952 17.0459C1.21627 17.0932 2.98676 18.2955 5.07397 19.7176C7.16118 21.1396 8.93339 22.2962 9.01224 22.2877C9.09106 22.2779 10.4339 21.5572 11.9964 20.6834L14.8372 19.0946L14.8389 18.6073C14.8397 18.3391 14.8086 18.1199 14.7696 18.1199C14.7045 18.1199 10.8609 20.2317 9.52205 21.0031L8.94728 21.3343L5.44809 18.944C3.52354 17.6293 1.73543 16.4152 1.47453 16.246C1.06438 15.9801 1.00017 15.8842 1.00017 15.5385C1.00017 15.3186 1.02257 15.1386 1.04971 15.1386C1.07685 15.1386 2.80638 16.2999 4.89286 17.7192C6.97933 19.1385 8.76512 20.3308 8.86127 20.3687C9.06028 20.4472 14.7132 17.3778 14.8006 17.1439C14.8306 17.0631 14.8395 16.814 14.8198 16.5899L14.7845 16.1823L12.8312 17.2764C11.757 17.8782 10.472 18.5979 9.97589 18.8759C9.47973 19.1537 9.01881 19.3813 8.9516 19.3813C8.85374 19.3813 5.69684 17.2675 1.53041 14.4124C1.07379 14.0995 1.00042 13.9959 1.00023 13.6643C1.00008 13.3903 1.04299 13.2963 1.14896 13.3381C1.23089 13.3705 2.97626 14.543 5.0276 15.9439C7.07893 17.3448 8.81696 18.515 8.88987 18.5443C8.96279 18.5735 9.74129 18.1988 10.6199 17.7112C15.3302 15.0975 14.8403 15.4308 14.8403 14.8401V14.332L14.3102 14.6086C14.0186 14.7606 12.7011 15.485 11.3824 16.218C10.0637 16.951 8.93236 17.53 8.86832 17.5048C8.80429 17.4789 7.84902 16.8425 6.74552 16.0891C5.64201 15.3357 3.92062 14.1665 2.92021 13.491C1.9198 12.8155 1.07474 12.1918 1.04232 12.105C1.00989 12.0181 0.999694 11.8171 1.01961 11.6582L1.05584 11.3693L1.78134 11.8631C2.18036 12.1348 3.95845 13.3487 5.73264 14.5609C8.54517 16.4826 8.98845 16.7494 9.19272 16.6432C9.32157 16.5764 9.90719 16.2491 10.4941 15.9161C11.081 15.583 12.299 14.9008 13.2008 14.4L14.8403 13.4895V12.9954C14.8403 12.7237 14.8132 12.5012 14.7797 12.5012C14.7464 12.5012 14.4074 12.6744 14.0263 12.8858C13.6453 13.0972 12.3792 13.8002 11.2128 14.4476C10.0464 15.0951 9.06004 15.6439 9.02084 15.6672C8.98165 15.6899 8.27847 15.2547 7.45823 14.6987C6.63799 14.1427 4.84934 12.9302 3.48344 12.0044C1.03326 10.3435 1 10.3156 1 9.92041C1 9.70028 1.02336 9.51986 1.05223 9.51986C1.08094 9.51986 2.60031 10.5425 4.4286 11.7924C6.25688 13.0424 8.02942 14.2464 8.36757 14.468L8.9824 14.8709L11.9098 13.2561L14.8372 11.6412L14.8388 11.2112C14.8397 10.9749 14.8006 10.7812 14.7519 10.7812C14.7032 10.7812 13.3961 11.4778 11.8473 12.3292C10.2985 13.1806 8.98373 13.8772 8.92555 13.8772C8.86736 13.8772 7.39937 12.9084 5.66334 11.7243C3.9273 10.5402 2.16995 9.34498 1.75813 9.0683C1.3463 8.79175 1.02765 8.53479 1.05002 8.4976C1.07242 8.46031 2.35109 7.83803 3.89159 7.11447C5.43208 6.39094 6.69248 5.77089 6.69248 5.73662C6.69248 5.70226 6.55703 5.58976 6.39151 5.48666L6.09055 5.29895L6.47523 5.13133C7.25573 4.79111 9.25393 3.90327 11.0228 3.11071C12.0232 2.6625 12.9154 2.29576 13.0055 2.29576C13.0955 2.29576 13.2633 2.35606 13.3784 2.42998C13.5484 2.53923 13.6994 2.51006 14.1861 2.27436C14.5153 2.11485 15.2498 1.76295 15.8184 1.49221L16.8522 1L18.1065 1.61187C20.9307 2.98962 24.9974 5.04331 24.9974 5.09184C24.9974 5.12102 24.1687 5.59624 23.1558 6.14931L21.3141 7.15483V7.60243V8.05L22.1791 7.5585C24.0685 6.48499 24.8173 6.07993 24.9122 6.07993C24.9668 6.07993 24.9958 6.24754 24.9766 6.4526C24.9433 6.80748 24.8565 6.87235 23.1558 7.81297L21.3699 8.80067L21.3359 9.3323C21.3173 9.62473 21.321 9.86397 21.3444 9.86397C21.3678 9.86397 22.1727 9.42535 23.1332 8.88927C24.0937 8.3532 24.9061 7.91461 24.9385 7.91461C24.971 7.91461 24.9974 8.08223 24.9972 8.28729C24.9969 8.65134 24.9545 8.6835 23.1556 9.68073L21.3142 10.7015V11.2001C21.3142 11.4744 21.3442 11.6987 21.3812 11.6987C21.418 11.6987 22.0835 11.3445 22.8601 10.9117C23.6367 10.4789 24.4353 10.039 24.6348 9.93409L24.9975 9.74346V10.1417C24.9975 10.5392 24.9942 10.5416 23.1593 11.5493L21.321 12.5587L21.3177 13.0986L21.3144 13.6385L22.1794 13.1601C22.6551 12.8968 23.4713 12.4391 23.9931 12.1428L24.9419 11.604L24.9786 11.9616C25.0236 12.4003 25.0173 12.4054 23.1561 13.4187C21.239 14.4624 21.2919 14.4166 21.3347 14.9966L21.3702 15.4769L23.039 14.55C25.1467 13.3794 24.9977 13.4292 24.9977 13.8955C24.9977 14.2503 24.9447 14.3103 24.3543 14.6244C24.0004 14.8128 23.1716 15.2717 22.5126 15.6444L21.3144 16.322V16.8197C21.3144 17.0934 21.3355 17.3174 21.3614 17.3174C21.3873 17.3174 22.1993 16.8788 23.1658 16.3427C24.1324 15.8067 24.94 15.3681 24.9605 15.3681C24.981 15.3681 24.9977 15.5444 24.9977 15.7601C24.9977 16.1496 24.9854 16.1591 23.1611 17.1648C21.4839 18.0896 21.3217 18.2063 21.2916 18.5107C21.2607 18.8216 21.0514 18.9577 18.1582 20.546C16.4529 21.4822 15.0124 22.2481 14.957 22.2481C14.9016 22.2481 14.8402 22.1457 14.8206 22.0205C14.789 21.8192 14.5604 21.9191 12.8316 22.8885C10.0069 24.4727 9.03442 25 8.93788 25C8.89096 25 7.08665 23.8003 4.9283 22.334L4.92796 22.3339ZM17.8893 19.8223C19.067 19.182 20.144 18.587 20.2827 18.5002L20.535 18.3423L20.5059 12.9957L20.4769 7.64905L19.2491 6.90545C17.7292 5.98493 14.7017 4.14578 13.7065 3.53834L12.9634 3.08478L10.4697 4.19541C9.09811 4.80628 7.93865 5.34038 7.89309 5.38236C7.84752 5.42419 9.30412 6.38254 11.1299 7.51169C12.9558 8.6409 14.7133 9.73681 15.0356 9.94709L15.6216 10.3294V15.6579C15.6216 18.5886 15.65 20.9865 15.6848 20.9865C15.7196 20.9865 16.7116 20.4625 17.8892 19.8222L17.8893 19.8223ZM14.9132 8.24258C14.2672 8.14337 14.1853 8.0795 14.4091 7.84964C14.5418 7.71348 14.6447 7.70148 14.8841 7.79485C15.2444 7.93556 15.8428 7.94853 16.0401 7.82079C16.1319 7.76082 15.8848 7.56888 15.3146 7.25761L14.4497 6.78534L13.8383 6.94907C12.7155 7.24993 11.5065 6.76459 11.4955 6.00842C11.4938 5.87419 11.5679 5.69977 11.6607 5.62053C11.7891 5.51095 11.7992 5.43898 11.7029 5.31967C11.6333 5.23343 11.6201 5.15984 11.6735 5.15627C11.727 5.15301 11.9718 5.11963 12.2173 5.08332C12.8684 4.98703 14.0374 4.98801 14.1318 5.08495C14.1765 5.13099 14.1393 5.24446 14.049 5.33719C13.9311 5.45844 13.7918 5.47984 13.5534 5.4137C13.371 5.36312 13.0712 5.3534 12.887 5.391C12.5644 5.45876 12.5827 5.47757 13.3857 5.899C14.1325 6.29113 14.2552 6.32326 14.5655 6.20797C15.3314 5.92332 16.5645 6.12303 17.0964 6.61744C17.3469 6.85055 17.3542 7.37897 17.1102 7.62952C16.9227 7.8221 16.9781 7.92293 17.3516 8.06843C17.4129 8.09113 17.4271 8.15175 17.3831 8.20038C17.339 8.24901 17.1537 8.22632 16.9713 8.14786C16.7889 8.07038 16.5897 8.03828 16.5287 8.07719C16.2839 8.23281 15.4232 8.32067 14.9131 8.24221L14.9132 8.24258ZM16.6041 7.20599C16.6393 6.90383 16.3838 6.65588 15.8631 6.48671C15.5801 6.39463 14.8393 6.49968 14.8421 6.62968C14.8446 6.74121 16.3206 7.55656 16.4588 7.52278C16.5202 7.50656 16.5856 7.36521 16.6041 7.20603L16.6041 7.20599ZM13.7057 6.55259C13.8106 6.48418 13.6256 6.33375 13.0781 6.04284C12.6511 5.81589 12.2702 5.66241 12.2316 5.702C12.0496 5.88907 12.1794 6.31167 12.4685 6.4728C12.8066 6.66117 13.4729 6.70428 13.7057 6.55256V6.55259ZM11.5116 11.6303C12.8513 10.8992 13.9458 10.2671 13.9439 10.2257C13.9389 10.1135 7.73525 6.30846 7.56465 6.31277C7.35293 6.31929 2.61848 8.5496 2.61848 8.64405C2.61848 8.74001 8.82575 12.9537 8.97239 12.9573C9.02929 12.9589 10.172 12.3615 11.5116 11.6303V11.6303ZM21.9333 5.93099C22.6498 5.53383 23.2338 5.16557 23.2311 5.11259C23.2286 5.05974 21.7902 4.3037 20.035 3.43275L16.8437 1.84923L15.604 2.44651L14.3643 3.04377L16.3561 4.24641C17.4516 4.90785 18.7768 5.71506 19.3008 6.04021C19.8249 6.36536 20.3385 6.63626 20.4422 6.64223C20.5459 6.64875 21.2169 6.32808 21.9333 5.93099V5.93099Z"/>
</mask>
<path d="M4.92796 22.3339L1.00368 19.6678L1.00192 19.23L1.00017 18.7922L1.3071 19.0137C1.47591 19.1356 3.26816 20.3565 5.28985 21.7271L8.96564 24.2191L9.81026 23.7549C10.2748 23.4998 11.5841 22.778 12.7198 22.1512L14.7847 21.0115L14.8187 20.483C14.8373 20.1922 14.8316 19.9545 14.806 19.9545C14.7805 19.9545 13.4463 20.6811 11.8412 21.5692L8.92294 23.184L4.96147 20.4819L1.00001 17.7799V17.3698C1.00001 17.0721 1.03828 16.9833 1.13952 17.0459C1.21627 17.0932 2.98676 18.2955 5.07397 19.7176C7.16118 21.1396 8.93339 22.2962 9.01224 22.2877C9.09106 22.2779 10.4339 21.5572 11.9964 20.6834L14.8372 19.0946L14.8389 18.6073C14.8397 18.3391 14.8086 18.1199 14.7696 18.1199C14.7045 18.1199 10.8609 20.2317 9.52205 21.0031L8.94728 21.3343L5.44809 18.944C3.52354 17.6293 1.73543 16.4152 1.47453 16.246C1.06438 15.9801 1.00017 15.8842 1.00017 15.5385C1.00017 15.3186 1.02257 15.1386 1.04971 15.1386C1.07685 15.1386 2.80638 16.2999 4.89286 17.7192C6.97933 19.1385 8.76512 20.3308 8.86127 20.3687C9.06028 20.4472 14.7132 17.3778 14.8006 17.1439C14.8306 17.0631 14.8395 16.814 14.8198 16.5899L14.7845 16.1823L12.8312 17.2764C11.757 17.8782 10.472 18.5979 9.97589 18.8759C9.47973 19.1537 9.01881 19.3813 8.9516 19.3813C8.85374 19.3813 5.69684 17.2675 1.53041 14.4124C1.07379 14.0995 1.00042 13.9959 1.00023 13.6643C1.00008 13.3903 1.04299 13.2963 1.14896 13.3381C1.23089 13.3705 2.97626 14.543 5.0276 15.9439C7.07893 17.3448 8.81696 18.515 8.88987 18.5443C8.96279 18.5735 9.74129 18.1988 10.6199 17.7112C15.3302 15.0975 14.8403 15.4308 14.8403 14.8401V14.332L14.3102 14.6086C14.0186 14.7606 12.7011 15.485 11.3824 16.218C10.0637 16.951 8.93236 17.53 8.86832 17.5048C8.80429 17.4789 7.84902 16.8425 6.74552 16.0891C5.64201 15.3357 3.92062 14.1665 2.92021 13.491C1.9198 12.8155 1.07474 12.1918 1.04232 12.105C1.00989 12.0181 0.999694 11.8171 1.01961 11.6582L1.05584 11.3693L1.78134 11.8631C2.18036 12.1348 3.95845 13.3487 5.73264 14.5609C8.54517 16.4826 8.98845 16.7494 9.19272 16.6432C9.32157 16.5764 9.90719 16.2491 10.4941 15.9161C11.081 15.583 12.299 14.9008 13.2008 14.4L14.8403 13.4895V12.9954C14.8403 12.7237 14.8132 12.5012 14.7797 12.5012C14.7464 12.5012 14.4074 12.6744 14.0263 12.8858C13.6453 13.0972 12.3792 13.8002 11.2128 14.4476C10.0464 15.0951 9.06004 15.6439 9.02084 15.6672C8.98165 15.6899 8.27847 15.2547 7.45823 14.6987C6.63799 14.1427 4.84934 12.9302 3.48344 12.0044C1.03326 10.3435 1 10.3156 1 9.92041C1 9.70028 1.02336 9.51986 1.05223 9.51986C1.08094 9.51986 2.60031 10.5425 4.4286 11.7924C6.25688 13.0424 8.02942 14.2464 8.36757 14.468L8.9824 14.8709L11.9098 13.2561L14.8372 11.6412L14.8388 11.2112C14.8397 10.9749 14.8006 10.7812 14.7519 10.7812C14.7032 10.7812 13.3961 11.4778 11.8473 12.3292C10.2985 13.1806 8.98373 13.8772 8.92555 13.8772C8.86736 13.8772 7.39937 12.9084 5.66334 11.7243C3.9273 10.5402 2.16995 9.34498 1.75813 9.0683C1.3463 8.79175 1.02765 8.53479 1.05002 8.4976C1.07242 8.46031 2.35109 7.83803 3.89159 7.11447C5.43208 6.39094 6.69248 5.77089 6.69248 5.73662C6.69248 5.70226 6.55703 5.58976 6.39151 5.48666L6.09055 5.29895L6.47523 5.13133C7.25573 4.79111 9.25393 3.90327 11.0228 3.11071C12.0232 2.6625 12.9154 2.29576 13.0055 2.29576C13.0955 2.29576 13.2633 2.35606 13.3784 2.42998C13.5484 2.53923 13.6994 2.51006 14.1861 2.27436C14.5153 2.11485 15.2498 1.76295 15.8184 1.49221L16.8522 1L18.1065 1.61187C20.9307 2.98962 24.9974 5.04331 24.9974 5.09184C24.9974 5.12102 24.1687 5.59624 23.1558 6.14931L21.3141 7.15483V7.60243V8.05L22.1791 7.5585C24.0685 6.48499 24.8173 6.07993 24.9122 6.07993C24.9668 6.07993 24.9958 6.24754 24.9766 6.4526C24.9433 6.80748 24.8565 6.87235 23.1558 7.81297L21.3699 8.80067L21.3359 9.3323C21.3173 9.62473 21.321 9.86397 21.3444 9.86397C21.3678 9.86397 22.1727 9.42535 23.1332 8.88927C24.0937 8.3532 24.9061 7.91461 24.9385 7.91461C24.971 7.91461 24.9974 8.08223 24.9972 8.28729C24.9969 8.65134 24.9545 8.6835 23.1556 9.68073L21.3142 10.7015V11.2001C21.3142 11.4744 21.3442 11.6987 21.3812 11.6987C21.418 11.6987 22.0835 11.3445 22.8601 10.9117C23.6367 10.4789 24.4353 10.039 24.6348 9.93409L24.9975 9.74346V10.1417C24.9975 10.5392 24.9942 10.5416 23.1593 11.5493L21.321 12.5587L21.3177 13.0986L21.3144 13.6385L22.1794 13.1601C22.6551 12.8968 23.4713 12.4391 23.9931 12.1428L24.9419 11.604L24.9786 11.9616C25.0236 12.4003 25.0173 12.4054 23.1561 13.4187C21.239 14.4624 21.2919 14.4166 21.3347 14.9966L21.3702 15.4769L23.039 14.55C25.1467 13.3794 24.9977 13.4292 24.9977 13.8955C24.9977 14.2503 24.9447 14.3103 24.3543 14.6244C24.0004 14.8128 23.1716 15.2717 22.5126 15.6444L21.3144 16.322V16.8197C21.3144 17.0934 21.3355 17.3174 21.3614 17.3174C21.3873 17.3174 22.1993 16.8788 23.1658 16.3427C24.1324 15.8067 24.94 15.3681 24.9605 15.3681C24.981 15.3681 24.9977 15.5444 24.9977 15.7601C24.9977 16.1496 24.9854 16.1591 23.1611 17.1648C21.4839 18.0896 21.3217 18.2063 21.2916 18.5107C21.2607 18.8216 21.0514 18.9577 18.1582 20.546C16.4529 21.4822 15.0124 22.2481 14.957 22.2481C14.9016 22.2481 14.8402 22.1457 14.8206 22.0205C14.789 21.8192 14.5604 21.9191 12.8316 22.8885C10.0069 24.4727 9.03442 25 8.93788 25C8.89096 25 7.08665 23.8003 4.9283 22.334L4.92796 22.3339ZM17.8893 19.8223C19.067 19.182 20.144 18.587 20.2827 18.5002L20.535 18.3423L20.5059 12.9957L20.4769 7.64905L19.2491 6.90545C17.7292 5.98493 14.7017 4.14578 13.7065 3.53834L12.9634 3.08478L10.4697 4.19541C9.09811 4.80628 7.93865 5.34038 7.89309 5.38236C7.84752 5.42419 9.30412 6.38254 11.1299 7.51169C12.9558 8.6409 14.7133 9.73681 15.0356 9.94709L15.6216 10.3294V15.6579C15.6216 18.5886 15.65 20.9865 15.6848 20.9865C15.7196 20.9865 16.7116 20.4625 17.8892 19.8222L17.8893 19.8223ZM14.9132 8.24258C14.2672 8.14337 14.1853 8.0795 14.4091 7.84964C14.5418 7.71348 14.6447 7.70148 14.8841 7.79485C15.2444 7.93556 15.8428 7.94853 16.0401 7.82079C16.1319 7.76082 15.8848 7.56888 15.3146 7.25761L14.4497 6.78534L13.8383 6.94907C12.7155 7.24993 11.5065 6.76459 11.4955 6.00842C11.4938 5.87419 11.5679 5.69977 11.6607 5.62053C11.7891 5.51095 11.7992 5.43898 11.7029 5.31967C11.6333 5.23343 11.6201 5.15984 11.6735 5.15627C11.727 5.15301 11.9718 5.11963 12.2173 5.08332C12.8684 4.98703 14.0374 4.98801 14.1318 5.08495C14.1765 5.13099 14.1393 5.24446 14.049 5.33719C13.9311 5.45844 13.7918 5.47984 13.5534 5.4137C13.371 5.36312 13.0712 5.3534 12.887 5.391C12.5644 5.45876 12.5827 5.47757 13.3857 5.899C14.1325 6.29113 14.2552 6.32326 14.5655 6.20797C15.3314 5.92332 16.5645 6.12303 17.0964 6.61744C17.3469 6.85055 17.3542 7.37897 17.1102 7.62952C16.9227 7.8221 16.9781 7.92293 17.3516 8.06843C17.4129 8.09113 17.4271 8.15175 17.3831 8.20038C17.339 8.24901 17.1537 8.22632 16.9713 8.14786C16.7889 8.07038 16.5897 8.03828 16.5287 8.07719C16.2839 8.23281 15.4232 8.32067 14.9131 8.24221L14.9132 8.24258ZM16.6041 7.20599C16.6393 6.90383 16.3838 6.65588 15.8631 6.48671C15.5801 6.39463 14.8393 6.49968 14.8421 6.62968C14.8446 6.74121 16.3206 7.55656 16.4588 7.52278C16.5202 7.50656 16.5856 7.36521 16.6041 7.20603L16.6041 7.20599ZM13.7057 6.55259C13.8106 6.48418 13.6256 6.33375 13.0781 6.04284C12.6511 5.81589 12.2702 5.66241 12.2316 5.702C12.0496 5.88907 12.1794 6.31167 12.4685 6.4728C12.8066 6.66117 13.4729 6.70428 13.7057 6.55256V6.55259ZM11.5116 11.6303C12.8513 10.8992 13.9458 10.2671 13.9439 10.2257C13.9389 10.1135 7.73525 6.30846 7.56465 6.31277C7.35293 6.31929 2.61848 8.5496 2.61848 8.64405C2.61848 8.74001 8.82575 12.9537 8.97239 12.9573C9.02929 12.9589 10.172 12.3615 11.5116 11.6303V11.6303ZM21.9333 5.93099C22.6498 5.53383 23.2338 5.16557 23.2311 5.11259C23.2286 5.05974 21.7902 4.3037 20.035 3.43275L16.8437 1.84923L15.604 2.44651L14.3643 3.04377L16.3561 4.24641C17.4516 4.90785 18.7768 5.71506 19.3008 6.04021C19.8249 6.36536 20.3385 6.63626 20.4422 6.64223C20.5459 6.64875 21.2169 6.32808 21.9333 5.93099V5.93099Z" fill="#3CB043"/>
<path d="M4.92796 22.3339L1.00368 19.6678L1.00192 19.23L1.00017 18.7922L1.3071 19.0137C1.47591 19.1356 3.26816 20.3565 5.28985 21.7271L8.96564 24.2191L9.81026 23.7549C10.2748 23.4998 11.5841 22.778 12.7198 22.1512L14.7847 21.0115L14.8187 20.483C14.8373 20.1922 14.8316 19.9545 14.806 19.9545C14.7805 19.9545 13.4463 20.6811 11.8412 21.5692L8.92294 23.184L4.96147 20.4819L1.00001 17.7799V17.3698C1.00001 17.0721 1.03828 16.9833 1.13952 17.0459C1.21627 17.0932 2.98676 18.2955 5.07397 19.7176C7.16118 21.1396 8.93339 22.2962 9.01224 22.2877C9.09106 22.2779 10.4339 21.5572 11.9964 20.6834L14.8372 19.0946L14.8389 18.6073C14.8397 18.3391 14.8086 18.1199 14.7696 18.1199C14.7045 18.1199 10.8609 20.2317 9.52205 21.0031L8.94728 21.3343L5.44809 18.944C3.52354 17.6293 1.73543 16.4152 1.47453 16.246C1.06438 15.9801 1.00017 15.8842 1.00017 15.5385C1.00017 15.3186 1.02257 15.1386 1.04971 15.1386C1.07685 15.1386 2.80638 16.2999 4.89286 17.7192C6.97933 19.1385 8.76512 20.3308 8.86127 20.3687C9.06028 20.4472 14.7132 17.3778 14.8006 17.1439C14.8306 17.0631 14.8395 16.814 14.8198 16.5899L14.7845 16.1823L12.8312 17.2764C11.757 17.8782 10.472 18.5979 9.97589 18.8759C9.47973 19.1537 9.01881 19.3813 8.9516 19.3813C8.85374 19.3813 5.69684 17.2675 1.53041 14.4124C1.07379 14.0995 1.00042 13.9959 1.00023 13.6643C1.00008 13.3903 1.04299 13.2963 1.14896 13.3381C1.23089 13.3705 2.97626 14.543 5.0276 15.9439C7.07893 17.3448 8.81696 18.515 8.88987 18.5443C8.96279 18.5735 9.74129 18.1988 10.6199 17.7112C15.3302 15.0975 14.8403 15.4308 14.8403 14.8401V14.332L14.3102 14.6086C14.0186 14.7606 12.7011 15.485 11.3824 16.218C10.0637 16.951 8.93236 17.53 8.86832 17.5048C8.80429 17.4789 7.84902 16.8425 6.74552 16.0891C5.64201 15.3357 3.92062 14.1665 2.92021 13.491C1.9198 12.8155 1.07474 12.1918 1.04232 12.105C1.00989 12.0181 0.999694 11.8171 1.01961 11.6582L1.05584 11.3693L1.78134 11.8631C2.18036 12.1348 3.95845 13.3487 5.73264 14.5609C8.54517 16.4826 8.98845 16.7494 9.19272 16.6432C9.32157 16.5764 9.90719 16.2491 10.4941 15.9161C11.081 15.583 12.299 14.9008 13.2008 14.4L14.8403 13.4895V12.9954C14.8403 12.7237 14.8132 12.5012 14.7797 12.5012C14.7464 12.5012 14.4074 12.6744 14.0263 12.8858C13.6453 13.0972 12.3792 13.8002 11.2128 14.4476C10.0464 15.0951 9.06004 15.6439 9.02084 15.6672C8.98165 15.6899 8.27847 15.2547 7.45823 14.6987C6.63799 14.1427 4.84934 12.9302 3.48344 12.0044C1.03326 10.3435 1 10.3156 1 9.92041C1 9.70028 1.02336 9.51986 1.05223 9.51986C1.08094 9.51986 2.60031 10.5425 4.4286 11.7924C6.25688 13.0424 8.02942 14.2464 8.36757 14.468L8.9824 14.8709L11.9098 13.2561L14.8372 11.6412L14.8388 11.2112C14.8397 10.9749 14.8006 10.7812 14.7519 10.7812C14.7032 10.7812 13.3961 11.4778 11.8473 12.3292C10.2985 13.1806 8.98373 13.8772 8.92555 13.8772C8.86736 13.8772 7.39937 12.9084 5.66334 11.7243C3.9273 10.5402 2.16995 9.34498 1.75813 9.0683C1.3463 8.79175 1.02765 8.53479 1.05002 8.4976C1.07242 8.46031 2.35109 7.83803 3.89159 7.11447C5.43208 6.39094 6.69248 5.77089 6.69248 5.73662C6.69248 5.70226 6.55703 5.58976 6.39151 5.48666L6.09055 5.29895L6.47523 5.13133C7.25573 4.79111 9.25393 3.90327 11.0228 3.11071C12.0232 2.6625 12.9154 2.29576 13.0055 2.29576C13.0955 2.29576 13.2633 2.35606 13.3784 2.42998C13.5484 2.53923 13.6994 2.51006 14.1861 2.27436C14.5153 2.11485 15.2498 1.76295 15.8184 1.49221L16.8522 1L18.1065 1.61187C20.9307 2.98962 24.9974 5.04331 24.9974 5.09184C24.9974 5.12102 24.1687 5.59624 23.1558 6.14931L21.3141 7.15483V7.60243V8.05L22.1791 7.5585C24.0685 6.48499 24.8173 6.07993 24.9122 6.07993C24.9668 6.07993 24.9958 6.24754 24.9766 6.4526C24.9433 6.80748 24.8565 6.87235 23.1558 7.81297L21.3699 8.80067L21.3359 9.3323C21.3173 9.62473 21.321 9.86397 21.3444 9.86397C21.3678 9.86397 22.1727 9.42535 23.1332 8.88927C24.0937 8.3532 24.9061 7.91461 24.9385 7.91461C24.971 7.91461 24.9974 8.08223 24.9972 8.28729C24.9969 8.65134 24.9545 8.6835 23.1556 9.68073L21.3142 10.7015V11.2001C21.3142 11.4744 21.3442 11.6987 21.3812 11.6987C21.418 11.6987 22.0835 11.3445 22.8601 10.9117C23.6367 10.4789 24.4353 10.039 24.6348 9.93409L24.9975 9.74346V10.1417C24.9975 10.5392 24.9942 10.5416 23.1593 11.5493L21.321 12.5587L21.3177 13.0986L21.3144 13.6385L22.1794 13.1601C22.6551 12.8968 23.4713 12.4391 23.9931 12.1428L24.9419 11.604L24.9786 11.9616C25.0236 12.4003 25.0173 12.4054 23.1561 13.4187C21.239 14.4624 21.2919 14.4166 21.3347 14.9966L21.3702 15.4769L23.039 14.55C25.1467 13.3794 24.9977 13.4292 24.9977 13.8955C24.9977 14.2503 24.9447 14.3103 24.3543 14.6244C24.0004 14.8128 23.1716 15.2717 22.5126 15.6444L21.3144 16.322V16.8197C21.3144 17.0934 21.3355 17.3174 21.3614 17.3174C21.3873 17.3174 22.1993 16.8788 23.1658 16.3427C24.1324 15.8067 24.94 15.3681 24.9605 15.3681C24.981 15.3681 24.9977 15.5444 24.9977 15.7601C24.9977 16.1496 24.9854 16.1591 23.1611 17.1648C21.4839 18.0896 21.3217 18.2063 21.2916 18.5107C21.2607 18.8216 21.0514 18.9577 18.1582 20.546C16.4529 21.4822 15.0124 22.2481 14.957 22.2481C14.9016 22.2481 14.8402 22.1457 14.8206 22.0205C14.789 21.8192 14.5604 21.9191 12.8316 22.8885C10.0069 24.4727 9.03442 25 8.93788 25C8.89096 25 7.08665 23.8003 4.9283 22.334L4.92796 22.3339ZM17.8893 19.8223C19.067 19.182 20.144 18.587 20.2827 18.5002L20.535 18.3423L20.5059 12.9957L20.4769 7.64905L19.2491 6.90545C17.7292 5.98493 14.7017 4.14578 13.7065 3.53834L12.9634 3.08478L10.4697 4.19541C9.09811 4.80628 7.93865 5.34038 7.89309 5.38236C7.84752 5.42419 9.30412 6.38254 11.1299 7.51169C12.9558 8.6409 14.7133 9.73681 15.0356 9.94709L15.6216 10.3294V15.6579C15.6216 18.5886 15.65 20.9865 15.6848 20.9865C15.7196 20.9865 16.7116 20.4625 17.8892 19.8222L17.8893 19.8223ZM14.9132 8.24258C14.2672 8.14337 14.1853 8.0795 14.4091 7.84964C14.5418 7.71348 14.6447 7.70148 14.8841 7.79485C15.2444 7.93556 15.8428 7.94853 16.0401 7.82079C16.1319 7.76082 15.8848 7.56888 15.3146 7.25761L14.4497 6.78534L13.8383 6.94907C12.7155 7.24993 11.5065 6.76459 11.4955 6.00842C11.4938 5.87419 11.5679 5.69977 11.6607 5.62053C11.7891 5.51095 11.7992 5.43898 11.7029 5.31967C11.6333 5.23343 11.6201 5.15984 11.6735 5.15627C11.727 5.15301 11.9718 5.11963 12.2173 5.08332C12.8684 4.98703 14.0374 4.98801 14.1318 5.08495C14.1765 5.13099 14.1393 5.24446 14.049 5.33719C13.9311 5.45844 13.7918 5.47984 13.5534 5.4137C13.371 5.36312 13.0712 5.3534 12.887 5.391C12.5644 5.45876 12.5827 5.47757 13.3857 5.899C14.1325 6.29113 14.2552 6.32326 14.5655 6.20797C15.3314 5.92332 16.5645 6.12303 17.0964 6.61744C17.3469 6.85055 17.3542 7.37897 17.1102 7.62952C16.9227 7.8221 16.9781 7.92293 17.3516 8.06843C17.4129 8.09113 17.4271 8.15175 17.3831 8.20038C17.339 8.24901 17.1537 8.22632 16.9713 8.14786C16.7889 8.07038 16.5897 8.03828 16.5287 8.07719C16.2839 8.23281 15.4232 8.32067 14.9131 8.24221L14.9132 8.24258ZM16.6041 7.20599C16.6393 6.90383 16.3838 6.65588 15.8631 6.48671C15.5801 6.39463 14.8393 6.49968 14.8421 6.62968C14.8446 6.74121 16.3206 7.55656 16.4588 7.52278C16.5202 7.50656 16.5856 7.36521 16.6041 7.20603L16.6041 7.20599ZM13.7057 6.55259C13.8106 6.48418 13.6256 6.33375 13.0781 6.04284C12.6511 5.81589 12.2702 5.66241 12.2316 5.702C12.0496 5.88907 12.1794 6.31167 12.4685 6.4728C12.8066 6.66117 13.4729 6.70428 13.7057 6.55256V6.55259ZM11.5116 11.6303C12.8513 10.8992 13.9458 10.2671 13.9439 10.2257C13.9389 10.1135 7.73525 6.30846 7.56465 6.31277C7.35293 6.31929 2.61848 8.5496 2.61848 8.64405C2.61848 8.74001 8.82575 12.9537 8.97239 12.9573C9.02929 12.9589 10.172 12.3615 11.5116 11.6303V11.6303ZM21.9333 5.93099C22.6498 5.53383 23.2338 5.16557 23.2311 5.11259C23.2286 5.05974 21.7902 4.3037 20.035 3.43275L16.8437 1.84923L15.604 2.44651L14.3643 3.04377L16.3561 4.24641C17.4516 4.90785 18.7768 5.71506 19.3008 6.04021C19.8249 6.36536 20.3385 6.63626 20.4422 6.64223C20.5459 6.64875 21.2169 6.32808 21.9333 5.93099V5.93099Z" stroke="#3CB043" stroke-width="0.5" mask="url(#path-1-outside-1_348:1421)"/>
</svg>
