<svg width="372" height="364" viewBox="0 0 372 364" fill="none" xmlns="http://www.w3.org/2000/svg">
<path d="M266 79C266 122.63 230.63 158 187 158C143.37 158 108 122.63 108 79C108 35.3695 143.37 0 187 0C230.63 0 266 35.3695 266 79ZM113.681 79C113.681 119.493 146.507 152.319 187 152.319C227.493 152.319 260.319 119.493 260.319 79C260.319 38.5069 227.493 5.68077 187 5.68077C146.507 5.68077 113.681 38.5069 113.681 79Z" fill="#3CB043"/>
<path d="M53.373 220.734V229H48.5391V205.539H57.6914C59.4531 205.539 61 205.861 62.332 206.506C63.6748 207.15 64.7061 208.069 65.4258 209.261C66.1455 210.443 66.5054 211.791 66.5054 213.306C66.5054 215.604 65.7158 217.42 64.1367 218.752C62.5684 220.073 60.3931 220.734 57.6108 220.734H53.373ZM53.373 216.818H57.6914C58.9697 216.818 59.9419 216.518 60.6079 215.916C61.2847 215.314 61.623 214.455 61.623 213.338C61.623 212.188 61.2847 211.259 60.6079 210.55C59.9312 209.841 58.9966 209.476 57.8042 209.455H53.373V216.818ZM79.3315 215.932C78.6978 215.846 78.1392 215.803 77.6558 215.803C75.894 215.803 74.7393 216.399 74.1914 217.592V229H69.5347V211.565H73.9336L74.0625 213.644C74.9971 212.043 76.2915 211.243 77.9458 211.243C78.4614 211.243 78.9448 211.313 79.396 211.453L79.3315 215.932ZM80.2822 220.122C80.2822 218.392 80.6152 216.851 81.2812 215.497C81.9473 214.144 82.9033 213.096 84.1494 212.355C85.4062 211.614 86.8618 211.243 88.5161 211.243C90.8687 211.243 92.7861 211.963 94.2686 213.402C95.7617 214.842 96.5942 216.797 96.7661 219.268L96.7983 220.46C96.7983 223.135 96.0518 225.283 94.5586 226.905C93.0654 228.517 91.062 229.322 88.5483 229.322C86.0347 229.322 84.0259 228.517 82.522 226.905C81.0288 225.294 80.2822 223.103 80.2822 220.331V220.122ZM84.939 220.46C84.939 222.114 85.2505 223.382 85.8735 224.263C86.4966 225.133 87.3882 225.568 88.5483 225.568C89.6763 225.568 90.5571 225.138 91.1909 224.279C91.8247 223.409 92.1416 222.023 92.1416 220.122C92.1416 218.5 91.8247 217.243 91.1909 216.351C90.5571 215.459 89.6655 215.014 88.5161 215.014C87.3774 215.014 86.4966 215.459 85.8735 216.351C85.2505 217.232 84.939 218.602 84.939 220.46ZM98.9414 220.154C98.9414 217.436 99.5483 215.271 100.762 213.66C101.987 212.049 103.657 211.243 105.773 211.243C107.471 211.243 108.873 211.877 109.979 213.145V204.25H114.652V229H110.446L110.221 227.147C109.061 228.597 107.567 229.322 105.741 229.322C103.689 229.322 102.041 228.517 100.794 226.905C99.5591 225.283 98.9414 223.033 98.9414 220.154ZM103.598 220.492C103.598 222.125 103.883 223.376 104.452 224.247C105.021 225.117 105.849 225.552 106.934 225.552C108.373 225.552 109.388 224.945 109.979 223.731V216.851C109.399 215.637 108.395 215.03 106.966 215.03C104.721 215.03 103.598 216.851 103.598 220.492ZM128.703 227.228C127.553 228.624 125.963 229.322 123.933 229.322C122.064 229.322 120.635 228.785 119.647 227.711C118.669 226.637 118.17 225.063 118.148 222.99V211.565H122.805V222.829C122.805 224.644 123.632 225.552 125.287 225.552C126.866 225.552 127.951 225.004 128.542 223.908V211.565H133.214V229H128.832L128.703 227.228ZM143.978 225.568C144.837 225.568 145.536 225.332 146.073 224.859C146.61 224.386 146.889 223.758 146.911 222.974H151.277C151.267 224.155 150.944 225.24 150.311 226.229C149.677 227.206 148.807 227.969 147.7 228.517C146.604 229.054 145.391 229.322 144.059 229.322C141.566 229.322 139.601 228.533 138.161 226.954C136.722 225.364 136.002 223.172 136.002 220.379V220.073C136.002 217.388 136.716 215.245 138.145 213.644C139.574 212.043 141.534 211.243 144.026 211.243C146.207 211.243 147.953 211.866 149.263 213.112C150.584 214.348 151.256 215.997 151.277 218.059H146.911C146.889 217.157 146.61 216.426 146.073 215.868C145.536 215.298 144.827 215.014 143.946 215.014C142.861 215.014 142.039 215.411 141.48 216.206C140.933 216.99 140.659 218.269 140.659 220.041V220.524C140.659 222.318 140.933 223.607 141.48 224.392C142.028 225.176 142.861 225.568 143.978 225.568ZM159.511 207.279V211.565H162.492V214.981H159.511V223.683C159.511 224.327 159.635 224.789 159.882 225.068C160.129 225.348 160.602 225.487 161.3 225.487C161.815 225.487 162.272 225.45 162.669 225.375V228.903C161.756 229.183 160.816 229.322 159.85 229.322C156.584 229.322 154.919 227.673 154.854 224.375V214.981H152.309V211.565H154.854V207.279H159.511ZM192.173 226.035C191.303 227.077 190.073 227.888 188.483 228.468C186.893 229.038 185.131 229.322 183.198 229.322C181.167 229.322 179.384 228.882 177.848 228.001C176.323 227.109 175.141 225.82 174.303 224.134C173.476 222.447 173.052 220.465 173.03 218.188V216.593C173.03 214.251 173.422 212.226 174.207 210.518C175.001 208.799 176.14 207.489 177.623 206.586C179.116 205.673 180.861 205.217 182.859 205.217C185.642 205.217 187.817 205.883 189.385 207.215C190.954 208.536 191.883 210.464 192.173 213H187.468C187.253 211.657 186.775 210.674 186.034 210.051C185.303 209.428 184.293 209.116 183.004 209.116C181.361 209.116 180.109 209.734 179.25 210.969C178.391 212.205 177.956 214.042 177.945 216.48V217.979C177.945 220.438 178.412 222.297 179.347 223.554C180.281 224.811 181.651 225.439 183.456 225.439C185.271 225.439 186.565 225.052 187.339 224.279V220.234H182.94V216.673H192.173V226.035ZM206.24 227.228C205.09 228.624 203.5 229.322 201.47 229.322C199.601 229.322 198.172 228.785 197.184 227.711C196.207 226.637 195.707 225.063 195.686 222.99V211.565H200.342V222.829C200.342 224.644 201.169 225.552 202.824 225.552C204.403 225.552 205.488 225.004 206.079 223.908V211.565H210.751V229H206.369L206.24 227.228ZM219.179 229H214.506V211.565H219.179V229ZM214.232 207.054C214.232 206.355 214.463 205.781 214.925 205.33C215.397 204.878 216.037 204.653 216.842 204.653C217.637 204.653 218.271 204.878 218.744 205.33C219.216 205.781 219.453 206.355 219.453 207.054C219.453 207.763 219.211 208.343 218.728 208.794C218.255 209.245 217.626 209.471 216.842 209.471C216.058 209.471 215.424 209.245 214.941 208.794C214.468 208.343 214.232 207.763 214.232 207.054ZM222.305 220.154C222.305 217.436 222.912 215.271 224.125 213.66C225.35 212.049 227.021 211.243 229.137 211.243C230.834 211.243 232.236 211.877 233.342 213.145V204.25H238.015V229H233.81L233.584 227.147C232.424 228.597 230.931 229.322 229.104 229.322C227.053 229.322 225.404 228.517 224.158 226.905C222.922 225.283 222.305 223.033 222.305 220.154ZM226.961 220.492C226.961 222.125 227.246 223.376 227.815 224.247C228.385 225.117 229.212 225.552 230.297 225.552C231.736 225.552 232.751 224.945 233.342 223.731V216.851C232.762 215.637 231.758 215.03 230.329 215.03C228.084 215.03 226.961 216.851 226.961 220.492ZM249.649 229.322C247.092 229.322 245.008 228.538 243.397 226.97C241.796 225.401 240.996 223.312 240.996 220.702V220.25C240.996 218.5 241.334 216.937 242.011 215.562C242.688 214.176 243.644 213.112 244.879 212.371C246.125 211.619 247.543 211.243 249.133 211.243C251.518 211.243 253.393 211.995 254.757 213.499C256.132 215.003 256.819 217.135 256.819 219.896V221.797H245.717C245.868 222.936 246.319 223.849 247.071 224.537C247.833 225.224 248.795 225.568 249.955 225.568C251.749 225.568 253.151 224.918 254.161 223.618L256.449 226.18C255.75 227.168 254.805 227.942 253.613 228.5C252.42 229.048 251.099 229.322 249.649 229.322ZM249.117 215.014C248.193 215.014 247.441 215.325 246.861 215.948C246.292 216.571 245.927 217.463 245.766 218.623H252.243V218.252C252.222 217.221 251.942 216.426 251.405 215.868C250.868 215.298 250.105 215.014 249.117 215.014ZM264.393 229H259.72V204.25H264.393V229ZM273.158 229H268.485V211.565H273.158V229ZM268.211 207.054C268.211 206.355 268.442 205.781 268.904 205.33C269.377 204.878 270.016 204.653 270.822 204.653C271.617 204.653 272.25 204.878 272.723 205.33C273.196 205.781 273.432 206.355 273.432 207.054C273.432 207.763 273.19 208.343 272.707 208.794C272.234 209.245 271.606 209.471 270.822 209.471C270.038 209.471 269.404 209.245 268.92 208.794C268.448 208.343 268.211 207.763 268.211 207.054ZM281.295 211.565L281.44 213.58C282.687 212.022 284.357 211.243 286.452 211.243C288.299 211.243 289.674 211.786 290.577 212.871C291.479 213.956 291.941 215.578 291.962 217.737V229H287.306V217.85C287.306 216.861 287.091 216.147 286.661 215.707C286.231 215.255 285.517 215.03 284.518 215.03C283.208 215.03 282.225 215.588 281.569 216.706V229H276.913V211.565H281.295ZM303.532 229.322C300.975 229.322 298.891 228.538 297.28 226.97C295.679 225.401 294.879 223.312 294.879 220.702V220.25C294.879 218.5 295.217 216.937 295.894 215.562C296.571 214.176 297.527 213.112 298.762 212.371C300.008 211.619 301.426 211.243 303.016 211.243C305.401 211.243 307.275 211.995 308.64 213.499C310.015 215.003 310.702 217.135 310.702 219.896V221.797H299.6C299.75 222.936 300.202 223.849 300.954 224.537C301.716 225.224 302.678 225.568 303.838 225.568C305.632 225.568 307.034 224.918 308.043 223.618L310.332 226.18C309.633 227.168 308.688 227.942 307.496 228.5C306.303 229.048 304.982 229.322 303.532 229.322ZM303 215.014C302.076 215.014 301.324 215.325 300.744 215.948C300.175 216.571 299.81 217.463 299.648 218.623H306.126V218.252C306.104 217.221 305.825 216.426 305.288 215.868C304.751 215.298 303.988 215.014 303 215.014ZM322.803 224.182C322.803 223.613 322.519 223.167 321.949 222.845C321.391 222.512 320.488 222.216 319.242 221.958C315.096 221.088 313.022 219.327 313.022 216.673C313.022 215.126 313.662 213.837 314.94 212.806C316.229 211.764 317.91 211.243 319.983 211.243C322.196 211.243 323.963 211.764 325.285 212.806C326.617 213.848 327.283 215.202 327.283 216.867H322.626C322.626 216.201 322.411 215.653 321.981 215.223C321.552 214.783 320.88 214.562 319.967 214.562C319.183 214.562 318.576 214.74 318.146 215.094C317.717 215.449 317.502 215.9 317.502 216.448C317.502 216.963 317.744 217.382 318.227 217.705C318.721 218.016 319.548 218.29 320.708 218.526C321.869 218.752 322.846 219.01 323.641 219.3C326.101 220.202 327.331 221.765 327.331 223.989C327.331 225.579 326.649 226.868 325.285 227.856C323.92 228.833 322.159 229.322 320 229.322C318.539 229.322 317.239 229.064 316.1 228.549C314.972 228.022 314.086 227.308 313.441 226.406C312.797 225.493 312.475 224.51 312.475 223.457H316.89C316.933 224.284 317.239 224.918 317.808 225.358C318.377 225.799 319.14 226.019 320.096 226.019C320.988 226.019 321.659 225.853 322.11 225.52C322.572 225.176 322.803 224.73 322.803 224.182Z" fill="#3CB043"/>
<path d="M16.1021 292.605L18.8364 279.227H21.9004L17.7988 297H14.8447L11.4634 284.024L8.00879 297H5.04248L0.940918 279.227H4.00488L6.76367 292.581L10.1572 279.227H12.7451L16.1021 292.605ZM26.7954 285.232C27.7638 284.109 28.9886 283.548 30.4697 283.548C33.2855 283.548 34.7137 285.155 34.7544 288.37V297H31.7881V288.479C31.7881 287.568 31.5887 286.925 31.1899 286.551C30.7993 286.168 30.2215 285.977 29.4565 285.977C28.2684 285.977 27.3813 286.506 26.7954 287.564V297H23.8291V278.25H26.7954V285.232ZM45.6553 297C45.5251 296.748 45.4111 296.337 45.3135 295.767C44.3695 296.752 43.2139 297.244 41.8467 297.244C40.5202 297.244 39.4378 296.866 38.5996 296.109C37.7614 295.352 37.3423 294.416 37.3423 293.301C37.3423 291.893 37.8631 290.815 38.9048 290.066C39.9546 289.31 41.452 288.931 43.397 288.931H45.2158V288.064C45.2158 287.381 45.0246 286.836 44.6421 286.429C44.2596 286.014 43.6777 285.806 42.8965 285.806C42.221 285.806 41.6676 285.977 41.2363 286.319C40.805 286.653 40.5894 287.08 40.5894 287.601H37.623C37.623 286.876 37.8631 286.201 38.3433 285.574C38.8234 284.939 39.4744 284.443 40.2964 284.085C41.1265 283.727 42.0501 283.548 43.0674 283.548C44.6136 283.548 45.8465 283.938 46.7661 284.72C47.6857 285.493 48.1577 286.583 48.1821 287.991V293.948C48.1821 295.136 48.349 296.084 48.6826 296.792V297H45.6553ZM42.396 294.864C42.9819 294.864 43.5312 294.721 44.0439 294.437C44.5648 294.152 44.9554 293.769 45.2158 293.289V290.799H43.6167C42.5181 290.799 41.6921 290.99 41.1387 291.373C40.5853 291.755 40.3086 292.296 40.3086 292.996C40.3086 293.566 40.4958 294.021 40.8701 294.363C41.2526 294.697 41.7612 294.864 42.396 294.864ZM55.0059 280.582V283.792H57.3374V285.989H55.0059V293.362C55.0059 293.867 55.1035 294.233 55.2988 294.461C55.5023 294.681 55.8604 294.791 56.373 294.791C56.7148 294.791 57.0607 294.75 57.4106 294.668V296.963C56.7352 297.151 56.0841 297.244 55.4575 297.244C53.1789 297.244 52.0396 295.987 52.0396 293.472V285.989H49.8667V283.792H52.0396V280.582H55.0059ZM61.3535 279.776L61.0361 284.549H59.0952V278.25H61.3535V279.776ZM70.1182 293.411C70.1182 292.882 69.8984 292.479 69.459 292.203C69.0277 291.926 68.3075 291.682 67.2983 291.47C66.2892 291.259 65.4469 290.99 64.7715 290.665C63.2904 289.948 62.5498 288.911 62.5498 287.552C62.5498 286.412 63.0299 285.46 63.9902 284.695C64.9505 283.93 66.1712 283.548 67.6523 283.548C69.2311 283.548 70.5047 283.938 71.4731 284.72C72.4497 285.501 72.938 286.514 72.938 287.759H69.9717C69.9717 287.19 69.7601 286.718 69.3369 286.343C68.9137 285.961 68.3522 285.77 67.6523 285.77C67.0013 285.77 66.4683 285.92 66.0532 286.221C65.6463 286.522 65.4429 286.925 65.4429 287.43C65.4429 287.885 65.6341 288.239 66.0166 288.492C66.3991 288.744 67.1722 289 68.3359 289.261C69.4997 289.513 70.4111 289.818 71.0703 290.176C71.7376 290.526 72.23 290.949 72.5474 291.446C72.8729 291.942 73.0356 292.544 73.0356 293.252C73.0356 294.441 72.5433 295.405 71.5586 296.146C70.5739 296.878 69.284 297.244 67.689 297.244C66.6066 297.244 65.6423 297.049 64.7959 296.658C63.9495 296.268 63.2904 295.73 62.8184 295.047C62.3464 294.363 62.1104 293.627 62.1104 292.837H64.9912C65.0319 293.537 65.2964 294.078 65.7847 294.461C66.2729 294.835 66.9199 295.022 67.7256 295.022C68.5068 295.022 69.1009 294.876 69.5078 294.583C69.9147 294.282 70.1182 293.891 70.1182 293.411ZM82.8989 297V285.989H80.8848V283.792H82.8989V282.583C82.8989 281.119 83.3058 279.987 84.1196 279.19C84.9334 278.392 86.0728 277.994 87.5376 277.994C88.0584 277.994 88.6118 278.067 89.1978 278.213L89.1245 280.533C88.799 280.468 88.4206 280.435 87.9893 280.435C86.5732 280.435 85.8652 281.163 85.8652 282.62V283.792H88.5508V285.989H85.8652V297H82.8989ZM90.1621 290.274C90.1621 288.98 90.4185 287.816 90.9312 286.783C91.4438 285.741 92.1641 284.944 93.0918 284.39C94.0195 283.829 95.0856 283.548 96.29 283.548C98.0723 283.548 99.5168 284.122 100.624 285.269C101.738 286.417 102.341 287.938 102.43 289.834L102.442 290.53C102.442 291.832 102.19 292.996 101.686 294.021C101.189 295.047 100.473 295.84 99.5371 296.402C98.6094 296.963 97.5352 297.244 96.3145 297.244C94.4508 297.244 92.9575 296.626 91.8345 295.389C90.7196 294.144 90.1621 292.487 90.1621 290.42V290.274ZM93.1284 290.53C93.1284 291.889 93.4092 292.955 93.9707 293.729C94.5322 294.493 95.3135 294.876 96.3145 294.876C97.3154 294.876 98.0926 294.485 98.646 293.704C99.2075 292.923 99.4883 291.779 99.4883 290.274C99.4883 288.939 99.1994 287.881 98.6216 287.1C98.0519 286.319 97.2747 285.928 96.29 285.928C95.3216 285.928 94.5526 286.315 93.9829 287.088C93.4132 287.853 93.1284 289 93.1284 290.53ZM111.866 286.502C111.476 286.437 111.073 286.404 110.658 286.404C109.299 286.404 108.383 286.925 107.911 287.967V297H104.945V283.792H107.777L107.85 285.269C108.566 284.122 109.559 283.548 110.829 283.548C111.252 283.548 111.602 283.605 111.878 283.719L111.866 286.502ZM127.369 293.411C127.369 292.882 127.149 292.479 126.71 292.203C126.279 291.926 125.558 291.682 124.549 291.47C123.54 291.259 122.698 290.99 122.022 290.665C120.541 289.948 119.801 288.911 119.801 287.552C119.801 286.412 120.281 285.46 121.241 284.695C122.201 283.93 123.422 283.548 124.903 283.548C126.482 283.548 127.756 283.938 128.724 284.72C129.701 285.501 130.189 286.514 130.189 287.759H127.223C127.223 287.19 127.011 286.718 126.588 286.343C126.165 285.961 125.603 285.77 124.903 285.77C124.252 285.77 123.719 285.92 123.304 286.221C122.897 286.522 122.694 286.925 122.694 287.43C122.694 287.885 122.885 288.239 123.268 288.492C123.65 288.744 124.423 289 125.587 289.261C126.751 289.513 127.662 289.818 128.321 290.176C128.989 290.526 129.481 290.949 129.798 291.446C130.124 291.942 130.287 292.544 130.287 293.252C130.287 294.441 129.794 295.405 128.81 296.146C127.825 296.878 126.535 297.244 124.94 297.244C123.858 297.244 122.893 297.049 122.047 296.658C121.201 296.268 120.541 295.73 120.069 295.047C119.597 294.363 119.361 293.627 119.361 292.837H122.242C122.283 293.537 122.547 294.078 123.036 294.461C123.524 294.835 124.171 295.022 124.977 295.022C125.758 295.022 126.352 294.876 126.759 294.583C127.166 294.282 127.369 293.891 127.369 293.411ZM140.772 297C140.642 296.748 140.528 296.337 140.431 295.767C139.487 296.752 138.331 297.244 136.964 297.244C135.637 297.244 134.555 296.866 133.717 296.109C132.879 295.352 132.459 294.416 132.459 293.301C132.459 291.893 132.98 290.815 134.022 290.066C135.072 289.31 136.569 288.931 138.514 288.931H140.333V288.064C140.333 287.381 140.142 286.836 139.759 286.429C139.377 286.014 138.795 285.806 138.014 285.806C137.338 285.806 136.785 285.977 136.354 286.319C135.922 286.653 135.707 287.08 135.707 287.601H132.74C132.74 286.876 132.98 286.201 133.46 285.574C133.941 284.939 134.592 284.443 135.414 284.085C136.244 283.727 137.167 283.548 138.185 283.548C139.731 283.548 140.964 283.938 141.883 284.72C142.803 285.493 143.275 286.583 143.299 287.991V293.948C143.299 295.136 143.466 296.084 143.8 296.792V297H140.772ZM137.513 294.864C138.099 294.864 138.648 294.721 139.161 294.437C139.682 294.152 140.073 293.769 140.333 293.289V290.799H138.734C137.635 290.799 136.809 290.99 136.256 291.373C135.702 291.755 135.426 292.296 135.426 292.996C135.426 293.566 135.613 294.021 135.987 294.363C136.37 294.697 136.878 294.864 137.513 294.864ZM149.562 297H146.595V278.25H149.562V297ZM158.619 297.244C156.739 297.244 155.213 296.654 154.042 295.474C152.878 294.286 152.296 292.707 152.296 290.738V290.372C152.296 289.053 152.548 287.877 153.053 286.844C153.565 285.802 154.282 284.992 155.201 284.415C156.121 283.837 157.146 283.548 158.277 283.548C160.076 283.548 161.463 284.122 162.44 285.269C163.425 286.417 163.917 288.04 163.917 290.14V291.336H155.287C155.376 292.426 155.738 293.289 156.373 293.924C157.016 294.559 157.822 294.876 158.79 294.876C160.149 294.876 161.256 294.327 162.11 293.228L163.709 294.754C163.181 295.543 162.472 296.158 161.585 296.597C160.707 297.028 159.718 297.244 158.619 297.244ZM158.265 285.928C157.451 285.928 156.792 286.213 156.288 286.783C155.791 287.352 155.474 288.146 155.335 289.163H160.987V288.943C160.922 287.951 160.658 287.202 160.194 286.697C159.73 286.185 159.087 285.928 158.265 285.928ZM166.651 301.004L165.052 300.052C165.524 299.311 165.846 298.664 166.017 298.111C166.196 297.566 166.289 297.008 166.297 296.438V294.131H168.971L168.958 296.268C168.95 297.13 168.731 297.993 168.299 298.855C167.876 299.726 167.327 300.442 166.651 301.004ZM177.394 290.286C177.394 288.219 177.866 286.579 178.81 285.367C179.754 284.154 181.031 283.548 182.643 283.548C184.116 283.548 185.283 284.065 186.146 285.098L186.317 283.792H188.954V302.078H185.987V295.877C185.125 296.788 184.002 297.244 182.618 297.244C181.039 297.244 179.774 296.63 178.822 295.401C177.87 294.164 177.394 292.459 177.394 290.286ZM180.36 290.542C180.36 291.893 180.624 292.955 181.153 293.729C181.69 294.493 182.431 294.876 183.375 294.876C184.547 294.876 185.418 294.375 185.987 293.375V287.369C185.418 286.408 184.555 285.928 183.399 285.928C182.455 285.928 181.711 286.307 181.166 287.063C180.628 287.82 180.36 288.98 180.36 290.542ZM200.16 295.706C199.289 296.731 198.052 297.244 196.449 297.244C195.016 297.244 193.93 296.825 193.189 295.987C192.457 295.149 192.091 293.936 192.091 292.349V283.792H195.057V292.312C195.057 293.989 195.753 294.827 197.145 294.827C198.585 294.827 199.557 294.31 200.062 293.277V283.792H203.028V297H200.233L200.16 295.706ZM213.941 297C213.811 296.748 213.697 296.337 213.6 295.767C212.656 296.752 211.5 297.244 210.133 297.244C208.806 297.244 207.724 296.866 206.886 296.109C206.048 295.352 205.628 294.416 205.628 293.301C205.628 291.893 206.149 290.815 207.191 290.066C208.241 289.31 209.738 288.931 211.683 288.931H213.502V288.064C213.502 287.381 213.311 286.836 212.928 286.429C212.546 286.014 211.964 285.806 211.183 285.806C210.507 285.806 209.954 285.977 209.522 286.319C209.091 286.653 208.875 287.08 208.875 287.601H205.909C205.909 286.876 206.149 286.201 206.629 285.574C207.11 284.939 207.761 284.443 208.583 284.085C209.413 283.727 210.336 283.548 211.354 283.548C212.9 283.548 214.133 283.938 215.052 284.72C215.972 285.493 216.444 286.583 216.468 287.991V293.948C216.468 295.136 216.635 296.084 216.969 296.792V297H213.941ZM210.682 294.864C211.268 294.864 211.817 294.721 212.33 294.437C212.851 294.152 213.242 293.769 213.502 293.289V290.799H211.903C210.804 290.799 209.978 290.99 209.425 291.373C208.871 291.755 208.595 292.296 208.595 292.996C208.595 293.566 208.782 294.021 209.156 294.363C209.539 294.697 210.047 294.864 210.682 294.864ZM222.73 297H219.764V278.25H222.73V297ZM229.127 297H226.161V283.792H229.127V297ZM225.978 280.362C225.978 279.906 226.12 279.528 226.405 279.227C226.698 278.925 227.113 278.775 227.65 278.775C228.187 278.775 228.602 278.925 228.895 279.227C229.188 279.528 229.334 279.906 229.334 280.362C229.334 280.809 229.188 281.184 228.895 281.485C228.602 281.778 228.187 281.924 227.65 281.924C227.113 281.924 226.698 281.778 226.405 281.485C226.12 281.184 225.978 280.809 225.978 280.362ZM236.085 280.582V283.792H238.417V285.989H236.085V293.362C236.085 293.867 236.183 294.233 236.378 294.461C236.581 294.681 236.939 294.791 237.452 294.791C237.794 294.791 238.14 294.75 238.49 294.668V296.963C237.814 297.151 237.163 297.244 236.537 297.244C234.258 297.244 233.119 295.987 233.119 293.472V285.989H230.946V283.792H233.119V280.582H236.085ZM245.313 292.752L247.999 283.792H251.161L245.912 299.002C245.106 301.224 243.739 302.334 241.81 302.334C241.379 302.334 240.903 302.261 240.382 302.115V299.82L240.943 299.856C241.692 299.856 242.254 299.718 242.628 299.441C243.01 299.173 243.312 298.717 243.531 298.074L243.958 296.939L239.32 283.792H242.518L245.313 292.752ZM258.583 290.298C258.583 288.248 259.063 286.612 260.023 285.391C260.991 284.162 262.273 283.548 263.868 283.548C265.374 283.548 266.558 284.073 267.42 285.123L267.555 283.792H270.228V296.597C270.228 298.331 269.687 299.698 268.604 300.699C267.53 301.7 266.078 302.2 264.247 302.2C263.278 302.2 262.33 301.997 261.402 301.59C260.483 301.191 259.783 300.666 259.303 300.015L260.707 298.233C261.618 299.315 262.741 299.856 264.076 299.856C265.06 299.856 265.838 299.588 266.407 299.051C266.977 298.522 267.262 297.741 267.262 296.707V295.816C266.407 296.768 265.268 297.244 263.844 297.244C262.298 297.244 261.032 296.63 260.047 295.401C259.071 294.172 258.583 292.471 258.583 290.298ZM261.537 290.555C261.537 291.881 261.805 292.927 262.342 293.692C262.888 294.449 263.64 294.827 264.601 294.827C265.797 294.827 266.684 294.314 267.262 293.289V287.479C266.7 286.478 265.821 285.977 264.625 285.977C263.648 285.977 262.888 286.364 262.342 287.137C261.805 287.91 261.537 289.049 261.537 290.555ZM281.288 295.706C280.417 296.731 279.18 297.244 277.577 297.244C276.144 297.244 275.058 296.825 274.317 295.987C273.585 295.149 273.219 293.936 273.219 292.349V283.792H276.185V292.312C276.185 293.989 276.881 294.827 278.272 294.827C279.713 294.827 280.685 294.31 281.19 293.277V283.792H284.156V297H281.361L281.288 295.706ZM290.333 297H287.367V283.792H290.333V297ZM287.184 280.362C287.184 279.906 287.326 279.528 287.611 279.227C287.904 278.925 288.319 278.775 288.856 278.775C289.393 278.775 289.808 278.925 290.101 279.227C290.394 279.528 290.541 279.906 290.541 280.362C290.541 280.809 290.394 281.184 290.101 281.485C289.808 281.778 289.393 281.924 288.856 281.924C288.319 281.924 287.904 281.778 287.611 281.485C287.326 281.184 287.184 280.809 287.184 280.362ZM293.019 290.298C293.019 288.264 293.491 286.632 294.435 285.403C295.379 284.166 296.644 283.548 298.231 283.548C299.631 283.548 300.762 284.036 301.625 285.013V278.25H304.591V297H301.905L301.759 295.633C300.872 296.707 299.688 297.244 298.207 297.244C296.66 297.244 295.407 296.622 294.447 295.376C293.495 294.131 293.019 292.439 293.019 290.298ZM295.985 290.555C295.985 291.897 296.241 292.947 296.754 293.704C297.275 294.453 298.011 294.827 298.963 294.827C300.176 294.827 301.063 294.286 301.625 293.204V287.564C301.079 286.506 300.2 285.977 298.988 285.977C298.028 285.977 297.287 286.36 296.766 287.125C296.245 287.881 295.985 289.025 295.985 290.555ZM313.502 297.244C311.622 297.244 310.096 296.654 308.924 295.474C307.761 294.286 307.179 292.707 307.179 290.738V290.372C307.179 289.053 307.431 287.877 307.936 286.844C308.448 285.802 309.164 284.992 310.084 284.415C311.004 283.837 312.029 283.548 313.16 283.548C314.959 283.548 316.346 284.122 317.323 285.269C318.307 286.417 318.8 288.04 318.8 290.14V291.336H310.169C310.259 292.426 310.621 293.289 311.256 293.924C311.899 294.559 312.704 294.876 313.673 294.876C315.032 294.876 316.139 294.327 316.993 293.228L318.592 294.754C318.063 295.543 317.355 296.158 316.468 296.597C315.589 297.028 314.601 297.244 313.502 297.244ZM313.148 285.928C312.334 285.928 311.675 286.213 311.17 286.783C310.674 287.352 310.357 288.146 310.218 289.163H315.87V288.943C315.805 287.951 315.541 287.202 315.077 286.697C314.613 286.185 313.97 285.928 313.148 285.928ZM324.269 297H321.302V278.25H324.269V297ZM330.665 297H327.699V283.792H330.665V297ZM327.516 280.362C327.516 279.906 327.658 279.528 327.943 279.227C328.236 278.925 328.651 278.775 329.188 278.775C329.725 278.775 330.14 278.925 330.433 279.227C330.726 279.528 330.873 279.906 330.873 280.362C330.873 280.809 330.726 281.184 330.433 281.485C330.14 281.778 329.725 281.924 329.188 281.924C328.651 281.924 328.236 281.778 327.943 281.485C327.658 281.184 327.516 280.809 327.516 280.362ZM336.659 283.792L336.744 285.318C337.721 284.138 339.002 283.548 340.589 283.548C343.34 283.548 344.74 285.123 344.789 288.272V297H341.822V288.443C341.822 287.605 341.639 286.986 341.273 286.587C340.915 286.181 340.325 285.977 339.503 285.977C338.307 285.977 337.416 286.518 336.83 287.601V297H333.863V283.792H336.659ZM353.639 297.244C351.759 297.244 350.233 296.654 349.061 295.474C347.897 294.286 347.315 292.707 347.315 290.738V290.372C347.315 289.053 347.568 287.877 348.072 286.844C348.585 285.802 349.301 284.992 350.221 284.415C351.14 283.837 352.166 283.548 353.297 283.548C355.095 283.548 356.483 284.122 357.459 285.269C358.444 286.417 358.937 288.04 358.937 290.14V291.336H350.306C350.396 292.426 350.758 293.289 351.393 293.924C352.035 294.559 352.841 294.876 353.81 294.876C355.169 294.876 356.275 294.327 357.13 293.228L358.729 294.754C358.2 295.543 357.492 296.158 356.605 296.597C355.726 297.028 354.737 297.244 353.639 297.244ZM353.285 285.928C352.471 285.928 351.812 286.213 351.307 286.783C350.811 287.352 350.493 288.146 350.355 289.163H356.007V288.943C355.942 287.951 355.677 287.202 355.213 286.697C354.75 286.185 354.107 285.928 353.285 285.928ZM368.653 293.411C368.653 292.882 368.434 292.479 367.994 292.203C367.563 291.926 366.843 291.682 365.833 291.47C364.824 291.259 363.982 290.99 363.307 290.665C361.826 289.948 361.085 288.911 361.085 287.552C361.085 286.412 361.565 285.46 362.525 284.695C363.486 283.93 364.706 283.548 366.188 283.548C367.766 283.548 369.04 283.938 370.008 284.72C370.985 285.501 371.473 286.514 371.473 287.759H368.507C368.507 287.19 368.295 286.718 367.872 286.343C367.449 285.961 366.887 285.77 366.188 285.77C365.536 285.77 365.003 285.92 364.588 286.221C364.181 286.522 363.978 286.925 363.978 287.43C363.978 287.885 364.169 288.239 364.552 288.492C364.934 288.744 365.707 289 366.871 289.261C368.035 289.513 368.946 289.818 369.605 290.176C370.273 290.526 370.765 290.949 371.083 291.446C371.408 291.942 371.571 292.544 371.571 293.252C371.571 294.441 371.078 295.405 370.094 296.146C369.109 296.878 367.819 297.244 366.224 297.244C365.142 297.244 364.177 297.049 363.331 296.658C362.485 296.268 361.826 295.73 361.354 295.047C360.882 294.363 360.646 293.627 360.646 292.837H363.526C363.567 293.537 363.832 294.078 364.32 294.461C364.808 294.835 365.455 295.022 366.261 295.022C367.042 295.022 367.636 294.876 368.043 294.583C368.45 294.282 368.653 293.891 368.653 293.411ZM79.4053 352.693C79.4053 352.059 79.1416 351.575 78.6143 351.243C78.0967 350.911 77.2324 350.618 76.0215 350.364C74.8105 350.11 73.7998 349.788 72.9893 349.397C71.2119 348.538 70.3232 347.293 70.3232 345.662C70.3232 344.295 70.8994 343.152 72.0518 342.234C73.2041 341.316 74.6689 340.857 76.4463 340.857C78.3408 340.857 79.8691 341.326 81.0312 342.264C82.2031 343.201 82.7891 344.417 82.7891 345.911H79.2295C79.2295 345.228 78.9756 344.661 78.4678 344.212C77.96 343.753 77.2861 343.523 76.4463 343.523C75.665 343.523 75.0254 343.704 74.5273 344.065C74.0391 344.427 73.7949 344.91 73.7949 345.516C73.7949 346.062 74.0244 346.487 74.4834 346.79C74.9424 347.093 75.8701 347.4 77.2666 347.713C78.6631 348.016 79.7568 348.382 80.5479 348.812C81.3486 349.231 81.9395 349.739 82.3203 350.335C82.7109 350.931 82.9062 351.653 82.9062 352.503C82.9062 353.929 82.3154 355.086 81.1338 355.975C79.9521 356.854 78.4043 357.293 76.4902 357.293C75.1914 357.293 74.0342 357.059 73.0186 356.59C72.0029 356.121 71.2119 355.477 70.6455 354.656C70.0791 353.836 69.7959 352.952 69.7959 352.005H73.2529C73.3018 352.845 73.6191 353.494 74.2051 353.953C74.791 354.402 75.5674 354.627 76.5342 354.627C77.4717 354.627 78.1846 354.451 78.6729 354.1C79.1611 353.738 79.4053 353.27 79.4053 352.693ZM89.5273 342.879C90.6895 341.531 92.1592 340.857 93.9365 340.857C97.3154 340.857 99.0293 342.786 99.0781 346.644V357H95.5186V346.775C95.5186 345.682 95.2793 344.91 94.8008 344.461C94.332 344.002 93.6387 343.772 92.7207 343.772C91.2949 343.772 90.2305 344.407 89.5273 345.677V357H85.9678V334.5H89.5273V342.879ZM106.476 357H102.916V341.15H106.476V357ZM102.696 337.034C102.696 336.487 102.867 336.033 103.209 335.672C103.561 335.311 104.059 335.13 104.703 335.13C105.348 335.13 105.846 335.311 106.197 335.672C106.549 336.033 106.725 336.487 106.725 337.034C106.725 337.571 106.549 338.021 106.197 338.382C105.846 338.733 105.348 338.909 104.703 338.909C104.059 338.909 103.561 338.733 103.209 338.382C102.867 338.021 102.696 337.571 102.696 337.034ZM124.244 349.236C124.244 351.688 123.688 353.646 122.574 355.11C121.461 356.565 119.967 357.293 118.092 357.293C116.354 357.293 114.962 356.722 113.917 355.579V363.094H110.357V341.15H113.639L113.785 342.762C114.83 341.492 116.251 340.857 118.048 340.857C119.981 340.857 121.495 341.58 122.589 343.025C123.692 344.461 124.244 346.458 124.244 349.017V349.236ZM120.699 348.929C120.699 347.347 120.382 346.092 119.747 345.164C119.122 344.236 118.224 343.772 117.052 343.772C115.597 343.772 114.552 344.373 113.917 345.574V352.605C114.562 353.836 115.616 354.451 117.081 354.451C118.214 354.451 119.098 353.997 119.732 353.089C120.377 352.171 120.699 350.784 120.699 348.929ZM141.148 349.236C141.148 351.688 140.592 353.646 139.479 355.11C138.365 356.565 136.871 357.293 134.996 357.293C133.258 357.293 131.866 356.722 130.821 355.579V363.094H127.262V341.15H130.543L130.689 342.762C131.734 341.492 133.155 340.857 134.952 340.857C136.886 340.857 138.399 341.58 139.493 343.025C140.597 344.461 141.148 346.458 141.148 349.017V349.236ZM137.604 348.929C137.604 347.347 137.286 346.092 136.651 345.164C136.026 344.236 135.128 343.772 133.956 343.772C132.501 343.772 131.456 344.373 130.821 345.574V352.605C131.466 353.836 132.521 354.451 133.985 354.451C135.118 354.451 136.002 353.997 136.637 353.089C137.281 352.171 137.604 350.784 137.604 348.929ZM147.96 357H144.4V341.15H147.96V357ZM144.181 337.034C144.181 336.487 144.352 336.033 144.693 335.672C145.045 335.311 145.543 335.13 146.188 335.13C146.832 335.13 147.33 335.311 147.682 335.672C148.033 336.033 148.209 336.487 148.209 337.034C148.209 337.571 148.033 338.021 147.682 338.382C147.33 338.733 146.832 338.909 146.188 338.909C145.543 338.909 145.045 338.733 144.693 338.382C144.352 338.021 144.181 337.571 144.181 337.034ZM155.152 341.15L155.255 342.981C156.427 341.565 157.965 340.857 159.869 340.857C163.17 340.857 164.85 342.747 164.908 346.526V357H161.349V346.731C161.349 345.726 161.129 344.983 160.689 344.505C160.26 344.017 159.552 343.772 158.565 343.772C157.13 343.772 156.061 344.422 155.357 345.721V357H151.798V341.15H155.152ZM167.926 348.958C167.926 346.497 168.502 344.534 169.654 343.069C170.816 341.595 172.354 340.857 174.269 340.857C176.075 340.857 177.496 341.487 178.531 342.747L178.692 341.15H181.9V356.517C181.9 358.597 181.251 360.237 179.952 361.438C178.663 362.64 176.92 363.24 174.723 363.24C173.561 363.24 172.423 362.996 171.31 362.508C170.206 362.029 169.366 361.399 168.79 360.618L170.475 358.479C171.568 359.778 172.916 360.428 174.518 360.428C175.699 360.428 176.632 360.105 177.315 359.461C177.999 358.826 178.341 357.889 178.341 356.648V355.579C177.315 356.722 175.948 357.293 174.239 357.293C172.384 357.293 170.865 356.556 169.684 355.081C168.512 353.606 167.926 351.565 167.926 348.958ZM171.471 349.266C171.471 350.857 171.793 352.112 172.438 353.03C173.092 353.938 173.995 354.393 175.147 354.393C176.583 354.393 177.647 353.777 178.341 352.547V345.574C177.667 344.373 176.612 343.772 175.177 343.772C174.005 343.772 173.092 344.236 172.438 345.164C171.793 346.092 171.471 347.459 171.471 349.266ZM201.925 352.693C201.925 352.059 201.661 351.575 201.134 351.243C200.616 350.911 199.752 350.618 198.541 350.364C197.33 350.11 196.319 349.788 195.509 349.397C193.731 348.538 192.843 347.293 192.843 345.662C192.843 344.295 193.419 343.152 194.571 342.234C195.724 341.316 197.188 340.857 198.966 340.857C200.86 340.857 202.389 341.326 203.551 342.264C204.723 343.201 205.309 344.417 205.309 345.911H201.749C201.749 345.228 201.495 344.661 200.987 344.212C200.479 343.753 199.806 343.523 198.966 343.523C198.185 343.523 197.545 343.704 197.047 344.065C196.559 344.427 196.314 344.91 196.314 345.516C196.314 346.062 196.544 346.487 197.003 346.79C197.462 347.093 198.39 347.4 199.786 347.713C201.183 348.016 202.276 348.382 203.067 348.812C203.868 349.231 204.459 349.739 204.84 350.335C205.23 350.931 205.426 351.653 205.426 352.503C205.426 353.929 204.835 355.086 203.653 355.975C202.472 356.854 200.924 357.293 199.01 357.293C197.711 357.293 196.554 357.059 195.538 356.59C194.522 356.121 193.731 355.477 193.165 354.656C192.599 353.836 192.315 352.952 192.315 352.005H195.772C195.821 352.845 196.139 353.494 196.725 353.953C197.311 354.402 198.087 354.627 199.054 354.627C199.991 354.627 200.704 354.451 201.192 354.1C201.681 353.738 201.925 353.27 201.925 352.693ZM222.418 349.236C222.418 351.688 221.861 353.646 220.748 355.11C219.635 356.565 218.141 357.293 216.266 357.293C214.527 357.293 213.136 356.722 212.091 355.579V363.094H208.531V341.15H211.812L211.959 342.762C213.004 341.492 214.425 340.857 216.222 340.857C218.155 340.857 219.669 341.58 220.763 343.025C221.866 344.461 222.418 346.458 222.418 349.017V349.236ZM218.873 348.929C218.873 347.347 218.556 346.092 217.921 345.164C217.296 344.236 216.397 343.772 215.226 343.772C213.771 343.772 212.726 344.373 212.091 345.574V352.605C212.735 353.836 213.79 354.451 215.255 354.451C216.388 354.451 217.271 353.997 217.906 353.089C218.551 352.171 218.873 350.784 218.873 348.929ZM232.423 357.293C230.167 357.293 228.336 356.585 226.93 355.169C225.533 353.743 224.835 351.849 224.835 349.485V349.046C224.835 347.464 225.138 346.053 225.743 344.812C226.358 343.562 227.218 342.591 228.321 341.897C229.425 341.204 230.655 340.857 232.013 340.857C234.171 340.857 235.836 341.546 237.008 342.923C238.189 344.3 238.78 346.248 238.78 348.768V350.203H228.424C228.531 351.512 228.966 352.547 229.728 353.309C230.499 354.07 231.466 354.451 232.628 354.451C234.259 354.451 235.587 353.792 236.612 352.474L238.531 354.305C237.896 355.252 237.047 355.989 235.982 356.517C234.928 357.034 233.741 357.293 232.423 357.293ZM231.998 343.714C231.021 343.714 230.23 344.056 229.625 344.739C229.029 345.423 228.648 346.375 228.482 347.596H235.265V347.332C235.187 346.141 234.869 345.242 234.312 344.637C233.756 344.021 232.984 343.714 231.998 343.714ZM248.067 354.451C248.956 354.451 249.693 354.192 250.279 353.675C250.865 353.157 251.178 352.518 251.217 351.756H254.571C254.532 352.742 254.225 353.665 253.648 354.524C253.072 355.374 252.291 356.048 251.305 356.546C250.318 357.044 249.254 357.293 248.111 357.293C245.895 357.293 244.137 356.575 242.838 355.14C241.539 353.704 240.89 351.722 240.89 349.192V348.826C240.89 346.414 241.534 344.485 242.823 343.04C244.112 341.585 245.87 340.857 248.097 340.857C249.981 340.857 251.515 341.409 252.696 342.513C253.888 343.606 254.513 345.047 254.571 346.834H251.217C251.178 345.926 250.865 345.179 250.279 344.593C249.703 344.007 248.966 343.714 248.067 343.714C246.915 343.714 246.026 344.134 245.401 344.974C244.776 345.804 244.459 347.068 244.449 348.768V349.339C244.449 351.058 244.757 352.342 245.372 353.191C245.997 354.031 246.896 354.451 248.067 354.451ZM261.046 357H257.486V341.15H261.046V357ZM257.267 337.034C257.267 336.487 257.438 336.033 257.779 335.672C258.131 335.311 258.629 335.13 259.273 335.13C259.918 335.13 260.416 335.311 260.768 335.672C261.119 336.033 261.295 336.487 261.295 337.034C261.295 337.571 261.119 338.021 260.768 338.382C260.416 338.733 259.918 338.909 259.273 338.909C258.629 338.909 258.131 338.733 257.779 338.382C257.438 338.021 257.267 337.571 257.267 337.034ZM265.88 357V343.787H263.463V341.15H265.88V340.066C265.89 338.826 266.153 337.762 266.671 336.873C267.188 335.984 267.921 335.315 268.868 334.866C269.815 334.417 270.953 334.192 272.281 334.192C273.062 334.192 273.81 334.275 274.522 334.441C275.245 334.607 275.992 334.817 276.764 335.071L276.222 338.016C274.874 337.547 273.644 337.312 272.53 337.312C271.446 337.312 270.66 337.552 270.172 338.03C269.684 338.499 269.439 339.207 269.439 340.154V341.15H272.56V343.787H269.439V357H265.88ZM278.448 357H274.889V341.15H278.448V357ZM288.907 354.451C289.796 354.451 290.533 354.192 291.119 353.675C291.705 353.157 292.018 352.518 292.057 351.756H295.411C295.372 352.742 295.064 353.665 294.488 354.524C293.912 355.374 293.131 356.048 292.145 356.546C291.158 357.044 290.094 357.293 288.951 357.293C286.734 357.293 284.977 356.575 283.678 355.14C282.379 353.704 281.729 351.722 281.729 349.192V348.826C281.729 346.414 282.374 344.485 283.663 343.04C284.952 341.585 286.71 340.857 288.937 340.857C290.821 340.857 292.354 341.409 293.536 342.513C294.728 343.606 295.353 345.047 295.411 346.834H292.057C292.018 345.926 291.705 345.179 291.119 344.593C290.543 344.007 289.806 343.714 288.907 343.714C287.755 343.714 286.866 344.134 286.241 344.974C285.616 345.804 285.299 347.068 285.289 348.768V349.339C285.289 351.058 285.597 352.342 286.212 353.191C286.837 354.031 287.735 354.451 288.907 354.451ZM306.983 352.693C306.983 352.059 306.72 351.575 306.192 351.243C305.675 350.911 304.811 350.618 303.6 350.364C302.389 350.11 301.378 349.788 300.567 349.397C298.79 348.538 297.901 347.293 297.901 345.662C297.901 344.295 298.478 343.152 299.63 342.234C300.782 341.316 302.247 340.857 304.024 340.857C305.919 340.857 307.447 341.326 308.609 342.264C309.781 343.201 310.367 344.417 310.367 345.911H306.808C306.808 345.228 306.554 344.661 306.046 344.212C305.538 343.753 304.864 343.523 304.024 343.523C303.243 343.523 302.604 343.704 302.105 344.065C301.617 344.427 301.373 344.91 301.373 345.516C301.373 346.062 301.603 346.487 302.062 346.79C302.521 347.093 303.448 347.4 304.845 347.713C306.241 348.016 307.335 348.382 308.126 348.812C308.927 349.231 309.518 349.739 309.898 350.335C310.289 350.931 310.484 351.653 310.484 352.503C310.484 353.929 309.894 355.086 308.712 355.975C307.53 356.854 305.982 357.293 304.068 357.293C302.77 357.293 301.612 357.059 300.597 356.59C299.581 356.121 298.79 355.477 298.224 354.656C297.657 353.836 297.374 352.952 297.374 352.005H300.831C300.88 352.845 301.197 353.494 301.783 353.953C302.369 354.402 303.146 354.627 304.112 354.627C305.05 354.627 305.763 354.451 306.251 354.1C306.739 353.738 306.983 353.27 306.983 352.693Z" fill="#3A3A3A"/>
<path d="M162.452 119.815C158.121 119.263 154.387 116.035 153.295 111.897C153.073 111.056 153 109.726 153 106.51C153 101.604 153.078 101.324 154.647 100.574C155.703 100.069 156.783 100.188 157.644 100.903C158.714 101.792 158.788 102.127 158.788 106.055C158.788 110.223 158.99 111.208 160.088 112.408C160.473 112.829 161.141 113.359 161.573 113.587L162.357 114.002L187.776 114.052L213.194 114.103V86.3024V58.5022L187.39 58.4505C161.718 58.3991 161.58 58.3969 160.525 57.9997C159.941 57.7801 159.312 57.5353 159.126 57.4556C158.806 57.3183 158.788 58.1659 158.788 73.758C158.788 89.4016 158.771 90.2373 158.431 90.8625C157.908 91.8257 157.221 92.25 156.047 92.3358C154.846 92.4233 153.997 92.0004 153.385 91.0103C153.009 90.4004 153.002 90.0059 153.001 68.1926C153 43.5906 152.917 45.2475 154.281 42.6707C155.511 40.3491 157.677 38.5712 160.461 37.599L161.972 37.0718L188.596 37.0129C203.239 36.9807 215.696 37.0108 216.277 37.0797C217.185 37.1874 217.452 37.3208 218.158 38.018C218.924 38.7735 218.982 38.9026 218.981 39.8553C218.98 41.0145 218.544 41.8931 217.697 42.4407C217.193 42.7667 215.758 42.7892 189.762 42.8795L162.357 42.9747L161.573 43.3893C159.774 44.3395 158.602 46.4864 158.862 48.3556C159.016 49.4658 159.845 50.946 160.652 51.5542C162.117 52.6566 160.206 52.5909 190.808 52.5909H218.982V86.2954V120L191.248 119.975C175.995 119.962 163.037 119.889 162.452 119.815V119.815ZM184.737 105.452C183.009 104.698 182.426 102.346 183.621 100.945C184.999 99.328 187.253 99.4447 188.571 101.201C189.194 102.031 189.122 103.567 188.419 104.477C187.53 105.627 186.043 106.021 184.737 105.452H184.737ZM184.446 96.7212C183.006 95.7539 183.007 95.7592 182.944 90.4238C182.889 85.7455 182.899 85.6085 183.33 84.7766C183.892 83.6937 184.666 83.2579 186.411 83.0416C188.077 82.8352 189.271 82.2963 190.289 81.2923C193.244 78.3756 192.359 73.4611 188.545 71.61C187.805 71.2512 187.318 71.1665 185.991 71.1665C184.664 71.1665 184.177 71.2511 183.437 71.61C181.404 72.5972 180.131 74.4715 179.896 76.8245C179.744 78.343 179.264 79.1852 178.27 79.6782C176.822 80.3964 175.067 79.9088 174.26 78.5638C173.86 77.8981 173.825 77.6555 173.916 76.2033C174.23 71.2011 177.586 67.0864 182.615 65.5386C184.626 64.9196 187.488 64.9505 189.56 65.6134C192.988 66.7103 195.396 68.7757 196.97 71.9692C197.829 73.7121 198.049 74.7735 198.047 77.1553C198.042 80.7047 197.074 82.9936 194.493 85.5545C193.348 86.6911 192.677 87.1732 191.379 87.7919C190.469 88.2257 189.587 88.5806 189.417 88.5806C189.15 88.5806 189.101 89.0155 189.046 91.8995C188.987 94.9125 188.944 95.268 188.578 95.7556C187.893 96.6668 186.997 97.1495 185.991 97.1495C185.368 97.1495 184.884 97.0155 184.446 96.7211V96.7212ZM163.948 50.2633C162.986 49.7131 162.367 48.48 162.513 47.4055C162.639 46.4737 163.128 45.7771 164.018 45.2599C164.664 44.8841 165.02 44.879 190.814 44.879C216.614 44.879 216.964 44.8833 217.596 45.2599C219.54 46.4156 219.446 49.3558 217.434 50.3533C216.805 50.6655 215.134 50.686 190.718 50.6822L164.673 50.6779L163.948 50.2631L163.948 50.2633Z" fill="#313131"/>
</svg>
