<svg width="322" height="370" viewBox="0 0 322 370" fill="none" xmlns="http://www.w3.org/2000/svg">
<path d="M240 79C240 122.63 204.63 158 161 158C117.37 158 82 122.63 82 79C82 35.3695 117.37 0 161 0C204.63 0 240 35.3695 240 79ZM87.6808 79C87.6808 119.493 120.507 152.319 161 152.319C201.493 152.319 234.319 119.493 234.319 79C234.319 38.5069 201.493 5.68077 161 5.68077C120.507 5.68077 87.6808 38.5069 87.6808 79Z" fill="#3CB043"/>
<path d="M80.8687 205.539L86.895 222.555L92.8892 205.539H99.2378V229H94.3877V222.587L94.8711 211.517L88.5386 229H85.2192L78.9028 211.533L79.3862 222.587V229H74.5522V205.539H80.8687ZM109.663 222.41L112.886 211.565H117.881L110.872 231.707L110.485 232.625C109.443 234.903 107.724 236.042 105.329 236.042C104.652 236.042 103.964 235.939 103.266 235.735V232.207L103.975 232.223C104.856 232.223 105.511 232.088 105.941 231.82C106.381 231.551 106.725 231.105 106.972 230.482L107.52 229.048L101.413 211.565H106.424L109.663 222.41ZM141.487 224.166H133.011L131.4 229H126.26L134.993 205.539H139.473L148.254 229H143.114L141.487 224.166ZM134.316 220.25H140.182L137.233 211.469L134.316 220.25ZM157.391 225.568C158.25 225.568 158.948 225.332 159.485 224.859C160.022 224.386 160.302 223.758 160.323 222.974H164.69C164.679 224.155 164.357 225.24 163.723 226.229C163.089 227.206 162.219 227.969 161.113 228.517C160.017 229.054 158.803 229.322 157.471 229.322C154.979 229.322 153.013 228.533 151.574 226.954C150.134 225.364 149.415 223.172 149.415 220.379V220.073C149.415 217.388 150.129 215.245 151.558 213.644C152.986 212.043 154.947 211.243 157.439 211.243C159.62 211.243 161.365 211.866 162.676 213.112C163.997 214.348 164.668 215.997 164.69 218.059H160.323C160.302 217.157 160.022 216.426 159.485 215.868C158.948 215.298 158.239 215.014 157.358 215.014C156.273 215.014 155.452 215.411 154.893 216.206C154.345 216.99 154.071 218.269 154.071 220.041V220.524C154.071 222.318 154.345 223.607 154.893 224.392C155.441 225.176 156.273 225.568 157.391 225.568ZM174.6 225.568C175.459 225.568 176.157 225.332 176.694 224.859C177.231 224.386 177.511 223.758 177.532 222.974H181.899C181.888 224.155 181.566 225.24 180.932 226.229C180.298 227.206 179.428 227.969 178.322 228.517C177.226 229.054 176.012 229.322 174.68 229.322C172.188 229.322 170.222 228.533 168.783 226.954C167.343 225.364 166.624 223.172 166.624 220.379V220.073C166.624 217.388 167.338 215.245 168.767 213.644C170.195 212.043 172.156 211.243 174.648 211.243C176.829 211.243 178.574 211.866 179.885 213.112C181.206 214.348 181.877 215.997 181.899 218.059H177.532C177.511 217.157 177.231 216.426 176.694 215.868C176.157 215.298 175.448 215.014 174.567 215.014C173.482 215.014 172.661 215.411 172.102 216.206C171.554 216.99 171.28 218.269 171.28 220.041V220.524C171.28 222.318 171.554 223.607 172.102 224.392C172.65 225.176 173.482 225.568 174.6 225.568ZM183.833 220.122C183.833 218.392 184.166 216.851 184.832 215.497C185.498 214.144 186.454 213.096 187.7 212.355C188.957 211.614 190.412 211.243 192.066 211.243C194.419 211.243 196.336 211.963 197.819 213.402C199.312 214.842 200.145 216.797 200.316 219.268L200.349 220.46C200.349 223.135 199.602 225.283 198.109 226.905C196.616 228.517 194.612 229.322 192.099 229.322C189.585 229.322 187.576 228.517 186.072 226.905C184.579 225.294 183.833 223.103 183.833 220.331V220.122ZM188.489 220.46C188.489 222.114 188.801 223.382 189.424 224.263C190.047 225.133 190.938 225.568 192.099 225.568C193.227 225.568 194.107 225.138 194.741 224.279C195.375 223.409 195.692 222.023 195.692 220.122C195.692 218.5 195.375 217.243 194.741 216.351C194.107 215.459 193.216 215.014 192.066 215.014C190.928 215.014 190.047 215.459 189.424 216.351C188.801 217.232 188.489 218.602 188.489 220.46ZM213.658 227.228C212.509 228.624 210.919 229.322 208.889 229.322C207.02 229.322 205.591 228.785 204.603 227.711C203.625 226.637 203.125 225.063 203.104 222.99V211.565H207.761V222.829C207.761 224.644 208.588 225.552 210.242 225.552C211.821 225.552 212.906 225.004 213.497 223.908V211.565H218.17V229H213.787L213.658 227.228ZM225.969 211.565L226.114 213.58C227.36 212.022 229.03 211.243 231.125 211.243C232.973 211.243 234.348 211.786 235.25 212.871C236.152 213.956 236.614 215.578 236.636 217.737V229H231.979V217.85C231.979 216.861 231.764 216.147 231.334 215.707C230.905 215.255 230.19 215.03 229.191 215.03C227.881 215.03 226.898 215.588 226.243 216.706V229H221.586V211.565H225.969ZM245.756 207.279V211.565H248.737V214.981H245.756V223.683C245.756 224.327 245.879 224.789 246.126 225.068C246.374 225.348 246.846 225.487 247.544 225.487C248.06 225.487 248.517 225.45 248.914 225.375V228.903C248.001 229.183 247.061 229.322 246.094 229.322C242.829 229.322 241.164 227.673 241.099 224.375V214.981H238.553V211.565H241.099V207.279H245.756Z" fill="#3CB043"/>
<path d="M17.4873 303H13.7812L4.27441 287.868V303H0.568359V281.672H4.27441L13.8105 296.862V281.672H17.4873V303ZM20.8564 294.929C20.8564 293.376 21.1641 291.979 21.7793 290.739C22.3945 289.489 23.2588 288.532 24.3721 287.868C25.4854 287.194 26.7646 286.857 28.21 286.857C30.3486 286.857 32.082 287.546 33.4102 288.923C34.748 290.3 35.4707 292.126 35.5781 294.401L35.5928 295.236C35.5928 296.799 35.29 298.195 34.6846 299.426C34.0889 300.656 33.2295 301.608 32.1064 302.282C30.9932 302.956 29.7041 303.293 28.2393 303.293C26.0029 303.293 24.2109 302.551 22.8633 301.066C21.5254 299.572 20.8564 297.585 20.8564 295.104V294.929ZM24.416 295.236C24.416 296.867 24.7529 298.146 25.4268 299.074C26.1006 299.992 27.0381 300.451 28.2393 300.451C29.4404 300.451 30.373 299.982 31.0371 299.045C31.7109 298.107 32.0479 296.735 32.0479 294.929C32.0479 293.327 31.7012 292.058 31.0078 291.12C30.3242 290.183 29.3916 289.714 28.21 289.714C27.0479 289.714 26.125 290.178 25.4414 291.105C24.7578 292.023 24.416 293.4 24.416 295.236ZM43.0635 283.298V287.15H45.8613V289.787H43.0635V298.635C43.0635 299.24 43.1807 299.68 43.415 299.953C43.6592 300.217 44.0889 300.349 44.7041 300.349C45.1143 300.349 45.5293 300.3 45.9492 300.202V302.956C45.1387 303.181 44.3574 303.293 43.6055 303.293C40.8711 303.293 39.5039 301.784 39.5039 298.767V289.787H36.8965V287.15H39.5039V283.298H43.0635ZM52.3799 303H48.8203V287.15H52.3799V303ZM48.6006 283.034C48.6006 282.487 48.7715 282.033 49.1133 281.672C49.4648 281.311 49.9629 281.13 50.6074 281.13C51.252 281.13 51.75 281.311 52.1016 281.672C52.4531 282.033 52.6289 282.487 52.6289 283.034C52.6289 283.571 52.4531 284.021 52.1016 284.382C51.75 284.733 51.252 284.909 50.6074 284.909C49.9629 284.909 49.4648 284.733 49.1133 284.382C48.7715 284.021 48.6006 283.571 48.6006 283.034ZM57.2139 303V289.787H54.7969V287.15H57.2139V286.066C57.2236 284.826 57.4873 283.762 58.0049 282.873C58.5225 281.984 59.2549 281.315 60.2021 280.866C61.1494 280.417 62.2871 280.192 63.6152 280.192C64.3965 280.192 65.1436 280.275 65.8564 280.441C66.5791 280.607 67.3262 280.817 68.0977 281.071L67.5557 284.016C66.208 283.547 64.9775 283.312 63.8643 283.312C62.7803 283.312 61.9941 283.552 61.5059 284.03C61.0176 284.499 60.7734 285.207 60.7734 286.154V287.15H63.8936V289.787H60.7734V303H57.2139ZM69.7822 303H66.2227V287.15H69.7822V303ZM80.2412 300.451C81.1299 300.451 81.8672 300.192 82.4531 299.675C83.0391 299.157 83.3516 298.518 83.3906 297.756H86.7451C86.7061 298.742 86.3984 299.665 85.8223 300.524C85.2461 301.374 84.4648 302.048 83.4785 302.546C82.4922 303.044 81.4277 303.293 80.2852 303.293C78.0684 303.293 76.3105 302.575 75.0117 301.14C73.7129 299.704 73.0635 297.722 73.0635 295.192V294.826C73.0635 292.414 73.708 290.485 74.9971 289.04C76.2861 287.585 78.0439 286.857 80.2705 286.857C82.1553 286.857 83.6885 287.409 84.8701 288.513C86.0615 289.606 86.6865 291.047 86.7451 292.834H83.3906C83.3516 291.926 83.0391 291.179 82.4531 290.593C81.877 290.007 81.1396 289.714 80.2412 289.714C79.0889 289.714 78.2002 290.134 77.5752 290.974C76.9502 291.804 76.6328 293.068 76.623 294.768V295.339C76.623 297.058 76.9307 298.342 77.5459 299.191C78.1709 300.031 79.0693 300.451 80.2412 300.451ZM98.9033 303C98.7471 302.697 98.6104 302.204 98.4932 301.521C97.3604 302.702 95.9736 303.293 94.333 303.293C92.7412 303.293 91.4424 302.839 90.4365 301.931C89.4307 301.022 88.9277 299.899 88.9277 298.562C88.9277 296.872 89.5527 295.578 90.8027 294.68C92.0625 293.771 93.8594 293.317 96.1934 293.317H98.376V292.277C98.376 291.457 98.1465 290.803 97.6875 290.314C97.2285 289.816 96.5303 289.567 95.5928 289.567C94.7822 289.567 94.1182 289.772 93.6006 290.183C93.083 290.583 92.8242 291.096 92.8242 291.721H89.2646C89.2646 290.852 89.5527 290.041 90.1289 289.289C90.7051 288.527 91.4863 287.932 92.4727 287.502C93.4688 287.072 94.5771 286.857 95.7979 286.857C97.6533 286.857 99.1328 287.326 100.236 288.264C101.34 289.191 101.906 290.5 101.936 292.189V299.338C101.936 300.764 102.136 301.901 102.536 302.751V303H98.9033ZM94.9922 300.437C95.6953 300.437 96.3545 300.266 96.9697 299.924C97.5947 299.582 98.0635 299.123 98.376 298.547V295.559H96.457C95.1387 295.559 94.1475 295.788 93.4834 296.247C92.8193 296.706 92.4873 297.355 92.4873 298.195C92.4873 298.879 92.7119 299.426 93.1611 299.836C93.6201 300.236 94.2305 300.437 94.9922 300.437ZM110.124 283.298V287.15H112.922V289.787H110.124V298.635C110.124 299.24 110.241 299.68 110.476 299.953C110.72 300.217 111.149 300.349 111.765 300.349C112.175 300.349 112.59 300.3 113.01 300.202V302.956C112.199 303.181 111.418 303.293 110.666 303.293C107.932 303.293 106.564 301.784 106.564 298.767V289.787H103.957V287.15H106.564V283.298H110.124ZM119.44 303H115.881V287.15H119.44V303ZM115.661 283.034C115.661 282.487 115.832 282.033 116.174 281.672C116.525 281.311 117.023 281.13 117.668 281.13C118.312 281.13 118.811 281.311 119.162 281.672C119.514 282.033 119.689 282.487 119.689 283.034C119.689 283.571 119.514 284.021 119.162 284.382C118.811 284.733 118.312 284.909 117.668 284.909C117.023 284.909 116.525 284.733 116.174 284.382C115.832 284.021 115.661 283.571 115.661 283.034ZM122.663 294.929C122.663 293.376 122.971 291.979 123.586 290.739C124.201 289.489 125.065 288.532 126.179 287.868C127.292 287.194 128.571 286.857 130.017 286.857C132.155 286.857 133.889 287.546 135.217 288.923C136.555 290.3 137.277 292.126 137.385 294.401L137.399 295.236C137.399 296.799 137.097 298.195 136.491 299.426C135.896 300.656 135.036 301.608 133.913 302.282C132.8 302.956 131.511 303.293 130.046 303.293C127.81 303.293 126.018 302.551 124.67 301.066C123.332 299.572 122.663 297.585 122.663 295.104V294.929ZM126.223 295.236C126.223 296.867 126.56 298.146 127.233 299.074C127.907 299.992 128.845 300.451 130.046 300.451C131.247 300.451 132.18 299.982 132.844 299.045C133.518 298.107 133.854 296.735 133.854 294.929C133.854 293.327 133.508 292.058 132.814 291.12C132.131 290.183 131.198 289.714 130.017 289.714C128.854 289.714 127.932 290.178 127.248 291.105C126.564 292.023 126.223 293.4 126.223 295.236ZM143.713 287.15L143.815 288.981C144.987 287.565 146.525 286.857 148.43 286.857C151.73 286.857 153.41 288.747 153.469 292.526V303H149.909V292.731C149.909 291.726 149.689 290.983 149.25 290.505C148.82 290.017 148.112 289.772 147.126 289.772C145.69 289.772 144.621 290.422 143.918 291.721V303H140.358V287.15H143.713ZM165.993 298.693C165.993 298.059 165.729 297.575 165.202 297.243C164.685 296.911 163.82 296.618 162.609 296.364C161.398 296.11 160.388 295.788 159.577 295.397C157.8 294.538 156.911 293.293 156.911 291.662C156.911 290.295 157.487 289.152 158.64 288.234C159.792 287.316 161.257 286.857 163.034 286.857C164.929 286.857 166.457 287.326 167.619 288.264C168.791 289.201 169.377 290.417 169.377 291.911H165.817C165.817 291.228 165.563 290.661 165.056 290.212C164.548 289.753 163.874 289.523 163.034 289.523C162.253 289.523 161.613 289.704 161.115 290.065C160.627 290.427 160.383 290.91 160.383 291.516C160.383 292.062 160.612 292.487 161.071 292.79C161.53 293.093 162.458 293.4 163.854 293.713C165.251 294.016 166.345 294.382 167.136 294.812C167.937 295.231 168.527 295.739 168.908 296.335C169.299 296.931 169.494 297.653 169.494 298.503C169.494 299.929 168.903 301.086 167.722 301.975C166.54 302.854 164.992 303.293 163.078 303.293C161.779 303.293 160.622 303.059 159.606 302.59C158.591 302.121 157.8 301.477 157.233 300.656C156.667 299.836 156.384 298.952 156.384 298.005H159.841C159.89 298.845 160.207 299.494 160.793 299.953C161.379 300.402 162.155 300.627 163.122 300.627C164.06 300.627 164.772 300.451 165.261 300.1C165.749 299.738 165.993 299.27 165.993 298.693ZM179.514 297.243C179.514 296.257 179.782 295.354 180.319 294.533C180.856 293.703 181.916 292.722 183.498 291.589C182.668 290.544 182.087 289.655 181.755 288.923C181.433 288.19 181.271 287.482 181.271 286.799C181.271 285.129 181.779 283.811 182.795 282.844C183.811 281.867 185.178 281.379 186.896 281.379C188.449 281.379 189.719 281.838 190.705 282.756C191.701 283.664 192.199 284.792 192.199 286.14C192.199 287.028 191.975 287.849 191.525 288.601C191.076 289.343 190.339 290.085 189.313 290.827L187.863 291.882L191.979 296.745C192.575 295.573 192.873 294.27 192.873 292.834H195.964C195.964 295.461 195.349 297.614 194.118 299.294L197.253 303H193.122L191.921 301.579C190.397 302.722 188.581 303.293 186.472 303.293C184.362 303.293 182.673 302.736 181.403 301.623C180.144 300.5 179.514 299.04 179.514 297.243ZM186.574 300.451C187.775 300.451 188.898 300.051 189.943 299.25L185.285 293.757L184.831 294.079C183.659 294.968 183.073 295.983 183.073 297.126C183.073 298.112 183.391 298.913 184.025 299.528C184.66 300.144 185.51 300.451 186.574 300.451ZM184.611 286.711C184.611 287.531 185.114 288.562 186.12 289.802L187.746 288.688L188.2 288.322C188.806 287.785 189.108 287.097 189.108 286.257C189.108 285.7 188.898 285.227 188.479 284.836C188.059 284.436 187.526 284.235 186.882 284.235C186.188 284.235 185.637 284.47 185.227 284.938C184.816 285.407 184.611 285.998 184.611 286.711ZM218.229 297.507C218.229 296.569 217.897 295.847 217.233 295.339C216.579 294.831 215.393 294.318 213.674 293.801C211.955 293.283 210.588 292.707 209.572 292.072C207.629 290.852 206.657 289.26 206.657 287.297C206.657 285.578 207.355 284.162 208.752 283.049C210.158 281.936 211.979 281.379 214.216 281.379C215.7 281.379 217.023 281.652 218.186 282.199C219.348 282.746 220.261 283.527 220.925 284.543C221.589 285.549 221.921 286.667 221.921 287.897H218.229C218.229 286.784 217.878 285.915 217.175 285.29C216.481 284.655 215.485 284.338 214.187 284.338C212.976 284.338 212.033 284.597 211.359 285.114C210.695 285.632 210.363 286.354 210.363 287.282C210.363 288.063 210.725 288.718 211.447 289.245C212.17 289.763 213.361 290.271 215.021 290.769C216.682 291.257 218.015 291.818 219.021 292.453C220.026 293.078 220.764 293.801 221.232 294.621C221.701 295.432 221.936 296.384 221.936 297.478C221.936 299.255 221.252 300.671 219.885 301.726C218.527 302.771 216.682 303.293 214.348 303.293C212.805 303.293 211.384 303.01 210.085 302.443C208.796 301.867 207.79 301.076 207.067 300.07C206.354 299.064 205.998 297.893 205.998 296.555H209.704C209.704 297.766 210.104 298.703 210.905 299.367C211.706 300.031 212.854 300.363 214.348 300.363C215.637 300.363 216.604 300.104 217.248 299.587C217.902 299.06 218.229 298.366 218.229 297.507ZM231.823 303.293C229.567 303.293 227.736 302.585 226.33 301.169C224.934 299.743 224.235 297.849 224.235 295.485V295.046C224.235 293.464 224.538 292.053 225.144 290.812C225.759 289.562 226.618 288.591 227.722 287.897C228.825 287.204 230.056 286.857 231.413 286.857C233.571 286.857 235.236 287.546 236.408 288.923C237.59 290.3 238.181 292.248 238.181 294.768V296.203H227.824C227.932 297.512 228.366 298.547 229.128 299.309C229.899 300.07 230.866 300.451 232.028 300.451C233.659 300.451 234.987 299.792 236.013 298.474L237.932 300.305C237.297 301.252 236.447 301.989 235.383 302.517C234.328 303.034 233.142 303.293 231.823 303.293ZM231.398 289.714C230.422 289.714 229.631 290.056 229.025 290.739C228.43 291.423 228.049 292.375 227.883 293.596H234.665V293.332C234.587 292.141 234.27 291.242 233.713 290.637C233.156 290.021 232.385 289.714 231.398 289.714ZM245.417 283.298V287.15H248.215V289.787H245.417V298.635C245.417 299.24 245.534 299.68 245.769 299.953C246.013 300.217 246.442 300.349 247.058 300.349C247.468 300.349 247.883 300.3 248.303 300.202V302.956C247.492 303.181 246.711 303.293 245.959 303.293C243.225 303.293 241.857 301.784 241.857 298.767V289.787H239.25V287.15H241.857V283.298H245.417ZM255.407 283.298V287.15H258.205V289.787H255.407V298.635C255.407 299.24 255.524 299.68 255.759 299.953C256.003 300.217 256.433 300.349 257.048 300.349C257.458 300.349 257.873 300.3 258.293 300.202V302.956C257.482 303.181 256.701 303.293 255.949 303.293C253.215 303.293 251.848 301.784 251.848 298.767V289.787H249.24V287.15H251.848V283.298H255.407ZM264.724 303H261.164V287.15H264.724V303ZM260.944 283.034C260.944 282.487 261.115 282.033 261.457 281.672C261.809 281.311 262.307 281.13 262.951 281.13C263.596 281.13 264.094 281.311 264.445 281.672C264.797 282.033 264.973 282.487 264.973 283.034C264.973 283.571 264.797 284.021 264.445 284.382C264.094 284.733 263.596 284.909 262.951 284.909C262.307 284.909 261.809 284.733 261.457 284.382C261.115 284.021 260.944 283.571 260.944 283.034ZM271.916 287.15L272.019 288.981C273.19 287.565 274.729 286.857 276.633 286.857C279.934 286.857 281.613 288.747 281.672 292.526V303H278.112V292.731C278.112 291.726 277.893 290.983 277.453 290.505C277.023 290.017 276.315 289.772 275.329 289.772C273.894 289.772 272.824 290.422 272.121 291.721V303H268.562V287.15H271.916ZM284.689 294.958C284.689 292.497 285.266 290.534 286.418 289.069C287.58 287.595 289.118 286.857 291.032 286.857C292.839 286.857 294.26 287.487 295.295 288.747L295.456 287.15H298.664V302.517C298.664 304.597 298.015 306.237 296.716 307.438C295.427 308.64 293.684 309.24 291.486 309.24C290.324 309.24 289.187 308.996 288.073 308.508C286.97 308.029 286.13 307.399 285.554 306.618L287.238 304.479C288.332 305.778 289.68 306.428 291.281 306.428C292.463 306.428 293.396 306.105 294.079 305.461C294.763 304.826 295.104 303.889 295.104 302.648V301.579C294.079 302.722 292.712 303.293 291.003 303.293C289.147 303.293 287.629 302.556 286.447 301.081C285.275 299.606 284.689 297.565 284.689 294.958ZM288.234 295.266C288.234 296.857 288.557 298.112 289.201 299.03C289.855 299.938 290.759 300.393 291.911 300.393C293.347 300.393 294.411 299.777 295.104 298.547V291.574C294.431 290.373 293.376 289.772 291.94 289.772C290.769 289.772 289.855 290.236 289.201 291.164C288.557 292.092 288.234 293.459 288.234 295.266ZM311.218 298.693C311.218 298.059 310.954 297.575 310.427 297.243C309.909 296.911 309.045 296.618 307.834 296.364C306.623 296.11 305.612 295.788 304.802 295.397C303.024 294.538 302.136 293.293 302.136 291.662C302.136 290.295 302.712 289.152 303.864 288.234C305.017 287.316 306.481 286.857 308.259 286.857C310.153 286.857 311.682 287.326 312.844 288.264C314.016 289.201 314.602 290.417 314.602 291.911H311.042C311.042 291.228 310.788 290.661 310.28 290.212C309.772 289.753 309.099 289.523 308.259 289.523C307.478 289.523 306.838 289.704 306.34 290.065C305.852 290.427 305.607 290.91 305.607 291.516C305.607 292.062 305.837 292.487 306.296 292.79C306.755 293.093 307.683 293.4 309.079 293.713C310.476 294.016 311.569 294.382 312.36 294.812C313.161 295.231 313.752 295.739 314.133 296.335C314.523 296.931 314.719 297.653 314.719 298.503C314.719 299.929 314.128 301.086 312.946 301.975C311.765 302.854 310.217 303.293 308.303 303.293C307.004 303.293 305.847 303.059 304.831 302.59C303.815 302.121 303.024 301.477 302.458 300.656C301.892 299.836 301.608 298.952 301.608 298.005H305.065C305.114 298.845 305.432 299.494 306.018 299.953C306.604 300.402 307.38 300.627 308.347 300.627C309.284 300.627 309.997 300.451 310.485 300.1C310.974 299.738 311.218 299.27 311.218 298.693ZM318.337 307.805L316.418 306.662C316.984 305.773 317.37 304.997 317.575 304.333C317.79 303.679 317.902 303.01 317.912 302.326V299.558H321.12L321.105 302.121C321.096 303.156 320.832 304.191 320.314 305.227C319.807 306.271 319.147 307.131 318.337 307.805ZM17.7217 358.034H9.45996L7.73145 363H3.87891L11.9355 341.672H15.2607L23.332 363H19.4648L17.7217 358.034ZM10.5 355.046H16.6816L13.5908 346.198L10.5 355.046ZM34.3037 358.693C34.3037 358.059 34.04 357.575 33.5127 357.243C32.9951 356.911 32.1309 356.618 30.9199 356.364C29.709 356.11 28.6982 355.788 27.8877 355.397C26.1104 354.538 25.2217 353.293 25.2217 351.662C25.2217 350.295 25.7979 349.152 26.9502 348.234C28.1025 347.316 29.5674 346.857 31.3447 346.857C33.2393 346.857 34.7676 347.326 35.9297 348.264C37.1016 349.201 37.6875 350.417 37.6875 351.911H34.1279C34.1279 351.228 33.874 350.661 33.3662 350.212C32.8584 349.753 32.1846 349.523 31.3447 349.523C30.5635 349.523 29.9238 349.704 29.4258 350.065C28.9375 350.427 28.6934 350.91 28.6934 351.516C28.6934 352.062 28.9229 352.487 29.3818 352.79C29.8408 353.093 30.7686 353.4 32.165 353.713C33.5615 354.016 34.6553 354.382 35.4463 354.812C36.2471 355.231 36.8379 355.739 37.2188 356.335C37.6094 356.931 37.8047 357.653 37.8047 358.503C37.8047 359.929 37.2139 361.086 36.0322 361.975C34.8506 362.854 33.3027 363.293 31.3887 363.293C30.0898 363.293 28.9326 363.059 27.917 362.59C26.9014 362.121 26.1104 361.477 25.5439 360.656C24.9775 359.836 24.6943 358.952 24.6943 358.005H28.1514C28.2002 358.845 28.5176 359.494 29.1035 359.953C29.6895 360.402 30.4658 360.627 31.4326 360.627C32.3701 360.627 33.083 360.451 33.5713 360.1C34.0596 359.738 34.3037 359.27 34.3037 358.693ZM46.0664 356.203L44.4844 357.829V363H40.9248V340.5H44.4844V353.479L45.5977 352.087L49.9775 347.15H54.2549L48.3662 353.757L54.8848 363H50.7686L46.0664 356.203ZM63.498 357.243C63.498 356.257 63.7666 355.354 64.3037 354.533C64.8408 353.703 65.9004 352.722 67.4824 351.589C66.6523 350.544 66.0713 349.655 65.7393 348.923C65.417 348.19 65.2559 347.482 65.2559 346.799C65.2559 345.129 65.7637 343.811 66.7793 342.844C67.7949 341.867 69.1621 341.379 70.8809 341.379C72.4336 341.379 73.7031 341.838 74.6895 342.756C75.6855 343.664 76.1836 344.792 76.1836 346.14C76.1836 347.028 75.959 347.849 75.5098 348.601C75.0605 349.343 74.3232 350.085 73.2979 350.827L71.8477 351.882L75.9639 356.745C76.5596 355.573 76.8574 354.27 76.8574 352.834H79.9482C79.9482 355.461 79.333 357.614 78.1025 359.294L81.2373 363H77.1064L75.9053 361.579C74.3818 362.722 72.5654 363.293 70.4561 363.293C68.3467 363.293 66.6572 362.736 65.3877 361.623C64.1279 360.5 63.498 359.04 63.498 357.243ZM70.5586 360.451C71.7598 360.451 72.8828 360.051 73.9277 359.25L69.2695 353.757L68.8154 354.079C67.6436 354.968 67.0576 355.983 67.0576 357.126C67.0576 358.112 67.375 358.913 68.0098 359.528C68.6445 360.144 69.4941 360.451 70.5586 360.451ZM68.5957 346.711C68.5957 347.531 69.0986 348.562 70.1045 349.802L71.7305 348.688L72.1846 348.322C72.79 347.785 73.0928 347.097 73.0928 346.257C73.0928 345.7 72.8828 345.227 72.4629 344.836C72.043 344.436 71.5107 344.235 70.8662 344.235C70.1729 344.235 69.6211 344.47 69.2109 344.938C68.8008 345.407 68.5957 345.998 68.5957 346.711ZM91.0664 363V341.672H98.376C100.788 341.672 102.624 342.155 103.884 343.122C105.144 344.089 105.773 345.529 105.773 347.443C105.773 348.42 105.51 349.299 104.982 350.08C104.455 350.861 103.684 351.467 102.668 351.896C103.82 352.209 104.709 352.8 105.334 353.669C105.969 354.528 106.286 355.563 106.286 356.774C106.286 358.776 105.642 360.314 104.353 361.389C103.073 362.463 101.237 363 98.8447 363H91.0664ZM94.7725 353.376V360.041H98.8887C100.051 360.041 100.959 359.753 101.613 359.177C102.268 358.601 102.595 357.8 102.595 356.774C102.595 354.558 101.462 353.425 99.1963 353.376H94.7725ZM94.7725 350.651H98.4053C99.5576 350.651 100.456 350.393 101.101 349.875C101.755 349.348 102.082 348.605 102.082 347.648C102.082 346.594 101.779 345.832 101.174 345.363C100.578 344.895 99.6455 344.66 98.376 344.66H94.7725V350.651ZM113.435 363H109.875V347.15H113.435V363ZM109.655 343.034C109.655 342.487 109.826 342.033 110.168 341.672C110.52 341.311 111.018 341.13 111.662 341.13C112.307 341.13 112.805 341.311 113.156 341.672C113.508 342.033 113.684 342.487 113.684 343.034C113.684 343.571 113.508 344.021 113.156 344.382C112.805 344.733 112.307 344.909 111.662 344.909C111.018 344.909 110.52 344.733 110.168 344.382C109.826 344.021 109.655 343.571 109.655 343.034ZM116.657 354.958C116.657 352.517 117.224 350.559 118.356 349.084C119.489 347.6 121.008 346.857 122.912 346.857C124.592 346.857 125.949 347.443 126.984 348.615V340.5H130.544V363H127.321L127.146 361.359C126.081 362.648 124.66 363.293 122.883 363.293C121.027 363.293 119.523 362.546 118.371 361.052C117.229 359.558 116.657 357.526 116.657 354.958ZM120.217 355.266C120.217 356.877 120.524 358.137 121.14 359.045C121.765 359.943 122.648 360.393 123.791 360.393C125.246 360.393 126.311 359.743 126.984 358.444V351.677C126.33 350.407 125.275 349.772 123.82 349.772C122.668 349.772 121.779 350.231 121.154 351.149C120.529 352.058 120.217 353.43 120.217 355.266ZM146.877 341.672L153.029 358.02L159.167 341.672H163.957V363H160.266V355.969L160.632 346.564L154.333 363H151.682L145.397 346.579L145.764 355.969V363H142.072V341.672H146.877ZM177.478 363C177.321 362.697 177.185 362.204 177.067 361.521C175.935 362.702 174.548 363.293 172.907 363.293C171.315 363.293 170.017 362.839 169.011 361.931C168.005 361.022 167.502 359.899 167.502 358.562C167.502 356.872 168.127 355.578 169.377 354.68C170.637 353.771 172.434 353.317 174.768 353.317H176.95V352.277C176.95 351.457 176.721 350.803 176.262 350.314C175.803 349.816 175.104 349.567 174.167 349.567C173.356 349.567 172.692 349.772 172.175 350.183C171.657 350.583 171.398 351.096 171.398 351.721H167.839C167.839 350.852 168.127 350.041 168.703 349.289C169.279 348.527 170.061 347.932 171.047 347.502C172.043 347.072 173.151 346.857 174.372 346.857C176.228 346.857 177.707 347.326 178.811 348.264C179.914 349.191 180.48 350.5 180.51 352.189V359.338C180.51 360.764 180.71 361.901 181.11 362.751V363H177.478ZM173.566 360.437C174.27 360.437 174.929 360.266 175.544 359.924C176.169 359.582 176.638 359.123 176.95 358.547V355.559H175.031C173.713 355.559 172.722 355.788 172.058 356.247C171.394 356.706 171.062 357.355 171.062 358.195C171.062 358.879 171.286 359.426 171.735 359.836C172.194 360.236 172.805 360.437 173.566 360.437ZM187.541 347.15L187.644 348.981C188.815 347.565 190.354 346.857 192.258 346.857C195.559 346.857 197.238 348.747 197.297 352.526V363H193.737V352.731C193.737 351.726 193.518 350.983 193.078 350.505C192.648 350.017 191.94 349.772 190.954 349.772C189.519 349.772 188.449 350.422 187.746 351.721V363H184.187V347.15H187.541ZM210.407 363C210.251 362.697 210.114 362.204 209.997 361.521C208.864 362.702 207.478 363.293 205.837 363.293C204.245 363.293 202.946 362.839 201.94 361.931C200.935 361.022 200.432 359.899 200.432 358.562C200.432 356.872 201.057 355.578 202.307 354.68C203.566 353.771 205.363 353.317 207.697 353.317H209.88V352.277C209.88 351.457 209.65 350.803 209.191 350.314C208.732 349.816 208.034 349.567 207.097 349.567C206.286 349.567 205.622 349.772 205.104 350.183C204.587 350.583 204.328 351.096 204.328 351.721H200.769C200.769 350.852 201.057 350.041 201.633 349.289C202.209 348.527 202.99 347.932 203.977 347.502C204.973 347.072 206.081 346.857 207.302 346.857C209.157 346.857 210.637 347.326 211.74 348.264C212.844 349.191 213.41 350.5 213.439 352.189V359.338C213.439 360.764 213.64 361.901 214.04 362.751V363H210.407ZM206.496 360.437C207.199 360.437 207.858 360.266 208.474 359.924C209.099 359.582 209.567 359.123 209.88 358.547V355.559H207.961C206.643 355.559 205.651 355.788 204.987 356.247C204.323 356.706 203.991 357.355 203.991 358.195C203.991 358.879 204.216 359.426 204.665 359.836C205.124 360.236 205.734 360.437 206.496 360.437ZM216.545 354.958C216.545 352.497 217.121 350.534 218.273 349.069C219.436 347.595 220.974 346.857 222.888 346.857C224.694 346.857 226.115 347.487 227.15 348.747L227.312 347.15H230.52V362.517C230.52 364.597 229.87 366.237 228.571 367.438C227.282 368.64 225.539 369.24 223.342 369.24C222.18 369.24 221.042 368.996 219.929 368.508C218.825 368.029 217.985 367.399 217.409 366.618L219.094 364.479C220.188 365.778 221.535 366.428 223.137 366.428C224.318 366.428 225.251 366.105 225.935 365.461C226.618 364.826 226.96 363.889 226.96 362.648V361.579C225.935 362.722 224.567 363.293 222.858 363.293C221.003 363.293 219.484 362.556 218.303 361.081C217.131 359.606 216.545 357.565 216.545 354.958ZM220.09 355.266C220.09 356.857 220.412 358.112 221.057 359.03C221.711 359.938 222.614 360.393 223.767 360.393C225.202 360.393 226.267 359.777 226.96 358.547V351.574C226.286 350.373 225.231 349.772 223.796 349.772C222.624 349.772 221.711 350.236 221.057 351.164C220.412 352.092 220.09 353.459 220.09 355.266ZM241.169 363.293C238.913 363.293 237.082 362.585 235.676 361.169C234.279 359.743 233.581 357.849 233.581 355.485V355.046C233.581 353.464 233.884 352.053 234.489 350.812C235.104 349.562 235.964 348.591 237.067 347.897C238.171 347.204 239.401 346.857 240.759 346.857C242.917 346.857 244.582 347.546 245.754 348.923C246.936 350.3 247.526 352.248 247.526 354.768V356.203H237.17C237.277 357.512 237.712 358.547 238.474 359.309C239.245 360.07 240.212 360.451 241.374 360.451C243.005 360.451 244.333 359.792 245.358 358.474L247.277 360.305C246.643 361.252 245.793 361.989 244.729 362.517C243.674 363.034 242.487 363.293 241.169 363.293ZM240.744 349.714C239.768 349.714 238.977 350.056 238.371 350.739C237.775 351.423 237.395 352.375 237.229 353.596H244.011V353.332C243.933 352.141 243.615 351.242 243.059 350.637C242.502 350.021 241.73 349.714 240.744 349.714ZM253.649 347.15L253.752 348.806C254.865 347.507 256.389 346.857 258.322 346.857C260.441 346.857 261.892 347.668 262.673 349.289C263.825 347.668 265.446 346.857 267.536 346.857C269.284 346.857 270.583 347.341 271.433 348.308C272.292 349.274 272.731 350.7 272.751 352.585V363H269.191V352.688C269.191 351.682 268.972 350.944 268.532 350.476C268.093 350.007 267.365 349.772 266.35 349.772C265.539 349.772 264.875 349.992 264.357 350.432C263.85 350.861 263.493 351.428 263.288 352.131L263.303 363H259.743V352.57C259.694 350.705 258.742 349.772 256.887 349.772C255.461 349.772 254.45 350.354 253.854 351.516V363H250.295V347.15H253.649ZM283.386 363.293C281.13 363.293 279.299 362.585 277.893 361.169C276.496 359.743 275.798 357.849 275.798 355.485V355.046C275.798 353.464 276.101 352.053 276.706 350.812C277.321 349.562 278.181 348.591 279.284 347.897C280.388 347.204 281.618 346.857 282.976 346.857C285.134 346.857 286.799 347.546 287.971 348.923C289.152 350.3 289.743 352.248 289.743 354.768V356.203H279.387C279.494 357.512 279.929 358.547 280.69 359.309C281.462 360.07 282.429 360.451 283.591 360.451C285.222 360.451 286.55 359.792 287.575 358.474L289.494 360.305C288.859 361.252 288.01 361.989 286.945 362.517C285.891 363.034 284.704 363.293 283.386 363.293ZM282.961 349.714C281.984 349.714 281.193 350.056 280.588 350.739C279.992 351.423 279.611 352.375 279.445 353.596H286.228V353.332C286.149 352.141 285.832 351.242 285.275 350.637C284.719 350.021 283.947 349.714 282.961 349.714ZM295.822 347.15L295.925 348.981C297.097 347.565 298.635 346.857 300.539 346.857C303.84 346.857 305.52 348.747 305.578 352.526V363H302.019V352.731C302.019 351.726 301.799 350.983 301.359 350.505C300.93 350.017 300.222 349.772 299.235 349.772C297.8 349.772 296.73 350.422 296.027 351.721V363H292.468V347.15H295.822ZM313.679 343.298V347.15H316.477V349.787H313.679V358.635C313.679 359.24 313.796 359.68 314.03 359.953C314.274 360.217 314.704 360.349 315.319 360.349C315.729 360.349 316.145 360.3 316.564 360.202V362.956C315.754 363.181 314.973 363.293 314.221 363.293C311.486 363.293 310.119 361.784 310.119 358.767V349.787H307.512V347.15H310.119V343.298H313.679Z" fill="#3A3A3A"/>
<path d="M124.454 109.449C122.627 108.728 120.669 106.863 119.775 104.992C118.781 102.913 118.739 99.8991 119.674 97.7729C121.613 93.3619 126.935 88.7917 134.642 84.9183C140.148 82.1515 145.782 80.3747 149.05 80.3747C149.882 80.3747 151.047 80.6575 152.269 81.1561C155.018 82.2781 157.715 82.7775 161.024 82.7775C164.332 82.7775 167.029 82.2781 169.779 81.1561C172.01 80.2458 173.567 80.1639 176.565 80.7993C181.602 81.867 188.928 85.1104 193.773 88.4181C197.194 90.7535 200.923 94.6247 202.098 97.0616C202.914 98.7519 203 99.1473 203 101.2C203 103.145 202.896 103.687 202.272 104.992C201.361 106.898 199.405 108.737 197.519 109.462C196.105 110.006 195.78 110.01 160.949 109.997C126.455 109.983 125.78 109.973 124.454 109.449ZM196.792 104.788C199.618 102.62 199.247 99.3041 195.787 95.8018C192.074 92.0442 184.492 87.8512 177.817 85.864C174.07 84.7487 173.197 84.7254 170.588 85.6715C167.398 86.8278 164.558 87.3164 161.024 87.3164C157.494 87.3164 154.649 86.8279 151.473 85.6763C149.565 84.9846 149.018 84.8915 147.786 85.0484C145.391 85.3532 140.339 87.2094 136.202 89.3041C125.452 94.7465 121.051 100.293 124.458 104.104C125.723 105.52 123.97 105.458 161.329 105.396C195.972 105.339 196.076 105.337 196.792 104.788ZM157.255 79.7248C150.506 78.3463 145.078 74.1115 142.176 67.9596C140.72 64.8722 140.252 63.0139 140.061 59.5494C139.712 53.2254 141.751 47.7957 146.186 43.2394C148.793 40.5612 151.054 39.1071 154.526 37.8757C156.902 37.0328 157.146 37 161.024 37C164.901 37 165.145 37.0333 167.521 37.8757C171.077 39.1367 173.251 40.549 175.997 43.3816C178.045 45.4939 178.545 46.2007 179.701 48.6149C181.591 52.5604 181.944 54.1231 181.93 58.4815C181.917 62.7207 181.552 64.3991 179.872 67.9596C178.557 70.7456 176.549 73.3512 174.226 75.2856C172.281 76.9058 168.574 78.8245 166.222 79.4285C163.848 80.0382 159.494 80.182 157.255 79.7248ZM166.148 74.6423C172.589 72.5521 177.196 66.4247 177.577 59.4404C178.009 51.5314 173.353 44.7043 165.702 42.0276C164.579 41.6349 163.547 41.5313 160.894 41.545C157.846 41.5601 157.324 41.6358 155.571 42.3136C151.348 43.9456 148.079 46.9241 146.19 50.8588C144.824 53.7056 144.3 56.322 144.47 59.4404C144.903 67.3741 150.573 73.8521 158.361 75.3105C160.361 75.6851 163.86 75.3852 166.148 74.6423Z" fill="#313131"/>
</svg>
