<svg width="27" height="26" viewBox="0 0 27 26" fill="none" xmlns="http://www.w3.org/2000/svg">
<mask id="path-1-outside-1_348:1423" maskUnits="userSpaceOnUse" x="0" y="0" width="27" height="26" fill="black">
<rect fill="white" width="27" height="26"/>
<path d="M7.43471 24.9597C6.64514 24.82 5.96714 24.2479 5.66654 23.4676C5.57665 23.2343 5.55594 23.0822 5.55571 22.6542C5.55542 22.1307 5.56048 22.1069 5.79256 21.5437C5.8199 21.477 5.7872 21.4542 5.6245 21.4259C5.5133 21.4056 5.26754 21.3115 5.07834 21.2145C4.42967 20.8821 3.97926 20.2531 3.85403 19.5049C3.68794 18.5126 4.21819 17.4726 5.11039 17.0407C5.29877 16.9495 5.45862 16.8703 5.46558 16.8646C5.47259 16.8588 5.3905 15.8186 5.28325 14.5527C4.85942 9.54971 4.59796 6.43875 4.51888 5.458C4.47319 4.89156 4.41165 4.40481 4.38172 4.37357C4.35188 4.34239 3.64762 4.08571 2.81672 3.80332C1.0715 3.21002 1 3.16891 1 2.75887C1 2.46744 1.1274 2.28855 1.40079 2.1961C1.55395 2.14442 1.70595 2.18744 3.33868 2.75255C4.31311 3.08951 5.17266 3.39763 5.2488 3.4373C5.32494 3.47686 5.41602 3.58109 5.45122 3.66886C5.48642 3.75663 5.57163 4.503 5.64056 5.32738C5.70949 6.1518 5.78354 6.8427 5.80513 6.86274C5.82683 6.88295 6.62607 7.01605 7.58149 7.15888C10.1849 7.54813 11.9027 7.81413 11.99 7.84153C12.1349 7.88715 12.287 8.10397 12.3129 8.30241C12.3466 8.55937 12.2279 8.79563 12.0123 8.90098C11.8548 8.97807 11.7456 8.96595 9.45774 8.62179C8.14321 8.42402 6.80826 8.22114 6.49117 8.1709C6.17408 8.12067 5.90573 8.09439 5.89484 8.11229C5.87709 8.14174 5.96152 9.22921 5.98333 9.25155C5.99912 9.26888 23.8999 12.0592 23.9152 12.0479C23.9599 12.015 24.2139 10.8984 24.1827 10.8717C24.1621 10.8544 23.4958 10.7435 22.7018 10.626C20.2087 10.2568 19.6475 10.1662 19.5073 10.1106C19.2957 10.0266 19.1786 9.83835 19.1786 9.58214C19.1786 9.39447 19.2054 9.33066 19.345 9.1878C19.47 9.05961 19.5534 9.01746 19.6805 9.01746C19.7735 9.01746 20.8906 9.17481 22.163 9.36727C23.4353 9.55956 24.4923 9.70701 24.5117 9.69471C24.5311 9.68316 24.6211 9.3727 24.7115 9.00649C24.8947 8.26523 24.998 8.09837 25.3111 8.03821C25.5397 7.99432 25.7732 8.12684 25.9045 8.37514L26 8.55559L24.835 13.0605C24.1943 15.5382 23.6357 17.6255 23.5938 17.699C23.5518 17.7723 23.4606 17.861 23.391 17.8956C23.2912 17.9453 21.4301 17.96 14.5527 17.9655L5.84085 17.9713L5.61014 18.0856C5.14095 18.3183 4.87429 18.8678 4.98487 19.3741C5.06211 19.7277 5.27458 20.0152 5.57319 20.1702L5.8167 20.2967H14.5088C22.4523 20.2967 23.2154 20.3025 23.3694 20.3787C23.75 20.5638 23.791 21.1439 23.4405 21.3857C23.3359 21.4579 23.1737 21.4766 22.5184 21.4916C22.081 21.5032 21.7232 21.5176 21.7232 21.5237C21.7232 21.5323 21.7726 21.6472 21.8329 21.7818C21.9279 21.9934 21.9427 22.1104 21.943 22.653C21.9434 23.2737 21.9417 23.2832 21.7631 23.6574C21.2115 24.8133 19.8757 25.3028 18.7608 24.7577C17.6116 24.1958 17.1619 22.87 17.6853 21.5876C17.7193 21.5045 17.5135 21.4999 13.7584 21.4999H9.79565L9.90567 21.8132C10.1364 22.4706 10.1059 23.0709 9.81059 23.6845C9.48973 24.351 8.83605 24.8433 8.11981 24.9577C7.76745 25.014 7.74846 25.014 7.43475 24.9584L7.43471 24.9597ZM8.32132 23.6672C9.08046 23.2609 9.12795 22.1551 8.40724 21.6664C8.17143 21.5065 7.70287 21.4522 7.41088 21.551C6.62232 21.8177 6.41268 22.9795 7.05333 23.5327C7.42224 23.8513 7.88556 23.9004 8.32131 23.6673L8.32132 23.6672ZM20.1818 23.7137C20.4255 23.6 20.7134 23.2787 20.793 23.0314C20.9624 22.5056 20.7271 21.8906 20.2611 21.6412C19.3503 21.1537 18.3634 21.9864 18.6405 23.0084C18.7064 23.2515 19.008 23.6004 19.2493 23.7127C19.5062 23.8322 19.9268 23.8328 20.1818 23.7134V23.7137ZM22.7205 16.7007C22.7344 16.6525 22.9139 15.9587 23.1194 15.1591C23.3248 14.3594 23.524 13.5942 23.5621 13.4585C23.6001 13.3228 23.6258 13.2067 23.6192 13.2004C23.6093 13.1917 17.9107 12.2969 12.7684 11.498C12.1629 11.4039 10.9408 11.2133 10.0526 11.0743C6.84264 10.572 6.10722 10.4614 6.09088 10.4789C6.08186 10.4876 6.19255 11.8842 6.33715 13.58C6.48174 15.2758 6.60069 16.6915 6.60145 16.7259C6.60257 16.7759 8.24546 16.7886 14.649 16.7886C22.2698 16.7886 22.6966 16.7828 22.7205 16.7008V16.7007ZM15.3619 9.06867C13.957 8.68606 12.8422 7.55445 12.469 6.13199C12.3219 5.57121 12.3222 4.64187 12.4697 4.07939C12.6826 3.26785 13.0304 2.6795 13.6512 2.08118C14.2902 1.46532 15.1442 1.08352 16.0412 1.01264C16.3574 0.986649 16.4508 0.998194 16.5718 1.07124C16.8697 1.25169 16.9578 1.58961 16.7833 1.88284C16.658 2.09331 16.579 2.12969 16.1554 2.17098C14.6175 2.32111 13.4962 3.53261 13.4844 5.05699C13.4779 5.90023 13.7457 6.56743 14.3283 7.1596C16.041 8.90032 18.8574 7.84661 19.1343 5.36148C19.1935 4.83026 19.2325 4.73204 19.4345 4.60587C19.6376 4.47912 19.7967 4.47941 20.0012 4.60732C20.2615 4.76987 20.3228 4.98872 20.2603 5.53197C20.0698 7.18735 18.9989 8.51205 17.4415 9.01907C16.9377 9.18307 15.8747 9.20847 15.3619 9.06874L15.3619 9.06867ZM16.1203 6.81634C16.0665 6.79324 15.9674 6.71182 15.9001 6.63791C15.7962 6.52358 15.7741 6.44158 15.7533 6.09347L15.7288 5.68369L15.321 5.6577C14.9356 5.6346 14.9052 5.62363 14.7705 5.46888C14.6602 5.34242 14.6278 5.25667 14.6278 5.0915C14.6278 4.68671 14.8685 4.50459 15.4033 4.50459H15.7433L15.7604 4.07434C15.7771 3.66129 15.7841 3.63825 15.9375 3.49779C16.1205 3.33033 16.3551 3.30492 16.5867 3.42763C16.7968 3.53907 16.8787 3.74182 16.8787 4.15125V4.50467H17.1983C17.592 4.50467 17.8268 4.59937 17.9275 4.79905C18.0495 5.04071 18.0259 5.28026 17.8615 5.46897C17.7268 5.62372 17.6964 5.63412 17.311 5.65779L16.9032 5.68378L16.8786 6.09662C16.8564 6.47406 16.8414 6.52257 16.7049 6.66217C16.5462 6.82471 16.2896 6.89227 16.1202 6.81634H16.1203Z"/>
</mask>
<path d="M7.43471 24.9597C6.64514 24.82 5.96714 24.2479 5.66654 23.4676C5.57665 23.2343 5.55594 23.0822 5.55571 22.6542C5.55542 22.1307 5.56048 22.1069 5.79256 21.5437C5.8199 21.477 5.7872 21.4542 5.6245 21.4259C5.5133 21.4056 5.26754 21.3115 5.07834 21.2145C4.42967 20.8821 3.97926 20.2531 3.85403 19.5049C3.68794 18.5126 4.21819 17.4726 5.11039 17.0407C5.29877 16.9495 5.45862 16.8703 5.46558 16.8646C5.47259 16.8588 5.3905 15.8186 5.28325 14.5527C4.85942 9.54971 4.59796 6.43875 4.51888 5.458C4.47319 4.89156 4.41165 4.40481 4.38172 4.37357C4.35188 4.34239 3.64762 4.08571 2.81672 3.80332C1.0715 3.21002 1 3.16891 1 2.75887C1 2.46744 1.1274 2.28855 1.40079 2.1961C1.55395 2.14442 1.70595 2.18744 3.33868 2.75255C4.31311 3.08951 5.17266 3.39763 5.2488 3.4373C5.32494 3.47686 5.41602 3.58109 5.45122 3.66886C5.48642 3.75663 5.57163 4.503 5.64056 5.32738C5.70949 6.1518 5.78354 6.8427 5.80513 6.86274C5.82683 6.88295 6.62607 7.01605 7.58149 7.15888C10.1849 7.54813 11.9027 7.81413 11.99 7.84153C12.1349 7.88715 12.287 8.10397 12.3129 8.30241C12.3466 8.55937 12.2279 8.79563 12.0123 8.90098C11.8548 8.97807 11.7456 8.96595 9.45774 8.62179C8.14321 8.42402 6.80826 8.22114 6.49117 8.1709C6.17408 8.12067 5.90573 8.09439 5.89484 8.11229C5.87709 8.14174 5.96152 9.22921 5.98333 9.25155C5.99912 9.26888 23.8999 12.0592 23.9152 12.0479C23.9599 12.015 24.2139 10.8984 24.1827 10.8717C24.1621 10.8544 23.4958 10.7435 22.7018 10.626C20.2087 10.2568 19.6475 10.1662 19.5073 10.1106C19.2957 10.0266 19.1786 9.83835 19.1786 9.58214C19.1786 9.39447 19.2054 9.33066 19.345 9.1878C19.47 9.05961 19.5534 9.01746 19.6805 9.01746C19.7735 9.01746 20.8906 9.17481 22.163 9.36727C23.4353 9.55956 24.4923 9.70701 24.5117 9.69471C24.5311 9.68316 24.6211 9.3727 24.7115 9.00649C24.8947 8.26523 24.998 8.09837 25.3111 8.03821C25.5397 7.99432 25.7732 8.12684 25.9045 8.37514L26 8.55559L24.835 13.0605C24.1943 15.5382 23.6357 17.6255 23.5938 17.699C23.5518 17.7723 23.4606 17.861 23.391 17.8956C23.2912 17.9453 21.4301 17.96 14.5527 17.9655L5.84085 17.9713L5.61014 18.0856C5.14095 18.3183 4.87429 18.8678 4.98487 19.3741C5.06211 19.7277 5.27458 20.0152 5.57319 20.1702L5.8167 20.2967H14.5088C22.4523 20.2967 23.2154 20.3025 23.3694 20.3787C23.75 20.5638 23.791 21.1439 23.4405 21.3857C23.3359 21.4579 23.1737 21.4766 22.5184 21.4916C22.081 21.5032 21.7232 21.5176 21.7232 21.5237C21.7232 21.5323 21.7726 21.6472 21.8329 21.7818C21.9279 21.9934 21.9427 22.1104 21.943 22.653C21.9434 23.2737 21.9417 23.2832 21.7631 23.6574C21.2115 24.8133 19.8757 25.3028 18.7608 24.7577C17.6116 24.1958 17.1619 22.87 17.6853 21.5876C17.7193 21.5045 17.5135 21.4999 13.7584 21.4999H9.79565L9.90567 21.8132C10.1364 22.4706 10.1059 23.0709 9.81059 23.6845C9.48973 24.351 8.83605 24.8433 8.11981 24.9577C7.76745 25.014 7.74846 25.014 7.43475 24.9584L7.43471 24.9597ZM8.32132 23.6672C9.08046 23.2609 9.12795 22.1551 8.40724 21.6664C8.17143 21.5065 7.70287 21.4522 7.41088 21.551C6.62232 21.8177 6.41268 22.9795 7.05333 23.5327C7.42224 23.8513 7.88556 23.9004 8.32131 23.6673L8.32132 23.6672ZM20.1818 23.7137C20.4255 23.6 20.7134 23.2787 20.793 23.0314C20.9624 22.5056 20.7271 21.8906 20.2611 21.6412C19.3503 21.1537 18.3634 21.9864 18.6405 23.0084C18.7064 23.2515 19.008 23.6004 19.2493 23.7127C19.5062 23.8322 19.9268 23.8328 20.1818 23.7134V23.7137ZM22.7205 16.7007C22.7344 16.6525 22.9139 15.9587 23.1194 15.1591C23.3248 14.3594 23.524 13.5942 23.5621 13.4585C23.6001 13.3228 23.6258 13.2067 23.6192 13.2004C23.6093 13.1917 17.9107 12.2969 12.7684 11.498C12.1629 11.4039 10.9408 11.2133 10.0526 11.0743C6.84264 10.572 6.10722 10.4614 6.09088 10.4789C6.08186 10.4876 6.19255 11.8842 6.33715 13.58C6.48174 15.2758 6.60069 16.6915 6.60145 16.7259C6.60257 16.7759 8.24546 16.7886 14.649 16.7886C22.2698 16.7886 22.6966 16.7828 22.7205 16.7008V16.7007ZM15.3619 9.06867C13.957 8.68606 12.8422 7.55445 12.469 6.13199C12.3219 5.57121 12.3222 4.64187 12.4697 4.07939C12.6826 3.26785 13.0304 2.6795 13.6512 2.08118C14.2902 1.46532 15.1442 1.08352 16.0412 1.01264C16.3574 0.986649 16.4508 0.998194 16.5718 1.07124C16.8697 1.25169 16.9578 1.58961 16.7833 1.88284C16.658 2.09331 16.579 2.12969 16.1554 2.17098C14.6175 2.32111 13.4962 3.53261 13.4844 5.05699C13.4779 5.90023 13.7457 6.56743 14.3283 7.1596C16.041 8.90032 18.8574 7.84661 19.1343 5.36148C19.1935 4.83026 19.2325 4.73204 19.4345 4.60587C19.6376 4.47912 19.7967 4.47941 20.0012 4.60732C20.2615 4.76987 20.3228 4.98872 20.2603 5.53197C20.0698 7.18735 18.9989 8.51205 17.4415 9.01907C16.9377 9.18307 15.8747 9.20847 15.3619 9.06874L15.3619 9.06867ZM16.1203 6.81634C16.0665 6.79324 15.9674 6.71182 15.9001 6.63791C15.7962 6.52358 15.7741 6.44158 15.7533 6.09347L15.7288 5.68369L15.321 5.6577C14.9356 5.6346 14.9052 5.62363 14.7705 5.46888C14.6602 5.34242 14.6278 5.25667 14.6278 5.0915C14.6278 4.68671 14.8685 4.50459 15.4033 4.50459H15.7433L15.7604 4.07434C15.7771 3.66129 15.7841 3.63825 15.9375 3.49779C16.1205 3.33033 16.3551 3.30492 16.5867 3.42763C16.7968 3.53907 16.8787 3.74182 16.8787 4.15125V4.50467H17.1983C17.592 4.50467 17.8268 4.59937 17.9275 4.79905C18.0495 5.04071 18.0259 5.28026 17.8615 5.46897C17.7268 5.62372 17.6964 5.63412 17.311 5.65779L16.9032 5.68378L16.8786 6.09662C16.8564 6.47406 16.8414 6.52257 16.7049 6.66217C16.5462 6.82471 16.2896 6.89227 16.1202 6.81634H16.1203Z" fill="#3CB043"/>
<path d="M7.43471 24.9597C6.64514 24.82 5.96714 24.2479 5.66654 23.4676C5.57665 23.2343 5.55594 23.0822 5.55571 22.6542C5.55542 22.1307 5.56048 22.1069 5.79256 21.5437C5.8199 21.477 5.7872 21.4542 5.6245 21.4259C5.5133 21.4056 5.26754 21.3115 5.07834 21.2145C4.42967 20.8821 3.97926 20.2531 3.85403 19.5049C3.68794 18.5126 4.21819 17.4726 5.11039 17.0407C5.29877 16.9495 5.45862 16.8703 5.46558 16.8646C5.47259 16.8588 5.3905 15.8186 5.28325 14.5527C4.85942 9.54971 4.59796 6.43875 4.51888 5.458C4.47319 4.89156 4.41165 4.40481 4.38172 4.37357C4.35188 4.34239 3.64762 4.08571 2.81672 3.80332C1.0715 3.21002 1 3.16891 1 2.75887C1 2.46744 1.1274 2.28855 1.40079 2.1961C1.55395 2.14442 1.70595 2.18744 3.33868 2.75255C4.31311 3.08951 5.17266 3.39763 5.2488 3.4373C5.32494 3.47686 5.41602 3.58109 5.45122 3.66886C5.48642 3.75663 5.57163 4.503 5.64056 5.32738C5.70949 6.1518 5.78354 6.8427 5.80513 6.86274C5.82683 6.88295 6.62607 7.01605 7.58149 7.15888C10.1849 7.54813 11.9027 7.81413 11.99 7.84153C12.1349 7.88715 12.287 8.10397 12.3129 8.30241C12.3466 8.55937 12.2279 8.79563 12.0123 8.90098C11.8548 8.97807 11.7456 8.96595 9.45774 8.62179C8.14321 8.42402 6.80826 8.22114 6.49117 8.1709C6.17408 8.12067 5.90573 8.09439 5.89484 8.11229C5.87709 8.14174 5.96152 9.22921 5.98333 9.25155C5.99912 9.26888 23.8999 12.0592 23.9152 12.0479C23.9599 12.015 24.2139 10.8984 24.1827 10.8717C24.1621 10.8544 23.4958 10.7435 22.7018 10.626C20.2087 10.2568 19.6475 10.1662 19.5073 10.1106C19.2957 10.0266 19.1786 9.83835 19.1786 9.58214C19.1786 9.39447 19.2054 9.33066 19.345 9.1878C19.47 9.05961 19.5534 9.01746 19.6805 9.01746C19.7735 9.01746 20.8906 9.17481 22.163 9.36727C23.4353 9.55956 24.4923 9.70701 24.5117 9.69471C24.5311 9.68316 24.6211 9.3727 24.7115 9.00649C24.8947 8.26523 24.998 8.09837 25.3111 8.03821C25.5397 7.99432 25.7732 8.12684 25.9045 8.37514L26 8.55559L24.835 13.0605C24.1943 15.5382 23.6357 17.6255 23.5938 17.699C23.5518 17.7723 23.4606 17.861 23.391 17.8956C23.2912 17.9453 21.4301 17.96 14.5527 17.9655L5.84085 17.9713L5.61014 18.0856C5.14095 18.3183 4.87429 18.8678 4.98487 19.3741C5.06211 19.7277 5.27458 20.0152 5.57319 20.1702L5.8167 20.2967H14.5088C22.4523 20.2967 23.2154 20.3025 23.3694 20.3787C23.75 20.5638 23.791 21.1439 23.4405 21.3857C23.3359 21.4579 23.1737 21.4766 22.5184 21.4916C22.081 21.5032 21.7232 21.5176 21.7232 21.5237C21.7232 21.5323 21.7726 21.6472 21.8329 21.7818C21.9279 21.9934 21.9427 22.1104 21.943 22.653C21.9434 23.2737 21.9417 23.2832 21.7631 23.6574C21.2115 24.8133 19.8757 25.3028 18.7608 24.7577C17.6116 24.1958 17.1619 22.87 17.6853 21.5876C17.7193 21.5045 17.5135 21.4999 13.7584 21.4999H9.79565L9.90567 21.8132C10.1364 22.4706 10.1059 23.0709 9.81059 23.6845C9.48973 24.351 8.83605 24.8433 8.11981 24.9577C7.76745 25.014 7.74846 25.014 7.43475 24.9584L7.43471 24.9597ZM8.32132 23.6672C9.08046 23.2609 9.12795 22.1551 8.40724 21.6664C8.17143 21.5065 7.70287 21.4522 7.41088 21.551C6.62232 21.8177 6.41268 22.9795 7.05333 23.5327C7.42224 23.8513 7.88556 23.9004 8.32131 23.6673L8.32132 23.6672ZM20.1818 23.7137C20.4255 23.6 20.7134 23.2787 20.793 23.0314C20.9624 22.5056 20.7271 21.8906 20.2611 21.6412C19.3503 21.1537 18.3634 21.9864 18.6405 23.0084C18.7064 23.2515 19.008 23.6004 19.2493 23.7127C19.5062 23.8322 19.9268 23.8328 20.1818 23.7134V23.7137ZM22.7205 16.7007C22.7344 16.6525 22.9139 15.9587 23.1194 15.1591C23.3248 14.3594 23.524 13.5942 23.5621 13.4585C23.6001 13.3228 23.6258 13.2067 23.6192 13.2004C23.6093 13.1917 17.9107 12.2969 12.7684 11.498C12.1629 11.4039 10.9408 11.2133 10.0526 11.0743C6.84264 10.572 6.10722 10.4614 6.09088 10.4789C6.08186 10.4876 6.19255 11.8842 6.33715 13.58C6.48174 15.2758 6.60069 16.6915 6.60145 16.7259C6.60257 16.7759 8.24546 16.7886 14.649 16.7886C22.2698 16.7886 22.6966 16.7828 22.7205 16.7008V16.7007ZM15.3619 9.06867C13.957 8.68606 12.8422 7.55445 12.469 6.13199C12.3219 5.57121 12.3222 4.64187 12.4697 4.07939C12.6826 3.26785 13.0304 2.6795 13.6512 2.08118C14.2902 1.46532 15.1442 1.08352 16.0412 1.01264C16.3574 0.986649 16.4508 0.998194 16.5718 1.07124C16.8697 1.25169 16.9578 1.58961 16.7833 1.88284C16.658 2.09331 16.579 2.12969 16.1554 2.17098C14.6175 2.32111 13.4962 3.53261 13.4844 5.05699C13.4779 5.90023 13.7457 6.56743 14.3283 7.1596C16.041 8.90032 18.8574 7.84661 19.1343 5.36148C19.1935 4.83026 19.2325 4.73204 19.4345 4.60587C19.6376 4.47912 19.7967 4.47941 20.0012 4.60732C20.2615 4.76987 20.3228 4.98872 20.2603 5.53197C20.0698 7.18735 18.9989 8.51205 17.4415 9.01907C16.9377 9.18307 15.8747 9.20847 15.3619 9.06874L15.3619 9.06867ZM16.1203 6.81634C16.0665 6.79324 15.9674 6.71182 15.9001 6.63791C15.7962 6.52358 15.7741 6.44158 15.7533 6.09347L15.7288 5.68369L15.321 5.6577C14.9356 5.6346 14.9052 5.62363 14.7705 5.46888C14.6602 5.34242 14.6278 5.25667 14.6278 5.0915C14.6278 4.68671 14.8685 4.50459 15.4033 4.50459H15.7433L15.7604 4.07434C15.7771 3.66129 15.7841 3.63825 15.9375 3.49779C16.1205 3.33033 16.3551 3.30492 16.5867 3.42763C16.7968 3.53907 16.8787 3.74182 16.8787 4.15125V4.50467H17.1983C17.592 4.50467 17.8268 4.59937 17.9275 4.79905C18.0495 5.04071 18.0259 5.28026 17.8615 5.46897C17.7268 5.62372 17.6964 5.63412 17.311 5.65779L16.9032 5.68378L16.8786 6.09662C16.8564 6.47406 16.8414 6.52257 16.7049 6.66217C16.5462 6.82471 16.2896 6.89227 16.1202 6.81634H16.1203Z" stroke="#3CB043" mask="url(#path-1-outside-1_348:1423)"/>
</svg>
