<svg width="63" height="60" viewBox="0 0 63 60" fill="none" xmlns="http://www.w3.org/2000/svg">
<mask id="path-1-outside-1_348:1422" maskUnits="userSpaceOnUse" x="0" y="0" width="63" height="60" fill="black">
<rect fill="white" width="63" height="60"/>
<path d="M16.7007 58.9027C14.7742 58.565 13.1198 57.1825 12.3864 55.2966C12.167 54.7329 12.1165 54.3652 12.1159 53.3309C12.1152 52.0658 12.1276 52.0083 12.6939 50.6472C12.7606 50.486 12.6808 50.4309 12.2838 50.3625C12.0125 50.3137 11.4128 50.0862 10.9512 49.8517C9.3684 49.0483 8.26939 47.5283 7.96384 45.7202C7.55857 43.3222 8.85238 40.8088 11.0293 39.765C11.489 39.5445 11.879 39.3533 11.896 39.3394C11.9131 39.3254 11.7128 36.8116 11.4511 33.7524C10.417 21.6618 9.77902 14.1436 9.58606 11.7735C9.47459 10.4046 9.32443 9.22829 9.2514 9.15279C9.1786 9.07743 7.46019 8.45714 5.43279 7.77468C1.17447 6.34089 1 6.24154 1 5.25061C1 4.54631 1.31087 4.11399 1.97792 3.89057C2.35163 3.76568 2.72251 3.86964 6.70638 5.23533C9.08399 6.04966 11.1813 6.79428 11.3671 6.89015C11.5529 6.98574 11.7751 7.23763 11.861 7.44975C11.9469 7.66186 12.1548 9.46559 12.323 11.4578C12.4911 13.4502 12.6718 15.1199 12.7245 15.1683C12.7775 15.2171 14.7276 15.5388 17.0588 15.884C23.4113 16.8247 27.6025 17.4675 27.8155 17.5337C28.1691 17.6439 28.5402 18.1679 28.6035 18.6475C28.6856 19.2685 28.3961 19.8394 27.8699 20.094C27.4857 20.2803 27.2192 20.251 21.6369 19.4193C18.4294 18.9414 15.1722 18.4511 14.3984 18.3297C13.6247 18.2083 12.97 18.1448 12.9434 18.188C12.9001 18.2592 13.1061 20.8872 13.1593 20.9413C13.1978 20.9831 56.8758 27.7264 56.9132 27.6992C57.0222 27.6197 57.6419 24.9211 57.5658 24.8566C57.5156 24.8147 55.8897 24.5468 53.9524 24.2628C47.8691 23.3705 46.4998 23.1517 46.1578 23.0173C45.6415 22.8143 45.3559 22.3593 45.3559 21.7402C45.3559 21.2866 45.4212 21.1324 45.7618 20.7872C46.0669 20.4774 46.2704 20.3755 46.5803 20.3755C46.8073 20.3755 49.533 20.7558 52.6376 21.2209C55.7422 21.6856 58.3212 22.0419 58.3686 22.0122C58.416 21.9843 58.6354 21.234 58.8561 20.349C59.303 18.5576 59.5551 18.1544 60.3192 18.009C60.8768 17.9029 61.4466 18.2232 61.7671 18.8233L62 19.2593L59.1574 30.1462C57.594 36.1339 56.2311 41.1783 56.1288 41.3559C56.0265 41.5331 55.8038 41.7473 55.6341 41.831C55.3905 41.951 50.8495 41.9866 34.0686 41.9999L12.8117 42.0139L12.2487 42.2902C11.1039 42.8526 10.4533 44.1805 10.7231 45.404C10.9116 46.2585 11.43 46.9534 12.1586 47.3281L12.7527 47.6337H33.9614C53.3437 47.6337 55.2055 47.6477 55.5814 47.8319C56.51 48.2791 56.61 49.6811 55.7549 50.2654C55.4995 50.4398 55.1038 50.4852 53.5048 50.5214C52.4377 50.5494 51.5646 50.5842 51.5646 50.5989C51.5646 50.6198 51.685 50.8975 51.8323 51.2227C52.064 51.7341 52.1001 52.0168 52.1009 53.328C52.1019 54.8282 52.0976 54.8511 51.662 55.7555C50.3161 58.5487 47.0566 59.7317 44.3363 58.4143C41.5323 57.0564 40.4349 53.8525 41.7122 50.7534C41.795 50.5525 41.2929 50.5413 32.1305 50.5413H22.4614L22.7298 51.2986C23.2929 52.8873 23.2185 54.338 22.4978 55.8208C21.7149 57.4316 20.12 58.6212 18.3723 58.8977C17.5126 59.0338 17.4662 59.0338 16.7008 58.8995L16.7007 58.9027ZM18.864 55.7791C20.7163 54.7972 20.8322 52.1248 19.0737 50.9439C18.4983 50.5574 17.355 50.4262 16.6426 50.6648C14.7185 51.3095 14.2069 54.1172 15.7701 55.454C16.6703 56.2239 17.8008 56.3426 18.864 55.7792L18.864 55.7791ZM47.8035 55.8915C48.3983 55.6165 49.1007 54.8401 49.295 54.2426C49.7083 52.9719 49.134 51.4856 47.997 50.8828C45.7748 49.7047 43.3666 51.717 44.0427 54.1869C44.2036 54.7744 44.9396 55.6176 45.5283 55.889C46.1551 56.1779 47.1814 56.1793 47.8035 55.8907V55.8915ZM53.9981 38.9434C54.0318 38.8268 54.47 37.1502 54.9713 35.2178C55.4726 33.2853 55.9586 31.4359 56.0514 31.1081C56.1442 30.7801 56.2069 30.4996 56.1908 30.4843C56.1667 30.4634 42.2621 28.3008 29.715 26.3702C28.2374 26.1427 25.2555 25.6822 23.0884 25.3462C15.256 24.1322 13.4616 23.8651 13.4217 23.9074C13.3997 23.9283 13.6698 27.3035 14.0226 31.4016C14.3754 35.4998 14.6657 38.921 14.6675 39.0043C14.6703 39.125 18.6789 39.1558 34.3037 39.1558C52.8983 39.1558 53.9396 39.1417 53.9981 38.9436V38.9434ZM36.043 20.4993C32.615 19.5746 29.8951 16.8399 28.9844 13.4023C28.6254 12.0471 28.6262 9.80119 28.9861 8.44185C29.5054 6.48065 30.3543 5.05879 31.8689 3.61286C33.4281 2.12451 35.5118 1.20183 37.7006 1.03054C38.472 0.967735 38.6999 0.995636 38.9952 1.17216C39.7221 1.60825 39.9371 2.42489 39.5113 3.13352C39.2056 3.64217 39.0127 3.73009 37.9791 3.82986C34.2267 4.19269 31.4907 7.12047 31.462 10.8044C31.4462 12.8422 32.0995 14.4546 33.5211 15.8857C37.6999 20.0924 44.5721 17.546 45.2477 11.5402C45.3921 10.2565 45.4874 10.0191 45.9802 9.71418C46.4758 9.40787 46.864 9.40857 47.3629 9.71768C47.9981 10.1105 48.1477 10.6394 47.9952 11.9523C47.5302 15.9528 44.9174 19.1541 41.1173 20.3794C39.8879 20.7757 37.2943 20.8371 36.0429 20.4994L36.043 20.4993ZM37.8936 15.0561C37.7623 15.0003 37.5205 14.8036 37.3563 14.6249C37.1028 14.3486 37.0488 14.1505 36.9981 13.3092L36.9383 12.3189L35.9431 12.2561C35.0029 12.2003 34.9287 12.1738 34.5999 11.7998C34.3309 11.4942 34.2519 11.287 34.2519 10.8878C34.2519 9.90955 34.8391 9.46941 36.1441 9.46941H36.9735L37.0155 8.42964C37.056 7.43146 37.0732 7.37577 37.4475 7.03632C37.894 6.63163 38.4665 6.57022 39.0315 6.86677C39.5443 7.1361 39.744 7.62605 39.744 8.61552V9.46963H40.5239C41.4844 9.46963 42.0573 9.69848 42.3031 10.181C42.6008 10.765 42.5433 11.344 42.1421 11.8C41.8133 12.174 41.7392 12.1991 40.7989 12.2563L39.8037 12.3191L39.7439 13.3168C39.6896 14.229 39.653 14.3462 39.32 14.6836C38.9327 15.0764 38.3067 15.2397 37.8932 15.0561H37.8936Z"/>
</mask>
<path d="M16.7007 58.9027C14.7742 58.565 13.1198 57.1825 12.3864 55.2966C12.167 54.7329 12.1165 54.3652 12.1159 53.3309C12.1152 52.0658 12.1276 52.0083 12.6939 50.6472C12.7606 50.486 12.6808 50.4309 12.2838 50.3625C12.0125 50.3137 11.4128 50.0862 10.9512 49.8517C9.3684 49.0483 8.26939 47.5283 7.96384 45.7202C7.55857 43.3222 8.85238 40.8088 11.0293 39.765C11.489 39.5445 11.879 39.3533 11.896 39.3394C11.9131 39.3254 11.7128 36.8116 11.4511 33.7524C10.417 21.6618 9.77902 14.1436 9.58606 11.7735C9.47459 10.4046 9.32443 9.22829 9.2514 9.15279C9.1786 9.07743 7.46019 8.45714 5.43279 7.77468C1.17447 6.34089 1 6.24154 1 5.25061C1 4.54631 1.31087 4.11399 1.97792 3.89057C2.35163 3.76568 2.72251 3.86964 6.70638 5.23533C9.08399 6.04966 11.1813 6.79428 11.3671 6.89015C11.5529 6.98574 11.7751 7.23763 11.861 7.44975C11.9469 7.66186 12.1548 9.46559 12.323 11.4578C12.4911 13.4502 12.6718 15.1199 12.7245 15.1683C12.7775 15.2171 14.7276 15.5388 17.0588 15.884C23.4113 16.8247 27.6025 17.4675 27.8155 17.5337C28.1691 17.6439 28.5402 18.1679 28.6035 18.6475C28.6856 19.2685 28.3961 19.8394 27.8699 20.094C27.4857 20.2803 27.2192 20.251 21.6369 19.4193C18.4294 18.9414 15.1722 18.4511 14.3984 18.3297C13.6247 18.2083 12.97 18.1448 12.9434 18.188C12.9001 18.2592 13.1061 20.8872 13.1593 20.9413C13.1978 20.9831 56.8758 27.7264 56.9132 27.6992C57.0222 27.6197 57.6419 24.9211 57.5658 24.8566C57.5156 24.8147 55.8897 24.5468 53.9524 24.2628C47.8691 23.3705 46.4998 23.1517 46.1578 23.0173C45.6415 22.8143 45.3559 22.3593 45.3559 21.7402C45.3559 21.2866 45.4212 21.1324 45.7618 20.7872C46.0669 20.4774 46.2704 20.3755 46.5803 20.3755C46.8073 20.3755 49.533 20.7558 52.6376 21.2209C55.7422 21.6856 58.3212 22.0419 58.3686 22.0122C58.416 21.9843 58.6354 21.234 58.8561 20.349C59.303 18.5576 59.5551 18.1544 60.3192 18.009C60.8768 17.9029 61.4466 18.2232 61.7671 18.8233L62 19.2593L59.1574 30.1462C57.594 36.1339 56.2311 41.1783 56.1288 41.3559C56.0265 41.5331 55.8038 41.7473 55.6341 41.831C55.3905 41.951 50.8495 41.9866 34.0686 41.9999L12.8117 42.0139L12.2487 42.2902C11.1039 42.8526 10.4533 44.1805 10.7231 45.404C10.9116 46.2585 11.43 46.9534 12.1586 47.3281L12.7527 47.6337H33.9614C53.3437 47.6337 55.2055 47.6477 55.5814 47.8319C56.51 48.2791 56.61 49.6811 55.7549 50.2654C55.4995 50.4398 55.1038 50.4852 53.5048 50.5214C52.4377 50.5494 51.5646 50.5842 51.5646 50.5989C51.5646 50.6198 51.685 50.8975 51.8323 51.2227C52.064 51.7341 52.1001 52.0168 52.1009 53.328C52.1019 54.8282 52.0976 54.8511 51.662 55.7555C50.3161 58.5487 47.0566 59.7317 44.3363 58.4143C41.5323 57.0564 40.4349 53.8525 41.7122 50.7534C41.795 50.5525 41.2929 50.5413 32.1305 50.5413H22.4614L22.7298 51.2986C23.2929 52.8873 23.2185 54.338 22.4978 55.8208C21.7149 57.4316 20.12 58.6212 18.3723 58.8977C17.5126 59.0338 17.4662 59.0338 16.7008 58.8995L16.7007 58.9027ZM18.864 55.7791C20.7163 54.7972 20.8322 52.1248 19.0737 50.9439C18.4983 50.5574 17.355 50.4262 16.6426 50.6648C14.7185 51.3095 14.2069 54.1172 15.7701 55.454C16.6703 56.2239 17.8008 56.3426 18.864 55.7792L18.864 55.7791ZM47.8035 55.8915C48.3983 55.6165 49.1007 54.8401 49.295 54.2426C49.7083 52.9719 49.134 51.4856 47.997 50.8828C45.7748 49.7047 43.3666 51.717 44.0427 54.1869C44.2036 54.7744 44.9396 55.6176 45.5283 55.889C46.1551 56.1779 47.1814 56.1793 47.8035 55.8907V55.8915ZM53.9981 38.9434C54.0318 38.8268 54.47 37.1502 54.9713 35.2178C55.4726 33.2853 55.9586 31.4359 56.0514 31.1081C56.1442 30.7801 56.2069 30.4996 56.1908 30.4843C56.1667 30.4634 42.2621 28.3008 29.715 26.3702C28.2374 26.1427 25.2555 25.6822 23.0884 25.3462C15.256 24.1322 13.4616 23.8651 13.4217 23.9074C13.3997 23.9283 13.6698 27.3035 14.0226 31.4016C14.3754 35.4998 14.6657 38.921 14.6675 39.0043C14.6703 39.125 18.6789 39.1558 34.3037 39.1558C52.8983 39.1558 53.9396 39.1417 53.9981 38.9436V38.9434ZM36.043 20.4993C32.615 19.5746 29.8951 16.8399 28.9844 13.4023C28.6254 12.0471 28.6262 9.80119 28.9861 8.44185C29.5054 6.48065 30.3543 5.05879 31.8689 3.61286C33.4281 2.12451 35.5118 1.20183 37.7006 1.03054C38.472 0.967735 38.6999 0.995636 38.9952 1.17216C39.7221 1.60825 39.9371 2.42489 39.5113 3.13352C39.2056 3.64217 39.0127 3.73009 37.9791 3.82986C34.2267 4.19269 31.4907 7.12047 31.462 10.8044C31.4462 12.8422 32.0995 14.4546 33.5211 15.8857C37.6999 20.0924 44.5721 17.546 45.2477 11.5402C45.3921 10.2565 45.4874 10.0191 45.9802 9.71418C46.4758 9.40787 46.864 9.40857 47.3629 9.71768C47.9981 10.1105 48.1477 10.6394 47.9952 11.9523C47.5302 15.9528 44.9174 19.1541 41.1173 20.3794C39.8879 20.7757 37.2943 20.8371 36.0429 20.4994L36.043 20.4993ZM37.8936 15.0561C37.7623 15.0003 37.5205 14.8036 37.3563 14.6249C37.1028 14.3486 37.0488 14.1505 36.9981 13.3092L36.9383 12.3189L35.9431 12.2561C35.0029 12.2003 34.9287 12.1738 34.5999 11.7998C34.3309 11.4942 34.2519 11.287 34.2519 10.8878C34.2519 9.90955 34.8391 9.46941 36.1441 9.46941H36.9735L37.0155 8.42964C37.056 7.43146 37.0732 7.37577 37.4475 7.03632C37.894 6.63163 38.4665 6.57022 39.0315 6.86677C39.5443 7.1361 39.744 7.62605 39.744 8.61552V9.46963H40.5239C41.4844 9.46963 42.0573 9.69848 42.3031 10.181C42.6008 10.765 42.5433 11.344 42.1421 11.8C41.8133 12.174 41.7392 12.1991 40.7989 12.2563L39.8037 12.3191L39.7439 13.3168C39.6896 14.229 39.653 14.3462 39.32 14.6836C38.9327 15.0764 38.3067 15.2397 37.8932 15.0561H37.8936Z" fill="white"/>
<path d="M16.7007 58.9027C14.7742 58.565 13.1198 57.1825 12.3864 55.2966C12.167 54.7329 12.1165 54.3652 12.1159 53.3309C12.1152 52.0658 12.1276 52.0083 12.6939 50.6472C12.7606 50.486 12.6808 50.4309 12.2838 50.3625C12.0125 50.3137 11.4128 50.0862 10.9512 49.8517C9.3684 49.0483 8.26939 47.5283 7.96384 45.7202C7.55857 43.3222 8.85238 40.8088 11.0293 39.765C11.489 39.5445 11.879 39.3533 11.896 39.3394C11.9131 39.3254 11.7128 36.8116 11.4511 33.7524C10.417 21.6618 9.77902 14.1436 9.58606 11.7735C9.47459 10.4046 9.32443 9.22829 9.2514 9.15279C9.1786 9.07743 7.46019 8.45714 5.43279 7.77468C1.17447 6.34089 1 6.24154 1 5.25061C1 4.54631 1.31087 4.11399 1.97792 3.89057C2.35163 3.76568 2.72251 3.86964 6.70638 5.23533C9.08399 6.04966 11.1813 6.79428 11.3671 6.89015C11.5529 6.98574 11.7751 7.23763 11.861 7.44975C11.9469 7.66186 12.1548 9.46559 12.323 11.4578C12.4911 13.4502 12.6718 15.1199 12.7245 15.1683C12.7775 15.2171 14.7276 15.5388 17.0588 15.884C23.4113 16.8247 27.6025 17.4675 27.8155 17.5337C28.1691 17.6439 28.5402 18.1679 28.6035 18.6475C28.6856 19.2685 28.3961 19.8394 27.8699 20.094C27.4857 20.2803 27.2192 20.251 21.6369 19.4193C18.4294 18.9414 15.1722 18.4511 14.3984 18.3297C13.6247 18.2083 12.97 18.1448 12.9434 18.188C12.9001 18.2592 13.1061 20.8872 13.1593 20.9413C13.1978 20.9831 56.8758 27.7264 56.9132 27.6992C57.0222 27.6197 57.6419 24.9211 57.5658 24.8566C57.5156 24.8147 55.8897 24.5468 53.9524 24.2628C47.8691 23.3705 46.4998 23.1517 46.1578 23.0173C45.6415 22.8143 45.3559 22.3593 45.3559 21.7402C45.3559 21.2866 45.4212 21.1324 45.7618 20.7872C46.0669 20.4774 46.2704 20.3755 46.5803 20.3755C46.8073 20.3755 49.533 20.7558 52.6376 21.2209C55.7422 21.6856 58.3212 22.0419 58.3686 22.0122C58.416 21.9843 58.6354 21.234 58.8561 20.349C59.303 18.5576 59.5551 18.1544 60.3192 18.009C60.8768 17.9029 61.4466 18.2232 61.7671 18.8233L62 19.2593L59.1574 30.1462C57.594 36.1339 56.2311 41.1783 56.1288 41.3559C56.0265 41.5331 55.8038 41.7473 55.6341 41.831C55.3905 41.951 50.8495 41.9866 34.0686 41.9999L12.8117 42.0139L12.2487 42.2902C11.1039 42.8526 10.4533 44.1805 10.7231 45.404C10.9116 46.2585 11.43 46.9534 12.1586 47.3281L12.7527 47.6337H33.9614C53.3437 47.6337 55.2055 47.6477 55.5814 47.8319C56.51 48.2791 56.61 49.6811 55.7549 50.2654C55.4995 50.4398 55.1038 50.4852 53.5048 50.5214C52.4377 50.5494 51.5646 50.5842 51.5646 50.5989C51.5646 50.6198 51.685 50.8975 51.8323 51.2227C52.064 51.7341 52.1001 52.0168 52.1009 53.328C52.1019 54.8282 52.0976 54.8511 51.662 55.7555C50.3161 58.5487 47.0566 59.7317 44.3363 58.4143C41.5323 57.0564 40.4349 53.8525 41.7122 50.7534C41.795 50.5525 41.2929 50.5413 32.1305 50.5413H22.4614L22.7298 51.2986C23.2929 52.8873 23.2185 54.338 22.4978 55.8208C21.7149 57.4316 20.12 58.6212 18.3723 58.8977C17.5126 59.0338 17.4662 59.0338 16.7008 58.8995L16.7007 58.9027ZM18.864 55.7791C20.7163 54.7972 20.8322 52.1248 19.0737 50.9439C18.4983 50.5574 17.355 50.4262 16.6426 50.6648C14.7185 51.3095 14.2069 54.1172 15.7701 55.454C16.6703 56.2239 17.8008 56.3426 18.864 55.7792L18.864 55.7791ZM47.8035 55.8915C48.3983 55.6165 49.1007 54.8401 49.295 54.2426C49.7083 52.9719 49.134 51.4856 47.997 50.8828C45.7748 49.7047 43.3666 51.717 44.0427 54.1869C44.2036 54.7744 44.9396 55.6176 45.5283 55.889C46.1551 56.1779 47.1814 56.1793 47.8035 55.8907V55.8915ZM53.9981 38.9434C54.0318 38.8268 54.47 37.1502 54.9713 35.2178C55.4726 33.2853 55.9586 31.4359 56.0514 31.1081C56.1442 30.7801 56.2069 30.4996 56.1908 30.4843C56.1667 30.4634 42.2621 28.3008 29.715 26.3702C28.2374 26.1427 25.2555 25.6822 23.0884 25.3462C15.256 24.1322 13.4616 23.8651 13.4217 23.9074C13.3997 23.9283 13.6698 27.3035 14.0226 31.4016C14.3754 35.4998 14.6657 38.921 14.6675 39.0043C14.6703 39.125 18.6789 39.1558 34.3037 39.1558C52.8983 39.1558 53.9396 39.1417 53.9981 38.9436V38.9434ZM36.043 20.4993C32.615 19.5746 29.8951 16.8399 28.9844 13.4023C28.6254 12.0471 28.6262 9.80119 28.9861 8.44185C29.5054 6.48065 30.3543 5.05879 31.8689 3.61286C33.4281 2.12451 35.5118 1.20183 37.7006 1.03054C38.472 0.967735 38.6999 0.995636 38.9952 1.17216C39.7221 1.60825 39.9371 2.42489 39.5113 3.13352C39.2056 3.64217 39.0127 3.73009 37.9791 3.82986C34.2267 4.19269 31.4907 7.12047 31.462 10.8044C31.4462 12.8422 32.0995 14.4546 33.5211 15.8857C37.6999 20.0924 44.5721 17.546 45.2477 11.5402C45.3921 10.2565 45.4874 10.0191 45.9802 9.71418C46.4758 9.40787 46.864 9.40857 47.3629 9.71768C47.9981 10.1105 48.1477 10.6394 47.9952 11.9523C47.5302 15.9528 44.9174 19.1541 41.1173 20.3794C39.8879 20.7757 37.2943 20.8371 36.0429 20.4994L36.043 20.4993ZM37.8936 15.0561C37.7623 15.0003 37.5205 14.8036 37.3563 14.6249C37.1028 14.3486 37.0488 14.1505 36.9981 13.3092L36.9383 12.3189L35.9431 12.2561C35.0029 12.2003 34.9287 12.1738 34.5999 11.7998C34.3309 11.4942 34.2519 11.287 34.2519 10.8878C34.2519 9.90955 34.8391 9.46941 36.1441 9.46941H36.9735L37.0155 8.42964C37.056 7.43146 37.0732 7.37577 37.4475 7.03632C37.894 6.63163 38.4665 6.57022 39.0315 6.86677C39.5443 7.1361 39.744 7.62605 39.744 8.61552V9.46963H40.5239C41.4844 9.46963 42.0573 9.69848 42.3031 10.181C42.6008 10.765 42.5433 11.344 42.1421 11.8C41.8133 12.174 41.7392 12.1991 40.7989 12.2563L39.8037 12.3191L39.7439 13.3168C39.6896 14.229 39.653 14.3462 39.32 14.6836C38.9327 15.0764 38.3067 15.2397 37.8932 15.0561H37.8936Z" stroke="#313131" mask="url(#path-1-outside-1_348:1422)"/>
</svg>
