<svg width="30" height="22" viewBox="0 0 30 22" fill="none" xmlns="http://www.w3.org/2000/svg">
<path d="M8.28357 0.00021528C4.79717 -0.00243411 2.21066 0.0194896 2.00249 0.059396C1.39566 0.175489 0.636025 0.819075 0.268407 1.52865C0.0298392 1.98908 7.78402e-07 2.6675 7.78402e-07 7.59424C7.78402e-07 13.7937 -0.00631404 13.7537 1.11862 14.6605C1.58462 15.036 1.88583 15.1318 2.76394 15.1844L3.8391 15.2488V16.3813C3.8391 17.7168 4.03865 18.2676 4.61402 18.5194C5.2557 18.8003 5.64299 18.5505 7.28339 16.7982C8.53213 15.4642 8.84708 15.2112 9.25987 15.2112C9.72619 15.2112 9.7559 15.2506 9.85177 15.9897C9.97607 16.948 10.4681 17.735 11.2226 18.1831C11.7644 18.5049 12.0447 18.523 16.4658 18.523H21.1371L22.8066 20.2616C24.5966 22.1256 24.93 22.2927 25.6418 21.6837C25.9688 21.4039 26.0181 21.2021 26.0669 19.945L26.1223 18.523H27.1017C28.1639 18.523 28.832 18.1846 29.4161 17.3509C29.9239 16.6262 30 15.784 30 10.906C30 6.02317 29.9237 5.18348 29.4139 4.46071C28.7615 3.53571 28.2528 3.37873 25.6201 3.28899L23.1913 3.20619L23.1059 2.42192C23.0149 1.58511 22.6554 0.9533 21.9558 0.401234C21.5316 0.0662844 21.3373 0.0587668 12.0152 0.0112102C10.7079 0.00458677 9.4457 0.00110945 8.28357 0.000281515V0.00021528ZM2.24794 1.30226H11.5956H20.9433L21.4012 1.78642L21.8594 2.27023V7.57257V12.8749L21.4811 13.3397L21.1031 13.8041L14.6255 13.85L8.14829 13.8962L6.69884 15.4198L5.24938 16.9438V15.4153V13.8869H3.74851C2.29878 13.8869 2.23227 13.8706 1.78978 13.403L1.33193 12.9189V7.59456V2.27023L1.78978 1.78642L2.24794 1.30226ZM23.1913 4.69647H25.5164H27.8414L28.2194 5.16121L28.5974 5.62563V10.928V16.2303L28.1392 16.7145C27.697 17.1816 27.6295 17.1983 26.1863 17.1983H24.6916L24.6466 18.6928L24.6016 20.1873L23.1944 18.6928L21.7874 17.1983H16.9221C11.5279 17.1983 11.5409 17.2008 11.2048 16.1249C11.1059 15.8081 11.0694 15.4729 11.1237 15.3801C11.1874 15.2713 12.9725 15.2112 16.1552 15.2112C20.7601 15.2112 21.1287 15.1896 21.6956 14.8839C22.0297 14.7039 22.4677 14.3126 22.6689 14.0146C23.0245 13.4877 23.0368 13.3513 23.1129 9.08453L23.1913 4.69647ZM16.6871 5.201C15.0991 5.19719 14.0245 6.25753 14.0245 7.8284C14.0245 9.59289 15.0721 10.6187 16.7942 10.5399C17.3266 10.5155 17.8145 10.5508 17.8783 10.6181C17.942 10.6856 18.0772 10.7404 18.1788 10.7404C18.4411 10.7404 18.9308 10.1299 18.8203 9.94092C18.7694 9.85399 18.8757 9.42948 19.0565 8.99753C19.8544 7.09165 18.6774 5.20726 16.6871 5.201V5.201ZM4.46589 5.27603V7.92542V10.5748H5.09268H5.71947V9.49849V8.42218H6.89471H8.06994V7.84262V7.26307H6.8843H5.69866L5.74824 6.80771C5.79705 6.35966 5.81684 6.3514 7.01223 6.30383L8.22664 6.25564V5.766V5.27603H6.34627H4.46589ZM10.201 5.35882L9.29965 7.84262C8.80386 9.2087 8.39483 10.3823 8.39068 10.4506C8.38661 10.5192 8.66692 10.5748 9.0135 10.5748C9.5336 10.5748 9.67476 10.5025 9.82208 10.1608C9.98654 9.77944 10.0829 9.74687 11.0472 9.74687C12.0115 9.74687 12.1079 9.77944 12.2723 10.1608C12.4203 10.5042 12.5599 10.5748 13.0913 10.5748C13.6315 10.5748 13.718 10.5294 13.6416 10.285C13.5918 10.1256 13.1725 8.95206 12.71 7.67704L11.8693 5.35882H11.035H10.201ZM16.5442 6.32744C17.4329 6.26264 18.2285 7.23812 17.9998 8.20129C17.9106 8.57654 17.8856 8.58536 17.623 8.3342C17.3631 8.08556 17.3106 8.0865 16.9365 8.34546C16.5061 8.64349 16.4336 8.83532 16.6883 9.00167C16.7745 9.058 16.845 9.17407 16.845 9.25975C16.845 9.57493 16.0355 9.40333 15.6624 9.00912C14.8954 8.19852 15.3196 6.59698 16.3654 6.35423C16.4252 6.34032 16.4849 6.33138 16.5442 6.32706V6.32744ZM11.0472 6.60104C11.0903 6.60099 11.2737 7.04782 11.4549 7.59424L11.7845 8.58776H11.0347H10.2848L10.627 7.59456C10.8151 7.0482 11.0041 6.6011 11.0472 6.60104Z" fill="#313131"/>
</svg>
