<svg width="53" height="53" viewBox="0 0 53 53" fill="none" xmlns="http://www.w3.org/2000/svg">
<rect width="53" height="53" rx="15" fill="#313131"/>
<mask id="path-2-outside-1" maskUnits="userSpaceOnUse" x="11" y="11.875" width="32" height="28" fill="black">
<rect fill="white" x="11" y="11.875" width="32" height="28"/>
<path d="M13.2729 39.0289C12.8555 38.8796 12.4538 38.5232 12.217 38.0921L12 37.6971V27.3369V16.9766L12.1606 16.6727C12.3779 16.2618 12.72 15.9288 13.1212 15.7378C13.4086 15.6009 13.5589 15.5748 14.211 15.5488L14.9675 15.5182L15.3625 14.6663C15.8607 13.592 15.9815 13.4001 16.2933 13.1876C16.7525 12.8747 16.749 12.875 20.0285 12.875C23.4938 12.875 23.4668 12.8722 23.9247 13.3214C24.1241 13.5172 24.2822 13.7953 24.6288 14.5605L25.0758 15.5473L32.8107 15.5641L40.5455 15.5809L40.8788 15.7397C41.2801 15.9306 41.6222 16.2637 41.8394 16.6746L42 16.9785V27.3388V37.6991L41.783 38.094C41.6394 38.3553 41.4652 38.5658 41.2678 38.7162C40.6821 39.1625 41.9116 39.1275 26.9739 39.1222C15.4814 39.1194 13.4795 39.1054 13.2725 39.0306L13.2729 39.0289ZM40.4393 38.1202C40.5619 38.0687 40.7139 37.9799 40.7769 37.9228C41.0786 37.6489 41.0637 38.198 41.0615 27.4203C41.0594 17.7736 41.0559 17.3451 40.9475 17.1052C40.8861 16.9677 40.7791 16.8045 40.7098 16.7428C40.3904 16.4586 40.5964 16.4656 32.3276 16.4626C24.9838 16.4601 24.5284 16.4542 24.4384 16.3537C24.3859 16.2952 24.1459 15.7962 23.9052 15.2448C23.6645 14.6933 23.4289 14.183 23.3818 14.1107C23.1737 13.7917 23.1186 13.7864 20.003 13.7864C16.9501 13.7864 16.9357 13.7876 16.6888 14.0688C16.6343 14.1307 16.3781 14.6677 16.1192 15.2621C15.8603 15.8564 15.6184 16.3623 15.5818 16.3862C15.5452 16.4114 15.0924 16.4433 14.5758 16.4601C13.5132 16.4946 13.316 16.5635 13.0485 16.9949L12.9092 17.2198L12.8924 27.2063C12.8812 33.8223 12.898 37.2702 12.9379 37.422C13.0223 37.7358 13.2156 37.9648 13.5094 38.0986C13.7477 38.2069 14.2389 38.2111 26.9858 38.2125C38.7558 38.2137 40.2397 38.2041 40.4382 38.1204L40.4393 38.1202ZM21.8789 36.0939C21.0526 35.8763 20.4782 35.0992 20.5227 34.2587L20.5394 33.9508L19.7422 33.5057C19.0568 33.123 18.9346 33.0732 18.8706 33.1505C18.8295 33.2001 18.658 33.3127 18.4893 33.4009C18.2432 33.5297 18.0985 33.5613 17.7582 33.5616C17.2239 33.5621 16.8675 33.4084 16.4924 33.0158C15.6788 32.1644 15.97 30.7524 17.0612 30.2582C17.4723 30.072 18.0956 30.0854 18.5034 30.2893C18.6763 30.3758 18.8422 30.4371 18.8719 30.4259C18.9015 30.4147 19.3051 30.1324 19.7684 29.7985L20.611 29.1916L20.6089 28.6137C20.6064 27.9324 20.7013 27.6994 21.1507 27.284C21.5309 26.9327 21.7915 26.8298 22.3037 26.8288C22.829 26.828 23.2312 27.0148 23.5945 27.4286C24.1675 28.0812 24.1718 29.0183 23.6057 29.6641C23.0793 30.2636 22.2638 30.4412 21.579 30.1052C21.3874 30.0111 21.213 29.9616 21.1689 29.9884C21.1268 30.0137 20.7173 30.3048 20.2588 30.6343C19.4675 31.203 19.4276 31.2417 19.4707 31.3967C19.4958 31.4866 19.5134 31.7127 19.5101 31.8991L19.5045 32.2382L20.2831 32.6773L21.0618 33.1164L21.2744 32.954C21.9506 32.4369 22.9601 32.5341 23.5017 33.1685C23.8246 33.5467 23.9336 33.8155 23.9603 34.2994C23.9799 34.6451 23.9578 34.791 23.8503 35.0416C23.7008 35.3899 23.2383 35.8628 22.9145 35.9985C22.6547 36.1074 22.1194 36.157 21.881 36.094L21.8789 36.0939ZM22.7176 35.0107C22.9374 34.8995 23.1452 34.4504 23.091 34.2031C23.0136 33.8499 22.6408 33.5348 22.3002 33.5348C21.8563 33.5348 21.4372 34.0059 21.5055 34.4279C21.5555 34.7368 21.7021 34.9269 21.9897 35.0562C22.2528 35.1744 22.4133 35.1646 22.7176 35.0106V35.0107ZM18.0475 32.54C18.3607 32.4062 18.5291 32.1792 18.5608 31.8478C18.586 31.5944 18.5664 31.5276 18.4237 31.3575C18.1169 30.992 17.8156 30.9062 17.4496 31.0803C17.0031 31.2928 16.8571 31.8967 17.1638 32.2621C17.3194 32.4472 17.606 32.6158 17.7748 32.6209C17.8175 32.6224 17.9402 32.5859 18.0474 32.54L18.0475 32.54ZM22.8215 29.1263C23.1983 28.7644 23.1828 28.3002 22.7821 27.9475C22.514 27.7114 22.1505 27.6935 21.8424 27.901C21.6072 28.0595 21.444 28.4413 21.5058 28.6882C21.5544 28.8829 21.8245 29.213 21.9951 29.2866C22.2281 29.3871 22.6315 29.309 22.8215 29.1264L22.8215 29.1263ZM34.7577 35.297C34.6385 35.1774 34.6365 35.0945 34.6365 30.2883V25.4012L34.7963 25.2752C34.9988 25.1153 35.1834 25.1153 35.386 25.2752L35.5458 25.4012V30.2777V35.1543L35.4056 35.2865C35.2271 35.4548 34.9201 35.4595 34.758 35.2977L34.7577 35.297ZM29.085 35.311C28.8942 35.1833 28.8788 34.9838 28.8788 32.6231C28.8788 31.1883 28.9012 30.2012 28.9381 30.1342C29.0179 29.9843 29.3323 29.8799 29.5047 29.9454C29.8227 30.0667 29.8181 30.0275 29.8181 32.6564C29.8181 34.9757 29.8125 35.1082 29.7028 35.2295C29.5863 35.3586 29.2268 35.4059 29.0849 35.311H29.085ZM31.8732 35.2295C31.7623 35.1066 31.7578 34.9553 31.7578 31.4263V27.7511L31.9008 27.6349C32.1 27.4733 32.3678 27.4868 32.5484 27.668L32.6973 27.8172V31.4273C32.6973 34.9875 32.6954 35.0395 32.5716 35.1974C32.4087 35.4049 32.0465 35.4214 31.8732 35.2296L31.8732 35.2295ZM37.6086 35.2239C37.486 35.092 37.4851 35.0452 37.4851 29.0563C37.4851 23.1027 37.4868 23.0201 37.6064 22.9002C37.6865 22.8198 37.8083 22.7786 37.9666 22.7786C38.4253 22.7786 38.3942 22.3202 38.3942 29.1022C38.3942 34.8896 38.3886 35.1602 38.2833 35.2563C38.1213 35.4033 37.7593 35.386 37.6087 35.2238L37.6086 35.2239ZM27.788 28.9766C27.6671 28.8554 27.6333 28.6487 27.7045 28.463C27.7327 28.3897 34.9531 21.8097 37.2497 19.7646C37.5905 19.4611 37.8002 19.4242 38.0527 19.6234C38.4334 19.9237 38.6558 19.6926 33.265 24.5971C28.7717 28.6851 28.2988 29.0983 28.1134 29.0983C27.9903 29.0983 27.8615 29.0501 27.7881 28.9767L27.788 28.9766ZM15.7274 25.4523C15.569 25.2935 15.5632 24.9026 15.7162 24.7629C15.8165 24.6719 16.1445 24.6624 19.1708 24.6624C22.4337 24.6624 22.5174 24.6652 22.6357 24.7839C22.8162 24.9648 22.7975 25.2901 22.5972 25.4479C22.4402 25.5717 22.3841 25.5739 19.1426 25.5739C15.9286 25.5739 15.8448 25.5711 15.7266 25.4524L15.7274 25.4523ZM15.8182 23.0099C15.6453 22.9116 15.6081 22.8377 15.607 22.5906C15.6064 22.445 15.6486 22.3335 15.7336 22.2564C15.857 22.1444 16.0587 22.1402 21.8093 22.1225C25.8426 22.1113 27.8284 22.125 27.9776 22.1685C28.2306 22.2421 28.3647 22.4801 28.2995 22.7404C28.2093 23.1012 28.5534 23.0827 21.9713 23.0807C17.5891 23.0793 15.9062 23.0611 15.8181 23.0099L15.8182 23.0099ZM15.7274 20.4089C15.569 20.2501 15.5632 19.8592 15.7162 19.7195C15.8179 19.6274 16.3379 19.619 21.9543 19.619H28.0815L28.2119 19.785C28.3683 19.9844 28.339 20.2618 28.144 20.424C28.0242 20.5237 27.6375 20.5304 21.9321 20.5304C15.9287 20.5304 15.8463 20.5288 15.7267 20.4089L15.7274 20.4089Z"/>
</mask>
<path d="M13.2729 39.0289C12.8555 38.8796 12.4538 38.5232 12.217 38.0921L12 37.6971V27.3369V16.9766L12.1606 16.6727C12.3779 16.2618 12.72 15.9288 13.1212 15.7378C13.4086 15.6009 13.5589 15.5748 14.211 15.5488L14.9675 15.5182L15.3625 14.6663C15.8607 13.592 15.9815 13.4001 16.2933 13.1876C16.7525 12.8747 16.749 12.875 20.0285 12.875C23.4938 12.875 23.4668 12.8722 23.9247 13.3214C24.1241 13.5172 24.2822 13.7953 24.6288 14.5605L25.0758 15.5473L32.8107 15.5641L40.5455 15.5809L40.8788 15.7397C41.2801 15.9306 41.6222 16.2637 41.8394 16.6746L42 16.9785V27.3388V37.6991L41.783 38.094C41.6394 38.3553 41.4652 38.5658 41.2678 38.7162C40.6821 39.1625 41.9116 39.1275 26.9739 39.1222C15.4814 39.1194 13.4795 39.1054 13.2725 39.0306L13.2729 39.0289ZM40.4393 38.1202C40.5619 38.0687 40.7139 37.9799 40.7769 37.9228C41.0786 37.6489 41.0637 38.198 41.0615 27.4203C41.0594 17.7736 41.0559 17.3451 40.9475 17.1052C40.8861 16.9677 40.7791 16.8045 40.7098 16.7428C40.3904 16.4586 40.5964 16.4656 32.3276 16.4626C24.9838 16.4601 24.5284 16.4542 24.4384 16.3537C24.3859 16.2952 24.1459 15.7962 23.9052 15.2448C23.6645 14.6933 23.4289 14.183 23.3818 14.1107C23.1737 13.7917 23.1186 13.7864 20.003 13.7864C16.9501 13.7864 16.9357 13.7876 16.6888 14.0688C16.6343 14.1307 16.3781 14.6677 16.1192 15.2621C15.8603 15.8564 15.6184 16.3623 15.5818 16.3862C15.5452 16.4114 15.0924 16.4433 14.5758 16.4601C13.5132 16.4946 13.316 16.5635 13.0485 16.9949L12.9092 17.2198L12.8924 27.2063C12.8812 33.8223 12.898 37.2702 12.9379 37.422C13.0223 37.7358 13.2156 37.9648 13.5094 38.0986C13.7477 38.2069 14.2389 38.2111 26.9858 38.2125C38.7558 38.2137 40.2397 38.2041 40.4382 38.1204L40.4393 38.1202ZM21.8789 36.0939C21.0526 35.8763 20.4782 35.0992 20.5227 34.2587L20.5394 33.9508L19.7422 33.5057C19.0568 33.123 18.9346 33.0732 18.8706 33.1505C18.8295 33.2001 18.658 33.3127 18.4893 33.4009C18.2432 33.5297 18.0985 33.5613 17.7582 33.5616C17.2239 33.5621 16.8675 33.4084 16.4924 33.0158C15.6788 32.1644 15.97 30.7524 17.0612 30.2582C17.4723 30.072 18.0956 30.0854 18.5034 30.2893C18.6763 30.3758 18.8422 30.4371 18.8719 30.4259C18.9015 30.4147 19.3051 30.1324 19.7684 29.7985L20.611 29.1916L20.6089 28.6137C20.6064 27.9324 20.7013 27.6994 21.1507 27.284C21.5309 26.9327 21.7915 26.8298 22.3037 26.8288C22.829 26.828 23.2312 27.0148 23.5945 27.4286C24.1675 28.0812 24.1718 29.0183 23.6057 29.6641C23.0793 30.2636 22.2638 30.4412 21.579 30.1052C21.3874 30.0111 21.213 29.9616 21.1689 29.9884C21.1268 30.0137 20.7173 30.3048 20.2588 30.6343C19.4675 31.203 19.4276 31.2417 19.4707 31.3967C19.4958 31.4866 19.5134 31.7127 19.5101 31.8991L19.5045 32.2382L20.2831 32.6773L21.0618 33.1164L21.2744 32.954C21.9506 32.4369 22.9601 32.5341 23.5017 33.1685C23.8246 33.5467 23.9336 33.8155 23.9603 34.2994C23.9799 34.6451 23.9578 34.791 23.8503 35.0416C23.7008 35.3899 23.2383 35.8628 22.9145 35.9985C22.6547 36.1074 22.1194 36.157 21.881 36.094L21.8789 36.0939ZM22.7176 35.0107C22.9374 34.8995 23.1452 34.4504 23.091 34.2031C23.0136 33.8499 22.6408 33.5348 22.3002 33.5348C21.8563 33.5348 21.4372 34.0059 21.5055 34.4279C21.5555 34.7368 21.7021 34.9269 21.9897 35.0562C22.2528 35.1744 22.4133 35.1646 22.7176 35.0106V35.0107ZM18.0475 32.54C18.3607 32.4062 18.5291 32.1792 18.5608 31.8478C18.586 31.5944 18.5664 31.5276 18.4237 31.3575C18.1169 30.992 17.8156 30.9062 17.4496 31.0803C17.0031 31.2928 16.8571 31.8967 17.1638 32.2621C17.3194 32.4472 17.606 32.6158 17.7748 32.6209C17.8175 32.6224 17.9402 32.5859 18.0474 32.54L18.0475 32.54ZM22.8215 29.1263C23.1983 28.7644 23.1828 28.3002 22.7821 27.9475C22.514 27.7114 22.1505 27.6935 21.8424 27.901C21.6072 28.0595 21.444 28.4413 21.5058 28.6882C21.5544 28.8829 21.8245 29.213 21.9951 29.2866C22.2281 29.3871 22.6315 29.309 22.8215 29.1264L22.8215 29.1263ZM34.7577 35.297C34.6385 35.1774 34.6365 35.0945 34.6365 30.2883V25.4012L34.7963 25.2752C34.9988 25.1153 35.1834 25.1153 35.386 25.2752L35.5458 25.4012V30.2777V35.1543L35.4056 35.2865C35.2271 35.4548 34.9201 35.4595 34.758 35.2977L34.7577 35.297ZM29.085 35.311C28.8942 35.1833 28.8788 34.9838 28.8788 32.6231C28.8788 31.1883 28.9012 30.2012 28.9381 30.1342C29.0179 29.9843 29.3323 29.8799 29.5047 29.9454C29.8227 30.0667 29.8181 30.0275 29.8181 32.6564C29.8181 34.9757 29.8125 35.1082 29.7028 35.2295C29.5863 35.3586 29.2268 35.4059 29.0849 35.311H29.085ZM31.8732 35.2295C31.7623 35.1066 31.7578 34.9553 31.7578 31.4263V27.7511L31.9008 27.6349C32.1 27.4733 32.3678 27.4868 32.5484 27.668L32.6973 27.8172V31.4273C32.6973 34.9875 32.6954 35.0395 32.5716 35.1974C32.4087 35.4049 32.0465 35.4214 31.8732 35.2296L31.8732 35.2295ZM37.6086 35.2239C37.486 35.092 37.4851 35.0452 37.4851 29.0563C37.4851 23.1027 37.4868 23.0201 37.6064 22.9002C37.6865 22.8198 37.8083 22.7786 37.9666 22.7786C38.4253 22.7786 38.3942 22.3202 38.3942 29.1022C38.3942 34.8896 38.3886 35.1602 38.2833 35.2563C38.1213 35.4033 37.7593 35.386 37.6087 35.2238L37.6086 35.2239ZM27.788 28.9766C27.6671 28.8554 27.6333 28.6487 27.7045 28.463C27.7327 28.3897 34.9531 21.8097 37.2497 19.7646C37.5905 19.4611 37.8002 19.4242 38.0527 19.6234C38.4334 19.9237 38.6558 19.6926 33.265 24.5971C28.7717 28.6851 28.2988 29.0983 28.1134 29.0983C27.9903 29.0983 27.8615 29.0501 27.7881 28.9767L27.788 28.9766ZM15.7274 25.4523C15.569 25.2935 15.5632 24.9026 15.7162 24.7629C15.8165 24.6719 16.1445 24.6624 19.1708 24.6624C22.4337 24.6624 22.5174 24.6652 22.6357 24.7839C22.8162 24.9648 22.7975 25.2901 22.5972 25.4479C22.4402 25.5717 22.3841 25.5739 19.1426 25.5739C15.9286 25.5739 15.8448 25.5711 15.7266 25.4524L15.7274 25.4523ZM15.8182 23.0099C15.6453 22.9116 15.6081 22.8377 15.607 22.5906C15.6064 22.445 15.6486 22.3335 15.7336 22.2564C15.857 22.1444 16.0587 22.1402 21.8093 22.1225C25.8426 22.1113 27.8284 22.125 27.9776 22.1685C28.2306 22.2421 28.3647 22.4801 28.2995 22.7404C28.2093 23.1012 28.5534 23.0827 21.9713 23.0807C17.5891 23.0793 15.9062 23.0611 15.8181 23.0099L15.8182 23.0099ZM15.7274 20.4089C15.569 20.2501 15.5632 19.8592 15.7162 19.7195C15.8179 19.6274 16.3379 19.619 21.9543 19.619H28.0815L28.2119 19.785C28.3683 19.9844 28.339 20.2618 28.144 20.424C28.0242 20.5237 27.6375 20.5304 21.9321 20.5304C15.9287 20.5304 15.8463 20.5288 15.7267 20.4089L15.7274 20.4089Z" fill="white"/>
<path d="M13.2729 39.0289C12.8555 38.8796 12.4538 38.5232 12.217 38.0921L12 37.6971V27.3369V16.9766L12.1606 16.6727C12.3779 16.2618 12.72 15.9288 13.1212 15.7378C13.4086 15.6009 13.5589 15.5748 14.211 15.5488L14.9675 15.5182L15.3625 14.6663C15.8607 13.592 15.9815 13.4001 16.2933 13.1876C16.7525 12.8747 16.749 12.875 20.0285 12.875C23.4938 12.875 23.4668 12.8722 23.9247 13.3214C24.1241 13.5172 24.2822 13.7953 24.6288 14.5605L25.0758 15.5473L32.8107 15.5641L40.5455 15.5809L40.8788 15.7397C41.2801 15.9306 41.6222 16.2637 41.8394 16.6746L42 16.9785V27.3388V37.6991L41.783 38.094C41.6394 38.3553 41.4652 38.5658 41.2678 38.7162C40.6821 39.1625 41.9116 39.1275 26.9739 39.1222C15.4814 39.1194 13.4795 39.1054 13.2725 39.0306L13.2729 39.0289ZM40.4393 38.1202C40.5619 38.0687 40.7139 37.9799 40.7769 37.9228C41.0786 37.6489 41.0637 38.198 41.0615 27.4203C41.0594 17.7736 41.0559 17.3451 40.9475 17.1052C40.8861 16.9677 40.7791 16.8045 40.7098 16.7428C40.3904 16.4586 40.5964 16.4656 32.3276 16.4626C24.9838 16.4601 24.5284 16.4542 24.4384 16.3537C24.3859 16.2952 24.1459 15.7962 23.9052 15.2448C23.6645 14.6933 23.4289 14.183 23.3818 14.1107C23.1737 13.7917 23.1186 13.7864 20.003 13.7864C16.9501 13.7864 16.9357 13.7876 16.6888 14.0688C16.6343 14.1307 16.3781 14.6677 16.1192 15.2621C15.8603 15.8564 15.6184 16.3623 15.5818 16.3862C15.5452 16.4114 15.0924 16.4433 14.5758 16.4601C13.5132 16.4946 13.316 16.5635 13.0485 16.9949L12.9092 17.2198L12.8924 27.2063C12.8812 33.8223 12.898 37.2702 12.9379 37.422C13.0223 37.7358 13.2156 37.9648 13.5094 38.0986C13.7477 38.2069 14.2389 38.2111 26.9858 38.2125C38.7558 38.2137 40.2397 38.2041 40.4382 38.1204L40.4393 38.1202ZM21.8789 36.0939C21.0526 35.8763 20.4782 35.0992 20.5227 34.2587L20.5394 33.9508L19.7422 33.5057C19.0568 33.123 18.9346 33.0732 18.8706 33.1505C18.8295 33.2001 18.658 33.3127 18.4893 33.4009C18.2432 33.5297 18.0985 33.5613 17.7582 33.5616C17.2239 33.5621 16.8675 33.4084 16.4924 33.0158C15.6788 32.1644 15.97 30.7524 17.0612 30.2582C17.4723 30.072 18.0956 30.0854 18.5034 30.2893C18.6763 30.3758 18.8422 30.4371 18.8719 30.4259C18.9015 30.4147 19.3051 30.1324 19.7684 29.7985L20.611 29.1916L20.6089 28.6137C20.6064 27.9324 20.7013 27.6994 21.1507 27.284C21.5309 26.9327 21.7915 26.8298 22.3037 26.8288C22.829 26.828 23.2312 27.0148 23.5945 27.4286C24.1675 28.0812 24.1718 29.0183 23.6057 29.6641C23.0793 30.2636 22.2638 30.4412 21.579 30.1052C21.3874 30.0111 21.213 29.9616 21.1689 29.9884C21.1268 30.0137 20.7173 30.3048 20.2588 30.6343C19.4675 31.203 19.4276 31.2417 19.4707 31.3967C19.4958 31.4866 19.5134 31.7127 19.5101 31.8991L19.5045 32.2382L20.2831 32.6773L21.0618 33.1164L21.2744 32.954C21.9506 32.4369 22.9601 32.5341 23.5017 33.1685C23.8246 33.5467 23.9336 33.8155 23.9603 34.2994C23.9799 34.6451 23.9578 34.791 23.8503 35.0416C23.7008 35.3899 23.2383 35.8628 22.9145 35.9985C22.6547 36.1074 22.1194 36.157 21.881 36.094L21.8789 36.0939ZM22.7176 35.0107C22.9374 34.8995 23.1452 34.4504 23.091 34.2031C23.0136 33.8499 22.6408 33.5348 22.3002 33.5348C21.8563 33.5348 21.4372 34.0059 21.5055 34.4279C21.5555 34.7368 21.7021 34.9269 21.9897 35.0562C22.2528 35.1744 22.4133 35.1646 22.7176 35.0106V35.0107ZM18.0475 32.54C18.3607 32.4062 18.5291 32.1792 18.5608 31.8478C18.586 31.5944 18.5664 31.5276 18.4237 31.3575C18.1169 30.992 17.8156 30.9062 17.4496 31.0803C17.0031 31.2928 16.8571 31.8967 17.1638 32.2621C17.3194 32.4472 17.606 32.6158 17.7748 32.6209C17.8175 32.6224 17.9402 32.5859 18.0474 32.54L18.0475 32.54ZM22.8215 29.1263C23.1983 28.7644 23.1828 28.3002 22.7821 27.9475C22.514 27.7114 22.1505 27.6935 21.8424 27.901C21.6072 28.0595 21.444 28.4413 21.5058 28.6882C21.5544 28.8829 21.8245 29.213 21.9951 29.2866C22.2281 29.3871 22.6315 29.309 22.8215 29.1264L22.8215 29.1263ZM34.7577 35.297C34.6385 35.1774 34.6365 35.0945 34.6365 30.2883V25.4012L34.7963 25.2752C34.9988 25.1153 35.1834 25.1153 35.386 25.2752L35.5458 25.4012V30.2777V35.1543L35.4056 35.2865C35.2271 35.4548 34.9201 35.4595 34.758 35.2977L34.7577 35.297ZM29.085 35.311C28.8942 35.1833 28.8788 34.9838 28.8788 32.6231C28.8788 31.1883 28.9012 30.2012 28.9381 30.1342C29.0179 29.9843 29.3323 29.8799 29.5047 29.9454C29.8227 30.0667 29.8181 30.0275 29.8181 32.6564C29.8181 34.9757 29.8125 35.1082 29.7028 35.2295C29.5863 35.3586 29.2268 35.4059 29.0849 35.311H29.085ZM31.8732 35.2295C31.7623 35.1066 31.7578 34.9553 31.7578 31.4263V27.7511L31.9008 27.6349C32.1 27.4733 32.3678 27.4868 32.5484 27.668L32.6973 27.8172V31.4273C32.6973 34.9875 32.6954 35.0395 32.5716 35.1974C32.4087 35.4049 32.0465 35.4214 31.8732 35.2296L31.8732 35.2295ZM37.6086 35.2239C37.486 35.092 37.4851 35.0452 37.4851 29.0563C37.4851 23.1027 37.4868 23.0201 37.6064 22.9002C37.6865 22.8198 37.8083 22.7786 37.9666 22.7786C38.4253 22.7786 38.3942 22.3202 38.3942 29.1022C38.3942 34.8896 38.3886 35.1602 38.2833 35.2563C38.1213 35.4033 37.7593 35.386 37.6087 35.2238L37.6086 35.2239ZM27.788 28.9766C27.6671 28.8554 27.6333 28.6487 27.7045 28.463C27.7327 28.3897 34.9531 21.8097 37.2497 19.7646C37.5905 19.4611 37.8002 19.4242 38.0527 19.6234C38.4334 19.9237 38.6558 19.6926 33.265 24.5971C28.7717 28.6851 28.2988 29.0983 28.1134 29.0983C27.9903 29.0983 27.8615 29.0501 27.7881 28.9767L27.788 28.9766ZM15.7274 25.4523C15.569 25.2935 15.5632 24.9026 15.7162 24.7629C15.8165 24.6719 16.1445 24.6624 19.1708 24.6624C22.4337 24.6624 22.5174 24.6652 22.6357 24.7839C22.8162 24.9648 22.7975 25.2901 22.5972 25.4479C22.4402 25.5717 22.3841 25.5739 19.1426 25.5739C15.9286 25.5739 15.8448 25.5711 15.7266 25.4524L15.7274 25.4523ZM15.8182 23.0099C15.6453 22.9116 15.6081 22.8377 15.607 22.5906C15.6064 22.445 15.6486 22.3335 15.7336 22.2564C15.857 22.1444 16.0587 22.1402 21.8093 22.1225C25.8426 22.1113 27.8284 22.125 27.9776 22.1685C28.2306 22.2421 28.3647 22.4801 28.2995 22.7404C28.2093 23.1012 28.5534 23.0827 21.9713 23.0807C17.5891 23.0793 15.9062 23.0611 15.8181 23.0099L15.8182 23.0099ZM15.7274 20.4089C15.569 20.2501 15.5632 19.8592 15.7162 19.7195C15.8179 19.6274 16.3379 19.619 21.9543 19.619H28.0815L28.2119 19.785C28.3683 19.9844 28.339 20.2618 28.144 20.424C28.0242 20.5237 27.6375 20.5304 21.9321 20.5304C15.9287 20.5304 15.8463 20.5288 15.7267 20.4089L15.7274 20.4089Z" stroke="white" stroke-width="0.6" mask="url(#path-2-outside-1)"/>
</svg>
