<svg width="144" height="34" viewBox="0 0 144 34" fill="none" xmlns="http://www.w3.org/2000/svg">
<path d="M11.04 33.1984C4.26418 30.8968 0 24.6692 0 17.0752C0 12.1573 1.54977 8.30236 4.85891 4.98906C8.26286 1.58082 11.9321 0.0381662 16.6348 0.0381662C21.3651 0.0381662 25.0354 1.59147 28.4344 5.03185C33.6107 10.2711 34.7449 18.4072 31.2659 25.3426C29.3879 29.0863 24.8029 32.7021 20.7538 33.6323C18.0188 34.2607 13.584 34.0626 11.04 33.1984ZM19.4832 26.385C21.3736 25.8618 22.8412 24.4567 23.9609 22.0979C24.796 20.3388 24.9517 19.5727 24.9519 17.2231C24.953 10.9423 21.8892 7.2803 16.6348 7.2803C11.3987 7.2803 8.1161 11.2166 8.17865 17.4206C8.22042 21.5646 9.95592 24.6882 12.9959 26.0908C14.5464 26.8062 17.4807 26.9393 19.4832 26.385ZM116.192 33.4669C114.174 32.9252 110.786 31.3081 109.607 30.3237L108.838 29.6813L110.551 26.9183C111.493 25.3986 112.324 23.9999 112.398 23.8099C112.472 23.62 112.991 23.7958 113.552 24.2006C116.316 26.1959 118.254 26.8938 121.065 26.9062C123.617 26.9176 123.83 26.8601 124.617 25.9493C125.714 24.6798 125.706 23.1658 124.596 22.0603C124.125 21.5901 122.122 20.4341 120.146 19.4913C114.126 16.6188 111.808 13.9009 111.847 9.76287C111.883 5.92378 114.159 2.72718 118.161 0.896788C120.844 -0.330824 124.537 -0.296828 128.4 0.991072C129.925 1.49943 131.539 2.19123 131.986 2.52841L132.8 3.14148L131.376 5.96387C130.592 7.51619 129.816 8.78626 129.651 8.78626C129.485 8.78626 128.437 8.36972 127.321 7.8606C124.517 6.58107 121.395 6.52192 120.111 7.72401C119.007 8.75738 118.941 10.2391 119.955 11.2492C120.361 11.654 122.427 12.8023 124.547 13.8009C126.666 14.7995 129.207 16.2591 130.192 17.0445C133.389 19.591 134.454 22.9931 133.277 26.8913C132.297 30.1374 130.318 32.024 126.573 33.281C124.022 34.1376 119.024 34.2271 116.192 33.4669ZM136.956 33.2988C135.798 32.5951 134.811 30.8406 134.811 29.4855C134.811 28.2421 135.913 26.3524 137.036 25.67C141.211 23.1332 145.901 28.0969 143.205 32.1978C142.009 34.017 139.009 34.5457 136.956 33.2988ZM32.5765 32.6925C32.5765 32.1642 33.2003 24.8256 33.9627 16.3844C34.7252 7.94328 35.349 0.910537 35.349 0.756142C35.349 0.601747 37.1739 0.5192 39.4043 0.572724L43.4596 0.670025L47.0954 10.1116L50.7312 19.5531L52.4489 15.1194C53.3936 12.6809 55.0441 8.43226 56.1165 5.67792L58.0664 0.670025L62.1295 0.572724C65.8322 0.484044 66.1927 0.530009 66.1928 1.09078C66.1929 1.42922 66.8167 8.6041 67.579 17.0349C68.3414 25.4658 68.9651 32.6591 68.9651 33.0201C68.9651 33.6303 68.7035 33.6695 65.2396 33.5784L61.5141 33.4803L60.7623 24.0661C60.3488 18.8882 59.9565 14.4905 59.8906 14.2934C59.8246 14.0962 58.6989 17.0116 57.389 20.772C56.0791 24.5324 54.5438 28.8979 53.9772 30.4733L52.9471 33.3375L50.6878 33.2362L48.4286 33.135L45.0504 23.4795C41.1483 12.3267 41.5688 12.2777 40.7237 23.9826C40.4289 28.0666 40.1056 31.9132 40.0052 32.5306L39.8228 33.653H36.1997H32.5765V32.6925ZM69.6583 17.0752V0.497339H73.4307H77.2031L83.7408 10.6726L90.2785 20.8479L90.3703 10.6726L90.4621 0.497339H94.2724H98.0828L97.9928 16.9888L97.9028 33.4803L94.2305 33.5778L90.5583 33.6753L84.0071 23.4806L77.4558 13.2859L77.364 23.4695L77.2722 33.653H73.4652H69.6583V17.0752ZM100.502 17.0752V0.497339H104.314H108.126V17.0752V33.653H104.314H100.502V17.0752Z" fill="white"/>
</svg>
