<svg width="22" height="23" viewBox="0 0 22 23" fill="none" xmlns="http://www.w3.org/2000/svg">
<mask id="path-1-outside-1" maskUnits="userSpaceOnUse" x="-0.775391" y="0" width="23" height="23" fill="black">
<rect fill="white" x="-0.775391" width="23" height="23"/>
<path d="M10.4353 21.8695C10.2894 21.809 9.04344 21.249 7.66646 20.6254C6.28947 20.0017 4.08041 19.0024 2.75742 18.4048C1.43444 17.8071 0.324381 17.2811 0.29063 17.2358C0.20826 17.1253 0.200124 5.91668 0.282323 5.76293C0.311505 5.70833 0.416432 5.62986 0.515501 5.58849C0.61457 5.54712 1.74495 5.03822 3.02743 4.45752C5.26433 3.44465 6.07367 3.07869 9.24452 1.64631L10.6753 1L10.8645 1.06867C11.0359 1.13093 12.2279 1.66843 18.9636 4.72088C20.6562 5.48796 21.0916 5.70413 21.1347 5.79897C21.1732 5.88341 21.1855 7.53537 21.1775 11.5435C21.1665 17.0976 21.1651 17.1707 21.0681 17.2644C21.0141 17.3167 20.2851 17.6686 19.4482 18.0465C18.6112 18.4244 17.1311 19.0927 16.1591 19.5317C12.1114 21.3596 10.8532 21.9256 10.779 21.9519C10.7359 21.9668 10.5813 21.9299 10.4354 21.8694L10.4353 21.8695ZM10.391 15.9404V10.7277L9.98597 10.5392C9.76323 10.4356 9.01767 10.0963 8.32917 9.78539C5.50781 8.51135 3.95686 7.81016 3.46923 7.58819C1.95329 6.8981 0.959849 6.45846 0.916372 6.45846C0.884166 6.45846 0.867572 8.23483 0.867807 11.6557L0.868177 16.8529L4.73023 18.5976C6.85436 19.5572 8.98043 20.5225 9.45482 20.7427C9.92922 20.963 10.3339 21.1454 10.3542 21.1482C10.3744 21.1504 10.391 18.8075 10.391 15.9405L10.391 15.9404ZM5.33466 17.6823C4.05218 17.1291 2.9759 16.6497 2.94294 16.6169C2.89813 16.5724 2.88182 16.1052 2.87829 14.7645C2.87358 12.9794 2.87403 12.9712 2.98047 12.8849C3.03927 12.8372 3.11586 12.7983 3.15068 12.7983C3.29482 12.7983 7.91674 14.8181 7.99781 14.9165C8.076 15.0114 8.08372 15.1751 8.08372 16.7377V18.4547L7.96323 18.5754C7.89695 18.6417 7.80307 18.6941 7.75459 18.6922C7.70611 18.6901 6.61714 18.2357 5.33466 17.6826L5.33466 17.6823ZM7.43409 16.5792L7.42101 15.298L5.48678 14.4676C4.42295 14.0108 3.53484 13.6481 3.5132 13.6615C3.49156 13.6743 3.47834 14.2507 3.48382 14.941L3.49379 16.1962L5.40831 17.0235C6.4613 17.4786 7.35081 17.853 7.38501 17.8556C7.43403 17.8599 7.44442 17.5891 7.4341 16.5792H7.43409ZM12.7473 20.3773C13.4088 20.0784 14.5906 19.5437 15.3736 19.1891C16.1566 18.8345 17.6146 18.1766 18.6136 17.7271C19.6126 17.2775 20.4572 16.889 20.4905 16.8637C20.5731 16.8008 20.5803 6.45837 20.4977 6.45837C20.4681 6.45837 19.8719 6.7159 19.1728 7.03065L17.9018 7.60293V9.18765C17.9018 10.6261 17.8938 10.7816 17.8159 10.8724C17.7686 10.9274 17.4428 11.0982 17.0918 11.2521C16.7408 11.4061 15.994 11.7394 15.4322 11.9931C14.8704 12.2467 14.3568 12.4542 14.2908 12.4542C14.2249 12.4542 14.1267 12.4101 14.0727 12.3559C13.9791 12.2621 13.9746 12.1922 13.9746 10.8324C13.9746 10.0485 13.9611 9.40717 13.9446 9.40717C13.9282 9.40717 13.5581 9.56881 13.1224 9.76641C12.6866 9.96409 12.0376 10.257 11.6802 10.4176L11.0304 10.7095L11.0299 15.9307L11.0293 21.1519L11.287 21.0363C11.4288 20.9728 12.086 20.6762 12.7475 20.3773L12.7473 20.3773ZM15.4041 11.305C15.7924 11.1325 16.2867 10.9091 16.5027 10.8088C16.7187 10.7086 16.9783 10.593 17.0795 10.5521L17.2636 10.4777V9.0413V7.60493L16.7359 7.36842C16.1579 7.10941 12.1622 5.30367 9.26884 3.99392L7.43489 3.16376L6.21296 3.71641C5.5409 4.02036 4.99103 4.28063 4.99104 4.29479C4.99104 4.30972 5.86914 4.71743 6.94238 5.20257C8.01561 5.68771 9.5233 6.36924 10.2928 6.71707C11.0623 7.0649 12.3104 7.62867 13.0664 7.96989C13.8224 8.31111 14.4796 8.62271 14.5268 8.66231C14.6051 8.72799 14.6127 8.86319 14.6127 10.1766C14.6127 10.9698 14.632 11.6188 14.6555 11.6188C14.679 11.6188 15.0159 11.4776 15.4041 11.305H15.4041ZM12.1112 9.52213C12.8682 9.17991 13.4701 8.88285 13.4488 8.86199C13.4275 8.84067 11.3295 7.88352 8.78668 6.73394L4.16334 4.64377L2.79766 5.25981C2.04654 5.59862 1.41753 5.89079 1.39986 5.90909C1.37193 5.93809 10.6004 10.1405 10.6979 10.1433C10.7183 10.1439 11.3542 9.86435 12.1112 9.52213ZM18.7977 6.49911C19.4659 6.19631 20.0127 5.93487 20.0127 5.91811C20.0127 5.90105 19.6095 5.70699 19.1168 5.48643C18.624 5.26578 17.6797 4.83932 17.0182 4.53872C16.3567 4.23815 15.6277 3.90859 15.3982 3.80636C15.1687 3.70422 14.263 3.2951 13.3855 2.89739C12.508 2.49968 11.5461 2.06484 11.248 1.93109L10.7059 1.6879L9.4704 2.24194C8.79088 2.54665 8.2506 2.81117 8.26977 2.82977C8.28894 2.84896 9.30976 3.31697 10.5382 3.87117C11.7667 4.42536 13.8432 5.36556 15.1527 5.96046C16.4622 6.55538 17.5447 7.04381 17.5582 7.04588C17.5717 7.04791 18.1294 6.80188 18.7977 6.49911Z"/>
</mask>
<path d="M10.4353 21.8695C10.2894 21.809 9.04344 21.249 7.66646 20.6254C6.28947 20.0017 4.08041 19.0024 2.75742 18.4048C1.43444 17.8071 0.324381 17.2811 0.29063 17.2358C0.20826 17.1253 0.200124 5.91668 0.282323 5.76293C0.311505 5.70833 0.416432 5.62986 0.515501 5.58849C0.61457 5.54712 1.74495 5.03822 3.02743 4.45752C5.26433 3.44465 6.07367 3.07869 9.24452 1.64631L10.6753 1L10.8645 1.06867C11.0359 1.13093 12.2279 1.66843 18.9636 4.72088C20.6562 5.48796 21.0916 5.70413 21.1347 5.79897C21.1732 5.88341 21.1855 7.53537 21.1775 11.5435C21.1665 17.0976 21.1651 17.1707 21.0681 17.2644C21.0141 17.3167 20.2851 17.6686 19.4482 18.0465C18.6112 18.4244 17.1311 19.0927 16.1591 19.5317C12.1114 21.3596 10.8532 21.9256 10.779 21.9519C10.7359 21.9668 10.5813 21.9299 10.4354 21.8694L10.4353 21.8695ZM10.391 15.9404V10.7277L9.98597 10.5392C9.76323 10.4356 9.01767 10.0963 8.32917 9.78539C5.50781 8.51135 3.95686 7.81016 3.46923 7.58819C1.95329 6.8981 0.959849 6.45846 0.916372 6.45846C0.884166 6.45846 0.867572 8.23483 0.867807 11.6557L0.868177 16.8529L4.73023 18.5976C6.85436 19.5572 8.98043 20.5225 9.45482 20.7427C9.92922 20.963 10.3339 21.1454 10.3542 21.1482C10.3744 21.1504 10.391 18.8075 10.391 15.9405L10.391 15.9404ZM5.33466 17.6823C4.05218 17.1291 2.9759 16.6497 2.94294 16.6169C2.89813 16.5724 2.88182 16.1052 2.87829 14.7645C2.87358 12.9794 2.87403 12.9712 2.98047 12.8849C3.03927 12.8372 3.11586 12.7983 3.15068 12.7983C3.29482 12.7983 7.91674 14.8181 7.99781 14.9165C8.076 15.0114 8.08372 15.1751 8.08372 16.7377V18.4547L7.96323 18.5754C7.89695 18.6417 7.80307 18.6941 7.75459 18.6922C7.70611 18.6901 6.61714 18.2357 5.33466 17.6826L5.33466 17.6823ZM7.43409 16.5792L7.42101 15.298L5.48678 14.4676C4.42295 14.0108 3.53484 13.6481 3.5132 13.6615C3.49156 13.6743 3.47834 14.2507 3.48382 14.941L3.49379 16.1962L5.40831 17.0235C6.4613 17.4786 7.35081 17.853 7.38501 17.8556C7.43403 17.8599 7.44442 17.5891 7.4341 16.5792H7.43409ZM12.7473 20.3773C13.4088 20.0784 14.5906 19.5437 15.3736 19.1891C16.1566 18.8345 17.6146 18.1766 18.6136 17.7271C19.6126 17.2775 20.4572 16.889 20.4905 16.8637C20.5731 16.8008 20.5803 6.45837 20.4977 6.45837C20.4681 6.45837 19.8719 6.7159 19.1728 7.03065L17.9018 7.60293V9.18765C17.9018 10.6261 17.8938 10.7816 17.8159 10.8724C17.7686 10.9274 17.4428 11.0982 17.0918 11.2521C16.7408 11.4061 15.994 11.7394 15.4322 11.9931C14.8704 12.2467 14.3568 12.4542 14.2908 12.4542C14.2249 12.4542 14.1267 12.4101 14.0727 12.3559C13.9791 12.2621 13.9746 12.1922 13.9746 10.8324C13.9746 10.0485 13.9611 9.40717 13.9446 9.40717C13.9282 9.40717 13.5581 9.56881 13.1224 9.76641C12.6866 9.96409 12.0376 10.257 11.6802 10.4176L11.0304 10.7095L11.0299 15.9307L11.0293 21.1519L11.287 21.0363C11.4288 20.9728 12.086 20.6762 12.7475 20.3773L12.7473 20.3773ZM15.4041 11.305C15.7924 11.1325 16.2867 10.9091 16.5027 10.8088C16.7187 10.7086 16.9783 10.593 17.0795 10.5521L17.2636 10.4777V9.0413V7.60493L16.7359 7.36842C16.1579 7.10941 12.1622 5.30367 9.26884 3.99392L7.43489 3.16376L6.21296 3.71641C5.5409 4.02036 4.99103 4.28063 4.99104 4.29479C4.99104 4.30972 5.86914 4.71743 6.94238 5.20257C8.01561 5.68771 9.5233 6.36924 10.2928 6.71707C11.0623 7.0649 12.3104 7.62867 13.0664 7.96989C13.8224 8.31111 14.4796 8.62271 14.5268 8.66231C14.6051 8.72799 14.6127 8.86319 14.6127 10.1766C14.6127 10.9698 14.632 11.6188 14.6555 11.6188C14.679 11.6188 15.0159 11.4776 15.4041 11.305H15.4041ZM12.1112 9.52213C12.8682 9.17991 13.4701 8.88285 13.4488 8.86199C13.4275 8.84067 11.3295 7.88352 8.78668 6.73394L4.16334 4.64377L2.79766 5.25981C2.04654 5.59862 1.41753 5.89079 1.39986 5.90909C1.37193 5.93809 10.6004 10.1405 10.6979 10.1433C10.7183 10.1439 11.3542 9.86435 12.1112 9.52213ZM18.7977 6.49911C19.4659 6.19631 20.0127 5.93487 20.0127 5.91811C20.0127 5.90105 19.6095 5.70699 19.1168 5.48643C18.624 5.26578 17.6797 4.83932 17.0182 4.53872C16.3567 4.23815 15.6277 3.90859 15.3982 3.80636C15.1687 3.70422 14.263 3.2951 13.3855 2.89739C12.508 2.49968 11.5461 2.06484 11.248 1.93109L10.7059 1.6879L9.4704 2.24194C8.79088 2.54665 8.2506 2.81117 8.26977 2.82977C8.28894 2.84896 9.30976 3.31697 10.5382 3.87117C11.7667 4.42536 13.8432 5.36556 15.1527 5.96046C16.4622 6.55538 17.5447 7.04381 17.5582 7.04588C17.5717 7.04791 18.1294 6.80188 18.7977 6.49911Z" fill="#3CB043"/>
<path d="M10.4353 21.8695C10.2894 21.809 9.04344 21.249 7.66646 20.6254C6.28947 20.0017 4.08041 19.0024 2.75742 18.4048C1.43444 17.8071 0.324381 17.2811 0.29063 17.2358C0.20826 17.1253 0.200124 5.91668 0.282323 5.76293C0.311505 5.70833 0.416432 5.62986 0.515501 5.58849C0.61457 5.54712 1.74495 5.03822 3.02743 4.45752C5.26433 3.44465 6.07367 3.07869 9.24452 1.64631L10.6753 1L10.8645 1.06867C11.0359 1.13093 12.2279 1.66843 18.9636 4.72088C20.6562 5.48796 21.0916 5.70413 21.1347 5.79897C21.1732 5.88341 21.1855 7.53537 21.1775 11.5435C21.1665 17.0976 21.1651 17.1707 21.0681 17.2644C21.0141 17.3167 20.2851 17.6686 19.4482 18.0465C18.6112 18.4244 17.1311 19.0927 16.1591 19.5317C12.1114 21.3596 10.8532 21.9256 10.779 21.9519C10.7359 21.9668 10.5813 21.9299 10.4354 21.8694L10.4353 21.8695ZM10.391 15.9404V10.7277L9.98597 10.5392C9.76323 10.4356 9.01767 10.0963 8.32917 9.78539C5.50781 8.51135 3.95686 7.81016 3.46923 7.58819C1.95329 6.8981 0.959849 6.45846 0.916372 6.45846C0.884166 6.45846 0.867572 8.23483 0.867807 11.6557L0.868177 16.8529L4.73023 18.5976C6.85436 19.5572 8.98043 20.5225 9.45482 20.7427C9.92922 20.963 10.3339 21.1454 10.3542 21.1482C10.3744 21.1504 10.391 18.8075 10.391 15.9405L10.391 15.9404ZM5.33466 17.6823C4.05218 17.1291 2.9759 16.6497 2.94294 16.6169C2.89813 16.5724 2.88182 16.1052 2.87829 14.7645C2.87358 12.9794 2.87403 12.9712 2.98047 12.8849C3.03927 12.8372 3.11586 12.7983 3.15068 12.7983C3.29482 12.7983 7.91674 14.8181 7.99781 14.9165C8.076 15.0114 8.08372 15.1751 8.08372 16.7377V18.4547L7.96323 18.5754C7.89695 18.6417 7.80307 18.6941 7.75459 18.6922C7.70611 18.6901 6.61714 18.2357 5.33466 17.6826L5.33466 17.6823ZM7.43409 16.5792L7.42101 15.298L5.48678 14.4676C4.42295 14.0108 3.53484 13.6481 3.5132 13.6615C3.49156 13.6743 3.47834 14.2507 3.48382 14.941L3.49379 16.1962L5.40831 17.0235C6.4613 17.4786 7.35081 17.853 7.38501 17.8556C7.43403 17.8599 7.44442 17.5891 7.4341 16.5792H7.43409ZM12.7473 20.3773C13.4088 20.0784 14.5906 19.5437 15.3736 19.1891C16.1566 18.8345 17.6146 18.1766 18.6136 17.7271C19.6126 17.2775 20.4572 16.889 20.4905 16.8637C20.5731 16.8008 20.5803 6.45837 20.4977 6.45837C20.4681 6.45837 19.8719 6.7159 19.1728 7.03065L17.9018 7.60293V9.18765C17.9018 10.6261 17.8938 10.7816 17.8159 10.8724C17.7686 10.9274 17.4428 11.0982 17.0918 11.2521C16.7408 11.4061 15.994 11.7394 15.4322 11.9931C14.8704 12.2467 14.3568 12.4542 14.2908 12.4542C14.2249 12.4542 14.1267 12.4101 14.0727 12.3559C13.9791 12.2621 13.9746 12.1922 13.9746 10.8324C13.9746 10.0485 13.9611 9.40717 13.9446 9.40717C13.9282 9.40717 13.5581 9.56881 13.1224 9.76641C12.6866 9.96409 12.0376 10.257 11.6802 10.4176L11.0304 10.7095L11.0299 15.9307L11.0293 21.1519L11.287 21.0363C11.4288 20.9728 12.086 20.6762 12.7475 20.3773L12.7473 20.3773ZM15.4041 11.305C15.7924 11.1325 16.2867 10.9091 16.5027 10.8088C16.7187 10.7086 16.9783 10.593 17.0795 10.5521L17.2636 10.4777V9.0413V7.60493L16.7359 7.36842C16.1579 7.10941 12.1622 5.30367 9.26884 3.99392L7.43489 3.16376L6.21296 3.71641C5.5409 4.02036 4.99103 4.28063 4.99104 4.29479C4.99104 4.30972 5.86914 4.71743 6.94238 5.20257C8.01561 5.68771 9.5233 6.36924 10.2928 6.71707C11.0623 7.0649 12.3104 7.62867 13.0664 7.96989C13.8224 8.31111 14.4796 8.62271 14.5268 8.66231C14.6051 8.72799 14.6127 8.86319 14.6127 10.1766C14.6127 10.9698 14.632 11.6188 14.6555 11.6188C14.679 11.6188 15.0159 11.4776 15.4041 11.305H15.4041ZM12.1112 9.52213C12.8682 9.17991 13.4701 8.88285 13.4488 8.86199C13.4275 8.84067 11.3295 7.88352 8.78668 6.73394L4.16334 4.64377L2.79766 5.25981C2.04654 5.59862 1.41753 5.89079 1.39986 5.90909C1.37193 5.93809 10.6004 10.1405 10.6979 10.1433C10.7183 10.1439 11.3542 9.86435 12.1112 9.52213ZM18.7977 6.49911C19.4659 6.19631 20.0127 5.93487 20.0127 5.91811C20.0127 5.90105 19.6095 5.70699 19.1168 5.48643C18.624 5.26578 17.6797 4.83932 17.0182 4.53872C16.3567 4.23815 15.6277 3.90859 15.3982 3.80636C15.1687 3.70422 14.263 3.2951 13.3855 2.89739C12.508 2.49968 11.5461 2.06484 11.248 1.93109L10.7059 1.6879L9.4704 2.24194C8.79088 2.54665 8.2506 2.81117 8.26977 2.82977C8.28894 2.84896 9.30976 3.31697 10.5382 3.87117C11.7667 4.42536 13.8432 5.36556 15.1527 5.96046C16.4622 6.55538 17.5447 7.04381 17.5582 7.04588C17.5717 7.04791 18.1294 6.80188 18.7977 6.49911Z" stroke="#3CB043" stroke-width="0.402985" mask="url(#path-1-outside-1)"/>
</svg>
