<svg width="28" height="15" viewBox="0 0 28 15" fill="none" xmlns="http://www.w3.org/2000/svg">
<mask id="path-1-outside-1" maskUnits="userSpaceOnUse" x="0" y="0" width="28" height="15" fill="black">
<rect fill="white" width="28" height="15"/>
<path d="M3.99617 14.4798C2.40472 14.166 1.71711 13.5891 1.44172 12.3367C1.33649 11.8581 1.52301 11.0616 1.8769 10.4784C2.07065 10.1592 2.11904 9.79303 2.08816 8.88026C2.06307 8.13891 2.12789 7.44456 2.26152 7.02285C2.47003 6.36484 2.46671 6.3431 2.11727 6.07868C1.92055 5.92979 1.58869 5.6581 1.3798 5.47483L1 5.14166L1.47791 4.33197C2.00288 3.44249 2.19247 3.37654 2.9428 3.82244L3.44801 4.12266L3.97864 3.56791C4.27049 3.2628 4.57161 3.05498 4.6478 3.10622C4.724 3.15746 4.82464 3.4559 4.87145 3.76953C4.99401 4.59066 5.58053 5.34012 6.35092 5.66001C6.92351 5.8978 7.1167 5.9087 7.8021 5.74193C9.07586 5.432 9.8493 4.74986 10.5871 3.2858C11.2453 1.97974 11.99 1 12.3245 1C12.4305 1 12.5811 1.18273 12.6591 1.40604C12.7372 1.62935 13.004 2.13262 13.252 2.52448C13.6313 3.12386 13.762 3.22455 14.0759 3.15931C14.654 3.03919 14.8083 3.17956 14.9104 3.91967C15.0139 4.67038 15.2677 4.88255 15.706 4.58488C16.1034 4.31505 16.5059 4.61825 16.47 5.16019C16.441 5.59686 16.6538 5.67109 17.2222 5.42264C17.6097 5.25326 18.0197 5.50468 18.0197 5.91168C18.0197 6.18146 18.0576 6.20648 18.2302 6.05074C18.5239 5.78572 19.0072 5.99092 19.0617 6.40381C19.1004 6.69712 19.5695 6.93783 22.2244 8.02618C25.4737 9.35822 27.0987 10.1654 27.4016 10.5978C27.7422 11.0842 27.6258 11.9784 27.1442 12.5747C25.7325 14.3229 22.765 14.7254 11.4732 14.7004C6.85455 14.6903 4.74801 14.628 3.99617 14.4798ZM5.48679 12.9412C5.48185 12.2259 5.53123 11.4811 5.5964 11.286C5.68508 11.0206 5.66126 10.9313 5.50184 10.9313C5.00722 10.9313 4.78924 12.9306 5.19163 13.7766C5.3133 14.0324 5.43148 14.2417 5.45426 14.2417C5.47706 14.2417 5.49169 13.6565 5.48676 12.9412H5.48679ZM6.32517 13.2565C6.27881 12.7146 6.30851 12.0058 6.39112 11.6813C6.59066 10.8977 6.33596 10.7351 6.05482 11.4666C5.80087 12.1274 5.77836 13.0554 5.99955 13.7453C6.25804 14.5515 6.41567 14.3148 6.32517 13.2565ZM7.27048 13.5005C7.15529 12.8301 7.19311 12.1262 7.38521 11.3648C7.42949 11.1894 7.37409 11.0889 7.23315 11.0889C6.92363 11.0889 6.66024 12.2556 6.76076 13.1814C6.854 14.0402 6.93894 14.2417 7.20763 14.2417C7.35567 14.2417 7.36961 14.0774 7.27048 13.5005ZM8.13786 13.581C8.06275 13.2176 8.04562 12.5347 8.09977 12.0634C8.17914 11.3727 8.15951 11.2206 7.99852 11.2789C7.49161 11.4626 7.56999 14.2417 8.08209 14.2417C8.23296 14.2417 8.24498 14.0994 8.13785 13.581H8.13786ZM8.96431 12.823C8.95993 11.8844 8.90268 11.4043 8.79513 11.4042C8.62489 11.4042 8.39928 12.7822 8.50806 13.1575C8.54269 13.277 8.6103 13.5698 8.65836 13.8082C8.83108 14.6652 8.97081 14.2153 8.96431 12.823ZM9.80741 12.9016C9.78653 11.5203 9.61999 11.153 9.42874 12.0664C9.32693 12.5526 9.41049 13.8588 9.56033 14.1235C9.7537 14.465 9.82564 14.1092 9.80741 12.9016ZM10.6507 12.9016C10.6049 11.5942 10.4577 11.2012 10.2815 11.9159C10.0845 12.7153 10.2504 14.2409 10.5345 14.2415C10.6462 14.2418 10.6828 13.8196 10.6507 12.9016ZM11.4493 12.9799C11.4438 12.0463 11.3923 11.7188 11.251 11.7188C11.1129 11.7188 11.0601 11.999 11.0601 12.7306C11.0601 13.2871 11.0997 13.8546 11.1481 13.9917C11.3446 14.5484 11.4564 14.173 11.4493 12.9799ZM12.3106 13.7484C12.2608 13.4775 12.22 12.91 12.22 12.4873C12.22 12.0646 12.1548 11.7188 12.075 11.7188C11.9904 11.7188 11.93 12.2443 11.93 12.9799C11.93 14.039 11.9678 14.2411 12.1656 14.2411C12.3522 14.2411 12.3824 14.1385 12.3106 13.7484ZM13.1147 13.0591C13.0787 12.1665 13.0165 11.8765 12.861 11.8765C12.7193 11.8765 12.6555 12.061 12.6566 12.4676C12.6593 13.3968 12.8226 14.241 13.0002 14.2414C13.1097 14.2417 13.1469 13.8575 13.1147 13.0591ZM14.0479 13.9917C13.9995 13.8546 13.9599 13.3225 13.9599 12.8094C13.9599 12.0852 13.9112 11.8765 13.7424 11.8765C13.5736 11.8765 13.5249 12.0852 13.5249 12.8094C13.5249 13.8998 13.6187 14.2411 13.9184 14.2411C14.0572 14.2411 14.1041 14.1508 14.0479 13.9917ZM14.8134 13.1376C14.8018 12.3086 14.7478 12.0341 14.5964 12.0341C14.4492 12.0341 14.3949 12.2641 14.3949 12.8882C14.3949 13.8046 14.4933 14.2411 14.6999 14.2411C14.7708 14.2411 14.8219 13.7445 14.8134 13.1376ZM15.6431 13.184C15.5775 11.774 15.2648 11.6378 15.2648 13.0193C15.2648 13.5756 15.3083 14.0781 15.3615 14.1359C15.6133 14.4097 15.6883 14.1562 15.6431 13.184ZM16.5154 13.7484C16.4655 13.4774 16.4248 13.0163 16.4248 12.7237C16.4248 12.4311 16.3595 12.1917 16.2798 12.1917C16.198 12.1917 16.1348 12.6383 16.1348 13.2163C16.1348 14.0571 16.1771 14.241 16.3704 14.241C16.5569 14.241 16.5871 14.1385 16.5154 13.7484ZM17.3809 13.26C17.3214 12.3298 17.1471 11.9713 16.9354 12.3437C16.7629 12.6473 17.0195 14.241 17.2409 14.241C17.3997 14.241 17.4301 14.0279 17.3809 13.26ZM18.2789 13.2964C18.2513 12.6705 18.176 12.3512 18.0559 12.3505C17.8632 12.3505 17.788 13.9368 17.9713 14.1361C18.2253 14.4123 18.3172 14.1618 18.2789 13.2964ZM4.67684 13.6792C4.47069 13.0897 4.50391 11.9486 4.74553 11.3198C4.9309 10.8375 4.93004 10.7732 4.73813 10.7732C4.22639 10.7732 3.89926 12.8005 4.26873 13.6821C4.50057 14.2353 4.8704 14.2327 4.67684 13.6821L4.67684 13.6792ZM19.1796 13.3047C19.1796 12.5475 18.9889 12.1737 18.7435 12.45C18.5476 12.6706 18.753 14.0836 18.981 14.0836C19.1223 14.0836 19.1796 13.8591 19.1796 13.3047ZM19.9976 13.4924C19.9482 13.1673 19.907 12.7772 19.9062 12.6254C19.905 12.4737 19.8393 12.3496 19.7596 12.3496C19.6798 12.3496 19.6146 12.7397 19.6146 13.2166C19.6146 13.9131 19.6611 14.0836 19.851 14.0836C20.0436 14.0836 20.0708 13.9738 19.9976 13.4924ZM20.9179 13.8866C20.9123 13.1977 20.7127 12.5072 20.5191 12.5072C20.3484 12.5072 20.321 12.6345 20.3915 13.0984C20.4409 13.4235 20.482 13.7782 20.4829 13.8866C20.4841 13.9949 20.5824 14.0836 20.702 14.0836C20.8216 14.0836 20.9188 13.9949 20.9179 13.8866ZM3.70171 12.8614C3.65151 12.0986 3.69733 11.6261 3.86333 11.1941C4.02847 10.7644 4.04374 10.609 3.91649 10.6532C3.62933 10.7529 3.22459 12.2062 3.31237 12.8225C3.52296 14.301 3.79825 14.3285 3.7017 12.8612L3.70171 12.8614ZM21.7894 13.2166C21.7894 12.6911 21.7331 12.5072 21.572 12.5072C21.4109 12.5072 21.3545 12.6911 21.3545 13.2166C21.3545 13.7421 21.4109 13.9259 21.572 13.9259C21.7331 13.9259 21.7894 13.7421 21.7894 13.2166ZM22.6594 13.2166C22.6594 12.6911 22.603 12.5072 22.4419 12.5072C22.2808 12.5072 22.2244 12.6911 22.2244 13.2166C22.2244 13.7421 22.2808 13.9259 22.4419 13.9259C22.603 13.9259 22.6594 13.7421 22.6594 13.2166ZM23.5294 13.1377C23.5294 12.6824 23.4689 12.5072 23.3119 12.5072C23.1548 12.5072 23.0944 12.6824 23.0944 13.1377C23.0944 13.5932 23.1548 13.7683 23.3119 13.7683C23.4689 13.7683 23.5294 13.5932 23.5294 13.1377ZM2.89561 12.6211C2.89013 11.9925 2.97612 11.4376 3.13128 11.0994C3.4188 10.4727 3.42093 10.4579 3.22343 10.4579C3.00073 10.4579 2.51245 11.7164 2.50874 12.2999C2.506 12.7748 2.72097 13.6107 2.84627 13.6107C2.87811 13.6107 2.9003 13.1654 2.89559 12.6211H2.89561ZM24.3722 13.0074C24.4058 12.6378 24.3585 12.5072 24.191 12.5072C24.0276 12.5072 23.9643 12.6649 23.9643 13.0721C23.9643 13.7843 24.3066 13.73 24.3722 13.0074ZM25.1243 12.9013C25.1243 12.5978 25.059 12.3496 24.9793 12.3496C24.8995 12.3496 24.8343 12.5978 24.8343 12.9013C24.8343 13.2048 24.8995 13.453 24.9793 13.453C25.059 13.453 25.1243 13.2048 25.1243 12.9013ZM25.8492 12.6649C25.8492 12.4047 25.784 12.1919 25.7042 12.1919C25.6245 12.1919 25.5592 12.4047 25.5592 12.6649C25.5592 12.9249 25.6245 13.1377 25.7042 13.1377C25.784 13.1377 25.8492 12.9249 25.8492 12.6649ZM2.35777 10.9365C2.45198 10.7451 2.49596 10.5526 2.4555 10.5085C2.29063 10.3293 1.92676 11.4342 1.94265 12.0658L1.95969 12.7437L2.07308 12.0141C2.13545 11.6128 2.26356 11.1279 2.35776 10.9365H2.35777ZM26.5742 12.3496C26.5742 12.1762 26.5089 12.0343 26.4292 12.0343C26.3494 12.0343 26.2842 12.1762 26.2842 12.3496C26.2842 12.5229 26.3494 12.6649 26.4292 12.6649C26.5089 12.6649 26.5742 12.5229 26.5742 12.3496ZM25.3602 11.7989C26.6467 11.5313 27.2324 11.1036 26.8595 10.7039C26.5754 10.3994 24.7562 9.55936 21.5071 8.23251C19.086 7.24371 18.8192 7.16584 18.6931 7.4109C18.4801 7.82456 17.4199 9.03916 17.2717 9.03916C16.9693 9.03916 16.9879 8.52719 17.3034 8.16202C17.5622 7.86251 17.5995 7.73114 17.4668 7.58678C17.3721 7.48388 17.2947 7.20105 17.2947 6.95832C17.2947 6.71553 17.2619 6.51689 17.2218 6.51689C17.1818 6.51689 16.924 6.78757 16.6492 7.11836C16.3743 7.44915 15.9153 7.85691 15.6291 8.02445C15.1745 8.2906 15.0913 8.29924 14.9703 8.09297C14.8655 7.91441 14.9547 7.74788 15.3362 7.40982C15.7822 7.01469 15.8157 6.93568 15.6255 6.72894C15.4681 6.55783 15.4492 6.41608 15.5551 6.20106C15.8453 5.61145 15.6851 5.58297 15.0111 6.10418C14.6323 6.39714 14.0514 6.78506 13.7203 6.96631C13.1694 7.26778 13.1018 7.27416 12.9239 7.04108C12.7585 6.82445 12.7685 6.76034 12.9907 6.61222C14.8607 5.36586 15.001 5.2436 14.8257 5.01398C14.6069 4.72728 14.3949 4.71507 14.3949 4.98896C14.3949 5.10246 14.301 5.33297 14.1862 5.50129C13.9984 5.77679 13.955 5.78316 13.7511 5.56504C13.5459 5.34555 13.5517 5.26511 13.8126 4.70881C13.9709 4.37105 14.0698 4.06141 14.0324 4.02072C13.9949 3.9802 13.6174 4.19708 13.1934 4.50308C12.2189 5.20654 11.2819 5.72847 10.9933 5.72847C10.5611 5.72847 10.7615 5.16073 11.2905 4.88648C11.5767 4.73807 12.162 4.37248 12.5912 4.07398L13.3715 3.53133L12.7691 2.58227C12.0458 1.44262 12.0008 1.46342 11.0542 3.37564C10.3117 4.87546 9.65003 5.57165 8.53622 6.0247C6.75645 6.74872 5.35232 6.17437 4.55723 4.39715C4.28939 3.79842 4.27787 3.79163 4.11003 4.13261C3.9599 4.4376 3.99481 4.55331 4.38157 5.03221C5.01162 5.81242 4.96503 6.26761 4.1704 7.09542C3.81014 7.47071 3.44967 7.77779 3.36935 7.77779C3.28903 7.77779 3.1613 7.60042 3.08551 7.38367C2.89859 6.84917 2.70546 6.88808 2.59616 7.48221C2.47305 8.15148 2.48554 9.55143 2.61649 9.76157C2.77523 10.0163 10.6198 11.1512 15.0473 11.56C20.6079 12.0734 23.696 12.1449 25.3602 11.7987L25.3602 11.7989ZM4.2077 6.3344C4.42366 5.94719 4.42264 5.88445 4.19421 5.5054C4.05829 5.27983 3.58238 4.83202 3.13663 4.51029L2.3262 3.92521L1.98162 4.39345C1.79211 4.65096 1.63672 4.91049 1.63633 4.97013C1.63593 5.02977 1.92217 5.30229 2.27242 5.57576C2.62267 5.84924 3.02823 6.31325 3.17367 6.60686C3.40534 7.07456 3.47132 7.11675 3.70607 6.94706C3.85345 6.84053 4.07917 6.56486 4.20769 6.3344H4.2077ZM3.5205 6.28018C3.5205 6.15018 3.45525 6.04377 3.37551 6.04377C3.29576 6.04377 3.23052 5.96774 3.23052 5.87486C3.23052 5.6668 2.99102 5.40084 2.47056 5.03078C2.25194 4.87534 2.10899 4.68498 2.15288 4.60776C2.28218 4.38029 2.50556 4.44702 2.50556 4.7131C2.50556 4.84829 2.57153 4.91454 2.65215 4.86038C2.81387 4.75171 3.66549 5.60353 3.66549 5.87396C3.66549 5.96733 3.73074 6.04377 3.81048 6.04377C3.89023 6.04377 3.95548 6.15018 3.95548 6.28018C3.95548 6.41024 3.85761 6.51666 3.73799 6.51666C3.61837 6.51666 3.5205 6.41024 3.5205 6.28018ZM16.4973 6.20142C16.5465 6.11467 16.5178 6.04377 16.4333 6.04377C16.3489 6.04377 16.2798 6.11467 16.2798 6.20142C16.2798 6.28811 16.3085 6.35901 16.3437 6.35901C16.3789 6.35901 16.448 6.28811 16.4973 6.20142Z"/>
</mask>
<path d="M3.99617 14.4798C2.40472 14.166 1.71711 13.5891 1.44172 12.3367C1.33649 11.8581 1.52301 11.0616 1.8769 10.4784C2.07065 10.1592 2.11904 9.79303 2.08816 8.88026C2.06307 8.13891 2.12789 7.44456 2.26152 7.02285C2.47003 6.36484 2.46671 6.3431 2.11727 6.07868C1.92055 5.92979 1.58869 5.6581 1.3798 5.47483L1 5.14166L1.47791 4.33197C2.00288 3.44249 2.19247 3.37654 2.9428 3.82244L3.44801 4.12266L3.97864 3.56791C4.27049 3.2628 4.57161 3.05498 4.6478 3.10622C4.724 3.15746 4.82464 3.4559 4.87145 3.76953C4.99401 4.59066 5.58053 5.34012 6.35092 5.66001C6.92351 5.8978 7.1167 5.9087 7.8021 5.74193C9.07586 5.432 9.8493 4.74986 10.5871 3.2858C11.2453 1.97974 11.99 1 12.3245 1C12.4305 1 12.5811 1.18273 12.6591 1.40604C12.7372 1.62935 13.004 2.13262 13.252 2.52448C13.6313 3.12386 13.762 3.22455 14.0759 3.15931C14.654 3.03919 14.8083 3.17956 14.9104 3.91967C15.0139 4.67038 15.2677 4.88255 15.706 4.58488C16.1034 4.31505 16.5059 4.61825 16.47 5.16019C16.441 5.59686 16.6538 5.67109 17.2222 5.42264C17.6097 5.25326 18.0197 5.50468 18.0197 5.91168C18.0197 6.18146 18.0576 6.20648 18.2302 6.05074C18.5239 5.78572 19.0072 5.99092 19.0617 6.40381C19.1004 6.69712 19.5695 6.93783 22.2244 8.02618C25.4737 9.35822 27.0987 10.1654 27.4016 10.5978C27.7422 11.0842 27.6258 11.9784 27.1442 12.5747C25.7325 14.3229 22.765 14.7254 11.4732 14.7004C6.85455 14.6903 4.74801 14.628 3.99617 14.4798ZM5.48679 12.9412C5.48185 12.2259 5.53123 11.4811 5.5964 11.286C5.68508 11.0206 5.66126 10.9313 5.50184 10.9313C5.00722 10.9313 4.78924 12.9306 5.19163 13.7766C5.3133 14.0324 5.43148 14.2417 5.45426 14.2417C5.47706 14.2417 5.49169 13.6565 5.48676 12.9412H5.48679ZM6.32517 13.2565C6.27881 12.7146 6.30851 12.0058 6.39112 11.6813C6.59066 10.8977 6.33596 10.7351 6.05482 11.4666C5.80087 12.1274 5.77836 13.0554 5.99955 13.7453C6.25804 14.5515 6.41567 14.3148 6.32517 13.2565ZM7.27048 13.5005C7.15529 12.8301 7.19311 12.1262 7.38521 11.3648C7.42949 11.1894 7.37409 11.0889 7.23315 11.0889C6.92363 11.0889 6.66024 12.2556 6.76076 13.1814C6.854 14.0402 6.93894 14.2417 7.20763 14.2417C7.35567 14.2417 7.36961 14.0774 7.27048 13.5005ZM8.13786 13.581C8.06275 13.2176 8.04562 12.5347 8.09977 12.0634C8.17914 11.3727 8.15951 11.2206 7.99852 11.2789C7.49161 11.4626 7.56999 14.2417 8.08209 14.2417C8.23296 14.2417 8.24498 14.0994 8.13785 13.581H8.13786ZM8.96431 12.823C8.95993 11.8844 8.90268 11.4043 8.79513 11.4042C8.62489 11.4042 8.39928 12.7822 8.50806 13.1575C8.54269 13.277 8.6103 13.5698 8.65836 13.8082C8.83108 14.6652 8.97081 14.2153 8.96431 12.823ZM9.80741 12.9016C9.78653 11.5203 9.61999 11.153 9.42874 12.0664C9.32693 12.5526 9.41049 13.8588 9.56033 14.1235C9.7537 14.465 9.82564 14.1092 9.80741 12.9016ZM10.6507 12.9016C10.6049 11.5942 10.4577 11.2012 10.2815 11.9159C10.0845 12.7153 10.2504 14.2409 10.5345 14.2415C10.6462 14.2418 10.6828 13.8196 10.6507 12.9016ZM11.4493 12.9799C11.4438 12.0463 11.3923 11.7188 11.251 11.7188C11.1129 11.7188 11.0601 11.999 11.0601 12.7306C11.0601 13.2871 11.0997 13.8546 11.1481 13.9917C11.3446 14.5484 11.4564 14.173 11.4493 12.9799ZM12.3106 13.7484C12.2608 13.4775 12.22 12.91 12.22 12.4873C12.22 12.0646 12.1548 11.7188 12.075 11.7188C11.9904 11.7188 11.93 12.2443 11.93 12.9799C11.93 14.039 11.9678 14.2411 12.1656 14.2411C12.3522 14.2411 12.3824 14.1385 12.3106 13.7484ZM13.1147 13.0591C13.0787 12.1665 13.0165 11.8765 12.861 11.8765C12.7193 11.8765 12.6555 12.061 12.6566 12.4676C12.6593 13.3968 12.8226 14.241 13.0002 14.2414C13.1097 14.2417 13.1469 13.8575 13.1147 13.0591ZM14.0479 13.9917C13.9995 13.8546 13.9599 13.3225 13.9599 12.8094C13.9599 12.0852 13.9112 11.8765 13.7424 11.8765C13.5736 11.8765 13.5249 12.0852 13.5249 12.8094C13.5249 13.8998 13.6187 14.2411 13.9184 14.2411C14.0572 14.2411 14.1041 14.1508 14.0479 13.9917ZM14.8134 13.1376C14.8018 12.3086 14.7478 12.0341 14.5964 12.0341C14.4492 12.0341 14.3949 12.2641 14.3949 12.8882C14.3949 13.8046 14.4933 14.2411 14.6999 14.2411C14.7708 14.2411 14.8219 13.7445 14.8134 13.1376ZM15.6431 13.184C15.5775 11.774 15.2648 11.6378 15.2648 13.0193C15.2648 13.5756 15.3083 14.0781 15.3615 14.1359C15.6133 14.4097 15.6883 14.1562 15.6431 13.184ZM16.5154 13.7484C16.4655 13.4774 16.4248 13.0163 16.4248 12.7237C16.4248 12.4311 16.3595 12.1917 16.2798 12.1917C16.198 12.1917 16.1348 12.6383 16.1348 13.2163C16.1348 14.0571 16.1771 14.241 16.3704 14.241C16.5569 14.241 16.5871 14.1385 16.5154 13.7484ZM17.3809 13.26C17.3214 12.3298 17.1471 11.9713 16.9354 12.3437C16.7629 12.6473 17.0195 14.241 17.2409 14.241C17.3997 14.241 17.4301 14.0279 17.3809 13.26ZM18.2789 13.2964C18.2513 12.6705 18.176 12.3512 18.0559 12.3505C17.8632 12.3505 17.788 13.9368 17.9713 14.1361C18.2253 14.4123 18.3172 14.1618 18.2789 13.2964ZM4.67684 13.6792C4.47069 13.0897 4.50391 11.9486 4.74553 11.3198C4.9309 10.8375 4.93004 10.7732 4.73813 10.7732C4.22639 10.7732 3.89926 12.8005 4.26873 13.6821C4.50057 14.2353 4.8704 14.2327 4.67684 13.6821L4.67684 13.6792ZM19.1796 13.3047C19.1796 12.5475 18.9889 12.1737 18.7435 12.45C18.5476 12.6706 18.753 14.0836 18.981 14.0836C19.1223 14.0836 19.1796 13.8591 19.1796 13.3047ZM19.9976 13.4924C19.9482 13.1673 19.907 12.7772 19.9062 12.6254C19.905 12.4737 19.8393 12.3496 19.7596 12.3496C19.6798 12.3496 19.6146 12.7397 19.6146 13.2166C19.6146 13.9131 19.6611 14.0836 19.851 14.0836C20.0436 14.0836 20.0708 13.9738 19.9976 13.4924ZM20.9179 13.8866C20.9123 13.1977 20.7127 12.5072 20.5191 12.5072C20.3484 12.5072 20.321 12.6345 20.3915 13.0984C20.4409 13.4235 20.482 13.7782 20.4829 13.8866C20.4841 13.9949 20.5824 14.0836 20.702 14.0836C20.8216 14.0836 20.9188 13.9949 20.9179 13.8866ZM3.70171 12.8614C3.65151 12.0986 3.69733 11.6261 3.86333 11.1941C4.02847 10.7644 4.04374 10.609 3.91649 10.6532C3.62933 10.7529 3.22459 12.2062 3.31237 12.8225C3.52296 14.301 3.79825 14.3285 3.7017 12.8612L3.70171 12.8614ZM21.7894 13.2166C21.7894 12.6911 21.7331 12.5072 21.572 12.5072C21.4109 12.5072 21.3545 12.6911 21.3545 13.2166C21.3545 13.7421 21.4109 13.9259 21.572 13.9259C21.7331 13.9259 21.7894 13.7421 21.7894 13.2166ZM22.6594 13.2166C22.6594 12.6911 22.603 12.5072 22.4419 12.5072C22.2808 12.5072 22.2244 12.6911 22.2244 13.2166C22.2244 13.7421 22.2808 13.9259 22.4419 13.9259C22.603 13.9259 22.6594 13.7421 22.6594 13.2166ZM23.5294 13.1377C23.5294 12.6824 23.4689 12.5072 23.3119 12.5072C23.1548 12.5072 23.0944 12.6824 23.0944 13.1377C23.0944 13.5932 23.1548 13.7683 23.3119 13.7683C23.4689 13.7683 23.5294 13.5932 23.5294 13.1377ZM2.89561 12.6211C2.89013 11.9925 2.97612 11.4376 3.13128 11.0994C3.4188 10.4727 3.42093 10.4579 3.22343 10.4579C3.00073 10.4579 2.51245 11.7164 2.50874 12.2999C2.506 12.7748 2.72097 13.6107 2.84627 13.6107C2.87811 13.6107 2.9003 13.1654 2.89559 12.6211H2.89561ZM24.3722 13.0074C24.4058 12.6378 24.3585 12.5072 24.191 12.5072C24.0276 12.5072 23.9643 12.6649 23.9643 13.0721C23.9643 13.7843 24.3066 13.73 24.3722 13.0074ZM25.1243 12.9013C25.1243 12.5978 25.059 12.3496 24.9793 12.3496C24.8995 12.3496 24.8343 12.5978 24.8343 12.9013C24.8343 13.2048 24.8995 13.453 24.9793 13.453C25.059 13.453 25.1243 13.2048 25.1243 12.9013ZM25.8492 12.6649C25.8492 12.4047 25.784 12.1919 25.7042 12.1919C25.6245 12.1919 25.5592 12.4047 25.5592 12.6649C25.5592 12.9249 25.6245 13.1377 25.7042 13.1377C25.784 13.1377 25.8492 12.9249 25.8492 12.6649ZM2.35777 10.9365C2.45198 10.7451 2.49596 10.5526 2.4555 10.5085C2.29063 10.3293 1.92676 11.4342 1.94265 12.0658L1.95969 12.7437L2.07308 12.0141C2.13545 11.6128 2.26356 11.1279 2.35776 10.9365H2.35777ZM26.5742 12.3496C26.5742 12.1762 26.5089 12.0343 26.4292 12.0343C26.3494 12.0343 26.2842 12.1762 26.2842 12.3496C26.2842 12.5229 26.3494 12.6649 26.4292 12.6649C26.5089 12.6649 26.5742 12.5229 26.5742 12.3496ZM25.3602 11.7989C26.6467 11.5313 27.2324 11.1036 26.8595 10.7039C26.5754 10.3994 24.7562 9.55936 21.5071 8.23251C19.086 7.24371 18.8192 7.16584 18.6931 7.4109C18.4801 7.82456 17.4199 9.03916 17.2717 9.03916C16.9693 9.03916 16.9879 8.52719 17.3034 8.16202C17.5622 7.86251 17.5995 7.73114 17.4668 7.58678C17.3721 7.48388 17.2947 7.20105 17.2947 6.95832C17.2947 6.71553 17.2619 6.51689 17.2218 6.51689C17.1818 6.51689 16.924 6.78757 16.6492 7.11836C16.3743 7.44915 15.9153 7.85691 15.6291 8.02445C15.1745 8.2906 15.0913 8.29924 14.9703 8.09297C14.8655 7.91441 14.9547 7.74788 15.3362 7.40982C15.7822 7.01469 15.8157 6.93568 15.6255 6.72894C15.4681 6.55783 15.4492 6.41608 15.5551 6.20106C15.8453 5.61145 15.6851 5.58297 15.0111 6.10418C14.6323 6.39714 14.0514 6.78506 13.7203 6.96631C13.1694 7.26778 13.1018 7.27416 12.9239 7.04108C12.7585 6.82445 12.7685 6.76034 12.9907 6.61222C14.8607 5.36586 15.001 5.2436 14.8257 5.01398C14.6069 4.72728 14.3949 4.71507 14.3949 4.98896C14.3949 5.10246 14.301 5.33297 14.1862 5.50129C13.9984 5.77679 13.955 5.78316 13.7511 5.56504C13.5459 5.34555 13.5517 5.26511 13.8126 4.70881C13.9709 4.37105 14.0698 4.06141 14.0324 4.02072C13.9949 3.9802 13.6174 4.19708 13.1934 4.50308C12.2189 5.20654 11.2819 5.72847 10.9933 5.72847C10.5611 5.72847 10.7615 5.16073 11.2905 4.88648C11.5767 4.73807 12.162 4.37248 12.5912 4.07398L13.3715 3.53133L12.7691 2.58227C12.0458 1.44262 12.0008 1.46342 11.0542 3.37564C10.3117 4.87546 9.65003 5.57165 8.53622 6.0247C6.75645 6.74872 5.35232 6.17437 4.55723 4.39715C4.28939 3.79842 4.27787 3.79163 4.11003 4.13261C3.9599 4.4376 3.99481 4.55331 4.38157 5.03221C5.01162 5.81242 4.96503 6.26761 4.1704 7.09542C3.81014 7.47071 3.44967 7.77779 3.36935 7.77779C3.28903 7.77779 3.1613 7.60042 3.08551 7.38367C2.89859 6.84917 2.70546 6.88808 2.59616 7.48221C2.47305 8.15148 2.48554 9.55143 2.61649 9.76157C2.77523 10.0163 10.6198 11.1512 15.0473 11.56C20.6079 12.0734 23.696 12.1449 25.3602 11.7987L25.3602 11.7989ZM4.2077 6.3344C4.42366 5.94719 4.42264 5.88445 4.19421 5.5054C4.05829 5.27983 3.58238 4.83202 3.13663 4.51029L2.3262 3.92521L1.98162 4.39345C1.79211 4.65096 1.63672 4.91049 1.63633 4.97013C1.63593 5.02977 1.92217 5.30229 2.27242 5.57576C2.62267 5.84924 3.02823 6.31325 3.17367 6.60686C3.40534 7.07456 3.47132 7.11675 3.70607 6.94706C3.85345 6.84053 4.07917 6.56486 4.20769 6.3344H4.2077ZM3.5205 6.28018C3.5205 6.15018 3.45525 6.04377 3.37551 6.04377C3.29576 6.04377 3.23052 5.96774 3.23052 5.87486C3.23052 5.6668 2.99102 5.40084 2.47056 5.03078C2.25194 4.87534 2.10899 4.68498 2.15288 4.60776C2.28218 4.38029 2.50556 4.44702 2.50556 4.7131C2.50556 4.84829 2.57153 4.91454 2.65215 4.86038C2.81387 4.75171 3.66549 5.60353 3.66549 5.87396C3.66549 5.96733 3.73074 6.04377 3.81048 6.04377C3.89023 6.04377 3.95548 6.15018 3.95548 6.28018C3.95548 6.41024 3.85761 6.51666 3.73799 6.51666C3.61837 6.51666 3.5205 6.41024 3.5205 6.28018ZM16.4973 6.20142C16.5465 6.11467 16.5178 6.04377 16.4333 6.04377C16.3489 6.04377 16.2798 6.11467 16.2798 6.20142C16.2798 6.28811 16.3085 6.35901 16.3437 6.35901C16.3789 6.35901 16.448 6.28811 16.4973 6.20142Z" fill="#3CB043"/>
<path d="M3.99617 14.4798C2.40472 14.166 1.71711 13.5891 1.44172 12.3367C1.33649 11.8581 1.52301 11.0616 1.8769 10.4784C2.07065 10.1592 2.11904 9.79303 2.08816 8.88026C2.06307 8.13891 2.12789 7.44456 2.26152 7.02285C2.47003 6.36484 2.46671 6.3431 2.11727 6.07868C1.92055 5.92979 1.58869 5.6581 1.3798 5.47483L1 5.14166L1.47791 4.33197C2.00288 3.44249 2.19247 3.37654 2.9428 3.82244L3.44801 4.12266L3.97864 3.56791C4.27049 3.2628 4.57161 3.05498 4.6478 3.10622C4.724 3.15746 4.82464 3.4559 4.87145 3.76953C4.99401 4.59066 5.58053 5.34012 6.35092 5.66001C6.92351 5.8978 7.1167 5.9087 7.8021 5.74193C9.07586 5.432 9.8493 4.74986 10.5871 3.2858C11.2453 1.97974 11.99 1 12.3245 1C12.4305 1 12.5811 1.18273 12.6591 1.40604C12.7372 1.62935 13.004 2.13262 13.252 2.52448C13.6313 3.12386 13.762 3.22455 14.0759 3.15931C14.654 3.03919 14.8083 3.17956 14.9104 3.91967C15.0139 4.67038 15.2677 4.88255 15.706 4.58488C16.1034 4.31505 16.5059 4.61825 16.47 5.16019C16.441 5.59686 16.6538 5.67109 17.2222 5.42264C17.6097 5.25326 18.0197 5.50468 18.0197 5.91168C18.0197 6.18146 18.0576 6.20648 18.2302 6.05074C18.5239 5.78572 19.0072 5.99092 19.0617 6.40381C19.1004 6.69712 19.5695 6.93783 22.2244 8.02618C25.4737 9.35822 27.0987 10.1654 27.4016 10.5978C27.7422 11.0842 27.6258 11.9784 27.1442 12.5747C25.7325 14.3229 22.765 14.7254 11.4732 14.7004C6.85455 14.6903 4.74801 14.628 3.99617 14.4798ZM5.48679 12.9412C5.48185 12.2259 5.53123 11.4811 5.5964 11.286C5.68508 11.0206 5.66126 10.9313 5.50184 10.9313C5.00722 10.9313 4.78924 12.9306 5.19163 13.7766C5.3133 14.0324 5.43148 14.2417 5.45426 14.2417C5.47706 14.2417 5.49169 13.6565 5.48676 12.9412H5.48679ZM6.32517 13.2565C6.27881 12.7146 6.30851 12.0058 6.39112 11.6813C6.59066 10.8977 6.33596 10.7351 6.05482 11.4666C5.80087 12.1274 5.77836 13.0554 5.99955 13.7453C6.25804 14.5515 6.41567 14.3148 6.32517 13.2565ZM7.27048 13.5005C7.15529 12.8301 7.19311 12.1262 7.38521 11.3648C7.42949 11.1894 7.37409 11.0889 7.23315 11.0889C6.92363 11.0889 6.66024 12.2556 6.76076 13.1814C6.854 14.0402 6.93894 14.2417 7.20763 14.2417C7.35567 14.2417 7.36961 14.0774 7.27048 13.5005ZM8.13786 13.581C8.06275 13.2176 8.04562 12.5347 8.09977 12.0634C8.17914 11.3727 8.15951 11.2206 7.99852 11.2789C7.49161 11.4626 7.56999 14.2417 8.08209 14.2417C8.23296 14.2417 8.24498 14.0994 8.13785 13.581H8.13786ZM8.96431 12.823C8.95993 11.8844 8.90268 11.4043 8.79513 11.4042C8.62489 11.4042 8.39928 12.7822 8.50806 13.1575C8.54269 13.277 8.6103 13.5698 8.65836 13.8082C8.83108 14.6652 8.97081 14.2153 8.96431 12.823ZM9.80741 12.9016C9.78653 11.5203 9.61999 11.153 9.42874 12.0664C9.32693 12.5526 9.41049 13.8588 9.56033 14.1235C9.7537 14.465 9.82564 14.1092 9.80741 12.9016ZM10.6507 12.9016C10.6049 11.5942 10.4577 11.2012 10.2815 11.9159C10.0845 12.7153 10.2504 14.2409 10.5345 14.2415C10.6462 14.2418 10.6828 13.8196 10.6507 12.9016ZM11.4493 12.9799C11.4438 12.0463 11.3923 11.7188 11.251 11.7188C11.1129 11.7188 11.0601 11.999 11.0601 12.7306C11.0601 13.2871 11.0997 13.8546 11.1481 13.9917C11.3446 14.5484 11.4564 14.173 11.4493 12.9799ZM12.3106 13.7484C12.2608 13.4775 12.22 12.91 12.22 12.4873C12.22 12.0646 12.1548 11.7188 12.075 11.7188C11.9904 11.7188 11.93 12.2443 11.93 12.9799C11.93 14.039 11.9678 14.2411 12.1656 14.2411C12.3522 14.2411 12.3824 14.1385 12.3106 13.7484ZM13.1147 13.0591C13.0787 12.1665 13.0165 11.8765 12.861 11.8765C12.7193 11.8765 12.6555 12.061 12.6566 12.4676C12.6593 13.3968 12.8226 14.241 13.0002 14.2414C13.1097 14.2417 13.1469 13.8575 13.1147 13.0591ZM14.0479 13.9917C13.9995 13.8546 13.9599 13.3225 13.9599 12.8094C13.9599 12.0852 13.9112 11.8765 13.7424 11.8765C13.5736 11.8765 13.5249 12.0852 13.5249 12.8094C13.5249 13.8998 13.6187 14.2411 13.9184 14.2411C14.0572 14.2411 14.1041 14.1508 14.0479 13.9917ZM14.8134 13.1376C14.8018 12.3086 14.7478 12.0341 14.5964 12.0341C14.4492 12.0341 14.3949 12.2641 14.3949 12.8882C14.3949 13.8046 14.4933 14.2411 14.6999 14.2411C14.7708 14.2411 14.8219 13.7445 14.8134 13.1376ZM15.6431 13.184C15.5775 11.774 15.2648 11.6378 15.2648 13.0193C15.2648 13.5756 15.3083 14.0781 15.3615 14.1359C15.6133 14.4097 15.6883 14.1562 15.6431 13.184ZM16.5154 13.7484C16.4655 13.4774 16.4248 13.0163 16.4248 12.7237C16.4248 12.4311 16.3595 12.1917 16.2798 12.1917C16.198 12.1917 16.1348 12.6383 16.1348 13.2163C16.1348 14.0571 16.1771 14.241 16.3704 14.241C16.5569 14.241 16.5871 14.1385 16.5154 13.7484ZM17.3809 13.26C17.3214 12.3298 17.1471 11.9713 16.9354 12.3437C16.7629 12.6473 17.0195 14.241 17.2409 14.241C17.3997 14.241 17.4301 14.0279 17.3809 13.26ZM18.2789 13.2964C18.2513 12.6705 18.176 12.3512 18.0559 12.3505C17.8632 12.3505 17.788 13.9368 17.9713 14.1361C18.2253 14.4123 18.3172 14.1618 18.2789 13.2964ZM4.67684 13.6792C4.47069 13.0897 4.50391 11.9486 4.74553 11.3198C4.9309 10.8375 4.93004 10.7732 4.73813 10.7732C4.22639 10.7732 3.89926 12.8005 4.26873 13.6821C4.50057 14.2353 4.8704 14.2327 4.67684 13.6821L4.67684 13.6792ZM19.1796 13.3047C19.1796 12.5475 18.9889 12.1737 18.7435 12.45C18.5476 12.6706 18.753 14.0836 18.981 14.0836C19.1223 14.0836 19.1796 13.8591 19.1796 13.3047ZM19.9976 13.4924C19.9482 13.1673 19.907 12.7772 19.9062 12.6254C19.905 12.4737 19.8393 12.3496 19.7596 12.3496C19.6798 12.3496 19.6146 12.7397 19.6146 13.2166C19.6146 13.9131 19.6611 14.0836 19.851 14.0836C20.0436 14.0836 20.0708 13.9738 19.9976 13.4924ZM20.9179 13.8866C20.9123 13.1977 20.7127 12.5072 20.5191 12.5072C20.3484 12.5072 20.321 12.6345 20.3915 13.0984C20.4409 13.4235 20.482 13.7782 20.4829 13.8866C20.4841 13.9949 20.5824 14.0836 20.702 14.0836C20.8216 14.0836 20.9188 13.9949 20.9179 13.8866ZM3.70171 12.8614C3.65151 12.0986 3.69733 11.6261 3.86333 11.1941C4.02847 10.7644 4.04374 10.609 3.91649 10.6532C3.62933 10.7529 3.22459 12.2062 3.31237 12.8225C3.52296 14.301 3.79825 14.3285 3.7017 12.8612L3.70171 12.8614ZM21.7894 13.2166C21.7894 12.6911 21.7331 12.5072 21.572 12.5072C21.4109 12.5072 21.3545 12.6911 21.3545 13.2166C21.3545 13.7421 21.4109 13.9259 21.572 13.9259C21.7331 13.9259 21.7894 13.7421 21.7894 13.2166ZM22.6594 13.2166C22.6594 12.6911 22.603 12.5072 22.4419 12.5072C22.2808 12.5072 22.2244 12.6911 22.2244 13.2166C22.2244 13.7421 22.2808 13.9259 22.4419 13.9259C22.603 13.9259 22.6594 13.7421 22.6594 13.2166ZM23.5294 13.1377C23.5294 12.6824 23.4689 12.5072 23.3119 12.5072C23.1548 12.5072 23.0944 12.6824 23.0944 13.1377C23.0944 13.5932 23.1548 13.7683 23.3119 13.7683C23.4689 13.7683 23.5294 13.5932 23.5294 13.1377ZM2.89561 12.6211C2.89013 11.9925 2.97612 11.4376 3.13128 11.0994C3.4188 10.4727 3.42093 10.4579 3.22343 10.4579C3.00073 10.4579 2.51245 11.7164 2.50874 12.2999C2.506 12.7748 2.72097 13.6107 2.84627 13.6107C2.87811 13.6107 2.9003 13.1654 2.89559 12.6211H2.89561ZM24.3722 13.0074C24.4058 12.6378 24.3585 12.5072 24.191 12.5072C24.0276 12.5072 23.9643 12.6649 23.9643 13.0721C23.9643 13.7843 24.3066 13.73 24.3722 13.0074ZM25.1243 12.9013C25.1243 12.5978 25.059 12.3496 24.9793 12.3496C24.8995 12.3496 24.8343 12.5978 24.8343 12.9013C24.8343 13.2048 24.8995 13.453 24.9793 13.453C25.059 13.453 25.1243 13.2048 25.1243 12.9013ZM25.8492 12.6649C25.8492 12.4047 25.784 12.1919 25.7042 12.1919C25.6245 12.1919 25.5592 12.4047 25.5592 12.6649C25.5592 12.9249 25.6245 13.1377 25.7042 13.1377C25.784 13.1377 25.8492 12.9249 25.8492 12.6649ZM2.35777 10.9365C2.45198 10.7451 2.49596 10.5526 2.4555 10.5085C2.29063 10.3293 1.92676 11.4342 1.94265 12.0658L1.95969 12.7437L2.07308 12.0141C2.13545 11.6128 2.26356 11.1279 2.35776 10.9365H2.35777ZM26.5742 12.3496C26.5742 12.1762 26.5089 12.0343 26.4292 12.0343C26.3494 12.0343 26.2842 12.1762 26.2842 12.3496C26.2842 12.5229 26.3494 12.6649 26.4292 12.6649C26.5089 12.6649 26.5742 12.5229 26.5742 12.3496ZM25.3602 11.7989C26.6467 11.5313 27.2324 11.1036 26.8595 10.7039C26.5754 10.3994 24.7562 9.55936 21.5071 8.23251C19.086 7.24371 18.8192 7.16584 18.6931 7.4109C18.4801 7.82456 17.4199 9.03916 17.2717 9.03916C16.9693 9.03916 16.9879 8.52719 17.3034 8.16202C17.5622 7.86251 17.5995 7.73114 17.4668 7.58678C17.3721 7.48388 17.2947 7.20105 17.2947 6.95832C17.2947 6.71553 17.2619 6.51689 17.2218 6.51689C17.1818 6.51689 16.924 6.78757 16.6492 7.11836C16.3743 7.44915 15.9153 7.85691 15.6291 8.02445C15.1745 8.2906 15.0913 8.29924 14.9703 8.09297C14.8655 7.91441 14.9547 7.74788 15.3362 7.40982C15.7822 7.01469 15.8157 6.93568 15.6255 6.72894C15.4681 6.55783 15.4492 6.41608 15.5551 6.20106C15.8453 5.61145 15.6851 5.58297 15.0111 6.10418C14.6323 6.39714 14.0514 6.78506 13.7203 6.96631C13.1694 7.26778 13.1018 7.27416 12.9239 7.04108C12.7585 6.82445 12.7685 6.76034 12.9907 6.61222C14.8607 5.36586 15.001 5.2436 14.8257 5.01398C14.6069 4.72728 14.3949 4.71507 14.3949 4.98896C14.3949 5.10246 14.301 5.33297 14.1862 5.50129C13.9984 5.77679 13.955 5.78316 13.7511 5.56504C13.5459 5.34555 13.5517 5.26511 13.8126 4.70881C13.9709 4.37105 14.0698 4.06141 14.0324 4.02072C13.9949 3.9802 13.6174 4.19708 13.1934 4.50308C12.2189 5.20654 11.2819 5.72847 10.9933 5.72847C10.5611 5.72847 10.7615 5.16073 11.2905 4.88648C11.5767 4.73807 12.162 4.37248 12.5912 4.07398L13.3715 3.53133L12.7691 2.58227C12.0458 1.44262 12.0008 1.46342 11.0542 3.37564C10.3117 4.87546 9.65003 5.57165 8.53622 6.0247C6.75645 6.74872 5.35232 6.17437 4.55723 4.39715C4.28939 3.79842 4.27787 3.79163 4.11003 4.13261C3.9599 4.4376 3.99481 4.55331 4.38157 5.03221C5.01162 5.81242 4.96503 6.26761 4.1704 7.09542C3.81014 7.47071 3.44967 7.77779 3.36935 7.77779C3.28903 7.77779 3.1613 7.60042 3.08551 7.38367C2.89859 6.84917 2.70546 6.88808 2.59616 7.48221C2.47305 8.15148 2.48554 9.55143 2.61649 9.76157C2.77523 10.0163 10.6198 11.1512 15.0473 11.56C20.6079 12.0734 23.696 12.1449 25.3602 11.7987L25.3602 11.7989ZM4.2077 6.3344C4.42366 5.94719 4.42264 5.88445 4.19421 5.5054C4.05829 5.27983 3.58238 4.83202 3.13663 4.51029L2.3262 3.92521L1.98162 4.39345C1.79211 4.65096 1.63672 4.91049 1.63633 4.97013C1.63593 5.02977 1.92217 5.30229 2.27242 5.57576C2.62267 5.84924 3.02823 6.31325 3.17367 6.60686C3.40534 7.07456 3.47132 7.11675 3.70607 6.94706C3.85345 6.84053 4.07917 6.56486 4.20769 6.3344H4.2077ZM3.5205 6.28018C3.5205 6.15018 3.45525 6.04377 3.37551 6.04377C3.29576 6.04377 3.23052 5.96774 3.23052 5.87486C3.23052 5.6668 2.99102 5.40084 2.47056 5.03078C2.25194 4.87534 2.10899 4.68498 2.15288 4.60776C2.28218 4.38029 2.50556 4.44702 2.50556 4.7131C2.50556 4.84829 2.57153 4.91454 2.65215 4.86038C2.81387 4.75171 3.66549 5.60353 3.66549 5.87396C3.66549 5.96733 3.73074 6.04377 3.81048 6.04377C3.89023 6.04377 3.95548 6.15018 3.95548 6.28018C3.95548 6.41024 3.85761 6.51666 3.73799 6.51666C3.61837 6.51666 3.5205 6.41024 3.5205 6.28018ZM16.4973 6.20142C16.5465 6.11467 16.5178 6.04377 16.4333 6.04377C16.3489 6.04377 16.2798 6.11467 16.2798 6.20142C16.2798 6.28811 16.3085 6.35901 16.3437 6.35901C16.3789 6.35901 16.448 6.28811 16.4973 6.20142Z" stroke="#3CB043" stroke-width="0.402985" mask="url(#path-1-outside-1)"/>
</svg>
