<svg width="22" height="23" viewBox="0 0 22 23" fill="none" xmlns="http://www.w3.org/2000/svg">
<mask id="path-1-outside-1" maskUnits="userSpaceOnUse" x="-0.775391" y="0" width="23" height="23" fill="black">
<rect fill="white" x="-0.775391" width="23" height="23"/>
<path d="M9.71422 21.9283C9.12266 21.8718 8.11834 21.6635 7.51792 21.4726C4.31538 20.4549 1.78735 17.9525 0.735606 14.759C0.375342 13.6652 0.225606 12.7046 0.224613 11.4809C0.223296 9.78473 0.541352 8.40527 1.28547 6.88064C1.83497 5.75478 2.42741 4.92999 3.3296 4.03479C6.12885 1.25725 10.2249 0.293918 13.9811 1.5297C17.2786 2.61456 19.8093 5.2511 20.7759 8.60863C21.8424 12.3133 20.7583 16.349 17.9802 19.0163C16.3599 20.572 14.4016 21.5327 12.1737 21.865C11.6055 21.9497 10.2927 21.9835 9.71422 21.9283V21.9283ZM11.7725 21.2754C15.1112 20.9068 18.0671 18.8274 19.5361 15.8137C19.978 14.9073 20.2555 14.046 20.4347 13.0249C20.5451 12.3963 20.5442 10.55 20.4332 9.93511C20.2409 8.86922 19.9752 8.04516 19.5348 7.14824C18.567 5.17756 16.9947 3.60566 15.0264 2.64098C13.5521 1.9184 12.0551 1.60044 10.37 1.65193C7.88571 1.72789 5.65163 2.67221 3.8634 4.40227C2.31589 5.89946 1.35744 7.70646 0.974936 9.84802C0.887325 10.3386 0.873832 10.5564 0.873832 11.4809C0.873832 12.4054 0.88725 12.6233 0.974936 13.1139C1.35749 15.2557 2.31552 17.0629 3.86048 18.5572C5.4731 20.1168 7.52813 21.0739 9.73474 21.293C10.0996 21.3293 11.3855 21.3181 11.7726 21.276L11.7725 21.2754ZM10.6633 20.4004C10.6111 20.3747 10.5285 20.2609 10.4798 20.1476C10.4051 19.974 10.3609 19.9301 10.1981 19.8679C9.81776 19.7227 9.82471 19.371 10.2108 19.2284C10.3727 19.1687 10.4118 19.1294 10.4716 18.9676C10.6155 18.5783 10.9342 18.5669 11.1284 18.9442C11.2122 19.107 11.2824 19.177 11.4332 19.2482C11.7951 19.4192 11.7749 19.7363 11.3925 19.8846C11.2331 19.9464 11.1891 19.9892 11.1406 20.129C11.1083 20.2224 11.0581 20.3218 11.0289 20.3502C10.9488 20.4283 10.7698 20.4528 10.6633 20.4003L10.6633 20.4004ZM6.66606 19.1755C6.63004 19.1206 6.57903 19.0138 6.55269 18.9383C6.5171 18.8362 6.46375 18.7877 6.34496 18.7497C6.12437 18.679 6.03268 18.5876 6.03268 18.4385C6.03268 18.2471 6.09664 18.164 6.30523 18.0844C6.46662 18.0228 6.5083 17.9801 6.5858 17.7966C6.68387 17.5645 6.80076 17.4984 7.01721 17.5527C7.10089 17.5737 7.15456 17.6378 7.22169 17.7966C7.29918 17.9801 7.34087 18.0227 7.50226 18.0844C7.71085 18.1639 7.77481 18.2471 7.77481 18.4385C7.77481 18.5867 7.68575 18.6764 7.4596 18.7562C7.3324 18.8011 7.28599 18.8474 7.24722 18.9684C7.17269 19.2008 7.08776 19.2755 6.898 19.2755C6.77248 19.2755 6.71544 19.251 6.66606 19.1756L6.66606 19.1755ZM14.4621 19.1755C14.4261 19.1206 14.376 19.0165 14.3507 18.9441C14.3163 18.8453 14.2515 18.7899 14.0905 18.722C13.9282 18.6534 13.8689 18.6024 13.8462 18.5119C13.7954 18.3094 13.8738 18.175 14.0893 18.0954C14.2934 18.02 14.3112 18.0006 14.4127 17.742C14.482 17.5656 14.6147 17.5029 14.8132 17.5527C14.896 17.5735 14.9503 17.6371 15.014 17.7877C15.0874 17.9616 15.1367 18.0113 15.3252 18.1015C15.5313 18.2001 15.5501 18.222 15.5628 18.3762C15.5794 18.578 15.505 18.674 15.2724 18.7508C15.1407 18.7943 15.0942 18.8388 15.0499 18.9644C14.9656 19.2035 14.8832 19.2755 14.694 19.2755C14.5685 19.2755 14.5115 19.2509 14.4621 19.1755V19.1755ZM10.1485 17.4645C9.24218 17.3342 8.78595 17.2062 8.12758 16.8976C7.53315 16.6189 7.02904 16.2672 6.52982 15.783C5.62828 14.9085 5.0743 13.8993 4.80615 12.6431C4.67256 12.0172 4.67295 10.9524 4.80698 10.3188C5.05424 9.15003 5.55363 8.19282 6.35142 7.35848C7.23342 6.43606 8.26156 5.8659 9.53049 5.59549C10.1607 5.46115 11.225 5.46115 11.8552 5.59549C12.6162 5.7576 13.6915 6.19296 13.7578 6.3657C13.8093 6.49985 13.7851 6.67755 13.7055 6.74959C13.583 6.8605 13.42 6.83688 13.0312 6.6521C12.581 6.43816 12.0583 6.27336 11.5481 6.18448C10.9637 6.08264 9.9875 6.12194 9.4202 6.26988C7.42988 6.78938 6.02004 8.19762 5.47719 10.2084C5.37224 10.5971 5.36292 10.701 5.36292 11.4808C5.36292 12.2578 5.37248 12.3653 5.47569 12.7473C5.78324 13.8855 6.35999 14.8335 7.16057 15.5165C8.20667 16.4091 9.35834 16.8368 10.7155 16.8368C12.1579 16.8368 13.4562 16.297 14.4831 15.2703C15.2896 14.464 15.777 13.5257 15.9878 12.3735C16.0793 11.8733 16.0543 10.7992 15.9392 10.2822C15.8466 9.86644 15.8704 9.72625 16.0461 9.65347C16.3276 9.53689 16.4482 9.67746 16.5709 10.2651C16.7525 11.1345 16.7304 12.0699 16.5071 12.9646C15.9535 15.1829 14.1325 16.9111 11.872 17.3635C11.4734 17.4432 10.4274 17.5044 10.1484 17.4644L10.1485 17.4645ZM3.68953 16.2683C3.6275 16.2437 3.55483 16.1455 3.49863 16.0102C3.4204 15.822 3.38424 15.7848 3.23649 15.7406C2.84052 15.6219 2.8462 15.1907 3.24527 15.0731C3.39881 15.0277 3.45021 14.9782 3.48377 14.843C3.5845 14.4372 4.03227 14.4252 4.15211 14.826C4.19636 14.9735 4.23361 15.0098 4.42141 15.0879C4.80784 15.2485 4.80438 15.5509 4.41398 15.7375C4.25882 15.8115 4.19922 15.8695 4.16191 15.9826C4.08111 16.2273 3.88452 16.3466 3.68953 16.2692L3.68953 16.2683ZM17.4072 16.2677C17.3445 16.2427 17.271 16.1458 17.2155 16.0143C17.1398 15.8352 17.0984 15.7924 16.9548 15.745C16.5597 15.6147 16.5659 15.1905 16.9645 15.073C17.1181 15.0277 17.1695 14.9782 17.203 14.8429C17.2437 14.6793 17.3951 14.529 17.5194 14.529C17.6898 14.529 17.7801 14.6038 17.8589 14.81C17.9221 14.9753 17.9625 15.016 18.1261 15.0784C18.3387 15.1597 18.4018 15.2417 18.4018 15.4374C18.4018 15.5852 18.256 15.7255 18.0576 15.7691C17.9634 15.7897 17.9223 15.8354 17.8787 15.9674C17.7909 16.2334 17.6105 16.3483 17.4072 16.2677H17.4072ZM7.89431 13.7994C6.6872 12.592 6.55532 12.4462 6.55532 12.3185C6.55532 12.1968 6.63533 12.092 7.12616 11.5712C7.44141 11.2366 7.74407 10.9536 7.80213 10.9391C7.85995 10.9239 7.95095 10.9353 8.00436 10.9619C8.05776 10.9889 8.40036 11.3077 8.76569 11.6701L9.42992 12.329L12.3814 9.37931C14.099 7.66264 15.3655 6.42963 15.4111 6.42963C15.5544 6.42963 15.6758 6.52241 16.1727 7.01133C16.7019 7.53202 16.8066 7.67761 16.7667 7.83672C16.7525 7.89321 15.1428 9.5359 13.1393 11.5384C9.74141 14.9347 9.52887 15.1386 9.38539 15.1386C9.24397 15.1386 9.13944 15.0447 7.89431 13.7993V13.7994ZM12.7079 11.0556L16.0075 7.75642L15.7233 7.47476L15.439 7.1931L12.4888 10.1425C9.92728 12.7033 9.52166 13.092 9.41092 13.092C9.30442 13.092 9.16754 12.977 8.58188 12.3953L7.88039 11.6986L7.6845 11.9054C7.57677 12.0192 7.45117 12.1573 7.40539 12.2122L7.32217 12.3122L8.34299 13.3335C8.90444 13.8952 9.37381 14.3548 9.38604 14.3548C9.39826 14.3548 10.8931 12.8702 12.7079 11.0556L12.7079 11.0556ZM2.54107 12.3078C2.50109 12.2838 2.43599 12.1795 2.3964 12.0759C2.33543 11.9162 2.2919 11.8737 2.11175 11.7976C1.95542 11.7316 1.89154 11.6778 1.87061 11.5943C1.81672 11.3796 1.88265 11.2609 2.1088 11.1654C2.28785 11.0898 2.33145 11.0462 2.4071 10.8671C2.50266 10.641 2.62138 10.5751 2.8361 10.629C2.91951 10.65 2.97337 10.7138 3.03942 10.8701C3.11561 11.0503 3.15802 11.0937 3.31843 11.1549C3.53453 11.2375 3.60471 11.338 3.58542 11.5373C3.57382 11.6573 3.54088 11.6917 3.35106 11.7826C3.16804 11.8703 3.11208 11.9262 3.02442 12.1092C2.9296 12.3071 2.90281 12.3311 2.76619 12.3407C2.68235 12.3463 2.58105 12.3312 2.54107 12.3078V12.3078ZM18.4056 12.2587C18.358 12.2075 18.3064 12.1081 18.2909 12.0376C18.2688 11.9371 18.2192 11.8912 18.0601 11.8238C17.6176 11.6367 17.6359 11.333 18.1022 11.1231C18.211 11.0741 18.2695 11.0139 18.2906 10.9289C18.3675 10.6193 18.7013 10.5003 18.8747 10.7208C18.9227 10.7818 18.9746 10.8891 18.99 10.9595C19.0124 11.0612 19.0531 11.0978 19.1883 11.1383C19.626 11.2694 19.6275 11.6833 19.191 11.8273C19.0551 11.8721 19.0097 11.9127 18.9888 12.0074C18.9185 12.3276 18.5985 12.4654 18.4057 12.2585L18.4056 12.2587ZM3.73768 8.14966C3.68644 8.11377 3.61231 8.00002 3.57294 7.89705C3.51304 7.74022 3.47181 7.69937 3.32027 7.64658C2.94263 7.51508 2.93086 7.18195 3.29765 7.00669C3.46066 6.92884 3.52006 6.86895 3.58905 6.71299C3.68556 6.49486 3.83026 6.40299 4.00735 6.44743C4.09337 6.46897 4.1483 6.53454 4.22418 6.7061C4.31291 6.90666 4.34843 6.94262 4.50392 6.98919C4.88497 7.10331 4.88966 7.48067 4.51202 7.64309C4.33633 7.71866 4.29214 7.76269 4.23061 7.9238C4.12971 8.18796 3.92579 8.28141 3.73767 8.14966H3.73768ZM6.72217 5.42653C6.68219 5.40329 6.6161 5.29673 6.57531 5.18994C6.51243 5.02537 6.47179 4.98454 6.3084 4.92215C6.10445 4.8443 6.03268 4.75815 6.03268 4.59148C6.03268 4.4373 6.13862 4.31711 6.32368 4.26124C6.46354 4.21892 6.5073 4.17452 6.59887 3.98128C6.70651 3.75419 6.70999 3.75157 6.90374 3.75157C7.09731 3.75157 7.10108 3.75346 7.20862 3.98019C7.29606 4.16384 7.34751 4.21848 7.46993 4.25786C7.68331 4.32645 7.77481 4.41922 7.77481 4.56676C7.77481 4.75966 7.70724 4.84731 7.49649 4.92778C7.33417 4.98975 7.29287 5.03094 7.23088 5.19334C7.13203 5.45212 6.92706 5.54608 6.72217 5.42653ZM14.5211 5.42818C14.4828 5.40569 14.4183 5.30083 14.3779 5.19513C14.315 5.03038 14.2738 4.99009 14.09 4.9137C13.8588 4.81772 13.7936 4.70286 13.8477 4.48726C13.8687 4.40355 13.9328 4.34989 14.0916 4.28282C14.2751 4.20535 14.3178 4.1636 14.3795 4.0023C14.4591 3.79374 14.5422 3.7298 14.7337 3.7298C14.8811 3.7298 14.9716 3.81879 15.0499 4.04086C15.0942 4.16632 15.1407 4.21091 15.2724 4.25446C15.505 4.33117 15.5794 4.42734 15.5628 4.62908C15.5501 4.7842 15.5319 4.8048 15.3193 4.90552C15.1261 4.99716 15.0815 5.0408 15.0393 5.18064C14.9628 5.43377 14.7251 5.54736 14.5211 5.42818ZM10.6167 4.27254C10.5642 4.2357 10.4984 4.12951 10.4705 4.0364C10.4273 3.89224 10.3885 3.85426 10.2081 3.77921C9.95003 3.67189 9.87026 3.53632 9.95087 3.34175C9.98995 3.24747 10.06 3.19003 10.2023 3.13571C10.3708 3.07128 10.4121 3.03027 10.4853 2.85425C10.644 2.47229 10.9893 2.47009 11.1298 2.85048C11.1883 3.00881 11.2335 3.05372 11.4235 3.14171C11.5877 3.21786 11.6558 3.27662 11.6768 3.36049C11.7214 3.53791 11.6292 3.68187 11.4083 3.77957C11.2487 3.85023 11.1935 3.90484 11.1283 4.05699C11.011 4.33064 10.8165 4.41272 10.6167 4.27284V4.27254Z"/>
</mask>
<path d="M9.71422 21.9283C9.12266 21.8718 8.11834 21.6635 7.51792 21.4726C4.31538 20.4549 1.78735 17.9525 0.735606 14.759C0.375342 13.6652 0.225606 12.7046 0.224613 11.4809C0.223296 9.78473 0.541352 8.40527 1.28547 6.88064C1.83497 5.75478 2.42741 4.92999 3.3296 4.03479C6.12885 1.25725 10.2249 0.293918 13.9811 1.5297C17.2786 2.61456 19.8093 5.2511 20.7759 8.60863C21.8424 12.3133 20.7583 16.349 17.9802 19.0163C16.3599 20.572 14.4016 21.5327 12.1737 21.865C11.6055 21.9497 10.2927 21.9835 9.71422 21.9283V21.9283ZM11.7725 21.2754C15.1112 20.9068 18.0671 18.8274 19.5361 15.8137C19.978 14.9073 20.2555 14.046 20.4347 13.0249C20.5451 12.3963 20.5442 10.55 20.4332 9.93511C20.2409 8.86922 19.9752 8.04516 19.5348 7.14824C18.567 5.17756 16.9947 3.60566 15.0264 2.64098C13.5521 1.9184 12.0551 1.60044 10.37 1.65193C7.88571 1.72789 5.65163 2.67221 3.8634 4.40227C2.31589 5.89946 1.35744 7.70646 0.974936 9.84802C0.887325 10.3386 0.873832 10.5564 0.873832 11.4809C0.873832 12.4054 0.88725 12.6233 0.974936 13.1139C1.35749 15.2557 2.31552 17.0629 3.86048 18.5572C5.4731 20.1168 7.52813 21.0739 9.73474 21.293C10.0996 21.3293 11.3855 21.3181 11.7726 21.276L11.7725 21.2754ZM10.6633 20.4004C10.6111 20.3747 10.5285 20.2609 10.4798 20.1476C10.4051 19.974 10.3609 19.9301 10.1981 19.8679C9.81776 19.7227 9.82471 19.371 10.2108 19.2284C10.3727 19.1687 10.4118 19.1294 10.4716 18.9676C10.6155 18.5783 10.9342 18.5669 11.1284 18.9442C11.2122 19.107 11.2824 19.177 11.4332 19.2482C11.7951 19.4192 11.7749 19.7363 11.3925 19.8846C11.2331 19.9464 11.1891 19.9892 11.1406 20.129C11.1083 20.2224 11.0581 20.3218 11.0289 20.3502C10.9488 20.4283 10.7698 20.4528 10.6633 20.4003L10.6633 20.4004ZM6.66606 19.1755C6.63004 19.1206 6.57903 19.0138 6.55269 18.9383C6.5171 18.8362 6.46375 18.7877 6.34496 18.7497C6.12437 18.679 6.03268 18.5876 6.03268 18.4385C6.03268 18.2471 6.09664 18.164 6.30523 18.0844C6.46662 18.0228 6.5083 17.9801 6.5858 17.7966C6.68387 17.5645 6.80076 17.4984 7.01721 17.5527C7.10089 17.5737 7.15456 17.6378 7.22169 17.7966C7.29918 17.9801 7.34087 18.0227 7.50226 18.0844C7.71085 18.1639 7.77481 18.2471 7.77481 18.4385C7.77481 18.5867 7.68575 18.6764 7.4596 18.7562C7.3324 18.8011 7.28599 18.8474 7.24722 18.9684C7.17269 19.2008 7.08776 19.2755 6.898 19.2755C6.77248 19.2755 6.71544 19.251 6.66606 19.1756L6.66606 19.1755ZM14.4621 19.1755C14.4261 19.1206 14.376 19.0165 14.3507 18.9441C14.3163 18.8453 14.2515 18.7899 14.0905 18.722C13.9282 18.6534 13.8689 18.6024 13.8462 18.5119C13.7954 18.3094 13.8738 18.175 14.0893 18.0954C14.2934 18.02 14.3112 18.0006 14.4127 17.742C14.482 17.5656 14.6147 17.5029 14.8132 17.5527C14.896 17.5735 14.9503 17.6371 15.014 17.7877C15.0874 17.9616 15.1367 18.0113 15.3252 18.1015C15.5313 18.2001 15.5501 18.222 15.5628 18.3762C15.5794 18.578 15.505 18.674 15.2724 18.7508C15.1407 18.7943 15.0942 18.8388 15.0499 18.9644C14.9656 19.2035 14.8832 19.2755 14.694 19.2755C14.5685 19.2755 14.5115 19.2509 14.4621 19.1755V19.1755ZM10.1485 17.4645C9.24218 17.3342 8.78595 17.2062 8.12758 16.8976C7.53315 16.6189 7.02904 16.2672 6.52982 15.783C5.62828 14.9085 5.0743 13.8993 4.80615 12.6431C4.67256 12.0172 4.67295 10.9524 4.80698 10.3188C5.05424 9.15003 5.55363 8.19282 6.35142 7.35848C7.23342 6.43606 8.26156 5.8659 9.53049 5.59549C10.1607 5.46115 11.225 5.46115 11.8552 5.59549C12.6162 5.7576 13.6915 6.19296 13.7578 6.3657C13.8093 6.49985 13.7851 6.67755 13.7055 6.74959C13.583 6.8605 13.42 6.83688 13.0312 6.6521C12.581 6.43816 12.0583 6.27336 11.5481 6.18448C10.9637 6.08264 9.9875 6.12194 9.4202 6.26988C7.42988 6.78938 6.02004 8.19762 5.47719 10.2084C5.37224 10.5971 5.36292 10.701 5.36292 11.4808C5.36292 12.2578 5.37248 12.3653 5.47569 12.7473C5.78324 13.8855 6.35999 14.8335 7.16057 15.5165C8.20667 16.4091 9.35834 16.8368 10.7155 16.8368C12.1579 16.8368 13.4562 16.297 14.4831 15.2703C15.2896 14.464 15.777 13.5257 15.9878 12.3735C16.0793 11.8733 16.0543 10.7992 15.9392 10.2822C15.8466 9.86644 15.8704 9.72625 16.0461 9.65347C16.3276 9.53689 16.4482 9.67746 16.5709 10.2651C16.7525 11.1345 16.7304 12.0699 16.5071 12.9646C15.9535 15.1829 14.1325 16.9111 11.872 17.3635C11.4734 17.4432 10.4274 17.5044 10.1484 17.4644L10.1485 17.4645ZM3.68953 16.2683C3.6275 16.2437 3.55483 16.1455 3.49863 16.0102C3.4204 15.822 3.38424 15.7848 3.23649 15.7406C2.84052 15.6219 2.8462 15.1907 3.24527 15.0731C3.39881 15.0277 3.45021 14.9782 3.48377 14.843C3.5845 14.4372 4.03227 14.4252 4.15211 14.826C4.19636 14.9735 4.23361 15.0098 4.42141 15.0879C4.80784 15.2485 4.80438 15.5509 4.41398 15.7375C4.25882 15.8115 4.19922 15.8695 4.16191 15.9826C4.08111 16.2273 3.88452 16.3466 3.68953 16.2692L3.68953 16.2683ZM17.4072 16.2677C17.3445 16.2427 17.271 16.1458 17.2155 16.0143C17.1398 15.8352 17.0984 15.7924 16.9548 15.745C16.5597 15.6147 16.5659 15.1905 16.9645 15.073C17.1181 15.0277 17.1695 14.9782 17.203 14.8429C17.2437 14.6793 17.3951 14.529 17.5194 14.529C17.6898 14.529 17.7801 14.6038 17.8589 14.81C17.9221 14.9753 17.9625 15.016 18.1261 15.0784C18.3387 15.1597 18.4018 15.2417 18.4018 15.4374C18.4018 15.5852 18.256 15.7255 18.0576 15.7691C17.9634 15.7897 17.9223 15.8354 17.8787 15.9674C17.7909 16.2334 17.6105 16.3483 17.4072 16.2677H17.4072ZM7.89431 13.7994C6.6872 12.592 6.55532 12.4462 6.55532 12.3185C6.55532 12.1968 6.63533 12.092 7.12616 11.5712C7.44141 11.2366 7.74407 10.9536 7.80213 10.9391C7.85995 10.9239 7.95095 10.9353 8.00436 10.9619C8.05776 10.9889 8.40036 11.3077 8.76569 11.6701L9.42992 12.329L12.3814 9.37931C14.099 7.66264 15.3655 6.42963 15.4111 6.42963C15.5544 6.42963 15.6758 6.52241 16.1727 7.01133C16.7019 7.53202 16.8066 7.67761 16.7667 7.83672C16.7525 7.89321 15.1428 9.5359 13.1393 11.5384C9.74141 14.9347 9.52887 15.1386 9.38539 15.1386C9.24397 15.1386 9.13944 15.0447 7.89431 13.7993V13.7994ZM12.7079 11.0556L16.0075 7.75642L15.7233 7.47476L15.439 7.1931L12.4888 10.1425C9.92728 12.7033 9.52166 13.092 9.41092 13.092C9.30442 13.092 9.16754 12.977 8.58188 12.3953L7.88039 11.6986L7.6845 11.9054C7.57677 12.0192 7.45117 12.1573 7.40539 12.2122L7.32217 12.3122L8.34299 13.3335C8.90444 13.8952 9.37381 14.3548 9.38604 14.3548C9.39826 14.3548 10.8931 12.8702 12.7079 11.0556L12.7079 11.0556ZM2.54107 12.3078C2.50109 12.2838 2.43599 12.1795 2.3964 12.0759C2.33543 11.9162 2.2919 11.8737 2.11175 11.7976C1.95542 11.7316 1.89154 11.6778 1.87061 11.5943C1.81672 11.3796 1.88265 11.2609 2.1088 11.1654C2.28785 11.0898 2.33145 11.0462 2.4071 10.8671C2.50266 10.641 2.62138 10.5751 2.8361 10.629C2.91951 10.65 2.97337 10.7138 3.03942 10.8701C3.11561 11.0503 3.15802 11.0937 3.31843 11.1549C3.53453 11.2375 3.60471 11.338 3.58542 11.5373C3.57382 11.6573 3.54088 11.6917 3.35106 11.7826C3.16804 11.8703 3.11208 11.9262 3.02442 12.1092C2.9296 12.3071 2.90281 12.3311 2.76619 12.3407C2.68235 12.3463 2.58105 12.3312 2.54107 12.3078V12.3078ZM18.4056 12.2587C18.358 12.2075 18.3064 12.1081 18.2909 12.0376C18.2688 11.9371 18.2192 11.8912 18.0601 11.8238C17.6176 11.6367 17.6359 11.333 18.1022 11.1231C18.211 11.0741 18.2695 11.0139 18.2906 10.9289C18.3675 10.6193 18.7013 10.5003 18.8747 10.7208C18.9227 10.7818 18.9746 10.8891 18.99 10.9595C19.0124 11.0612 19.0531 11.0978 19.1883 11.1383C19.626 11.2694 19.6275 11.6833 19.191 11.8273C19.0551 11.8721 19.0097 11.9127 18.9888 12.0074C18.9185 12.3276 18.5985 12.4654 18.4057 12.2585L18.4056 12.2587ZM3.73768 8.14966C3.68644 8.11377 3.61231 8.00002 3.57294 7.89705C3.51304 7.74022 3.47181 7.69937 3.32027 7.64658C2.94263 7.51508 2.93086 7.18195 3.29765 7.00669C3.46066 6.92884 3.52006 6.86895 3.58905 6.71299C3.68556 6.49486 3.83026 6.40299 4.00735 6.44743C4.09337 6.46897 4.1483 6.53454 4.22418 6.7061C4.31291 6.90666 4.34843 6.94262 4.50392 6.98919C4.88497 7.10331 4.88966 7.48067 4.51202 7.64309C4.33633 7.71866 4.29214 7.76269 4.23061 7.9238C4.12971 8.18796 3.92579 8.28141 3.73767 8.14966H3.73768ZM6.72217 5.42653C6.68219 5.40329 6.6161 5.29673 6.57531 5.18994C6.51243 5.02537 6.47179 4.98454 6.3084 4.92215C6.10445 4.8443 6.03268 4.75815 6.03268 4.59148C6.03268 4.4373 6.13862 4.31711 6.32368 4.26124C6.46354 4.21892 6.5073 4.17452 6.59887 3.98128C6.70651 3.75419 6.70999 3.75157 6.90374 3.75157C7.09731 3.75157 7.10108 3.75346 7.20862 3.98019C7.29606 4.16384 7.34751 4.21848 7.46993 4.25786C7.68331 4.32645 7.77481 4.41922 7.77481 4.56676C7.77481 4.75966 7.70724 4.84731 7.49649 4.92778C7.33417 4.98975 7.29287 5.03094 7.23088 5.19334C7.13203 5.45212 6.92706 5.54608 6.72217 5.42653ZM14.5211 5.42818C14.4828 5.40569 14.4183 5.30083 14.3779 5.19513C14.315 5.03038 14.2738 4.99009 14.09 4.9137C13.8588 4.81772 13.7936 4.70286 13.8477 4.48726C13.8687 4.40355 13.9328 4.34989 14.0916 4.28282C14.2751 4.20535 14.3178 4.1636 14.3795 4.0023C14.4591 3.79374 14.5422 3.7298 14.7337 3.7298C14.8811 3.7298 14.9716 3.81879 15.0499 4.04086C15.0942 4.16632 15.1407 4.21091 15.2724 4.25446C15.505 4.33117 15.5794 4.42734 15.5628 4.62908C15.5501 4.7842 15.5319 4.8048 15.3193 4.90552C15.1261 4.99716 15.0815 5.0408 15.0393 5.18064C14.9628 5.43377 14.7251 5.54736 14.5211 5.42818ZM10.6167 4.27254C10.5642 4.2357 10.4984 4.12951 10.4705 4.0364C10.4273 3.89224 10.3885 3.85426 10.2081 3.77921C9.95003 3.67189 9.87026 3.53632 9.95087 3.34175C9.98995 3.24747 10.06 3.19003 10.2023 3.13571C10.3708 3.07128 10.4121 3.03027 10.4853 2.85425C10.644 2.47229 10.9893 2.47009 11.1298 2.85048C11.1883 3.00881 11.2335 3.05372 11.4235 3.14171C11.5877 3.21786 11.6558 3.27662 11.6768 3.36049C11.7214 3.53791 11.6292 3.68187 11.4083 3.77957C11.2487 3.85023 11.1935 3.90484 11.1283 4.05699C11.011 4.33064 10.8165 4.41272 10.6167 4.27284V4.27254Z" fill="#3CB043"/>
<path d="M9.71422 21.9283C9.12266 21.8718 8.11834 21.6635 7.51792 21.4726C4.31538 20.4549 1.78735 17.9525 0.735606 14.759C0.375342 13.6652 0.225606 12.7046 0.224613 11.4809C0.223296 9.78473 0.541352 8.40527 1.28547 6.88064C1.83497 5.75478 2.42741 4.92999 3.3296 4.03479C6.12885 1.25725 10.2249 0.293918 13.9811 1.5297C17.2786 2.61456 19.8093 5.2511 20.7759 8.60863C21.8424 12.3133 20.7583 16.349 17.9802 19.0163C16.3599 20.572 14.4016 21.5327 12.1737 21.865C11.6055 21.9497 10.2927 21.9835 9.71422 21.9283V21.9283ZM11.7725 21.2754C15.1112 20.9068 18.0671 18.8274 19.5361 15.8137C19.978 14.9073 20.2555 14.046 20.4347 13.0249C20.5451 12.3963 20.5442 10.55 20.4332 9.93511C20.2409 8.86922 19.9752 8.04516 19.5348 7.14824C18.567 5.17756 16.9947 3.60566 15.0264 2.64098C13.5521 1.9184 12.0551 1.60044 10.37 1.65193C7.88571 1.72789 5.65163 2.67221 3.8634 4.40227C2.31589 5.89946 1.35744 7.70646 0.974936 9.84802C0.887325 10.3386 0.873832 10.5564 0.873832 11.4809C0.873832 12.4054 0.88725 12.6233 0.974936 13.1139C1.35749 15.2557 2.31552 17.0629 3.86048 18.5572C5.4731 20.1168 7.52813 21.0739 9.73474 21.293C10.0996 21.3293 11.3855 21.3181 11.7726 21.276L11.7725 21.2754ZM10.6633 20.4004C10.6111 20.3747 10.5285 20.2609 10.4798 20.1476C10.4051 19.974 10.3609 19.9301 10.1981 19.8679C9.81776 19.7227 9.82471 19.371 10.2108 19.2284C10.3727 19.1687 10.4118 19.1294 10.4716 18.9676C10.6155 18.5783 10.9342 18.5669 11.1284 18.9442C11.2122 19.107 11.2824 19.177 11.4332 19.2482C11.7951 19.4192 11.7749 19.7363 11.3925 19.8846C11.2331 19.9464 11.1891 19.9892 11.1406 20.129C11.1083 20.2224 11.0581 20.3218 11.0289 20.3502C10.9488 20.4283 10.7698 20.4528 10.6633 20.4003L10.6633 20.4004ZM6.66606 19.1755C6.63004 19.1206 6.57903 19.0138 6.55269 18.9383C6.5171 18.8362 6.46375 18.7877 6.34496 18.7497C6.12437 18.679 6.03268 18.5876 6.03268 18.4385C6.03268 18.2471 6.09664 18.164 6.30523 18.0844C6.46662 18.0228 6.5083 17.9801 6.5858 17.7966C6.68387 17.5645 6.80076 17.4984 7.01721 17.5527C7.10089 17.5737 7.15456 17.6378 7.22169 17.7966C7.29918 17.9801 7.34087 18.0227 7.50226 18.0844C7.71085 18.1639 7.77481 18.2471 7.77481 18.4385C7.77481 18.5867 7.68575 18.6764 7.4596 18.7562C7.3324 18.8011 7.28599 18.8474 7.24722 18.9684C7.17269 19.2008 7.08776 19.2755 6.898 19.2755C6.77248 19.2755 6.71544 19.251 6.66606 19.1756L6.66606 19.1755ZM14.4621 19.1755C14.4261 19.1206 14.376 19.0165 14.3507 18.9441C14.3163 18.8453 14.2515 18.7899 14.0905 18.722C13.9282 18.6534 13.8689 18.6024 13.8462 18.5119C13.7954 18.3094 13.8738 18.175 14.0893 18.0954C14.2934 18.02 14.3112 18.0006 14.4127 17.742C14.482 17.5656 14.6147 17.5029 14.8132 17.5527C14.896 17.5735 14.9503 17.6371 15.014 17.7877C15.0874 17.9616 15.1367 18.0113 15.3252 18.1015C15.5313 18.2001 15.5501 18.222 15.5628 18.3762C15.5794 18.578 15.505 18.674 15.2724 18.7508C15.1407 18.7943 15.0942 18.8388 15.0499 18.9644C14.9656 19.2035 14.8832 19.2755 14.694 19.2755C14.5685 19.2755 14.5115 19.2509 14.4621 19.1755V19.1755ZM10.1485 17.4645C9.24218 17.3342 8.78595 17.2062 8.12758 16.8976C7.53315 16.6189 7.02904 16.2672 6.52982 15.783C5.62828 14.9085 5.0743 13.8993 4.80615 12.6431C4.67256 12.0172 4.67295 10.9524 4.80698 10.3188C5.05424 9.15003 5.55363 8.19282 6.35142 7.35848C7.23342 6.43606 8.26156 5.8659 9.53049 5.59549C10.1607 5.46115 11.225 5.46115 11.8552 5.59549C12.6162 5.7576 13.6915 6.19296 13.7578 6.3657C13.8093 6.49985 13.7851 6.67755 13.7055 6.74959C13.583 6.8605 13.42 6.83688 13.0312 6.6521C12.581 6.43816 12.0583 6.27336 11.5481 6.18448C10.9637 6.08264 9.9875 6.12194 9.4202 6.26988C7.42988 6.78938 6.02004 8.19762 5.47719 10.2084C5.37224 10.5971 5.36292 10.701 5.36292 11.4808C5.36292 12.2578 5.37248 12.3653 5.47569 12.7473C5.78324 13.8855 6.35999 14.8335 7.16057 15.5165C8.20667 16.4091 9.35834 16.8368 10.7155 16.8368C12.1579 16.8368 13.4562 16.297 14.4831 15.2703C15.2896 14.464 15.777 13.5257 15.9878 12.3735C16.0793 11.8733 16.0543 10.7992 15.9392 10.2822C15.8466 9.86644 15.8704 9.72625 16.0461 9.65347C16.3276 9.53689 16.4482 9.67746 16.5709 10.2651C16.7525 11.1345 16.7304 12.0699 16.5071 12.9646C15.9535 15.1829 14.1325 16.9111 11.872 17.3635C11.4734 17.4432 10.4274 17.5044 10.1484 17.4644L10.1485 17.4645ZM3.68953 16.2683C3.6275 16.2437 3.55483 16.1455 3.49863 16.0102C3.4204 15.822 3.38424 15.7848 3.23649 15.7406C2.84052 15.6219 2.8462 15.1907 3.24527 15.0731C3.39881 15.0277 3.45021 14.9782 3.48377 14.843C3.5845 14.4372 4.03227 14.4252 4.15211 14.826C4.19636 14.9735 4.23361 15.0098 4.42141 15.0879C4.80784 15.2485 4.80438 15.5509 4.41398 15.7375C4.25882 15.8115 4.19922 15.8695 4.16191 15.9826C4.08111 16.2273 3.88452 16.3466 3.68953 16.2692L3.68953 16.2683ZM17.4072 16.2677C17.3445 16.2427 17.271 16.1458 17.2155 16.0143C17.1398 15.8352 17.0984 15.7924 16.9548 15.745C16.5597 15.6147 16.5659 15.1905 16.9645 15.073C17.1181 15.0277 17.1695 14.9782 17.203 14.8429C17.2437 14.6793 17.3951 14.529 17.5194 14.529C17.6898 14.529 17.7801 14.6038 17.8589 14.81C17.9221 14.9753 17.9625 15.016 18.1261 15.0784C18.3387 15.1597 18.4018 15.2417 18.4018 15.4374C18.4018 15.5852 18.256 15.7255 18.0576 15.7691C17.9634 15.7897 17.9223 15.8354 17.8787 15.9674C17.7909 16.2334 17.6105 16.3483 17.4072 16.2677H17.4072ZM7.89431 13.7994C6.6872 12.592 6.55532 12.4462 6.55532 12.3185C6.55532 12.1968 6.63533 12.092 7.12616 11.5712C7.44141 11.2366 7.74407 10.9536 7.80213 10.9391C7.85995 10.9239 7.95095 10.9353 8.00436 10.9619C8.05776 10.9889 8.40036 11.3077 8.76569 11.6701L9.42992 12.329L12.3814 9.37931C14.099 7.66264 15.3655 6.42963 15.4111 6.42963C15.5544 6.42963 15.6758 6.52241 16.1727 7.01133C16.7019 7.53202 16.8066 7.67761 16.7667 7.83672C16.7525 7.89321 15.1428 9.5359 13.1393 11.5384C9.74141 14.9347 9.52887 15.1386 9.38539 15.1386C9.24397 15.1386 9.13944 15.0447 7.89431 13.7993V13.7994ZM12.7079 11.0556L16.0075 7.75642L15.7233 7.47476L15.439 7.1931L12.4888 10.1425C9.92728 12.7033 9.52166 13.092 9.41092 13.092C9.30442 13.092 9.16754 12.977 8.58188 12.3953L7.88039 11.6986L7.6845 11.9054C7.57677 12.0192 7.45117 12.1573 7.40539 12.2122L7.32217 12.3122L8.34299 13.3335C8.90444 13.8952 9.37381 14.3548 9.38604 14.3548C9.39826 14.3548 10.8931 12.8702 12.7079 11.0556L12.7079 11.0556ZM2.54107 12.3078C2.50109 12.2838 2.43599 12.1795 2.3964 12.0759C2.33543 11.9162 2.2919 11.8737 2.11175 11.7976C1.95542 11.7316 1.89154 11.6778 1.87061 11.5943C1.81672 11.3796 1.88265 11.2609 2.1088 11.1654C2.28785 11.0898 2.33145 11.0462 2.4071 10.8671C2.50266 10.641 2.62138 10.5751 2.8361 10.629C2.91951 10.65 2.97337 10.7138 3.03942 10.8701C3.11561 11.0503 3.15802 11.0937 3.31843 11.1549C3.53453 11.2375 3.60471 11.338 3.58542 11.5373C3.57382 11.6573 3.54088 11.6917 3.35106 11.7826C3.16804 11.8703 3.11208 11.9262 3.02442 12.1092C2.9296 12.3071 2.90281 12.3311 2.76619 12.3407C2.68235 12.3463 2.58105 12.3312 2.54107 12.3078V12.3078ZM18.4056 12.2587C18.358 12.2075 18.3064 12.1081 18.2909 12.0376C18.2688 11.9371 18.2192 11.8912 18.0601 11.8238C17.6176 11.6367 17.6359 11.333 18.1022 11.1231C18.211 11.0741 18.2695 11.0139 18.2906 10.9289C18.3675 10.6193 18.7013 10.5003 18.8747 10.7208C18.9227 10.7818 18.9746 10.8891 18.99 10.9595C19.0124 11.0612 19.0531 11.0978 19.1883 11.1383C19.626 11.2694 19.6275 11.6833 19.191 11.8273C19.0551 11.8721 19.0097 11.9127 18.9888 12.0074C18.9185 12.3276 18.5985 12.4654 18.4057 12.2585L18.4056 12.2587ZM3.73768 8.14966C3.68644 8.11377 3.61231 8.00002 3.57294 7.89705C3.51304 7.74022 3.47181 7.69937 3.32027 7.64658C2.94263 7.51508 2.93086 7.18195 3.29765 7.00669C3.46066 6.92884 3.52006 6.86895 3.58905 6.71299C3.68556 6.49486 3.83026 6.40299 4.00735 6.44743C4.09337 6.46897 4.1483 6.53454 4.22418 6.7061C4.31291 6.90666 4.34843 6.94262 4.50392 6.98919C4.88497 7.10331 4.88966 7.48067 4.51202 7.64309C4.33633 7.71866 4.29214 7.76269 4.23061 7.9238C4.12971 8.18796 3.92579 8.28141 3.73767 8.14966H3.73768ZM6.72217 5.42653C6.68219 5.40329 6.6161 5.29673 6.57531 5.18994C6.51243 5.02537 6.47179 4.98454 6.3084 4.92215C6.10445 4.8443 6.03268 4.75815 6.03268 4.59148C6.03268 4.4373 6.13862 4.31711 6.32368 4.26124C6.46354 4.21892 6.5073 4.17452 6.59887 3.98128C6.70651 3.75419 6.70999 3.75157 6.90374 3.75157C7.09731 3.75157 7.10108 3.75346 7.20862 3.98019C7.29606 4.16384 7.34751 4.21848 7.46993 4.25786C7.68331 4.32645 7.77481 4.41922 7.77481 4.56676C7.77481 4.75966 7.70724 4.84731 7.49649 4.92778C7.33417 4.98975 7.29287 5.03094 7.23088 5.19334C7.13203 5.45212 6.92706 5.54608 6.72217 5.42653ZM14.5211 5.42818C14.4828 5.40569 14.4183 5.30083 14.3779 5.19513C14.315 5.03038 14.2738 4.99009 14.09 4.9137C13.8588 4.81772 13.7936 4.70286 13.8477 4.48726C13.8687 4.40355 13.9328 4.34989 14.0916 4.28282C14.2751 4.20535 14.3178 4.1636 14.3795 4.0023C14.4591 3.79374 14.5422 3.7298 14.7337 3.7298C14.8811 3.7298 14.9716 3.81879 15.0499 4.04086C15.0942 4.16632 15.1407 4.21091 15.2724 4.25446C15.505 4.33117 15.5794 4.42734 15.5628 4.62908C15.5501 4.7842 15.5319 4.8048 15.3193 4.90552C15.1261 4.99716 15.0815 5.0408 15.0393 5.18064C14.9628 5.43377 14.7251 5.54736 14.5211 5.42818ZM10.6167 4.27254C10.5642 4.2357 10.4984 4.12951 10.4705 4.0364C10.4273 3.89224 10.3885 3.85426 10.2081 3.77921C9.95003 3.67189 9.87026 3.53632 9.95087 3.34175C9.98995 3.24747 10.06 3.19003 10.2023 3.13571C10.3708 3.07128 10.4121 3.03027 10.4853 2.85425C10.644 2.47229 10.9893 2.47009 11.1298 2.85048C11.1883 3.00881 11.2335 3.05372 11.4235 3.14171C11.5877 3.21786 11.6558 3.27662 11.6768 3.36049C11.7214 3.53791 11.6292 3.68187 11.4083 3.77957C11.2487 3.85023 11.1935 3.90484 11.1283 4.05699C11.011 4.33064 10.8165 4.41272 10.6167 4.27284V4.27254Z" stroke="#3CB043" stroke-width="0.402985" mask="url(#path-1-outside-1)"/>
</svg>
