<svg width="1386" height="392" viewBox="0 0 1386 392" fill="none" xmlns="http://www.w3.org/2000/svg">
<g filter="url(#filter0_d)">
<rect x="6" y="5" width="1372" height="378" rx="6.35243" fill="white"/>
</g>
<rect x="27.25" y="29.25" width="544.5" height="44.5" rx="4.75" fill="#F4F4F4" stroke="#898989" stroke-width="0.5"/>
<rect x="491.25" y="29.25" width="80.5" height="44.5" rx="4.75" fill="#313131" stroke="#898989" stroke-width="0.5"/>
<path d="M55.4902 58H53.127V46.584L49.6406 47.7754V45.7734L55.1875 43.7324H55.4902V58ZM64.0156 43.7812L68.1172 54.6797L72.209 43.7812H75.4023V58H72.9414V53.3125L73.1855 47.043L68.9863 58H67.2188L63.0293 47.0527L63.2734 53.3125V58H60.8125V43.7812H64.0156Z" fill="#313131"/>
<path d="M34.1055 327.887C34.1055 327.378 33.9256 326.949 33.5659 326.601C33.2118 326.252 32.6113 325.937 31.7646 325.654C30.5859 325.295 29.7254 324.827 29.1831 324.251C28.6463 323.67 28.3779 322.934 28.3779 322.043C28.3779 321.136 28.6408 320.392 29.1665 319.811C29.6978 319.229 30.4255 318.884 31.3496 318.773V316.955H32.5864V318.781C33.5161 318.909 34.2383 319.299 34.7529 319.952C35.2731 320.605 35.5332 321.498 35.5332 322.633H34.0059C34.0059 321.853 33.8205 321.233 33.4497 320.773C33.0789 320.314 32.5781 320.084 31.9473 320.084C31.2887 320.084 30.7852 320.256 30.4365 320.599C30.0879 320.937 29.9136 321.41 29.9136 322.019C29.9136 322.583 30.0962 323.034 30.4614 323.372C30.8322 323.704 31.4382 324.008 32.2793 324.285C33.126 324.556 33.7845 324.857 34.2549 325.189C34.7308 325.516 35.0794 325.898 35.3008 326.335C35.5277 326.772 35.6411 327.284 35.6411 327.871C35.6411 328.806 35.3589 329.558 34.7944 330.128C34.2355 330.698 33.4497 331.036 32.437 331.141V332.727H31.2085V331.141C30.1792 331.047 29.3713 330.682 28.7847 330.045C28.2036 329.403 27.9131 328.535 27.9131 327.439H29.4487C29.4487 328.208 29.6507 328.8 30.0547 329.215C30.4587 329.63 31.0314 329.838 31.7729 329.838C32.4979 329.838 33.0679 329.664 33.4829 329.315C33.8979 328.966 34.1055 328.49 34.1055 327.887ZM45.1289 325.845C45.1289 327.644 44.8218 328.98 44.2075 329.854C43.5933 330.729 42.6331 331.166 41.3271 331.166C40.0378 331.166 39.0832 330.74 38.4634 329.888C37.8436 329.03 37.5226 327.752 37.5005 326.053V324.002C37.5005 322.226 37.8076 320.906 38.4219 320.043C39.0361 319.18 39.999 318.748 41.3105 318.748C42.611 318.748 43.5684 319.166 44.1826 320.001C44.7969 320.832 45.1123 322.115 45.1289 323.853V325.845ZM43.5933 323.745C43.5933 322.445 43.4106 321.498 43.0454 320.906C42.6802 320.309 42.1019 320.01 41.3105 320.01C40.5247 320.01 39.952 320.306 39.5923 320.898C39.2326 321.49 39.0472 322.4 39.0361 323.629V326.086C39.0361 327.392 39.2243 328.358 39.6006 328.983C39.9824 329.603 40.5579 329.913 41.3271 329.913C42.0853 329.913 42.647 329.619 43.0122 329.033C43.383 328.446 43.5767 327.522 43.5933 326.26V323.745Z" fill="#626262"/>
<path d="M131.126 349.217H126.659L125.655 352H124.205L128.277 341.336H129.508L133.587 352H132.145L131.126 349.217ZM127.083 348.06H130.709L128.893 343.072L127.083 348.06ZM139.615 351.216C139.088 351.836 138.314 352.146 137.293 352.146C136.449 352.146 135.804 351.902 135.36 351.414C134.92 350.921 134.698 350.193 134.693 349.231V344.075H136.048V349.195C136.048 350.396 136.537 350.997 137.513 350.997C138.548 350.997 139.237 350.611 139.579 349.839V344.075H140.934V352H139.645L139.615 351.216ZM142.677 347.972C142.677 346.736 142.962 345.755 143.534 345.027C144.105 344.295 144.862 343.929 145.804 343.929C146.771 343.929 147.525 344.271 148.067 344.954L148.133 344.075H149.371V351.81C149.371 352.835 149.066 353.643 148.456 354.234C147.85 354.825 147.035 355.12 146.009 355.12C145.438 355.12 144.879 354.998 144.332 354.754C143.785 354.51 143.368 354.175 143.08 353.75L143.783 352.938C144.364 353.655 145.074 354.014 145.914 354.014C146.573 354.014 147.086 353.829 147.452 353.458C147.823 353.086 148.009 352.564 148.009 351.89V351.209C147.467 351.834 146.727 352.146 145.79 352.146C144.862 352.146 144.11 351.773 143.534 351.026C142.962 350.279 142.677 349.261 142.677 347.972ZM144.039 348.125C144.039 349.019 144.222 349.722 144.588 350.235C144.955 350.743 145.467 350.997 146.126 350.997C146.981 350.997 147.608 350.608 148.009 349.832V346.214C147.594 345.457 146.971 345.079 146.141 345.079C145.482 345.079 144.967 345.335 144.596 345.848C144.225 346.36 144.039 347.12 144.039 348.125ZM158.27 352H151.283V351.026L154.974 346.924C155.521 346.304 155.897 345.801 156.102 345.416C156.312 345.025 156.417 344.622 156.417 344.207C156.417 343.65 156.249 343.194 155.912 342.837C155.575 342.481 155.125 342.303 154.564 342.303C153.89 342.303 153.365 342.496 152.989 342.881C152.618 343.262 152.433 343.794 152.433 344.478H151.078C151.078 343.497 151.393 342.703 152.022 342.098C152.657 341.492 153.504 341.189 154.564 341.189C155.555 341.189 156.339 341.451 156.915 341.973C157.491 342.491 157.779 343.182 157.779 344.046C157.779 345.096 157.11 346.346 155.772 347.796L152.916 350.894H158.27V352ZM166.393 347.452C166.393 349.039 166.122 350.218 165.58 350.989C165.038 351.761 164.19 352.146 163.038 352.146C161.9 352.146 161.058 351.771 160.511 351.019C159.964 350.262 159.681 349.134 159.662 347.635V345.826C159.662 344.258 159.933 343.094 160.475 342.332C161.017 341.57 161.866 341.189 163.023 341.189C164.171 341.189 165.016 341.558 165.558 342.295C166.1 343.028 166.378 344.161 166.393 345.694V347.452ZM165.038 345.599C165.038 344.451 164.876 343.616 164.554 343.094C164.232 342.566 163.722 342.303 163.023 342.303C162.33 342.303 161.825 342.564 161.507 343.086C161.19 343.609 161.026 344.412 161.017 345.496V347.664C161.017 348.816 161.183 349.668 161.515 350.22C161.852 350.767 162.359 351.041 163.038 351.041C163.707 351.041 164.203 350.782 164.525 350.264C164.852 349.747 165.023 348.931 165.038 347.818V345.599Z" fill="#626262"/>
<path d="M226.126 349.217H221.659L220.655 352H219.205L223.277 341.336H224.508L228.587 352H227.145L226.126 349.217ZM222.083 348.06H225.709L223.893 343.072L222.083 348.06ZM234.615 351.216C234.088 351.836 233.314 352.146 232.293 352.146C231.449 352.146 230.804 351.902 230.36 351.414C229.92 350.921 229.698 350.193 229.693 349.231V344.075H231.048V349.195C231.048 350.396 231.537 350.997 232.513 350.997C233.548 350.997 234.237 350.611 234.579 349.839V344.075H235.934V352H234.645L234.615 351.216ZM237.677 347.972C237.677 346.736 237.962 345.755 238.534 345.027C239.105 344.295 239.862 343.929 240.804 343.929C241.771 343.929 242.525 344.271 243.067 344.954L243.133 344.075H244.371V351.81C244.371 352.835 244.066 353.643 243.456 354.234C242.85 354.825 242.035 355.12 241.009 355.12C240.438 355.12 239.879 354.998 239.332 354.754C238.785 354.51 238.368 354.175 238.08 353.75L238.783 352.938C239.364 353.655 240.074 354.014 240.914 354.014C241.573 354.014 242.086 353.829 242.452 353.458C242.823 353.086 243.009 352.564 243.009 351.89V351.209C242.467 351.834 241.727 352.146 240.79 352.146C239.862 352.146 239.11 351.773 238.534 351.026C237.962 350.279 237.677 349.261 237.677 347.972ZM239.039 348.125C239.039 349.019 239.222 349.722 239.588 350.235C239.955 350.743 240.467 350.997 241.126 350.997C241.981 350.997 242.608 350.608 243.009 349.832V346.214C242.594 345.457 241.971 345.079 241.141 345.079C240.482 345.079 239.967 345.335 239.596 345.848C239.225 346.36 239.039 347.12 239.039 348.125ZM253.27 352H246.283V351.026L249.974 346.924C250.521 346.304 250.897 345.801 251.102 345.416C251.312 345.025 251.417 344.622 251.417 344.207C251.417 343.65 251.249 343.194 250.912 342.837C250.575 342.481 250.125 342.303 249.564 342.303C248.89 342.303 248.365 342.496 247.989 342.881C247.618 343.262 247.433 343.794 247.433 344.478H246.078C246.078 343.497 246.393 342.703 247.022 342.098C247.657 341.492 248.504 341.189 249.564 341.189C250.555 341.189 251.339 341.451 251.915 341.973C252.491 342.491 252.779 343.182 252.779 344.046C252.779 345.096 252.11 346.346 250.772 347.796L247.916 350.894H253.27V352ZM261.693 352H254.706V351.026L258.397 346.924C258.944 346.304 259.32 345.801 259.525 345.416C259.735 345.025 259.84 344.622 259.84 344.207C259.84 343.65 259.671 343.194 259.334 342.837C258.998 342.481 258.548 342.303 257.987 342.303C257.313 342.303 256.788 342.496 256.412 342.881C256.041 343.262 255.855 343.794 255.855 344.478H254.5C254.5 343.497 254.815 342.703 255.445 342.098C256.08 341.492 256.927 341.189 257.987 341.189C258.978 341.189 259.762 341.451 260.338 341.973C260.914 342.491 261.202 343.182 261.202 344.046C261.202 345.096 260.533 346.346 259.195 347.796L256.339 350.894H261.693V352Z" fill="#626262"/>
<path d="M321.126 349.217H316.659L315.655 352H314.205L318.277 341.336H319.508L323.587 352H322.145L321.126 349.217ZM317.083 348.06H320.709L318.893 343.072L317.083 348.06ZM329.615 351.216C329.088 351.836 328.314 352.146 327.293 352.146C326.449 352.146 325.804 351.902 325.36 351.414C324.92 350.921 324.698 350.193 324.693 349.231V344.075H326.048V349.195C326.048 350.396 326.537 350.997 327.513 350.997C328.548 350.997 329.237 350.611 329.579 349.839V344.075H330.934V352H329.645L329.615 351.216ZM332.677 347.972C332.677 346.736 332.962 345.755 333.534 345.027C334.105 344.295 334.862 343.929 335.804 343.929C336.771 343.929 337.525 344.271 338.067 344.954L338.133 344.075H339.371V351.81C339.371 352.835 339.066 353.643 338.456 354.234C337.85 354.825 337.035 355.12 336.009 355.12C335.438 355.12 334.879 354.998 334.332 354.754C333.785 354.51 333.368 354.175 333.08 353.75L333.783 352.938C334.364 353.655 335.074 354.014 335.914 354.014C336.573 354.014 337.086 353.829 337.452 353.458C337.823 353.086 338.009 352.564 338.009 351.89V351.209C337.467 351.834 336.727 352.146 335.79 352.146C334.862 352.146 334.11 351.773 333.534 351.026C332.962 350.279 332.677 349.261 332.677 347.972ZM334.039 348.125C334.039 349.019 334.222 349.722 334.588 350.235C334.955 350.743 335.467 350.997 336.126 350.997C336.981 350.997 337.608 350.608 338.009 349.832V346.214C337.594 345.457 336.971 345.079 336.141 345.079C335.482 345.079 334.967 345.335 334.596 345.848C334.225 346.36 334.039 347.12 334.039 348.125ZM348.27 352H341.283V351.026L344.974 346.924C345.521 346.304 345.897 345.801 346.102 345.416C346.312 345.025 346.417 344.622 346.417 344.207C346.417 343.65 346.249 343.194 345.912 342.837C345.575 342.481 345.125 342.303 344.564 342.303C343.89 342.303 343.365 342.496 342.989 342.881C342.618 343.262 342.433 343.794 342.433 344.478H341.078C341.078 343.497 341.393 342.703 342.022 342.098C342.657 341.492 343.504 341.189 344.564 341.189C345.555 341.189 346.339 341.451 346.915 341.973C347.491 342.491 347.779 343.182 347.779 344.046C347.779 345.096 347.11 346.346 345.772 347.796L342.916 350.894H348.27V352ZM355.426 348.418H356.905V349.524H355.426V352H354.063V349.524H349.208V348.726L353.983 341.336H355.426V348.418ZM350.746 348.418H354.063V343.189L353.902 343.482L350.746 348.418Z" fill="#626262"/>
<path d="M416.126 349.217H411.659L410.655 352H409.205L413.277 341.336H414.508L418.587 352H417.145L416.126 349.217ZM412.083 348.06H415.709L413.893 343.072L412.083 348.06ZM424.615 351.216C424.088 351.836 423.314 352.146 422.293 352.146C421.449 352.146 420.804 351.902 420.36 351.414C419.92 350.921 419.698 350.193 419.693 349.231V344.075H421.048V349.195C421.048 350.396 421.537 350.997 422.513 350.997C423.548 350.997 424.237 350.611 424.579 349.839V344.075H425.934V352H424.645L424.615 351.216ZM427.677 347.972C427.677 346.736 427.962 345.755 428.534 345.027C429.105 344.295 429.862 343.929 430.804 343.929C431.771 343.929 432.525 344.271 433.067 344.954L433.133 344.075H434.371V351.81C434.371 352.835 434.066 353.643 433.456 354.234C432.85 354.825 432.035 355.12 431.009 355.12C430.438 355.12 429.879 354.998 429.332 354.754C428.785 354.51 428.368 354.175 428.08 353.75L428.783 352.938C429.364 353.655 430.074 354.014 430.914 354.014C431.573 354.014 432.086 353.829 432.452 353.458C432.823 353.086 433.009 352.564 433.009 351.89V351.209C432.467 351.834 431.727 352.146 430.79 352.146C429.862 352.146 429.11 351.773 428.534 351.026C427.962 350.279 427.677 349.261 427.677 347.972ZM429.039 348.125C429.039 349.019 429.222 349.722 429.588 350.235C429.955 350.743 430.467 350.997 431.126 350.997C431.981 350.997 432.608 350.608 433.009 349.832V346.214C432.594 345.457 431.971 345.079 431.141 345.079C430.482 345.079 429.967 345.335 429.596 345.848C429.225 346.36 429.039 347.12 429.039 348.125ZM443.27 352H436.283V351.026L439.974 346.924C440.521 346.304 440.897 345.801 441.102 345.416C441.312 345.025 441.417 344.622 441.417 344.207C441.417 343.65 441.249 343.194 440.912 342.837C440.575 342.481 440.125 342.303 439.564 342.303C438.89 342.303 438.365 342.496 437.989 342.881C437.618 343.262 437.433 343.794 437.433 344.478H436.078C436.078 343.497 436.393 342.703 437.022 342.098C437.657 341.492 438.504 341.189 439.564 341.189C440.555 341.189 441.339 341.451 441.915 341.973C442.491 342.491 442.779 343.182 442.779 344.046C442.779 345.096 442.11 346.346 440.772 347.796L437.916 350.894H443.27V352ZM450.023 341.329V342.479H449.774C448.719 342.498 447.879 342.811 447.254 343.416C446.629 344.021 446.268 344.874 446.17 345.972C446.732 345.328 447.499 345.005 448.47 345.005C449.398 345.005 450.138 345.333 450.689 345.987C451.246 346.641 451.524 347.486 451.524 348.521C451.524 349.62 451.224 350.499 450.624 351.158C450.028 351.817 449.227 352.146 448.221 352.146C447.201 352.146 446.373 351.756 445.738 350.975C445.104 350.188 444.786 349.178 444.786 347.942V347.422C444.786 345.459 445.204 343.96 446.039 342.925C446.878 341.885 448.126 341.353 449.781 341.329H450.023ZM448.243 346.133C447.779 346.133 447.352 346.272 446.961 346.551C446.571 346.829 446.3 347.178 446.148 347.598V348.096C446.148 348.975 446.346 349.683 446.742 350.22C447.137 350.757 447.63 351.026 448.221 351.026C448.832 351.026 449.31 350.801 449.657 350.352C450.008 349.903 450.184 349.314 450.184 348.587C450.184 347.854 450.006 347.264 449.649 346.814C449.298 346.36 448.829 346.133 448.243 346.133Z" fill="#626262"/>
<path d="M511.126 349.217H506.659L505.655 352H504.205L508.277 341.336H509.508L513.587 352H512.145L511.126 349.217ZM507.083 348.06H510.709L508.893 343.072L507.083 348.06ZM519.615 351.216C519.088 351.836 518.314 352.146 517.293 352.146C516.449 352.146 515.804 351.902 515.36 351.414C514.92 350.921 514.698 350.193 514.693 349.231V344.075H516.048V349.195C516.048 350.396 516.537 350.997 517.513 350.997C518.548 350.997 519.237 350.611 519.579 349.839V344.075H520.934V352H519.645L519.615 351.216ZM522.677 347.972C522.677 346.736 522.962 345.755 523.534 345.027C524.105 344.295 524.862 343.929 525.804 343.929C526.771 343.929 527.525 344.271 528.067 344.954L528.133 344.075H529.371V351.81C529.371 352.835 529.066 353.643 528.456 354.234C527.85 354.825 527.035 355.12 526.009 355.12C525.438 355.12 524.879 354.998 524.332 354.754C523.785 354.51 523.368 354.175 523.08 353.75L523.783 352.938C524.364 353.655 525.074 354.014 525.914 354.014C526.573 354.014 527.086 353.829 527.452 353.458C527.823 353.086 528.009 352.564 528.009 351.89V351.209C527.467 351.834 526.727 352.146 525.79 352.146C524.862 352.146 524.11 351.773 523.534 351.026C522.962 350.279 522.677 349.261 522.677 347.972ZM524.039 348.125C524.039 349.019 524.222 349.722 524.588 350.235C524.955 350.743 525.467 350.997 526.126 350.997C526.981 350.997 527.608 350.608 528.009 349.832V346.214C527.594 345.457 526.971 345.079 526.141 345.079C525.482 345.079 524.967 345.335 524.596 345.848C524.225 346.36 524.039 347.12 524.039 348.125ZM538.27 352H531.283V351.026L534.974 346.924C535.521 346.304 535.897 345.801 536.102 345.416C536.312 345.025 536.417 344.622 536.417 344.207C536.417 343.65 536.249 343.194 535.912 342.837C535.575 342.481 535.125 342.303 534.564 342.303C533.89 342.303 533.365 342.496 532.989 342.881C532.618 343.262 532.433 343.794 532.433 344.478H531.078C531.078 343.497 531.393 342.703 532.022 342.098C532.657 341.492 533.504 341.189 534.564 341.189C535.555 341.189 536.339 341.451 536.915 341.973C537.491 342.491 537.779 343.182 537.779 344.046C537.779 345.096 537.11 346.346 535.772 347.796L532.916 350.894H538.27V352ZM546.173 344.119C546.173 344.651 546.031 345.125 545.748 345.54C545.47 345.955 545.091 346.28 544.613 346.514C545.169 346.753 545.609 347.103 545.931 347.562C546.258 348.021 546.422 348.541 546.422 349.122C546.422 350.044 546.109 350.779 545.484 351.326C544.864 351.873 544.046 352.146 543.031 352.146C542.005 352.146 541.183 351.873 540.562 351.326C539.947 350.774 539.64 350.04 539.64 349.122C539.64 348.545 539.796 348.025 540.108 347.562C540.426 347.098 540.863 346.746 541.419 346.507C540.946 346.272 540.572 345.948 540.299 345.533C540.025 345.118 539.889 344.646 539.889 344.119C539.889 343.221 540.177 342.508 540.753 341.98C541.329 341.453 542.088 341.189 543.031 341.189C543.968 341.189 544.725 341.453 545.301 341.98C545.882 342.508 546.173 343.221 546.173 344.119ZM545.067 349.092C545.067 348.497 544.876 348.011 544.496 347.635C544.12 347.259 543.626 347.071 543.016 347.071C542.406 347.071 541.915 347.256 541.544 347.627C541.178 347.999 540.995 348.487 540.995 349.092C540.995 349.698 541.173 350.174 541.529 350.521C541.891 350.867 542.391 351.041 543.031 351.041C543.666 351.041 544.164 350.867 544.525 350.521C544.886 350.169 545.067 349.693 545.067 349.092ZM543.031 342.303C542.499 342.303 542.066 342.469 541.734 342.801C541.407 343.128 541.244 343.575 541.244 344.141C541.244 344.683 541.405 345.123 541.727 345.459C542.054 345.792 542.489 345.958 543.031 345.958C543.573 345.958 544.005 345.792 544.327 345.459C544.654 345.123 544.818 344.683 544.818 344.141C544.818 343.599 544.649 343.157 544.312 342.815C543.976 342.474 543.548 342.303 543.031 342.303Z" fill="#626262"/>
<path d="M606.126 349.217H601.659L600.655 352H599.205L603.277 341.336H604.508L608.587 352H607.145L606.126 349.217ZM602.083 348.06H605.709L603.893 343.072L602.083 348.06ZM614.615 351.216C614.088 351.836 613.314 352.146 612.293 352.146C611.449 352.146 610.804 351.902 610.36 351.414C609.92 350.921 609.698 350.193 609.693 349.231V344.075H611.048V349.195C611.048 350.396 611.537 350.997 612.513 350.997C613.548 350.997 614.237 350.611 614.579 349.839V344.075H615.934V352H614.645L614.615 351.216ZM617.677 347.972C617.677 346.736 617.962 345.755 618.534 345.027C619.105 344.295 619.862 343.929 620.804 343.929C621.771 343.929 622.525 344.271 623.067 344.954L623.133 344.075H624.371V351.81C624.371 352.835 624.066 353.643 623.456 354.234C622.85 354.825 622.035 355.12 621.009 355.12C620.438 355.12 619.879 354.998 619.332 354.754C618.785 354.51 618.368 354.175 618.08 353.75L618.783 352.938C619.364 353.655 620.074 354.014 620.914 354.014C621.573 354.014 622.086 353.829 622.452 353.458C622.823 353.086 623.009 352.564 623.009 351.89V351.209C622.467 351.834 621.727 352.146 620.79 352.146C619.862 352.146 619.11 351.773 618.534 351.026C617.962 350.279 617.677 349.261 617.677 347.972ZM619.039 348.125C619.039 349.019 619.222 349.722 619.588 350.235C619.955 350.743 620.467 350.997 621.126 350.997C621.981 350.997 622.608 350.608 623.009 349.832V346.214C622.594 345.457 621.971 345.079 621.141 345.079C620.482 345.079 619.967 345.335 619.596 345.848C619.225 346.36 619.039 347.12 619.039 348.125ZM628.253 346.009H629.271C629.911 345.999 630.414 345.831 630.78 345.503C631.146 345.176 631.329 344.734 631.329 344.178C631.329 342.928 630.707 342.303 629.461 342.303C628.875 342.303 628.407 342.471 628.055 342.808C627.708 343.14 627.535 343.582 627.535 344.134H626.18C626.18 343.289 626.488 342.588 627.103 342.032C627.723 341.47 628.509 341.189 629.461 341.189C630.467 341.189 631.256 341.456 631.827 341.988C632.398 342.52 632.684 343.26 632.684 344.207C632.684 344.671 632.533 345.12 632.23 345.555C631.932 345.989 631.524 346.314 631.007 346.529C631.593 346.714 632.044 347.022 632.362 347.452C632.684 347.881 632.845 348.406 632.845 349.026C632.845 349.983 632.533 350.743 631.908 351.304C631.283 351.866 630.47 352.146 629.469 352.146C628.468 352.146 627.652 351.875 627.022 351.333C626.397 350.792 626.085 350.076 626.085 349.188H627.447C627.447 349.749 627.63 350.198 627.997 350.535C628.363 350.872 628.854 351.041 629.469 351.041C630.123 351.041 630.624 350.87 630.97 350.528C631.317 350.186 631.49 349.695 631.49 349.056C631.49 348.436 631.3 347.959 630.919 347.627C630.538 347.295 629.989 347.125 629.271 347.115H628.253V346.009ZM641.393 347.452C641.393 349.039 641.122 350.218 640.58 350.989C640.038 351.761 639.19 352.146 638.038 352.146C636.9 352.146 636.058 351.771 635.511 351.019C634.964 350.262 634.681 349.134 634.662 347.635V345.826C634.662 344.258 634.933 343.094 635.475 342.332C636.017 341.57 636.866 341.189 638.023 341.189C639.171 341.189 640.016 341.558 640.558 342.295C641.1 343.028 641.378 344.161 641.393 345.694V347.452ZM640.038 345.599C640.038 344.451 639.876 343.616 639.554 343.094C639.232 342.566 638.722 342.303 638.023 342.303C637.33 342.303 636.825 342.564 636.507 343.086C636.19 343.609 636.026 344.412 636.017 345.496V347.664C636.017 348.816 636.183 349.668 636.515 350.22C636.852 350.767 637.359 351.041 638.038 351.041C638.707 351.041 639.203 350.782 639.525 350.264C639.852 349.747 640.023 348.931 640.038 347.818V345.599Z" fill="#626262"/>
<path d="M701.126 349.217H696.659L695.655 352H694.205L698.277 341.336H699.508L703.587 352H702.145L701.126 349.217ZM697.083 348.06H700.709L698.893 343.072L697.083 348.06ZM709.615 351.216C709.088 351.836 708.314 352.146 707.293 352.146C706.449 352.146 705.804 351.902 705.36 351.414C704.92 350.921 704.698 350.193 704.693 349.231V344.075H706.048V349.195C706.048 350.396 706.537 350.997 707.513 350.997C708.548 350.997 709.237 350.611 709.579 349.839V344.075H710.934V352H709.645L709.615 351.216ZM712.677 347.972C712.677 346.736 712.962 345.755 713.534 345.027C714.105 344.295 714.862 343.929 715.804 343.929C716.771 343.929 717.525 344.271 718.067 344.954L718.133 344.075H719.371V351.81C719.371 352.835 719.066 353.643 718.456 354.234C717.85 354.825 717.035 355.12 716.009 355.12C715.438 355.12 714.879 354.998 714.332 354.754C713.785 354.51 713.368 354.175 713.08 353.75L713.783 352.938C714.364 353.655 715.074 354.014 715.914 354.014C716.573 354.014 717.086 353.829 717.452 353.458C717.823 353.086 718.009 352.564 718.009 351.89V351.209C717.467 351.834 716.727 352.146 715.79 352.146C714.862 352.146 714.11 351.773 713.534 351.026C712.962 350.279 712.677 349.261 712.677 347.972ZM714.039 348.125C714.039 349.019 714.222 349.722 714.588 350.235C714.955 350.743 715.467 350.997 716.126 350.997C716.981 350.997 717.608 350.608 718.009 349.832V346.214C717.594 345.457 716.971 345.079 716.141 345.079C715.482 345.079 714.967 345.335 714.596 345.848C714.225 346.36 714.039 347.12 714.039 348.125ZM728.27 352H721.283V351.026L724.974 346.924C725.521 346.304 725.897 345.801 726.102 345.416C726.312 345.025 726.417 344.622 726.417 344.207C726.417 343.65 726.249 343.194 725.912 342.837C725.575 342.481 725.125 342.303 724.564 342.303C723.89 342.303 723.365 342.496 722.989 342.881C722.618 343.262 722.433 343.794 722.433 344.478H721.078C721.078 343.497 721.393 342.703 722.022 342.098C722.657 341.492 723.504 341.189 724.564 341.189C725.555 341.189 726.339 341.451 726.915 341.973C727.491 342.491 727.779 343.182 727.779 344.046C727.779 345.096 727.11 346.346 725.772 347.796L722.916 350.894H728.27V352ZM736.393 347.452C736.393 349.039 736.122 350.218 735.58 350.989C735.038 351.761 734.19 352.146 733.038 352.146C731.9 352.146 731.058 351.771 730.511 351.019C729.964 350.262 729.681 349.134 729.662 347.635V345.826C729.662 344.258 729.933 343.094 730.475 342.332C731.017 341.57 731.866 341.189 733.023 341.189C734.171 341.189 735.016 341.558 735.558 342.295C736.1 343.028 736.378 344.161 736.393 345.694V347.452ZM735.038 345.599C735.038 344.451 734.876 343.616 734.554 343.094C734.232 342.566 733.722 342.303 733.023 342.303C732.33 342.303 731.825 342.564 731.507 343.086C731.19 343.609 731.026 344.412 731.017 345.496V347.664C731.017 348.816 731.183 349.668 731.515 350.22C731.852 350.767 732.359 351.041 733.038 351.041C733.707 351.041 734.203 350.782 734.525 350.264C734.852 349.747 735.023 348.931 735.038 347.818V345.599Z" fill="#626262"/>
<path d="M796.126 349.217H791.659L790.655 352H789.205L793.277 341.336H794.508L798.587 352H797.145L796.126 349.217ZM792.083 348.06H795.709L793.893 343.072L792.083 348.06ZM804.615 351.216C804.088 351.836 803.314 352.146 802.293 352.146C801.449 352.146 800.804 351.902 800.36 351.414C799.92 350.921 799.698 350.193 799.693 349.231V344.075H801.048V349.195C801.048 350.396 801.537 350.997 802.513 350.997C803.548 350.997 804.237 350.611 804.579 349.839V344.075H805.934V352H804.645L804.615 351.216ZM807.677 347.972C807.677 346.736 807.962 345.755 808.534 345.027C809.105 344.295 809.862 343.929 810.804 343.929C811.771 343.929 812.525 344.271 813.067 344.954L813.133 344.075H814.371V351.81C814.371 352.835 814.066 353.643 813.456 354.234C812.85 354.825 812.035 355.12 811.009 355.12C810.438 355.12 809.879 354.998 809.332 354.754C808.785 354.51 808.368 354.175 808.08 353.75L808.783 352.938C809.364 353.655 810.074 354.014 810.914 354.014C811.573 354.014 812.086 353.829 812.452 353.458C812.823 353.086 813.009 352.564 813.009 351.89V351.209C812.467 351.834 811.727 352.146 810.79 352.146C809.862 352.146 809.11 351.773 808.534 351.026C807.962 350.279 807.677 349.261 807.677 347.972ZM809.039 348.125C809.039 349.019 809.222 349.722 809.588 350.235C809.955 350.743 810.467 350.997 811.126 350.997C811.981 350.997 812.608 350.608 813.009 349.832V346.214C812.594 345.457 811.971 345.079 811.141 345.079C810.482 345.079 809.967 345.335 809.596 345.848C809.225 346.36 809.039 347.12 809.039 348.125ZM823.27 352H816.283V351.026L819.974 346.924C820.521 346.304 820.897 345.801 821.102 345.416C821.312 345.025 821.417 344.622 821.417 344.207C821.417 343.65 821.249 343.194 820.912 342.837C820.575 342.481 820.125 342.303 819.564 342.303C818.89 342.303 818.365 342.496 817.989 342.881C817.618 343.262 817.433 343.794 817.433 344.478H816.078C816.078 343.497 816.393 342.703 817.022 342.098C817.657 341.492 818.504 341.189 819.564 341.189C820.555 341.189 821.339 341.451 821.915 341.973C822.491 342.491 822.779 343.182 822.779 344.046C822.779 345.096 822.11 346.346 820.772 347.796L817.916 350.894H823.27V352ZM831.393 347.452C831.393 349.039 831.122 350.218 830.58 350.989C830.038 351.761 829.19 352.146 828.038 352.146C826.9 352.146 826.058 351.771 825.511 351.019C824.964 350.262 824.681 349.134 824.662 347.635V345.826C824.662 344.258 824.933 343.094 825.475 342.332C826.017 341.57 826.866 341.189 828.023 341.189C829.171 341.189 830.016 341.558 830.558 342.295C831.1 343.028 831.378 344.161 831.393 345.694V347.452ZM830.038 345.599C830.038 344.451 829.876 343.616 829.554 343.094C829.232 342.566 828.722 342.303 828.023 342.303C827.33 342.303 826.825 342.564 826.507 343.086C826.19 343.609 826.026 344.412 826.017 345.496V347.664C826.017 348.816 826.183 349.668 826.515 350.22C826.852 350.767 827.359 351.041 828.038 351.041C828.707 351.041 829.203 350.782 829.525 350.264C829.852 349.747 830.023 348.931 830.038 347.818V345.599Z" fill="#626262"/>
<path d="M891.126 349.217H886.659L885.655 352H884.205L888.277 341.336H889.508L893.587 352H892.145L891.126 349.217ZM887.083 348.06H890.709L888.893 343.072L887.083 348.06ZM899.615 351.216C899.088 351.836 898.314 352.146 897.293 352.146C896.449 352.146 895.804 351.902 895.36 351.414C894.92 350.921 894.698 350.193 894.693 349.231V344.075H896.048V349.195C896.048 350.396 896.537 350.997 897.513 350.997C898.548 350.997 899.237 350.611 899.579 349.839V344.075H900.934V352H899.645L899.615 351.216ZM902.677 347.972C902.677 346.736 902.962 345.755 903.534 345.027C904.105 344.295 904.862 343.929 905.804 343.929C906.771 343.929 907.525 344.271 908.067 344.954L908.133 344.075H909.371V351.81C909.371 352.835 909.066 353.643 908.456 354.234C907.85 354.825 907.035 355.12 906.009 355.12C905.438 355.12 904.879 354.998 904.332 354.754C903.785 354.51 903.368 354.175 903.08 353.75L903.783 352.938C904.364 353.655 905.074 354.014 905.914 354.014C906.573 354.014 907.086 353.829 907.452 353.458C907.823 353.086 908.009 352.564 908.009 351.89V351.209C907.467 351.834 906.727 352.146 905.79 352.146C904.862 352.146 904.11 351.773 903.534 351.026C902.962 350.279 902.677 349.261 902.677 347.972ZM904.039 348.125C904.039 349.019 904.222 349.722 904.588 350.235C904.955 350.743 905.467 350.997 906.126 350.997C906.981 350.997 907.608 350.608 908.009 349.832V346.214C907.594 345.457 906.971 345.079 906.141 345.079C905.482 345.079 904.967 345.335 904.596 345.848C904.225 346.36 904.039 347.12 904.039 348.125ZM918.27 352H911.283V351.026L914.974 346.924C915.521 346.304 915.897 345.801 916.102 345.416C916.312 345.025 916.417 344.622 916.417 344.207C916.417 343.65 916.249 343.194 915.912 342.837C915.575 342.481 915.125 342.303 914.564 342.303C913.89 342.303 913.365 342.496 912.989 342.881C912.618 343.262 912.433 343.794 912.433 344.478H911.078C911.078 343.497 911.393 342.703 912.022 342.098C912.657 341.492 913.504 341.189 914.564 341.189C915.555 341.189 916.339 341.451 916.915 341.973C917.491 342.491 917.779 343.182 917.779 344.046C917.779 345.096 917.11 346.346 915.772 347.796L912.916 350.894H918.27V352ZM926.393 347.452C926.393 349.039 926.122 350.218 925.58 350.989C925.038 351.761 924.19 352.146 923.038 352.146C921.9 352.146 921.058 351.771 920.511 351.019C919.964 350.262 919.681 349.134 919.662 347.635V345.826C919.662 344.258 919.933 343.094 920.475 342.332C921.017 341.57 921.866 341.189 923.023 341.189C924.171 341.189 925.016 341.558 925.558 342.295C926.1 343.028 926.378 344.161 926.393 345.694V347.452ZM925.038 345.599C925.038 344.451 924.876 343.616 924.554 343.094C924.232 342.566 923.722 342.303 923.023 342.303C922.33 342.303 921.825 342.564 921.507 343.086C921.19 343.609 921.026 344.412 921.017 345.496V347.664C921.017 348.816 921.183 349.668 921.515 350.22C921.852 350.767 922.359 351.041 923.038 351.041C923.707 351.041 924.203 350.782 924.525 350.264C924.852 349.747 925.023 348.931 925.038 347.818V345.599Z" fill="#626262"/>
<path d="M986.126 349.217H981.659L980.655 352H979.205L983.277 341.336H984.508L988.587 352H987.145L986.126 349.217ZM982.083 348.06H985.709L983.893 343.072L982.083 348.06ZM994.615 351.216C994.088 351.836 993.314 352.146 992.293 352.146C991.449 352.146 990.804 351.902 990.36 351.414C989.92 350.921 989.698 350.193 989.693 349.231V344.075H991.048V349.195C991.048 350.396 991.537 350.997 992.513 350.997C993.548 350.997 994.237 350.611 994.579 349.839V344.075H995.934V352H994.645L994.615 351.216ZM997.677 347.972C997.677 346.736 997.962 345.755 998.534 345.027C999.105 344.295 999.862 343.929 1000.8 343.929C1001.77 343.929 1002.53 344.271 1003.07 344.954L1003.13 344.075H1004.37V351.81C1004.37 352.835 1004.07 353.643 1003.46 354.234C1002.85 354.825 1002.03 355.12 1001.01 355.12C1000.44 355.12 999.879 354.998 999.332 354.754C998.785 354.51 998.368 354.175 998.08 353.75L998.783 352.938C999.364 353.655 1000.07 354.014 1000.91 354.014C1001.57 354.014 1002.09 353.829 1002.45 353.458C1002.82 353.086 1003.01 352.564 1003.01 351.89V351.209C1002.47 351.834 1001.73 352.146 1000.79 352.146C999.862 352.146 999.11 351.773 998.534 351.026C997.962 350.279 997.677 349.261 997.677 347.972ZM999.039 348.125C999.039 349.019 999.222 349.722 999.588 350.235C999.955 350.743 1000.47 350.997 1001.13 350.997C1001.98 350.997 1002.61 350.608 1003.01 349.832V346.214C1002.59 345.457 1001.97 345.079 1001.14 345.079C1000.48 345.079 999.967 345.335 999.596 345.848C999.225 346.36 999.039 347.12 999.039 348.125ZM1013.27 352H1006.28V351.026L1009.97 346.924C1010.52 346.304 1010.9 345.801 1011.1 345.416C1011.31 345.025 1011.42 344.622 1011.42 344.207C1011.42 343.65 1011.25 343.194 1010.91 342.837C1010.57 342.481 1010.13 342.303 1009.56 342.303C1008.89 342.303 1008.37 342.496 1007.99 342.881C1007.62 343.262 1007.43 343.794 1007.43 344.478H1006.08C1006.08 343.497 1006.39 342.703 1007.02 342.098C1007.66 341.492 1008.5 341.189 1009.56 341.189C1010.56 341.189 1011.34 341.451 1011.92 341.973C1012.49 342.491 1012.78 343.182 1012.78 344.046C1012.78 345.096 1012.11 346.346 1010.77 347.796L1007.92 350.894H1013.27V352ZM1021.39 347.452C1021.39 349.039 1021.12 350.218 1020.58 350.989C1020.04 351.761 1019.19 352.146 1018.04 352.146C1016.9 352.146 1016.06 351.771 1015.51 351.019C1014.96 350.262 1014.68 349.134 1014.66 347.635V345.826C1014.66 344.258 1014.93 343.094 1015.47 342.332C1016.02 341.57 1016.87 341.189 1018.02 341.189C1019.17 341.189 1020.02 341.558 1020.56 342.295C1021.1 343.028 1021.38 344.161 1021.39 345.694V347.452ZM1020.04 345.599C1020.04 344.451 1019.88 343.616 1019.55 343.094C1019.23 342.566 1018.72 342.303 1018.02 342.303C1017.33 342.303 1016.82 342.564 1016.51 343.086C1016.19 343.609 1016.03 344.412 1016.02 345.496V347.664C1016.02 348.816 1016.18 349.668 1016.51 350.22C1016.85 350.767 1017.36 351.041 1018.04 351.041C1018.71 351.041 1019.2 350.782 1019.52 350.264C1019.85 349.747 1020.02 348.931 1020.04 347.818V345.599Z" fill="#626262"/>
<path d="M1081.13 349.217H1076.66L1075.66 352H1074.21L1078.28 341.336H1079.51L1083.59 352H1082.14L1081.13 349.217ZM1077.08 348.06H1080.71L1078.89 343.072L1077.08 348.06ZM1089.62 351.216C1089.09 351.836 1088.31 352.146 1087.29 352.146C1086.45 352.146 1085.8 351.902 1085.36 351.414C1084.92 350.921 1084.7 350.193 1084.69 349.231V344.075H1086.05V349.195C1086.05 350.396 1086.54 350.997 1087.51 350.997C1088.55 350.997 1089.24 350.611 1089.58 349.839V344.075H1090.93V352H1089.64L1089.62 351.216ZM1092.68 347.972C1092.68 346.736 1092.96 345.755 1093.53 345.027C1094.1 344.295 1094.86 343.929 1095.8 343.929C1096.77 343.929 1097.53 344.271 1098.07 344.954L1098.13 344.075H1099.37V351.81C1099.37 352.835 1099.07 353.643 1098.46 354.234C1097.85 354.825 1097.03 355.12 1096.01 355.12C1095.44 355.12 1094.88 354.998 1094.33 354.754C1093.79 354.51 1093.37 354.175 1093.08 353.75L1093.78 352.938C1094.36 353.655 1095.07 354.014 1095.91 354.014C1096.57 354.014 1097.09 353.829 1097.45 353.458C1097.82 353.086 1098.01 352.564 1098.01 351.89V351.209C1097.47 351.834 1096.73 352.146 1095.79 352.146C1094.86 352.146 1094.11 351.773 1093.53 351.026C1092.96 350.279 1092.68 349.261 1092.68 347.972ZM1094.04 348.125C1094.04 349.019 1094.22 349.722 1094.59 350.235C1094.95 350.743 1095.47 350.997 1096.13 350.997C1096.98 350.997 1097.61 350.608 1098.01 349.832V346.214C1097.59 345.457 1096.97 345.079 1096.14 345.079C1095.48 345.079 1094.97 345.335 1094.6 345.848C1094.22 346.36 1094.04 347.12 1094.04 348.125ZM1108.27 352H1101.28V351.026L1104.97 346.924C1105.52 346.304 1105.9 345.801 1106.1 345.416C1106.31 345.025 1106.42 344.622 1106.42 344.207C1106.42 343.65 1106.25 343.194 1105.91 342.837C1105.57 342.481 1105.13 342.303 1104.56 342.303C1103.89 342.303 1103.37 342.496 1102.99 342.881C1102.62 343.262 1102.43 343.794 1102.43 344.478H1101.08C1101.08 343.497 1101.39 342.703 1102.02 342.098C1102.66 341.492 1103.5 341.189 1104.56 341.189C1105.56 341.189 1106.34 341.451 1106.92 341.973C1107.49 342.491 1107.78 343.182 1107.78 344.046C1107.78 345.096 1107.11 346.346 1105.77 347.796L1102.92 350.894H1108.27V352ZM1116.39 347.452C1116.39 349.039 1116.12 350.218 1115.58 350.989C1115.04 351.761 1114.19 352.146 1113.04 352.146C1111.9 352.146 1111.06 351.771 1110.51 351.019C1109.96 350.262 1109.68 349.134 1109.66 347.635V345.826C1109.66 344.258 1109.93 343.094 1110.47 342.332C1111.02 341.57 1111.87 341.189 1113.02 341.189C1114.17 341.189 1115.02 341.558 1115.56 342.295C1116.1 343.028 1116.38 344.161 1116.39 345.694V347.452ZM1115.04 345.599C1115.04 344.451 1114.88 343.616 1114.55 343.094C1114.23 342.566 1113.72 342.303 1113.02 342.303C1112.33 342.303 1111.82 342.564 1111.51 343.086C1111.19 343.609 1111.03 344.412 1111.02 345.496V347.664C1111.02 348.816 1111.18 349.668 1111.51 350.22C1111.85 350.767 1112.36 351.041 1113.04 351.041C1113.71 351.041 1114.2 350.782 1114.52 350.264C1114.85 349.747 1115.02 348.931 1115.04 347.818V345.599Z" fill="#626262"/>
<path d="M1167.49 346.69L1170.27 341.336H1171.87L1168.19 348.023V352H1166.79V348.023L1163.11 341.336H1164.72L1167.49 346.69ZM1175.84 352.146C1174.77 352.146 1173.89 351.795 1173.22 351.092C1172.54 350.384 1172.21 349.439 1172.21 348.257V348.008C1172.21 347.222 1172.36 346.521 1172.65 345.906C1172.96 345.286 1173.38 344.803 1173.91 344.456C1174.46 344.104 1175.04 343.929 1175.67 343.929C1176.7 343.929 1177.5 344.268 1178.07 344.947C1178.64 345.625 1178.93 346.597 1178.93 347.862V348.426H1173.56C1173.58 349.207 1173.81 349.839 1174.24 350.323C1174.68 350.801 1175.24 351.041 1175.91 351.041C1176.39 351.041 1176.8 350.943 1177.13 350.748C1177.46 350.552 1177.75 350.293 1178 349.971L1178.83 350.616C1178.16 351.636 1177.17 352.146 1175.84 352.146ZM1175.67 345.042C1175.12 345.042 1174.67 345.242 1174.29 345.643C1173.92 346.038 1173.69 346.595 1173.61 347.312H1177.58V347.21C1177.54 346.521 1177.35 345.989 1177.02 345.613C1176.69 345.232 1176.24 345.042 1175.67 345.042ZM1185.12 349.898C1185.12 349.532 1184.98 349.249 1184.7 349.048C1184.43 348.843 1183.95 348.667 1183.26 348.521C1182.58 348.375 1182.03 348.199 1181.63 347.994C1181.23 347.789 1180.93 347.544 1180.73 347.261C1180.54 346.978 1180.45 346.641 1180.45 346.25C1180.45 345.601 1180.72 345.052 1181.27 344.603C1181.82 344.153 1182.52 343.929 1183.38 343.929C1184.27 343.929 1185 344.161 1185.56 344.625C1186.12 345.088 1186.4 345.682 1186.4 346.404H1185.04C1185.04 346.033 1184.88 345.713 1184.56 345.445C1184.25 345.176 1183.85 345.042 1183.38 345.042C1182.88 345.042 1182.5 345.149 1182.22 345.364C1181.94 345.579 1181.8 345.86 1181.8 346.207C1181.8 346.534 1181.93 346.78 1182.19 346.946C1182.45 347.112 1182.91 347.271 1183.59 347.422C1184.27 347.574 1184.82 347.754 1185.24 347.964C1185.66 348.174 1185.97 348.428 1186.17 348.726C1186.37 349.019 1186.47 349.378 1186.47 349.803C1186.47 350.511 1186.19 351.08 1185.62 351.509C1185.06 351.934 1184.32 352.146 1183.42 352.146C1182.79 352.146 1182.22 352.034 1181.74 351.81C1181.25 351.585 1180.86 351.272 1180.59 350.872C1180.31 350.467 1180.18 350.03 1180.18 349.561H1181.53C1181.55 350.015 1181.74 350.376 1182.07 350.645C1182.41 350.909 1182.86 351.041 1183.42 351.041C1183.93 351.041 1184.34 350.938 1184.65 350.733C1184.96 350.523 1185.12 350.245 1185.12 349.898ZM1190.08 342.156V344.075H1191.56V345.123H1190.08V350.037C1190.08 350.354 1190.14 350.594 1190.28 350.755C1190.41 350.911 1190.63 350.989 1190.95 350.989C1191.11 350.989 1191.32 350.96 1191.59 350.901V352C1191.24 352.098 1190.89 352.146 1190.55 352.146C1189.95 352.146 1189.49 351.963 1189.18 351.597C1188.88 351.231 1188.72 350.711 1188.72 350.037V345.123H1187.28V344.075H1188.72V342.156H1190.08ZM1196.44 352.146C1195.36 352.146 1194.49 351.795 1193.81 351.092C1193.14 350.384 1192.8 349.439 1192.8 348.257V348.008C1192.8 347.222 1192.95 346.521 1193.25 345.906C1193.55 345.286 1193.97 344.803 1194.51 344.456C1195.05 344.104 1195.64 343.929 1196.27 343.929C1197.3 343.929 1198.1 344.268 1198.67 344.947C1199.24 345.625 1199.53 346.597 1199.53 347.862V348.426H1194.16C1194.18 349.207 1194.4 349.839 1194.84 350.323C1195.28 350.801 1195.83 351.041 1196.51 351.041C1196.99 351.041 1197.39 350.943 1197.72 350.748C1198.06 350.552 1198.35 350.293 1198.6 349.971L1199.42 350.616C1198.76 351.636 1197.76 352.146 1196.44 352.146ZM1196.27 345.042C1195.72 345.042 1195.26 345.242 1194.89 345.643C1194.52 346.038 1194.29 346.595 1194.2 347.312H1198.17V347.21C1198.13 346.521 1197.95 345.989 1197.61 345.613C1197.28 345.232 1196.83 345.042 1196.27 345.042ZM1204.93 345.291C1204.73 345.257 1204.5 345.24 1204.26 345.24C1203.38 345.24 1202.77 345.618 1202.46 346.375V352H1201.1V344.075H1202.42L1202.44 344.991C1202.89 344.283 1203.52 343.929 1204.33 343.929C1204.59 343.929 1204.79 343.963 1204.93 344.031V345.291ZM1205.71 347.972C1205.71 346.756 1206 345.779 1206.57 345.042C1207.15 344.3 1207.9 343.929 1208.83 343.929C1209.76 343.929 1210.5 344.246 1211.04 344.881V340.75H1212.39V352H1211.15L1211.08 351.15C1210.54 351.814 1209.79 352.146 1208.82 352.146C1207.9 352.146 1207.15 351.771 1206.57 351.019C1206 350.267 1205.71 349.285 1205.71 348.074V347.972ZM1207.06 348.125C1207.06 349.024 1207.25 349.727 1207.62 350.235C1207.99 350.743 1208.5 350.997 1209.16 350.997C1210.02 350.997 1210.64 350.611 1211.04 349.839V346.199C1210.63 345.452 1210.01 345.079 1209.17 345.079C1208.51 345.079 1207.99 345.335 1207.62 345.848C1207.25 346.36 1207.06 347.12 1207.06 348.125ZM1219.4 352C1219.32 351.844 1219.25 351.565 1219.21 351.165C1218.58 351.819 1217.82 352.146 1216.95 352.146C1216.17 352.146 1215.53 351.927 1215.02 351.487C1214.53 351.043 1214.28 350.481 1214.28 349.803C1214.28 348.978 1214.59 348.338 1215.21 347.884C1215.84 347.425 1216.73 347.195 1217.87 347.195H1219.18V346.573C1219.18 346.099 1219.04 345.723 1218.76 345.445C1218.48 345.162 1218.06 345.02 1217.51 345.02C1217.02 345.02 1216.62 345.142 1216.29 345.386C1215.96 345.63 1215.8 345.926 1215.8 346.272H1214.44C1214.44 345.877 1214.58 345.496 1214.86 345.13C1215.14 344.759 1215.52 344.466 1216 344.251C1216.48 344.036 1217.01 343.929 1217.59 343.929C1218.5 343.929 1219.22 344.158 1219.73 344.617C1220.25 345.071 1220.52 345.699 1220.54 346.5V350.147C1220.54 350.875 1220.63 351.453 1220.82 351.883V352H1219.4ZM1217.15 350.967C1217.57 350.967 1217.98 350.857 1218.36 350.638C1218.74 350.418 1219.01 350.132 1219.18 349.781V348.155H1218.12C1216.46 348.155 1215.63 348.641 1215.63 349.612C1215.63 350.037 1215.77 350.369 1216.06 350.608C1216.34 350.848 1216.7 350.967 1217.15 350.967ZM1225.14 350.015L1226.98 344.075H1228.43L1225.25 353.223C1224.76 354.542 1223.97 355.201 1222.9 355.201L1222.64 355.179L1222.14 355.083V353.985L1222.5 354.014C1222.96 354.014 1223.32 353.921 1223.57 353.736C1223.83 353.55 1224.04 353.211 1224.21 352.718L1224.51 351.912L1221.68 344.075H1223.16L1225.14 350.015Z" fill="#626262"/>
<path d="M1272.61 342.493H1269.18V352H1267.78V342.493H1264.36V341.336H1272.61V342.493ZM1272.88 347.964C1272.88 347.188 1273.04 346.49 1273.34 345.87C1273.65 345.25 1274.07 344.771 1274.61 344.434C1275.16 344.097 1275.78 343.929 1276.48 343.929C1277.56 343.929 1278.43 344.302 1279.1 345.049C1279.76 345.796 1280.1 346.79 1280.1 348.03V348.125C1280.1 348.897 1279.95 349.59 1279.65 350.206C1279.36 350.816 1278.94 351.292 1278.38 351.634C1277.84 351.976 1277.21 352.146 1276.5 352.146C1275.42 352.146 1274.55 351.773 1273.88 351.026C1273.22 350.279 1272.88 349.29 1272.88 348.06V347.964ZM1274.25 348.125C1274.25 349.004 1274.45 349.71 1274.85 350.242C1275.26 350.774 1275.81 351.041 1276.5 351.041C1277.18 351.041 1277.73 350.772 1278.14 350.235C1278.54 349.693 1278.74 348.936 1278.74 347.964C1278.74 347.095 1278.54 346.392 1278.12 345.855C1277.71 345.313 1277.16 345.042 1276.48 345.042C1275.81 345.042 1275.27 345.308 1274.86 345.84C1274.45 346.373 1274.25 347.134 1274.25 348.125ZM1281.47 347.972C1281.47 346.756 1281.76 345.779 1282.33 345.042C1282.91 344.3 1283.66 343.929 1284.6 343.929C1285.52 343.929 1286.26 344.246 1286.8 344.881V340.75H1288.16V352H1286.91L1286.84 351.15C1286.3 351.814 1285.55 352.146 1284.58 352.146C1283.66 352.146 1282.91 351.771 1282.33 351.019C1281.76 350.267 1281.47 349.285 1281.47 348.074V347.972ZM1282.82 348.125C1282.82 349.024 1283.01 349.727 1283.38 350.235C1283.75 350.743 1284.26 350.997 1284.92 350.997C1285.78 350.997 1286.4 350.611 1286.8 349.839V346.199C1286.4 345.452 1285.77 345.079 1284.93 345.079C1284.27 345.079 1283.75 345.335 1283.38 345.848C1283.01 346.36 1282.82 347.12 1282.82 348.125ZM1295.16 352C1295.08 351.844 1295.02 351.565 1294.97 351.165C1294.34 351.819 1293.58 352.146 1292.71 352.146C1291.93 352.146 1291.29 351.927 1290.78 351.487C1290.29 351.043 1290.04 350.481 1290.04 349.803C1290.04 348.978 1290.35 348.338 1290.98 347.884C1291.6 347.425 1292.49 347.195 1293.63 347.195H1294.94V346.573C1294.94 346.099 1294.8 345.723 1294.52 345.445C1294.24 345.162 1293.82 345.02 1293.27 345.02C1292.78 345.02 1292.38 345.142 1292.05 345.386C1291.72 345.63 1291.56 345.926 1291.56 346.272H1290.2C1290.2 345.877 1290.34 345.496 1290.62 345.13C1290.9 344.759 1291.28 344.466 1291.76 344.251C1292.24 344.036 1292.77 343.929 1293.35 343.929C1294.26 343.929 1294.98 344.158 1295.49 344.617C1296.01 345.071 1296.28 345.699 1296.3 346.5V350.147C1296.3 350.875 1296.39 351.453 1296.58 351.883V352H1295.16ZM1292.91 350.967C1293.33 350.967 1293.74 350.857 1294.12 350.638C1294.5 350.418 1294.77 350.132 1294.94 349.781V348.155H1293.88C1292.22 348.155 1291.39 348.641 1291.39 349.612C1291.39 350.037 1291.53 350.369 1291.82 350.608C1292.1 350.848 1292.46 350.967 1292.91 350.967ZM1300.9 350.015L1302.75 344.075H1304.2L1301.01 353.223C1300.52 354.542 1299.73 355.201 1298.66 355.201L1298.4 355.179L1297.9 355.083V353.985L1298.26 354.014C1298.72 354.014 1299.08 353.921 1299.33 353.736C1299.59 353.55 1299.8 353.211 1299.97 352.718L1300.27 351.912L1297.44 344.075H1298.92L1300.9 350.015Z" fill="#626262"/>
<path d="M34.1055 297.887C34.1055 297.378 33.9256 296.949 33.5659 296.601C33.2118 296.252 32.6113 295.937 31.7646 295.654C30.5859 295.295 29.7254 294.827 29.1831 294.251C28.6463 293.67 28.3779 292.934 28.3779 292.043C28.3779 291.136 28.6408 290.392 29.1665 289.811C29.6978 289.229 30.4255 288.884 31.3496 288.773V286.955H32.5864V288.781C33.5161 288.909 34.2383 289.299 34.7529 289.952C35.2731 290.605 35.5332 291.498 35.5332 292.633H34.0059C34.0059 291.853 33.8205 291.233 33.4497 290.773C33.0789 290.314 32.5781 290.084 31.9473 290.084C31.2887 290.084 30.7852 290.256 30.4365 290.599C30.0879 290.937 29.9136 291.41 29.9136 292.019C29.9136 292.583 30.0962 293.034 30.4614 293.372C30.8322 293.704 31.4382 294.008 32.2793 294.285C33.126 294.556 33.7845 294.857 34.2549 295.189C34.7308 295.516 35.0794 295.898 35.3008 296.335C35.5277 296.772 35.6411 297.284 35.6411 297.871C35.6411 298.806 35.3589 299.558 34.7944 300.128C34.2355 300.698 33.4497 301.036 32.437 301.141V302.727H31.2085V301.141C30.1792 301.047 29.3713 300.682 28.7847 300.045C28.2036 299.403 27.9131 298.535 27.9131 297.439H29.4487C29.4487 298.208 29.6507 298.8 30.0547 299.215C30.4587 299.63 31.0314 299.838 31.7729 299.838C32.4979 299.838 33.0679 299.664 33.4829 299.315C33.8979 298.966 34.1055 298.49 34.1055 297.887ZM42.5972 301H41.0532V290.765L37.957 291.902V290.508L42.3564 288.856H42.5972V301ZM54.6748 295.845C54.6748 297.644 54.3677 298.98 53.7534 299.854C53.1392 300.729 52.179 301.166 50.873 301.166C49.5837 301.166 48.6291 300.74 48.0093 299.888C47.3895 299.03 47.0685 297.752 47.0464 296.053V294.002C47.0464 292.226 47.3535 290.906 47.9678 290.043C48.582 289.18 49.5449 288.748 50.8564 288.748C52.1569 288.748 53.1143 289.166 53.7285 290.001C54.3428 290.832 54.6582 292.115 54.6748 293.853V295.845ZM53.1392 293.745C53.1392 292.445 52.9565 291.498 52.5913 290.906C52.2261 290.309 51.6478 290.01 50.8564 290.01C50.0706 290.01 49.4979 290.306 49.1382 290.898C48.7785 291.49 48.5931 292.4 48.582 293.629V296.086C48.582 297.392 48.7702 298.358 49.1465 298.983C49.5283 299.603 50.1038 299.913 50.873 299.913C51.6312 299.913 52.1929 299.619 52.5581 299.033C52.9289 298.446 53.1226 297.522 53.1392 296.26V293.745ZM64.2207 295.845C64.2207 297.644 63.9136 298.98 63.2993 299.854C62.6851 300.729 61.7249 301.166 60.4189 301.166C59.1296 301.166 58.175 300.74 57.5552 299.888C56.9354 299.03 56.6144 297.752 56.5923 296.053V294.002C56.5923 292.226 56.8994 290.906 57.5137 290.043C58.1279 289.18 59.0908 288.748 60.4023 288.748C61.7028 288.748 62.6602 289.166 63.2744 290.001C63.8887 290.832 64.2041 292.115 64.2207 293.853V295.845ZM62.6851 293.745C62.6851 292.445 62.5024 291.498 62.1372 290.906C61.772 290.309 61.1937 290.01 60.4023 290.01C59.6165 290.01 59.0438 290.306 58.6841 290.898C58.3244 291.49 58.139 292.4 58.1279 293.629V296.086C58.1279 297.392 58.3161 298.358 58.6924 298.983C59.0742 299.603 59.6497 299.913 60.4189 299.913C61.1771 299.913 61.7388 299.619 62.104 299.033C62.4748 298.446 62.6685 297.522 62.6851 296.26V293.745Z" fill="#626262"/>
<path d="M34.1055 267.887C34.1055 267.378 33.9256 266.949 33.5659 266.601C33.2118 266.252 32.6113 265.937 31.7646 265.654C30.5859 265.295 29.7254 264.827 29.1831 264.251C28.6463 263.67 28.3779 262.934 28.3779 262.043C28.3779 261.136 28.6408 260.392 29.1665 259.811C29.6978 259.229 30.4255 258.884 31.3496 258.773V256.955H32.5864V258.781C33.5161 258.909 34.2383 259.299 34.7529 259.952C35.2731 260.605 35.5332 261.498 35.5332 262.633H34.0059C34.0059 261.853 33.8205 261.233 33.4497 260.773C33.0789 260.314 32.5781 260.084 31.9473 260.084C31.2887 260.084 30.7852 260.256 30.4365 260.599C30.0879 260.937 29.9136 261.41 29.9136 262.019C29.9136 262.583 30.0962 263.034 30.4614 263.372C30.8322 263.704 31.4382 264.008 32.2793 264.285C33.126 264.556 33.7845 264.857 34.2549 265.189C34.7308 265.516 35.0794 265.898 35.3008 266.335C35.5277 266.772 35.6411 267.284 35.6411 267.871C35.6411 268.806 35.3589 269.558 34.7944 270.128C34.2355 270.698 33.4497 271.036 32.437 271.141V272.727H31.2085V271.141C30.1792 271.047 29.3713 270.682 28.7847 270.045C28.2036 269.403 27.9131 268.535 27.9131 267.439H29.4487C29.4487 268.208 29.6507 268.8 30.0547 269.215C30.4587 269.63 31.0314 269.838 31.7729 269.838C32.4979 269.838 33.0679 269.664 33.4829 269.315C33.8979 268.966 34.1055 268.49 34.1055 267.887ZM45.4692 271H37.5503V269.896L41.7339 265.248C42.3537 264.545 42.7798 263.975 43.0122 263.538C43.2502 263.095 43.3691 262.638 43.3691 262.168C43.3691 261.537 43.1782 261.02 42.7964 260.616C42.4146 260.212 41.9054 260.01 41.269 260.01C40.5054 260.01 39.9105 260.228 39.4844 260.666C39.0638 261.097 38.8535 261.7 38.8535 262.475H37.3179C37.3179 261.363 37.6748 260.464 38.3887 259.777C39.1081 259.091 40.0682 258.748 41.269 258.748C42.3924 258.748 43.2806 259.044 43.9336 259.636C44.5866 260.223 44.9131 261.006 44.9131 261.985C44.9131 263.175 44.1549 264.592 42.6387 266.235L39.4014 269.747H45.4692V271ZM54.6748 265.845C54.6748 267.644 54.3677 268.98 53.7534 269.854C53.1392 270.729 52.179 271.166 50.873 271.166C49.5837 271.166 48.6291 270.74 48.0093 269.888C47.3895 269.03 47.0685 267.752 47.0464 266.053V264.002C47.0464 262.226 47.3535 260.906 47.9678 260.043C48.582 259.18 49.5449 258.748 50.8564 258.748C52.1569 258.748 53.1143 259.166 53.7285 260.001C54.3428 260.832 54.6582 262.115 54.6748 263.853V265.845ZM53.1392 263.745C53.1392 262.445 52.9565 261.498 52.5913 260.906C52.2261 260.309 51.6478 260.01 50.8564 260.01C50.0706 260.01 49.4979 260.306 49.1382 260.898C48.7785 261.49 48.5931 262.4 48.582 263.629V266.086C48.582 267.392 48.7702 268.358 49.1465 268.983C49.5283 269.603 50.1038 269.913 50.873 269.913C51.6312 269.913 52.1929 269.619 52.5581 269.033C52.9289 268.446 53.1226 267.522 53.1392 266.26V263.745ZM64.2207 265.845C64.2207 267.644 63.9136 268.98 63.2993 269.854C62.6851 270.729 61.7249 271.166 60.4189 271.166C59.1296 271.166 58.175 270.74 57.5552 269.888C56.9354 269.03 56.6144 267.752 56.5923 266.053V264.002C56.5923 262.226 56.8994 260.906 57.5137 260.043C58.1279 259.18 59.0908 258.748 60.4023 258.748C61.7028 258.748 62.6602 259.166 63.2744 260.001C63.8887 260.832 64.2041 262.115 64.2207 263.853V265.845ZM62.6851 263.745C62.6851 262.445 62.5024 261.498 62.1372 260.906C61.772 260.309 61.1937 260.01 60.4023 260.01C59.6165 260.01 59.0438 260.306 58.6841 260.898C58.3244 261.49 58.139 262.4 58.1279 263.629V266.086C58.1279 267.392 58.3161 268.358 58.6924 268.983C59.0742 269.603 59.6497 269.913 60.4189 269.913C61.1771 269.913 61.7388 269.619 62.104 269.033C62.4748 268.446 62.6685 267.522 62.6851 266.26V263.745Z" fill="#626262"/>
<path d="M34.1055 237.887C34.1055 237.378 33.9256 236.949 33.5659 236.601C33.2118 236.252 32.6113 235.937 31.7646 235.654C30.5859 235.295 29.7254 234.827 29.1831 234.251C28.6463 233.67 28.3779 232.934 28.3779 232.043C28.3779 231.136 28.6408 230.392 29.1665 229.811C29.6978 229.229 30.4255 228.884 31.3496 228.773V226.955H32.5864V228.781C33.5161 228.909 34.2383 229.299 34.7529 229.952C35.2731 230.605 35.5332 231.498 35.5332 232.633H34.0059C34.0059 231.853 33.8205 231.233 33.4497 230.773C33.0789 230.314 32.5781 230.084 31.9473 230.084C31.2887 230.084 30.7852 230.256 30.4365 230.599C30.0879 230.937 29.9136 231.41 29.9136 232.019C29.9136 232.583 30.0962 233.034 30.4614 233.372C30.8322 233.704 31.4382 234.008 32.2793 234.285C33.126 234.556 33.7845 234.857 34.2549 235.189C34.7308 235.516 35.0794 235.898 35.3008 236.335C35.5277 236.772 35.6411 237.284 35.6411 237.871C35.6411 238.806 35.3589 239.558 34.7944 240.128C34.2355 240.698 33.4497 241.036 32.437 241.141V242.727H31.2085V241.141C30.1792 241.047 29.3713 240.682 28.7847 240.045C28.2036 239.403 27.9131 238.535 27.9131 237.439H29.4487C29.4487 238.208 29.6507 238.8 30.0547 239.215C30.4587 239.63 31.0314 239.838 31.7729 239.838C32.4979 239.838 33.0679 239.664 33.4829 239.315C33.8979 238.966 34.1055 238.49 34.1055 237.887ZM39.7832 234.21H40.937C41.6619 234.199 42.2319 234.008 42.647 233.637C43.062 233.266 43.2695 232.766 43.2695 232.135C43.2695 230.718 42.564 230.01 41.1528 230.01C40.4888 230.01 39.9575 230.201 39.5591 230.583C39.1662 230.959 38.9697 231.46 38.9697 232.085H37.4341C37.4341 231.128 37.7827 230.333 38.48 229.703C39.1828 229.066 40.0737 228.748 41.1528 228.748C42.2928 228.748 43.1865 229.05 43.834 229.653C44.4814 230.256 44.8052 231.094 44.8052 232.168C44.8052 232.694 44.6336 233.203 44.2905 233.695C43.953 234.188 43.4909 234.556 42.9043 234.799C43.5684 235.01 44.0802 235.358 44.4399 235.845C44.8052 236.332 44.9878 236.927 44.9878 237.63C44.9878 238.715 44.6336 239.575 43.9253 240.211C43.217 240.848 42.2956 241.166 41.1611 241.166C40.0267 241.166 39.1025 240.859 38.3887 240.245C37.6803 239.63 37.3262 238.82 37.3262 237.812H38.8701C38.8701 238.449 39.0776 238.958 39.4927 239.34C39.9077 239.722 40.4639 239.913 41.1611 239.913C41.9027 239.913 42.4699 239.719 42.8628 239.332C43.2557 238.944 43.4521 238.388 43.4521 237.663C43.4521 236.96 43.2363 236.421 42.8047 236.044C42.373 235.668 41.7505 235.474 40.937 235.463H39.7832V234.21ZM54.6748 235.845C54.6748 237.644 54.3677 238.98 53.7534 239.854C53.1392 240.729 52.179 241.166 50.873 241.166C49.5837 241.166 48.6291 240.74 48.0093 239.888C47.3895 239.03 47.0685 237.752 47.0464 236.053V234.002C47.0464 232.226 47.3535 230.906 47.9678 230.043C48.582 229.18 49.5449 228.748 50.8564 228.748C52.1569 228.748 53.1143 229.166 53.7285 230.001C54.3428 230.832 54.6582 232.115 54.6748 233.853V235.845ZM53.1392 233.745C53.1392 232.445 52.9565 231.498 52.5913 230.906C52.2261 230.309 51.6478 230.01 50.8564 230.01C50.0706 230.01 49.4979 230.306 49.1382 230.898C48.7785 231.49 48.5931 232.4 48.582 233.629V236.086C48.582 237.392 48.7702 238.358 49.1465 238.983C49.5283 239.603 50.1038 239.913 50.873 239.913C51.6312 239.913 52.1929 239.619 52.5581 239.033C52.9289 238.446 53.1226 237.522 53.1392 236.26V233.745ZM64.2207 235.845C64.2207 237.644 63.9136 238.98 63.2993 239.854C62.6851 240.729 61.7249 241.166 60.4189 241.166C59.1296 241.166 58.175 240.74 57.5552 239.888C56.9354 239.03 56.6144 237.752 56.5923 236.053V234.002C56.5923 232.226 56.8994 230.906 57.5137 230.043C58.1279 229.18 59.0908 228.748 60.4023 228.748C61.7028 228.748 62.6602 229.166 63.2744 230.001C63.8887 230.832 64.2041 232.115 64.2207 233.853V235.845ZM62.6851 233.745C62.6851 232.445 62.5024 231.498 62.1372 230.906C61.772 230.309 61.1937 230.01 60.4023 230.01C59.6165 230.01 59.0438 230.306 58.6841 230.898C58.3244 231.49 58.139 232.4 58.1279 233.629V236.086C58.1279 237.392 58.3161 238.358 58.6924 238.983C59.0742 239.603 59.6497 239.913 60.4189 239.913C61.1771 239.913 61.7388 239.619 62.104 239.033C62.4748 238.446 62.6685 237.522 62.6851 236.26V233.745Z" fill="#626262"/>
<path d="M34.1055 207.887C34.1055 207.378 33.9256 206.949 33.5659 206.601C33.2118 206.252 32.6113 205.937 31.7646 205.654C30.5859 205.295 29.7254 204.827 29.1831 204.251C28.6463 203.67 28.3779 202.934 28.3779 202.043C28.3779 201.136 28.6408 200.392 29.1665 199.811C29.6978 199.229 30.4255 198.884 31.3496 198.773V196.955H32.5864V198.781C33.5161 198.909 34.2383 199.299 34.7529 199.952C35.2731 200.605 35.5332 201.498 35.5332 202.633H34.0059C34.0059 201.853 33.8205 201.233 33.4497 200.773C33.0789 200.314 32.5781 200.084 31.9473 200.084C31.2887 200.084 30.7852 200.256 30.4365 200.599C30.0879 200.937 29.9136 201.41 29.9136 202.019C29.9136 202.583 30.0962 203.034 30.4614 203.372C30.8322 203.704 31.4382 204.008 32.2793 204.285C33.126 204.556 33.7845 204.857 34.2549 205.189C34.7308 205.516 35.0794 205.898 35.3008 206.335C35.5277 206.772 35.6411 207.284 35.6411 207.871C35.6411 208.806 35.3589 209.558 34.7944 210.128C34.2355 210.698 33.4497 211.036 32.437 211.141V212.727H31.2085V211.141C30.1792 211.047 29.3713 210.682 28.7847 210.045C28.2036 209.403 27.9131 208.535 27.9131 207.439H29.4487C29.4487 208.208 29.6507 208.8 30.0547 209.215C30.4587 209.63 31.0314 209.838 31.7729 209.838C32.4979 209.838 33.0679 209.664 33.4829 209.315C33.8979 208.966 34.1055 208.49 34.1055 207.887ZM44.0332 206.941H45.71V208.194H44.0332V211H42.4893V208.194H36.9858V207.29L42.3979 198.914H44.0332V206.941ZM38.729 206.941H42.4893V201.014L42.3066 201.346L38.729 206.941ZM54.6748 205.845C54.6748 207.644 54.3677 208.98 53.7534 209.854C53.1392 210.729 52.179 211.166 50.873 211.166C49.5837 211.166 48.6291 210.74 48.0093 209.888C47.3895 209.03 47.0685 207.752 47.0464 206.053V204.002C47.0464 202.226 47.3535 200.906 47.9678 200.043C48.582 199.18 49.5449 198.748 50.8564 198.748C52.1569 198.748 53.1143 199.166 53.7285 200.001C54.3428 200.832 54.6582 202.115 54.6748 203.853V205.845ZM53.1392 203.745C53.1392 202.445 52.9565 201.498 52.5913 200.906C52.2261 200.309 51.6478 200.01 50.8564 200.01C50.0706 200.01 49.4979 200.306 49.1382 200.898C48.7785 201.49 48.5931 202.4 48.582 203.629V206.086C48.582 207.392 48.7702 208.358 49.1465 208.983C49.5283 209.603 50.1038 209.913 50.873 209.913C51.6312 209.913 52.1929 209.619 52.5581 209.033C52.9289 208.446 53.1226 207.522 53.1392 206.26V203.745ZM64.2207 205.845C64.2207 207.644 63.9136 208.98 63.2993 209.854C62.6851 210.729 61.7249 211.166 60.4189 211.166C59.1296 211.166 58.175 210.74 57.5552 209.888C56.9354 209.03 56.6144 207.752 56.5923 206.053V204.002C56.5923 202.226 56.8994 200.906 57.5137 200.043C58.1279 199.18 59.0908 198.748 60.4023 198.748C61.7028 198.748 62.6602 199.166 63.2744 200.001C63.8887 200.832 64.2041 202.115 64.2207 203.853V205.845ZM62.6851 203.745C62.6851 202.445 62.5024 201.498 62.1372 200.906C61.772 200.309 61.1937 200.01 60.4023 200.01C59.6165 200.01 59.0438 200.306 58.6841 200.898C58.3244 201.49 58.139 202.4 58.1279 203.629V206.086C58.1279 207.392 58.3161 208.358 58.6924 208.983C59.0742 209.603 59.6497 209.913 60.4189 209.913C61.1771 209.913 61.7388 209.619 62.104 209.033C62.4748 208.446 62.6685 207.522 62.6851 206.26V203.745Z" fill="#626262"/>
<path d="M34.1055 177.887C34.1055 177.378 33.9256 176.949 33.5659 176.601C33.2118 176.252 32.6113 175.937 31.7646 175.654C30.5859 175.295 29.7254 174.827 29.1831 174.251C28.6463 173.67 28.3779 172.934 28.3779 172.043C28.3779 171.136 28.6408 170.392 29.1665 169.811C29.6978 169.229 30.4255 168.884 31.3496 168.773V166.955H32.5864V168.781C33.5161 168.909 34.2383 169.299 34.7529 169.952C35.2731 170.605 35.5332 171.498 35.5332 172.633H34.0059C34.0059 171.853 33.8205 171.233 33.4497 170.773C33.0789 170.314 32.5781 170.084 31.9473 170.084C31.2887 170.084 30.7852 170.256 30.4365 170.599C30.0879 170.937 29.9136 171.41 29.9136 172.019C29.9136 172.583 30.0962 173.034 30.4614 173.372C30.8322 173.704 31.4382 174.008 32.2793 174.285C33.126 174.556 33.7845 174.857 34.2549 175.189C34.7308 175.516 35.0794 175.898 35.3008 176.335C35.5277 176.772 35.6411 177.284 35.6411 177.871C35.6411 178.806 35.3589 179.558 34.7944 180.128C34.2355 180.698 33.4497 181.036 32.437 181.141V182.727H31.2085V181.141C30.1792 181.047 29.3713 180.682 28.7847 180.045C28.2036 179.403 27.9131 178.535 27.9131 177.439H29.4487C29.4487 178.208 29.6507 178.8 30.0547 179.215C30.4587 179.63 31.0314 179.838 31.7729 179.838C32.4979 179.838 33.0679 179.664 33.4829 179.315C33.8979 178.966 34.1055 178.49 34.1055 177.887ZM38.2559 174.94L38.8701 168.914H45.0625V170.333H40.1733L39.8081 173.629C40.4002 173.28 41.0726 173.106 41.8252 173.106C42.9264 173.106 43.8008 173.471 44.4482 174.202C45.0957 174.927 45.4194 175.909 45.4194 177.148C45.4194 178.394 45.0819 179.376 44.4067 180.095C43.7371 180.809 42.7992 181.166 41.5928 181.166C40.5247 181.166 39.6532 180.87 38.978 180.278C38.3029 179.686 37.9183 178.867 37.8242 177.821H39.2769C39.3709 178.513 39.6172 179.035 40.0156 179.39C40.4141 179.738 40.9398 179.913 41.5928 179.913C42.3066 179.913 42.8656 179.669 43.2695 179.182C43.679 178.695 43.8838 178.023 43.8838 177.165C43.8838 176.357 43.6624 175.71 43.2197 175.223C42.7826 174.73 42.1987 174.484 41.4683 174.484C40.7987 174.484 40.2729 174.631 39.8911 174.924L39.4844 175.256L38.2559 174.94ZM54.6748 175.845C54.6748 177.644 54.3677 178.98 53.7534 179.854C53.1392 180.729 52.179 181.166 50.873 181.166C49.5837 181.166 48.6291 180.74 48.0093 179.888C47.3895 179.03 47.0685 177.752 47.0464 176.053V174.002C47.0464 172.226 47.3535 170.906 47.9678 170.043C48.582 169.18 49.5449 168.748 50.8564 168.748C52.1569 168.748 53.1143 169.166 53.7285 170.001C54.3428 170.832 54.6582 172.115 54.6748 173.853V175.845ZM53.1392 173.745C53.1392 172.445 52.9565 171.498 52.5913 170.906C52.2261 170.309 51.6478 170.01 50.8564 170.01C50.0706 170.01 49.4979 170.306 49.1382 170.898C48.7785 171.49 48.5931 172.4 48.582 173.629V176.086C48.582 177.392 48.7702 178.358 49.1465 178.983C49.5283 179.603 50.1038 179.913 50.873 179.913C51.6312 179.913 52.1929 179.619 52.5581 179.033C52.9289 178.446 53.1226 177.522 53.1392 176.26V173.745ZM64.2207 175.845C64.2207 177.644 63.9136 178.98 63.2993 179.854C62.6851 180.729 61.7249 181.166 60.4189 181.166C59.1296 181.166 58.175 180.74 57.5552 179.888C56.9354 179.03 56.6144 177.752 56.5923 176.053V174.002C56.5923 172.226 56.8994 170.906 57.5137 170.043C58.1279 169.18 59.0908 168.748 60.4023 168.748C61.7028 168.748 62.6602 169.166 63.2744 170.001C63.8887 170.832 64.2041 172.115 64.2207 173.853V175.845ZM62.6851 173.745C62.6851 172.445 62.5024 171.498 62.1372 170.906C61.772 170.309 61.1937 170.01 60.4023 170.01C59.6165 170.01 59.0438 170.306 58.6841 170.898C58.3244 171.49 58.139 172.4 58.1279 173.629V176.086C58.1279 177.392 58.3161 178.358 58.6924 178.983C59.0742 179.603 59.6497 179.913 60.4189 179.913C61.1771 179.913 61.7388 179.619 62.104 179.033C62.4748 178.446 62.6685 177.522 62.6851 176.26V173.745Z" fill="#626262"/>
<path d="M34.1055 147.887C34.1055 147.378 33.9256 146.949 33.5659 146.601C33.2118 146.252 32.6113 145.937 31.7646 145.654C30.5859 145.295 29.7254 144.827 29.1831 144.251C28.6463 143.67 28.3779 142.934 28.3779 142.043C28.3779 141.136 28.6408 140.392 29.1665 139.811C29.6978 139.229 30.4255 138.884 31.3496 138.773V136.955H32.5864V138.781C33.5161 138.909 34.2383 139.299 34.7529 139.952C35.2731 140.605 35.5332 141.498 35.5332 142.633H34.0059C34.0059 141.853 33.8205 141.233 33.4497 140.773C33.0789 140.314 32.5781 140.084 31.9473 140.084C31.2887 140.084 30.7852 140.256 30.4365 140.599C30.0879 140.937 29.9136 141.41 29.9136 142.019C29.9136 142.583 30.0962 143.034 30.4614 143.372C30.8322 143.704 31.4382 144.008 32.2793 144.285C33.126 144.556 33.7845 144.857 34.2549 145.189C34.7308 145.516 35.0794 145.898 35.3008 146.335C35.5277 146.772 35.6411 147.284 35.6411 147.871C35.6411 148.806 35.3589 149.558 34.7944 150.128C34.2355 150.698 33.4497 151.036 32.437 151.141V152.727H31.2085V151.141C30.1792 151.047 29.3713 150.682 28.7847 150.045C28.2036 149.403 27.9131 148.535 27.9131 147.439H29.4487C29.4487 148.208 29.6507 148.8 30.0547 149.215C30.4587 149.63 31.0314 149.838 31.7729 149.838C32.4979 149.838 33.0679 149.664 33.4829 149.315C33.8979 148.966 34.1055 148.49 34.1055 147.887ZM43.5767 138.906V140.209H43.2944C42.0991 140.231 41.1473 140.585 40.439 141.271C39.7306 141.958 39.3211 142.923 39.2104 144.168C39.8468 143.438 40.7157 143.073 41.8169 143.073C42.8683 143.073 43.7067 143.444 44.332 144.185C44.9629 144.927 45.2783 145.884 45.2783 147.057C45.2783 148.302 44.938 149.298 44.2573 150.045C43.5822 150.792 42.6746 151.166 41.5347 151.166C40.3781 151.166 39.4401 150.723 38.7207 149.838C38.0013 148.947 37.6416 147.801 37.6416 146.401V145.812C37.6416 143.587 38.1147 141.889 39.061 140.715C40.0129 139.537 41.4268 138.933 43.3027 138.906H43.5767ZM41.5596 144.351C41.0339 144.351 40.5496 144.509 40.1069 144.824C39.6642 145.14 39.3571 145.535 39.1855 146.011V146.576C39.1855 147.572 39.4097 148.374 39.8579 148.983C40.3062 149.592 40.8651 149.896 41.5347 149.896C42.2264 149.896 42.7687 149.641 43.1616 149.132C43.5601 148.623 43.7593 147.956 43.7593 147.132C43.7593 146.302 43.5573 145.632 43.1533 145.123C42.7549 144.608 42.2236 144.351 41.5596 144.351ZM54.6748 145.845C54.6748 147.644 54.3677 148.98 53.7534 149.854C53.1392 150.729 52.179 151.166 50.873 151.166C49.5837 151.166 48.6291 150.74 48.0093 149.888C47.3895 149.03 47.0685 147.752 47.0464 146.053V144.002C47.0464 142.226 47.3535 140.906 47.9678 140.043C48.582 139.18 49.5449 138.748 50.8564 138.748C52.1569 138.748 53.1143 139.166 53.7285 140.001C54.3428 140.832 54.6582 142.115 54.6748 143.853V145.845ZM53.1392 143.745C53.1392 142.445 52.9565 141.498 52.5913 140.906C52.2261 140.309 51.6478 140.01 50.8564 140.01C50.0706 140.01 49.4979 140.306 49.1382 140.898C48.7785 141.49 48.5931 142.4 48.582 143.629V146.086C48.582 147.392 48.7702 148.358 49.1465 148.983C49.5283 149.603 50.1038 149.913 50.873 149.913C51.6312 149.913 52.1929 149.619 52.5581 149.033C52.9289 148.446 53.1226 147.522 53.1392 146.26V143.745ZM64.2207 145.845C64.2207 147.644 63.9136 148.98 63.2993 149.854C62.6851 150.729 61.7249 151.166 60.4189 151.166C59.1296 151.166 58.175 150.74 57.5552 149.888C56.9354 149.03 56.6144 147.752 56.5923 146.053V144.002C56.5923 142.226 56.8994 140.906 57.5137 140.043C58.1279 139.18 59.0908 138.748 60.4023 138.748C61.7028 138.748 62.6602 139.166 63.2744 140.001C63.8887 140.832 64.2041 142.115 64.2207 143.853V145.845ZM62.6851 143.745C62.6851 142.445 62.5024 141.498 62.1372 140.906C61.772 140.309 61.1937 140.01 60.4023 140.01C59.6165 140.01 59.0438 140.306 58.6841 140.898C58.3244 141.49 58.139 142.4 58.1279 143.629V146.086C58.1279 147.392 58.3161 148.358 58.6924 148.983C59.0742 149.603 59.6497 149.913 60.4189 149.913C61.1771 149.913 61.7388 149.619 62.104 149.033C62.4748 148.446 62.6685 147.522 62.6851 146.26V143.745Z" fill="#626262"/>
<path d="M34.1055 117.887C34.1055 117.378 33.9256 116.949 33.5659 116.601C33.2118 116.252 32.6113 115.937 31.7646 115.654C30.5859 115.295 29.7254 114.827 29.1831 114.251C28.6463 113.67 28.3779 112.934 28.3779 112.043C28.3779 111.136 28.6408 110.392 29.1665 109.811C29.6978 109.229 30.4255 108.884 31.3496 108.773V106.955H32.5864V108.781C33.5161 108.909 34.2383 109.299 34.7529 109.952C35.2731 110.605 35.5332 111.498 35.5332 112.633H34.0059C34.0059 111.853 33.8205 111.233 33.4497 110.773C33.0789 110.314 32.5781 110.084 31.9473 110.084C31.2887 110.084 30.7852 110.256 30.4365 110.599C30.0879 110.937 29.9136 111.41 29.9136 112.019C29.9136 112.583 30.0962 113.034 30.4614 113.372C30.8322 113.704 31.4382 114.008 32.2793 114.285C33.126 114.556 33.7845 114.857 34.2549 115.189C34.7308 115.516 35.0794 115.898 35.3008 116.335C35.5277 116.772 35.6411 117.284 35.6411 117.871C35.6411 118.806 35.3589 119.558 34.7944 120.128C34.2355 120.698 33.4497 121.036 32.437 121.141V122.727H31.2085V121.141C30.1792 121.047 29.3713 120.682 28.7847 120.045C28.2036 119.403 27.9131 118.535 27.9131 117.439H29.4487C29.4487 118.208 29.6507 118.8 30.0547 119.215C30.4587 119.63 31.0314 119.838 31.7729 119.838C32.4979 119.838 33.0679 119.664 33.4829 119.315C33.8979 118.966 34.1055 118.49 34.1055 117.887ZM45.353 109.777L40.3477 121H38.7373L43.7261 110.176H37.1851V108.914H45.353V109.777ZM54.6748 115.845C54.6748 117.644 54.3677 118.98 53.7534 119.854C53.1392 120.729 52.179 121.166 50.873 121.166C49.5837 121.166 48.6291 120.74 48.0093 119.888C47.3895 119.03 47.0685 117.752 47.0464 116.053V114.002C47.0464 112.226 47.3535 110.906 47.9678 110.043C48.582 109.18 49.5449 108.748 50.8564 108.748C52.1569 108.748 53.1143 109.166 53.7285 110.001C54.3428 110.832 54.6582 112.115 54.6748 113.853V115.845ZM53.1392 113.745C53.1392 112.445 52.9565 111.498 52.5913 110.906C52.2261 110.309 51.6478 110.01 50.8564 110.01C50.0706 110.01 49.4979 110.306 49.1382 110.898C48.7785 111.49 48.5931 112.4 48.582 113.629V116.086C48.582 117.392 48.7702 118.358 49.1465 118.983C49.5283 119.603 50.1038 119.913 50.873 119.913C51.6312 119.913 52.1929 119.619 52.5581 119.033C52.9289 118.446 53.1226 117.522 53.1392 116.26V113.745ZM64.2207 115.845C64.2207 117.644 63.9136 118.98 63.2993 119.854C62.6851 120.729 61.7249 121.166 60.4189 121.166C59.1296 121.166 58.175 120.74 57.5552 119.888C56.9354 119.03 56.6144 117.752 56.5923 116.053V114.002C56.5923 112.226 56.8994 110.906 57.5137 110.043C58.1279 109.18 59.0908 108.748 60.4023 108.748C61.7028 108.748 62.6602 109.166 63.2744 110.001C63.8887 110.832 64.2041 112.115 64.2207 113.853V115.845ZM62.6851 113.745C62.6851 112.445 62.5024 111.498 62.1372 110.906C61.772 110.309 61.1937 110.01 60.4023 110.01C59.6165 110.01 59.0438 110.306 58.6841 110.898C58.3244 111.49 58.139 112.4 58.1279 113.629V116.086C58.1279 117.392 58.3161 118.358 58.6924 118.983C59.0742 119.603 59.6497 119.913 60.4189 119.913C61.1771 119.913 61.7388 119.619 62.104 119.033C62.4748 118.446 62.6685 117.522 62.6851 116.26V113.745Z" fill="#626262"/>
<path d="M145.865 49.8066H147.311C148.04 49.8001 148.616 49.6113 149.039 49.2402C149.469 48.8691 149.684 48.332 149.684 47.6289C149.684 46.9518 149.505 46.4277 149.146 46.0566C148.795 45.679 148.255 45.4902 147.525 45.4902C146.887 45.4902 146.363 45.6758 145.953 46.0469C145.543 46.4115 145.338 46.89 145.338 47.4824H142.965C142.965 46.7533 143.157 46.0892 143.541 45.4902C143.932 44.8913 144.472 44.4258 145.162 44.0938C145.859 43.7552 146.637 43.5859 147.496 43.5859C148.915 43.5859 150.029 43.944 150.836 44.6602C151.65 45.3698 152.057 46.3594 152.057 47.6289C152.057 48.2669 151.852 48.8691 151.441 49.4355C151.038 49.9954 150.514 50.4186 149.869 50.7051C150.65 50.972 151.243 51.3919 151.646 51.9648C152.057 52.5378 152.262 53.2214 152.262 54.0156C152.262 55.2917 151.822 56.3073 150.943 57.0625C150.071 57.8177 148.922 58.1953 147.496 58.1953C146.129 58.1953 145.009 57.8307 144.137 57.1016C143.264 56.3724 142.828 55.4023 142.828 54.1914H145.201C145.201 54.8164 145.41 55.3242 145.826 55.7148C146.249 56.1055 146.816 56.3008 147.525 56.3008C148.261 56.3008 148.84 56.1055 149.264 55.7148C149.687 55.3242 149.898 54.7578 149.898 54.0156C149.898 53.2669 149.677 52.6908 149.234 52.2871C148.792 51.8835 148.134 51.6816 147.262 51.6816H145.865V49.8066ZM158.072 43.7812L162.174 54.6797L166.266 43.7812H169.459V58H166.998V53.3125L167.242 47.043L163.043 58H161.275L157.086 47.0527L157.33 53.3125V58H154.869V43.7812H158.072Z" fill="#313131"/>
<path d="M244.504 43.7129V45.6758H244.211C242.883 45.6953 241.822 46.0599 241.027 46.7695C240.233 47.4792 239.761 48.485 239.611 49.7871C240.373 48.9863 241.346 48.5859 242.531 48.5859C243.788 48.5859 244.777 49.0286 245.5 49.9141C246.229 50.7995 246.594 51.9421 246.594 53.3418C246.594 54.7871 246.167 55.959 245.314 56.8574C244.468 57.7493 243.355 58.1953 241.975 58.1953C240.555 58.1953 239.403 57.6712 238.518 56.623C237.639 55.5749 237.199 54.2012 237.199 52.502V51.6914C237.199 49.1979 237.805 47.2448 239.016 45.832C240.233 44.4193 241.981 43.7129 244.26 43.7129H244.504ZM241.955 50.5C241.434 50.5 240.956 50.6465 240.52 50.9395C240.09 51.2324 239.774 51.623 239.572 52.1113V52.834C239.572 53.8887 239.794 54.7285 240.236 55.3535C240.679 55.972 241.252 56.2812 241.955 56.2812C242.658 56.2812 243.215 56.0176 243.625 55.4902C244.035 54.9629 244.24 54.2695 244.24 53.4102C244.24 52.5508 244.032 51.8509 243.615 51.3105C243.199 50.7702 242.645 50.5 241.955 50.5ZM252.072 43.7812L256.174 54.6797L260.266 43.7812H263.459V58H260.998V53.3125L261.242 47.043L257.043 58H255.275L251.086 47.0527L251.33 53.3125V58H248.869V43.7812H252.072Z" fill="#313131"/>
<path d="M331.295 50.5195L334.566 43.7812H337.301L332.535 52.7656V58H330.055V52.7656L325.279 43.7812H328.023L331.295 50.5195ZM349.293 45.7734H344.859V58H342.408V45.7734H338.014V43.7812H349.293V45.7734ZM351.168 58V43.7812H355.367C356.624 43.7812 357.737 44.0612 358.707 44.6211C359.684 45.181 360.439 45.9753 360.973 47.0039C361.507 48.0326 361.773 49.2109 361.773 50.5391V51.252C361.773 52.5996 361.503 53.7845 360.963 54.8066C360.429 55.8288 359.664 56.6165 358.668 57.1699C357.678 57.7233 356.542 58 355.26 58H351.168ZM353.639 45.7734V56.0273H355.25C356.546 56.0273 357.538 55.6237 358.229 54.8164C358.925 54.0026 359.28 52.8372 359.293 51.3203V50.5293C359.293 48.9863 358.958 47.8079 358.287 46.9941C357.617 46.1803 356.643 45.7734 355.367 45.7734H353.639Z" fill="#313131"/>
<path d="M1253.59 54.9043L1257.2 43.7812H1259.92L1254.8 58H1252.41L1247.31 43.7812H1250.01L1253.59 54.9043ZM1263.82 58H1261.45V47.4336H1263.82V58ZM1261.3 44.6895C1261.3 44.3249 1261.42 44.0221 1261.64 43.7812C1261.88 43.5404 1262.21 43.4199 1262.64 43.4199C1263.07 43.4199 1263.4 43.5404 1263.64 43.7812C1263.87 44.0221 1263.99 44.3249 1263.99 44.6895C1263.99 45.0475 1263.87 45.347 1263.64 45.5879C1263.4 45.8223 1263.07 45.9395 1262.64 45.9395C1262.21 45.9395 1261.88 45.8223 1261.64 45.5879C1261.42 45.347 1261.3 45.0475 1261.3 44.6895ZM1271.07 58.1953C1269.56 58.1953 1268.34 57.7233 1267.41 56.7793C1266.48 55.8288 1266.01 54.5658 1266.01 52.9902V52.6973C1266.01 51.6426 1266.21 50.7018 1266.62 49.875C1267.03 49.0417 1267.6 48.3939 1268.33 47.9316C1269.07 47.4694 1269.89 47.2383 1270.79 47.2383C1272.23 47.2383 1273.34 47.6973 1274.12 48.6152C1274.91 49.5332 1275.31 50.832 1275.31 52.5117V53.4688H1268.4C1268.47 54.3411 1268.76 55.0312 1269.27 55.5391C1269.79 56.0469 1270.43 56.3008 1271.21 56.3008C1272.29 56.3008 1273.18 55.8613 1273.86 54.9824L1275.14 56.2031C1274.72 56.8346 1274.15 57.3262 1273.44 57.6777C1272.74 58.0228 1271.95 58.1953 1271.07 58.1953ZM1270.79 49.1426C1270.13 49.1426 1269.61 49.3704 1269.2 49.8262C1268.81 50.2819 1268.55 50.9167 1268.44 51.7305H1272.96V51.5547C1272.91 50.7604 1272.7 50.1615 1272.33 49.7578C1271.96 49.3477 1271.44 49.1426 1270.79 49.1426ZM1286.44 54.7285L1288.12 47.4336H1290.43L1287.55 58H1285.6L1283.33 50.7441L1281.11 58H1279.15L1276.26 47.4336H1278.58L1280.29 54.6504L1282.46 47.4336H1284.24L1286.44 54.7285ZM1304.66 54.3379C1304.66 53.7129 1304.44 53.2311 1304 52.8926C1303.56 52.554 1302.77 52.2122 1301.62 51.8672C1300.48 51.5221 1299.57 51.138 1298.89 50.7148C1297.6 49.901 1296.95 48.8398 1296.95 47.5312C1296.95 46.3854 1297.41 45.4414 1298.34 44.6992C1299.28 43.957 1300.5 43.5859 1301.99 43.5859C1302.98 43.5859 1303.86 43.7682 1304.63 44.1328C1305.41 44.4974 1306.02 45.0182 1306.46 45.6953C1306.9 46.3659 1307.12 47.1113 1307.12 47.9316H1304.66C1304.66 47.1895 1304.43 46.61 1303.96 46.1934C1303.5 45.7702 1302.83 45.5586 1301.97 45.5586C1301.16 45.5586 1300.53 45.7311 1300.08 46.0762C1299.64 46.4212 1299.42 46.903 1299.42 47.5215C1299.42 48.0423 1299.66 48.4785 1300.14 48.8301C1300.62 49.1751 1301.42 49.5137 1302.52 49.8457C1303.63 50.1712 1304.52 50.5456 1305.19 50.9688C1305.86 51.3854 1306.35 51.8672 1306.66 52.4141C1306.98 52.9544 1307.13 53.5892 1307.13 54.3184C1307.13 55.5033 1306.68 56.4473 1305.77 57.1504C1304.86 57.847 1303.63 58.1953 1302.07 58.1953C1301.05 58.1953 1300.1 58.0065 1299.23 57.6289C1298.37 57.2448 1297.7 56.7174 1297.22 56.0469C1296.75 55.3763 1296.51 54.5951 1296.51 53.7031H1298.98C1298.98 54.5104 1299.25 55.1354 1299.78 55.5781C1300.31 56.0208 1301.08 56.2422 1302.07 56.2422C1302.93 56.2422 1303.58 56.0697 1304.01 55.7246C1304.44 55.373 1304.66 54.9108 1304.66 54.3379ZM1315.38 58C1315.28 57.7982 1315.19 57.4694 1315.11 57.0137C1314.36 57.8014 1313.43 58.1953 1312.34 58.1953C1311.28 58.1953 1310.41 57.8926 1309.74 57.2871C1309.07 56.6816 1308.73 55.9329 1308.73 55.041C1308.73 53.9147 1309.15 53.0521 1309.98 52.4531C1310.82 51.8477 1312.02 51.5449 1313.58 51.5449H1315.03V50.8516C1315.03 50.3047 1314.88 49.8685 1314.57 49.543C1314.27 49.2109 1313.8 49.0449 1313.18 49.0449C1312.64 49.0449 1312.19 49.1816 1311.85 49.4551C1311.5 49.722 1311.33 50.0638 1311.33 50.4805H1308.96C1308.96 49.901 1309.15 49.3607 1309.54 48.8594C1309.92 48.3516 1310.44 47.9544 1311.1 47.668C1311.76 47.3815 1312.5 47.2383 1313.31 47.2383C1314.55 47.2383 1315.54 47.5508 1316.27 48.1758C1317.01 48.7943 1317.39 49.6667 1317.41 50.793V55.5586C1317.41 56.5091 1317.54 57.2676 1317.81 57.834V58H1315.38ZM1312.78 56.291C1313.25 56.291 1313.69 56.1771 1314.1 55.9492C1314.51 55.7214 1314.82 55.4154 1315.03 55.0312V53.0391H1313.75C1312.88 53.0391 1312.21 53.1921 1311.77 53.498C1311.33 53.804 1311.11 54.237 1311.11 54.7969C1311.11 55.2526 1311.26 55.6172 1311.56 55.8906C1311.86 56.1576 1312.27 56.291 1312.78 56.291ZM1322.42 58H1320.04V43H1322.42V58ZM1329.66 58.1953C1328.16 58.1953 1326.94 57.7233 1326 56.7793C1325.07 55.8288 1324.6 54.5658 1324.6 52.9902V52.6973C1324.6 51.6426 1324.81 50.7018 1325.21 49.875C1325.62 49.0417 1326.19 48.3939 1326.93 47.9316C1327.66 47.4694 1328.48 47.2383 1329.39 47.2383C1330.83 47.2383 1331.94 47.6973 1332.72 48.6152C1333.51 49.5332 1333.9 50.832 1333.9 52.5117V53.4688H1327C1327.07 54.3411 1327.36 55.0312 1327.87 55.5391C1328.38 56.0469 1329.02 56.3008 1329.8 56.3008C1330.89 56.3008 1331.77 55.8613 1332.46 54.9824L1333.73 56.2031C1333.31 56.8346 1332.74 57.3262 1332.04 57.6777C1331.33 58.0228 1330.54 58.1953 1329.66 58.1953ZM1329.38 49.1426C1328.73 49.1426 1328.2 49.3704 1327.8 49.8262C1327.4 50.2819 1327.15 50.9167 1327.04 51.7305H1331.56V51.5547C1331.5 50.7604 1331.29 50.1615 1330.92 49.7578C1330.55 49.3477 1330.04 49.1426 1329.38 49.1426ZM1341.67 55.1289C1341.67 54.7057 1341.5 54.3835 1341.15 54.1621C1340.8 53.9408 1340.23 53.7454 1339.42 53.5762C1338.61 53.4069 1337.94 53.1921 1337.4 52.9316C1336.21 52.3587 1335.62 51.5286 1335.62 50.4414C1335.62 49.5299 1336 48.7682 1336.77 48.1562C1337.54 47.5443 1338.52 47.2383 1339.7 47.2383C1340.96 47.2383 1341.98 47.5508 1342.76 48.1758C1343.54 48.8008 1343.93 49.6113 1343.93 50.6074H1341.56C1341.56 50.1517 1341.39 49.7741 1341.05 49.4746C1340.71 49.1686 1340.26 49.0156 1339.7 49.0156C1339.18 49.0156 1338.75 49.1361 1338.42 49.377C1338.1 49.6178 1337.93 49.9401 1337.93 50.3438C1337.93 50.7083 1338.09 50.9915 1338.39 51.1934C1338.7 51.3952 1339.32 51.6003 1340.25 51.8086C1341.18 52.0104 1341.91 52.2546 1342.44 52.541C1342.97 52.821 1343.36 53.1595 1343.62 53.5566C1343.88 53.9538 1344.01 54.4355 1344.01 55.002C1344.01 55.9525 1343.61 56.724 1342.83 57.3164C1342.04 57.9023 1341.01 58.1953 1339.73 58.1953C1338.86 58.1953 1338.09 58.0391 1337.42 57.7266C1336.74 57.4141 1336.21 56.9844 1335.83 56.4375C1335.46 55.8906 1335.27 55.3014 1335.27 54.6699H1337.57C1337.6 55.2298 1337.82 55.6628 1338.21 55.9688C1338.6 56.2682 1339.12 56.418 1339.76 56.418C1340.38 56.418 1340.86 56.3008 1341.19 56.0664C1341.51 55.8255 1341.67 55.513 1341.67 55.1289Z" fill="#313131"/>
<path d="M529.627 54.6895H524.119L522.967 58H520.398L525.77 43.7812H527.986L533.367 58H530.789L529.627 54.6895ZM524.812 52.6973H528.934L526.873 46.7988L524.812 52.6973ZM537.283 58H534.91V43H537.283V58ZM542.4 58H540.027V43H542.4V58Z" fill="white"/>
<line x1="81" y1="234.5" x2="1345" y2="234.5" stroke="#C4C4C4"/>
<line x1="81" y1="204.5" x2="1345" y2="204.5" stroke="#C4C4C4"/>
<line x1="81" y1="174.5" x2="1345" y2="174.5" stroke="#C4C4C4"/>
<line x1="81" y1="144.5" x2="1345" y2="144.5" stroke="#C4C4C4"/>
<line x1="81" y1="114.5" x2="1345" y2="114.5" stroke="#C4C4C4"/>
<path d="M141.5 204.5H81.5V326H1344.5V233H1274.5L1185 144.5H1090.5L1002 264.5L912.5 233L804 264.5H711L620 233H519.5L426 144.5L333.5 204.5L237 176L141.5 204.5Z" fill="#D7F9D9"/>
<defs>
<filter id="filter0_d" x="0.918053" y="0.553296" width="1384.7" height="390.705" filterUnits="userSpaceOnUse" color-interpolation-filters="sRGB">
<feFlood flood-opacity="0" result="BackgroundImageFix"/>
<feColorMatrix in="SourceAlpha" type="matrix" values="0 0 0 0 0 0 0 0 0 0 0 0 0 0 0 0 0 0 127 0" result="hardAlpha"/>
<feOffset dx="1.27049" dy="1.90573"/>
<feGaussianBlur stdDeviation="3.17622"/>
<feComposite in2="hardAlpha" operator="out"/>
<feColorMatrix type="matrix" values="0 0 0 0 0 0 0 0 0 0 0 0 0 0 0 0 0 0 0.1 0"/>
<feBlend mode="normal" in2="BackgroundImageFix" result="effect1_dropShadow"/>
<feBlend mode="normal" in="SourceGraphic" in2="effect1_dropShadow" result="shape"/>
</filter>
</defs>
</svg>
