<svg width="19" height="18" viewBox="0 0 19 18" fill="none" xmlns="http://www.w3.org/2000/svg">
<path d="M9.50554 2.31991L10.503 3.32704C11.0904 3.92021 11.9973 4.83541 12.5183 5.36083C13.0393 5.88621 14.2925 7.15108 15.3031 8.17163C15.8086 8.68202 16.2741 9.14915 16.6169 9.49061C16.7883 9.66131 16.9292 9.80076 17.0291 9.89855C17.079 9.94739 17.119 9.98612 17.1475 10.0132C17.1617 10.0267 17.1736 10.0378 17.1826 10.0459C17.187 10.0499 17.1914 10.0538 17.1954 10.0571C17.196 10.0576 17.2062 10.0665 17.2185 10.0729C17.2513 10.0899 17.3003 10.1107 17.3315 10.1202C17.3846 10.1364 17.4558 10.1404 17.5204 10.1382C17.5867 10.1359 17.6592 10.1267 17.7179 10.1093C17.9641 10.0361 18.1238 9.77595 18.0971 9.51642C18.0965 9.51054 18.0959 9.50446 18.0954 9.49815C18.092 9.45779 18.0878 9.40814 18.0539 9.34416C18.019 9.27843 17.9531 9.19615 17.8311 9.06337C17.6029 8.81499 17.1517 8.36245 16.2546 7.46263C16.1814 7.38921 16.1052 7.31281 16.0259 7.2333L14.0951 5.29634L14.0905 3.94164L14.0857 2.54581L14.0856 2.52094L14.0739 2.49901L14.0357 2.42751C13.9655 2.29612 13.8908 2.21976 13.7649 2.1581C13.519 2.03766 13.216 2.10157 13.0525 2.31714C13.0257 2.35252 12.9982 2.38932 12.9774 2.43899C12.9568 2.48855 12.945 2.54508 12.9376 2.62078C12.9229 2.7688 12.9224 3.01857 12.922 3.49148L12.9215 4.11053L11.461 2.64364C11.3964 2.57874 11.3342 2.51629 11.2744 2.45618C10.5156 1.69398 10.1329 1.30948 9.91966 1.1167C9.80632 1.01422 9.73125 0.956663 9.66675 0.928019C9.60372 0.900033 9.55193 0.901393 9.51314 0.902411C9.50734 0.902564 9.50182 0.902708 9.4966 0.902746C9.48924 0.902799 9.48306 0.902312 9.47267 0.901493L9.47108 0.901367L9.47099 0.90136C9.46068 0.900549 9.44445 0.899271 9.42606 0.900542C9.38454 0.903413 9.34578 0.917923 9.30092 0.945581C9.21846 0.996422 9.08815 1.1096 8.83628 1.35072C8.38571 1.78207 7.52228 2.64693 5.79807 4.374C5.5736 4.59884 5.33455 4.83829 5.07992 5.0933C3.62089 6.55449 2.60229 7.57729 1.94502 8.24165C1.61643 8.57379 1.37792 8.81657 1.21978 8.97983C1.14076 9.0614 1.08143 9.1235 1.04084 9.16712C1.02061 9.18886 1.0045 9.20659 0.992736 9.22011C0.986905 9.22682 0.981531 9.2332 0.977034 9.23891L0.976836 9.23916L9.50554 2.31991ZM9.50554 2.31991L5.71716 6.10158C5.45546 6.36282 5.21099 6.60691 4.98256 6.83498C3.36015 8.45489 2.54748 9.2663 2.12145 9.6706C1.88149 9.89832 1.7558 10.0053 1.67361 10.0526C1.62782 10.0789 1.58866 10.0909 1.54736 10.0921C1.53029 10.0926 1.51469 10.0912 1.50449 10.0902L1.50322 10.0901C1.49198 10.089 1.4845 10.0883 1.47594 10.0883H1.47592C1.39522 10.088 1.32089 10.0741 1.25022 10.0416C1.18002 10.0093 1.11856 9.9611 1.06027 9.89902C1.06027 9.89902 1.06027 9.89902 1.06027 9.89902L1.13306 9.83068L9.50554 2.31991ZM4.36845 9.40669L4.36841 9.37957L4.35467 9.35619L4.30697 9.27496C4.18654 9.0699 3.98946 8.9726 3.74676 8.98998C3.64276 8.99743 3.57957 9.01462 3.49989 9.0637C3.44153 9.09965 3.38684 9.15459 3.34356 9.21203C3.3003 9.26946 3.2626 9.33713 3.24431 9.40306L3.34066 9.4298L3.2443 9.40307C3.24143 9.41343 3.24043 9.42363 3.24009 9.42702L3.24006 9.42736C3.23952 9.43285 3.23908 9.43908 3.23869 9.44559C3.23792 9.45872 3.23722 9.47612 3.23656 9.49734C3.23525 9.53996 3.23404 9.6006 3.23292 9.67894C3.2307 9.83575 3.22885 10.0652 3.22736 10.367C3.22439 10.9706 3.22288 11.8644 3.22284 13.0468C3.22284 13.3226 3.22278 13.5776 3.22274 13.8134C3.22243 15.2629 3.22228 15.99 3.23375 16.3657C3.24029 16.5799 3.25059 16.693 3.27211 16.762C3.29275 16.8282 3.3337 16.8676 3.35335 16.8865C3.35735 16.8904 3.36046 16.8934 3.36234 16.8956C3.43866 16.9848 3.55779 17.0584 3.67177 17.0866C3.68232 17.0892 3.69293 17.0898 3.69403 17.0899L3.70873 17.0907C3.7194 17.0912 3.73369 17.0916 3.75104 17.0921C3.78591 17.0929 3.83517 17.0936 3.897 17.0943C4.02077 17.0957 4.19613 17.0969 4.41008 17.0979C4.83805 17.0997 5.42106 17.1005 6.05584 17.0997L8.36369 17.097L8.38841 17.097L8.41026 17.0854L8.49942 17.0384C8.55892 17.0069 8.63697 16.9455 8.67962 16.8957C8.68304 16.8917 8.68667 16.8875 8.69044 16.8832C8.71411 16.8562 8.74348 16.8227 8.76419 16.7749C8.78775 16.7205 8.79921 16.6525 8.80631 16.5523C8.81944 16.3668 8.81939 16.0294 8.81931 15.3673C8.8193 15.3125 8.8193 15.2555 8.8193 15.1962V13.8925H9.49986H10.1807L10.185 15.23C10.1872 15.9037 10.1889 16.2654 10.1937 16.4659C10.1983 16.6574 10.2049 16.721 10.2316 16.7749C10.2855 16.8832 10.3994 16.9914 10.5127 17.0473L10.5925 17.0867L10.6134 17.097H10.6367H12.9793H15.3218H15.3469L15.369 17.0852L15.4405 17.0469C15.5035 17.0131 15.5563 16.9772 15.6013 16.9322C15.6466 16.8867 15.6805 16.8356 15.71 16.7754L15.7587 16.6763L15.7689 16.6555V16.6323V12.924V9.21577V9.19368L15.7596 9.17365L15.7233 9.09549C15.5109 8.63811 14.8969 8.61688 14.6735 9.0723L14.6247 9.17173L14.6145 9.1925L14.6145 9.21564L14.6099 12.6243L14.6055 15.933H12.9704H11.3354V14.6368C11.3354 14.5796 11.3354 14.5245 11.3354 14.4715C11.3355 13.8015 11.3355 13.4597 11.3211 13.2708C11.3132 13.1687 11.3006 13.099 11.2751 13.0428C11.2528 12.9938 11.2216 12.9592 11.1956 12.9302C11.1916 12.9258 11.1877 12.9214 11.184 12.9172C11.1404 12.8677 11.0683 12.8067 11.0158 12.7787L10.9442 12.7403L10.9221 12.7285H10.897H9.50015H8.10329H8.0782L8.05608 12.7403L7.98465 12.7786C7.85928 12.8457 7.78604 12.9155 7.72001 13.0348L7.66875 13.1274L7.65633 13.1499L7.65625 13.1755L7.65152 14.6041L7.64712 15.933H6.01213H4.37733L4.37296 12.7198L4.36845 9.40669Z" fill="#313131" stroke="#313131" stroke-width="0.2"/>
</svg>
