<svg width="153" height="153" viewBox="0 0 153 153" fill="none" xmlns="http://www.w3.org/2000/svg">
<g filter="url(#filter0_d_0:1)">
<circle cx="74.5" cy="74.5" r="66.5" fill="#F9F9F9"/>
<circle cx="74.5" cy="74.5" r="66.25" stroke="#C4C4C4" stroke-width="0.5"/>
</g>
<mask id="path-3-outside-1_0:1" maskUnits="userSpaceOnUse" x="46.7383" y="32.9512" width="56" height="76" fill="black">
<rect fill="white" x="46.7383" y="32.9512" width="56" height="76"/>
<path d="M69.2148 107.672L59.3451 107.586L58.6019 107.225C58.1932 107.026 57.6446 106.623 57.3829 106.328L56.907 105.793H52.3227H47.7383V93.7123V81.6314H52.7497H57.7611L60.527 78.8206L63.293 76.0099L70.2842 76.0148L77.2754 76.0197L77.2325 73.1196L77.1895 70.2194L75.9816 69.7849C70.3168 67.7468 65.943 62.9482 64.372 57.0478C63.8739 55.1768 63.6973 51.681 63.9981 49.6443C64.8506 43.8727 68.8143 38.5195 74.2359 35.8179C79.2291 33.3298 85.856 33.3289 90.8843 35.8158C96.1201 38.4051 100.049 43.5723 101.037 49.1704C101.337 50.8648 101.338 53.9388 101.04 55.6176C99.8547 62.2896 94.9225 67.9111 88.3942 70.0309L86.5861 70.618V75.4052V80.1924L88.1258 80.2582C89.7894 80.3293 90.2715 80.4973 91.2526 81.3476C92.597 82.5129 93.0704 84.7191 92.3223 86.333L91.9856 87.0594L92.5889 87.538C92.9264 87.8057 93.3894 88.4129 93.6397 88.916C94.5282 90.7021 94.0959 92.8689 92.5987 94.134L91.9661 94.6685L92.3116 95.3577C93.097 96.9246 92.5871 99.1977 91.1907 100.355L90.5777 100.863L90.9021 101.575C91.1298 102.074 91.2265 102.611 91.2265 103.377C91.2265 105.16 90.4182 106.528 88.8948 107.321L88.0863 107.742L83.5857 107.75C81.1104 107.754 74.6437 107.719 69.2154 107.672L69.2148 107.672ZM88.1525 104.792C88.9877 104.001 88.939 102.587 88.053 101.899C87.6688 101.6 87.4236 101.585 83.2085 101.588C79.2404 101.59 78.7329 101.62 78.4319 101.861C77.9465 102.249 77.7423 102.721 77.7423 103.455C77.7423 104.262 77.9421 104.636 78.5814 105.026C79.0544 105.314 79.3416 105.33 83.3776 105.29L87.6707 105.248L88.1525 104.792ZM75.3624 104.664C75.1252 103.847 75.1929 102.582 75.5192 101.734L75.823 100.945L75.1607 100.29C74.1362 99.2779 73.8733 98.6188 73.8733 97.0637C73.8733 95.8953 73.9251 95.6516 74.3126 95.0009C74.5543 94.5951 74.9984 94.069 75.2996 93.8318C75.6008 93.5946 75.8472 93.3238 75.8472 93.23C75.8472 93.1363 75.4897 92.762 75.0527 92.3983C73.501 91.1067 72.531 89.1174 72.531 87.2267C72.531 86.3096 72.5301 86.3078 72.0573 86.3078C71.7967 86.3078 71.5826 86.3253 71.5814 86.3468C71.5803 86.3682 71.4442 87.0325 71.2789 87.823C70.5134 91.4849 68.1772 94.1136 64.9304 94.9667C64.0556 95.1965 62.4868 95.2668 62.0367 95.0963C61.6588 94.9532 61.2973 94.1636 61.4088 93.7251C61.5702 93.0903 61.9883 92.8623 63.2897 92.6994C65.5843 92.4122 67.1176 91.362 68.0869 89.4138C68.621 88.3401 69.0497 86.6388 69.0541 85.5747C69.0581 84.7387 69.3054 84.2058 69.7923 83.9867C70.0078 83.8898 71.0331 83.8137 72.1223 83.8137C74.8115 83.8137 74.8221 83.8227 74.9417 86.2193C75.0141 87.67 75.1059 88.1765 75.4189 88.8513C76.1761 90.4841 77.8982 91.6078 79.6431 91.6078H80.4268L80.4265 85.8012C80.4263 80.5844 80.3982 79.9393 80.1501 79.4511C79.9983 79.1522 79.6964 78.8201 79.4793 78.713C79.1805 78.5656 77.2719 78.5177 71.6344 78.5159L64.1844 78.5136L63.8434 78.9423C63.6558 79.1781 62.407 80.4775 61.0684 81.83L58.6344 84.2889V93.8769C58.6344 104.28 58.624 104.147 59.5051 104.832C59.9382 105.168 59.9785 105.17 67.7249 105.17H75.5093L75.3624 104.664ZM56.1078 93.7123V84.1255H53.1864H50.2649V93.7123V103.299H53.1864H56.1078V93.7123ZM88.6972 98.9209C89.9334 98.5821 90.4978 97.4219 89.9575 96.3301C89.3971 95.1979 89.2965 95.182 82.9806 95.2293L77.4018 95.2711L76.8614 95.8534C76.4159 96.3334 76.321 96.5572 76.321 97.1275C76.321 97.9568 76.866 98.6989 77.6369 98.9192C78.3603 99.1259 87.9438 99.1274 88.6972 98.9209V98.9209ZM90.7038 92.4331C91.7443 91.8264 91.8948 90.386 91.0092 89.5112L90.5279 89.0358L86.7407 88.989L82.9534 88.9421V90.8206V92.6991H86.6006C89.7548 92.6991 90.3094 92.6631 90.7038 92.4331V92.4331ZM89.2401 86.148C89.8777 85.7642 90.2803 84.8945 90.1465 84.1901C90.0882 83.8834 89.8303 83.4914 89.4965 83.2021L88.9432 82.7225H85.9483H82.9534V84.5931V86.4637L85.8354 86.4631C88.4474 86.4626 88.7663 86.4331 89.2401 86.1479V86.148ZM84.0588 75.6299V71.0313H83.3725C82.995 71.0313 82.0356 70.9857 81.2406 70.93L79.7951 70.8288V73.4832V76.1376L80.3083 76.3466C80.9414 76.6043 82.1104 77.6477 82.4128 78.225C82.5365 78.461 82.7145 79.0083 82.8086 79.4412C82.9735 80.2004 82.9988 80.2284 83.5192 80.2284H84.0588V75.6299ZM85.8749 68.1657C90.8833 67.094 94.9379 63.9548 97.1734 59.418C100.874 51.9074 98.023 42.7168 90.7097 38.584C82.1993 33.7748 71.5808 37.2696 67.5859 46.1947C66.2225 49.2406 65.9516 53.6067 66.9215 56.901C68.7242 63.0237 73.7982 67.3522 80.3739 68.3769C81.6084 68.5693 84.5093 68.4579 85.8749 68.1657ZM79.7531 65.9521C77.9935 65.6381 76.1815 64.8988 74.5805 63.8417C72.954 62.7677 72.3731 62.1524 72.3731 61.5034C72.3731 60.933 72.9962 60.2754 73.5368 60.2754C73.765 60.2754 74.4034 60.6349 75.0837 61.1464C76.479 62.1956 77.5959 62.7739 79.169 63.2615C80.1462 63.5644 80.6854 63.6263 82.3218 63.6236C84.6054 63.6197 85.6774 63.3755 87.533 62.4366C89.8961 61.2408 91.4319 59.7093 92.5921 57.3916C93.4987 55.5804 93.7616 54.4415 93.7616 52.3254C93.7616 50.1171 93.4963 49.0562 92.4196 46.9599C91.5577 45.2816 91.5059 44.75 92.1602 44.2976C93.0849 43.6582 93.864 44.1878 94.8193 46.1052C97.6499 51.787 96.4474 58.2281 91.7464 62.5649C88.6221 65.4471 84.0921 66.7265 79.7531 65.9521ZM81.8543 60.3056C81.4598 59.9161 81.3743 59.705 81.3743 59.1204C81.3743 58.4514 81.3405 58.3951 80.8076 58.1753C78.6979 57.3051 77.2873 54.3191 78.4457 53.1756C79.2547 52.377 80.3244 52.9278 80.5721 54.2705C80.7408 55.1846 81.3682 55.8369 82.2329 55.9971C83.3971 56.2127 84.6443 55.0469 84.4694 53.9067C84.2936 52.7613 83.612 52.216 82.0901 52.0032C80.7816 51.8203 80.0365 51.4496 79.2204 50.5757C78.3084 49.599 77.9986 48.7006 78.0907 47.2997C78.2044 45.5703 79.0551 44.3031 80.5743 43.6007C81.3579 43.2384 81.3743 43.2168 81.3743 42.544C81.3743 41.9867 81.4648 41.7679 81.8543 41.3833C82.2561 40.9867 82.4171 40.9252 82.8413 41.0061C83.5684 41.1447 83.9009 41.6158 83.9009 42.5071C83.9009 43.249 83.9075 43.2578 84.7572 43.7314C86.05 44.4517 86.8632 45.6627 87.0124 47.0904C87.0859 47.7935 87.046 47.9585 86.7083 48.3459C85.9525 49.2133 84.5326 48.666 84.5326 47.5073C84.5326 46.9717 83.9481 46.0844 83.4224 45.8218C82.5283 45.3752 81.3518 45.7137 80.843 46.5639C80.312 47.4511 80.6479 48.8395 81.4954 49.2614C81.7328 49.3795 82.3384 49.5219 82.8412 49.5778C84.4941 49.7617 85.8735 50.6672 86.6244 52.0613C87.1233 52.9876 87.1297 55.0811 86.6362 55.9956C86.2273 56.7536 85.1215 57.7898 84.4139 58.0778C83.9266 58.2762 83.9007 58.3282 83.9007 59.1079C83.9007 60.0774 83.5894 60.5402 82.8411 60.6829C82.4169 60.7638 82.2559 60.7022 81.8541 60.3056H81.8543Z"/>
</mask>
<path d="M69.2148 107.672L59.3451 107.586L58.6019 107.225C58.1932 107.026 57.6446 106.623 57.3829 106.328L56.907 105.793H52.3227H47.7383V93.7123V81.6314H52.7497H57.7611L60.527 78.8206L63.293 76.0099L70.2842 76.0148L77.2754 76.0197L77.2325 73.1196L77.1895 70.2194L75.9816 69.7849C70.3168 67.7468 65.943 62.9482 64.372 57.0478C63.8739 55.1768 63.6973 51.681 63.9981 49.6443C64.8506 43.8727 68.8143 38.5195 74.2359 35.8179C79.2291 33.3298 85.856 33.3289 90.8843 35.8158C96.1201 38.4051 100.049 43.5723 101.037 49.1704C101.337 50.8648 101.338 53.9388 101.04 55.6176C99.8547 62.2896 94.9225 67.9111 88.3942 70.0309L86.5861 70.618V75.4052V80.1924L88.1258 80.2582C89.7894 80.3293 90.2715 80.4973 91.2526 81.3476C92.597 82.5129 93.0704 84.7191 92.3223 86.333L91.9856 87.0594L92.5889 87.538C92.9264 87.8057 93.3894 88.4129 93.6397 88.916C94.5282 90.7021 94.0959 92.8689 92.5987 94.134L91.9661 94.6685L92.3116 95.3577C93.097 96.9246 92.5871 99.1977 91.1907 100.355L90.5777 100.863L90.9021 101.575C91.1298 102.074 91.2265 102.611 91.2265 103.377C91.2265 105.16 90.4182 106.528 88.8948 107.321L88.0863 107.742L83.5857 107.75C81.1104 107.754 74.6437 107.719 69.2154 107.672L69.2148 107.672ZM88.1525 104.792C88.9877 104.001 88.939 102.587 88.053 101.899C87.6688 101.6 87.4236 101.585 83.2085 101.588C79.2404 101.59 78.7329 101.62 78.4319 101.861C77.9465 102.249 77.7423 102.721 77.7423 103.455C77.7423 104.262 77.9421 104.636 78.5814 105.026C79.0544 105.314 79.3416 105.33 83.3776 105.29L87.6707 105.248L88.1525 104.792ZM75.3624 104.664C75.1252 103.847 75.1929 102.582 75.5192 101.734L75.823 100.945L75.1607 100.29C74.1362 99.2779 73.8733 98.6188 73.8733 97.0637C73.8733 95.8953 73.9251 95.6516 74.3126 95.0009C74.5543 94.5951 74.9984 94.069 75.2996 93.8318C75.6008 93.5946 75.8472 93.3238 75.8472 93.23C75.8472 93.1363 75.4897 92.762 75.0527 92.3983C73.501 91.1067 72.531 89.1174 72.531 87.2267C72.531 86.3096 72.5301 86.3078 72.0573 86.3078C71.7967 86.3078 71.5826 86.3253 71.5814 86.3468C71.5803 86.3682 71.4442 87.0325 71.2789 87.823C70.5134 91.4849 68.1772 94.1136 64.9304 94.9667C64.0556 95.1965 62.4868 95.2668 62.0367 95.0963C61.6588 94.9532 61.2973 94.1636 61.4088 93.7251C61.5702 93.0903 61.9883 92.8623 63.2897 92.6994C65.5843 92.4122 67.1176 91.362 68.0869 89.4138C68.621 88.3401 69.0497 86.6388 69.0541 85.5747C69.0581 84.7387 69.3054 84.2058 69.7923 83.9867C70.0078 83.8898 71.0331 83.8137 72.1223 83.8137C74.8115 83.8137 74.8221 83.8227 74.9417 86.2193C75.0141 87.67 75.1059 88.1765 75.4189 88.8513C76.1761 90.4841 77.8982 91.6078 79.6431 91.6078H80.4268L80.4265 85.8012C80.4263 80.5844 80.3982 79.9393 80.1501 79.4511C79.9983 79.1522 79.6964 78.8201 79.4793 78.713C79.1805 78.5656 77.2719 78.5177 71.6344 78.5159L64.1844 78.5136L63.8434 78.9423C63.6558 79.1781 62.407 80.4775 61.0684 81.83L58.6344 84.2889V93.8769C58.6344 104.28 58.624 104.147 59.5051 104.832C59.9382 105.168 59.9785 105.17 67.7249 105.17H75.5093L75.3624 104.664ZM56.1078 93.7123V84.1255H53.1864H50.2649V93.7123V103.299H53.1864H56.1078V93.7123ZM88.6972 98.9209C89.9334 98.5821 90.4978 97.4219 89.9575 96.3301C89.3971 95.1979 89.2965 95.182 82.9806 95.2293L77.4018 95.2711L76.8614 95.8534C76.4159 96.3334 76.321 96.5572 76.321 97.1275C76.321 97.9568 76.866 98.6989 77.6369 98.9192C78.3603 99.1259 87.9438 99.1274 88.6972 98.9209V98.9209ZM90.7038 92.4331C91.7443 91.8264 91.8948 90.386 91.0092 89.5112L90.5279 89.0358L86.7407 88.989L82.9534 88.9421V90.8206V92.6991H86.6006C89.7548 92.6991 90.3094 92.6631 90.7038 92.4331V92.4331ZM89.2401 86.148C89.8777 85.7642 90.2803 84.8945 90.1465 84.1901C90.0882 83.8834 89.8303 83.4914 89.4965 83.2021L88.9432 82.7225H85.9483H82.9534V84.5931V86.4637L85.8354 86.4631C88.4474 86.4626 88.7663 86.4331 89.2401 86.1479V86.148ZM84.0588 75.6299V71.0313H83.3725C82.995 71.0313 82.0356 70.9857 81.2406 70.93L79.7951 70.8288V73.4832V76.1376L80.3083 76.3466C80.9414 76.6043 82.1104 77.6477 82.4128 78.225C82.5365 78.461 82.7145 79.0083 82.8086 79.4412C82.9735 80.2004 82.9988 80.2284 83.5192 80.2284H84.0588V75.6299ZM85.8749 68.1657C90.8833 67.094 94.9379 63.9548 97.1734 59.418C100.874 51.9074 98.023 42.7168 90.7097 38.584C82.1993 33.7748 71.5808 37.2696 67.5859 46.1947C66.2225 49.2406 65.9516 53.6067 66.9215 56.901C68.7242 63.0237 73.7982 67.3522 80.3739 68.3769C81.6084 68.5693 84.5093 68.4579 85.8749 68.1657ZM79.7531 65.9521C77.9935 65.6381 76.1815 64.8988 74.5805 63.8417C72.954 62.7677 72.3731 62.1524 72.3731 61.5034C72.3731 60.933 72.9962 60.2754 73.5368 60.2754C73.765 60.2754 74.4034 60.6349 75.0837 61.1464C76.479 62.1956 77.5959 62.7739 79.169 63.2615C80.1462 63.5644 80.6854 63.6263 82.3218 63.6236C84.6054 63.6197 85.6774 63.3755 87.533 62.4366C89.8961 61.2408 91.4319 59.7093 92.5921 57.3916C93.4987 55.5804 93.7616 54.4415 93.7616 52.3254C93.7616 50.1171 93.4963 49.0562 92.4196 46.9599C91.5577 45.2816 91.5059 44.75 92.1602 44.2976C93.0849 43.6582 93.864 44.1878 94.8193 46.1052C97.6499 51.787 96.4474 58.2281 91.7464 62.5649C88.6221 65.4471 84.0921 66.7265 79.7531 65.9521ZM81.8543 60.3056C81.4598 59.9161 81.3743 59.705 81.3743 59.1204C81.3743 58.4514 81.3405 58.3951 80.8076 58.1753C78.6979 57.3051 77.2873 54.3191 78.4457 53.1756C79.2547 52.377 80.3244 52.9278 80.5721 54.2705C80.7408 55.1846 81.3682 55.8369 82.2329 55.9971C83.3971 56.2127 84.6443 55.0469 84.4694 53.9067C84.2936 52.7613 83.612 52.216 82.0901 52.0032C80.7816 51.8203 80.0365 51.4496 79.2204 50.5757C78.3084 49.599 77.9986 48.7006 78.0907 47.2997C78.2044 45.5703 79.0551 44.3031 80.5743 43.6007C81.3579 43.2384 81.3743 43.2168 81.3743 42.544C81.3743 41.9867 81.4648 41.7679 81.8543 41.3833C82.2561 40.9867 82.4171 40.9252 82.8413 41.0061C83.5684 41.1447 83.9009 41.6158 83.9009 42.5071C83.9009 43.249 83.9075 43.2578 84.7572 43.7314C86.05 44.4517 86.8632 45.6627 87.0124 47.0904C87.0859 47.7935 87.046 47.9585 86.7083 48.3459C85.9525 49.2133 84.5326 48.666 84.5326 47.5073C84.5326 46.9717 83.9481 46.0844 83.4224 45.8218C82.5283 45.3752 81.3518 45.7137 80.843 46.5639C80.312 47.4511 80.6479 48.8395 81.4954 49.2614C81.7328 49.3795 82.3384 49.5219 82.8412 49.5778C84.4941 49.7617 85.8735 50.6672 86.6244 52.0613C87.1233 52.9876 87.1297 55.0811 86.6362 55.9956C86.2273 56.7536 85.1215 57.7898 84.4139 58.0778C83.9266 58.2762 83.9007 58.3282 83.9007 59.1079C83.9007 60.0774 83.5894 60.5402 82.8411 60.6829C82.4169 60.7638 82.2559 60.7022 81.8541 60.3056H81.8543Z" fill="#3CB043"/>
<path d="M69.2148 107.672L59.3451 107.586L58.6019 107.225C58.1932 107.026 57.6446 106.623 57.3829 106.328L56.907 105.793H52.3227H47.7383V93.7123V81.6314H52.7497H57.7611L60.527 78.8206L63.293 76.0099L70.2842 76.0148L77.2754 76.0197L77.2325 73.1196L77.1895 70.2194L75.9816 69.7849C70.3168 67.7468 65.943 62.9482 64.372 57.0478C63.8739 55.1768 63.6973 51.681 63.9981 49.6443C64.8506 43.8727 68.8143 38.5195 74.2359 35.8179C79.2291 33.3298 85.856 33.3289 90.8843 35.8158C96.1201 38.4051 100.049 43.5723 101.037 49.1704C101.337 50.8648 101.338 53.9388 101.04 55.6176C99.8547 62.2896 94.9225 67.9111 88.3942 70.0309L86.5861 70.618V75.4052V80.1924L88.1258 80.2582C89.7894 80.3293 90.2715 80.4973 91.2526 81.3476C92.597 82.5129 93.0704 84.7191 92.3223 86.333L91.9856 87.0594L92.5889 87.538C92.9264 87.8057 93.3894 88.4129 93.6397 88.916C94.5282 90.7021 94.0959 92.8689 92.5987 94.134L91.9661 94.6685L92.3116 95.3577C93.097 96.9246 92.5871 99.1977 91.1907 100.355L90.5777 100.863L90.9021 101.575C91.1298 102.074 91.2265 102.611 91.2265 103.377C91.2265 105.16 90.4182 106.528 88.8948 107.321L88.0863 107.742L83.5857 107.75C81.1104 107.754 74.6437 107.719 69.2154 107.672L69.2148 107.672ZM88.1525 104.792C88.9877 104.001 88.939 102.587 88.053 101.899C87.6688 101.6 87.4236 101.585 83.2085 101.588C79.2404 101.59 78.7329 101.62 78.4319 101.861C77.9465 102.249 77.7423 102.721 77.7423 103.455C77.7423 104.262 77.9421 104.636 78.5814 105.026C79.0544 105.314 79.3416 105.33 83.3776 105.29L87.6707 105.248L88.1525 104.792ZM75.3624 104.664C75.1252 103.847 75.1929 102.582 75.5192 101.734L75.823 100.945L75.1607 100.29C74.1362 99.2779 73.8733 98.6188 73.8733 97.0637C73.8733 95.8953 73.9251 95.6516 74.3126 95.0009C74.5543 94.5951 74.9984 94.069 75.2996 93.8318C75.6008 93.5946 75.8472 93.3238 75.8472 93.23C75.8472 93.1363 75.4897 92.762 75.0527 92.3983C73.501 91.1067 72.531 89.1174 72.531 87.2267C72.531 86.3096 72.5301 86.3078 72.0573 86.3078C71.7967 86.3078 71.5826 86.3253 71.5814 86.3468C71.5803 86.3682 71.4442 87.0325 71.2789 87.823C70.5134 91.4849 68.1772 94.1136 64.9304 94.9667C64.0556 95.1965 62.4868 95.2668 62.0367 95.0963C61.6588 94.9532 61.2973 94.1636 61.4088 93.7251C61.5702 93.0903 61.9883 92.8623 63.2897 92.6994C65.5843 92.4122 67.1176 91.362 68.0869 89.4138C68.621 88.3401 69.0497 86.6388 69.0541 85.5747C69.0581 84.7387 69.3054 84.2058 69.7923 83.9867C70.0078 83.8898 71.0331 83.8137 72.1223 83.8137C74.8115 83.8137 74.8221 83.8227 74.9417 86.2193C75.0141 87.67 75.1059 88.1765 75.4189 88.8513C76.1761 90.4841 77.8982 91.6078 79.6431 91.6078H80.4268L80.4265 85.8012C80.4263 80.5844 80.3982 79.9393 80.1501 79.4511C79.9983 79.1522 79.6964 78.8201 79.4793 78.713C79.1805 78.5656 77.2719 78.5177 71.6344 78.5159L64.1844 78.5136L63.8434 78.9423C63.6558 79.1781 62.407 80.4775 61.0684 81.83L58.6344 84.2889V93.8769C58.6344 104.28 58.624 104.147 59.5051 104.832C59.9382 105.168 59.9785 105.17 67.7249 105.17H75.5093L75.3624 104.664ZM56.1078 93.7123V84.1255H53.1864H50.2649V93.7123V103.299H53.1864H56.1078V93.7123ZM88.6972 98.9209C89.9334 98.5821 90.4978 97.4219 89.9575 96.3301C89.3971 95.1979 89.2965 95.182 82.9806 95.2293L77.4018 95.2711L76.8614 95.8534C76.4159 96.3334 76.321 96.5572 76.321 97.1275C76.321 97.9568 76.866 98.6989 77.6369 98.9192C78.3603 99.1259 87.9438 99.1274 88.6972 98.9209V98.9209ZM90.7038 92.4331C91.7443 91.8264 91.8948 90.386 91.0092 89.5112L90.5279 89.0358L86.7407 88.989L82.9534 88.9421V90.8206V92.6991H86.6006C89.7548 92.6991 90.3094 92.6631 90.7038 92.4331V92.4331ZM89.2401 86.148C89.8777 85.7642 90.2803 84.8945 90.1465 84.1901C90.0882 83.8834 89.8303 83.4914 89.4965 83.2021L88.9432 82.7225H85.9483H82.9534V84.5931V86.4637L85.8354 86.4631C88.4474 86.4626 88.7663 86.4331 89.2401 86.1479V86.148ZM84.0588 75.6299V71.0313H83.3725C82.995 71.0313 82.0356 70.9857 81.2406 70.93L79.7951 70.8288V73.4832V76.1376L80.3083 76.3466C80.9414 76.6043 82.1104 77.6477 82.4128 78.225C82.5365 78.461 82.7145 79.0083 82.8086 79.4412C82.9735 80.2004 82.9988 80.2284 83.5192 80.2284H84.0588V75.6299ZM85.8749 68.1657C90.8833 67.094 94.9379 63.9548 97.1734 59.418C100.874 51.9074 98.023 42.7168 90.7097 38.584C82.1993 33.7748 71.5808 37.2696 67.5859 46.1947C66.2225 49.2406 65.9516 53.6067 66.9215 56.901C68.7242 63.0237 73.7982 67.3522 80.3739 68.3769C81.6084 68.5693 84.5093 68.4579 85.8749 68.1657ZM79.7531 65.9521C77.9935 65.6381 76.1815 64.8988 74.5805 63.8417C72.954 62.7677 72.3731 62.1524 72.3731 61.5034C72.3731 60.933 72.9962 60.2754 73.5368 60.2754C73.765 60.2754 74.4034 60.6349 75.0837 61.1464C76.479 62.1956 77.5959 62.7739 79.169 63.2615C80.1462 63.5644 80.6854 63.6263 82.3218 63.6236C84.6054 63.6197 85.6774 63.3755 87.533 62.4366C89.8961 61.2408 91.4319 59.7093 92.5921 57.3916C93.4987 55.5804 93.7616 54.4415 93.7616 52.3254C93.7616 50.1171 93.4963 49.0562 92.4196 46.9599C91.5577 45.2816 91.5059 44.75 92.1602 44.2976C93.0849 43.6582 93.864 44.1878 94.8193 46.1052C97.6499 51.787 96.4474 58.2281 91.7464 62.5649C88.6221 65.4471 84.0921 66.7265 79.7531 65.9521ZM81.8543 60.3056C81.4598 59.9161 81.3743 59.705 81.3743 59.1204C81.3743 58.4514 81.3405 58.3951 80.8076 58.1753C78.6979 57.3051 77.2873 54.3191 78.4457 53.1756C79.2547 52.377 80.3244 52.9278 80.5721 54.2705C80.7408 55.1846 81.3682 55.8369 82.2329 55.9971C83.3971 56.2127 84.6443 55.0469 84.4694 53.9067C84.2936 52.7613 83.612 52.216 82.0901 52.0032C80.7816 51.8203 80.0365 51.4496 79.2204 50.5757C78.3084 49.599 77.9986 48.7006 78.0907 47.2997C78.2044 45.5703 79.0551 44.3031 80.5743 43.6007C81.3579 43.2384 81.3743 43.2168 81.3743 42.544C81.3743 41.9867 81.4648 41.7679 81.8543 41.3833C82.2561 40.9867 82.4171 40.9252 82.8413 41.0061C83.5684 41.1447 83.9009 41.6158 83.9009 42.5071C83.9009 43.249 83.9075 43.2578 84.7572 43.7314C86.05 44.4517 86.8632 45.6627 87.0124 47.0904C87.0859 47.7935 87.046 47.9585 86.7083 48.3459C85.9525 49.2133 84.5326 48.666 84.5326 47.5073C84.5326 46.9717 83.9481 46.0844 83.4224 45.8218C82.5283 45.3752 81.3518 45.7137 80.843 46.5639C80.312 47.4511 80.6479 48.8395 81.4954 49.2614C81.7328 49.3795 82.3384 49.5219 82.8412 49.5778C84.4941 49.7617 85.8735 50.6672 86.6244 52.0613C87.1233 52.9876 87.1297 55.0811 86.6362 55.9956C86.2273 56.7536 85.1215 57.7898 84.4139 58.0778C83.9266 58.2762 83.9007 58.3282 83.9007 59.1079C83.9007 60.0774 83.5894 60.5402 82.8411 60.6829C82.4169 60.7638 82.2559 60.7022 81.8541 60.3056H81.8543Z" stroke="#3CB043" stroke-width="2" mask="url(#path-3-outside-1_0:1)"/>
<path d="M134.513 74.5C134.513 107.644 107.644 134.512 74.5005 134.512C41.3567 134.512 14.4883 107.644 14.4883 74.5C14.4883 41.3562 41.3567 14.4878 74.5005 14.4878C107.644 14.4878 134.513 41.3562 134.513 74.5ZM16.1075 74.5C16.1075 106.75 42.2509 132.893 74.5005 132.893C106.75 132.893 132.894 106.75 132.894 74.5C132.894 42.2504 106.75 16.107 74.5005 16.107C42.2509 16.107 16.1075 42.2504 16.1075 74.5Z" fill="#C4C4C4"/>
<defs>
<filter id="filter0_d_0:1" x="0" y="0" width="153" height="153" filterUnits="userSpaceOnUse" color-interpolation-filters="sRGB">
<feFlood flood-opacity="0" result="BackgroundImageFix"/>
<feColorMatrix in="SourceAlpha" type="matrix" values="0 0 0 0 0 0 0 0 0 0 0 0 0 0 0 0 0 0 127 0" result="hardAlpha"/>
<feOffset dx="2" dy="2"/>
<feGaussianBlur stdDeviation="5"/>
<feComposite in2="hardAlpha" operator="out"/>
<feColorMatrix type="matrix" values="0 0 0 0 0 0 0 0 0 0 0 0 0 0 0 0 0 0 0.15 0"/>
<feBlend mode="normal" in2="BackgroundImageFix" result="effect1_dropShadow_0:1"/>
<feBlend mode="normal" in="SourceGraphic" in2="effect1_dropShadow_0:1" result="shape"/>
</filter>
</defs>
</svg>
