<svg width="121" height="121" viewBox="0 0 121 121" fill="none" xmlns="http://www.w3.org/2000/svg">
<path d="M120.513 60.5C120.513 93.6438 93.6443 120.512 60.5005 120.512C27.3567 120.512 0.488281 93.6438 0.488281 60.5C0.488281 27.3562 27.3567 0.487793 60.5005 0.487793C93.6443 0.487793 120.513 27.3562 120.513 60.5ZM2.10745 60.5C2.10745 92.7496 28.2509 118.893 60.5005 118.893C92.7501 118.893 118.894 92.7496 118.894 60.5C118.894 28.2504 92.7501 2.10696 60.5005 2.10696C28.2509 2.10696 2.10745 28.2504 2.10745 60.5Z" fill="#C4C4C4"/>
<mask id="path-2-outside-1_0:1" maskUnits="userSpaceOnUse" x="30.3047" y="29.4939" width="62" height="63" fill="black">
<rect fill="white" x="30.3047" y="29.4939" width="62" height="63"/>
<path d="M74.4632 90.1975C70.8965 89.5883 69.1113 88.2469 60.7922 79.9249C56.4328 75.5639 52.7673 71.5993 52.6467 71.1145C52.1776 69.2293 54.7881 67.1588 57.5803 67.2014C59.23 67.2265 60.53 67.8113 62.4827 69.4064L63.6926 70.3947V62.4608V54.5268H48.5869H33.4811L32.3929 53.4292L31.3047 52.3315V42.5104V32.6892L32.3929 31.5916L33.4811 30.4939H55.1303H76.7795L77.8677 31.5916L78.9559 32.6892V42.5104V52.3315L77.8677 53.4292C76.9038 54.4015 76.5213 54.5268 74.5173 54.5268H72.255V55.971V57.4152L73.9056 57.3792C75.2324 57.3502 75.7686 57.5484 76.6387 58.3891C77.5943 59.3124 77.8449 59.3877 78.7755 59.0308C80.2593 58.4617 81.9157 58.9337 83.1634 60.2809C84.0895 61.2809 84.4506 61.4196 85.8949 61.33C87.9293 61.2039 89.2382 61.9794 89.9691 63.744C90.6189 65.3127 90.7019 75.7989 90.0909 79.1328C89.0339 84.9 84.8693 89.101 79.1518 90.1671C76.7532 90.6144 76.8989 90.6134 74.4632 90.1975L74.4632 90.1975ZM81.6158 87.0673C83.7824 85.9978 85.8946 83.9576 86.8283 82.0323C87.6633 80.3106 87.6887 79.9798 87.5713 72.3638C87.4993 67.6953 87.2932 64.2865 87.0661 64.0086C86.6151 63.4567 85.3302 63.4029 84.5459 63.9031C84.2054 64.1203 83.9196 65.091 83.8013 66.4321C83.6232 68.4518 83.5423 68.6087 82.6787 68.6087C81.768 68.6087 81.7456 68.5404 81.6387 65.4355C81.5184 61.9451 81.2152 61.2861 79.7293 61.2861C78.2529 61.2861 77.8391 61.9502 77.8391 64.3194C77.8391 66.5753 77.2965 67.4931 76.211 67.0729C75.7243 66.8845 75.6054 66.2709 75.6054 63.9463C75.6054 61.027 75.2698 60.0961 74.066 59.6771C73.7312 59.5606 73.1109 59.7099 72.6875 60.0091C72.0781 60.4396 71.8947 61.0318 71.8072 62.8519C71.7237 64.5861 71.5311 65.2528 71.0233 65.5655C70.4851 65.8968 70.2423 65.8337 69.8134 65.2511C69.3889 64.6745 69.2768 62.9836 69.2768 57.1588C69.2768 49.3844 69.1742 48.8941 67.5482 48.8941C65.6617 48.8941 65.554 49.6165 65.554 62.2683C65.554 76.0512 65.6957 75.6582 61.9478 72.2757C58.6896 69.335 58.038 69.0132 56.4279 69.5492C55.7199 69.7849 55.0613 70.1073 54.9643 70.2657C54.8672 70.4241 58.4248 74.1901 62.8699 78.6346C69.3503 85.1141 71.284 86.8354 72.6272 87.3202C74.8611 88.1264 79.7488 87.9889 81.6158 87.0673ZM63.7155 50.2499C63.9919 47.822 65.2684 46.641 67.6164 46.641C69.9689 46.641 71.5104 48.0758 71.7835 50.5195L71.9834 52.3082L74.0736 52.1971L76.1639 52.0859L76.2633 42.613L76.3627 33.14L75.5187 32.9335C75.0546 32.8199 65.4609 32.7737 54.1996 32.8308L33.7245 32.9347L33.6246 42.1277C33.5697 47.1839 33.607 51.5371 33.7076 51.8015C33.8529 52.1834 36.9373 52.2621 48.6985 52.1841L63.5065 52.0859L63.7155 50.2499ZM50.2031 49.4133C49.8105 48.5442 49.8607 48.3473 50.6368 47.7135C51.4088 47.0829 51.6089 47.0597 52.2986 47.5208C53.8136 48.5336 53.3222 50.3962 51.5401 50.3962C50.9381 50.3962 50.5024 50.0759 50.2031 49.4133ZM57.2044 49.8061C56.4381 49.0331 56.4663 48.6731 57.364 47.7676C57.7735 47.3545 58.2641 47.0165 58.4542 47.0165C59.028 47.0165 59.9699 48.1533 59.9699 48.8458C59.9699 50.2991 58.2762 50.8872 57.2044 49.8061ZM47.3272 41.5716L45.3766 36.8776H43.3664C41.3748 36.8776 41.3561 36.8677 41.3561 35.7353V34.593L44.1942 34.7026L47.0322 34.8123L47.6857 36.5021L48.3392 38.192L56.0159 38.2935C60.2381 38.3492 63.6926 38.5411 63.6926 38.7198C63.6926 38.8985 63.0836 40.6694 62.3393 42.6551L60.986 46.2655H55.1319H49.2778L47.3272 41.5716ZM59.911 42.5607C60.1481 41.7622 60.3422 41.0018 60.3422 40.8709C60.3422 40.7399 57.9131 40.6328 54.9442 40.6328C51.9753 40.6328 49.5462 40.7138 49.5462 40.8129C49.5462 40.912 49.8157 41.6725 50.145 42.5028L50.7438 44.0124H55.1118H59.4798L59.911 42.5607Z"/>
</mask>
<path d="M74.4632 90.1975C70.8965 89.5883 69.1113 88.2469 60.7922 79.9249C56.4328 75.5639 52.7673 71.5993 52.6467 71.1145C52.1776 69.2293 54.7881 67.1588 57.5803 67.2014C59.23 67.2265 60.53 67.8113 62.4827 69.4064L63.6926 70.3947V62.4608V54.5268H48.5869H33.4811L32.3929 53.4292L31.3047 52.3315V42.5104V32.6892L32.3929 31.5916L33.4811 30.4939H55.1303H76.7795L77.8677 31.5916L78.9559 32.6892V42.5104V52.3315L77.8677 53.4292C76.9038 54.4015 76.5213 54.5268 74.5173 54.5268H72.255V55.971V57.4152L73.9056 57.3792C75.2324 57.3502 75.7686 57.5484 76.6387 58.3891C77.5943 59.3124 77.8449 59.3877 78.7755 59.0308C80.2593 58.4617 81.9157 58.9337 83.1634 60.2809C84.0895 61.2809 84.4506 61.4196 85.8949 61.33C87.9293 61.2039 89.2382 61.9794 89.9691 63.744C90.6189 65.3127 90.7019 75.7989 90.0909 79.1328C89.0339 84.9 84.8693 89.101 79.1518 90.1671C76.7532 90.6144 76.8989 90.6134 74.4632 90.1975L74.4632 90.1975ZM81.6158 87.0673C83.7824 85.9978 85.8946 83.9576 86.8283 82.0323C87.6633 80.3106 87.6887 79.9798 87.5713 72.3638C87.4993 67.6953 87.2932 64.2865 87.0661 64.0086C86.6151 63.4567 85.3302 63.4029 84.5459 63.9031C84.2054 64.1203 83.9196 65.091 83.8013 66.4321C83.6232 68.4518 83.5423 68.6087 82.6787 68.6087C81.768 68.6087 81.7456 68.5404 81.6387 65.4355C81.5184 61.9451 81.2152 61.2861 79.7293 61.2861C78.2529 61.2861 77.8391 61.9502 77.8391 64.3194C77.8391 66.5753 77.2965 67.4931 76.211 67.0729C75.7243 66.8845 75.6054 66.2709 75.6054 63.9463C75.6054 61.027 75.2698 60.0961 74.066 59.6771C73.7312 59.5606 73.1109 59.7099 72.6875 60.0091C72.0781 60.4396 71.8947 61.0318 71.8072 62.8519C71.7237 64.5861 71.5311 65.2528 71.0233 65.5655C70.4851 65.8968 70.2423 65.8337 69.8134 65.2511C69.3889 64.6745 69.2768 62.9836 69.2768 57.1588C69.2768 49.3844 69.1742 48.8941 67.5482 48.8941C65.6617 48.8941 65.554 49.6165 65.554 62.2683C65.554 76.0512 65.6957 75.6582 61.9478 72.2757C58.6896 69.335 58.038 69.0132 56.4279 69.5492C55.7199 69.7849 55.0613 70.1073 54.9643 70.2657C54.8672 70.4241 58.4248 74.1901 62.8699 78.6346C69.3503 85.1141 71.284 86.8354 72.6272 87.3202C74.8611 88.1264 79.7488 87.9889 81.6158 87.0673ZM63.7155 50.2499C63.9919 47.822 65.2684 46.641 67.6164 46.641C69.9689 46.641 71.5104 48.0758 71.7835 50.5195L71.9834 52.3082L74.0736 52.1971L76.1639 52.0859L76.2633 42.613L76.3627 33.14L75.5187 32.9335C75.0546 32.8199 65.4609 32.7737 54.1996 32.8308L33.7245 32.9347L33.6246 42.1277C33.5697 47.1839 33.607 51.5371 33.7076 51.8015C33.8529 52.1834 36.9373 52.2621 48.6985 52.1841L63.5065 52.0859L63.7155 50.2499ZM50.2031 49.4133C49.8105 48.5442 49.8607 48.3473 50.6368 47.7135C51.4088 47.0829 51.6089 47.0597 52.2986 47.5208C53.8136 48.5336 53.3222 50.3962 51.5401 50.3962C50.9381 50.3962 50.5024 50.0759 50.2031 49.4133ZM57.2044 49.8061C56.4381 49.0331 56.4663 48.6731 57.364 47.7676C57.7735 47.3545 58.2641 47.0165 58.4542 47.0165C59.028 47.0165 59.9699 48.1533 59.9699 48.8458C59.9699 50.2991 58.2762 50.8872 57.2044 49.8061ZM47.3272 41.5716L45.3766 36.8776H43.3664C41.3748 36.8776 41.3561 36.8677 41.3561 35.7353V34.593L44.1942 34.7026L47.0322 34.8123L47.6857 36.5021L48.3392 38.192L56.0159 38.2935C60.2381 38.3492 63.6926 38.5411 63.6926 38.7198C63.6926 38.8985 63.0836 40.6694 62.3393 42.6551L60.986 46.2655H55.1319H49.2778L47.3272 41.5716ZM59.911 42.5607C60.1481 41.7622 60.3422 41.0018 60.3422 40.8709C60.3422 40.7399 57.9131 40.6328 54.9442 40.6328C51.9753 40.6328 49.5462 40.7138 49.5462 40.8129C49.5462 40.912 49.8157 41.6725 50.145 42.5028L50.7438 44.0124H55.1118H59.4798L59.911 42.5607Z" fill="#3CB043"/>
<path d="M74.4632 90.1975C70.8965 89.5883 69.1113 88.2469 60.7922 79.9249C56.4328 75.5639 52.7673 71.5993 52.6467 71.1145C52.1776 69.2293 54.7881 67.1588 57.5803 67.2014C59.23 67.2265 60.53 67.8113 62.4827 69.4064L63.6926 70.3947V62.4608V54.5268H48.5869H33.4811L32.3929 53.4292L31.3047 52.3315V42.5104V32.6892L32.3929 31.5916L33.4811 30.4939H55.1303H76.7795L77.8677 31.5916L78.9559 32.6892V42.5104V52.3315L77.8677 53.4292C76.9038 54.4015 76.5213 54.5268 74.5173 54.5268H72.255V55.971V57.4152L73.9056 57.3792C75.2324 57.3502 75.7686 57.5484 76.6387 58.3891C77.5943 59.3124 77.8449 59.3877 78.7755 59.0308C80.2593 58.4617 81.9157 58.9337 83.1634 60.2809C84.0895 61.2809 84.4506 61.4196 85.8949 61.33C87.9293 61.2039 89.2382 61.9794 89.9691 63.744C90.6189 65.3127 90.7019 75.7989 90.0909 79.1328C89.0339 84.9 84.8693 89.101 79.1518 90.1671C76.7532 90.6144 76.8989 90.6134 74.4632 90.1975L74.4632 90.1975ZM81.6158 87.0673C83.7824 85.9978 85.8946 83.9576 86.8283 82.0323C87.6633 80.3106 87.6887 79.9798 87.5713 72.3638C87.4993 67.6953 87.2932 64.2865 87.0661 64.0086C86.6151 63.4567 85.3302 63.4029 84.5459 63.9031C84.2054 64.1203 83.9196 65.091 83.8013 66.4321C83.6232 68.4518 83.5423 68.6087 82.6787 68.6087C81.768 68.6087 81.7456 68.5404 81.6387 65.4355C81.5184 61.9451 81.2152 61.2861 79.7293 61.2861C78.2529 61.2861 77.8391 61.9502 77.8391 64.3194C77.8391 66.5753 77.2965 67.4931 76.211 67.0729C75.7243 66.8845 75.6054 66.2709 75.6054 63.9463C75.6054 61.027 75.2698 60.0961 74.066 59.6771C73.7312 59.5606 73.1109 59.7099 72.6875 60.0091C72.0781 60.4396 71.8947 61.0318 71.8072 62.8519C71.7237 64.5861 71.5311 65.2528 71.0233 65.5655C70.4851 65.8968 70.2423 65.8337 69.8134 65.2511C69.3889 64.6745 69.2768 62.9836 69.2768 57.1588C69.2768 49.3844 69.1742 48.8941 67.5482 48.8941C65.6617 48.8941 65.554 49.6165 65.554 62.2683C65.554 76.0512 65.6957 75.6582 61.9478 72.2757C58.6896 69.335 58.038 69.0132 56.4279 69.5492C55.7199 69.7849 55.0613 70.1073 54.9643 70.2657C54.8672 70.4241 58.4248 74.1901 62.8699 78.6346C69.3503 85.1141 71.284 86.8354 72.6272 87.3202C74.8611 88.1264 79.7488 87.9889 81.6158 87.0673ZM63.7155 50.2499C63.9919 47.822 65.2684 46.641 67.6164 46.641C69.9689 46.641 71.5104 48.0758 71.7835 50.5195L71.9834 52.3082L74.0736 52.1971L76.1639 52.0859L76.2633 42.613L76.3627 33.14L75.5187 32.9335C75.0546 32.8199 65.4609 32.7737 54.1996 32.8308L33.7245 32.9347L33.6246 42.1277C33.5697 47.1839 33.607 51.5371 33.7076 51.8015C33.8529 52.1834 36.9373 52.2621 48.6985 52.1841L63.5065 52.0859L63.7155 50.2499ZM50.2031 49.4133C49.8105 48.5442 49.8607 48.3473 50.6368 47.7135C51.4088 47.0829 51.6089 47.0597 52.2986 47.5208C53.8136 48.5336 53.3222 50.3962 51.5401 50.3962C50.9381 50.3962 50.5024 50.0759 50.2031 49.4133ZM57.2044 49.8061C56.4381 49.0331 56.4663 48.6731 57.364 47.7676C57.7735 47.3545 58.2641 47.0165 58.4542 47.0165C59.028 47.0165 59.9699 48.1533 59.9699 48.8458C59.9699 50.2991 58.2762 50.8872 57.2044 49.8061ZM47.3272 41.5716L45.3766 36.8776H43.3664C41.3748 36.8776 41.3561 36.8677 41.3561 35.7353V34.593L44.1942 34.7026L47.0322 34.8123L47.6857 36.5021L48.3392 38.192L56.0159 38.2935C60.2381 38.3492 63.6926 38.5411 63.6926 38.7198C63.6926 38.8985 63.0836 40.6694 62.3393 42.6551L60.986 46.2655H55.1319H49.2778L47.3272 41.5716ZM59.911 42.5607C60.1481 41.7622 60.3422 41.0018 60.3422 40.8709C60.3422 40.7399 57.9131 40.6328 54.9442 40.6328C51.9753 40.6328 49.5462 40.7138 49.5462 40.8129C49.5462 40.912 49.8157 41.6725 50.145 42.5028L50.7438 44.0124H55.1118H59.4798L59.911 42.5607Z" stroke="#3CB043" stroke-width="2" mask="url(#path-2-outside-1_0:1)"/>
</svg>
