<svg width="15" height="11" viewBox="0 0 15 11" fill="none" xmlns="http://www.w3.org/2000/svg">
<path d="M10.4941 7.29667C12.7898 5.66591 13.8371 4.91027 14.5 4.41912M10.4941 7.29667C10.4939 7.29676 10.4938 7.29686 10.4937 7.29695L10.2041 6.88932M10.4941 7.29667C10.4941 7.2966 10.4942 7.29653 10.4943 7.29646L10.2041 6.88932M10.4941 7.29667C10.4219 7.3481 10.3324 7.41576 10.23 7.49313C9.97171 7.68836 9.63163 7.9454 9.28273 8.15947C8.78797 8.46305 8.16329 8.75729 7.49935 8.75287M14.5 4.41912L10.2041 6.88932M14.5 4.41912V9.625C14.5 10.0974 14.1046 10.5 13.5938 10.5H1.40625C0.895373 10.5 0.5 10.0974 0.5 9.625V4.4213M14.5 4.41912L0.5 4.4213M10.2041 6.88932C10.1134 6.95395 10.0119 7.03075 9.90119 7.11449C9.28557 7.58011 8.38647 8.26015 7.5 8.25286M7.49935 8.75287C7.50048 8.75287 7.50162 8.75286 7.50275 8.75286L7.5 8.25286M7.49935 8.75287C6.84002 8.7555 6.22295 8.46674 5.73019 8.16513C5.38245 7.95229 5.04342 7.69666 4.7806 7.4985C4.67671 7.42017 4.58473 7.35081 4.50883 7.29663M7.49935 8.75287C7.4982 8.75287 7.49705 8.75286 7.49589 8.75285L7.5 8.25286M7.5 8.25286L4.50883 7.29663M4.50883 7.29663C4.50898 7.29674 4.50913 7.29685 4.50928 7.29695L4.79883 6.88932L4.50838 7.29631C4.50853 7.29642 4.50868 7.29653 4.50883 7.29663ZM4.50883 7.29663C2.21308 5.6659 1.16397 4.91186 0.5 4.4213M4.50883 7.29663L0.5 4.4213M7.50843 6.8334L7.5 6.83326L7.49157 6.8334C7.42063 6.8346 7.3061 6.81196 7.14297 6.74224C6.98447 6.6745 6.80976 6.5753 6.62699 6.4565C6.38079 6.29646 6.16749 6.13489 5.96964 5.98502C5.85543 5.8985 5.74636 5.81589 5.63908 5.73971L5.63895 5.73962C2.04176 3.18716 1.52601 2.79249 0.762652 2.20833C0.70217 2.16205 0.640134 2.11457 0.574887 2.06474C0.523314 2.02428 0.5 1.97073 0.5 1.91927V1.375C0.5 0.902561 0.895373 0.5 1.40625 0.5H13.5938C14.1046 0.5 14.5 0.902561 14.5 1.375V1.91927C14.5 1.97426 14.474 2.02761 14.4283 2.06233L14.4262 2.06392C14.3753 2.10296 14.3263 2.14055 14.2786 2.17723C13.4918 2.78132 13.0242 3.14037 9.36105 5.73962L9.36092 5.73971C9.25364 5.81589 9.14457 5.8985 9.03036 5.98502C8.83251 6.13489 8.61921 6.29646 8.37301 6.4565C8.19024 6.5753 8.01553 6.6745 7.85703 6.74224C7.6939 6.81196 7.57937 6.8346 7.50843 6.8334Z" stroke="#313131"/>
</svg>
