<svg width="18" height="18" viewBox="0 0 18 18" fill="none" xmlns="http://www.w3.org/2000/svg">
<path d="M17.7869 5.29584L17.787 5.29724C17.871 6.77769 17.871 11.2223 17.787 12.7028L17.7869 12.7037C17.7156 14.127 17.3922 15.3613 16.377 16.3767L16.3768 16.3769C15.3617 17.3961 14.1279 17.7195 12.7053 17.7869L12.7039 17.787C11.2238 17.871 6.77618 17.871 5.29606 17.787L5.29508 17.7869C3.87241 17.7156 2.6421 17.3922 1.62277 16.3765C0.603799 15.3612 0.280441 14.127 0.213085 12.7042L0.213005 12.7028C0.128998 11.2223 0.128998 6.77367 0.213008 5.29322L0.213058 5.29224C0.284418 3.86869 0.603939 2.63467 1.62277 1.61948C2.64204 0.603859 3.87625 0.280462 5.29468 0.213091L5.29468 0.213098L5.29606 0.213019C6.77618 0.128994 11.2238 0.128994 12.7039 0.213022L12.7049 0.213072C14.1278 0.28443 15.3619 0.607903 16.377 1.62329L16.3772 1.62349C17.3962 2.63882 17.7196 3.87297 17.7869 5.29584ZM14.3619 16.1563L14.3625 16.1561C15.1914 15.8236 15.8281 15.1869 16.1567 14.3613C16.4027 13.7429 16.4926 12.718 16.5241 11.7058C16.5468 10.9762 16.5393 10.2359 16.5333 9.63614C16.5309 9.39902 16.5287 9.18386 16.5287 9C16.5287 8.8161 16.5309 8.60098 16.5333 8.36394C16.5393 7.76451 16.5468 7.02492 16.5241 6.29573C16.4926 5.2839 16.4027 4.2592 16.1567 3.6389L16.1565 3.63837C15.8241 2.80924 15.1876 2.17238 14.3621 1.84379L14.3617 1.84363C13.7437 1.59972 12.7193 1.50981 11.7073 1.47777C10.9723 1.4545 10.2268 1.46165 9.62476 1.46742C9.39296 1.46965 9.18244 1.47167 9.00201 1.47167C8.81816 1.47167 8.60309 1.46949 8.3661 1.46709C7.7668 1.46102 7.02737 1.45353 6.29834 1.47626C5.28674 1.5078 4.26224 1.5977 3.64207 1.84372L3.64154 1.84393C2.81258 2.17643 2.17587 2.81305 1.84735 3.63873L1.84719 3.63914C1.60335 4.25729 1.51345 5.28187 1.48142 6.29415C1.45816 7.02926 1.46531 7.77497 1.47108 8.37711C1.4733 8.60896 1.47532 8.81952 1.47532 9C1.47532 9.18389 1.47314 9.39901 1.47074 9.63605C1.46467 10.2355 1.45719 10.9751 1.47991 11.7043C1.51145 12.7161 1.60133 13.7408 1.84729 14.3611L1.8475 14.3616C2.17992 15.1908 2.81639 15.8276 3.6419 16.1562L3.64231 16.1564C4.26034 16.4003 5.28471 16.4902 6.29676 16.5222C7.0317 16.5455 7.77725 16.5383 8.37926 16.5326C8.61106 16.5304 8.82157 16.5283 9.00201 16.5283C9.18586 16.5283 9.40093 16.5305 9.63792 16.5329C10.2372 16.539 10.9766 16.5465 11.7057 16.5237C12.7173 16.4922 13.7418 16.4023 14.3619 16.1563ZM4.53806 9C4.53806 6.52831 6.53095 4.53503 9.00201 4.53503C11.4731 4.53503 13.466 6.52831 13.466 9C13.466 11.4717 11.4731 13.465 9.00201 13.465C6.53095 13.465 4.53806 11.4717 4.53806 9ZM5.85234 9C5.85234 10.7377 7.26885 12.1503 9.00201 12.1503C10.7352 12.1503 12.1517 10.7377 12.1517 9C12.1517 7.26239 10.7393 5.84967 9.00201 5.84967C7.2647 5.84967 5.85234 7.26239 5.85234 9ZM14.7309 4.19625C14.7309 4.71154 14.3165 5.12268 13.8047 5.12268C13.2896 5.12268 12.8785 4.70825 12.8785 4.19625C12.8785 3.68462 13.2932 3.26983 13.8047 3.26983C14.3161 3.26983 14.7309 3.68462 14.7309 4.19625Z" fill="#313131" stroke="white" stroke-width="0.3"/>
</svg>
