<svg width="34" height="41" viewBox="0 0 34 41" fill="none" xmlns="http://www.w3.org/2000/svg">
<path d="M17.0015 0C16.89 0 13.0189 1.87821 8.3993 4.17355L0 8.34671L0.0820821 16.8011C0.172739 26.1195 0.166481 26.0688 1.66336 28.9536C3.75657 32.9877 8.09954 36.7616 14.1047 39.7646C15.4636 40.4441 16.7568 41 16.9781 41C17.6749 41 21.6003 39.0098 24.07 37.4044C28.3118 34.6471 31.5956 31.062 32.9763 27.6802C33.8739 25.4815 33.9965 24.0715 33.9983 15.9384L34 8.31286L25.602 4.15619C20.9831 1.87026 17.113 0 17.0015 0H17.0015ZM17.0216 1.26762L24.8029 5.12498L32.5847 8.98194L32.6417 16.546C32.7057 25.0164 32.6181 25.7771 31.2692 28.4252C29.3914 32.112 24.8207 36.0398 19.2514 38.7529C18.146 39.2914 17.1171 39.729 16.965 39.725C16.5264 39.7152 12.4733 37.6098 10.8045 36.5272C7.15029 34.1566 4.13186 31.1162 2.76119 28.4252C1.4123 25.7771 1.32425 25.0164 1.38831 16.546L1.44572 8.98194L9.23344 5.12498L17.0216 1.26762ZM16.7417 3.39135C16.2958 3.34745 15.0102 3.98857 9.9271 6.61348L3.18775 10.0936L3.13034 16.565L3.07249 23.0361H3.61688H4.16084L4.21868 16.9625L4.27652 10.8885L10.688 7.59339C14.2143 5.78093 17.1309 4.20692 17.1691 4.09555C17.2073 3.98433 17.11 3.72189 16.9527 3.51311C16.9029 3.44676 16.8446 3.40091 16.7417 3.39115V3.39135ZM29.8938 10.567L29.8109 17.5941C29.7158 25.6249 29.6834 25.8102 27.9136 28.3662C26.9246 29.7946 26.8728 29.9317 27.1961 30.2799C27.3876 30.4862 27.6484 30.6213 27.7758 30.5799C28.1561 30.4569 29.8248 27.9065 30.3518 26.6428C30.8236 25.5117 30.845 25.18 30.9073 18.0167L30.9724 10.5669H30.4331L29.8938 10.567ZM17.0152 11.5337C16.1223 11.5337 15.2294 11.8264 14.4328 12.4113C13.3117 13.2347 12.8881 14.3618 12.8825 16.5374L12.8778 18.3866H13.5311H14.1843V16.5159C14.1843 14.2352 14.6288 13.3947 16.0969 12.8984C16.9047 12.6252 17.1256 12.6252 17.9334 12.8984C19.4015 13.3947 19.846 14.2352 19.846 16.5159V18.3866H20.4992H21.1525L21.1479 16.5374C21.1423 14.3618 20.7187 13.2347 19.5976 12.4113C18.801 11.8262 17.908 11.5337 17.0152 11.5337H17.0152ZM17.0152 19.0041C14.299 19.0041 11.5827 19.0943 11.3969 19.2743C11.0263 19.6343 11.0263 28.9743 11.3969 29.334C11.7685 29.6945 22.2619 29.6945 22.6334 29.334C23.0041 28.9745 23.0041 19.6341 22.6334 19.2743C22.4477 19.0938 19.7313 19.0041 17.0152 19.0041ZM17.0152 22.1908C18.0266 22.1908 18.7315 23.711 17.9951 24.3041C17.7981 24.4627 17.6684 24.9254 17.6684 25.4698C17.6684 26.0979 17.5636 26.4117 17.3239 26.5009C17.1345 26.5717 16.963 26.6214 16.9429 26.6122C16.9228 26.6023 16.7838 26.5473 16.6341 26.4887C16.4757 26.4268 16.3619 26.0029 16.3619 25.4745C16.3619 24.9257 16.2329 24.463 16.0353 24.3039C15.2989 23.7108 16.0036 22.1905 17.0152 22.1905L17.0152 22.1908Z" fill="black"/>
</svg>
