<svg width="31" height="34" viewBox="0 0 31 34" fill="none" xmlns="http://www.w3.org/2000/svg">
<path d="M14.3763 33.4869C14.6464 33.5076 15.2802 33.5031 15.9682 33.4785C16.6864 33.4528 17.3949 33.4077 17.7165 33.3608L17.7166 33.3607C20.292 32.9856 22.8061 31.9373 24.8653 30.3807L25.1668 30.7796L24.8653 30.3807C25.4684 29.9249 26.7934 28.6539 27.2679 28.0763C28.9016 26.0878 29.9744 23.707 30.3796 21.1714L30.3796 21.1714C30.5408 20.1629 30.5399 18.0708 30.3782 17.0757L30.3782 17.0756C29.6869 12.8185 27.2161 9.18596 23.4816 6.94269L23.4816 6.94265C22.8854 6.58443 22.8143 6.58445 22.7324 6.58446H22.7289C22.7214 6.58446 22.7144 6.58449 22.7078 6.58454C22.7032 6.5925 22.7026 6.59476 22.7019 6.59761C22.7017 6.59817 22.7016 6.59876 22.7014 6.59942C22.6961 6.61835 22.6858 6.66791 22.6776 6.79161C22.6609 7.04314 22.6587 7.4828 22.6594 8.34544V8.3455C22.6594 8.42519 22.6594 8.5015 22.6594 8.57465C22.6595 9.018 22.6595 9.34533 22.6703 9.60646C22.6829 9.91038 22.7092 10.0818 22.7494 10.2054C22.8253 10.4388 22.9618 10.5738 23.5235 11.1296L23.5355 11.1415L23.1839 11.4969L23.5355 11.1415C24.3981 11.9951 24.6729 12.3102 25.1863 13.0495L25.1863 13.0495C25.987 14.2027 26.5776 15.5896 26.8825 17.0222L26.8825 17.0224C27.1125 18.1048 27.132 19.9683 26.9232 21.0462C26.0303 25.6578 22.4276 29.1515 17.6629 30.0683L17.6626 30.0684C16.4751 30.2963 14.5263 30.2967 13.3402 30.0683C13.3401 30.0683 13.3401 30.0683 13.3401 30.0683L13.4347 29.5774C8.91038 28.7066 5.50657 25.4407 4.59807 21.099L14.3763 33.4869ZM14.3763 33.4869L14.3361 33.4829C11.1912 33.1661 8.79328 32.2789 6.35886 30.5389C5.56606 29.9723 4.11992 28.5803 3.50802 27.794L3.11343 28.1011L3.50802 27.794C1.97465 25.8237 1.00995 23.6101 0.620182 21.1708L0.620171 21.1707C0.459674 20.1672 0.460053 18.0729 0.620652 17.0717L0.620659 17.0717C1.30661 12.7932 3.79754 9.15991 7.61295 6.88838L14.3763 33.4869ZM22.7289 6.08446C22.4693 6.08446 22.4164 6.11075 22.2957 6.30042C22.1668 6.50225 22.158 6.63815 22.1594 8.34584L22.7078 6.55489C22.7155 6.54997 22.7224 6.54499 22.7284 6.54021L22.7289 6.08446ZM22.7289 6.08446V6.53984L27.6543 28.3937C29.3442 26.3368 30.4541 23.8737 30.8733 21.2503C31.0429 20.1897 31.0421 18.0439 30.8718 16.9955C30.1566 12.5916 27.5983 8.83232 23.7391 6.51407C23.1512 6.16083 22.9722 6.08471 22.7289 6.08446ZM7.46101 11.1481L7.46124 11.1478C8.03467 10.5858 8.17299 10.45 8.2497 10.2142C8.2902 10.0897 8.31673 9.91695 8.32943 9.61138C8.34038 9.34815 8.34041 9.01811 8.34046 8.57118C8.34047 8.4989 8.34048 8.42356 8.34053 8.34494L7.46101 11.1481ZM7.46101 11.1481C6.60878 11.9845 6.33506 12.298 5.81362 13.049L7.46101 11.1481ZM8.27717 6.5835C8.20021 6.5835 8.1246 6.58392 7.61304 6.88832L8.27717 6.5835ZM8.27717 6.5835C8.28228 6.5835 8.28715 6.58352 8.29179 6.58354M8.27717 6.5835L8.29179 6.58354M8.29179 6.58354C8.29624 6.59127 8.29683 6.5936 8.29758 6.59659C8.29773 6.59717 8.29788 6.59777 8.29806 6.59844C8.3034 6.61761 8.31372 6.66738 8.32197 6.79111C8.33875 7.04267 8.34109 7.48242 8.34053 8.34492L8.29179 6.58354ZM16.2913 14.1511C15.9108 14.3307 15.4003 14.3893 15.111 14.324L15.0954 14.3202C14.9898 14.294 14.8031 14.2145 14.6068 14.1036C14.402 13.9879 14.2707 13.8853 14.2362 13.846L14.2362 13.8459C14.1743 13.7754 14.0331 13.5685 13.9398 13.3991L13.8149 13.1723V7.41401V1.65572L13.9398 1.42878L13.94 1.42845C14.0678 1.19601 14.1623 1.06516 14.2612 0.9672C14.3589 0.870511 14.4836 0.783365 14.7027 0.670041C14.9021 0.566931 14.9725 0.539062 15.0415 0.523884C15.1196 0.506692 15.2229 0.5 15.4995 0.5C15.775 0.5 15.8787 0.507075 15.9568 0.524385C16.0266 0.539869 16.0974 0.568082 16.297 0.670397C16.5156 0.783463 16.6402 0.870514 16.7377 0.967109C16.8367 1.0651 16.9311 1.19602 17.0591 1.42855L17.0592 1.42878L17.1842 1.65572V7.38076V13.1183L17.0557 13.3799C16.9398 13.6159 16.8441 13.7546 16.7422 13.8569C16.6415 13.9579 16.5108 14.0474 16.2913 14.1511ZM8.28258 6.5685L8.29848 6.55837L8.29779 6.55796C8.29525 6.55643 8.29274 6.55486 8.29027 6.55326C8.28557 6.55021 8.28121 6.54716 8.27717 6.54417C8.27465 6.5423 8.27227 6.54045 8.27001 6.53864C8.25827 6.52921 8.25136 6.52177 8.24924 6.5194C8.24881 6.5189 8.24858 6.51864 8.24858 6.51864C8.24858 6.51864 8.25081 6.52131 8.25554 6.52791C8.26083 6.53529 8.2678 6.54554 8.27717 6.56006C8.27889 6.56272 8.28069 6.56553 8.28258 6.5685Z" fill="white" stroke="white"/>
</svg>
