<svg width="60" height="60" viewBox="0 0 60 60" fill="none" xmlns="http://www.w3.org/2000/svg">
<circle cx="30" cy="30" r="30" fill="#F7AC30"/>
<path d="M43.4695 27.9344C43.6828 27.7648 44 27.9234 44 28.1914V39.375C44 40.8242 42.8242 42 41.375 42H18.625C17.1758 42 16 40.8242 16 39.375V28.1969C16 27.9234 16.3117 27.7703 16.5305 27.9398C17.7555 28.8914 19.3797 30.1 24.9578 34.1523C26.1117 34.9945 28.0586 36.7664 30 36.7555C31.9523 36.7719 33.9375 34.9617 35.0477 34.1523C40.6258 30.1 42.2445 28.8859 43.4695 27.9344ZM30 35C31.2688 35.0219 33.0953 33.4031 34.0141 32.7359C41.2711 27.4695 41.8234 27.0102 43.4969 25.6977C43.8141 25.4516 44 25.0687 44 24.6641V23.625C44 22.1758 42.8242 21 41.375 21H18.625C17.1758 21 16 22.1758 16 23.625V24.6641C16 25.0687 16.1859 25.4461 16.5031 25.6977C18.1766 27.0047 18.7289 27.4695 25.9859 32.7359C26.9047 33.4031 28.7312 35.0219 30 35Z" fill="white"/>
</svg>
