<svg width="21" height="38" viewBox="0 0 21 38" fill="none" xmlns="http://www.w3.org/2000/svg">
<path d="M3.17132 0L2.20825 0.460007C1.1732 0.954319 0.600648 1.56693 0.241899 2.56376C-0.0806328 3.45995 -0.0806328 34.5346 0.241899 35.4308C0.600648 36.4277 1.1732 37.0403 2.20825 37.5346L3.17132 38L10.4951 37.9932C17.1629 37.9862 17.8882 37.9587 18.5905 37.6528C19.5608 37.2303 20.528 36.1884 20.7907 35.2817C21.0698 34.3187 21.0698 3.68129 20.7907 2.71834C20.528 1.81164 19.5608 0.769383 18.5905 0.346946C17.8882 0.0412035 17.1629 0.0142202 10.4951 0.00724841L3.17132 0ZM16.4201 1.10663C17.6091 1.10663 18.4717 1.45573 19.1273 2.20245L19.6476 2.79503V18.9971V35.1996L19.1273 35.7921C18.8412 36.118 18.3241 36.4978 17.9786 36.6362C17.4869 36.8328 15.8522 36.8836 10.4635 36.8836C4.1145 36.8766 3.51407 36.8523 2.77173 36.5292C1.27215 35.8768 1.36362 37.0177 1.36435 18.9604C1.36512 3.43245 1.37794 2.8383 1.73273 2.28061C2.20236 1.54262 3.46177 1.06321 4.72644 1.14121C5.59715 1.19488 5.67646 1.24156 5.87933 1.82169C6.31297 3.06152 6.57272 3.13545 10.5007 3.13545C13.7636 3.13545 14.0504 3.10828 14.5214 2.75324C14.8003 2.54299 15.0285 2.18594 15.0285 1.96002C15.0285 1.33397 15.399 1.10663 16.4201 1.10663ZM10.0834 11.4809C8.36461 11.4977 6.66323 11.6754 4.93281 12.0151L3.81412 12.2349L3.87389 16.8527C3.92629 20.8986 3.97714 21.5467 4.28362 22.085C4.8331 23.05 5.87582 23.8783 8.24979 25.2356H8.25017L10.4492 26.4932L12.6764 25.21C15.3232 23.6852 16.0498 23.0702 16.658 21.8393C17.0971 20.951 17.114 20.7577 17.1155 16.5666L17.1178 12.2165L15.3375 11.9143C13.5386 11.609 11.8023 11.4642 10.0835 11.4809H10.0834ZM10.4804 12.4719C12.9481 12.4789 15.4371 12.6751 15.9912 13.0032C16.2229 13.1405 16.194 20.2225 15.9585 21.0353C15.8514 21.4045 15.4406 22.0393 15.0454 22.446C14.6502 22.8526 13.4533 23.6814 12.3855 24.2875L10.4439 25.3894L8.53623 24.2882C4.85188 22.1616 4.81007 22.0779 4.80425 16.8325L4.80011 12.9323L6.48416 12.688C7.52688 12.5367 8.99977 12.4692 10.4804 12.4719H10.4804ZM10.4447 13.4802C10.0561 13.4879 9.65767 13.5906 9.28691 13.8073C8.55773 14.2333 8.26665 14.7029 8.184 15.5854C8.1457 15.9945 7.96982 16.3397 7.71224 16.5126C7.33979 16.7626 7.30213 16.9592 7.30213 18.6344C7.30213 19.6497 7.39178 20.6409 7.50136 20.8372C7.68367 21.164 7.9277 21.1938 10.3744 21.1938C13.7449 21.1938 13.6534 21.2614 13.6534 18.7741C13.6534 17.0483 13.6235 16.9076 13.1723 16.5069C12.854 16.2242 12.6911 15.8814 12.6911 15.4946C12.6911 14.2932 11.6106 13.4575 10.4447 13.4802ZM10.5124 14.1852C11.1704 14.1852 11.9212 14.9671 11.9212 15.6524V16.214H10.4778H9.0343V15.5818C9.0343 14.8543 9.7424 14.1852 10.5124 14.1852ZM10.4778 17.6895C10.6106 17.6895 10.8328 17.8209 10.9717 17.9813C11.1698 18.21 11.175 18.3487 10.9954 18.6243C10.8694 18.8176 10.7665 19.1427 10.7665 19.3469C10.7665 19.554 10.6388 19.7183 10.4778 19.7183C10.3167 19.7183 10.1891 19.554 10.1891 19.3469C10.1891 19.1427 10.0857 18.8176 9.95978 18.6243C9.78019 18.3487 9.78538 18.21 9.98346 17.9813C10.1224 17.8209 10.3449 17.6895 10.4778 17.6895ZM13.585 33.0144C13.3471 33.0144 12.9461 33.6247 13.0362 33.8498C13.0959 33.999 13.343 34.121 13.585 34.121C14.1372 34.121 14.3361 33.6686 13.9477 33.2965C13.7859 33.1414 13.6228 33.0144 13.585 33.0144ZM9.44704 33.0277C9.36246 33.0277 9.27789 33.0976 9.13203 33.2373C8.95878 33.4034 8.86947 33.6702 8.93356 33.8303C8.99763 33.9902 9.22869 34.121 9.44704 34.121C9.97493 34.121 10.1555 33.6145 9.76205 33.2373C9.6162 33.0976 9.53162 33.0277 9.44704 33.0277ZM7.4852 33.1113C7.09916 33.1022 6.68479 33.5003 6.81647 33.8292C6.99757 34.2815 7.79505 34.1349 7.86937 33.6357C7.90144 33.4204 7.8013 33.1976 7.64721 33.1411C7.5949 33.1216 7.54035 33.1127 7.4852 33.1113ZM11.413 33.1113C11.3594 33.1113 11.3067 33.1201 11.2566 33.139C10.9778 33.2415 10.8887 33.7814 11.1149 33.9981C11.3591 34.2322 11.9615 34.1197 12.0825 33.8177C12.2081 33.5038 11.7883 33.1069 11.413 33.1113Z" fill="#313131"/>
</svg>
