<svg width="245" height="26" viewBox="0 0 245 26" fill="none" xmlns="http://www.w3.org/2000/svg">
<rect x="12" y="10" width="2" height="7" rx="1" fill="white"/>
<rect x="23" y="10" width="2" height="7" rx="1" fill="white"/>
<rect x="34" y="10" width="2" height="7" rx="1" fill="white"/>
<rect x="45" y="10" width="2" height="7" rx="1" fill="white"/>
<rect x="56" y="7" width="2" height="13" rx="1" fill="white"/>
<rect x="67" y="10" width="2" height="7" rx="1" fill="white"/>
<rect x="78" y="10" width="2" height="7" rx="1" fill="white"/>
<rect x="89" y="10" width="2" height="7" rx="1" fill="white"/>
<rect x="100" y="10" width="2" height="7" rx="1" fill="white"/>
<rect x="111" y="7" width="2" height="13" rx="1" fill="white"/>
<rect x="122" y="10" width="2" height="7" rx="1" fill="white"/>
<rect x="133" y="10" width="2" height="7" rx="1" fill="white"/>
<rect x="144" y="10" width="2" height="7" rx="1" fill="white"/>
<rect x="155" y="10" width="2" height="7" rx="1" fill="white"/>
<rect x="166" y="7" width="2" height="13" rx="1" fill="white"/>
<rect x="177" y="10" width="2" height="7" rx="1" fill="white"/>
<rect x="188" y="10" width="2" height="7" rx="1" fill="white"/>
<rect x="199" y="10" width="2" height="7" rx="1" fill="white"/>
<rect x="210" y="10" width="2" height="7" rx="1" fill="white"/>
<rect x="221" y="7" width="2" height="13" rx="1" fill="white"/>
<rect x="232" y="10" width="2" height="7" rx="1" fill="white"/>
<rect x="243" y="10" width="2" height="7" rx="1" fill="white"/>
<rect width="3" height="26" rx="1.5" fill="#3CB043"/>
</svg>
