<svg width="34" height="33" viewBox="0 0 34 33" fill="none" xmlns="http://www.w3.org/2000/svg">
<mask id="path-1-outside-1_342:451" maskUnits="userSpaceOnUse" x="0" y="0" width="34" height="33" fill="black">
<rect fill="white" width="34" height="33"/>
<path d="M6.23729 28.5562L1.00491 25.1126L1.00257 24.5471L1.00023 23.9816L1.40947 24.2676C1.63454 24.4251 4.02421 26.0021 6.7198 27.7725L11.6209 30.9913L12.747 30.3918C13.3664 30.0622 15.1121 29.1299 16.6264 28.3203L19.3796 26.8482L19.4249 26.1655C19.4497 25.7899 19.4421 25.4829 19.4081 25.4829C19.374 25.4829 17.5951 26.4215 15.455 27.5686L11.5639 29.6543L6.28196 26.1641L1.00001 22.6741V22.1443C1.00001 21.7599 1.05104 21.645 1.18603 21.7259C1.28836 21.7871 3.64902 23.3401 6.43196 25.1769C9.21491 27.0137 11.5779 28.5076 11.683 28.4966C11.7881 28.484 13.5786 27.553 15.6619 26.4243L19.4496 24.3722L19.4519 23.7427C19.453 23.3964 19.4115 23.1132 19.3595 23.1132C19.2726 23.1132 14.1479 25.841 12.3627 26.8374L11.5964 27.2651L6.93079 24.1776C4.36471 22.4795 1.98058 20.9113 1.63271 20.6927C1.08583 20.3493 1.00022 20.2255 1.00022 19.7788C1.00022 19.4949 1.03009 19.2623 1.06628 19.2623C1.10247 19.2623 3.4085 20.7623 6.19048 22.5956C8.97245 24.4289 11.3535 25.969 11.4817 26.018C11.747 26.1193 19.2843 22.1547 19.4008 21.8525C19.4408 21.7482 19.4526 21.4264 19.4265 21.1369L19.3794 20.6105L16.775 22.0237C15.3426 22.801 13.6294 23.7306 12.9678 24.0897C12.3063 24.4485 11.6917 24.7425 11.6021 24.7425C11.4717 24.7425 7.26245 22.0122 1.70721 18.3243C1.09839 17.9202 1.00055 17.7864 1.00031 17.358C1.0001 17.0042 1.05732 16.8827 1.19862 16.9367C1.30785 16.9785 3.63501 18.493 6.37013 20.3025C9.10524 22.112 11.4226 23.6235 11.5198 23.6614C11.6171 23.6991 12.6551 23.2151 13.8265 22.5853C20.107 19.2093 19.4538 19.6398 19.4538 18.8768V18.2205L18.7469 18.5777C18.3581 18.7741 16.6014 19.7097 14.8432 20.6565C13.0849 21.6033 11.5765 22.3513 11.4911 22.3187C11.4057 22.2852 10.132 21.4632 8.66069 20.49C7.18935 19.5169 4.89416 18.0068 3.56028 17.1342C2.22639 16.2617 1.09966 15.456 1.05643 15.3439C1.01318 15.2317 0.999592 14.9721 1.02614 14.7668L1.07445 14.3937L2.04179 15.0315C2.57382 15.3824 4.9446 16.9504 7.31018 18.5162C11.0602 20.9983 11.6513 21.3429 11.9236 21.2058C12.0954 21.1196 12.8763 20.6967 13.6588 20.2666C14.4413 19.8364 16.0653 18.9552 17.2677 18.3083L19.4538 17.1322V16.494C19.4538 16.1431 19.4176 15.8558 19.373 15.8558C19.3286 15.8558 18.8765 16.0794 18.3684 16.3525C17.8604 16.6255 16.1723 17.5335 14.6171 18.3698C13.0619 19.2061 11.7467 19.9151 11.6945 19.9452C11.6422 19.9745 10.7046 19.4124 9.61097 18.6942C8.51732 17.976 6.13245 16.4099 4.31126 15.214C1.04435 13.0687 1 13.0327 1 12.5222C1 12.2379 1.03114 12.0048 1.06964 12.0048C1.10793 12.0048 3.13375 13.3258 5.57147 14.9402C8.00917 16.5547 10.3726 18.1099 10.8234 18.3962L11.6432 18.9166L15.5464 16.8308L19.4495 14.7449L19.4518 14.1895C19.4529 13.8842 19.4008 13.634 19.3358 13.634C19.2709 13.634 17.5282 14.5338 15.4631 15.6336C13.398 16.7333 11.645 17.6331 11.5674 17.6331C11.4898 17.6331 9.5325 16.3817 7.21778 14.8522C4.90306 13.3227 2.55993 11.7789 2.01083 11.4216C1.46173 11.0643 1.03687 10.7324 1.06669 10.6844C1.09656 10.6362 2.80145 9.83246 4.85545 8.89786C6.90944 7.96329 8.58997 7.1624 8.58997 7.11814C8.58997 7.07375 8.40938 6.92844 8.18869 6.79527L7.7874 6.5528L8.3003 6.3363C9.34097 5.89685 12.0052 4.75006 14.3637 3.72634C15.6976 3.14739 16.8872 2.67368 17.0073 2.67368C17.1274 2.67368 17.3511 2.75157 17.5045 2.84705C17.7313 2.98818 17.9325 2.9505 18.5814 2.64605C19.0204 2.44001 19.9998 1.98548 20.7579 1.63577L22.1363 1L23.8087 1.79034C27.5743 3.56993 32.9966 6.22261 32.9966 6.2853C32.9966 6.32298 31.8916 6.93682 30.541 7.65119L28.0855 8.94999V9.52814V10.1063L29.2388 9.4714C31.758 8.08478 32.7564 7.56157 32.883 7.56157C32.9558 7.56157 32.9944 7.77807 32.9688 8.04294C32.9244 8.50132 32.8086 8.58512 30.541 9.80009L28.1599 11.0759L28.1145 11.7626C28.0897 12.1403 28.0947 12.4493 28.1259 12.4493C28.157 12.4493 29.2303 11.8827 30.5109 11.1903C31.7916 10.4979 32.8748 9.93137 32.918 9.93137C32.9614 9.93137 32.9965 10.1479 32.9963 10.4127C32.9959 10.883 32.9393 10.9245 30.5408 12.2126L28.0856 13.5311V14.1751C28.0856 14.5294 28.1256 14.8191 28.1749 14.8191C28.224 14.8191 29.1114 14.3617 30.1468 13.8026C31.1822 13.2436 32.247 12.6753 32.513 12.5399L32.9967 12.2936V12.808C32.9967 13.3215 32.9923 13.3246 30.5457 14.6262L28.0947 15.93L28.0903 16.6274L28.0858 17.3248L29.2392 16.7068C29.8735 16.3667 30.9618 15.7756 31.6575 15.3928L32.9225 14.6969L32.9715 15.1588C33.0315 15.7254 33.023 15.732 30.5414 17.0408C27.9853 18.389 28.0558 18.3298 28.113 19.079L28.1603 19.6994L30.3854 18.5021C33.1956 16.9901 32.997 17.0543 32.997 17.6567C32.997 18.1149 32.9263 18.1925 32.139 18.5982C31.6672 18.8415 30.5622 19.4342 29.6835 19.9156L28.0859 20.7909V21.4338C28.0859 21.7872 28.114 22.0767 28.1486 22.0767C28.1831 22.0767 29.2657 21.5101 30.5544 20.8177C31.8432 20.1253 32.92 19.5587 32.9473 19.5587C32.9747 19.5587 32.9969 19.7865 32.9969 20.0652C32.9969 20.5682 32.9806 20.5805 30.5482 21.8796C28.3118 23.0741 28.0956 23.2248 28.0554 23.618C28.0143 24.0196 27.7352 24.1953 23.8776 26.2469C21.6039 27.4561 19.6832 28.4455 19.6093 28.4455C19.5354 28.4455 19.4536 28.3132 19.4274 28.1515C19.3853 27.8915 19.0805 28.0205 16.7755 29.2727C13.0092 31.3188 11.7126 32 11.5838 32C11.5213 32 9.11554 30.4504 6.23773 28.5564L6.23729 28.5562ZM23.5191 25.3121C25.0893 24.485 26.5253 23.7165 26.7103 23.6044L27.0466 23.4005L27.0079 16.4944L26.9691 9.58836L25.3321 8.62788C23.3056 7.43887 19.269 5.0633 17.942 4.27869L16.9512 3.69284L13.6262 5.12741C11.7975 5.91645 10.2515 6.60632 10.1908 6.66055C10.13 6.71458 12.0722 7.95245 14.5066 9.41093C16.941 10.8695 19.2844 12.2851 19.7141 12.5567L20.4954 13.0505V19.9332C20.4954 23.7186 20.5333 26.8158 20.5797 26.8158C20.6261 26.8158 21.9487 26.1391 23.5189 25.312L23.5191 25.3121ZM19.5509 10.355C18.6896 10.2269 18.5804 10.1444 18.8788 9.84745C19.0557 9.67157 19.193 9.65607 19.5122 9.77668C19.9926 9.95843 20.7904 9.97518 21.0534 9.81019C21.1759 9.73272 20.8463 9.48481 20.0861 9.08275L18.933 8.47273L18.1178 8.68421C16.6206 9.07283 15.0086 8.44593 14.9939 7.4692C14.9917 7.29583 15.0905 7.07054 15.2143 6.96819C15.3855 6.82665 15.3989 6.73368 15.2705 6.57957C15.1777 6.46818 15.1601 6.37312 15.2313 6.36852C15.3027 6.3643 15.629 6.32119 15.9565 6.27429C16.8245 6.14992 18.3832 6.15117 18.5091 6.2764C18.5687 6.33586 18.5191 6.48243 18.3987 6.6022C18.2415 6.75882 18.0558 6.78645 17.7379 6.70103C17.4947 6.6357 17.0949 6.62314 16.8493 6.67171C16.4192 6.75923 16.4436 6.78352 17.5142 7.32788C18.51 7.83437 18.6735 7.87588 19.0874 7.72696C20.1086 7.35929 21.7527 7.61725 22.4618 8.25586C22.7959 8.55696 22.8056 9.23951 22.4803 9.56313C22.2303 9.81188 22.3041 9.94211 22.8021 10.1301C22.8839 10.1594 22.9028 10.2377 22.8442 10.3005C22.7854 10.3633 22.5383 10.334 22.2951 10.2327C22.0518 10.1326 21.7863 10.0911 21.705 10.1414C21.3785 10.3424 20.231 10.4559 19.5508 10.3545L19.5509 10.355ZM21.8055 9.01608C21.8524 8.62578 21.5118 8.30551 20.8175 8.087C20.4401 7.96807 19.4524 8.10375 19.4561 8.27168C19.4595 8.41573 21.4275 9.46889 21.6117 9.42525C21.6936 9.40431 21.7808 9.22173 21.8055 9.01612L21.8055 9.01608ZM17.9409 8.17209C18.0809 8.08373 17.8341 7.88942 17.1042 7.51366C16.5348 7.22053 16.0269 7.02228 15.9755 7.07342C15.7327 7.31504 15.9058 7.86091 16.2914 8.06903C16.7422 8.31234 17.6305 8.36803 17.9409 8.17205V8.17209ZM15.0155 14.7309C16.8018 13.7864 18.2611 12.9699 18.2585 12.9165C18.2518 12.7716 9.98033 7.85676 9.75287 7.86233C9.47057 7.87075 3.15797 10.7516 3.15797 10.8736C3.15797 10.9975 11.4343 16.4402 11.6299 16.4448C11.7057 16.4469 13.2293 15.6753 15.0155 14.7309ZM28.9111 7.36919C29.8664 6.8562 30.6451 6.38052 30.6415 6.3121C30.6382 6.24383 28.7203 5.26727 26.38 4.1423L22.1249 2.09692L20.472 2.86841L18.819 3.63986L21.4748 5.19328C22.9355 6.04765 24.7023 7.09029 25.4011 7.51027C26.0999 7.93025 26.7847 8.28017 26.923 8.28788C27.0612 8.2963 27.9559 7.8821 28.9111 7.36919Z"/>
</mask>
<path d="M6.23729 28.5562L1.00491 25.1126L1.00257 24.5471L1.00023 23.9816L1.40947 24.2676C1.63454 24.4251 4.02421 26.0021 6.7198 27.7725L11.6209 30.9913L12.747 30.3918C13.3664 30.0622 15.1121 29.1299 16.6264 28.3203L19.3796 26.8482L19.4249 26.1655C19.4497 25.7899 19.4421 25.4829 19.4081 25.4829C19.374 25.4829 17.5951 26.4215 15.455 27.5686L11.5639 29.6543L6.28196 26.1641L1.00001 22.6741V22.1443C1.00001 21.7599 1.05104 21.645 1.18603 21.7259C1.28836 21.7871 3.64902 23.3401 6.43196 25.1769C9.21491 27.0137 11.5779 28.5076 11.683 28.4966C11.7881 28.484 13.5786 27.553 15.6619 26.4243L19.4496 24.3722L19.4519 23.7427C19.453 23.3964 19.4115 23.1132 19.3595 23.1132C19.2726 23.1132 14.1479 25.841 12.3627 26.8374L11.5964 27.2651L6.93079 24.1776C4.36471 22.4795 1.98058 20.9113 1.63271 20.6927C1.08583 20.3493 1.00022 20.2255 1.00022 19.7788C1.00022 19.4949 1.03009 19.2623 1.06628 19.2623C1.10247 19.2623 3.4085 20.7623 6.19048 22.5956C8.97245 24.4289 11.3535 25.969 11.4817 26.018C11.747 26.1193 19.2843 22.1547 19.4008 21.8525C19.4408 21.7482 19.4526 21.4264 19.4265 21.1369L19.3794 20.6105L16.775 22.0237C15.3426 22.801 13.6294 23.7306 12.9678 24.0897C12.3063 24.4485 11.6917 24.7425 11.6021 24.7425C11.4717 24.7425 7.26245 22.0122 1.70721 18.3243C1.09839 17.9202 1.00055 17.7864 1.00031 17.358C1.0001 17.0042 1.05732 16.8827 1.19862 16.9367C1.30785 16.9785 3.63501 18.493 6.37013 20.3025C9.10524 22.112 11.4226 23.6235 11.5198 23.6614C11.6171 23.6991 12.6551 23.2151 13.8265 22.5853C20.107 19.2093 19.4538 19.6398 19.4538 18.8768V18.2205L18.7469 18.5777C18.3581 18.7741 16.6014 19.7097 14.8432 20.6565C13.0849 21.6033 11.5765 22.3513 11.4911 22.3187C11.4057 22.2852 10.132 21.4632 8.66069 20.49C7.18935 19.5169 4.89416 18.0068 3.56028 17.1342C2.22639 16.2617 1.09966 15.456 1.05643 15.3439C1.01318 15.2317 0.999592 14.9721 1.02614 14.7668L1.07445 14.3937L2.04179 15.0315C2.57382 15.3824 4.9446 16.9504 7.31018 18.5162C11.0602 20.9983 11.6513 21.3429 11.9236 21.2058C12.0954 21.1196 12.8763 20.6967 13.6588 20.2666C14.4413 19.8364 16.0653 18.9552 17.2677 18.3083L19.4538 17.1322V16.494C19.4538 16.1431 19.4176 15.8558 19.373 15.8558C19.3286 15.8558 18.8765 16.0794 18.3684 16.3525C17.8604 16.6255 16.1723 17.5335 14.6171 18.3698C13.0619 19.2061 11.7467 19.9151 11.6945 19.9452C11.6422 19.9745 10.7046 19.4124 9.61097 18.6942C8.51732 17.976 6.13245 16.4099 4.31126 15.214C1.04435 13.0687 1 13.0327 1 12.5222C1 12.2379 1.03114 12.0048 1.06964 12.0048C1.10793 12.0048 3.13375 13.3258 5.57147 14.9402C8.00917 16.5547 10.3726 18.1099 10.8234 18.3962L11.6432 18.9166L15.5464 16.8308L19.4495 14.7449L19.4518 14.1895C19.4529 13.8842 19.4008 13.634 19.3358 13.634C19.2709 13.634 17.5282 14.5338 15.4631 15.6336C13.398 16.7333 11.645 17.6331 11.5674 17.6331C11.4898 17.6331 9.5325 16.3817 7.21778 14.8522C4.90306 13.3227 2.55993 11.7789 2.01083 11.4216C1.46173 11.0643 1.03687 10.7324 1.06669 10.6844C1.09656 10.6362 2.80145 9.83246 4.85545 8.89786C6.90944 7.96329 8.58997 7.1624 8.58997 7.11814C8.58997 7.07375 8.40938 6.92844 8.18869 6.79527L7.7874 6.5528L8.3003 6.3363C9.34097 5.89685 12.0052 4.75006 14.3637 3.72634C15.6976 3.14739 16.8872 2.67368 17.0073 2.67368C17.1274 2.67368 17.3511 2.75157 17.5045 2.84705C17.7313 2.98818 17.9325 2.9505 18.5814 2.64605C19.0204 2.44001 19.9998 1.98548 20.7579 1.63577L22.1363 1L23.8087 1.79034C27.5743 3.56993 32.9966 6.22261 32.9966 6.2853C32.9966 6.32298 31.8916 6.93682 30.541 7.65119L28.0855 8.94999V9.52814V10.1063L29.2388 9.4714C31.758 8.08478 32.7564 7.56157 32.883 7.56157C32.9558 7.56157 32.9944 7.77807 32.9688 8.04294C32.9244 8.50132 32.8086 8.58512 30.541 9.80009L28.1599 11.0759L28.1145 11.7626C28.0897 12.1403 28.0947 12.4493 28.1259 12.4493C28.157 12.4493 29.2303 11.8827 30.5109 11.1903C31.7916 10.4979 32.8748 9.93137 32.918 9.93137C32.9614 9.93137 32.9965 10.1479 32.9963 10.4127C32.9959 10.883 32.9393 10.9245 30.5408 12.2126L28.0856 13.5311V14.1751C28.0856 14.5294 28.1256 14.8191 28.1749 14.8191C28.224 14.8191 29.1114 14.3617 30.1468 13.8026C31.1822 13.2436 32.247 12.6753 32.513 12.5399L32.9967 12.2936V12.808C32.9967 13.3215 32.9923 13.3246 30.5457 14.6262L28.0947 15.93L28.0903 16.6274L28.0858 17.3248L29.2392 16.7068C29.8735 16.3667 30.9618 15.7756 31.6575 15.3928L32.9225 14.6969L32.9715 15.1588C33.0315 15.7254 33.023 15.732 30.5414 17.0408C27.9853 18.389 28.0558 18.3298 28.113 19.079L28.1603 19.6994L30.3854 18.5021C33.1956 16.9901 32.997 17.0543 32.997 17.6567C32.997 18.1149 32.9263 18.1925 32.139 18.5982C31.6672 18.8415 30.5622 19.4342 29.6835 19.9156L28.0859 20.7909V21.4338C28.0859 21.7872 28.114 22.0767 28.1486 22.0767C28.1831 22.0767 29.2657 21.5101 30.5544 20.8177C31.8432 20.1253 32.92 19.5587 32.9473 19.5587C32.9747 19.5587 32.9969 19.7865 32.9969 20.0652C32.9969 20.5682 32.9806 20.5805 30.5482 21.8796C28.3118 23.0741 28.0956 23.2248 28.0554 23.618C28.0143 24.0196 27.7352 24.1953 23.8776 26.2469C21.6039 27.4561 19.6832 28.4455 19.6093 28.4455C19.5354 28.4455 19.4536 28.3132 19.4274 28.1515C19.3853 27.8915 19.0805 28.0205 16.7755 29.2727C13.0092 31.3188 11.7126 32 11.5838 32C11.5213 32 9.11554 30.4504 6.23773 28.5564L6.23729 28.5562ZM23.5191 25.3121C25.0893 24.485 26.5253 23.7165 26.7103 23.6044L27.0466 23.4005L27.0079 16.4944L26.9691 9.58836L25.3321 8.62788C23.3056 7.43887 19.269 5.0633 17.942 4.27869L16.9512 3.69284L13.6262 5.12741C11.7975 5.91645 10.2515 6.60632 10.1908 6.66055C10.13 6.71458 12.0722 7.95245 14.5066 9.41093C16.941 10.8695 19.2844 12.2851 19.7141 12.5567L20.4954 13.0505V19.9332C20.4954 23.7186 20.5333 26.8158 20.5797 26.8158C20.6261 26.8158 21.9487 26.1391 23.5189 25.312L23.5191 25.3121ZM19.5509 10.355C18.6896 10.2269 18.5804 10.1444 18.8788 9.84745C19.0557 9.67157 19.193 9.65607 19.5122 9.77668C19.9926 9.95843 20.7904 9.97518 21.0534 9.81019C21.1759 9.73272 20.8463 9.48481 20.0861 9.08275L18.933 8.47273L18.1178 8.68421C16.6206 9.07283 15.0086 8.44593 14.9939 7.4692C14.9917 7.29583 15.0905 7.07054 15.2143 6.96819C15.3855 6.82665 15.3989 6.73368 15.2705 6.57957C15.1777 6.46818 15.1601 6.37312 15.2313 6.36852C15.3027 6.3643 15.629 6.32119 15.9565 6.27429C16.8245 6.14992 18.3832 6.15117 18.5091 6.2764C18.5687 6.33586 18.5191 6.48243 18.3987 6.6022C18.2415 6.75882 18.0558 6.78645 17.7379 6.70103C17.4947 6.6357 17.0949 6.62314 16.8493 6.67171C16.4192 6.75923 16.4436 6.78352 17.5142 7.32788C18.51 7.83437 18.6735 7.87588 19.0874 7.72696C20.1086 7.35929 21.7527 7.61725 22.4618 8.25586C22.7959 8.55696 22.8056 9.23951 22.4803 9.56313C22.2303 9.81188 22.3041 9.94211 22.8021 10.1301C22.8839 10.1594 22.9028 10.2377 22.8442 10.3005C22.7854 10.3633 22.5383 10.334 22.2951 10.2327C22.0518 10.1326 21.7863 10.0911 21.705 10.1414C21.3785 10.3424 20.231 10.4559 19.5508 10.3545L19.5509 10.355ZM21.8055 9.01608C21.8524 8.62578 21.5118 8.30551 20.8175 8.087C20.4401 7.96807 19.4524 8.10375 19.4561 8.27168C19.4595 8.41573 21.4275 9.46889 21.6117 9.42525C21.6936 9.40431 21.7808 9.22173 21.8055 9.01612L21.8055 9.01608ZM17.9409 8.17209C18.0809 8.08373 17.8341 7.88942 17.1042 7.51366C16.5348 7.22053 16.0269 7.02228 15.9755 7.07342C15.7327 7.31504 15.9058 7.86091 16.2914 8.06903C16.7422 8.31234 17.6305 8.36803 17.9409 8.17205V8.17209ZM15.0155 14.7309C16.8018 13.7864 18.2611 12.9699 18.2585 12.9165C18.2518 12.7716 9.98033 7.85676 9.75287 7.86233C9.47057 7.87075 3.15797 10.7516 3.15797 10.8736C3.15797 10.9975 11.4343 16.4402 11.6299 16.4448C11.7057 16.4469 13.2293 15.6753 15.0155 14.7309ZM28.9111 7.36919C29.8664 6.8562 30.6451 6.38052 30.6415 6.3121C30.6382 6.24383 28.7203 5.26727 26.38 4.1423L22.1249 2.09692L20.472 2.86841L18.819 3.63986L21.4748 5.19328C22.9355 6.04765 24.7023 7.09029 25.4011 7.51027C26.0999 7.93025 26.7847 8.28017 26.923 8.28788C27.0612 8.2963 27.9559 7.8821 28.9111 7.36919Z" fill="#F9F9F9"/>
<path d="M6.23729 28.5562L1.00491 25.1126L1.00257 24.5471L1.00023 23.9816L1.40947 24.2676C1.63454 24.4251 4.02421 26.0021 6.7198 27.7725L11.6209 30.9913L12.747 30.3918C13.3664 30.0622 15.1121 29.1299 16.6264 28.3203L19.3796 26.8482L19.4249 26.1655C19.4497 25.7899 19.4421 25.4829 19.4081 25.4829C19.374 25.4829 17.5951 26.4215 15.455 27.5686L11.5639 29.6543L6.28196 26.1641L1.00001 22.6741V22.1443C1.00001 21.7599 1.05104 21.645 1.18603 21.7259C1.28836 21.7871 3.64902 23.3401 6.43196 25.1769C9.21491 27.0137 11.5779 28.5076 11.683 28.4966C11.7881 28.484 13.5786 27.553 15.6619 26.4243L19.4496 24.3722L19.4519 23.7427C19.453 23.3964 19.4115 23.1132 19.3595 23.1132C19.2726 23.1132 14.1479 25.841 12.3627 26.8374L11.5964 27.2651L6.93079 24.1776C4.36471 22.4795 1.98058 20.9113 1.63271 20.6927C1.08583 20.3493 1.00022 20.2255 1.00022 19.7788C1.00022 19.4949 1.03009 19.2623 1.06628 19.2623C1.10247 19.2623 3.4085 20.7623 6.19048 22.5956C8.97245 24.4289 11.3535 25.969 11.4817 26.018C11.747 26.1193 19.2843 22.1547 19.4008 21.8525C19.4408 21.7482 19.4526 21.4264 19.4265 21.1369L19.3794 20.6105L16.775 22.0237C15.3426 22.801 13.6294 23.7306 12.9678 24.0897C12.3063 24.4485 11.6917 24.7425 11.6021 24.7425C11.4717 24.7425 7.26245 22.0122 1.70721 18.3243C1.09839 17.9202 1.00055 17.7864 1.00031 17.358C1.0001 17.0042 1.05732 16.8827 1.19862 16.9367C1.30785 16.9785 3.63501 18.493 6.37013 20.3025C9.10524 22.112 11.4226 23.6235 11.5198 23.6614C11.6171 23.6991 12.6551 23.2151 13.8265 22.5853C20.107 19.2093 19.4538 19.6398 19.4538 18.8768V18.2205L18.7469 18.5777C18.3581 18.7741 16.6014 19.7097 14.8432 20.6565C13.0849 21.6033 11.5765 22.3513 11.4911 22.3187C11.4057 22.2852 10.132 21.4632 8.66069 20.49C7.18935 19.5169 4.89416 18.0068 3.56028 17.1342C2.22639 16.2617 1.09966 15.456 1.05643 15.3439C1.01318 15.2317 0.999592 14.9721 1.02614 14.7668L1.07445 14.3937L2.04179 15.0315C2.57382 15.3824 4.9446 16.9504 7.31018 18.5162C11.0602 20.9983 11.6513 21.3429 11.9236 21.2058C12.0954 21.1196 12.8763 20.6967 13.6588 20.2666C14.4413 19.8364 16.0653 18.9552 17.2677 18.3083L19.4538 17.1322V16.494C19.4538 16.1431 19.4176 15.8558 19.373 15.8558C19.3286 15.8558 18.8765 16.0794 18.3684 16.3525C17.8604 16.6255 16.1723 17.5335 14.6171 18.3698C13.0619 19.2061 11.7467 19.9151 11.6945 19.9452C11.6422 19.9745 10.7046 19.4124 9.61097 18.6942C8.51732 17.976 6.13245 16.4099 4.31126 15.214C1.04435 13.0687 1 13.0327 1 12.5222C1 12.2379 1.03114 12.0048 1.06964 12.0048C1.10793 12.0048 3.13375 13.3258 5.57147 14.9402C8.00917 16.5547 10.3726 18.1099 10.8234 18.3962L11.6432 18.9166L15.5464 16.8308L19.4495 14.7449L19.4518 14.1895C19.4529 13.8842 19.4008 13.634 19.3358 13.634C19.2709 13.634 17.5282 14.5338 15.4631 15.6336C13.398 16.7333 11.645 17.6331 11.5674 17.6331C11.4898 17.6331 9.5325 16.3817 7.21778 14.8522C4.90306 13.3227 2.55993 11.7789 2.01083 11.4216C1.46173 11.0643 1.03687 10.7324 1.06669 10.6844C1.09656 10.6362 2.80145 9.83246 4.85545 8.89786C6.90944 7.96329 8.58997 7.1624 8.58997 7.11814C8.58997 7.07375 8.40938 6.92844 8.18869 6.79527L7.7874 6.5528L8.3003 6.3363C9.34097 5.89685 12.0052 4.75006 14.3637 3.72634C15.6976 3.14739 16.8872 2.67368 17.0073 2.67368C17.1274 2.67368 17.3511 2.75157 17.5045 2.84705C17.7313 2.98818 17.9325 2.9505 18.5814 2.64605C19.0204 2.44001 19.9998 1.98548 20.7579 1.63577L22.1363 1L23.8087 1.79034C27.5743 3.56993 32.9966 6.22261 32.9966 6.2853C32.9966 6.32298 31.8916 6.93682 30.541 7.65119L28.0855 8.94999V9.52814V10.1063L29.2388 9.4714C31.758 8.08478 32.7564 7.56157 32.883 7.56157C32.9558 7.56157 32.9944 7.77807 32.9688 8.04294C32.9244 8.50132 32.8086 8.58512 30.541 9.80009L28.1599 11.0759L28.1145 11.7626C28.0897 12.1403 28.0947 12.4493 28.1259 12.4493C28.157 12.4493 29.2303 11.8827 30.5109 11.1903C31.7916 10.4979 32.8748 9.93137 32.918 9.93137C32.9614 9.93137 32.9965 10.1479 32.9963 10.4127C32.9959 10.883 32.9393 10.9245 30.5408 12.2126L28.0856 13.5311V14.1751C28.0856 14.5294 28.1256 14.8191 28.1749 14.8191C28.224 14.8191 29.1114 14.3617 30.1468 13.8026C31.1822 13.2436 32.247 12.6753 32.513 12.5399L32.9967 12.2936V12.808C32.9967 13.3215 32.9923 13.3246 30.5457 14.6262L28.0947 15.93L28.0903 16.6274L28.0858 17.3248L29.2392 16.7068C29.8735 16.3667 30.9618 15.7756 31.6575 15.3928L32.9225 14.6969L32.9715 15.1588C33.0315 15.7254 33.023 15.732 30.5414 17.0408C27.9853 18.389 28.0558 18.3298 28.113 19.079L28.1603 19.6994L30.3854 18.5021C33.1956 16.9901 32.997 17.0543 32.997 17.6567C32.997 18.1149 32.9263 18.1925 32.139 18.5982C31.6672 18.8415 30.5622 19.4342 29.6835 19.9156L28.0859 20.7909V21.4338C28.0859 21.7872 28.114 22.0767 28.1486 22.0767C28.1831 22.0767 29.2657 21.5101 30.5544 20.8177C31.8432 20.1253 32.92 19.5587 32.9473 19.5587C32.9747 19.5587 32.9969 19.7865 32.9969 20.0652C32.9969 20.5682 32.9806 20.5805 30.5482 21.8796C28.3118 23.0741 28.0956 23.2248 28.0554 23.618C28.0143 24.0196 27.7352 24.1953 23.8776 26.2469C21.6039 27.4561 19.6832 28.4455 19.6093 28.4455C19.5354 28.4455 19.4536 28.3132 19.4274 28.1515C19.3853 27.8915 19.0805 28.0205 16.7755 29.2727C13.0092 31.3188 11.7126 32 11.5838 32C11.5213 32 9.11554 30.4504 6.23773 28.5564L6.23729 28.5562ZM23.5191 25.3121C25.0893 24.485 26.5253 23.7165 26.7103 23.6044L27.0466 23.4005L27.0079 16.4944L26.9691 9.58836L25.3321 8.62788C23.3056 7.43887 19.269 5.0633 17.942 4.27869L16.9512 3.69284L13.6262 5.12741C11.7975 5.91645 10.2515 6.60632 10.1908 6.66055C10.13 6.71458 12.0722 7.95245 14.5066 9.41093C16.941 10.8695 19.2844 12.2851 19.7141 12.5567L20.4954 13.0505V19.9332C20.4954 23.7186 20.5333 26.8158 20.5797 26.8158C20.6261 26.8158 21.9487 26.1391 23.5189 25.312L23.5191 25.3121ZM19.5509 10.355C18.6896 10.2269 18.5804 10.1444 18.8788 9.84745C19.0557 9.67157 19.193 9.65607 19.5122 9.77668C19.9926 9.95843 20.7904 9.97518 21.0534 9.81019C21.1759 9.73272 20.8463 9.48481 20.0861 9.08275L18.933 8.47273L18.1178 8.68421C16.6206 9.07283 15.0086 8.44593 14.9939 7.4692C14.9917 7.29583 15.0905 7.07054 15.2143 6.96819C15.3855 6.82665 15.3989 6.73368 15.2705 6.57957C15.1777 6.46818 15.1601 6.37312 15.2313 6.36852C15.3027 6.3643 15.629 6.32119 15.9565 6.27429C16.8245 6.14992 18.3832 6.15117 18.5091 6.2764C18.5687 6.33586 18.5191 6.48243 18.3987 6.6022C18.2415 6.75882 18.0558 6.78645 17.7379 6.70103C17.4947 6.6357 17.0949 6.62314 16.8493 6.67171C16.4192 6.75923 16.4436 6.78352 17.5142 7.32788C18.51 7.83437 18.6735 7.87588 19.0874 7.72696C20.1086 7.35929 21.7527 7.61725 22.4618 8.25586C22.7959 8.55696 22.8056 9.23951 22.4803 9.56313C22.2303 9.81188 22.3041 9.94211 22.8021 10.1301C22.8839 10.1594 22.9028 10.2377 22.8442 10.3005C22.7854 10.3633 22.5383 10.334 22.2951 10.2327C22.0518 10.1326 21.7863 10.0911 21.705 10.1414C21.3785 10.3424 20.231 10.4559 19.5508 10.3545L19.5509 10.355ZM21.8055 9.01608C21.8524 8.62578 21.5118 8.30551 20.8175 8.087C20.4401 7.96807 19.4524 8.10375 19.4561 8.27168C19.4595 8.41573 21.4275 9.46889 21.6117 9.42525C21.6936 9.40431 21.7808 9.22173 21.8055 9.01612L21.8055 9.01608ZM17.9409 8.17209C18.0809 8.08373 17.8341 7.88942 17.1042 7.51366C16.5348 7.22053 16.0269 7.02228 15.9755 7.07342C15.7327 7.31504 15.9058 7.86091 16.2914 8.06903C16.7422 8.31234 17.6305 8.36803 17.9409 8.17205V8.17209ZM15.0155 14.7309C16.8018 13.7864 18.2611 12.9699 18.2585 12.9165C18.2518 12.7716 9.98033 7.85676 9.75287 7.86233C9.47057 7.87075 3.15797 10.7516 3.15797 10.8736C3.15797 10.9975 11.4343 16.4402 11.6299 16.4448C11.7057 16.4469 13.2293 15.6753 15.0155 14.7309ZM28.9111 7.36919C29.8664 6.8562 30.6451 6.38052 30.6415 6.3121C30.6382 6.24383 28.7203 5.26727 26.38 4.1423L22.1249 2.09692L20.472 2.86841L18.819 3.63986L21.4748 5.19328C22.9355 6.04765 24.7023 7.09029 25.4011 7.51027C26.0999 7.93025 26.7847 8.28017 26.923 8.28788C27.0612 8.2963 27.9559 7.8821 28.9111 7.36919Z" stroke="white" stroke-width="0.5" mask="url(#path-1-outside-1_342:451)"/>
</svg>
