<svg width="170" height="40" viewBox="0 0 170 40" fill="none" xmlns="http://www.w3.org/2000/svg">
<path d="M13.0334 39.057C5.0341 36.3491 0 29.0226 0 20.0885C0 14.3027 1.82958 9.76748 5.73621 5.86949C9.75477 1.85979 14.0866 0.0449015 19.6383 0.0449015C25.2227 0.0449015 29.5557 1.87231 33.5684 5.91982C39.6793 12.0837 41.0183 21.6555 36.9112 29.8148C34.6941 34.2192 29.2812 38.473 24.501 39.5675C21.2722 40.3067 16.0367 40.0737 13.0334 39.057ZM23.0009 31.0412C25.2327 30.4256 26.9653 28.7726 28.2872 25.9976C29.273 23.9281 29.4569 23.0267 29.4571 20.2624C29.4585 12.8733 25.8415 8.56506 19.6383 8.56506C13.4567 8.56506 9.58151 13.196 9.65535 20.4948C9.70467 25.3701 11.7535 29.0449 15.3424 30.6951C17.1728 31.5367 20.6369 31.6932 23.0009 31.0412ZM137.171 39.3728C134.789 38.7355 130.789 36.8331 129.397 35.675L128.489 34.9191L130.511 31.6686C131.624 29.8808 132.605 28.2352 132.692 28.0117C132.779 27.7882 133.392 27.995 134.054 28.4713C137.317 30.8187 139.605 31.6398 142.924 31.6544C145.936 31.6677 146.188 31.6001 147.117 30.5285C148.412 29.035 148.403 27.2539 147.093 25.9533C146.536 25.4001 144.172 24.0401 141.839 22.931C134.733 19.5515 131.995 16.354 132.041 11.4857C132.084 6.96915 134.772 3.20845 139.495 1.05505C142.663 -0.389204 147.023 -0.349209 151.583 1.16597C153.383 1.76403 155.289 2.57792 155.817 2.9746L156.777 3.69586L155.096 7.01632C154.172 8.84258 153.255 10.3368 153.06 10.3368C152.865 10.3368 151.627 9.84673 150.31 9.24776C146.999 7.74243 143.313 7.67284 141.797 9.08707C140.494 10.3028 140.417 12.046 141.613 13.2343C142.093 13.7106 144.532 15.0615 147.034 16.2363C149.536 17.4112 152.535 19.1284 153.699 20.0524C157.473 23.0482 158.731 27.0507 157.341 31.6368C156.184 35.4557 153.847 37.6752 149.427 39.1541C146.415 40.1619 140.515 40.2671 137.171 39.3728ZM161.685 39.1751C160.317 38.3472 159.152 36.283 159.152 34.6888C159.152 33.226 160.453 31.0029 161.779 30.2C166.707 27.2155 172.245 33.0551 169.062 37.8797C167.649 40.02 164.107 40.642 161.685 39.1751ZM38.4584 38.4618C38.4584 37.8403 39.1948 29.2066 40.0949 19.2758C40.995 9.34503 41.7314 1.07122 41.7314 0.889579C41.7314 0.707937 43.8858 0.610824 46.5189 0.673793L51.3065 0.788265L55.5988 11.8959L59.891 23.0036L61.9189 17.7876C63.0342 14.9188 64.9826 9.92031 66.2486 6.6799L68.5506 0.788265L73.3474 0.673793C77.7186 0.569464 78.1441 0.62354 78.1443 1.28327C78.1444 1.68144 78.8808 10.1225 79.7808 20.0411C80.6808 29.9597 81.4172 38.4224 81.4172 38.8471C81.4172 39.5651 81.1083 39.6112 77.019 39.504L72.6209 39.3886L71.7333 28.313C71.2451 22.2215 70.782 17.0477 70.7041 16.8158C70.6263 16.5838 69.2974 20.0137 67.7509 24.4376C66.2045 28.8616 64.392 33.9976 63.7231 35.8509L62.507 39.2206L59.8398 39.1015L57.1727 38.9823L53.1845 27.6229C48.5778 14.5019 49.0743 14.4444 48.0766 28.2149C47.7285 33.0196 47.3468 37.545 47.2284 38.2713L47.0131 39.5918H42.7357H38.4584V38.4618ZM82.2355 20.0885V0.585105H86.689H91.1426L98.8607 12.556L106.579 24.5269L106.687 12.556L106.796 0.585105H111.294H115.792L115.686 19.9869L115.58 39.3886L111.244 39.5033L106.909 39.618L99.175 27.6243L91.4409 15.6305L91.3325 27.6112L91.2242 39.5918H86.7298H82.2355V20.0885ZM118.648 20.0885V0.585105H123.149H127.649V20.0885V39.5918H123.149H118.648V20.0885Z" fill="white"/>
</svg>
