<svg width="30" height="25" viewBox="0 0 30 25" fill="none" xmlns="http://www.w3.org/2000/svg">
<path fill-rule="evenodd" clip-rule="evenodd" d="M0 1.78571C0 0.799492 0.799491 0 1.78571 0H28.2143C29.2005 0 30 0.799492 30 1.78571C30 2.77194 29.2005 3.57143 28.2143 3.57143H1.78571C0.79949 3.57143 0 2.77194 0 1.78571ZM9.33349 12.5C9.33349 11.5138 10.133 10.7143 11.1192 10.7143H28.2144C29.2007 10.7143 30.0002 11.5138 30.0002 12.5C30.0002 13.4862 29.2007 14.2857 28.2144 14.2857H11.1192C10.133 14.2857 9.33349 13.4862 9.33349 12.5ZM1.78591 21.4286C0.799687 21.4286 0.000195344 22.2281 0.000195344 23.2143C0.000195344 24.2005 0.799686 25 1.78591 25H28.2145C29.2007 25 30.0002 24.2005 30.0002 23.2143C30.0002 22.2281 29.2007 21.4286 28.2145 21.4286H1.78591Z" fill="white"/>
</svg>
