<svg width="126" height="40" viewBox="0 0 126 40" fill="none" xmlns="http://www.w3.org/2000/svg">
<path d="M43.5781 16H41.6934L34.5352 5.04297V16H32.6504V1.78125H34.5352L41.7129 12.7871V1.78125H43.5781V16ZM53.1484 14.9551C52.4453 15.7819 51.4134 16.1953 50.0527 16.1953C48.9264 16.1953 48.0671 15.8698 47.4746 15.2188C46.8887 14.5612 46.5924 13.5911 46.5859 12.3086V5.43359H48.3926V12.2598C48.3926 13.8613 49.0436 14.6621 50.3457 14.6621C51.7259 14.6621 52.6439 14.1478 53.0996 13.1191V5.43359H54.9062V16H53.1875L53.1484 14.9551ZM59.3594 5.43359L59.4082 6.60547C60.1829 5.69401 61.2279 5.23828 62.543 5.23828C64.0208 5.23828 65.0267 5.80469 65.5605 6.9375C65.9121 6.42969 66.3678 6.01953 66.9277 5.70703C67.4941 5.39453 68.1615 5.23828 68.9297 5.23828C71.2474 5.23828 72.4258 6.46549 72.4648 8.91992V16H70.6582V9.02734C70.6582 8.27214 70.4857 7.70898 70.1406 7.33789C69.7956 6.96029 69.2161 6.77148 68.4023 6.77148C67.7318 6.77148 67.1751 6.97331 66.7324 7.37695C66.2897 7.77409 66.0326 8.3112 65.9609 8.98828V16H64.1445V9.07617C64.1445 7.53971 63.3926 6.77148 61.8887 6.77148C60.7038 6.77148 59.8932 7.27604 59.457 8.28516V16H57.6504V5.43359H59.3594ZM84.1445 10.834C84.1445 12.4486 83.7734 13.7474 83.0312 14.7305C82.2891 15.707 81.293 16.1953 80.043 16.1953C78.7083 16.1953 77.6764 15.7233 76.9473 14.7793L76.8594 16H75.1992V1H77.0059V6.5957C77.735 5.69076 78.7409 5.23828 80.0234 5.23828C81.306 5.23828 82.3118 5.72331 83.041 6.69336C83.7767 7.66341 84.1445 8.99154 84.1445 10.6777V10.834ZM82.3379 10.6289C82.3379 9.39844 82.1003 8.44792 81.625 7.77734C81.1497 7.10677 80.4661 6.77148 79.5742 6.77148C78.3828 6.77148 77.5267 7.32487 77.0059 8.43164V13.002C77.5592 14.1087 78.4219 14.6621 79.5938 14.6621C80.4596 14.6621 81.1335 14.3268 81.6152 13.6562C82.097 12.9857 82.3379 11.9766 82.3379 10.6289ZM90.8145 16.1953C89.3822 16.1953 88.2168 15.7266 87.3184 14.7891C86.4199 13.8451 85.9707 12.5853 85.9707 11.0098V10.6777C85.9707 9.62956 86.1693 8.69531 86.5664 7.875C86.9701 7.04818 87.5299 6.40365 88.2461 5.94141C88.9688 5.47266 89.75 5.23828 90.5898 5.23828C91.9635 5.23828 93.0312 5.69076 93.793 6.5957C94.5547 7.50065 94.9355 8.79622 94.9355 10.4824V11.2344H87.7773C87.8034 12.276 88.1061 13.1191 88.6855 13.7637C89.2715 14.4017 90.0137 14.7207 90.9121 14.7207C91.5501 14.7207 92.0905 14.5905 92.5332 14.3301C92.9759 14.0697 93.3633 13.7246 93.6953 13.2949L94.7988 14.1543C93.9134 15.515 92.5853 16.1953 90.8145 16.1953ZM90.5898 6.72266C89.8607 6.72266 89.2487 6.98958 88.7539 7.52344C88.2591 8.05078 87.9531 8.79297 87.8359 9.75H93.1289V9.61328C93.0768 8.69531 92.8294 7.98568 92.3867 7.48438C91.944 6.97656 91.3451 6.72266 90.5898 6.72266ZM102.143 7.05469C101.869 7.00911 101.573 6.98633 101.254 6.98633C100.069 6.98633 99.265 7.49089 98.8418 8.5V16H97.0352V5.43359H98.793L98.8223 6.6543C99.4147 5.71029 100.255 5.23828 101.342 5.23828C101.693 5.23828 101.96 5.28385 102.143 5.375V7.05469ZM108.295 10.6191C108.295 9.58398 108.497 8.65299 108.9 7.82617C109.311 6.99935 109.877 6.36133 110.6 5.91211C111.329 5.46289 112.159 5.23828 113.09 5.23828C114.529 5.23828 115.691 5.73633 116.576 6.73242C117.468 7.72852 117.914 9.05339 117.914 10.707V10.834C117.914 11.8626 117.715 12.7871 117.318 13.6074C116.928 14.4212 116.365 15.056 115.629 15.5117C114.9 15.9674 114.06 16.1953 113.109 16.1953C111.677 16.1953 110.515 15.6973 109.623 14.7012C108.738 13.7051 108.295 12.3867 108.295 10.7461V10.6191ZM110.111 10.834C110.111 12.0059 110.382 12.9466 110.922 13.6562C111.469 14.3659 112.198 14.7207 113.109 14.7207C114.027 14.7207 114.757 14.3626 115.297 13.6465C115.837 12.9238 116.107 11.9147 116.107 10.6191C116.107 9.46029 115.831 8.52279 115.277 7.80664C114.73 7.08398 114.001 6.72266 113.09 6.72266C112.198 6.72266 111.479 7.07747 110.932 7.78711C110.385 8.49674 110.111 9.51237 110.111 10.834ZM121.068 16V6.83008H119.398V5.43359H121.068V4.34961C121.068 3.2168 121.371 2.34115 121.977 1.72266C122.582 1.10417 123.438 0.794922 124.545 0.794922C124.962 0.794922 125.375 0.85026 125.785 0.960938L125.688 2.42578C125.382 2.36719 125.056 2.33789 124.711 2.33789C124.125 2.33789 123.673 2.51042 123.354 2.85547C123.035 3.19401 122.875 3.68229 122.875 4.32031V5.43359H125.131V6.83008H122.875V16H121.068ZM36.8398 32.6621C35.2318 32.1999 34.0599 31.6335 33.3242 30.9629C32.5951 30.2858 32.2305 29.4525 32.2305 28.4629C32.2305 27.3431 32.6764 26.4186 33.5684 25.6895C34.4668 24.9538 35.6322 24.5859 37.0645 24.5859C38.041 24.5859 38.9102 24.7747 39.6719 25.1523C40.4401 25.5299 41.0326 26.0508 41.4492 26.7148C41.8724 27.3789 42.084 28.1048 42.084 28.8926H40.1992C40.1992 28.0332 39.9258 27.3594 39.3789 26.8711C38.832 26.3763 38.0605 26.1289 37.0645 26.1289C36.14 26.1289 35.4173 26.334 34.8965 26.7441C34.3822 27.1478 34.125 27.7109 34.125 28.4336C34.125 29.013 34.3691 29.5046 34.8574 29.9082C35.3522 30.3053 36.1888 30.6699 37.3672 31.002C38.5521 31.334 39.4766 31.7018 40.1406 32.1055C40.8112 32.5026 41.306 32.9681 41.625 33.502C41.9505 34.0358 42.1133 34.6641 42.1133 35.3867C42.1133 36.5391 41.6641 37.4635 40.7656 38.1602C39.8672 38.8503 38.666 39.1953 37.1621 39.1953C36.1855 39.1953 35.2741 39.0098 34.4277 38.6387C33.5814 38.2611 32.9271 37.7467 32.4648 37.0957C32.0091 36.4447 31.7812 35.7057 31.7812 34.8789H33.666C33.666 35.7383 33.9818 36.4186 34.6133 36.9199C35.2513 37.4147 36.1009 37.6621 37.1621 37.6621C38.1517 37.6621 38.9102 37.4603 39.4375 37.0566C39.9648 36.653 40.2285 36.1029 40.2285 35.4062C40.2285 34.7096 39.9844 34.1725 39.4961 33.7949C39.0078 33.4108 38.1224 33.0332 36.8398 32.6621ZM50.7656 39C50.6615 38.7917 50.5768 38.4206 50.5117 37.8867C49.6719 38.7591 48.6693 39.1953 47.5039 39.1953C46.4622 39.1953 45.6061 38.9023 44.9355 38.3164C44.2715 37.724 43.9395 36.9753 43.9395 36.0703C43.9395 34.9701 44.3561 34.1172 45.1895 33.5117C46.0293 32.8997 47.2077 32.5938 48.7246 32.5938H50.4824V31.7637C50.4824 31.1322 50.2936 30.6309 49.916 30.2598C49.5384 29.8822 48.9818 29.6934 48.2461 29.6934C47.6016 29.6934 47.0612 29.8561 46.625 30.1816C46.1888 30.5072 45.9707 30.901 45.9707 31.3633H44.1543C44.1543 30.8359 44.3398 30.3281 44.7109 29.8398C45.0885 29.3451 45.5964 28.9544 46.2344 28.668C46.8789 28.3815 47.5853 28.2383 48.3535 28.2383C49.571 28.2383 50.5247 28.5443 51.2148 29.1562C51.9049 29.7617 52.263 30.5983 52.2891 31.666V36.5293C52.2891 37.4993 52.4128 38.2708 52.6602 38.8438V39H50.7656ZM47.7676 37.623C48.334 37.623 48.8711 37.4766 49.3789 37.1836C49.8867 36.8906 50.2546 36.5098 50.4824 36.041V33.873H49.0664C46.8529 33.873 45.7461 34.5208 45.7461 35.8164C45.7461 36.3828 45.9349 36.8255 46.3125 37.1445C46.6901 37.4635 47.1751 37.623 47.7676 37.623ZM57.084 39H55.2773V24H57.084V39ZM64.3691 39.1953C62.9368 39.1953 61.7715 38.7266 60.873 37.7891C59.9746 36.8451 59.5254 35.5853 59.5254 34.0098V33.6777C59.5254 32.6296 59.724 31.6953 60.1211 30.875C60.5247 30.0482 61.0846 29.4036 61.8008 28.9414C62.5234 28.4727 63.3047 28.2383 64.1445 28.2383C65.5182 28.2383 66.5859 28.6908 67.3477 29.5957C68.1094 30.5007 68.4902 31.7962 68.4902 33.4824V34.2344H61.332C61.3581 35.276 61.6608 36.1191 62.2402 36.7637C62.8262 37.4017 63.5684 37.7207 64.4668 37.7207C65.1048 37.7207 65.6452 37.5905 66.0879 37.3301C66.5306 37.0697 66.918 36.7246 67.25 36.2949L68.3535 37.1543C67.4681 38.515 66.14 39.1953 64.3691 39.1953ZM64.1445 29.7227C63.4154 29.7227 62.8034 29.9896 62.3086 30.5234C61.8138 31.0508 61.5078 31.793 61.3906 32.75H66.6836V32.6133C66.6315 31.6953 66.3841 30.9857 65.9414 30.4844C65.4987 29.9766 64.8997 29.7227 64.1445 29.7227ZM76.7422 36.1973C76.7422 35.709 76.5566 35.3314 76.1855 35.0645C75.821 34.791 75.1797 34.5566 74.2617 34.3613C73.3503 34.166 72.6243 33.9316 72.084 33.6582C71.5501 33.3848 71.153 33.0592 70.8926 32.6816C70.6387 32.304 70.5117 31.8548 70.5117 31.334C70.5117 30.4681 70.8763 29.7357 71.6055 29.1367C72.3411 28.5378 73.2786 28.2383 74.418 28.2383C75.6159 28.2383 76.5859 28.5475 77.3281 29.166C78.0768 29.7845 78.4512 30.5755 78.4512 31.5391H76.6348C76.6348 31.0443 76.4232 30.6178 76 30.2598C75.5833 29.9017 75.056 29.7227 74.418 29.7227C73.7604 29.7227 73.2461 29.8659 72.875 30.1523C72.5039 30.4388 72.3184 30.8132 72.3184 31.2754C72.3184 31.7116 72.4909 32.0404 72.8359 32.2617C73.181 32.4831 73.8027 32.6947 74.7012 32.8965C75.6061 33.0983 76.3385 33.3392 76.8984 33.6191C77.4583 33.8991 77.8717 34.2376 78.1387 34.6348C78.4121 35.0254 78.5488 35.5039 78.5488 36.0703C78.5488 37.0143 78.1712 37.7728 77.416 38.3457C76.6608 38.9121 75.681 39.1953 74.4766 39.1953C73.6302 39.1953 72.8815 39.0456 72.2305 38.7461C71.5794 38.4466 71.0684 38.0299 70.6973 37.4961C70.3327 36.9557 70.1504 36.373 70.1504 35.748H71.957C71.9896 36.3535 72.2305 36.8353 72.6797 37.1934C73.1354 37.5449 73.7344 37.7207 74.4766 37.7207C75.1602 37.7207 75.707 37.584 76.1172 37.3105C76.5339 37.0306 76.7422 36.6595 76.7422 36.1973Z" fill="#626262"/>
<path d="M0.404251 18.9624C0.0746063 18.82 -0.0315014 18.4854 0.172078 18.2302C0.306191 18.0622 0.470129 18.0131 0.89807 18.0131H1.25842L1.26748 16.3945L1.27654 14.7758L1.37346 14.662C1.6265 14.365 2.12189 14.365 2.37493 14.662L2.47185 14.7758L2.48091 16.3945L2.48998 18.0131H3.08666H3.68335L3.68359 15.4478C3.68369 13.8429 3.69571 12.8467 3.71564 12.7872C3.75427 12.6719 3.91342 12.5312 4.06462 12.4788C4.30685 12.3949 4.60515 12.4644 4.76939 12.6429L4.86255 12.7442L4.87871 15.372L4.89486 17.9998L5.50025 18.007L6.10564 18.0143L6.11408 14.3881L6.12251 10.7619L6.20847 10.6541C6.43247 10.3734 6.97556 10.3734 7.19956 10.6541L7.28552 10.7619L7.29396 14.3881L7.30239 18.0143L7.90778 18.007L8.51315 17.9998L8.52931 13.3733L8.54546 8.74684L8.61304 8.6712C8.7802 8.48411 9.07008 8.40756 9.3162 8.48551C9.4803 8.53748 9.6372 8.6676 9.68798 8.7938C9.71471 8.86027 9.72462 10.1178 9.72462 13.449V18.0131H10.3223H10.9199L10.9202 13.6794C10.9203 10.6002 10.9307 9.3149 10.956 9.23919C11.0224 9.04097 11.3005 8.87617 11.5661 8.87762C11.7863 8.87871 12.0504 9.05644 12.1139 9.24611C12.1362 9.31275 12.1473 10.7811 12.1474 13.6794L12.1475 18.0131H12.7452H13.3428L13.3435 14.4028C13.3442 10.9581 13.3469 10.7876 13.4035 10.6843C13.613 10.3019 14.2687 10.2886 14.4923 10.6622C14.5524 10.7625 14.5545 10.8782 14.5628 14.3894L14.5713 18.0131H15.1685H15.7657V16.5229C15.7657 15.2265 15.7718 15.0368 15.8124 15.0647C15.8766 15.1089 16.0051 15.0893 16.0179 15.0334C16.025 15.0027 16.001 14.9818 15.9458 14.9703C15.9003 14.9608 15.8716 14.9417 15.8819 14.9278C15.8931 14.9128 15.9195 14.9155 15.9471 14.9345C15.999 14.9702 16.0422 14.9511 16.0094 14.907C15.9807 14.8685 15.8526 14.8707 15.8045 14.9105C15.7744 14.9355 15.7657 14.8879 15.7657 14.6962V14.4497H15.8726C15.9314 14.4497 16.0078 14.432 16.0422 14.4104C16.1104 14.3676 16.0977 14.3618 15.9273 14.3583C15.7593 14.3548 15.7738 14.2796 15.9428 14.2773C16.1041 14.2751 16.129 14.2127 16.0086 14.1129C15.9455 14.0605 15.9039 14.0469 15.8449 14.0592L15.7657 14.0756V11.4347C15.7657 8.56316 15.7559 8.72657 15.9391 8.5595C16.0976 8.41504 16.4175 8.367 16.6259 8.45638C16.7667 8.51677 16.9222 8.67277 16.9444 8.77582C16.9548 8.82402 16.9591 10.0812 16.9541 11.5695C16.9464 13.8272 16.938 14.2567 16.9032 14.1617C16.879 14.0954 16.8419 14.0478 16.8144 14.0478C16.7514 14.0478 16.7549 14.1168 16.8269 14.2915C16.8939 14.4543 16.887 14.5033 16.7968 14.5033C16.7628 14.5033 16.7349 14.5214 16.7349 14.5435C16.7349 14.5928 16.8663 14.5974 16.9255 14.5502C16.9598 14.5228 16.9656 14.5678 16.9571 14.798C16.9514 14.9527 16.9499 15.7394 16.9538 16.5462L16.961 18.0131H17.5748H18.1886V16.2314V14.4497L18.2613 14.4455C18.3013 14.443 18.3594 14.443 18.3905 14.4452C18.4385 14.4485 18.447 14.4251 18.447 14.2893C18.447 14.1485 18.4374 14.1243 18.3665 14.0857C18.3222 14.0616 18.2641 14.0489 18.2373 14.0575C18.194 14.0712 18.1886 13.6654 18.1886 10.429C18.1886 6.85499 18.1899 6.78294 18.2523 6.68136C18.4715 6.32499 19.1061 6.32811 19.3154 6.68659L19.3839 6.80399V12.4086V18.0132H19.9812H20.5785L20.587 11.67C20.5948 5.73783 20.5989 5.32144 20.6507 5.24299C20.8792 4.89692 21.4444 4.87573 21.7116 5.20321L21.7907 5.30008L21.799 11.6566L21.8073 18.0132H22.1635C22.6462 18.0132 22.8075 18.0699 22.941 18.2867C23.0178 18.4117 23.0199 18.6137 22.9455 18.7346C22.9145 18.7852 22.8332 18.8635 22.7649 18.9088L22.6408 18.9911L11.571 18.9977C1.58681 19.0037 0.491751 19.0001 0.40434 18.9624L0.404251 18.9624ZM16.3598 15.1308C16.3705 15.1074 16.3794 15.0411 16.3794 14.9834C16.3794 14.8856 16.373 14.8784 16.2864 14.8784C16.1563 14.8784 16.1148 14.9309 16.1402 15.063C16.1592 15.1612 16.1712 15.1731 16.2508 15.1731C16.3025 15.1731 16.3484 15.1553 16.3598 15.1308ZM16.2017 15.1195C16.1907 15.1048 16.2125 15.0927 16.2502 15.0927C16.2878 15.0927 16.3096 15.1048 16.2986 15.1195C16.2876 15.1343 16.2658 15.1463 16.2502 15.1463C16.2345 15.1463 16.2127 15.1343 16.2017 15.1195ZM16.1982 15.028C16.1715 14.9702 16.2087 14.8982 16.2582 14.9119C16.2804 14.918 16.2986 14.9512 16.2986 14.9856C16.2986 15.059 16.2267 15.0894 16.1982 15.028ZM16.0791 14.9253C16.0714 14.8921 16.0651 14.9193 16.0651 14.9856C16.0651 15.0519 16.0714 15.079 16.0791 15.0459C16.0868 15.0127 16.0868 14.9584 16.0791 14.9253ZM16.4857 14.9272C16.5424 14.8981 16.5732 14.9286 16.5732 15.014C16.5732 15.0573 16.5877 15.0928 16.6055 15.0928C16.6233 15.0928 16.6378 15.0783 16.6378 15.0606C16.6378 15.0356 16.6464 15.0356 16.6766 15.0606C16.7309 15.1057 16.8534 15.1007 16.8756 15.0526C16.8975 15.0054 16.86 14.9996 16.8086 15.0422C16.7889 15.0586 16.7569 15.0639 16.7375 15.0541C16.6713 15.0201 16.7025 14.9856 16.7993 14.9856C16.9026 14.9856 16.9203 14.9627 16.8575 14.9106C16.8038 14.8661 16.7343 14.8704 16.6646 14.9228C16.6096 14.9641 16.6055 14.9641 16.6055 14.9228C16.6055 14.8914 16.5772 14.8785 16.5086 14.8785C16.4153 14.8785 16.4119 14.8828 16.4165 14.9923C16.4204 15.0839 16.4241 15.0905 16.4356 15.0259C16.4434 14.9818 16.466 14.9373 16.4857 14.9272ZM16.7283 14.9266C16.7584 14.9016 16.7756 14.9016 16.8058 14.9266C16.8359 14.9516 16.8273 14.9588 16.767 14.9588C16.7067 14.9588 16.6981 14.9516 16.7283 14.9266ZM18.9073 14.5388C18.9447 14.5205 18.9359 14.4373 18.8927 14.4015C18.8714 14.3838 18.7987 14.3693 18.7312 14.3693C18.6637 14.3693 18.6084 14.3573 18.6084 14.3425C18.6084 14.3278 18.651 14.3157 18.7031 14.3157C18.8234 14.3157 18.9092 14.2462 18.8903 14.1642C18.8824 14.1296 18.8883 14.1014 18.9037 14.1014C18.919 14.1014 18.9315 14.0912 18.9315 14.0787C18.9315 14.0429 18.6523 14.0601 18.5952 14.0994C18.557 14.1257 18.5464 14.1719 18.5541 14.2784C18.5598 14.3573 18.5508 14.4331 18.5343 14.4469C18.4302 14.5333 18.7547 14.6132 18.9073 14.5388ZM18.5934 14.5048C18.5551 14.4534 18.6105 14.4229 18.7419 14.4229C18.848 14.4229 18.8697 14.4315 18.8609 14.4698C18.8487 14.5235 18.6287 14.5522 18.5934 14.5048ZM18.6579 14.2527C18.5685 14.1985 18.6074 14.1148 18.722 14.1148C18.7965 14.1148 18.8207 14.1281 18.8285 14.1733C18.8419 14.2514 18.7365 14.3004 18.6579 14.2527ZM16.3794 14.4095C16.3794 14.3874 16.3576 14.3693 16.3309 14.3693C16.2958 14.3693 16.2824 14.3395 16.2824 14.2613C16.2824 14.19 16.2989 14.1481 16.3309 14.1379C16.3576 14.1294 16.3794 14.1057 16.3794 14.0851C16.3794 14.0646 16.3576 14.0478 16.3309 14.0478C16.304 14.0478 16.2824 14.024 16.2824 13.9942C16.2824 13.9645 16.2609 13.9407 16.234 13.9407C16.2073 13.9407 16.1855 13.9604 16.1855 13.9846C16.1855 14.0087 16.1601 14.0449 16.129 14.065C16.0752 14.0997 16.0752 14.1028 16.129 14.1296C16.1702 14.1501 16.1855 14.1923 16.1855 14.2858C16.1855 14.3563 16.1952 14.422 16.2071 14.4319C16.2494 14.4669 16.3794 14.4501 16.3794 14.4095ZM16.7024 14.4095C16.7024 14.3874 16.6806 14.3693 16.654 14.3693C16.6181 14.3693 16.6055 14.3381 16.6055 14.2488C16.6055 14.1595 16.6181 14.1282 16.654 14.1282C16.6806 14.1282 16.7024 14.1101 16.7024 14.088C16.7024 14.0659 16.6806 14.0478 16.654 14.0478C16.627 14.0478 16.6055 14.024 16.6055 13.9942C16.6055 13.9585 16.584 13.9407 16.5409 13.9407C16.5002 13.9407 16.4763 13.9585 16.4763 13.9889C16.4763 14.0154 16.4581 14.0531 16.4359 14.0726C16.4036 14.101 16.4036 14.1106 16.4359 14.1204C16.4597 14.1276 16.4763 14.1803 16.4763 14.2488C16.4763 14.3127 16.4851 14.384 16.4959 14.4073C16.5218 14.4634 16.7024 14.4653 16.7024 14.4095ZM19.2875 14.409C19.3446 14.352 19.3015 14.3266 19.2376 14.3796C19.1696 14.4361 19.139 14.4343 19.0607 14.3694C18.9606 14.2864 18.9825 14.2622 19.1576 14.2622C19.2976 14.2622 19.3192 14.2551 19.3192 14.2087C19.3192 14.1451 19.2108 14.0479 19.14 14.0479C19.1126 14.0479 19.0527 14.0789 19.007 14.1168C18.9388 14.1734 18.9271 14.2027 18.9423 14.28C18.9524 14.3318 18.9777 14.3912 18.9985 14.412C19.0488 14.4622 19.2362 14.4603 19.2875 14.409ZM19.0284 14.1551C19.0671 14.0951 19.157 14.0848 19.2158 14.1336C19.2827 14.1891 19.2588 14.2087 19.1242 14.2087C19.0039 14.2087 18.9965 14.2045 19.0284 14.1551ZM15.8354 15.0246C15.7938 15.0065 15.7722 14.9854 15.7873 14.9776C15.8025 14.9699 15.8493 14.9787 15.8915 14.9976C15.9336 15.0163 15.9553 15.0374 15.9395 15.0445C15.9238 15.0516 15.8769 15.0426 15.8354 15.0246ZM18.1885 14.357C18.1885 14.2951 18.2667 14.2354 18.3479 14.2354C18.4208 14.2354 18.3825 14.3607 18.3 14.3919C18.1901 14.4334 18.1885 14.4329 18.1885 14.357ZM18.1946 14.1733C18.2019 14.1311 18.227 14.1149 18.2854 14.1149C18.3966 14.1149 18.3892 14.1863 18.2754 14.2115C18.1947 14.2294 18.1857 14.2252 18.1946 14.1733ZM15.806 14.1752C15.8133 14.1568 15.8461 14.1417 15.8786 14.1417C15.9112 14.1417 15.9439 14.1568 15.9513 14.1752C15.9599 14.1964 15.9332 14.2087 15.8786 14.2087C15.8241 14.2087 15.7974 14.1964 15.806 14.1752ZM1.45418 13.249C1.10085 13.1519 0.804729 12.9324 0.627099 12.6359C0.540827 12.4919 0.534033 12.4581 0.533764 12.1711C0.533521 11.8675 0.535734 11.8578 0.654129 11.6591C0.840102 11.3471 1.14099 11.1457 1.5519 11.0583C2.32126 10.8946 3.10073 11.3227 3.23744 11.9838C3.33976 12.4787 3.02643 12.9699 2.46555 13.1939C2.27258 13.271 2.20812 13.2827 1.93877 13.2898C1.70772 13.2959 1.58795 13.2858 1.45418 13.249ZM3.52263 11.2627C3.40755 11.114 3.05445 10.8287 2.90728 10.7656C2.85434 10.7429 2.81102 10.7156 2.81102 10.7049C2.81102 10.678 8.29761 6.13011 8.31169 6.14532C8.31793 6.15205 8.36981 6.21944 8.42699 6.29506C8.54583 6.45224 8.80803 6.66562 8.99754 6.75937C9.06862 6.79453 9.13341 6.82772 9.14154 6.83312C9.15878 6.84462 3.67741 11.3955 3.64633 11.3955C3.6348 11.3955 3.57915 11.3358 3.52263 11.2627ZM13.3764 9.49244C13.1409 9.45142 12.8857 9.33208 12.6944 9.17345C12.0163 8.61139 12.2181 7.66677 13.0865 7.33858C13.7462 7.08924 14.5603 7.31358 14.8771 7.83193C15.1933 8.34945 15.0324 8.93941 14.4811 9.28441C14.3698 9.35401 14.2027 9.43009 14.1096 9.45347C13.8954 9.50724 13.5629 9.52492 13.3764 9.49244ZM2.57316 8.22297C2.43075 8.17923 2.27813 8.0681 2.2084 7.95736C2.1822 7.91573 2.1523 7.79818 2.14199 7.69613L2.12324 7.5106H1.97156C1.76152 7.5106 1.37624 7.42454 1.11118 7.31841C0.78638 7.18837 0.371721 6.84281 0.216068 6.57245C-0.00287548 6.19216 -0.0620023 5.7858 0.0689652 5.56143C0.242458 5.2642 0.784059 5.19064 1.0676 5.42578C1.18873 5.52625 1.26036 5.66373 1.26036 5.79578C1.26036 6.0318 1.43485 6.26709 1.69398 6.3805C1.85756 6.45209 1.86025 6.45231 2.675 6.46067C3.58465 6.47001 3.76948 6.45154 3.96951 6.33136C4.22692 6.17671 4.35149 5.87402 4.26586 5.61122C4.21571 5.45733 3.94726 5.23125 3.7603 5.18543C3.67032 5.16337 3.34126 5.1527 2.74267 5.15239C1.72481 5.15184 1.55508 5.13199 1.13241 4.96389C0.910922 4.8758 0.808997 4.81308 0.594963 4.63316C0.154465 4.26287 -0.0208004 3.88044 0.0104459 3.35775C0.0437279 2.801 0.357809 2.33321 0.898487 2.0351C1.22171 1.8569 1.50351 1.77637 1.94235 1.73682L2.12359 1.72048L2.1429 1.5489C2.18256 1.19664 2.41023 1 2.77839 1C3.16815 1 3.42412 1.23536 3.42464 1.5942L3.42488 1.71954L3.61064 1.7358C4.20265 1.7876 4.58422 1.93148 4.9597 2.2445C5.35709 2.57579 5.55704 2.95421 5.55704 3.37503C5.55704 3.59737 5.52354 3.68818 5.40153 3.7965C5.22854 3.95011 4.97487 4.007 4.74614 3.94348C4.46742 3.86609 4.3409 3.7146 4.2935 3.40153C4.24962 3.11175 4.04166 2.89176 3.74485 2.82117C3.58593 2.78337 1.96043 2.78758 1.80501 2.8262C1.73619 2.84331 1.62133 2.89886 1.54979 2.94965C1.11079 3.26129 1.19682 3.80146 1.72257 4.03448C1.85321 4.09238 1.89315 4.09478 2.84078 4.10168C3.93165 4.10961 4.04606 4.12271 4.44579 4.28511C4.87567 4.45978 5.24909 4.80495 5.43697 5.20132C5.51769 5.37163 5.5373 5.45739 5.55 5.69559C5.56786 6.031 5.5259 6.2449 5.39534 6.4837C5.17313 6.89014 4.79046 7.207 4.3197 7.37435C4.13204 7.44107 3.75042 7.5106 3.57194 7.5106H3.42487L3.42454 7.66466C3.42421 7.89044 3.31279 8.07374 3.11896 8.16795C2.93909 8.25537 2.74303 8.27513 2.57316 8.22297ZM11.4378 7.23022C11.1812 7.01707 10.9779 6.83817 10.9859 6.83268C10.9939 6.82718 11.0827 6.77814 11.1831 6.72369C11.3972 6.60764 11.5853 6.4454 11.7094 6.26975C11.7582 6.20068 11.8078 6.14417 11.8197 6.14417C11.8545 6.14417 12.7289 6.87907 12.7286 6.90811C12.7285 6.92265 12.6733 6.9606 12.6061 6.99243C12.4066 7.0869 12.156 7.2899 12.03 7.45928C11.9651 7.54644 11.9103 7.61776 11.9081 7.61776C11.9058 7.61776 11.6943 7.44337 11.4378 7.23022ZM15.3363 7.50449C15.2058 7.31987 14.9708 7.1186 14.7593 7.01029L14.566 6.91138L17.141 4.77573L19.716 2.64007L19.3157 2.63023C18.9615 2.62152 18.8992 2.61275 18.7749 2.55398C18.3874 2.37079 18.3665 1.92612 18.7352 1.71002L18.8724 1.62964L20.0569 1.6212C21.3248 1.61219 21.4053 1.61848 21.5837 1.7431C21.8005 1.89441 21.8053 1.92162 21.8053 3.00945C21.8053 3.90737 21.8003 3.9964 21.7449 4.09766C21.5456 4.46166 20.9159 4.48033 20.6754 4.12936C20.5988 4.01764 20.5834 3.89607 20.5793 3.37121C20.5792 3.35651 19.4183 4.30713 17.9995 5.48371L15.42 7.62293L15.3363 7.50449ZM9.71621 6.49169C9.34669 6.41488 9.00682 6.18155 8.82845 5.88224C8.70997 5.68341 8.7068 5.67036 8.7068 5.38198C8.7068 5.10426 8.71323 5.0746 8.81045 4.90438C9.10868 4.38223 9.81778 4.12224 10.4696 4.29606C10.877 4.40471 11.2102 4.66669 11.3622 4.99801C11.4377 5.16246 11.4381 5.58071 11.3629 5.75568C11.2307 6.06348 10.9249 6.32673 10.5643 6.44299C10.3641 6.50757 9.91629 6.53328 9.71621 6.49169Z" fill="#313131"/>
</svg>
