<svg width="89" height="21" viewBox="0 0 89 21" fill="none" xmlns="http://www.w3.org/2000/svg">
<path d="M6.82335 20.5049C2.6355 19.0833 0 15.2369 0 10.5464C0 7.50891 0.957841 5.12793 3.00307 3.08148C5.10691 0.976391 7.37472 0.0235733 10.2812 0.0235733C13.2048 0.0235733 15.4733 0.982965 17.5741 3.1079C20.7733 6.34393 21.4743 11.3691 19.3241 15.6528C18.1634 17.9651 15.3296 20.1983 12.827 20.7729C11.1366 21.161 8.39569 21.0387 6.82335 20.5049ZM12.0417 16.2966C13.2101 15.9735 14.1171 15.1056 14.8092 13.6487C15.3253 12.5622 15.4215 12.089 15.4217 10.6378C15.4224 6.7585 13.5288 4.49665 10.2812 4.49665C7.045 4.49665 5.0162 6.92789 5.05486 10.7598C5.08068 13.3193 6.15331 15.2486 8.03222 16.1149C8.99046 16.5568 10.804 16.639 12.0417 16.2966ZM71.8133 20.6707C70.566 20.3362 68.4721 19.3374 67.7433 18.7294L67.2677 18.3325L68.3265 16.626C68.9089 15.6874 69.4226 14.8235 69.4682 14.7061C69.5138 14.5888 69.8347 14.6974 70.1813 14.9474C71.8896 16.1798 73.0873 16.6109 74.8248 16.6186C76.402 16.6256 76.5339 16.59 77.0202 16.0275C77.6981 15.2434 77.6931 14.3083 77.0075 13.6255C76.7159 13.3351 75.4783 12.621 74.2571 12.0388C70.5364 10.2646 69.1033 8.58587 69.1275 6.03001C69.1499 3.6588 70.5569 1.68444 73.0298 0.553899C74.6884 -0.204332 76.9706 -0.183335 79.3583 0.612133C80.3007 0.926116 81.2981 1.35341 81.5747 1.56167L82.0775 1.94033L81.1974 3.68357C80.7134 4.64235 80.2337 5.42681 80.1315 5.42681C80.0292 5.42681 79.3813 5.16953 78.6916 4.85508C76.9583 4.06478 75.0286 4.02824 74.235 4.77071C73.5527 5.40897 73.5123 6.32416 74.1387 6.94803C74.3898 7.19808 75.6669 7.9073 76.9767 8.52408C78.2866 9.14087 79.8568 10.0424 80.4661 10.5275C82.4416 12.1003 83.1003 14.2016 82.3727 16.6093C81.7669 18.6143 80.5435 19.7795 78.2293 20.5559C76.6524 21.085 73.5637 21.1402 71.8133 20.6707ZM84.6467 20.5669C83.9309 20.1323 83.3209 19.0486 83.3209 18.2116C83.3209 17.4437 84.0019 16.2765 84.696 15.855C87.276 14.2881 90.1751 17.3539 88.5087 19.8869C87.7694 21.0105 85.915 21.3371 84.6467 20.5669ZM20.1341 20.1924C20.1341 19.8662 20.5196 15.3335 20.9909 10.1198C21.4621 4.90614 21.8476 0.56239 21.8476 0.467029C21.8476 0.371667 22.9755 0.320682 24.354 0.353742L26.8604 0.413839L29.1076 6.24537L31.3547 12.0769L32.4163 9.33848C33.0002 7.83235 34.0203 5.20816 34.6831 3.50695L35.8883 0.413839L38.3995 0.353742C40.688 0.298968 40.9108 0.327358 40.9108 0.673718C40.9109 0.882756 41.2964 5.31429 41.7676 10.5216C42.2388 15.7288 42.6243 20.1718 42.6243 20.3947C42.6243 20.7717 42.4626 20.7959 40.3217 20.7396L38.0192 20.679L37.5545 14.8643C37.2989 11.6663 37.0565 8.95003 37.0157 8.82827C36.9749 8.70651 36.2792 10.5072 35.4696 12.8298C34.66 15.1523 33.7111 17.8487 33.3609 18.8217L32.7242 20.5908L31.3279 20.5283L29.9316 20.4657L27.8436 14.502C25.4319 7.61352 25.6918 7.58331 25.1695 14.8128C24.9873 17.3353 24.7875 19.7111 24.7255 20.0924L24.6127 20.7857H22.3734H20.1341V20.1924ZM43.0527 10.5464V0.30718H45.3843H47.7158L51.7565 6.5919L55.7971 12.8766L55.8539 6.5919L55.9106 0.30718H58.2656H60.6206L60.565 10.4931L60.5094 20.679L58.2397 20.7393L55.9701 20.7995L51.921 14.5027L47.872 8.20602L47.8153 14.4959L47.7585 20.7857H45.4056H43.0527V10.5464ZM62.1158 10.5464V0.30718H64.4719H66.828V10.5464V20.7857H64.4719H62.1158V10.5464Z" fill="#313131"/>
</svg>
