<svg width="60" height="60" viewBox="0 0 60 60" fill="none" xmlns="http://www.w3.org/2000/svg">
<circle cx="30" cy="30" r="30" fill="#E13F24"/>
<path d="M30.2188 16C24.0734 16 18 20.1113 18 26.7652C18 30.9968 20.3719 33.4011 21.8094 33.4011C22.4023 33.4011 22.7437 31.7421 22.7437 31.2733C22.7437 30.7143 21.3242 29.5241 21.3242 27.198C21.3242 22.3654 24.9898 18.9392 29.7336 18.9392C33.8125 18.9392 36.8312 21.2654 36.8312 25.539C36.8312 28.7307 35.5555 34.7174 31.4227 34.7174C29.9313 34.7174 28.6555 33.6355 28.6555 32.0847C28.6555 29.8126 30.2367 27.6127 30.2367 25.2685C30.2367 21.2894 24.6125 22.0107 24.6125 26.8193C24.6125 27.8291 24.7383 28.9471 25.1875 29.8667C24.3609 33.4371 22.6719 38.7566 22.6719 42.4352C22.6719 43.5712 22.8336 44.6892 22.9414 45.8252C23.1451 46.0536 23.0432 46.0296 23.3547 45.9154C26.3734 41.768 26.2656 40.9565 27.6313 35.5289C28.368 36.9354 30.2727 37.6927 31.782 37.6927C38.143 37.6927 41 31.4716 41 25.8636C41 19.895 35.8609 16 30.2188 16Z" fill="white"/>
</svg>
