<svg width="70" height="70" viewBox="0 0 70 70" fill="none" xmlns="http://www.w3.org/2000/svg">
<g filter="url(#filter0_d)">
<circle cx="34" cy="33" r="32" fill="#313131"/>
<circle cx="34" cy="33" r="31.5" stroke="#C4C4C4"/>
</g>
<path d="M34.6481 14.1246C34.9231 14.2271 42.5643 19.8308 45.2526 21.9014C46.0573 22.5212 46.1518 22.7102 45.8217 23.0397C45.6556 23.2055 45.6069 23.2109 44.0781 23.233L42.5053 23.2557L42.4815 31.6578L42.4577 40.0598L42.2069 40.3253C41.7228 40.8378 42.2385 40.8073 34.0353 40.8073L26.6333 40.8073L26.2537 40.6277C26.0005 40.5079 25.8116 40.3438 25.6865 40.1351C25.4994 39.823 25.4989 39.8011 25.4989 31.539L25.4989 23.2557L23.9247 23.233C22.3944 23.2109 22.3457 23.2055 22.1796 23.0397C21.8438 22.7045 21.9407 22.52 22.7974 21.8635C25.7817 19.5766 33.0786 14.2267 33.353 14.1246C33.5369 14.0561 33.8284 14 34.0007 14C34.1729 14 34.4643 14.0561 34.6481 14.1246L34.6481 14.1246ZM41.518 42.1603C41.8487 42.2606 42.1785 42.5149 42.3319 42.7875C42.4659 43.0258 42.4989 43.2632 42.5005 44.0005C42.5015 44.5046 42.4597 45.0087 42.4074 45.1206C42.2662 45.4232 41.7923 45.7856 41.4325 45.8663C41.2361 45.9104 38.4065 45.9364 34.0007 45.9347C26.4811 45.9318 26.4765 45.9316 26.0173 45.6019C25.6288 45.3229 25.5029 44.9467 25.5014 44.0594C25.5006 43.6023 25.5395 43.113 25.588 42.9721C25.688 42.6816 26.1368 42.2989 26.5115 42.1848C26.7758 42.1044 41.2557 42.0807 41.518 42.1603ZM41.7006 47.3333C41.9669 47.447 42.1555 47.5993 42.2963 47.8144C42.4812 48.0967 42.5024 48.2268 42.5024 49.078C42.5024 50.2448 42.3543 50.5681 41.697 50.8359L41.2943 51L33.9042 50.9804L26.514 50.9609L26.1757 50.7525C25.6365 50.4203 25.5032 50.0933 25.5009 49.0977C25.4982 47.9435 25.6874 47.5813 26.4386 47.3028C26.7765 47.1775 27.2034 47.1699 34.0537 47.1684L41.3109 47.1669L41.7006 47.3333Z" fill="white"/>
<defs>
<filter id="filter0_d" x="0" y="0" width="70" height="70" filterUnits="userSpaceOnUse" color-interpolation-filters="sRGB">
<feFlood flood-opacity="0" result="BackgroundImageFix"/>
<feColorMatrix in="SourceAlpha" type="matrix" values="0 0 0 0 0 0 0 0 0 0 0 0 0 0 0 0 0 0 127 0" result="hardAlpha"/>
<feOffset dx="1" dy="2"/>
<feGaussianBlur stdDeviation="1.5"/>
<feComposite in2="hardAlpha" operator="out"/>
<feColorMatrix type="matrix" values="0 0 0 0 0 0 0 0 0 0 0 0 0 0 0 0 0 0 0.15 0"/>
<feBlend mode="normal" in2="BackgroundImageFix" result="effect1_dropShadow"/>
<feBlend mode="normal" in="SourceGraphic" in2="effect1_dropShadow" result="shape"/>
</filter>
</defs>
</svg>
