<svg width="27" height="26" viewBox="0 0 27 26" fill="none" xmlns="http://www.w3.org/2000/svg">
<path d="M4.41896 23.1117L0.00414227 20.2235L0.0021643 19.7492L0.000193497 19.2749L0.345492 19.5148C0.535395 19.6469 2.55168 20.9695 4.82608 22.4544L8.96135 25.154L9.91154 24.6512C10.4342 24.3748 11.9071 23.5928 13.1847 22.9138L15.5077 21.6791L15.546 21.1066C15.5669 20.7915 15.5605 20.534 15.5318 20.534C15.503 20.534 14.0021 21.3212 12.1964 22.2833L8.9133 24.0327L4.45666 21.1054L7.16655e-06 18.1783V17.7339C7.16655e-06 17.4115 0.0430647 17.3152 0.156962 17.383C0.243305 17.4343 2.23511 18.7368 4.58322 20.2774C6.93133 21.8179 8.92507 23.0709 9.01377 23.0616C9.10245 23.0511 10.6132 22.2703 12.371 21.3236L15.5669 19.6025L15.5688 19.0745C15.5697 18.7841 15.5347 18.5466 15.4908 18.5466C15.4175 18.5466 11.0935 20.8344 9.58731 21.67L8.94069 22.0288L5.0041 19.4393C2.83898 18.015 0.827363 16.6998 0.533851 16.5165C0.0724225 16.2285 0.00018633 16.1246 0.00018633 15.75C0.00018633 15.5119 0.02539 15.3168 0.0559278 15.3168C0.0864561 15.3168 2.03217 16.5748 4.37947 18.1125C6.72675 19.6501 8.73576 20.9417 8.84393 20.9828C9.06781 21.0678 15.4274 17.7427 15.5257 17.4892C15.5594 17.4017 15.5694 17.1318 15.5473 16.889L15.5076 16.4475L13.3102 17.6328C12.1016 18.2847 10.656 19.0644 10.0979 19.3655C9.5397 19.6665 9.02116 19.913 8.94555 19.913C8.83546 19.913 5.28394 17.6232 0.596709 14.5301C0.0830177 14.1912 0.000467467 14.0789 0.000257996 13.7196C8.7037e-05 13.4229 0.0483633 13.321 0.167583 13.3662C0.25975 13.4014 2.22329 14.6716 4.53104 16.1892C6.8388 17.7068 8.79408 18.9745 8.8761 19.0063C8.95814 19.0379 9.83395 18.632 10.8224 18.1038C16.1215 15.2723 15.5704 15.6334 15.5704 14.9934V14.443L14.9739 14.7426C14.6459 14.9073 13.1637 15.692 11.6802 16.4861C10.1966 17.2802 8.92391 17.9075 8.85187 17.8802C8.77983 17.8521 7.70515 17.1627 6.46371 16.3465C5.22226 15.5303 3.2857 14.2638 2.16023 13.5319C1.03477 12.8001 0.0840861 12.1244 0.0476146 12.0304C0.0111214 11.9363 -0.000344476 11.7185 0.0220586 11.5463L0.0628148 11.2334L0.879006 11.7683C1.32791 12.0627 3.32825 13.3778 5.32422 14.691C8.48832 16.7728 8.987 17.0618 9.21681 16.9468C9.36176 16.8745 10.0206 16.5198 10.6808 16.1591C11.3411 15.7983 12.7114 15.0592 13.7259 14.5167L15.5704 13.5303V12.995C15.5704 12.7006 15.5399 12.4597 15.5022 12.4597C15.4647 12.4597 15.0833 12.6472 14.6546 12.8763C14.2259 13.1053 12.8016 13.8668 11.4894 14.5682C10.1772 15.2697 9.06755 15.8642 9.02345 15.8895C8.97935 15.9141 8.18827 15.4426 7.26551 14.8403C6.34274 14.2379 4.3305 12.9244 2.79387 11.9214C0.0374172 10.1222 0 10.0919 0 9.66378C0 9.4253 0.0262764 9.22984 0.0587585 9.22984C0.0910622 9.22984 1.80035 10.3377 3.85717 11.6918C5.91399 13.0459 7.9081 14.3502 8.28852 14.5903L8.9802 15.0269L12.2735 13.2774L15.5668 11.528L15.5687 11.0621C15.5696 10.8061 15.5257 10.5963 15.4708 10.5963C15.4161 10.5963 13.9456 11.351 12.2032 12.2733C10.4608 13.1957 8.98169 13.9503 8.91624 13.9503C8.85078 13.9503 7.1993 12.9008 5.24625 11.618C3.29321 10.3352 1.31619 9.04039 0.852891 8.74066C0.389585 8.44106 0.031107 8.16268 0.0562718 8.1224C0.0814741 8.082 1.51998 7.40787 3.25303 6.62401C4.98609 5.84018 6.40404 5.16847 6.40404 5.13134C6.40404 5.09411 6.25166 4.97224 6.06545 4.86055L5.72687 4.65719L6.15963 4.47561C7.03769 4.10704 9.28567 3.14521 11.2756 2.28661C12.4011 1.80104 13.4048 1.40373 13.5062 1.40373C13.6075 1.40373 13.7962 1.46906 13.9257 1.54914C14.117 1.6675 14.2868 1.6359 14.8343 1.38055C15.2047 1.20775 16.031 0.826533 16.6707 0.533227L17.8337 0L19.2448 0.662865C22.4221 2.15542 26.9971 4.38025 26.9971 4.43283C26.9971 4.46443 26.0648 4.97926 24.9252 5.57842L22.8534 6.66774V7.15263V7.6375L23.8265 7.10505C25.9521 5.94207 26.7944 5.50325 26.9013 5.50325C26.9627 5.50325 26.9953 5.68484 26.9737 5.90698C26.9362 6.29143 26.8385 6.36171 24.9253 7.38072L22.9162 8.45072L22.8779 9.02666C22.8569 9.34346 22.8611 9.60263 22.8874 9.60263C22.9137 9.60263 23.8193 9.12746 24.8999 8.54671C25.9804 7.96596 26.8944 7.49083 26.9309 7.49083C26.9674 7.49083 26.9971 7.67241 26.9969 7.89456C26.9965 8.28895 26.9488 8.32379 24.925 9.40412L22.8535 10.51V11.0501C22.8535 11.3472 22.8872 11.5902 22.9288 11.5902C22.9703 11.5902 23.719 11.2066 24.5926 10.7377C25.4663 10.2688 26.3647 9.79222 26.5891 9.6786L26.9972 9.47208V9.90349C26.9972 10.3342 26.9935 10.3368 24.9292 11.4284L22.8612 12.5219L22.8574 13.1069L22.8537 13.6918L23.8268 13.1734C24.362 12.8882 25.2802 12.3924 25.8673 12.0714L26.9346 11.4877L26.9759 11.8751C27.0266 12.3504 27.0194 12.3559 24.9256 13.4536C22.7688 14.5843 22.8284 14.5347 22.8766 15.163L22.9165 15.6833L24.7939 14.6792C27.165 13.411 26.9974 13.4649 26.9974 13.9701C26.9974 14.3544 26.9378 14.4195 26.2736 14.7598C25.8754 14.9639 24.9431 15.461 24.2017 15.8647L22.8537 16.5988V17.138C22.8537 17.4345 22.8775 17.6772 22.9066 17.6772C22.9357 17.6772 23.8492 17.2021 24.9365 16.6213C26.0239 16.0406 26.9325 15.5654 26.9555 15.5654C26.9786 15.5654 26.9974 15.7565 26.9974 15.9902C26.9974 16.4121 26.9836 16.4224 24.9313 17.5119C23.0443 18.5137 22.8619 18.6402 22.828 18.9699C22.7933 19.3067 22.5578 19.4541 19.3029 21.1749C17.3846 22.189 15.764 23.0188 15.7016 23.0188C15.6392 23.0188 15.5702 22.9078 15.5481 22.7723C15.5126 22.5541 15.2554 22.6623 13.3106 23.7126C10.1328 25.4287 9.03873 26 8.93012 26C8.87733 26 6.84748 24.7003 4.41933 23.1118L4.41896 23.1117ZM19.0005 20.3908C20.3253 19.6971 21.537 19.0526 21.6931 18.9586L21.9768 18.7875L21.9442 12.9953L21.9115 7.20314L20.5302 6.39757C18.8203 5.40034 15.4145 3.40793 14.2948 2.74987L13.4589 2.25851L10.6534 3.4617C9.11038 4.12347 7.80598 4.70208 7.75473 4.74756C7.70346 4.79287 9.34213 5.83109 11.3962 7.05433C13.4502 8.27764 15.4275 9.46488 15.7901 9.69269L16.4493 10.1068V15.8794C16.4493 19.0543 16.4812 21.652 16.5204 21.652C16.5596 21.652 17.6755 21.0844 19.0003 20.3907L19.0005 20.3908ZM15.6523 7.84613C14.9256 7.73865 14.8335 7.66946 15.0853 7.42045C15.2345 7.27293 15.3503 7.25993 15.6196 7.36109C16.025 7.51352 16.6982 7.52757 16.9201 7.38919C17.0234 7.32422 16.7453 7.11629 16.1039 6.77908L15.1309 6.26745L14.4431 6.44482C13.1799 6.77076 11.8198 6.24498 11.8074 5.42578C11.8055 5.28038 11.8888 5.09142 11.9933 5.00558C12.1377 4.88687 12.1491 4.80889 12.0408 4.67964C11.9624 4.58622 11.9476 4.50649 12.0077 4.50263C12.0679 4.49909 12.3433 4.46293 12.6195 4.4236C13.3519 4.31929 14.6671 4.32034 14.7733 4.42536C14.8236 4.47524 14.7817 4.59817 14.6802 4.69862C14.5475 4.82997 14.3908 4.85315 14.1226 4.78151C13.9174 4.72672 13.58 4.71618 13.3729 4.75692C13.01 4.83032 13.0306 4.8507 13.9339 5.30725C14.7741 5.73206 14.912 5.76686 15.2612 5.64197C16.1229 5.33359 17.5101 5.54995 18.1084 6.08556C18.3903 6.33809 18.3985 6.91055 18.124 7.18198C17.913 7.39061 17.9753 7.49984 18.3955 7.65747C18.4646 7.68205 18.4805 7.74773 18.431 7.80041C18.3814 7.8531 18.173 7.82852 17.9677 7.74352C17.7625 7.65957 17.5384 7.6248 17.4698 7.66695C17.1944 7.83554 16.2261 7.93072 15.6522 7.84573L15.6523 7.84613ZM17.5546 6.72316C17.5942 6.39582 17.3068 6.1272 16.721 5.94393C16.4026 5.84419 15.5692 5.95799 15.5724 6.09882C15.5752 6.21965 17.2357 7.10294 17.3911 7.06634C17.4602 7.04878 17.5338 6.89565 17.5546 6.7232L17.5546 6.72316ZM14.2939 6.0153C14.412 5.94119 14.2038 5.77822 13.5879 5.46307C13.1075 5.21722 12.6789 5.05095 12.6356 5.09383C12.4307 5.29649 12.5768 5.75431 12.9021 5.92887C13.2825 6.13293 14.032 6.17964 14.2939 6.01527V6.0153ZM11.8256 11.5162C13.3328 10.7241 14.5641 10.0393 14.5619 9.99446C14.5562 9.87293 7.57715 5.75083 7.38523 5.7555C7.14705 5.76257 1.82079 8.17874 1.82079 8.28105C1.82079 8.38501 8.80397 12.9498 8.96894 12.9537C9.03295 12.9555 10.3184 12.3083 11.8256 11.5162ZM23.55 5.3419C24.356 4.91165 25.013 4.5127 25.01 4.45531C25.0072 4.39806 23.389 3.579 21.4144 2.63548L17.8242 0.919995L16.4295 1.56706L15.0348 2.21408L17.2756 3.51694C18.5081 4.23351 19.9988 5.10799 20.5884 5.46023C21.178 5.81247 21.7559 6.10595 21.8725 6.11242C21.9891 6.11948 22.744 5.77208 23.55 5.3419Z" fill="#313131"/>
</svg>
