<svg width="16" height="16" viewBox="0 0 16 16" fill="none" xmlns="http://www.w3.org/2000/svg">
<path d="M11.4309 11.0668L10.9154 11.8401C10.8125 11.9944 10.6764 12.1261 10.4971 12.1735C9.90962 12.3287 8.35006 12.3988 5.97566 10.0244C3.60127 7.65004 3.67135 6.09046 3.82657 5.50302C3.87396 5.32368 4.00565 5.1876 4.15999 5.0847L4.93324 4.5692C5.50894 4.1854 5.66451 3.40757 5.28071 2.83187L3.8203 0.64126C3.4853 0.138762 2.83949 -0.0532187 2.2844 0.18468L1.6256 0.467021C1.12514 0.681503 0.716904 1.06643 0.473403 1.55343C0.269966 1.96031 0.112288 2.38877 0.0909242 2.84317C0.0235984 4.27515 0.337595 7.80312 4.26729 11.7328C8.19698 15.6625 11.7249 15.9765 13.1569 15.9092C13.6113 15.8878 14.0398 15.7301 14.4466 15.5267C14.9336 15.2832 15.3186 14.8749 15.5331 14.3745L15.8154 13.7157C16.0533 13.1606 15.8613 12.5148 15.3588 12.1798L13.1682 10.7194C12.5925 10.3356 11.8147 10.4911 11.4309 11.0668Z" fill="white"/>
</svg>
