<svg width="33" height="29" viewBox="0 0 33 29" fill="none" xmlns="http://www.w3.org/2000/svg">
<path d="M1.40014 28.8938C0.941014 28.7289 0.499158 28.3352 0.238733 27.8589L0 27.4226V15.9769V4.53125L0.176669 4.1956C0.415709 3.74161 0.791997 3.37375 1.23333 3.16272C1.54943 3.01143 1.71476 2.98266 2.43213 2.95388L3.26428 2.92016L3.69879 1.97901C4.24677 0.792149 4.37966 0.580128 4.72267 0.345367C5.22773 -0.000308931 5.22395 4.69166e-07 8.8314 4.69166e-07C12.6432 4.69166e-07 12.6134 -0.00309336 13.1172 0.493191C13.3365 0.709451 13.5104 1.0167 13.8917 1.86209L14.3834 2.95221L22.8917 2.97077L31.4 2.98934L31.7667 3.16476C32.2081 3.37576 32.5844 3.74374 32.8233 4.1977L33 4.53335V15.979V27.4247L32.7613 27.861C32.6033 28.1497 32.4117 28.3822 32.1946 28.5484C31.5503 29.0414 32.9027 29.0028 16.4713 28.9969C3.8295 28.9938 1.6275 28.9784 1.3998 28.8958L1.40014 28.8938ZM31.2832 27.8899C31.4181 27.833 31.5852 27.7349 31.6546 27.6718C31.9864 27.3692 31.9701 27.9759 31.9676 16.0691C31.9654 5.41182 31.9615 4.9384 31.8423 4.67338C31.7747 4.52147 31.657 4.34116 31.5808 4.27304C31.2294 3.95901 31.4561 3.96675 22.3604 3.9635C14.2822 3.96071 13.7813 3.95422 13.6823 3.84315C13.6245 3.77849 13.3605 3.22725 13.0957 2.61805C12.8309 2.00884 12.5718 1.44501 12.5199 1.36513C12.291 1.01274 12.2305 1.00692 8.80332 1.00692C5.44508 1.00692 5.42926 1.00819 5.15768 1.31891C5.09776 1.38728 4.81592 1.9805 4.5311 2.63713C4.24628 3.29374 3.98027 3.85261 3.93995 3.87904C3.89971 3.90688 3.40168 3.94215 2.83336 3.96071C1.66456 3.99877 1.44764 4.07488 1.15338 4.55148L1.00007 4.79992L0.981632 15.8327C0.969342 23.1418 0.987778 26.9509 1.03171 27.1186C1.1245 27.4653 1.33712 27.7182 1.66035 27.866C1.92243 27.9858 2.46276 27.9904 16.4844 27.992C29.4314 27.9933 31.0637 27.9827 31.282 27.8902L31.2832 27.8899ZM10.8668 25.6514C9.95781 25.411 9.32598 24.5524 9.37493 23.6239L9.39336 23.2837L8.51644 22.792C7.76251 22.3692 7.62803 22.3142 7.55761 22.3996C7.51244 22.4544 7.32379 22.5787 7.13818 22.6762C6.86749 22.8185 6.70831 22.8535 6.33399 22.8538C5.74625 22.8543 5.35429 22.6846 4.94168 22.2508C4.04663 21.3102 4.36697 19.7503 5.56731 19.2043C6.01958 18.9985 6.70511 19.0134 7.15373 19.2386C7.34392 19.3342 7.52642 19.402 7.55911 19.3896C7.59168 19.3772 8.03556 19.0653 8.54529 18.6965L9.47205 18.026L9.46977 17.3875C9.46701 16.6348 9.57147 16.3774 10.0658 15.9185C10.4839 15.5304 10.7707 15.4168 11.3341 15.4157C11.9119 15.4147 12.3543 15.6211 12.754 16.0782C13.3842 16.7993 13.389 17.8345 12.7663 18.5479C12.1872 19.2103 11.2902 19.4064 10.5369 19.0353C10.3261 18.9313 10.1343 18.8766 10.0858 18.9063C10.0394 18.9341 9.58902 19.2558 9.08473 19.6198C8.21429 20.2481 8.17035 20.2908 8.21776 20.4621C8.24542 20.5614 8.26478 20.8111 8.26108 21.0172L8.25491 21.3918L9.11143 21.8769L9.96798 22.362L10.2018 22.1825C10.9456 21.6113 12.0561 21.7187 12.6519 22.4195C13.007 22.8373 13.1269 23.1343 13.1564 23.6689C13.1779 24.0508 13.1536 24.2119 13.0353 24.4888C12.8709 24.8736 12.3622 25.3961 12.0059 25.546C11.7202 25.6663 11.1313 25.7211 10.8691 25.6515L10.8668 25.6514ZM11.7893 24.4547C12.0311 24.3318 12.2597 23.8357 12.2001 23.5624C12.115 23.1723 11.7048 22.8242 11.3302 22.8242C10.842 22.8242 10.3809 23.3446 10.456 23.8108C10.511 24.1521 10.6723 24.3621 10.9887 24.505C11.2781 24.6355 11.4546 24.6248 11.7893 24.4547ZM6.65229 21.7252C6.99675 21.5773 7.18196 21.3265 7.2169 20.9604C7.24455 20.6805 7.22304 20.6067 7.06604 20.4188C6.72858 20.015 6.39712 19.9202 5.9946 20.1125C5.50346 20.3473 5.3428 21.0144 5.68019 21.4181C5.85132 21.6227 6.16662 21.8088 6.35229 21.8146C6.3993 21.8161 6.53431 21.7759 6.65229 21.7252ZM11.9037 17.9538C12.3181 17.554 12.3011 17.0412 11.8604 16.6516C11.5654 16.3907 11.1656 16.3709 10.8266 16.6002C10.5679 16.7753 10.3884 17.197 10.4564 17.4698C10.5099 17.6849 10.807 18.0496 10.9947 18.1309C11.2509 18.242 11.6947 18.1556 11.9037 17.9538ZM25.0335 24.771C24.9023 24.6388 24.9002 24.5473 24.9002 19.2376V13.8385L25.0759 13.6993C25.2987 13.5226 25.5018 13.5226 25.7246 13.6993L25.9004 13.8385V19.2259V24.6133L25.7461 24.7593C25.5498 24.9453 25.2119 24.9498 25.0335 24.771ZM18.7935 24.7864C18.5836 24.6453 18.5667 24.425 18.5667 21.8169C18.5667 20.2318 18.5913 19.1414 18.6319 19.0673C18.7197 18.9017 19.0655 18.7863 19.2552 18.8587C19.6049 18.9927 19.6 18.9494 19.6 21.8537C19.6 24.416 19.5938 24.5624 19.4731 24.6964C19.3449 24.839 18.9496 24.8913 18.7935 24.7864ZM21.8605 24.6964C21.7385 24.5606 21.7336 24.3935 21.7336 20.4948V16.4346L21.8909 16.3062C22.11 16.1277 22.4046 16.1425 22.6032 16.3427L22.767 16.5076V20.4958C22.767 24.429 22.765 24.4865 22.6287 24.6609C22.4496 24.8902 22.0511 24.9083 21.8605 24.6964ZM28.1695 24.6902C28.0346 24.5445 28.0336 24.4928 28.0336 17.8765C28.0336 11.2992 28.0354 11.2079 28.167 11.0754C28.2552 10.9867 28.3891 10.9412 28.5632 10.9412C29.0678 10.9412 29.0337 10.4347 29.0337 17.9272C29.0337 24.3209 29.0275 24.6198 28.9117 24.726C28.7335 24.8884 28.3352 24.8693 28.1695 24.6902ZM17.3668 17.7885C17.2338 17.6545 17.1966 17.4261 17.275 17.2211C17.306 17.14 25.2484 9.87067 27.7747 7.61136C28.1496 7.27608 28.3802 7.23533 28.658 7.45543C29.0767 7.78709 29.3214 7.53185 23.3915 12.9502C18.4489 17.4663 17.9287 17.9228 17.7248 17.9228C17.5893 17.9228 17.4475 17.8695 17.3668 17.7885ZM4.10016 13.8949C3.92594 13.7195 3.91949 13.2876 4.08787 13.1333C4.19817 13.0328 4.55894 13.0223 7.88787 13.0223C11.4771 13.0223 11.5692 13.0254 11.6993 13.1565C11.8978 13.3564 11.8772 13.7157 11.6569 13.8901C11.4842 14.0268 11.4225 14.0293 7.85689 14.0293C4.32146 14.0293 4.23021 14.0261 4.10016 13.8949ZM4.20001 11.1966C4.00982 11.088 3.96896 11.0064 3.96773 10.7334C3.96699 10.5725 4.01351 10.4494 4.10691 10.3642C4.24272 10.2405 4.46455 10.2358 10.7903 10.2163C15.2269 10.2039 17.4112 10.2191 17.5753 10.2671C17.8537 10.3484 18.0012 10.6114 17.9295 10.8989C17.8303 11.2976 18.2088 11.2771 10.9684 11.2749C6.14804 11.2733 4.29689 11.2532 4.20001 11.1966ZM4.10016 8.32313C3.92594 8.14771 3.91949 7.71587 4.08787 7.56155C4.1997 7.45976 4.77171 7.45048 10.9497 7.45048H17.6896L17.8331 7.63395C18.0052 7.85423 17.9729 8.16064 17.7584 8.33987C17.6266 8.45001 17.2013 8.45744 10.9253 8.45744C4.32159 8.45744 4.23172 8.4556 4.10016 8.32313Z" fill="black"/>
</svg>
