<svg width="164" height="25" viewBox="0 0 164 25" fill="none" xmlns="http://www.w3.org/2000/svg">
<path d="M37.5254 13.4336V19H35.6504V4.78125H40.8945C42.4505 4.78125 43.668 5.17839 44.5469 5.97266C45.4323 6.76693 45.875 7.81836 45.875 9.12695C45.875 10.5072 45.4421 11.5716 44.5762 12.3203C43.7168 13.0625 42.4831 13.4336 40.875 13.4336H37.5254ZM37.5254 11.9004H40.8945C41.8971 11.9004 42.6654 11.666 43.1992 11.1973C43.7331 10.722 44 10.0384 44 9.14648C44 8.30013 43.7331 7.62305 43.1992 7.11523C42.6654 6.60742 41.9329 6.34375 41.002 6.32422H37.5254V11.9004ZM53.0918 10.0547C52.8184 10.0091 52.5221 9.98633 52.2031 9.98633C51.0182 9.98633 50.2142 10.4909 49.791 11.5V19H47.9844V8.43359H49.7422L49.7715 9.6543C50.3639 8.71029 51.2038 8.23828 52.291 8.23828C52.6426 8.23828 52.9095 8.28385 53.0918 8.375V10.0547ZM56.7246 19H54.918V8.43359H56.7246V19ZM54.7715 5.63086C54.7715 5.33789 54.8594 5.09049 55.0352 4.88867C55.2174 4.68685 55.4844 4.58594 55.8359 4.58594C56.1875 4.58594 56.4544 4.68685 56.6367 4.88867C56.819 5.09049 56.9102 5.33789 56.9102 5.63086C56.9102 5.92383 56.819 6.16797 56.6367 6.36328C56.4544 6.55859 56.1875 6.65625 55.8359 6.65625C55.4844 6.65625 55.2174 6.55859 55.0352 6.36328C54.8594 6.16797 54.7715 5.92383 54.7715 5.63086ZM63.8633 17.7207C64.5078 17.7207 65.071 17.5254 65.5527 17.1348C66.0345 16.7441 66.3014 16.2559 66.3535 15.6699H68.0625C68.0299 16.2754 67.8216 16.8516 67.4375 17.3984C67.0534 17.9453 66.5391 18.3815 65.8945 18.707C65.2565 19.0326 64.5794 19.1953 63.8633 19.1953C62.4245 19.1953 61.2786 18.7168 60.4258 17.7598C59.5794 16.7962 59.1562 15.4811 59.1562 13.8145V13.5117C59.1562 12.4831 59.3451 11.5684 59.7227 10.7676C60.1003 9.9668 60.6406 9.34505 61.3438 8.90234C62.0534 8.45964 62.89 8.23828 63.8535 8.23828C65.0384 8.23828 66.0215 8.5931 66.8027 9.30273C67.5905 10.0124 68.0104 10.9336 68.0625 12.0664H66.3535C66.3014 11.3828 66.041 10.8229 65.5723 10.3867C65.11 9.94401 64.5371 9.72266 63.8535 9.72266C62.9355 9.72266 62.2227 10.0547 61.7148 10.7188C61.2135 11.3763 60.9629 12.3301 60.9629 13.5801V13.9219C60.9629 15.1393 61.2135 16.0768 61.7148 16.7344C62.2161 17.3919 62.9323 17.7207 63.8633 17.7207ZM74.4785 19.1953C73.0462 19.1953 71.8809 18.7266 70.9824 17.7891C70.084 16.8451 69.6348 15.5853 69.6348 14.0098V13.6777C69.6348 12.6296 69.8333 11.6953 70.2305 10.875C70.6341 10.0482 71.194 9.40365 71.9102 8.94141C72.6328 8.47266 73.4141 8.23828 74.2539 8.23828C75.6276 8.23828 76.6953 8.69076 77.457 9.5957C78.2188 10.5007 78.5996 11.7962 78.5996 13.4824V14.2344H71.4414C71.4674 15.276 71.7702 16.1191 72.3496 16.7637C72.9355 17.4017 73.6777 17.7207 74.5762 17.7207C75.2142 17.7207 75.7546 17.5905 76.1973 17.3301C76.64 17.0697 77.0273 16.7246 77.3594 16.2949L78.4629 17.1543C77.5775 18.515 76.2493 19.1953 74.4785 19.1953ZM74.2539 9.72266C73.5247 9.72266 72.9128 9.98958 72.418 10.5234C71.9232 11.0508 71.6172 11.793 71.5 12.75H76.793V12.6133C76.7409 11.6953 76.4935 10.9857 76.0508 10.4844C75.6081 9.97656 75.0091 9.72266 74.2539 9.72266ZM87.8184 13.4336V19H85.9434V4.78125H91.1875C92.7435 4.78125 93.9609 5.17839 94.8398 5.97266C95.7253 6.76693 96.168 7.81836 96.168 9.12695C96.168 10.5072 95.735 11.5716 94.8691 12.3203C94.0098 13.0625 92.776 13.4336 91.168 13.4336H87.8184ZM87.8184 11.9004H91.1875C92.1901 11.9004 92.9583 11.666 93.4922 11.1973C94.026 10.722 94.293 10.0384 94.293 9.14648C94.293 8.30013 94.026 7.62305 93.4922 7.11523C92.9583 6.60742 92.2259 6.34375 91.2949 6.32422H87.8184V11.9004ZM103.385 10.0547C103.111 10.0091 102.815 9.98633 102.496 9.98633C101.311 9.98633 100.507 10.4909 100.084 11.5V19H98.2773V8.43359H100.035L100.064 9.6543C100.657 8.71029 101.497 8.23828 102.584 8.23828C102.936 8.23828 103.202 8.28385 103.385 8.375V10.0547ZM109.244 19.1953C107.812 19.1953 106.646 18.7266 105.748 17.7891C104.85 16.8451 104.4 15.5853 104.4 14.0098V13.6777C104.4 12.6296 104.599 11.6953 104.996 10.875C105.4 10.0482 105.96 9.40365 106.676 8.94141C107.398 8.47266 108.18 8.23828 109.02 8.23828C110.393 8.23828 111.461 8.69076 112.223 9.5957C112.984 10.5007 113.365 11.7962 113.365 13.4824V14.2344H106.207C106.233 15.276 106.536 16.1191 107.115 16.7637C107.701 17.4017 108.443 17.7207 109.342 17.7207C109.98 17.7207 110.52 17.5905 110.963 17.3301C111.406 17.0697 111.793 16.7246 112.125 16.2949L113.229 17.1543C112.343 18.515 111.015 19.1953 109.244 19.1953ZM109.02 9.72266C108.29 9.72266 107.678 9.98958 107.184 10.5234C106.689 11.0508 106.383 11.793 106.266 12.75H111.559V12.6133C111.507 11.6953 111.259 10.9857 110.816 10.4844C110.374 9.97656 109.775 9.72266 109.02 9.72266ZM117.164 8.43359L117.213 9.60547C117.988 8.69401 119.033 8.23828 120.348 8.23828C121.826 8.23828 122.831 8.80469 123.365 9.9375C123.717 9.42969 124.173 9.01953 124.732 8.70703C125.299 8.39453 125.966 8.23828 126.734 8.23828C129.052 8.23828 130.23 9.46549 130.27 11.9199V19H128.463V12.0273C128.463 11.2721 128.29 10.709 127.945 10.3379C127.6 9.96029 127.021 9.77148 126.207 9.77148C125.536 9.77148 124.98 9.97331 124.537 10.377C124.094 10.7741 123.837 11.3112 123.766 11.9883V19H121.949V12.0762C121.949 10.5397 121.197 9.77148 119.693 9.77148C118.508 9.77148 117.698 10.276 117.262 11.2852V19H115.455V8.43359H117.164ZM134.967 19H133.16V8.43359H134.967V19ZM133.014 5.63086C133.014 5.33789 133.102 5.09049 133.277 4.88867C133.46 4.68685 133.727 4.58594 134.078 4.58594C134.43 4.58594 134.697 4.68685 134.879 4.88867C135.061 5.09049 135.152 5.33789 135.152 5.63086C135.152 5.92383 135.061 6.16797 134.879 6.36328C134.697 6.55859 134.43 6.65625 134.078 6.65625C133.727 6.65625 133.46 6.55859 133.277 6.36328C133.102 6.16797 133.014 5.92383 133.014 5.63086ZM144.391 17.9551C143.688 18.7819 142.656 19.1953 141.295 19.1953C140.169 19.1953 139.309 18.8698 138.717 18.2188C138.131 17.5612 137.835 16.5911 137.828 15.3086V8.43359H139.635V15.2598C139.635 16.8613 140.286 17.6621 141.588 17.6621C142.968 17.6621 143.886 17.1478 144.342 16.1191V8.43359H146.148V19H144.43L144.391 17.9551ZM150.602 8.43359L150.65 9.60547C151.425 8.69401 152.47 8.23828 153.785 8.23828C155.263 8.23828 156.269 8.80469 156.803 9.9375C157.154 9.42969 157.61 9.01953 158.17 8.70703C158.736 8.39453 159.404 8.23828 160.172 8.23828C162.49 8.23828 163.668 9.46549 163.707 11.9199V19H161.9V12.0273C161.9 11.2721 161.728 10.709 161.383 10.3379C161.038 9.96029 160.458 9.77148 159.645 9.77148C158.974 9.77148 158.417 9.97331 157.975 10.377C157.532 10.7741 157.275 11.3112 157.203 11.9883V19H155.387V12.0762C155.387 10.5397 154.635 9.77148 153.131 9.77148C151.946 9.77148 151.135 10.276 150.699 11.2852V19H148.893V8.43359H150.602Z" fill="#626262"/>
<path d="M9.76518 24.8266C9.63416 24.6958 9.57469 23.9032 9.57469 22.288V19.9397L8.62675 20.4175C7.19104 21.1413 6.55856 21.0215 6.55856 20.026C6.55856 19.757 6.73965 18.4351 6.96099 17.0883L7.36342 14.6396L5.35948 12.6501C4.25731 11.5559 3.29861 10.556 3.22904 10.428C3.07715 10.1488 3.29553 9.50539 3.57831 9.39901C3.68954 9.35719 5.0119 9.12186 6.51689 8.87611C8.02188 8.63036 9.27503 8.39869 9.30167 8.36127C9.32831 8.32388 9.86002 7.22325 10.4833 5.91548C11.1617 4.4919 11.7764 3.41669 12.0152 3.23613C12.3921 2.95107 12.4362 2.94914 12.8211 3.20097C13.0842 3.37311 13.6555 4.32126 14.4355 5.88031C15.0995 7.20741 15.6576 8.31014 15.6757 8.33082C15.6939 8.35149 16.9538 8.52752 18.4755 8.722C20.8485 9.02525 21.2929 9.12583 21.5979 9.42856C21.8256 9.65454 21.9179 9.88451 21.8545 10.0677C21.8 10.2252 20.8419 11.2813 19.7252 12.4147L17.695 14.4754L18.2201 17.2446C18.5089 18.7676 18.705 20.123 18.656 20.2564C18.3795 21.009 17.8806 20.8992 15.1176 19.4778L12.6702 18.2187L11.1621 19.0419C9.7467 19.8144 9.68575 19.868 10.17 19.9147L10.6859 19.9643V21.8454V23.7265L11.6233 23.3461L12.5607 22.9657L13.4885 23.343L14.4164 23.7202L14.4609 21.8322L14.5055 19.9443H15.0562H15.607V22.1739C15.607 23.4077 15.5336 24.5405 15.4426 24.7102C15.2227 25.1205 14.8562 25.097 13.6297 24.594L12.5985 24.1711L11.5192 24.594C10.3135 25.0664 10.0414 25.1024 9.7652 24.8266L9.76518 24.8266ZM10.101 18.3591C11.3761 17.6616 12.4945 17.091 12.5864 17.091C12.6783 17.091 13.8242 17.6264 15.1327 18.2808C16.4412 18.9353 17.5113 19.4524 17.5106 19.4301C17.51 19.4077 17.2962 18.2481 17.0356 16.8532C16.7751 15.4582 16.5613 14.2519 16.5606 14.1725C16.56 14.0931 17.4269 13.1519 18.4872 12.0809C20.2459 10.3045 20.3817 10.1265 20.035 10.0515C19.8259 10.0063 18.7262 9.85598 17.5912 9.71747C16.4562 9.57897 15.3674 9.39981 15.1717 9.31935C14.9257 9.21825 14.4607 8.46177 13.6662 6.87057C13.0339 5.6042 12.4787 4.56808 12.4325 4.56808C12.3863 4.56808 11.8137 5.65591 11.16 6.98547L9.97155 9.40286L7.35613 9.84815C5.91764 10.0931 4.71854 10.3156 4.69145 10.3426C4.6644 10.3696 5.51614 11.2489 6.58428 12.2965L8.52635 14.2013L8.16456 16.5576C7.96558 17.8536 7.7651 19.0744 7.71906 19.2706C7.67304 19.4667 7.66854 19.6272 7.7091 19.6272C7.74966 19.6272 8.82603 19.0566 10.101 18.3591H10.101ZM2.96755 20.7689C2.20874 19.8558 1.39285 18.5226 0.954231 17.4791C-0.56192 13.872 -0.25544 9.58157 1.76021 6.19616C2.35332 5.20001 4.23078 2.97657 4.46927 2.98789C4.52699 2.99088 4.70412 3.17095 4.86283 3.38861L5.15138 3.78435L4.12622 4.89004C2.18609 6.98257 1.11427 9.71696 1.11456 12.5732C1.11485 15.2593 1.89652 17.559 3.52983 19.6789C4.33149 20.7194 4.35288 20.7727 4.0871 21.066C3.69974 21.4934 3.53275 21.4491 2.96755 20.7689ZM21.0097 20.9805L20.6408 20.5883L21.1799 19.9889C23.1669 17.7794 24.241 14.2983 23.8613 11.2987C23.532 8.69844 22.4912 6.49871 20.7475 4.71817L19.8854 3.83788L20.2889 3.4594L20.6923 3.0809L21.419 3.78486C25.0046 7.25867 26.0421 13.2008 23.8717 17.8324C23.344 18.9585 22.3277 20.4938 21.7648 21.0152L21.3787 21.3727L21.0097 20.9805ZM5.76566 2.71016L5.42998 2.28403L5.79584 2.00292C6.29332 1.62069 6.47539 1.64417 6.69182 2.11852C6.92736 2.63473 6.93988 2.58765 6.48869 2.88285C6.11884 3.12484 6.08616 3.11704 5.76566 2.71016ZM18.5023 2.85854C18.1322 2.57407 18.1445 2.50997 18.7154 1.74173C18.8006 1.62702 19.5755 2.23965 19.5755 2.42175C19.5755 2.60107 19.0828 3.14606 18.9281 3.1379C18.8913 3.1361 18.6997 3.01025 18.5023 2.85854ZM16.7181 1.98992C16.4999 1.8915 16.3031 1.8009 16.2809 1.78858C16.2324 1.76168 16.573 0.763663 16.6306 0.763663C16.7747 0.763663 17.6706 1.12521 17.6706 1.18334C17.6706 1.28156 17.1949 2.19294 17.1506 2.17959C17.1311 2.1736 16.9364 2.08834 16.7181 1.98992ZM7.68765 1.61139C7.47183 1.13841 7.56391 0.990257 8.16588 0.841914C8.5283 0.752603 8.60512 0.80363 8.75509 1.23322C8.9139 1.68814 8.89581 1.73928 8.52644 1.87951C7.95451 2.09665 7.9013 2.07964 7.68765 1.61139ZM9.81396 0.927409C9.6846 0.3393 9.66894 0.360946 10.3118 0.238965C10.7768 0.15072 10.816 0.178819 10.8883 0.652119C10.9811 1.26074 11.0143 1.21326 10.4128 1.33339C9.96415 1.42298 9.91574 1.39019 9.81396 0.927409ZM14.3597 1.25659C14.2139 1.16434 14.178 0.96722 14.2485 0.646571C14.3444 0.210561 14.3932 0.181102 14.8608 0.276602C15.1402 0.333698 15.3617 0.466607 15.353 0.57201C15.3442 0.67742 15.3264 0.906326 15.3133 1.08069C15.288 1.41802 14.7668 1.51416 14.3597 1.25659H14.3597ZM11.9558 0.6145C11.9558 0.0513022 12.1382 -0.0837457 12.725 0.0449455C13.1113 0.129667 13.16 0.203233 13.1 0.611504C13.0391 1.02549 12.9678 1.08069 12.4934 1.08069C12.0043 1.08069 11.9558 1.03864 11.9558 0.6145Z" fill="#313131"/>
</svg>
