<svg width="19" height="18" viewBox="0 0 19 18" fill="none" xmlns="http://www.w3.org/2000/svg">
<path d="M2.12602 17.3298C1.26334 17.1265 0.567042 16.5613 0.224882 15.7866C0.0381732 15.3636 0.0309921 15.1151 0.0151181 8.48722L0 1.62574L0.807685 0.813849L1.61537 0.0019578L2.15357 0.534573L2.69182 1.06719L3.21842 0.533991L3.74498 0.000786142L4.28379 0.533991L4.82264 1.06719L5.3492 0.533991L5.87577 0.000786142L6.41461 0.533991L6.95342 1.06719L7.48003 0.533991L8.00659 0.000786142L8.5454 0.533991L9.08425 1.06719L9.61119 0.533594L10.1382 0L10.9383 0.795999L11.7385 1.59199L11.765 4.11392L11.7914 6.63584L14.3142 6.68425C16.5681 6.72753 16.8675 6.75213 17.123 6.91499C17.5866 7.21055 17.8505 7.48294 18.0722 7.89494C18.2702 8.26299 18.2823 8.42892 18.3114 11.2122L18.3417 14.1421H16.6888H15.0358L15.0346 14.8927C15.0329 16.2275 14.4143 17.0886 13.2825 17.3313C12.6896 17.4584 2.66859 17.4571 2.1282 17.3298L2.12602 17.3298ZM10.8131 15.9097C10.7099 15.62 10.6827 14.1815 10.6793 8.80592L10.6755 2.06537L10.4351 1.78542L10.1947 1.50547L9.63318 2.06117L9.07162 2.61687L8.54506 2.08366L8.01849 1.55046L7.47965 2.08366L6.94084 2.61687L6.41439 2.08379L5.8879 1.5507L5.39739 2.03511C5.12753 2.30152 4.86308 2.51951 4.80945 2.51951C4.75578 2.51951 4.49877 2.30283 4.2378 2.03804L3.76354 1.55656L3.25444 2.03804C2.97438 2.30283 2.71143 2.51951 2.66997 2.51951C2.6284 2.51951 2.36534 2.29312 2.08513 2.01639L1.57569 1.51328L1.33153 1.74269L1.08737 1.97211V8.57546V15.1788L1.30772 15.5056C1.42866 15.6854 1.67509 15.9315 1.85477 16.0526L2.18169 16.2729H6.56285H10.944L10.8131 15.9097ZM2.15172 14.6748V14.1421H2.68445H3.21713V14.6748V15.2075H2.68445H2.15172V14.6748ZM4.28254 14.6748V14.1421H6.94605H9.60956V14.6748V15.2075H6.94605H4.28254V14.6748ZM2.15172 12.544V12.0113H2.68445H3.21713V12.544V13.0767H2.68445H2.15172V12.544ZM4.28254 12.544V12.0113H6.94605H9.60956V12.544V13.0767H6.94605H4.28254V12.544ZM5.34421 10.389C5.3407 9.87273 5.31776 9.8179 5.03769 9.63834C4.64886 9.38972 4.39786 9.04245 4.32011 8.64557L4.25851 8.33078H4.76515C5.19024 8.33078 5.30249 8.36978 5.46229 8.57293C5.68679 8.85829 6.02842 8.88637 6.25323 8.63794C6.58847 8.26755 6.32239 7.74966 5.7967 7.74966C5.4124 7.74966 4.81648 7.41313 4.55724 7.04966C4.37885 6.79976 4.33122 6.60614 4.33122 6.13445C4.33122 5.46648 4.50584 5.13578 5.03781 4.79559C5.31863 4.61602 5.34093 4.56118 5.34433 4.04497L5.34784 3.48805H5.88052H6.41325L6.41676 4.04497C6.42028 4.5612 6.44322 4.61603 6.72328 4.79559C7.13389 5.05812 7.37483 5.40649 7.44502 5.83905L7.5036 6.2H6.95825C6.56597 6.2 6.41287 6.16334 6.41287 6.06972C6.41287 5.88225 6.09198 5.61886 5.86332 5.61886C5.61992 5.61886 5.34746 5.90917 5.34746 6.16839C5.34746 6.45072 5.62601 6.65115 6.1017 6.71122C7.52443 6.89086 7.97105 8.76084 6.78662 9.57895C6.43552 9.82148 6.42002 9.85531 6.41662 10.389L6.4131 10.9459H5.88042H5.34769L5.34421 10.389ZM13.4614 16.1226C13.9077 15.8101 13.9169 15.7337 13.9731 11.866C14.0033 9.84173 14.0619 8.08745 14.1054 7.96759L14.1844 7.74966H12.9624H11.7404V11.5301C11.7404 15.5862 11.7631 15.7827 12.236 16.1149C12.5214 16.3148 13.1812 16.319 13.4615 16.1225L13.4614 16.1226ZM17.1642 10.6957L17.1159 8.31448L16.7995 8.03207C16.362 7.64149 15.8356 7.64151 15.3982 8.03213L15.0818 8.31461L15.0516 10.6957L15.0213 13.0767L16.1158 13.0768L17.2102 13.0769L17.1642 10.6957Z" fill="#313131"/>
</svg>
