<svg width="56" height="54" viewBox="0 0 56 54" fill="none" xmlns="http://www.w3.org/2000/svg">
<mask id="path-1-outside-1_362:805" maskUnits="userSpaceOnUse" x="0" y="0" width="56" height="54" fill="black">
<rect fill="white" width="56" height="54"/>
<path d="M9.83792 47.2234L1.00828 41.447L1.00433 40.4984L1.00039 39.5498L1.69098 40.0296C2.07079 40.2937 6.10335 42.9391 10.6522 45.9087L18.9227 51.308L20.8231 50.3023C21.8683 49.7495 24.8142 48.1856 27.3695 46.8275L32.0155 44.3583L32.092 43.2132C32.1339 42.5831 32.1211 42.0681 32.0636 42.0681C32.0061 42.0681 29.0042 43.6425 25.3928 45.5667L18.8266 49.0653L9.91331 43.2108L1.00001 37.3565V36.4678C1.00001 35.823 1.08613 35.6304 1.31392 35.7661C1.48661 35.8686 5.47021 38.4737 10.1664 41.5548C14.8627 44.6359 18.8501 47.1417 19.0275 47.1233C19.2049 47.1022 22.2264 45.5406 25.7419 43.6473L32.1338 40.205L32.1375 39.1491C32.1394 38.5682 32.0693 38.0932 31.9816 38.0932C31.8351 38.0932 23.1871 42.6688 20.1746 44.3401L18.8814 45.0576L11.0082 39.8786C6.67796 37.0301 2.65473 34.3995 2.0677 34.0329C1.14485 33.4569 1.00037 33.2492 1.00037 32.5C1.00037 32.0237 1.05078 31.6336 1.11186 31.6336C1.17291 31.6336 5.06435 34.1497 9.75893 37.2249C14.4535 40.3002 18.4715 42.8835 18.6879 42.9656C19.1356 43.1356 31.8548 36.4853 32.0514 35.9784C32.1189 35.8035 32.1388 35.2636 32.0946 34.778L32.0152 33.8951L27.6203 36.2655C25.2031 37.5693 22.3121 39.1288 21.1957 39.7311C20.0794 40.333 19.0423 40.8261 18.8911 40.8261C18.6709 40.8261 11.5679 36.2464 2.19342 30.0602C1.16604 29.3823 1.00093 29.1579 1.00052 28.4393C1.00017 27.8457 1.09673 27.6419 1.33517 27.7325C1.5195 27.8027 5.44659 30.3431 10.0621 33.3784C14.6776 36.4137 18.5881 38.9491 18.7522 39.0127C18.9163 39.0759 20.6679 38.264 22.6448 37.2077C33.243 31.5447 32.1408 32.2668 32.1408 30.9869V29.886L30.9479 30.4852C30.2918 30.8147 27.3274 32.3841 24.3603 33.9722C21.3933 35.5604 18.8478 36.8151 18.7037 36.7604C18.5597 36.7042 16.4103 35.3254 13.9274 33.693C11.4445 32.0606 7.5714 29.5275 5.32047 28.0639C3.06954 26.6002 1.16817 25.2488 1.09523 25.0608C1.02224 24.8725 0.999311 24.437 1.04412 24.0927L1.12563 23.4668L2.75801 24.5367C3.65582 25.1253 7.65651 27.7556 11.6484 30.382C17.9766 34.5456 18.974 35.1236 19.4336 34.8936C19.7235 34.7489 21.0412 34.0396 22.3617 33.3181C23.6822 32.5966 26.4227 31.1184 28.4517 30.0333L32.1408 28.0605V26.9899C32.1408 26.4013 32.0797 25.9193 32.0044 25.9193C31.9294 25.9193 31.1666 26.2944 30.3092 26.7526C29.4519 27.2106 26.6032 28.7337 23.9788 30.1365C21.3545 31.5393 19.1351 32.7285 19.0469 32.779C18.9587 32.8282 17.3765 31.8853 15.531 30.6805C13.6855 29.4758 9.66101 26.8489 6.58775 24.8428C1.07483 21.2443 1 21.1838 1 20.3276C1 19.8506 1.05255 19.4597 1.11752 19.4597C1.18212 19.4597 4.60071 21.6755 8.71435 24.3836C12.828 27.0918 16.8162 29.7005 17.577 30.1807L18.9604 31.0537L25.547 27.5548L32.1336 24.0559L32.1374 23.1243C32.1393 22.6122 32.0513 22.1926 31.9417 22.1926C31.8322 22.1926 28.8913 23.7019 25.4065 25.5466C21.9217 27.3913 18.9634 28.9007 18.8325 28.9007C18.7016 28.9007 15.3986 26.8015 11.4925 24.2359C7.58642 21.6704 3.63239 19.0808 2.70578 18.4813C1.77917 17.8821 1.06221 17.3254 1.11254 17.2448C1.16295 17.164 4.03995 15.8157 7.50607 14.248C10.9722 12.6804 13.8081 11.3369 13.8081 11.2627C13.8081 11.1882 13.5033 10.9445 13.1309 10.7211L12.4537 10.3144L13.3193 9.95122C15.0754 9.21407 19.5713 7.29042 23.5513 5.57322C25.8022 4.60208 27.8097 3.80747 28.0123 3.80747C28.215 3.80747 28.5925 3.93813 28.8513 4.09828C29.234 4.33501 29.5736 4.2718 30.6687 3.76111C31.4093 3.4155 33.0621 2.65307 34.3414 2.06645L36.6674 1L39.4897 2.32573C45.8442 5.31085 54.9942 9.7605 54.9942 9.86566C54.9942 9.92887 53.1295 10.9585 50.8505 12.1568L46.7067 14.3355V15.3053V16.275L48.653 15.2101C52.9042 12.8841 54.5889 12.0065 54.8025 12.0065C54.9254 12.0065 54.9906 12.3697 54.9474 12.814C54.8724 13.5829 54.6771 13.7234 50.8505 15.7614L46.8324 17.9014L46.7557 19.0533C46.7138 19.6869 46.7223 20.2053 46.7749 20.2053C46.8275 20.2053 48.6386 19.2549 50.7997 18.0934C52.9608 16.9319 54.7887 15.9817 54.8617 15.9817C54.9348 15.9817 54.9941 16.3448 54.9938 16.7891C54.993 17.5779 54.8976 17.6476 50.8501 19.8082L46.707 22.02V23.1002C46.707 23.6945 46.7744 24.1804 46.8577 24.1804C46.9405 24.1804 48.4379 23.4131 50.1852 22.4754C51.9325 21.5376 53.7294 20.5844 54.1783 20.3572L54.9944 19.9442V20.807C54.9944 21.6683 54.9869 21.6735 50.8584 23.8568L46.7223 26.0439L46.7148 27.2137L46.7073 28.3835L48.6536 27.3468C49.7241 26.7764 51.5605 25.7848 52.7345 25.1428L54.8692 23.9754L54.9519 24.7502C55.0531 25.7007 55.0388 25.7117 50.8512 27.9072C46.5377 30.1686 46.6567 30.0693 46.7532 31.3261L46.833 32.3667L50.5878 30.3584C55.33 27.822 54.9949 27.9299 54.9949 28.9402C54.9949 29.7089 54.8756 29.839 53.5471 30.5196C52.7509 30.9277 50.8862 31.9219 49.4034 32.7295L46.7074 34.1977V35.2761C46.7074 35.8689 46.7549 36.3544 46.8132 36.3544C46.8714 36.3544 48.6983 35.4041 50.8731 34.2426C53.0479 33.0811 54.8649 32.1308 54.9111 32.1308C54.9573 32.1308 54.9948 32.5129 54.9948 32.9803C54.9948 33.8241 54.9672 33.8448 50.8626 36.0238C47.0887 38.0275 46.7238 38.2804 46.6561 38.9398C46.5865 39.6135 46.1156 39.9083 39.6059 43.3497C35.7691 45.378 32.5279 47.0376 32.4032 47.0376C32.2785 47.0376 32.1404 46.8157 32.0963 46.5445C32.0253 46.1083 31.5108 46.3247 27.6212 48.4252C21.2655 51.8574 19.0775 53 18.8602 53C18.7547 53 14.695 50.4006 9.83866 47.2236L9.83792 47.2234ZM39.001 41.7816C41.6507 40.3942 44.074 39.1052 44.3861 38.9171L44.9537 38.575L44.8883 26.9906L44.8229 15.4063L42.0604 13.7951C38.6406 11.8007 31.8289 7.81585 29.5897 6.49974L27.9177 5.51701L22.3068 7.92339C19.2208 9.24694 16.612 10.4042 16.5095 10.4951C16.4069 10.5857 19.6843 12.6622 23.7924 15.1087C27.9005 17.5553 31.8549 19.9298 32.5801 20.3854L33.8986 21.2137V32.7588C33.8986 39.1087 33.9624 44.304 34.0408 44.304C34.1191 44.304 36.351 43.1688 39.0007 41.7814L39.001 41.7816ZM32.3046 16.6923C30.8512 16.4773 30.6669 16.3389 31.1705 15.8409C31.469 15.5459 31.7007 15.5199 32.2393 15.7222C33.05 16.027 34.3963 16.0551 34.8402 15.7784C35.0469 15.6484 34.4907 15.2326 33.2078 14.5582L31.2619 13.5349L29.8862 13.8896C27.3598 14.5415 24.6395 13.49 24.6148 11.8516C24.611 11.5608 24.7777 11.1828 24.9866 11.0112C25.2755 10.7737 25.2982 10.6178 25.0815 10.3593C24.9248 10.1724 24.8951 10.013 25.0154 10.0053C25.1358 9.99819 25.6865 9.92587 26.239 9.8472C27.7038 9.63857 30.3341 9.64068 30.5465 9.85073C30.6472 9.95048 30.5634 10.1963 30.3604 10.3972C30.095 10.6599 29.7816 10.7063 29.2452 10.563C28.8349 10.4534 28.1601 10.4324 27.7457 10.5138C27.02 10.6606 27.0611 10.7014 28.8677 11.6145C30.5482 12.4641 30.8241 12.5337 31.5225 12.2839C33.2457 11.6672 36.0202 12.0999 37.2169 13.1711C37.7806 13.6762 37.7969 14.8211 37.2481 15.364C36.8261 15.7812 36.9506 15.9997 37.791 16.3149C37.9291 16.3641 37.961 16.4955 37.862 16.6008C37.7628 16.7062 37.3459 16.657 36.9355 16.487C36.525 16.3191 36.0769 16.2496 35.9396 16.3339C35.3887 16.6711 33.4522 16.8614 32.3045 16.6915L32.3046 16.6923ZM36.1093 14.4463C36.1884 13.7916 35.6136 13.2544 34.442 12.8879C33.8052 12.6884 32.1384 12.916 32.1447 13.1976C32.1503 13.4393 35.4714 15.2059 35.7823 15.1327C35.9204 15.0976 36.0676 14.7913 36.1093 14.4464L36.1093 14.4463ZM29.5878 13.0306C29.8239 12.8824 29.4076 12.5564 28.1758 11.9261C27.2149 11.4344 26.3579 11.1019 26.2712 11.1877C25.8615 11.593 26.1536 12.5086 26.8042 12.8577C27.565 13.2659 29.0639 13.3593 29.5878 13.0305V13.0306ZM24.6512 24.0324C27.6655 22.4482 30.1281 21.0786 30.1237 20.9889C30.1125 20.7459 16.1543 12.5017 15.7705 12.511C15.2941 12.5251 4.64158 17.3575 4.64158 17.5621C4.64158 17.77 18.6079 26.8997 18.9379 26.9074C19.0659 26.9109 21.6369 25.6166 24.6512 24.0324V24.0324ZM48.1 11.6838C49.712 10.8233 51.026 10.0254 51.0201 9.91062C51.0144 9.79611 47.778 8.15801 43.8288 6.27096L36.6483 2.83999L33.859 4.13411L31.0696 5.42816L35.5513 8.03389C38.0162 9.46702 40.9977 11.216 42.1769 11.9205C43.3561 12.6249 44.5117 13.2119 44.745 13.2248C44.9782 13.239 46.488 12.5442 48.1 11.6838V11.6838Z"/>
</mask>
<path d="M9.83792 47.2234L1.00828 41.447L1.00433 40.4984L1.00039 39.5498L1.69098 40.0296C2.07079 40.2937 6.10335 42.9391 10.6522 45.9087L18.9227 51.308L20.8231 50.3023C21.8683 49.7495 24.8142 48.1856 27.3695 46.8275L32.0155 44.3583L32.092 43.2132C32.1339 42.5831 32.1211 42.0681 32.0636 42.0681C32.0061 42.0681 29.0042 43.6425 25.3928 45.5667L18.8266 49.0653L9.91331 43.2108L1.00001 37.3565V36.4678C1.00001 35.823 1.08613 35.6304 1.31392 35.7661C1.48661 35.8686 5.47021 38.4737 10.1664 41.5548C14.8627 44.6359 18.8501 47.1417 19.0275 47.1233C19.2049 47.1022 22.2264 45.5406 25.7419 43.6473L32.1338 40.205L32.1375 39.1491C32.1394 38.5682 32.0693 38.0932 31.9816 38.0932C31.8351 38.0932 23.1871 42.6688 20.1746 44.3401L18.8814 45.0576L11.0082 39.8786C6.67796 37.0301 2.65473 34.3995 2.0677 34.0329C1.14485 33.4569 1.00037 33.2492 1.00037 32.5C1.00037 32.0237 1.05078 31.6336 1.11186 31.6336C1.17291 31.6336 5.06435 34.1497 9.75893 37.2249C14.4535 40.3002 18.4715 42.8835 18.6879 42.9656C19.1356 43.1356 31.8548 36.4853 32.0514 35.9784C32.1189 35.8035 32.1388 35.2636 32.0946 34.778L32.0152 33.8951L27.6203 36.2655C25.2031 37.5693 22.3121 39.1288 21.1957 39.7311C20.0794 40.333 19.0423 40.8261 18.8911 40.8261C18.6709 40.8261 11.5679 36.2464 2.19342 30.0602C1.16604 29.3823 1.00093 29.1579 1.00052 28.4393C1.00017 27.8457 1.09673 27.6419 1.33517 27.7325C1.5195 27.8027 5.44659 30.3431 10.0621 33.3784C14.6776 36.4137 18.5881 38.9491 18.7522 39.0127C18.9163 39.0759 20.6679 38.264 22.6448 37.2077C33.243 31.5447 32.1408 32.2668 32.1408 30.9869V29.886L30.9479 30.4852C30.2918 30.8147 27.3274 32.3841 24.3603 33.9722C21.3933 35.5604 18.8478 36.8151 18.7037 36.7604C18.5597 36.7042 16.4103 35.3254 13.9274 33.693C11.4445 32.0606 7.5714 29.5275 5.32047 28.0639C3.06954 26.6002 1.16817 25.2488 1.09523 25.0608C1.02224 24.8725 0.999311 24.437 1.04412 24.0927L1.12563 23.4668L2.75801 24.5367C3.65582 25.1253 7.65651 27.7556 11.6484 30.382C17.9766 34.5456 18.974 35.1236 19.4336 34.8936C19.7235 34.7489 21.0412 34.0396 22.3617 33.3181C23.6822 32.5966 26.4227 31.1184 28.4517 30.0333L32.1408 28.0605V26.9899C32.1408 26.4013 32.0797 25.9193 32.0044 25.9193C31.9294 25.9193 31.1666 26.2944 30.3092 26.7526C29.4519 27.2106 26.6032 28.7337 23.9788 30.1365C21.3545 31.5393 19.1351 32.7285 19.0469 32.779C18.9587 32.8282 17.3765 31.8853 15.531 30.6805C13.6855 29.4758 9.66101 26.8489 6.58775 24.8428C1.07483 21.2443 1 21.1838 1 20.3276C1 19.8506 1.05255 19.4597 1.11752 19.4597C1.18212 19.4597 4.60071 21.6755 8.71435 24.3836C12.828 27.0918 16.8162 29.7005 17.577 30.1807L18.9604 31.0537L25.547 27.5548L32.1336 24.0559L32.1374 23.1243C32.1393 22.6122 32.0513 22.1926 31.9417 22.1926C31.8322 22.1926 28.8913 23.7019 25.4065 25.5466C21.9217 27.3913 18.9634 28.9007 18.8325 28.9007C18.7016 28.9007 15.3986 26.8015 11.4925 24.2359C7.58642 21.6704 3.63239 19.0808 2.70578 18.4813C1.77917 17.8821 1.06221 17.3254 1.11254 17.2448C1.16295 17.164 4.03995 15.8157 7.50607 14.248C10.9722 12.6804 13.8081 11.3369 13.8081 11.2627C13.8081 11.1882 13.5033 10.9445 13.1309 10.7211L12.4537 10.3144L13.3193 9.95122C15.0754 9.21407 19.5713 7.29042 23.5513 5.57322C25.8022 4.60208 27.8097 3.80747 28.0123 3.80747C28.215 3.80747 28.5925 3.93813 28.8513 4.09828C29.234 4.33501 29.5736 4.2718 30.6687 3.76111C31.4093 3.4155 33.0621 2.65307 34.3414 2.06645L36.6674 1L39.4897 2.32573C45.8442 5.31085 54.9942 9.7605 54.9942 9.86566C54.9942 9.92887 53.1295 10.9585 50.8505 12.1568L46.7067 14.3355V15.3053V16.275L48.653 15.2101C52.9042 12.8841 54.5889 12.0065 54.8025 12.0065C54.9254 12.0065 54.9906 12.3697 54.9474 12.814C54.8724 13.5829 54.6771 13.7234 50.8505 15.7614L46.8324 17.9014L46.7557 19.0533C46.7138 19.6869 46.7223 20.2053 46.7749 20.2053C46.8275 20.2053 48.6386 19.2549 50.7997 18.0934C52.9608 16.9319 54.7887 15.9817 54.8617 15.9817C54.9348 15.9817 54.9941 16.3448 54.9938 16.7891C54.993 17.5779 54.8976 17.6476 50.8501 19.8082L46.707 22.02V23.1002C46.707 23.6945 46.7744 24.1804 46.8577 24.1804C46.9405 24.1804 48.4379 23.4131 50.1852 22.4754C51.9325 21.5376 53.7294 20.5844 54.1783 20.3572L54.9944 19.9442V20.807C54.9944 21.6683 54.9869 21.6735 50.8584 23.8568L46.7223 26.0439L46.7148 27.2137L46.7073 28.3835L48.6536 27.3468C49.7241 26.7764 51.5605 25.7848 52.7345 25.1428L54.8692 23.9754L54.9519 24.7502C55.0531 25.7007 55.0388 25.7117 50.8512 27.9072C46.5377 30.1686 46.6567 30.0693 46.7532 31.3261L46.833 32.3667L50.5878 30.3584C55.33 27.822 54.9949 27.9299 54.9949 28.9402C54.9949 29.7089 54.8756 29.839 53.5471 30.5196C52.7509 30.9277 50.8862 31.9219 49.4034 32.7295L46.7074 34.1977V35.2761C46.7074 35.8689 46.7549 36.3544 46.8132 36.3544C46.8714 36.3544 48.6983 35.4041 50.8731 34.2426C53.0479 33.0811 54.8649 32.1308 54.9111 32.1308C54.9573 32.1308 54.9948 32.5129 54.9948 32.9803C54.9948 33.8241 54.9672 33.8448 50.8626 36.0238C47.0887 38.0275 46.7238 38.2804 46.6561 38.9398C46.5865 39.6135 46.1156 39.9083 39.6059 43.3497C35.7691 45.378 32.5279 47.0376 32.4032 47.0376C32.2785 47.0376 32.1404 46.8157 32.0963 46.5445C32.0253 46.1083 31.5108 46.3247 27.6212 48.4252C21.2655 51.8574 19.0775 53 18.8602 53C18.7547 53 14.695 50.4006 9.83866 47.2236L9.83792 47.2234ZM39.001 41.7816C41.6507 40.3942 44.074 39.1052 44.3861 38.9171L44.9537 38.575L44.8883 26.9906L44.8229 15.4063L42.0604 13.7951C38.6406 11.8007 31.8289 7.81585 29.5897 6.49974L27.9177 5.51701L22.3068 7.92339C19.2208 9.24694 16.612 10.4042 16.5095 10.4951C16.4069 10.5857 19.6843 12.6622 23.7924 15.1087C27.9005 17.5553 31.8549 19.9298 32.5801 20.3854L33.8986 21.2137V32.7588C33.8986 39.1087 33.9624 44.304 34.0408 44.304C34.1191 44.304 36.351 43.1688 39.0007 41.7814L39.001 41.7816ZM32.3046 16.6923C30.8512 16.4773 30.6669 16.3389 31.1705 15.8409C31.469 15.5459 31.7007 15.5199 32.2393 15.7222C33.05 16.027 34.3963 16.0551 34.8402 15.7784C35.0469 15.6484 34.4907 15.2326 33.2078 14.5582L31.2619 13.5349L29.8862 13.8896C27.3598 14.5415 24.6395 13.49 24.6148 11.8516C24.611 11.5608 24.7777 11.1828 24.9866 11.0112C25.2755 10.7737 25.2982 10.6178 25.0815 10.3593C24.9248 10.1724 24.8951 10.013 25.0154 10.0053C25.1358 9.99819 25.6865 9.92587 26.239 9.8472C27.7038 9.63857 30.3341 9.64068 30.5465 9.85073C30.6472 9.95048 30.5634 10.1963 30.3604 10.3972C30.095 10.6599 29.7816 10.7063 29.2452 10.563C28.8349 10.4534 28.1601 10.4324 27.7457 10.5138C27.02 10.6606 27.0611 10.7014 28.8677 11.6145C30.5482 12.4641 30.8241 12.5337 31.5225 12.2839C33.2457 11.6672 36.0202 12.0999 37.2169 13.1711C37.7806 13.6762 37.7969 14.8211 37.2481 15.364C36.8261 15.7812 36.9506 15.9997 37.791 16.3149C37.9291 16.3641 37.961 16.4955 37.862 16.6008C37.7628 16.7062 37.3459 16.657 36.9355 16.487C36.525 16.3191 36.0769 16.2496 35.9396 16.3339C35.3887 16.6711 33.4522 16.8614 32.3045 16.6915L32.3046 16.6923ZM36.1093 14.4463C36.1884 13.7916 35.6136 13.2544 34.442 12.8879C33.8052 12.6884 32.1384 12.916 32.1447 13.1976C32.1503 13.4393 35.4714 15.2059 35.7823 15.1327C35.9204 15.0976 36.0676 14.7913 36.1093 14.4464L36.1093 14.4463ZM29.5878 13.0306C29.8239 12.8824 29.4076 12.5564 28.1758 11.9261C27.2149 11.4344 26.3579 11.1019 26.2712 11.1877C25.8615 11.593 26.1536 12.5086 26.8042 12.8577C27.565 13.2659 29.0639 13.3593 29.5878 13.0305V13.0306ZM24.6512 24.0324C27.6655 22.4482 30.1281 21.0786 30.1237 20.9889C30.1125 20.7459 16.1543 12.5017 15.7705 12.511C15.2941 12.5251 4.64158 17.3575 4.64158 17.5621C4.64158 17.77 18.6079 26.8997 18.9379 26.9074C19.0659 26.9109 21.6369 25.6166 24.6512 24.0324V24.0324ZM48.1 11.6838C49.712 10.8233 51.026 10.0254 51.0201 9.91062C51.0144 9.79611 47.778 8.15801 43.8288 6.27096L36.6483 2.83999L33.859 4.13411L31.0696 5.42816L35.5513 8.03389C38.0162 9.46702 40.9977 11.216 42.1769 11.9205C43.3561 12.6249 44.5117 13.2119 44.745 13.2248C44.9782 13.239 46.488 12.5442 48.1 11.6838V11.6838Z" fill="white"/>
<path d="M9.83792 47.2234L1.00828 41.447L1.00433 40.4984L1.00039 39.5498L1.69098 40.0296C2.07079 40.2937 6.10335 42.9391 10.6522 45.9087L18.9227 51.308L20.8231 50.3023C21.8683 49.7495 24.8142 48.1856 27.3695 46.8275L32.0155 44.3583L32.092 43.2132C32.1339 42.5831 32.1211 42.0681 32.0636 42.0681C32.0061 42.0681 29.0042 43.6425 25.3928 45.5667L18.8266 49.0653L9.91331 43.2108L1.00001 37.3565V36.4678C1.00001 35.823 1.08613 35.6304 1.31392 35.7661C1.48661 35.8686 5.47021 38.4737 10.1664 41.5548C14.8627 44.6359 18.8501 47.1417 19.0275 47.1233C19.2049 47.1022 22.2264 45.5406 25.7419 43.6473L32.1338 40.205L32.1375 39.1491C32.1394 38.5682 32.0693 38.0932 31.9816 38.0932C31.8351 38.0932 23.1871 42.6688 20.1746 44.3401L18.8814 45.0576L11.0082 39.8786C6.67796 37.0301 2.65473 34.3995 2.0677 34.0329C1.14485 33.4569 1.00037 33.2492 1.00037 32.5C1.00037 32.0237 1.05078 31.6336 1.11186 31.6336C1.17291 31.6336 5.06435 34.1497 9.75893 37.2249C14.4535 40.3002 18.4715 42.8835 18.6879 42.9656C19.1356 43.1356 31.8548 36.4853 32.0514 35.9784C32.1189 35.8035 32.1388 35.2636 32.0946 34.778L32.0152 33.8951L27.6203 36.2655C25.2031 37.5693 22.3121 39.1288 21.1957 39.7311C20.0794 40.333 19.0423 40.8261 18.8911 40.8261C18.6709 40.8261 11.5679 36.2464 2.19342 30.0602C1.16604 29.3823 1.00093 29.1579 1.00052 28.4393C1.00017 27.8457 1.09673 27.6419 1.33517 27.7325C1.5195 27.8027 5.44659 30.3431 10.0621 33.3784C14.6776 36.4137 18.5881 38.9491 18.7522 39.0127C18.9163 39.0759 20.6679 38.264 22.6448 37.2077C33.243 31.5447 32.1408 32.2668 32.1408 30.9869V29.886L30.9479 30.4852C30.2918 30.8147 27.3274 32.3841 24.3603 33.9722C21.3933 35.5604 18.8478 36.8151 18.7037 36.7604C18.5597 36.7042 16.4103 35.3254 13.9274 33.693C11.4445 32.0606 7.5714 29.5275 5.32047 28.0639C3.06954 26.6002 1.16817 25.2488 1.09523 25.0608C1.02224 24.8725 0.999311 24.437 1.04412 24.0927L1.12563 23.4668L2.75801 24.5367C3.65582 25.1253 7.65651 27.7556 11.6484 30.382C17.9766 34.5456 18.974 35.1236 19.4336 34.8936C19.7235 34.7489 21.0412 34.0396 22.3617 33.3181C23.6822 32.5966 26.4227 31.1184 28.4517 30.0333L32.1408 28.0605V26.9899C32.1408 26.4013 32.0797 25.9193 32.0044 25.9193C31.9294 25.9193 31.1666 26.2944 30.3092 26.7526C29.4519 27.2106 26.6032 28.7337 23.9788 30.1365C21.3545 31.5393 19.1351 32.7285 19.0469 32.779C18.9587 32.8282 17.3765 31.8853 15.531 30.6805C13.6855 29.4758 9.66101 26.8489 6.58775 24.8428C1.07483 21.2443 1 21.1838 1 20.3276C1 19.8506 1.05255 19.4597 1.11752 19.4597C1.18212 19.4597 4.60071 21.6755 8.71435 24.3836C12.828 27.0918 16.8162 29.7005 17.577 30.1807L18.9604 31.0537L25.547 27.5548L32.1336 24.0559L32.1374 23.1243C32.1393 22.6122 32.0513 22.1926 31.9417 22.1926C31.8322 22.1926 28.8913 23.7019 25.4065 25.5466C21.9217 27.3913 18.9634 28.9007 18.8325 28.9007C18.7016 28.9007 15.3986 26.8015 11.4925 24.2359C7.58642 21.6704 3.63239 19.0808 2.70578 18.4813C1.77917 17.8821 1.06221 17.3254 1.11254 17.2448C1.16295 17.164 4.03995 15.8157 7.50607 14.248C10.9722 12.6804 13.8081 11.3369 13.8081 11.2627C13.8081 11.1882 13.5033 10.9445 13.1309 10.7211L12.4537 10.3144L13.3193 9.95122C15.0754 9.21407 19.5713 7.29042 23.5513 5.57322C25.8022 4.60208 27.8097 3.80747 28.0123 3.80747C28.215 3.80747 28.5925 3.93813 28.8513 4.09828C29.234 4.33501 29.5736 4.2718 30.6687 3.76111C31.4093 3.4155 33.0621 2.65307 34.3414 2.06645L36.6674 1L39.4897 2.32573C45.8442 5.31085 54.9942 9.7605 54.9942 9.86566C54.9942 9.92887 53.1295 10.9585 50.8505 12.1568L46.7067 14.3355V15.3053V16.275L48.653 15.2101C52.9042 12.8841 54.5889 12.0065 54.8025 12.0065C54.9254 12.0065 54.9906 12.3697 54.9474 12.814C54.8724 13.5829 54.6771 13.7234 50.8505 15.7614L46.8324 17.9014L46.7557 19.0533C46.7138 19.6869 46.7223 20.2053 46.7749 20.2053C46.8275 20.2053 48.6386 19.2549 50.7997 18.0934C52.9608 16.9319 54.7887 15.9817 54.8617 15.9817C54.9348 15.9817 54.9941 16.3448 54.9938 16.7891C54.993 17.5779 54.8976 17.6476 50.8501 19.8082L46.707 22.02V23.1002C46.707 23.6945 46.7744 24.1804 46.8577 24.1804C46.9405 24.1804 48.4379 23.4131 50.1852 22.4754C51.9325 21.5376 53.7294 20.5844 54.1783 20.3572L54.9944 19.9442V20.807C54.9944 21.6683 54.9869 21.6735 50.8584 23.8568L46.7223 26.0439L46.7148 27.2137L46.7073 28.3835L48.6536 27.3468C49.7241 26.7764 51.5605 25.7848 52.7345 25.1428L54.8692 23.9754L54.9519 24.7502C55.0531 25.7007 55.0388 25.7117 50.8512 27.9072C46.5377 30.1686 46.6567 30.0693 46.7532 31.3261L46.833 32.3667L50.5878 30.3584C55.33 27.822 54.9949 27.9299 54.9949 28.9402C54.9949 29.7089 54.8756 29.839 53.5471 30.5196C52.7509 30.9277 50.8862 31.9219 49.4034 32.7295L46.7074 34.1977V35.2761C46.7074 35.8689 46.7549 36.3544 46.8132 36.3544C46.8714 36.3544 48.6983 35.4041 50.8731 34.2426C53.0479 33.0811 54.8649 32.1308 54.9111 32.1308C54.9573 32.1308 54.9948 32.5129 54.9948 32.9803C54.9948 33.8241 54.9672 33.8448 50.8626 36.0238C47.0887 38.0275 46.7238 38.2804 46.6561 38.9398C46.5865 39.6135 46.1156 39.9083 39.6059 43.3497C35.7691 45.378 32.5279 47.0376 32.4032 47.0376C32.2785 47.0376 32.1404 46.8157 32.0963 46.5445C32.0253 46.1083 31.5108 46.3247 27.6212 48.4252C21.2655 51.8574 19.0775 53 18.8602 53C18.7547 53 14.695 50.4006 9.83866 47.2236L9.83792 47.2234ZM39.001 41.7816C41.6507 40.3942 44.074 39.1052 44.3861 38.9171L44.9537 38.575L44.8883 26.9906L44.8229 15.4063L42.0604 13.7951C38.6406 11.8007 31.8289 7.81585 29.5897 6.49974L27.9177 5.51701L22.3068 7.92339C19.2208 9.24694 16.612 10.4042 16.5095 10.4951C16.4069 10.5857 19.6843 12.6622 23.7924 15.1087C27.9005 17.5553 31.8549 19.9298 32.5801 20.3854L33.8986 21.2137V32.7588C33.8986 39.1087 33.9624 44.304 34.0408 44.304C34.1191 44.304 36.351 43.1688 39.0007 41.7814L39.001 41.7816ZM32.3046 16.6923C30.8512 16.4773 30.6669 16.3389 31.1705 15.8409C31.469 15.5459 31.7007 15.5199 32.2393 15.7222C33.05 16.027 34.3963 16.0551 34.8402 15.7784C35.0469 15.6484 34.4907 15.2326 33.2078 14.5582L31.2619 13.5349L29.8862 13.8896C27.3598 14.5415 24.6395 13.49 24.6148 11.8516C24.611 11.5608 24.7777 11.1828 24.9866 11.0112C25.2755 10.7737 25.2982 10.6178 25.0815 10.3593C24.9248 10.1724 24.8951 10.013 25.0154 10.0053C25.1358 9.99819 25.6865 9.92587 26.239 9.8472C27.7038 9.63857 30.3341 9.64068 30.5465 9.85073C30.6472 9.95048 30.5634 10.1963 30.3604 10.3972C30.095 10.6599 29.7816 10.7063 29.2452 10.563C28.8349 10.4534 28.1601 10.4324 27.7457 10.5138C27.02 10.6606 27.0611 10.7014 28.8677 11.6145C30.5482 12.4641 30.8241 12.5337 31.5225 12.2839C33.2457 11.6672 36.0202 12.0999 37.2169 13.1711C37.7806 13.6762 37.7969 14.8211 37.2481 15.364C36.8261 15.7812 36.9506 15.9997 37.791 16.3149C37.9291 16.3641 37.961 16.4955 37.862 16.6008C37.7628 16.7062 37.3459 16.657 36.9355 16.487C36.525 16.3191 36.0769 16.2496 35.9396 16.3339C35.3887 16.6711 33.4522 16.8614 32.3045 16.6915L32.3046 16.6923ZM36.1093 14.4463C36.1884 13.7916 35.6136 13.2544 34.442 12.8879C33.8052 12.6884 32.1384 12.916 32.1447 13.1976C32.1503 13.4393 35.4714 15.2059 35.7823 15.1327C35.9204 15.0976 36.0676 14.7913 36.1093 14.4464L36.1093 14.4463ZM29.5878 13.0306C29.8239 12.8824 29.4076 12.5564 28.1758 11.9261C27.2149 11.4344 26.3579 11.1019 26.2712 11.1877C25.8615 11.593 26.1536 12.5086 26.8042 12.8577C27.565 13.2659 29.0639 13.3593 29.5878 13.0305V13.0306ZM24.6512 24.0324C27.6655 22.4482 30.1281 21.0786 30.1237 20.9889C30.1125 20.7459 16.1543 12.5017 15.7705 12.511C15.2941 12.5251 4.64158 17.3575 4.64158 17.5621C4.64158 17.77 18.6079 26.8997 18.9379 26.9074C19.0659 26.9109 21.6369 25.6166 24.6512 24.0324V24.0324ZM48.1 11.6838C49.712 10.8233 51.026 10.0254 51.0201 9.91062C51.0144 9.79611 47.778 8.15801 43.8288 6.27096L36.6483 2.83999L33.859 4.13411L31.0696 5.42816L35.5513 8.03389C38.0162 9.46702 40.9977 11.216 42.1769 11.9205C43.3561 12.6249 44.5117 13.2119 44.745 13.2248C44.9782 13.239 46.488 12.5442 48.1 11.6838V11.6838Z" stroke="white" stroke-width="0.5" mask="url(#path-1-outside-1_362:805)"/>
</svg>
