<svg width="32" height="31" viewBox="0 0 32 31" fill="none" xmlns="http://www.w3.org/2000/svg">
<path d="M5.23729 27.5562L0.00490935 24.1126L0.00256509 23.5471L0.00022933 22.9816L0.409472 23.2676C0.634542 23.4251 3.02421 25.0021 5.7198 26.7725L10.6209 29.9913L11.747 29.3918C12.3664 29.0622 14.1121 28.1299 15.6264 27.3203L18.3796 25.8482L18.4249 25.1655C18.4497 24.7899 18.4421 24.4829 18.4081 24.4829C18.374 24.4829 16.5951 25.4215 14.455 26.5686L10.5639 28.6543L5.28196 25.1641L8.49369e-06 21.6741V21.1443C8.49369e-06 20.7599 0.0510397 20.645 0.186029 20.7259C0.288362 20.7871 2.64902 22.3401 5.43196 24.1769C8.21491 26.0137 10.5779 27.5076 10.683 27.4966C10.7881 27.484 12.5786 26.553 14.6619 25.4243L18.4496 23.3722L18.4519 22.7427C18.453 22.3964 18.4115 22.1132 18.3595 22.1132C18.2726 22.1132 13.1479 24.841 11.3627 25.8374L10.5964 26.2651L5.93079 23.1776C3.36471 21.4795 0.980578 19.9113 0.632712 19.6927C0.0858341 19.3493 0.000220836 19.2255 0.000220836 18.7788C0.000220836 18.4949 0.0300919 18.2623 0.0662848 18.2623C0.102467 18.2623 2.4085 19.7623 5.19048 21.5956C7.97245 23.4289 10.3535 24.969 10.4817 25.018C10.747 25.1193 18.2843 21.1547 18.4008 20.8525C18.4408 20.7482 18.4526 20.4264 18.4265 20.1369L18.3794 19.6105L15.775 21.0237C14.3426 21.801 12.6294 22.7306 11.9678 23.0897C11.3063 23.4485 10.6917 23.7425 10.6021 23.7425C10.4717 23.7425 6.26245 21.0122 0.70721 17.3243C0.0983913 16.9202 0.000554035 16.7864 0.000305773 16.358C0.000103155 16.0042 0.0573194 15.8827 0.198616 15.9367C0.307852 15.9785 2.63501 17.493 5.37013 19.3025C8.10524 21.112 10.4226 22.6235 10.5198 22.6614C10.6171 22.6991 11.6551 22.2151 12.8265 21.5853C19.107 18.2093 18.4538 18.6398 18.4538 17.8768V17.2205L17.7469 17.5777C17.3581 17.7741 15.6014 18.7097 13.8432 19.6565C12.0849 20.6033 10.5765 21.3513 10.4911 21.3187C10.4057 21.2852 9.13203 20.4632 7.66069 19.49C6.18935 18.5169 3.89416 17.0068 2.56028 16.1342C1.22639 15.2617 0.0996576 14.456 0.0564321 14.3439C0.013181 14.2317 -0.000408267 13.9721 0.0261436 13.7668L0.0744472 13.3937L1.04179 14.0315C1.57382 14.3824 3.9446 15.9504 6.31018 17.5162C10.0602 19.9983 10.6513 20.3429 10.9236 20.2058C11.0954 20.1196 11.8763 19.6967 12.6588 19.2666C13.4413 18.8364 15.0653 17.9552 16.2677 17.3083L18.4538 16.1322V15.494C18.4538 15.1431 18.4176 14.8558 18.373 14.8558C18.3286 14.8558 17.8765 15.0794 17.3684 15.3525C16.8604 15.6255 15.1723 16.5335 13.6171 17.3698C12.0619 18.2061 10.7467 18.9151 10.6945 18.9452C10.6422 18.9745 9.70462 18.4124 8.61097 17.6942C7.51732 16.976 5.13245 15.4099 3.31126 14.214C0.0443464 12.0687 0 12.0327 0 11.5222C0 11.2379 0.0311424 11.0048 0.0696398 11.0048C0.107926 11.0048 2.13375 12.3258 4.57147 13.9402C7.00917 15.5547 9.37256 17.1099 9.82343 17.3962L10.6432 17.9166L14.5464 15.8308L18.4495 13.7449L18.4518 13.1895C18.4529 12.8842 18.4008 12.634 18.3358 12.634C18.2709 12.634 16.5282 13.5338 14.4631 14.6336C12.398 15.7333 10.645 16.6331 10.5674 16.6331C10.4898 16.6331 8.5325 15.3817 6.21778 13.8522C3.90306 12.3227 1.55993 10.7789 1.01083 10.4216C0.461731 10.0643 0.0368676 9.73243 0.0666925 9.6844C0.0965619 9.63624 1.80145 8.83246 3.85545 7.89786C5.90944 6.96329 7.58997 6.1624 7.58997 6.11814C7.58997 6.07375 7.40938 5.92844 7.18869 5.79527L6.7874 5.5528L7.3003 5.3363C8.34097 4.89685 11.0052 3.75006 13.3637 2.72634C14.6976 2.14739 15.8872 1.67368 16.0073 1.67368C16.1274 1.67368 16.3511 1.75157 16.5045 1.84705C16.7313 1.98818 16.9325 1.9505 17.5814 1.64605C18.0204 1.44001 18.9998 0.985482 19.7579 0.63577L21.1363 0L22.8087 0.790338C26.5743 2.56993 31.9966 5.22261 31.9966 5.2853C31.9966 5.32298 30.8916 5.93682 29.541 6.65119L27.0855 7.94999V8.52814V9.10625L28.2388 8.4714C30.758 7.08478 31.7564 6.56157 31.883 6.56157C31.9558 6.56157 31.9944 6.77807 31.9688 7.04294C31.9244 7.50132 31.8086 7.58512 29.541 8.80009L27.1599 10.0759L27.1145 10.7626C27.0897 11.1403 27.0947 11.4493 27.1259 11.4493C27.157 11.4493 28.2303 10.8827 29.5109 10.1903C30.7916 9.49788 31.8748 8.93137 31.918 8.93137C31.9614 8.93137 31.9965 9.14787 31.9963 9.41275C31.9959 9.88298 31.9393 9.92452 29.5408 11.2126L27.0856 12.5311V13.1751C27.0856 13.5294 27.1256 13.8191 27.1749 13.8191C27.224 13.8191 28.1114 13.3617 29.1468 12.8026C30.1822 12.2436 31.247 11.6753 31.513 11.5399L31.9967 11.2936V11.808C31.9967 12.3215 31.9923 12.3246 29.5457 13.6262L27.0947 14.93L27.0903 15.6274L27.0858 16.3248L28.2392 15.7068C28.8735 15.3667 29.9618 14.7756 30.6575 14.3928L31.9225 13.6969L31.9715 14.1588C32.0315 14.7254 32.023 14.732 29.5414 16.0408C26.9853 17.389 27.0558 17.3298 27.113 18.079L27.1603 18.6994L29.3854 17.5021C32.1956 15.9901 31.997 16.0543 31.997 16.6567C31.997 17.1149 31.9263 17.1925 31.139 17.5982C30.6672 17.8415 29.5622 18.4342 28.6835 18.9156L27.0859 19.7909V20.4338C27.0859 20.7872 27.114 21.0767 27.1486 21.0767C27.1831 21.0767 28.2657 20.5101 29.5544 19.8177C30.8432 19.1253 31.92 18.5587 31.9473 18.5587C31.9747 18.5587 31.9969 18.7865 31.9969 19.0652C31.9969 19.5682 31.9806 19.5805 29.5482 20.8796C27.3118 22.0741 27.0956 22.2248 27.0554 22.618C27.0143 23.0196 26.7352 23.1953 22.8776 25.2469C20.6039 26.4561 18.6832 27.4455 18.6093 27.4455C18.5354 27.4455 18.4536 27.3132 18.4274 27.1515C18.3853 26.8915 18.0805 27.0205 15.7755 28.2727C12.0092 30.3188 10.7126 31 10.5838 31C10.5213 31 8.11554 29.4504 5.23773 27.5564L5.23729 27.5562ZM22.5191 24.3121C24.0893 23.485 25.5253 22.7165 25.7103 22.6044L26.0466 22.4005L26.0079 15.4944L25.9691 8.58836L24.3321 7.62788C22.3056 6.43887 18.269 4.0633 16.942 3.27869L15.9512 2.69284L12.6262 4.12741C10.7975 4.91645 9.25153 5.60632 9.19079 5.66055C9.13003 5.71458 11.0722 6.95245 13.5066 8.41093C15.941 9.8695 18.2844 11.2851 18.7141 11.5567L19.4954 12.0505V18.9332C19.4954 22.7186 19.5333 25.8158 19.5797 25.8158C19.6261 25.8158 20.9487 25.1391 22.5189 24.312L22.5191 24.3121ZM18.5509 9.355C17.6896 9.22685 17.5804 9.14436 17.8788 8.84745C18.0557 8.67157 18.193 8.65607 18.5122 8.77668C18.9926 8.95843 19.7904 8.97518 20.0534 8.81019C20.1759 8.73272 19.8463 8.48481 19.0861 8.08275L17.933 7.47273L17.1178 7.68421C15.6206 8.07283 14.0086 7.44593 13.9939 6.4692C13.9917 6.29583 14.0905 6.07054 14.2143 5.96819C14.3855 5.82665 14.3989 5.73368 14.2705 5.57957C14.1777 5.46818 14.1601 5.37312 14.2313 5.36852C14.3027 5.3643 14.629 5.32119 14.9565 5.27429C15.8245 5.14992 17.3832 5.15117 17.5091 5.2764C17.5687 5.33586 17.5191 5.48243 17.3987 5.6022C17.2415 5.75882 17.0558 5.78645 16.7379 5.70103C16.4947 5.6357 16.0949 5.62314 15.8493 5.67171C15.4192 5.75923 15.4436 5.78352 16.5142 6.32788C17.51 6.83437 17.6735 6.87588 18.0874 6.72696C19.1086 6.35929 20.7527 6.61725 21.4618 7.25586C21.7959 7.55696 21.8056 8.23951 21.4803 8.56313C21.2303 8.81188 21.3041 8.94211 21.8021 9.13006C21.8839 9.15937 21.9028 9.23767 21.8442 9.30049C21.7854 9.36331 21.5383 9.334 21.2951 9.23265C21.0518 9.13257 20.7863 9.09111 20.705 9.14137C20.3785 9.34237 19.231 9.45586 18.5508 9.35452L18.5509 9.355ZM20.8055 8.01608C20.8524 7.62578 20.5118 7.30551 19.8175 7.087C19.4401 6.96807 18.4524 7.10375 18.4561 7.27168C18.4595 7.41573 20.4275 8.46889 20.6117 8.42525C20.6936 8.40431 20.7808 8.22173 20.8055 8.01612L20.8055 8.01608ZM16.9409 7.17209C17.0809 7.08373 16.8341 6.88942 16.1042 6.51366C15.5348 6.22053 15.0269 6.02228 14.9755 6.07342C14.7327 6.31504 14.9058 6.86091 15.2914 7.06903C15.7422 7.31234 16.6305 7.36803 16.9409 7.17205V7.17209ZM14.0155 13.7309C15.8018 12.7864 17.2611 11.9699 17.2585 11.9165C17.2518 11.7716 8.98033 6.85676 8.75287 6.86233C8.47057 6.87075 2.15797 9.75157 2.15797 9.87356C2.15797 9.99751 10.4343 15.4402 10.6299 15.4448C10.7057 15.4469 12.2293 14.6753 14.0155 13.7309ZM27.9111 6.36919C28.8664 5.8562 29.6451 5.38052 29.6415 5.3121C29.6382 5.24383 27.7203 4.26727 25.38 3.1423L21.1249 1.09692L19.472 1.86841L17.819 2.63986L20.4748 4.19328C21.9355 5.04765 23.7023 6.09029 24.4011 6.51027C25.0999 6.93025 25.7847 7.28017 25.923 7.28788C26.0612 7.2963 26.9559 6.8821 27.9111 6.36919Z" fill="black"/>
</svg>
