<svg width="27" height="27" viewBox="0 0 27 27" fill="none" xmlns="http://www.w3.org/2000/svg">
<path d="M11.9613 26.878C3.83812 25.9398 -1.60232 18.0263 0.42595 10.0989C2.03907 3.79406 8.29403 -0.597941 14.7139 0.0663806C19.6242 0.57451 23.5883 3.36496 25.7021 7.80138C28.5098 13.6941 26.647 20.6512 21.2283 24.5098C20.1801 25.2563 18.1273 26.2114 16.9124 26.518C15.9217 26.7681 13.9632 27.0248 13.25 26.9981C13.0474 26.9903 12.4676 26.9366 11.9613 26.8779V26.878ZM14.8582 25.79C17.8645 25.4139 20.0366 24.3465 22.2104 22.1772C24.1102 20.2814 25.0963 18.5037 25.6694 15.9418C25.9088 14.8718 25.9396 12.2946 25.7252 11.2756C24.7077 6.43886 21.1769 2.66206 16.5642 1.47639C13.3918 0.660929 10.0954 1.14697 7.11505 2.86975C5.84073 3.60637 3.76387 5.64048 2.96054 6.93875C0.404227 11.0701 0.463529 16.2203 3.11363 20.2347C4.04842 21.6507 5.78371 23.3113 7.20632 24.1513C8.9219 25.1643 11.2855 25.8401 13.3146 25.8978C13.6202 25.9056 14.3148 25.8582 14.8582 25.7901V25.79ZM5.5962 18.1659C5.63778 16.2541 5.65283 16.1527 5.97619 15.6038C6.73481 14.316 8.6997 13.2125 11.2739 12.6286L11.6301 12.5477L11.0166 12.1354C10.2474 11.6184 9.80044 11.0946 9.39441 10.2343C9.12203 9.65705 9.07647 9.39387 9.07647 8.39686C9.07647 7.36956 9.11684 7.1511 9.42111 6.53279C10.1844 4.98156 11.5269 4.09112 13.2284 4.0075C14.4136 3.94916 15.0916 4.12807 16.0142 4.74304C18.621 6.4802 18.6028 10.3689 15.9795 12.1319L15.3666 12.5438L15.904 12.6818C17.2895 13.0377 17.7632 13.2048 18.664 13.6549C19.8422 14.2436 20.5679 14.8451 21.0147 15.6037C21.3381 16.1526 21.3531 16.254 21.3947 18.1658L21.438 20.1563H13.4954H5.55281L5.5962 18.1659ZM20.2847 17.829C20.3309 16.2674 20.1997 15.7696 19.6045 15.2481C18.2668 14.0761 14.7622 13.2523 12.3506 13.5431C9.6586 13.8674 7.56422 14.7345 6.91838 15.7914C6.72316 16.1111 6.68372 16.4135 6.68333 17.5943C6.68308 18.3747 6.72036 19.0504 6.76576 19.0959C6.81132 19.1414 9.86321 19.1643 13.5477 19.1468L20.2467 19.1157L20.2847 17.829ZM14.4913 11.6459C16.2489 11.125 17.2864 9.09549 16.6983 7.32856C16.0676 5.43365 13.8344 4.50583 12.0276 5.38803C10.7352 6.01902 10.0337 7.25346 10.1495 8.69299C10.2258 9.64231 10.566 10.3114 11.3004 10.9564C12.2167 11.7613 13.3068 11.9968 14.4913 11.6459Z" fill="#313131"/>
</svg>
