<svg width="35" height="35" viewBox="0 0 35 35" fill="none" xmlns="http://www.w3.org/2000/svg">
<path d="M15.0737 34.9154C14.8116 34.7733 14.8055 34.7274 14.8055 32.8982V31.2221L14.7008 31.1981C12.7314 30.7508 11.6271 30.2945 9.80139 29.1734C9.68903 29.1042 9.67458 29.1168 8.50983 30.2815C7.86198 30.9294 7.30172 31.4786 7.26483 31.5019C7.15741 31.5697 6.87937 31.5523 6.75442 31.4711C6.56589 31.3465 3.59121 28.3714 3.51875 28.2351C3.48203 28.1659 3.45203 28.0309 3.45203 27.9347C3.45203 27.7683 3.50978 27.7022 4.66183 26.5473C5.32722 25.8804 5.87163 25.3233 5.87163 25.3094C5.87163 25.2957 5.73359 25.0553 5.56489 24.7755C4.71666 23.3694 4.1692 21.9856 3.80408 20.3247L3.77599 20.1966H2.09946C0.259471 20.1966 0.220148 20.193 0.0793571 19.9189C-0.0264524 19.7144 -0.0264524 15.2825 0.0793571 15.0779C0.220141 14.8057 0.259461 14.8002 2.09946 14.8002H3.77599L3.80477 14.6721C4.18931 12.9593 4.74144 11.5645 5.57136 10.2093C5.8744 9.71446 5.9002 9.65795 5.83679 9.62754C5.81761 9.6173 5.27319 9.07665 4.627 8.42375C3.51093 7.2961 3.4521 7.2279 3.4521 7.06202C3.4521 6.96579 3.48223 6.83087 3.51882 6.76169C3.59127 6.6254 6.56596 3.65031 6.75449 3.52565C6.81776 3.48388 6.95296 3.44964 7.05493 3.44964C7.23524 3.44964 7.27357 3.48388 8.45328 4.65911C9.12041 5.32431 9.67765 5.86856 9.6916 5.86856C9.70565 5.86856 9.94583 5.73055 10.2256 5.56207C11.6416 4.70828 12.9567 4.18849 14.6777 3.80235L14.8056 3.77499V2.09889C14.8056 0.259419 14.8111 0.220106 15.0833 0.079362C15.2878 -0.026454 19.721 -0.026454 19.9255 0.079362C20.1978 0.220106 20.2032 0.259488 20.2032 2.09889V3.77499L20.3079 3.799C21.9327 4.15072 23.3141 4.69046 24.6833 5.50849C24.9959 5.69546 25.2697 5.85587 25.2916 5.86532C25.3136 5.87556 25.8798 5.33572 26.55 4.66748C27.7104 3.51032 27.7768 3.45248 27.9433 3.45248C28.0394 3.45248 28.1746 3.48328 28.2437 3.51925C28.3951 3.59971 31.4321 6.64249 31.5053 6.78714C31.5337 6.84296 31.5567 6.96418 31.5567 7.05665C31.5567 7.25526 31.5734 7.23608 30.141 8.66114C29.5889 9.21045 29.1371 9.67601 29.1371 9.69569C29.1371 9.71626 29.2345 9.88336 29.3536 10.0692C30.1781 11.3552 30.8141 12.9381 31.204 14.675L31.2328 14.8031H32.9093C34.3169 14.8031 34.6077 14.8134 34.7223 14.8737C35.0024 15.0186 35 14.9956 35 17.5012C35 20.0068 35.0027 19.9839 34.7223 20.1287C34.6077 20.1879 34.3169 20.1992 32.9093 20.1992H31.2328L31.2095 20.304C31.1968 20.3616 31.1557 20.5448 31.1186 20.7111C30.83 22.0026 30.21 23.5082 29.4439 24.7781C29.2752 25.0579 29.1372 25.298 29.1372 25.312C29.1372 25.3257 29.6816 25.883 30.347 26.55C31.5308 27.7366 31.5568 27.7667 31.5568 27.9513C31.5568 28.0866 31.5187 28.1914 31.4219 28.3214C31.2624 28.5361 28.4216 31.3631 28.2544 31.4737C28.1911 31.5155 28.0559 31.5497 27.9539 31.5497C27.7736 31.5497 27.7353 31.5155 26.5556 30.3403C25.8884 29.6751 25.328 29.1308 25.3101 29.1308C25.2923 29.1308 25.06 29.2654 24.7941 29.4297C23.4523 30.2589 22.0039 30.8314 20.3079 31.2031L20.2032 31.2271V32.9032C20.2032 34.7427 20.1978 34.782 19.9256 34.9228C19.7236 35.0272 15.2666 35.0252 15.0738 34.92L15.0737 34.9154ZM19.089 32.3251C19.0917 30.6228 19.1075 30.4852 19.319 30.3289C19.383 30.2817 19.6065 30.2128 19.8156 30.1762C20.4184 30.0704 21.2937 29.8318 21.9248 29.6012C22.7022 29.317 23.9188 28.7036 24.6054 28.2495C24.9126 28.0464 25.2151 27.8757 25.2776 27.8703C25.5902 27.843 25.6002 27.8532 26.7863 29.0339C27.4279 29.6736 27.966 30.1969 27.982 30.1969C28.02 30.1969 30.2072 28.01 30.2072 27.9721C30.2072 27.9549 29.6838 27.4183 29.044 26.7769L27.8807 25.6107V25.3761C27.8807 25.1775 27.9088 25.1025 28.0632 24.8867C29.0607 23.4941 29.8854 21.5232 30.1853 19.8149C30.2227 19.6019 30.292 19.3756 30.3393 19.3116C30.4956 19.1003 30.6333 19.0846 32.336 19.0815L33.9297 19.0788V17.4972V15.9155L32.336 15.9128C30.6328 15.9101 30.4937 15.8957 30.3415 15.683C30.2954 15.619 30.2053 15.3048 30.1413 14.9846C29.817 13.3617 29.166 11.7757 28.2595 10.4001C28.056 10.0916 27.8852 9.78785 27.88 9.72559C27.8536 9.41363 27.8611 9.40336 29.0518 8.20994C30.0697 7.18942 30.2149 7.02624 30.1619 6.96241C30.1141 6.90487 28.0893 4.8852 27.9943 4.80032C27.9816 4.79008 27.442 5.30703 26.7954 5.95165L25.6197 7.12371H25.3987C25.2117 7.12371 25.126 7.08909 24.8424 6.89871C23.2355 5.82111 21.5393 5.12444 19.7256 4.79714C19.354 4.73 19.2001 4.62351 19.1347 4.38846C19.1063 4.28607 19.0868 3.57864 19.0866 2.64617L19.0863 1.07616H17.5043H15.9222L15.9195 2.66941C15.9168 4.37216 15.9007 4.51122 15.6895 4.66337C15.6255 4.70958 15.3013 4.80137 14.9683 4.8678C13.2916 5.20204 11.5849 5.9159 10.275 6.83098C10.0737 6.97172 9.84863 7.10391 9.77478 7.12514C9.49404 7.20559 9.38503 7.12332 8.18841 5.92778L7.03805 4.77843L6.91477 4.89281C6.58145 5.2017 4.8013 6.99662 4.8013 7.02364C4.8013 7.04076 5.31466 7.56733 5.9421 8.19397C7.1255 9.37586 7.21029 9.48788 7.13092 9.7645C7.11071 9.83436 6.99983 10.0275 6.88412 10.1939C5.92455 11.5732 5.21612 13.254 4.86627 14.9814C4.7334 15.6374 4.71525 15.6827 4.53566 15.8044C4.41532 15.8859 4.28409 15.8934 2.74232 15.9061L1.07885 15.9198V17.497V19.0742L2.74232 19.0879C4.3858 19.1016 4.40758 19.1016 4.55367 19.2071C4.70747 19.3167 4.77399 19.4677 4.82476 19.8227C4.88697 20.2573 5.22824 21.4763 5.45163 22.0617C5.74594 22.833 6.31459 23.9385 6.76769 24.6202C7.33752 25.4775 7.38434 25.3528 5.95413 26.7867L4.78042 27.9634L5.80291 28.9984C6.36528 29.5677 6.87442 30.0725 6.93434 30.1202L7.04327 30.2072L8.21393 29.0451C9.06742 28.198 9.42106 27.8765 9.51924 27.8587C9.70791 27.8245 9.88737 27.8861 10.1423 28.071C10.797 28.5467 11.9459 29.1612 12.8212 29.5039C13.4447 29.7481 14.2734 29.9874 14.9909 30.1307C15.3111 30.1947 15.6255 30.2848 15.6895 30.3307C15.9007 30.4827 15.9167 30.6218 15.9195 32.3246L15.9222 33.9179H17.5043H19.0863L19.0891 32.3246L19.089 32.3251ZM16.5999 27.1662C13.2388 26.8704 10.192 24.739 8.72978 21.6608C7.42715 18.9186 7.49236 15.6522 8.90297 12.9852C10.9326 9.14781 15.191 7.13016 19.4511 7.9874C23.2449 8.75089 26.2568 11.7639 27.0176 15.5567C27.4413 17.6687 27.1647 19.8499 26.2321 21.7531C24.4487 25.3923 20.6567 27.5234 16.5999 27.1662H16.5999ZM19.0923 25.9701C20.0177 25.78 20.6362 25.5636 21.4595 25.1423C22.2057 24.7603 22.791 24.3412 23.4234 23.7361C24.6107 22.5999 25.3625 21.3621 25.8066 19.8123C26.1659 18.5582 26.2099 16.9934 25.9233 15.66C25.6523 14.399 25.0093 13.0598 24.2037 12.0781C23.3849 11.0803 22.3831 10.2896 21.2529 9.74915C19.8924 9.09857 18.7177 8.85502 17.1843 8.90564C15.8451 8.94977 14.8916 9.19227 13.6655 9.80052C12.7428 10.2582 12.2221 10.6371 11.4305 11.4267C10.6415 12.2138 10.2687 12.7259 9.80533 13.6597C9.197 14.8854 8.95443 15.8387 8.91021 17.1774C8.85797 18.7589 9.10988 19.9284 9.80577 21.3352C10.2565 22.2464 10.6402 22.7767 11.4082 23.55C12.1727 24.3198 12.8052 24.7787 13.7121 25.2214C14.6302 25.6697 15.5123 25.9375 16.4642 26.0571C17.017 26.1266 18.5834 26.0742 19.0923 25.9701ZM16.7292 21.8046C15.5709 21.583 14.5965 20.954 13.9124 19.9862C13.087 18.8185 12.9014 17.23 13.434 15.8923C13.939 14.624 15.0786 13.6142 16.4109 13.2544C16.9391 13.1117 18.0614 13.1113 18.5814 13.2537C19.1029 13.3965 19.5576 13.6028 19.954 13.8767C22.3891 15.5597 22.5348 19.02 20.2496 20.8994C19.7996 21.2695 19.2959 21.5301 18.6845 21.7092C18.1706 21.8595 17.2518 21.9047 16.7292 21.8047L16.7292 21.8046ZM18.2954 20.6782C18.4617 20.6413 18.7758 20.5234 18.9933 20.4166C19.3088 20.2615 19.4689 20.1416 19.7843 19.8249C20.0019 19.6065 20.2494 19.3094 20.3344 19.1644C20.9236 18.1595 20.9236 16.8354 20.3344 15.8305C20.1153 15.4568 19.4978 14.8489 19.1329 14.6477C18.0992 14.0776 16.8268 14.0855 15.8386 14.6682C15.4982 14.8689 14.8709 15.4952 14.6743 15.8306C14.0277 16.9334 14.0957 18.4044 14.8398 19.4114C15.6517 20.5101 16.9337 20.9801 18.2954 20.6783L18.2954 20.6782Z" fill="black"/>
</svg>
