<svg width="53" height="53" viewBox="0 0 53 53" fill="none" xmlns="http://www.w3.org/2000/svg">
<rect width="53" height="53" rx="15" fill="#313131"/>
<path d="M32.5869 40.1402L32.8396 40.1828L32.8397 40.1822C33.1113 40.2261 33.3021 40.2504 33.4985 40.25C33.7494 40.2495 34.0042 40.2089 34.4458 40.1371C37.3626 39.6629 39.4568 37.019 39.2323 34.0876C39.0126 31.2168 36.825 29.0184 33.9801 28.8191C31.6373 28.6549 29.4784 29.8787 28.4574 31.9572L28.1772 32.5274L24.7969 30.709C23.8062 30.1761 22.9133 29.6774 22.2732 29.3036C21.9526 29.1164 21.6979 28.9619 21.5267 28.8508C21.4911 28.8277 21.4599 28.807 21.4331 28.7887C21.72 28.146 21.8933 27.7228 21.9927 27.3359C22.1027 26.9081 22.1202 26.5338 22.1188 25.9773C22.1166 25.1329 22.0486 24.6358 21.845 24.118L21.6671 23.6657L24.9795 21.5747C25.938 20.9696 26.8109 20.4239 27.445 20.0321C27.7622 19.8362 28.019 19.6792 28.1966 19.5727C28.2098 19.5648 28.2225 19.5572 28.2348 19.5498C28.8023 20.7458 29.5653 21.6679 30.498 22.2807C31.4963 22.9367 32.6738 23.2283 33.9801 23.1368C36.825 22.9375 39.0126 20.739 39.2323 17.8682C39.3654 16.1296 38.7441 14.563 37.4354 13.3121C36.5437 12.4597 35.6319 12.0074 34.4151 11.8141C32.0146 11.4327 29.4435 12.7865 28.4089 14.9784C28.2228 15.3726 28.0637 15.8994 27.9581 16.4088C27.8531 16.9153 27.7955 17.4312 27.8273 17.8014L27.8528 18.0984L24.3924 20.2838L20.9724 22.4435L20.4643 21.9344C20.0626 21.5318 19.4127 21.0715 18.8793 20.8103C18.4644 20.6071 18.2045 20.4853 17.8674 20.423C17.5409 20.3626 17.148 20.3594 16.4679 20.3594C15.7981 20.3594 15.4041 20.3641 15.078 20.4214C14.7412 20.4806 14.4838 20.5944 14.086 20.7833L14.1932 21.0091L14.086 20.7833C13.0512 21.2745 11.9632 22.2549 11.4764 23.1511L11.6961 23.2704L11.4764 23.1511C9.86005 26.1272 11.0325 29.7334 14.0869 31.1691C14.4538 31.3416 14.7264 31.4514 15.0431 31.5202C15.3558 31.5881 15.701 31.6136 16.2095 31.6325C17.1841 31.6687 17.5851 31.6274 18.2227 31.4034C18.6299 31.2603 19.0852 31.0397 19.4835 30.8057C19.8765 30.5747 20.2381 30.3166 20.4413 30.0916C20.4439 30.0887 20.4461 30.0862 20.4481 30.0841C20.4975 30.0891 20.6086 30.1198 20.8527 30.2302C21.356 30.458 22.2879 30.958 24.1105 31.9422L27.7566 33.9111L27.8362 34.6953C28.012 36.4291 28.5839 37.6728 29.7068 38.71C30.0572 39.0337 30.5544 39.3521 31.0674 39.607C31.5801 39.8617 32.1286 40.063 32.5869 40.1402ZM21.3568 28.9588C21.357 28.9584 21.3572 28.958 21.3574 28.9575C21.3572 28.958 21.357 28.9584 21.3568 28.9588L21.3568 28.9588ZM18.2562 22.0595C21.5347 23.6729 21.5396 28.2852 18.27 29.8883C17.7588 30.1389 17.4249 30.2171 16.6578 30.2493C15.1301 30.3135 13.9765 29.7902 13.0548 28.6217C11.3762 26.4936 12.1033 23.3289 14.5564 22.1187C14.9388 21.93 15.1457 21.8407 15.3839 21.7923C15.6281 21.7426 15.9162 21.7333 16.4653 21.7333C16.9921 21.7333 17.2873 21.7441 17.5267 21.7884C17.7578 21.8312 17.9464 21.9071 18.2562 22.0595ZM31.6861 13.5624L31.5693 13.3413L31.6861 13.5624C31.9791 13.4077 32.1455 13.3355 32.3745 13.295C32.6168 13.2521 32.9356 13.2436 33.536 13.2436C34.1281 13.2436 34.4512 13.2529 34.703 13.2961C34.9437 13.3375 35.1262 13.4111 35.4345 13.5628C36.2467 13.9625 37.1057 14.862 37.5181 15.7554C37.7112 16.1737 37.8234 16.7316 37.8411 17.3075C37.8588 17.8831 37.7812 18.4543 37.6135 18.898C37.1203 20.2028 36.0156 21.2349 34.7209 21.6093C33.1543 22.0624 31.5886 21.6184 30.4365 20.3841C29.1472 19.0027 28.8981 17.079 29.7941 15.3943C30.2178 14.5978 30.7999 14.0303 31.6861 13.5624ZM37.7268 33.4662C38.2199 35.4047 37.266 37.4648 35.4527 38.3652C35.1603 38.5105 34.9561 38.5914 34.7174 38.6423C34.4736 38.6943 34.1835 38.7173 33.715 38.732C33.4128 38.7415 33.104 38.7389 32.8512 38.727C32.7247 38.7211 32.6143 38.713 32.5271 38.7034C32.434 38.693 32.3842 38.6827 32.3682 38.6774C30.3071 38.0007 29.0231 35.9872 29.3057 33.8999C29.4293 32.9869 29.7815 32.2684 30.4751 31.5334C32.7998 29.0702 36.8832 30.1504 37.7268 33.4662Z" fill="white" stroke="white" stroke-width="0.5"/>
</svg>
