<svg width="442" height="117" viewBox="0 0 442 117" fill="none" xmlns="http://www.w3.org/2000/svg">
<g filter="url(#filter0_d_0:1)">
<rect x="9" y="8" width="420" height="95" rx="10.6279" fill="white"/>
</g>
<path d="M59.0724 78.8969C54.7712 77.8251 53.1126 72.6898 56.0679 69.594C57.1851 68.4237 58.6389 67.7939 60.2283 67.7918C66.1383 67.7841 68.0588 75.6834 62.7969 78.3569C61.6873 78.9206 60.0944 79.1516 59.0724 78.8969ZM62.0461 75.0638C62.6019 74.5111 62.7969 74.075 62.7969 73.3842C62.7969 72.0613 61.6639 70.9581 60.3052 70.9581C59.1111 70.9581 58.3541 71.4402 57.9229 72.4752C56.885 74.9664 60.1085 76.9901 62.0461 75.0638ZM87.0702 78.8969C83.5085 78.0094 81.5954 74.2765 83.0596 71.0715C84.5914 67.7186 89.0286 66.7247 91.8284 69.1074C95.6229 72.3366 93.8338 78.286 88.8682 78.9513C88.3031 79.0269 87.494 79.0025 87.0702 78.8969ZM89.8972 75.2353C90.3497 74.8483 90.6169 74.3096 90.7142 73.5876C90.8425 72.6368 90.7701 72.4266 90.076 71.7365C88.7799 70.4479 86.8384 70.7052 86.0227 72.2736C84.7751 74.6722 87.8274 77.0054 89.8972 75.2353ZM48.2989 73.4551C47.8202 72.7756 47.746 69.5283 48.1872 68.5657C48.558 67.7566 49.0287 67.6459 52.1178 67.6417L54.6669 67.6378L54.1322 68.2124C53.1852 69.23 52.478 70.9113 52.3344 72.4863L52.1943 74.0223H50.4465C48.9316 74.0223 48.6454 73.9467 48.2989 73.4547V73.4551ZM68.1909 72.9055C68.1909 71.4463 67.5895 69.7884 66.6275 68.5958L65.855 67.6382H73.4124H80.9698L81.0159 58.5295C81.0418 53.4011 81.168 49.2238 81.3046 48.9701C81.438 48.7222 81.8073 48.4372 82.1253 48.3368C82.8274 48.1151 89.7472 48.1067 90.4336 48.3267C90.7311 48.422 92.0515 50.4618 93.8003 53.5279C97.6156 60.2167 97.8946 60.9983 96.4666 60.9983C95.2714 60.9983 94.9044 61.2436 94.9044 62.0423C94.9044 62.7822 95.0443 62.8706 96.574 63.0977C97.0082 63.1622 97.0996 63.4008 97.1647 64.6399L97.2417 66.1059H94.5072C92.7455 66.1059 91.2629 65.9585 90.3397 65.6917C85.5512 64.3076 80.2633 68.1588 80.2633 73.0304V74.0226H74.2271H68.1909L68.1909 72.9055ZM92.4617 57.6825C92.5476 57.5443 91.8301 56.0791 90.8673 54.4265L89.1167 51.4217L86.6165 51.3486L84.1163 51.2755V54.4344C84.1163 56.1718 84.1934 57.67 84.2875 57.7636C84.5649 58.0394 92.2874 57.9629 92.4617 57.6826V57.6825ZM96.1887 72.8786C96.1887 71.5654 95.6106 69.9171 94.7372 68.7406C94.4053 68.2934 94.1338 67.8625 94.1338 67.7829C94.1338 67.7033 94.9482 67.6382 95.9435 67.6382C97.5296 67.6382 97.8323 67.7167 98.393 68.2743C98.9674 68.8454 99.0286 69.1 98.9912 70.7642C98.9325 73.3774 98.5491 74.0116 97.0235 74.0187C96.2053 74.0226 96.1887 73.9999 96.1887 72.8786ZM48.9447 65.6653C48.4603 65.416 47.8246 64.8876 47.532 64.4911C47.0145 63.7897 47 63.4865 47 53.3821C47 43.6007 47.0284 42.9524 47.4876 42.2788C48.4096 40.9264 48.9285 40.8235 54.8215 40.8235H60.2283L60.2312 41.5257C60.2409 43.7342 61.5805 46.7002 63.4991 48.7606C67.4831 53.0389 74.1881 53.6412 78.971 50.1505L80.2632 49.2074V56.2773C80.2632 62.3174 80.2015 63.4765 79.8396 64.2349C79.0129 65.967 78.9535 65.9782 70.6427 65.9782C64.9575 65.9782 62.8306 65.8897 61.7051 65.6063C60.4263 65.2842 60.03 65.2826 58.7512 65.5938C57.9389 65.7916 55.5983 65.9905 53.5498 66.0359C50.3765 66.1063 49.695 66.0515 48.9446 65.6653L48.9447 65.6653ZM69.6669 50.2669C66.935 49.5806 64.3859 47.5017 63.1106 44.9201C62.4785 43.6403 62.4116 43.2362 62.4116 40.6958C62.4116 37.9816 62.4413 37.8321 63.2907 36.2745C66.9313 29.5989 76.1563 29.1736 80.2638 35.4921C84.2919 41.6885 79.9854 50.0692 72.5945 50.4168C71.5146 50.4676 70.1972 50.4001 69.6669 50.2669ZM75.29 47.1282C79.6654 44.9201 80.5535 39.0189 77.0233 35.6102C75.5616 34.1988 74.0041 33.5648 72.0461 33.5842C66.7242 33.6368 63.2964 38.794 65.381 43.6118C66.0551 45.1699 67.9724 46.9907 69.5458 47.5672C71.1413 48.1518 73.6402 47.9608 75.29 47.1282ZM73.9953 43.3772C73.0504 42.675 72.0802 42.0986 71.8395 42.0964C70.6583 42.0859 70.0627 40.7472 70.7438 39.6336C70.996 39.2215 71.2831 38.0851 71.3819 37.1085C71.6228 34.7279 71.7458 34.3425 72.157 34.6818C72.3413 34.8339 72.5606 35.8662 72.6598 37.0491C72.7653 38.3069 72.9857 39.3115 73.2104 39.5583C73.4164 39.7846 73.585 40.252 73.585 40.5969C73.585 41.0186 74.0477 41.6783 74.9977 42.6111C77.3644 44.9348 76.7366 45.4146 73.9953 43.3772Z" fill="#3CB043"/>
<path d="M135.803 60.3369C135.803 59.6452 135.559 59.1162 135.071 58.75C134.583 58.3757 133.704 57.985 132.434 57.5781C131.165 57.1631 130.16 56.7562 129.419 56.3574C127.401 55.2669 126.392 53.798 126.392 51.9507C126.392 50.9904 126.66 50.1359 127.197 49.3872C127.743 48.6304 128.52 48.0404 129.529 47.6172C130.546 47.194 131.685 46.9824 132.947 46.9824C134.216 46.9824 135.347 47.2144 136.34 47.6782C137.333 48.134 138.102 48.7809 138.647 49.6191C139.201 50.4574 139.478 51.4095 139.478 52.4756H135.815C135.815 51.6618 135.559 51.0311 135.046 50.5835C134.534 50.1278 133.813 49.8999 132.886 49.8999C131.991 49.8999 131.295 50.0911 130.798 50.4736C130.302 50.848 130.054 51.3444 130.054 51.9629C130.054 52.5407 130.343 53.0249 130.92 53.4155C131.506 53.8062 132.365 54.1724 133.496 54.5142C135.579 55.1408 137.097 55.918 138.049 56.8457C139.001 57.7734 139.478 58.929 139.478 60.3125C139.478 61.8506 138.896 63.0591 137.732 63.938C136.568 64.8088 135.002 65.2441 133.032 65.2441C131.665 65.2441 130.42 64.9959 129.297 64.4995C128.174 63.995 127.315 63.3073 126.721 62.4365C126.135 61.5658 125.842 60.5566 125.842 59.4092H129.517C129.517 61.3704 130.688 62.3511 133.032 62.3511C133.903 62.3511 134.583 62.1761 135.071 61.8262C135.559 61.4681 135.803 60.9717 135.803 60.3369ZM145.178 53.2324C146.114 52.1094 147.29 51.5479 148.706 51.5479C151.571 51.5479 153.023 53.2121 153.064 56.5405V65H149.536V56.6382C149.536 55.8813 149.373 55.3239 149.048 54.9658C148.722 54.5996 148.181 54.4165 147.424 54.4165C146.391 54.4165 145.642 54.8153 145.178 55.6128V65H141.65V46.25H145.178V53.2324ZM159.448 65H155.908V51.792H159.448V65ZM155.701 48.374C155.701 47.8451 155.876 47.4097 156.226 47.0679C156.584 46.7261 157.068 46.5552 157.678 46.5552C158.28 46.5552 158.761 46.7261 159.119 47.0679C159.477 47.4097 159.656 47.8451 159.656 48.374C159.656 48.9111 159.473 49.3506 159.106 49.6924C158.748 50.0342 158.272 50.2051 157.678 50.2051C157.084 50.2051 156.604 50.0342 156.238 49.6924C155.88 49.3506 155.701 48.9111 155.701 48.374ZM174.255 58.5181C174.255 60.5526 173.792 62.1842 172.864 63.4131C171.944 64.6338 170.699 65.2441 169.128 65.2441C167.794 65.2441 166.715 64.7803 165.894 63.8525V70.0781H162.366V51.792H165.637L165.759 53.0859C166.614 52.0605 167.729 51.5479 169.104 51.5479C170.732 51.5479 171.997 52.1501 172.9 53.3545C173.804 54.5589 174.255 56.2191 174.255 58.335V58.5181ZM170.728 58.2617C170.728 57.0329 170.508 56.0848 170.068 55.4175C169.637 54.7502 169.006 54.4165 168.176 54.4165C167.069 54.4165 166.309 54.8397 165.894 55.686V61.0938C166.325 61.9645 167.094 62.3999 168.201 62.3999C169.885 62.3999 170.728 61.0205 170.728 58.2617ZM186.902 48.5449V51.792H189.16V54.3799H186.902V60.9717C186.902 61.46 186.995 61.8099 187.183 62.0215C187.37 62.2331 187.728 62.3389 188.257 62.3389C188.647 62.3389 188.993 62.3104 189.294 62.2534V64.9268C188.603 65.1383 187.891 65.2441 187.158 65.2441C184.684 65.2441 183.423 63.995 183.374 61.4966V54.3799H181.445V51.792H183.374V48.5449H186.902ZM194.568 53.2324C195.504 52.1094 196.68 51.5479 198.096 51.5479C200.96 51.5479 202.413 53.2121 202.454 56.5405V65H198.926V56.6382C198.926 55.8813 198.763 55.3239 198.438 54.9658C198.112 54.5996 197.571 54.4165 196.814 54.4165C195.78 54.4165 195.032 54.8153 194.568 55.6128V65H191.04V46.25H194.568V53.2324ZM211.194 65.2441C209.257 65.2441 207.678 64.6501 206.458 63.4619C205.245 62.2738 204.639 60.6909 204.639 58.7134V58.3716C204.639 57.0451 204.895 55.861 205.408 54.8193C205.92 53.7695 206.645 52.9639 207.581 52.4023C208.525 51.8327 209.599 51.5479 210.803 51.5479C212.61 51.5479 214.03 52.1175 215.063 53.2568C216.105 54.3962 216.626 56.0116 216.626 58.103V59.5435H208.215C208.329 60.4061 208.671 61.0978 209.241 61.6187C209.819 62.1395 210.547 62.3999 211.426 62.3999C212.785 62.3999 213.847 61.9076 214.612 60.9229L216.345 62.8638C215.816 63.6125 215.1 64.1984 214.197 64.6216C213.293 65.0366 212.292 65.2441 211.194 65.2441ZM210.791 54.4043C210.091 54.4043 209.521 54.6403 209.082 55.1123C208.651 55.5843 208.374 56.2598 208.252 57.1387H213.159V56.8579C213.143 56.0767 212.931 55.4744 212.524 55.0513C212.118 54.62 211.54 54.4043 210.791 54.4043ZM228.589 65H225.049V51.792H228.589V65ZM224.841 48.374C224.841 47.8451 225.016 47.4097 225.366 47.0679C225.724 46.7261 226.208 46.5552 226.819 46.5552C227.421 46.5552 227.901 46.7261 228.259 47.0679C228.617 47.4097 228.796 47.8451 228.796 48.374C228.796 48.9111 228.613 49.3506 228.247 49.6924C227.889 50.0342 227.413 50.2051 226.819 50.2051C226.225 50.2051 225.745 50.0342 225.378 49.6924C225.02 49.3506 224.841 48.9111 224.841 48.374ZM235.73 48.5449V51.792H237.988V54.3799H235.73V60.9717C235.73 61.46 235.824 61.8099 236.011 62.0215C236.198 62.2331 236.556 62.3389 237.085 62.3389C237.476 62.3389 237.821 62.3104 238.123 62.2534V64.9268C237.431 65.1383 236.719 65.2441 235.986 65.2441C233.512 65.2441 232.251 63.995 232.202 61.4966V54.3799H230.273V51.792H232.202V48.5449H235.73ZM246.033 65.2441C244.096 65.2441 242.517 64.6501 241.296 63.4619C240.084 62.2738 239.478 60.6909 239.478 58.7134V58.3716C239.478 57.0451 239.734 55.861 240.247 54.8193C240.759 53.7695 241.484 52.9639 242.419 52.4023C243.363 51.8327 244.438 51.5479 245.642 51.5479C247.449 51.5479 248.869 52.1175 249.902 53.2568C250.944 54.3962 251.465 56.0116 251.465 58.103V59.5435H243.054C243.168 60.4061 243.51 61.0978 244.08 61.6187C244.657 62.1395 245.386 62.3999 246.265 62.3999C247.624 62.3999 248.686 61.9076 249.451 60.9229L251.184 62.8638C250.655 63.6125 249.939 64.1984 249.036 64.6216C248.132 65.0366 247.131 65.2441 246.033 65.2441ZM245.63 54.4043C244.93 54.4043 244.36 54.6403 243.921 55.1123C243.49 55.5843 243.213 56.2598 243.091 57.1387H247.998V56.8579C247.982 56.0767 247.77 55.4744 247.363 55.0513C246.956 54.62 246.379 54.4043 245.63 54.4043ZM256.787 51.792L256.897 53.269C257.833 52.1216 259.098 51.5479 260.693 51.5479C262.394 51.5479 263.562 52.2192 264.197 53.562C265.125 52.2192 266.447 51.5479 268.164 51.5479C269.596 51.5479 270.662 51.967 271.362 52.8052C272.062 53.6353 272.412 54.8885 272.412 56.5649V65H268.872V56.5771C268.872 55.8285 268.726 55.2832 268.433 54.9414C268.14 54.5915 267.623 54.4165 266.882 54.4165C265.824 54.4165 265.092 54.9211 264.685 55.9302L264.697 65H261.169V56.5894C261.169 55.8244 261.019 55.271 260.718 54.9292C260.417 54.5874 259.904 54.4165 259.18 54.4165C258.179 54.4165 257.454 54.8315 257.007 55.6616V65H253.479V51.792H256.787Z" fill="#313131"/>
<defs>
<filter id="filter0_d_0:1" x="0.497707" y="0.560494" width="441.256" height="116.256" filterUnits="userSpaceOnUse" color-interpolation-filters="sRGB">
<feFlood flood-opacity="0" result="BackgroundImageFix"/>
<feColorMatrix in="SourceAlpha" type="matrix" values="0 0 0 0 0 0 0 0 0 0 0 0 0 0 0 0 0 0 127 0" result="hardAlpha"/>
<feOffset dx="2.12557" dy="3.18836"/>
<feGaussianBlur stdDeviation="5.31393"/>
<feComposite in2="hardAlpha" operator="out"/>
<feColorMatrix type="matrix" values="0 0 0 0 0 0 0 0 0 0 0 0 0 0 0 0 0 0 0.1 0"/>
<feBlend mode="normal" in2="BackgroundImageFix" result="effect1_dropShadow_0:1"/>
<feBlend mode="normal" in="SourceGraphic" in2="effect1_dropShadow_0:1" result="shape"/>
</filter>
</defs>
</svg>
