<svg width="53" height="53" viewBox="0 0 53 53" fill="none" xmlns="http://www.w3.org/2000/svg">
<rect width="53" height="53" rx="15" fill="#313131"/>
<path d="M13.1681 35.6764C10.9542 35.2183 9.9976 34.3763 9.61449 32.5481C9.4681 31.8495 9.72758 30.6869 10.2199 29.8356C10.4894 29.3696 10.5567 28.8351 10.5138 27.5028C10.4789 26.4206 10.5691 25.4071 10.7549 24.7915C11.045 23.831 11.0404 23.7993 10.5543 23.4133C10.2806 23.196 9.81894 22.7994 9.52836 22.5319L9 22.0456L9.66484 20.8637C10.3951 19.5653 10.6589 19.469 11.7027 20.1199L12.4055 20.5581L13.1437 19.7484C13.5497 19.303 13.9686 18.9996 14.0746 19.0744C14.1806 19.1492 14.3206 19.5849 14.3857 20.0427C14.5562 21.2413 15.3721 22.3353 16.4438 22.8022C17.2404 23.1493 17.5092 23.1652 18.4626 22.9218C20.2346 22.4694 21.3106 21.4737 22.337 19.3366C23.2525 17.4301 24.2885 16 24.7539 16C24.9013 16 25.1108 16.2667 25.2194 16.5927C25.3281 16.9187 25.6992 17.6533 26.0441 18.2253C26.5718 19.1002 26.7536 19.2472 27.1903 19.1519C27.9945 18.9766 28.2092 19.1815 28.3512 20.2618C28.4953 21.3576 28.8482 21.6673 29.4581 21.2328C30.0109 20.839 30.5708 21.2815 30.5208 22.0726C30.4805 22.71 30.7765 22.8184 31.5673 22.4557C32.1063 22.2085 32.6766 22.5755 32.6766 23.1696C32.6766 23.5633 32.7294 23.5999 32.9695 23.3725C33.3781 22.9857 34.0504 23.2852 34.1262 23.8879C34.18 24.3161 34.8326 24.6674 38.526 26.2561C43.0462 28.2004 45.3068 29.3787 45.7281 30.0099C46.202 30.7199 46.0401 32.0251 45.3701 32.8956C43.4061 35.4473 39.2781 36.0349 23.5697 35.9984C17.1445 35.9837 14.214 35.8928 13.1681 35.6764ZM15.2417 33.4305C15.2349 32.3864 15.3035 31.2992 15.3942 31.0144C15.5176 30.6271 15.4844 30.4967 15.2627 30.4967C14.5746 30.4967 14.2713 33.415 14.8311 34.65C15.0004 35.0233 15.1648 35.3289 15.1965 35.3289C15.2282 35.3289 15.2485 34.4746 15.2417 33.4305H15.2417ZM16.408 33.8907C16.3435 33.0997 16.3848 32.0651 16.4998 31.5915C16.7773 30.4476 16.423 30.2102 16.0319 31.2781C15.6786 32.2427 15.6473 33.5972 15.955 34.6042C16.3146 35.781 16.5339 35.4356 16.408 33.8907ZM17.7231 34.247C17.5628 33.2684 17.6154 32.2409 17.8827 31.1295C17.9443 30.8734 17.8672 30.7267 17.6711 30.7267C17.2406 30.7267 16.8742 32.4298 17.014 33.7812C17.1437 35.0346 17.2619 35.3289 17.6356 35.3289C17.8416 35.3289 17.861 35.089 17.7231 34.247ZM18.9297 34.3644C18.8252 33.834 18.8014 32.8371 18.8767 32.1492C18.9871 31.141 18.9598 30.9189 18.7359 31.0041C18.0307 31.2722 18.1397 35.3289 18.8521 35.3289C19.062 35.3289 19.0787 35.1211 18.9297 34.3644H18.9297ZM20.0794 33.258C20.0733 31.8878 19.9937 31.187 19.8441 31.187C19.6072 31.187 19.2934 33.1984 19.4447 33.7463C19.4929 33.9207 19.587 34.348 19.6538 34.6961C19.8941 35.947 20.0885 35.2902 20.0794 33.258ZM21.2523 33.3727C21.2232 31.3565 20.9916 30.8202 20.7255 32.1535C20.5839 32.8633 20.7001 34.7699 20.9086 35.1563C21.1776 35.6548 21.2776 35.1354 21.2523 33.3727ZM22.4254 33.3727C22.3617 31.4643 22.1569 30.8906 21.9118 31.9339C21.6377 33.1008 21.8686 35.3276 22.2637 35.3285C22.4192 35.329 22.4701 34.7128 22.4254 33.3727ZM23.5364 33.487C23.5287 32.1242 23.457 31.6462 23.2604 31.6462C23.0684 31.6462 22.9949 32.0552 22.9949 33.1231C22.9949 33.9354 23.05 34.7637 23.1173 34.9639C23.3907 35.7766 23.5462 35.2285 23.5364 33.487ZM24.7346 34.6088C24.6652 34.2133 24.6085 33.3849 24.6085 32.768C24.6085 32.151 24.5177 31.6462 24.4068 31.6462C24.2892 31.6462 24.2051 32.4132 24.2051 33.487C24.2051 35.0329 24.2576 35.3279 24.5329 35.3279C24.7924 35.3279 24.8344 35.1782 24.7346 34.6088ZM25.8532 33.6026C25.8031 32.2997 25.7166 31.8764 25.5002 31.8764C25.3031 31.8764 25.2143 32.1457 25.2158 32.7392C25.2197 34.0956 25.4468 35.3278 25.6939 35.3284C25.8462 35.3289 25.898 34.768 25.8532 33.6026ZM27.1514 34.9639C27.0841 34.7637 27.029 33.9871 27.029 33.2381C27.029 32.181 26.9613 31.8764 26.7264 31.8764C26.4915 31.8764 26.4238 32.181 26.4238 33.2381C26.4238 34.8297 26.5543 35.3279 26.9713 35.3279C27.1643 35.3279 27.2295 35.1961 27.1514 34.9639ZM28.2163 33.7172C28.2002 32.5072 28.1251 32.1064 27.9145 32.1064C27.7096 32.1064 27.6341 32.4422 27.6341 33.3532C27.6341 34.6909 27.7709 35.3279 28.0584 35.3279C28.1571 35.3279 28.2282 34.6031 28.2163 33.7172ZM29.3705 33.785C29.2793 31.7268 28.8443 31.528 28.8443 33.5445C28.8443 34.3565 28.9048 35.09 28.9787 35.1744C29.3291 35.5741 29.4334 35.204 29.3705 33.785ZM30.584 34.6088C30.5146 34.2132 30.4579 33.5402 30.4579 33.1131C30.4579 32.686 30.3671 32.3364 30.2562 32.3364C30.1424 32.3364 30.0545 32.9884 30.0545 33.8321C30.0545 35.0593 30.1133 35.3278 30.3823 35.3278C30.6418 35.3278 30.6838 35.1781 30.584 34.6088ZM31.7881 33.8959C31.7053 32.5381 31.4628 32.0148 31.1683 32.5584C30.9282 33.0015 31.2853 35.3278 31.5933 35.3278C31.8141 35.3278 31.8565 35.0167 31.7881 33.8959ZM33.0373 33.9489C32.9988 33.0353 32.8941 32.5692 32.7271 32.5683C32.459 32.5683 32.3544 34.8838 32.6094 35.1748C32.9627 35.5779 33.0905 35.2121 33.0373 33.9489ZM14.115 34.5078C13.8282 33.6472 13.8744 31.9816 14.2105 31.0638C14.4684 30.3597 14.4672 30.2659 14.2002 30.2659C13.4883 30.2659 13.0333 33.2251 13.5472 34.512C13.8698 35.3195 14.3842 35.3157 14.115 34.512L14.115 34.5078ZM34.2903 33.9611C34.2903 32.8558 34.025 32.3103 33.6836 32.7135C33.411 33.0356 33.6967 35.098 34.0139 35.098C34.2106 35.098 34.2903 34.7703 34.2903 33.9611ZM35.4282 34.2351C35.3595 33.7605 35.3022 33.1911 35.301 32.9696C35.2994 32.7481 35.208 32.5669 35.0971 32.5669C34.9861 32.5669 34.8954 33.1364 34.8954 33.8325C34.8954 34.8491 34.9601 35.098 35.2243 35.098C35.4922 35.098 35.53 34.9378 35.4282 34.2351ZM36.7085 34.8104C36.7007 33.805 36.423 32.797 36.1536 32.797C35.9163 32.797 35.878 32.9829 35.9761 33.6599C36.0449 34.1345 36.1021 34.6522 36.1034 34.8104C36.105 34.9686 36.2417 35.098 36.4081 35.098C36.5745 35.098 36.7097 34.9686 36.7085 34.8104ZM12.7584 33.3141C12.6886 32.2006 12.7523 31.5108 12.9833 30.8802C13.213 30.253 13.2342 30.0263 13.0572 30.0907C12.6578 30.2362 12.0947 32.3577 12.2168 33.2573C12.5098 35.4154 12.8927 35.4556 12.7584 33.3138L12.7584 33.3141ZM37.9209 33.8325C37.9209 33.0655 37.8425 32.797 37.6183 32.797C37.3942 32.797 37.3158 33.0655 37.3158 33.8325C37.3158 34.5995 37.3942 34.8679 37.6183 34.8679C37.8425 34.8679 37.9209 34.5995 37.9209 33.8325ZM39.1311 33.8325C39.1311 33.0655 39.0527 32.797 38.8286 32.797C38.6044 32.797 38.526 33.0655 38.526 33.8325C38.526 34.5995 38.6044 34.8679 38.8286 34.8679C39.0527 34.8679 39.1311 34.5995 39.1311 33.8325ZM40.3413 33.7174C40.3413 33.0527 40.2573 32.797 40.0388 32.797C39.8203 32.797 39.7362 33.0527 39.7362 33.7174C39.7362 34.3822 39.8203 34.6379 40.0388 34.6379C40.2573 34.6379 40.3413 34.3822 40.3413 33.7174ZM11.6371 32.9633C11.6294 32.0457 11.749 31.2357 11.9649 30.742C12.3649 29.8273 12.3678 29.8056 12.0931 29.8056C11.7833 29.8056 11.104 31.6427 11.0989 32.4944C11.095 33.1876 11.3941 34.4078 11.5684 34.4078C11.6127 34.4078 11.6436 33.7578 11.637 32.9633H11.6371ZM41.5139 33.5271C41.5606 32.9877 41.4948 32.797 41.2618 32.797C41.0345 32.797 40.9464 33.0271 40.9464 33.6216C40.9464 34.6612 41.4226 34.582 41.5139 33.5271ZM42.5601 33.3722C42.5601 32.9293 42.4693 32.5669 42.3584 32.5669C42.2474 32.5669 42.1567 32.9293 42.1567 33.3722C42.1567 33.8153 42.2474 34.1777 42.3584 34.1777C42.4693 34.1777 42.5601 33.8153 42.5601 33.3722ZM43.5686 33.0271C43.5686 32.6474 43.4778 32.3368 43.3669 32.3368C43.2559 32.3368 43.1652 32.6474 43.1652 33.0271C43.1652 33.4068 43.2559 33.7174 43.3669 33.7174C43.4778 33.7174 43.5686 33.4068 43.5686 33.0271ZM10.8888 30.5043C11.0199 30.2249 11.0811 29.9438 11.0248 29.8796C10.7954 29.618 10.2892 31.2308 10.3113 32.1528L10.3351 33.1422L10.4928 32.0772C10.5796 31.4914 10.7578 30.7836 10.8888 30.5043H10.8888ZM44.5771 32.5669C44.5771 32.3138 44.4863 32.1067 44.3754 32.1067C44.2645 32.1067 44.1737 32.3138 44.1737 32.5669C44.1737 32.82 44.2645 33.0271 44.3754 33.0271C44.4863 33.0271 44.5771 32.82 44.5771 32.5669ZM42.8883 31.7631C44.678 31.3725 45.4928 30.7481 44.9741 30.1647C44.5788 29.7202 42.0481 28.4941 37.5281 26.5573C34.16 25.1139 33.7889 25.0002 33.6134 25.358C33.3172 25.9618 31.8422 27.7347 31.6361 27.7347C31.2155 27.7347 31.2413 26.9874 31.6802 26.4544C32.0402 26.0172 32.0921 25.8254 31.9075 25.6147C31.7758 25.4645 31.6681 25.0516 31.6681 24.6973C31.6681 24.3429 31.6225 24.053 31.5667 24.053C31.511 24.053 31.1525 24.4481 30.7701 24.9309C30.3877 25.4138 29.7491 26.009 29.351 26.2536C28.7187 26.642 28.6029 26.6547 28.4345 26.3536C28.2888 26.0929 28.4129 25.8498 28.9436 25.3564C29.564 24.7796 29.6106 24.6643 29.346 24.3625C29.1271 24.1127 29.1008 23.9058 29.2481 23.592C29.6518 22.7313 29.4289 22.6897 28.4913 23.4505C27.9643 23.8782 27.1563 24.4444 26.6957 24.709C25.9293 25.1491 25.8352 25.1584 25.5877 24.8181C25.3577 24.5019 25.3716 24.4083 25.6807 24.1921C28.2821 22.3728 28.4773 22.1944 28.2334 21.8592C27.929 21.4407 27.634 21.4229 27.634 21.8227C27.634 21.9883 27.5034 22.3248 27.3438 22.5705C27.0825 22.9727 27.0222 22.982 26.7385 22.6636C26.453 22.3432 26.4611 22.2258 26.824 21.4137C27.0443 20.9207 27.1819 20.4687 27.1298 20.4093C27.0776 20.3502 26.5524 20.6668 25.9626 21.1134C24.607 22.1403 23.3034 22.9021 22.9021 22.9021C22.3008 22.9021 22.5796 22.0734 23.3154 21.6731C23.7136 21.4564 24.5279 20.9228 25.1249 20.4871L26.2104 19.695L25.3724 18.3096C24.3662 16.6461 24.3036 16.6764 22.9867 19.4677C21.9539 21.657 21.0333 22.6732 19.4839 23.3345C17.008 24.3914 15.0547 23.553 13.9486 20.9588C13.576 20.0848 13.56 20.0749 13.3265 20.5727C13.1176 21.0179 13.1662 21.1867 13.7042 21.8858C14.5807 23.0247 14.5159 23.6891 13.4104 24.8975C12.9093 25.4453 12.4078 25.8935 12.2961 25.8935C12.1844 25.8935 12.0067 25.6346 11.9012 25.3182C11.6412 24.538 11.3725 24.5948 11.2205 25.4621C11.0492 26.439 11.0666 28.4825 11.2488 28.7892C11.4696 29.161 22.3824 30.8177 28.5417 31.4144C36.2772 32.1638 40.5731 32.2682 42.8882 31.7628L42.8883 31.7631ZM13.4623 23.7866C13.7628 23.2214 13.7614 23.1298 13.4436 22.5765C13.2545 22.2472 12.5924 21.5936 11.9723 21.124L10.8449 20.2699L10.3656 20.9534C10.1019 21.3293 9.88576 21.7081 9.88521 21.7952C9.88467 21.8822 10.2829 22.28 10.7701 22.6792C11.2574 23.0784 11.8215 23.7557 12.0239 24.1843C12.3461 24.867 12.4379 24.9286 12.7645 24.6809C12.9695 24.5254 13.2835 24.123 13.4623 23.7866H13.4623ZM12.5064 23.7075C12.5064 23.5177 12.4156 23.3624 12.3046 23.3624C12.1937 23.3624 12.1029 23.2514 12.1029 23.1158C12.1029 22.8121 11.7698 22.4239 11.0457 21.8837C10.7416 21.6568 10.5427 21.3789 10.6038 21.2662C10.7837 20.9342 11.0944 21.0316 11.0944 21.42C11.0944 21.6173 11.1862 21.714 11.2984 21.635C11.5233 21.4764 12.7081 22.7197 12.7081 23.1145C12.7081 23.2508 12.7988 23.3624 12.9098 23.3624C13.0207 23.3624 13.1115 23.5177 13.1115 23.7075C13.1115 23.8973 12.9753 24.0526 12.8089 24.0526C12.6425 24.0526 12.5064 23.8973 12.5064 23.7075ZM30.5588 23.5925C30.6273 23.4659 30.5873 23.3624 30.4698 23.3624C30.3523 23.3624 30.2562 23.4659 30.2562 23.5925C30.2562 23.719 30.2962 23.8225 30.3451 23.8225C30.3941 23.8225 30.4902 23.719 30.5588 23.5925Z" fill="white"/>
</svg>
