<svg width="41" height="20" viewBox="0 0 41 20" fill="none" xmlns="http://www.w3.org/2000/svg">
<path d="M4.61868 19.6764C2.16541 19.2183 1.10545 18.3763 0.680924 16.5481C0.518706 15.8495 0.806235 14.6869 1.35176 13.8356C1.65043 13.3696 1.72503 12.8351 1.67743 11.5028C1.63874 10.4206 1.73868 9.40709 1.94467 8.79152C2.26608 7.83104 2.26096 7.79929 1.7223 7.41332C1.41906 7.19599 0.907479 6.79941 0.585475 6.53189L0 6.04556L0.736712 4.86365C1.54596 3.56529 1.83822 3.46902 2.99487 4.1199L3.77367 4.55813L4.59165 3.74836C5.04154 3.303 5.50573 2.99965 5.62319 3.07444C5.74064 3.14923 5.89578 3.58486 5.96794 4.04267C6.15688 5.24127 7.061 6.33526 8.24858 6.80219C9.13124 7.14929 9.42906 7.1652 10.4856 6.92178C12.4492 6.46936 13.6414 5.47366 14.7788 3.33657C15.7933 1.43012 16.9413 0 17.4571 0C17.6204 0 17.8525 0.266734 17.9729 0.592694C18.0933 0.918654 18.5045 1.65328 18.8867 2.22528C19.4715 3.10018 19.6729 3.24716 20.1568 3.15193C21.048 2.9766 21.2859 3.1815 21.4432 4.26183C21.6028 5.35764 21.994 5.66734 22.6697 5.23284C23.2823 4.83896 23.9028 5.28154 23.8474 6.07261C23.8027 6.71001 24.1307 6.81837 25.007 6.45571C25.6042 6.20846 26.2363 6.57547 26.2363 7.16955C26.2363 7.56335 26.2947 7.59987 26.5608 7.37254C27.0136 6.9857 27.7586 7.28522 27.8425 7.88792C27.9022 8.31606 28.6254 8.66742 32.718 10.2561C37.7269 12.2004 40.2319 13.3787 40.6987 14.0099C41.2238 14.7199 41.0444 16.0251 40.302 16.8956C38.1257 19.4473 33.5514 20.0349 16.1448 19.9984C9.02494 19.9837 5.77766 19.8928 4.61868 19.6764ZM6.9165 17.4305C6.9089 16.3864 6.98501 15.2992 7.08548 15.0144C7.22217 14.6271 7.18546 14.4967 6.93971 14.4967C6.17724 14.4967 5.84122 17.415 6.46151 18.65C6.64906 19.0233 6.83125 19.3289 6.86636 19.3289C6.90151 19.3289 6.92406 18.4746 6.91646 17.4305H6.9165ZM8.20889 17.8907C8.13742 17.0997 8.1832 16.0651 8.31055 15.5915C8.61814 14.4476 8.22552 14.2102 7.79213 15.2781C7.40066 16.2427 7.36596 17.5972 7.70693 18.6042C8.1054 19.781 8.34841 19.4356 8.20889 17.8907V17.8907ZM9.66611 18.247C9.48854 17.2684 9.54684 16.2409 9.84297 15.1295C9.91123 14.8734 9.82583 14.7267 9.60856 14.7267C9.13143 14.7267 8.72541 16.4298 8.88036 17.7812C9.02409 19.0346 9.15504 19.3289 9.56922 19.3289C9.79743 19.3289 9.81891 19.089 9.66611 18.247V18.247ZM11.0032 18.3644C10.8874 17.834 10.861 16.8371 10.9445 16.1492C11.0668 15.141 11.0366 14.9189 10.7884 15.0041C10.007 15.2722 10.1278 19.3289 10.9172 19.3289C11.1498 19.3289 11.1683 19.1211 11.0032 18.3644H11.0032ZM12.2772 17.258C12.2704 15.8878 12.1822 15.187 12.0164 15.187C11.754 15.187 11.4062 17.1984 11.5739 17.7463C11.6273 17.9207 11.7315 18.348 11.8056 18.6961C12.0718 19.947 12.2872 19.2902 12.2772 17.258ZM13.5768 17.3727C13.5447 15.3565 13.2879 14.8202 12.9931 16.1535C12.8362 16.8633 12.965 18.7699 13.196 19.1563C13.4941 19.6548 13.605 19.1354 13.5768 17.3727ZM14.8768 17.3727C14.8063 15.4643 14.5793 14.8906 14.3077 15.9339C14.0039 17.1008 14.2598 19.3276 14.6976 19.3285C14.8699 19.329 14.9263 18.7128 14.8768 17.3727ZM16.1079 17.487C16.0993 16.1242 16.02 15.6462 15.8021 15.6462C15.5893 15.6462 15.5079 16.0552 15.5079 17.1231C15.5079 17.9354 15.5689 18.7637 15.6435 18.9639C15.9464 19.7766 16.1188 19.2285 16.1079 17.487V17.487ZM17.4356 18.6088C17.3587 18.2133 17.2959 17.3849 17.2959 16.768C17.2959 16.151 17.1953 15.6462 17.0724 15.6462C16.942 15.6462 16.8489 16.4132 16.8489 17.487C16.8489 19.0329 16.9071 19.3279 17.2121 19.3279C17.4997 19.3279 17.5462 19.1782 17.4356 18.6088V18.6088ZM18.6752 17.6026C18.6197 16.2997 18.5238 15.8764 18.2841 15.8764C18.0656 15.8764 17.9672 16.1457 17.9689 16.7392C17.9731 18.0956 18.2249 19.3278 18.4986 19.3284C18.6674 19.3289 18.7248 18.768 18.6752 17.6026V17.6026ZM20.1137 18.9639C20.0391 18.7637 19.978 17.9871 19.978 17.2381C19.978 16.181 19.903 15.8764 19.6428 15.8764C19.3825 15.8764 19.3075 16.181 19.3075 17.2381C19.3075 18.8297 19.4521 19.3279 19.9141 19.3279C20.128 19.3279 20.2002 19.1961 20.1137 18.9639ZM21.2938 17.7172C21.2759 16.5072 21.1927 16.1064 20.9593 16.1064C20.7322 16.1064 20.6486 16.4422 20.6486 17.3532C20.6486 18.6909 20.8002 19.3279 21.1187 19.3279C21.2281 19.3279 21.3069 18.6031 21.2938 17.7172ZM22.5728 17.785C22.4717 15.7268 21.9896 15.528 21.9896 17.5445C21.9896 18.3565 22.0567 19.09 22.1386 19.1744C22.5268 19.5741 22.6425 19.204 22.5728 17.785ZM23.9174 18.6088C23.8405 18.2132 23.7777 17.5402 23.7777 17.1131C23.7777 16.686 23.6771 16.3364 23.5542 16.3364C23.4281 16.3364 23.3307 16.9884 23.3307 17.8321C23.3307 19.0593 23.3959 19.3278 23.6939 19.3278C23.9814 19.3278 24.028 19.1781 23.9174 18.6088ZM25.2517 17.8959C25.1599 16.5381 24.8912 16.0148 24.5648 16.5584C24.2989 17.0015 24.6945 19.3278 25.0358 19.3278C25.2805 19.3278 25.3274 19.0167 25.2517 17.8959ZM26.6359 17.9489C26.5933 17.0353 26.4772 16.5692 26.2921 16.5683C25.9951 16.5683 25.8792 18.8838 26.1618 19.1748C26.5533 19.5779 26.6949 19.2121 26.6359 17.9489ZM5.66795 18.5078C5.35015 17.6472 5.40136 15.9816 5.77383 15.0638C6.05959 14.3597 6.05825 14.2659 5.76243 14.2659C4.97357 14.2659 4.46928 17.2251 5.03884 18.512C5.39623 19.3195 5.96632 19.3157 5.66795 18.512L5.66795 18.5078ZM28.0243 17.9611C28.0243 16.8558 27.7304 16.3103 27.3521 16.7135C27.0501 17.0356 27.3667 19.098 27.7181 19.098C27.9361 19.098 28.0243 18.7703 28.0243 17.9611V17.9611ZM29.2853 18.2351C29.2091 17.7605 29.1457 17.1911 29.1443 16.9696C29.1425 16.7481 29.0413 16.5669 28.9184 16.5669C28.7954 16.5669 28.6949 17.1364 28.6949 17.8325C28.6949 18.8491 28.7666 19.098 29.0594 19.098C29.3562 19.098 29.3981 18.9378 29.2853 18.2351V18.2351ZM30.704 18.8104C30.6954 17.805 30.3876 16.797 30.0892 16.797C29.8261 16.797 29.7838 16.9829 29.8924 17.6599C29.9686 18.1345 30.0321 18.6522 30.0334 18.8104C30.0352 18.9686 30.1868 19.098 30.3712 19.098C30.5556 19.098 30.7053 18.9686 30.704 18.8104ZM4.16476 17.3141C4.08738 16.2006 4.158 15.5108 4.4139 14.8802C4.66847 14.253 4.692 14.0263 4.49584 14.0907C4.05318 14.2362 3.42927 16.3577 3.56458 17.2573C3.88922 19.4154 4.31357 19.4556 4.16474 17.3138L4.16476 17.3141ZM32.0475 17.8325C32.0475 17.0655 31.9606 16.797 31.7122 16.797C31.4639 16.797 31.377 17.0655 31.377 17.8325C31.377 18.5995 31.4639 18.8679 31.7122 18.8679C31.9606 18.8679 32.0475 18.5995 32.0475 17.8325ZM33.3885 17.8325C33.3885 17.0655 33.3016 16.797 33.0533 16.797C32.8049 16.797 32.718 17.0655 32.718 17.8325C32.718 18.5995 32.8049 18.8679 33.0533 18.8679C33.3016 18.8679 33.3885 18.5995 33.3885 17.8325ZM34.7296 17.7174C34.7296 17.0527 34.6364 16.797 34.3943 16.797C34.1522 16.797 34.0591 17.0527 34.0591 17.7174C34.0591 18.3822 34.1522 18.6379 34.3943 18.6379C34.6364 18.6379 34.7296 18.3822 34.7296 17.7174ZM2.92214 16.9633C2.91369 16.0457 3.04623 15.2357 3.28543 14.742C3.72864 13.8273 3.73193 13.8056 3.42747 13.8056C3.08418 13.8056 2.33148 15.6427 2.32577 16.4944C2.32154 17.1876 2.65291 18.4078 2.84608 18.4078C2.89516 18.4078 2.92937 17.7578 2.9221 16.9633H2.92214ZM36.0289 17.5271C36.0807 16.9877 36.0077 16.797 35.7495 16.797C35.4976 16.797 35.4001 17.0271 35.4001 17.6216C35.4001 18.6612 35.9277 18.582 36.0289 17.5271ZM37.1882 17.3722C37.1882 16.9293 37.0876 16.5669 36.9647 16.5669C36.8417 16.5669 36.7412 16.9293 36.7412 17.3722C36.7412 17.8153 36.8417 18.1777 36.9647 18.1777C37.0876 18.1777 37.1882 17.8153 37.1882 17.3722ZM38.3057 17.0271C38.3057 16.6474 38.2051 16.3368 38.0822 16.3368C37.9593 16.3368 37.8587 16.6474 37.8587 17.0271C37.8587 17.4068 37.9593 17.7174 38.0822 17.7174C38.2051 17.7174 38.3057 17.4068 38.3057 17.0271ZM2.09304 14.5043C2.23827 14.2249 2.30606 13.9438 2.2437 13.8796C1.98954 13.618 1.42862 15.2308 1.45312 16.1528L1.47939 17.1422L1.65418 16.0772C1.75033 15.4914 1.94781 14.7836 2.09303 14.5043H2.09304ZM39.4233 16.5669C39.4233 16.3138 39.3227 16.1067 39.1997 16.1067C39.0768 16.1067 38.9762 16.3138 38.9762 16.5669C38.9762 16.82 39.0768 17.0271 39.1997 17.0271C39.3227 17.0271 39.4233 16.82 39.4233 16.5669ZM37.5519 15.7631C39.5351 15.3725 40.438 14.7481 39.8632 14.1647C39.4251 13.7202 36.6208 12.4941 31.6122 10.5573C27.88 9.11392 27.4688 9.00025 27.2743 9.35795C26.9461 9.96178 25.3117 11.7347 25.0832 11.7347C24.6172 11.7347 24.6457 10.9874 25.1322 10.4544C25.5311 10.0172 25.5886 9.82541 25.3839 9.61468C25.238 9.46449 25.1187 9.05165 25.1187 8.69734C25.1187 8.34294 25.0682 8.05298 25.0063 8.05298C24.9446 8.05298 24.5473 8.44808 24.1236 8.93093C23.6999 9.41379 22.9923 10.009 22.5512 10.2536C21.8504 10.642 21.7222 10.6547 21.5355 10.3536C21.374 10.0929 21.5116 9.84985 22.0996 9.35639C22.7871 8.77961 22.8388 8.66429 22.5456 8.3625C22.303 8.11273 22.2738 7.90583 22.437 7.59196C22.8844 6.73131 22.6374 6.68974 21.5984 7.45055C21.0145 7.87817 20.1191 8.44443 19.6087 8.70899C18.7595 9.14905 18.6552 9.15836 18.381 8.81814C18.1261 8.50192 18.1415 8.40834 18.484 8.19213C21.3666 6.37283 21.583 6.19437 21.3127 5.85919C20.9754 5.44069 20.6485 5.42287 20.6485 5.82266C20.6485 5.98834 20.5038 6.32482 20.3269 6.57051C20.0374 6.97265 19.9705 6.98196 19.6562 6.66357C19.3398 6.34317 19.3487 6.22576 19.7509 5.41373C19.995 4.92071 20.1475 4.46873 20.0897 4.40933C20.032 4.35019 19.45 4.66676 18.7964 5.11343C17.2943 6.14027 15.8498 6.90212 15.405 6.90212C14.7388 6.90212 15.0476 6.07339 15.8631 5.67308C16.3043 5.45644 17.2066 4.92279 17.8681 4.48708L19.0709 3.69497L18.1424 2.30964C17.0274 0.646093 16.9581 0.676445 15.4988 3.46772C14.3543 5.65699 13.3342 6.67322 11.6173 7.33453C8.87372 8.39138 6.70921 7.553 5.48357 4.9588C5.07067 4.08485 5.05293 4.07493 4.79419 4.57266C4.56276 5.01785 4.61658 5.18674 5.21278 5.8858C6.18402 7.02466 6.1122 7.6891 4.88725 8.89745C4.33191 9.44527 3.77624 9.89351 3.65242 9.89351C3.52861 9.89351 3.3317 9.6346 3.21486 9.31821C2.92673 8.53801 2.62901 8.5948 2.46052 9.46205C2.27074 10.439 2.29 12.4825 2.49186 12.7892C2.73656 13.161 14.8292 14.8177 21.6543 15.4144C30.2261 16.1638 34.9864 16.2682 37.5518 15.7628L37.5519 15.7631ZM4.94475 7.7866C5.27767 7.22138 5.27609 7.12981 4.92396 6.57651C4.71443 6.24724 3.9808 5.59359 3.29368 5.12395L2.04437 4.26992L1.51319 4.95341C1.22105 5.32929 0.981522 5.70812 0.980913 5.79518C0.980305 5.88224 1.42156 6.28003 1.96147 6.67922C2.50139 7.07841 3.12658 7.75572 3.35078 8.18431C3.70789 8.86701 3.8096 8.92859 4.17147 8.6809C4.39866 8.5254 4.74663 8.12299 4.94474 7.7866H4.94475ZM3.88542 7.70745C3.88542 7.51769 3.78484 7.36236 3.66191 7.36236C3.53898 7.36236 3.4384 7.25139 3.4384 7.1158C3.4384 6.81211 3.06921 6.42388 2.2669 5.88371C1.9299 5.65681 1.70953 5.37895 1.7772 5.26623C1.97652 4.93419 2.32086 5.03159 2.32086 5.42C2.32086 5.61733 2.42255 5.71404 2.54684 5.63498C2.79613 5.47635 4.10893 6.71975 4.10893 7.1145C4.10893 7.25078 4.2095 7.36236 4.33243 7.36236C4.45536 7.36236 4.55595 7.51769 4.55595 7.70745C4.55595 7.89731 4.40507 8.05263 4.22068 8.05263C4.03629 8.05263 3.88542 7.89731 3.88542 7.70745V7.70745ZM23.8894 7.59248C23.9654 7.46585 23.921 7.36236 23.7909 7.36236C23.6607 7.36236 23.5542 7.46585 23.5542 7.59248C23.5542 7.71902 23.5985 7.82251 23.6527 7.82251C23.707 7.82251 23.8134 7.71902 23.8894 7.59248Z" fill="white"/>
</svg>
