<svg width="48" height="24" viewBox="0 0 48 24" fill="none" xmlns="http://www.w3.org/2000/svg">
<path d="M5.40723 23.6117C2.53512 23.062 1.29418 22.0515 0.79718 19.8577C0.607265 19.0194 0.943885 17.6243 1.58255 16.6028C1.93222 16.0435 2.01955 15.4022 1.96382 13.8033C1.91853 12.5048 2.03552 11.2885 2.27669 10.5498C2.65298 9.39724 2.64698 9.35915 2.01635 8.89599C1.66133 8.63519 1.06241 8.15929 0.685434 7.83827L0 7.25468L0.862492 5.83639C1.80991 4.27835 2.15207 4.16282 3.50619 4.94388L4.41795 5.46976L5.37559 4.49804C5.90229 3.9636 6.44574 3.59958 6.58324 3.68933C6.72075 3.77908 6.90238 4.30184 6.98686 4.8512C7.20805 6.28953 8.26654 7.60231 9.65687 8.16263C10.6902 8.57914 11.0389 8.59824 12.2758 8.30613C14.5746 7.76324 15.9705 6.56839 17.302 4.00388C18.4897 1.71614 19.8337 0 20.4375 0C20.6287 0 20.9005 0.320081 21.0414 0.711233C21.1824 1.10238 21.6638 1.98394 22.1113 2.67033C22.7958 3.72022 23.0317 3.89659 23.5982 3.78232C24.6415 3.57192 24.9201 3.8178 25.1043 5.11419C25.2911 6.42917 25.749 6.8008 26.5402 6.27941C27.2573 5.80675 27.9838 6.33785 27.9188 7.28713C27.8665 8.05201 28.2506 8.18204 29.2764 7.74685C29.9757 7.45015 30.7156 7.89056 30.7156 8.60346C30.7156 9.07602 30.7841 9.11985 31.0956 8.84704C31.6257 8.38284 32.4978 8.74226 32.5961 9.4655C32.666 9.97928 33.5126 10.4009 38.304 12.3073C44.168 14.6405 47.1007 16.0544 47.6472 16.8119C48.262 17.6638 48.052 19.2301 47.1828 20.2747C44.635 23.3368 39.2797 24.0419 18.9012 23.9981C10.5658 23.9804 6.76409 23.8713 5.40723 23.6117ZM8.09737 20.9166C8.08846 19.6636 8.17757 18.359 8.29519 18.0173C8.45522 17.5525 8.41225 17.396 8.12453 17.396C7.23189 17.396 6.8385 20.898 7.56469 22.38C7.78426 22.828 7.99756 23.1946 8.03867 23.1946C8.07981 23.1946 8.10622 22.1695 8.09732 20.9166H8.09737ZM9.6104 21.4689C9.52673 20.5196 9.58034 19.2781 9.72943 18.7097C10.0895 17.3371 9.62987 17.0523 9.1225 18.3337C8.66419 19.4912 8.62356 21.1167 9.02275 22.3251C9.48925 23.7372 9.77374 23.3227 9.6104 21.4689ZM11.3164 21.8964C11.1085 20.7221 11.1768 19.489 11.5235 18.1554C11.6034 17.848 11.5034 17.6721 11.249 17.6721C10.6905 17.6721 10.2151 19.7157 10.3965 21.3374C10.5648 22.8416 10.7181 23.1946 11.203 23.1946C11.4702 23.1946 11.4953 22.9068 11.3164 21.8964ZM12.8818 22.0373C12.7462 21.4007 12.7153 20.2045 12.8131 19.379C12.9563 18.1691 12.9209 17.9027 12.6303 18.0049C11.7155 18.3266 11.857 23.1946 12.7811 23.1946C13.0534 23.1946 13.0751 22.9453 12.8818 22.0373H12.8818ZM14.3733 20.7095C14.3654 19.0654 14.2621 18.2245 14.068 18.2244C13.7607 18.2244 13.3536 20.6381 13.5499 21.2955C13.6124 21.5048 13.7344 22.0176 13.8211 22.4353C14.1329 23.9364 14.385 23.1483 14.3733 20.7095ZM15.8948 20.8472C15.8572 18.4278 15.5566 17.7843 15.2115 19.3842C15.0277 20.2359 15.1785 22.5239 15.4489 22.9876C15.7979 23.5858 15.9277 22.9625 15.8948 20.8472ZM17.4167 20.8472C17.3342 18.5572 17.0684 17.8687 16.7505 19.1207C16.3949 20.521 16.6944 23.1932 17.207 23.1942C17.4086 23.1949 17.4747 22.4553 17.4167 20.8472ZM18.858 20.9844C18.848 19.3491 18.7551 18.7755 18.5 18.7755C18.2509 18.7755 18.1555 19.2662 18.1555 20.5477C18.1555 21.5224 18.227 22.5165 18.3144 22.7567C18.669 23.7319 18.8708 23.0742 18.858 20.9844ZM20.4124 22.3306C20.3224 21.856 20.2489 20.8619 20.2489 20.1216C20.2489 19.3812 20.1311 18.7755 19.9872 18.7755C19.8346 18.7755 19.7255 19.6959 19.7255 20.9844C19.7255 22.8395 19.7937 23.1935 20.1508 23.1935C20.4874 23.1935 20.5419 23.0139 20.4124 22.3306ZM21.8636 21.1231C21.7987 19.5597 21.6864 19.0516 21.4057 19.0516C21.15 19.0516 21.0348 19.3749 21.0368 20.087C21.0417 21.7147 21.3364 23.1934 21.6569 23.1941C21.8546 23.1946 21.9218 22.5216 21.8636 21.1231ZM23.5477 22.7567C23.4604 22.5165 23.3889 21.5845 23.3889 20.6858C23.3889 19.4172 23.3011 19.0516 22.9964 19.0516C22.6917 19.0516 22.6039 19.4172 22.6039 20.6858C22.6039 22.5957 22.7732 23.1935 23.3141 23.1935C23.5645 23.1935 23.6491 23.0354 23.5477 22.7567ZM24.9293 21.2606C24.9083 19.8086 24.8109 19.3277 24.5377 19.3277C24.2719 19.3277 24.1739 19.7306 24.1739 20.8238C24.1739 22.429 24.3515 23.1935 24.7244 23.1935C24.8524 23.1935 24.9446 22.3237 24.9293 21.2606ZM26.4266 21.342C26.3083 18.8721 25.7439 18.6336 25.7439 21.0534C25.7439 22.0279 25.8225 22.9081 25.9184 23.0093C26.3729 23.4889 26.5082 23.0448 26.4266 21.342ZM28.0008 22.3305C27.9108 21.8559 27.8373 21.0482 27.8373 20.5357C27.8373 20.0232 27.7195 19.6037 27.5756 19.6037C27.428 19.6037 27.3139 20.3861 27.3139 21.3986C27.3139 22.8712 27.3903 23.1934 27.7391 23.1934C28.0758 23.1934 28.1303 23.0138 28.0008 22.3305ZM29.5629 21.475C29.4555 19.8457 29.1409 19.2178 28.7588 19.8701C28.4474 20.4018 28.9106 23.1934 29.3102 23.1934C29.5967 23.1934 29.6516 22.8201 29.5629 21.475ZM31.1835 21.5387C31.1336 20.4424 30.9977 19.8831 30.781 19.8819C30.4333 19.8819 30.2976 22.6606 30.6284 23.0097C31.0868 23.4934 31.2526 23.0546 31.1835 21.5387ZM6.63565 22.2093C6.26359 21.1767 6.32355 19.1779 6.75961 18.0766C7.09415 17.2317 7.09259 17.119 6.74626 17.119C5.82272 17.119 5.23233 20.6701 5.89913 22.2144C6.31753 23.1834 6.98496 23.1789 6.63565 22.2144L6.63565 22.2093ZM32.809 21.5533C32.809 20.227 32.4648 19.5723 32.022 20.0562C31.6684 20.4427 32.039 22.9177 32.4505 22.9177C32.7056 22.9177 32.809 22.5244 32.809 21.5533ZM34.2853 21.8822C34.1961 21.3127 34.1218 20.6293 34.1202 20.3635C34.1181 20.0978 33.9996 19.8803 33.8556 19.8803C33.7117 19.8803 33.594 20.5636 33.594 21.399C33.594 22.619 33.6779 22.9177 34.0207 22.9177C34.3682 22.9177 34.4173 22.7254 34.2853 21.8822ZM35.9461 22.5725C35.936 21.366 35.5757 20.1564 35.2263 20.1564C34.9184 20.1564 34.8688 20.3794 34.996 21.1919C35.0852 21.7614 35.1595 22.3827 35.1611 22.5725C35.1632 22.7624 35.3406 22.9177 35.5565 22.9177C35.7724 22.9177 35.9477 22.7624 35.9461 22.5725ZM4.87581 20.7769C4.78522 19.4407 4.8679 18.613 5.16749 17.8563C5.46553 17.1036 5.49308 16.8315 5.26343 16.9089C4.74519 17.0835 4.01476 19.6292 4.17317 20.7087C4.55323 23.2985 5.05003 23.3467 4.87579 20.7765L4.87581 20.7769ZM37.519 21.399C37.519 20.4786 37.4172 20.1564 37.1265 20.1564C36.8358 20.1564 36.734 20.4786 36.734 21.399C36.734 22.3194 36.8358 22.6415 37.1265 22.6415C37.4172 22.6415 37.519 22.3194 37.519 21.399ZM39.089 21.399C39.089 20.4786 38.9872 20.1564 38.6965 20.1564C38.4058 20.1564 38.304 20.4786 38.304 21.399C38.304 22.3194 38.4058 22.6415 38.6965 22.6415C38.9872 22.6415 39.089 22.3194 39.089 21.399ZM40.659 21.2609C40.659 20.4633 40.55 20.1564 40.2665 20.1564C39.983 20.1564 39.874 20.4633 39.874 21.2609C39.874 22.0586 39.983 22.3655 40.2665 22.3655C40.55 22.3655 40.659 22.0586 40.659 21.2609ZM3.42104 20.356C3.41115 19.2548 3.56632 18.2828 3.84635 17.6904C4.36524 16.5927 4.36909 16.5668 4.01265 16.5668C3.61075 16.5668 2.72953 18.7712 2.72285 19.7932C2.7179 20.6251 3.10585 22.0893 3.33199 22.0893C3.38945 22.0893 3.42951 21.3093 3.421 20.356H3.42104ZM42.1802 21.0325C42.2408 20.3852 42.1554 20.1564 41.8531 20.1564C41.5582 20.1564 41.444 20.4326 41.444 21.1459C41.444 22.3934 42.0617 22.2984 42.1802 21.0325ZM43.5374 20.8467C43.5374 20.3152 43.4196 19.8803 43.2757 19.8803C43.1318 19.8803 43.014 20.3152 43.014 20.8467C43.014 21.3783 43.1318 21.8132 43.2757 21.8132C43.4196 21.8132 43.5374 21.3783 43.5374 20.8467ZM44.8457 20.4326C44.8457 19.9769 44.728 19.6041 44.584 19.6041C44.4401 19.6041 44.3224 19.9769 44.3224 20.4326C44.3224 20.8881 44.4401 21.2609 44.584 21.2609C44.728 21.2609 44.8457 20.8881 44.8457 20.4326ZM2.45039 17.4051C2.62041 17.0699 2.69977 16.7326 2.62677 16.6555C2.32922 16.3415 1.67253 18.277 1.70121 19.3833L1.73197 20.5706L1.93661 19.2926C2.04916 18.5897 2.28036 17.7403 2.45037 17.4051H2.45039ZM46.1541 19.8803C46.1541 19.5766 46.0363 19.328 45.8924 19.328C45.7485 19.328 45.6307 19.5766 45.6307 19.8803C45.6307 20.184 45.7485 20.4326 45.8924 20.4326C46.0363 20.4326 46.1541 20.184 46.1541 19.8803ZM43.9632 18.9158C46.285 18.447 47.342 17.6977 46.6691 16.9977C46.1562 16.4643 42.8732 14.9929 37.0094 12.6687C32.64 10.9367 32.1585 10.8003 31.9309 11.2295C31.5466 11.9541 29.6332 14.0817 29.3657 14.0817C28.8201 14.0817 28.8535 13.1849 29.423 12.5452C29.8901 12.0206 29.9574 11.7905 29.7178 11.5376C29.547 11.3574 29.4072 10.862 29.4072 10.4368C29.4072 10.0115 29.3481 9.66358 29.2757 9.66358C29.2034 9.66358 28.7383 10.1377 28.2423 10.7171C27.7462 11.2965 26.9178 12.0108 26.4014 12.3043C25.581 12.7705 25.4308 12.7856 25.2123 12.4243C25.0232 12.1115 25.1843 11.8198 25.8727 11.2277C26.6776 10.5355 26.7381 10.3971 26.3949 10.035C26.1108 9.73528 26.0767 9.487 26.2677 9.11035C26.7915 8.07758 26.5024 8.02769 25.286 8.94066C24.6024 9.45381 23.5541 10.1333 22.9566 10.4508C21.9623 10.9789 21.8403 10.99 21.5192 10.5818C21.2208 10.2023 21.2388 10.09 21.6398 9.83056C25.0146 7.64739 25.2679 7.43324 24.9515 7.03103C24.5565 6.52883 24.1739 6.50744 24.1739 6.98719C24.1739 7.18601 24.0044 7.58979 23.7974 7.88461C23.4584 8.36718 23.3801 8.37835 23.0121 7.99628C22.6418 7.61181 22.6522 7.47092 23.123 6.49648C23.4088 5.90485 23.5873 5.36247 23.5197 5.29119C23.452 5.22023 22.7707 5.60011 22.0056 6.13612C20.247 7.36833 18.5558 8.28255 18.0351 8.28255C17.2551 8.28255 17.6168 7.28807 18.5714 6.80769C19.088 6.54772 20.1443 5.90735 20.9188 5.38449L22.327 4.43396L21.2399 2.77156C19.9345 0.775311 19.8534 0.811734 18.145 4.16126C16.805 6.78838 15.6108 8.00786 13.6007 8.80144C10.3887 10.0697 7.85469 9.0636 6.41978 5.95056C5.9364 4.90182 5.91562 4.88992 5.61271 5.48719C5.34176 6.02142 5.40478 6.22409 6.10277 7.06296C7.23983 8.42959 7.15575 9.22692 5.72166 10.6769C5.0715 11.3343 4.42096 11.8722 4.27601 11.8722C4.13105 11.8722 3.90053 11.5615 3.76374 11.1818C3.42641 10.2456 3.07786 10.3138 2.88061 11.3545C2.65843 12.5268 2.68097 14.979 2.9173 15.3471C3.20378 15.7932 17.361 17.7812 25.3514 18.4973C35.3867 19.3966 40.9597 19.5218 43.9631 18.9153L43.9632 18.9158ZM5.78897 9.34391C6.17873 8.66566 6.17689 8.55577 5.76464 7.89181C5.51933 7.49669 4.66045 6.7123 3.85601 6.14874L2.39341 5.1239L1.77154 5.94409C1.42952 6.39514 1.1491 6.84975 1.14839 6.95422C1.14767 7.05868 1.66426 7.53604 2.29636 8.01506C2.92846 8.49409 3.66038 9.30687 3.92286 9.82117C4.34094 10.6404 4.46002 10.7143 4.88368 10.4171C5.14965 10.2305 5.55702 9.74759 5.78896 9.34391H5.78897ZM4.54879 9.24895C4.54879 9.02123 4.43103 8.83483 4.28711 8.83483C4.1432 8.83483 4.02545 8.70167 4.02545 8.53897C4.02545 8.17453 3.59322 7.70865 2.65394 7.06046C2.2594 6.78817 2.0014 6.45474 2.08062 6.31948C2.31397 5.92102 2.7171 6.03791 2.7171 6.50399C2.7171 6.74079 2.83616 6.85685 2.98166 6.76198C3.27352 6.57162 4.81045 8.0637 4.81045 8.5374C4.81045 8.70094 4.9282 8.83483 5.07212 8.83483C5.21603 8.83483 5.33379 9.02123 5.33379 9.24895C5.33379 9.47677 5.15716 9.66316 4.94128 9.66316C4.72541 9.66316 4.54879 9.47677 4.54879 9.24895ZM27.9681 9.11098C28.057 8.95903 28.0051 8.83483 27.8527 8.83483C27.7003 8.83483 27.5756 8.95903 27.5756 9.11098C27.5756 9.26283 27.6275 9.38702 27.691 9.38702C27.7545 9.38702 27.8792 9.26283 27.9681 9.11098Z" fill="white"/>
</svg>
