<svg width="27" height="13" viewBox="0 0 27 13" fill="none" xmlns="http://www.w3.org/2000/svg">
<path d="M3.04157 12.7897C1.426 12.4919 0.727978 11.9446 0.448413 10.7563C0.341587 10.3022 0.530935 9.54648 0.890185 8.99317C1.08687 8.69022 1.136 8.34285 1.10465 7.47681C1.07917 6.77341 1.14498 6.11461 1.28064 5.71449C1.4923 5.09017 1.48893 5.06954 1.1342 4.81866C0.9345 4.67739 0.597608 4.41962 0.385557 4.24573L0 3.92962L0.485152 3.16138C1.01807 2.31744 1.21054 2.25486 1.97223 2.67793L2.4851 2.96279L3.02377 2.43644C3.32004 2.14695 3.62573 1.94977 3.70307 1.99839C3.78042 2.047 3.88259 2.33016 3.93011 2.62773C4.05453 3.40683 4.64993 4.11792 5.43199 4.42143C6.01326 4.64704 6.20938 4.65738 6.90516 4.49915C8.19822 4.20509 8.98338 3.55788 9.73237 2.16877C10.4005 0.929577 11.1565 0 11.4961 0C11.6037 0 11.7565 0.173377 11.8358 0.385251C11.9151 0.597125 12.1859 1.07463 12.4376 1.44643C12.8227 2.01512 12.9553 2.11066 13.274 2.04876C13.8609 1.93479 14.0176 2.06797 14.1211 2.77019C14.2263 3.48247 14.4838 3.68377 14.9288 3.40134C15.3323 3.14532 15.7409 3.433 15.7044 3.9472C15.6749 4.3615 15.891 4.43194 16.468 4.19621C16.8613 4.0355 17.2775 4.27405 17.2775 4.66021C17.2775 4.91618 17.316 4.93992 17.4913 4.79215C17.7894 4.5407 18.28 4.73539 18.3353 5.12714C18.3746 5.40544 18.8508 5.63382 21.546 6.66645C24.8445 7.93029 26.4942 8.69616 26.8016 9.10645C27.1474 9.5679 27.0292 10.4163 26.5403 10.9821C25.1072 12.6408 22.0948 13.0227 10.6319 12.999C5.94325 12.9894 3.8048 12.9303 3.04157 12.7897ZM4.55477 11.3298C4.54976 10.6511 4.59988 9.94445 4.66605 9.75937C4.75606 9.50759 4.73189 9.42285 4.57005 9.42285C4.06794 9.42285 3.84666 11.3198 4.25514 12.1225C4.37865 12.3652 4.49863 12.5638 4.52175 12.5638C4.54489 12.5638 4.55975 12.0085 4.55474 11.3298H4.55477ZM5.40585 11.629C5.35879 11.1148 5.38894 10.4423 5.4728 10.1344C5.67536 9.39091 5.4168 9.23664 5.1314 9.93077C4.87361 10.5577 4.85076 11.4382 5.0753 12.0928C5.3377 12.8577 5.49773 12.6331 5.40585 11.629V11.629ZM6.36549 11.8605C6.24855 11.2245 6.28694 10.5566 6.48196 9.83416C6.52691 9.66768 6.47067 9.57237 6.32759 9.57237C6.01338 9.57237 5.746 10.6793 5.84804 11.5578C5.94269 12.3725 6.02893 12.5638 6.30168 12.5638C6.45197 12.5638 6.46611 12.4079 6.36549 11.8605V11.8605ZM7.24601 11.9368C7.16977 11.5921 7.15238 10.9441 7.20734 10.497C7.28792 9.84162 7.26799 9.6973 7.10456 9.75264C6.58996 9.92693 6.66954 12.5638 7.18939 12.5638C7.34255 12.5638 7.35475 12.4287 7.246 11.9368H7.24601ZM8.08498 11.2177C8.08053 10.3271 8.02242 9.87158 7.91324 9.87153C7.74042 9.87153 7.51139 11.1789 7.62182 11.5351C7.65698 11.6484 7.72561 11.9262 7.77439 12.1524C7.94973 12.9656 8.09158 12.5387 8.08498 11.2177ZM8.94085 11.2922C8.91966 9.9817 8.7506 9.63314 8.55645 10.4998C8.45309 10.9611 8.53793 12.2004 8.69003 12.4516C8.88633 12.7756 8.95936 12.438 8.94085 11.2922ZM9.79691 11.2922C9.75046 10.0518 9.601 9.67887 9.42213 10.3571C9.22211 11.1155 9.39059 12.563 9.67894 12.5635C9.79236 12.5639 9.82952 12.1633 9.79691 11.2922ZM10.6076 11.3666C10.602 10.4807 10.5497 10.1701 10.4063 10.1701C10.2662 10.1701 10.2125 10.4359 10.2125 11.13C10.2125 11.658 10.2527 12.1964 10.3018 12.3266C10.5013 12.8548 10.6148 12.4985 10.6076 11.3666V11.3666ZM11.482 12.0957C11.4314 11.8387 11.39 11.3002 11.39 10.8992C11.39 10.4982 11.3238 10.1701 11.2428 10.1701C11.1569 10.1701 11.0956 10.6686 11.0956 11.3666C11.0956 12.3714 11.134 12.5631 11.3348 12.5631C11.5242 12.5631 11.5548 12.4659 11.482 12.0957V12.0957ZM12.2983 11.4417C12.2617 10.5948 12.1986 10.3196 12.0407 10.3196C11.8969 10.3196 11.8321 10.4947 11.8332 10.8805C11.836 11.7621 12.0017 12.5631 12.182 12.5635C12.2932 12.5638 12.331 12.1992 12.2983 11.4417V11.4417ZM13.2456 12.3266C13.1965 12.1964 13.1563 11.6916 13.1563 11.2048C13.1563 10.5177 13.1069 10.3196 12.9355 10.3196C12.7641 10.3196 12.7147 10.5177 12.7147 11.2048C12.7147 12.2393 12.8099 12.5631 13.1142 12.5631C13.255 12.5631 13.3026 12.4775 13.2456 12.3266ZM14.0227 11.5161C14.0109 10.7296 13.9561 10.4692 13.8024 10.4692C13.6529 10.4692 13.5978 10.6874 13.5978 11.2796C13.5978 12.1491 13.6977 12.5631 13.9075 12.5631C13.9795 12.5631 14.0314 12.092 14.0227 11.5161ZM14.865 11.5602C14.7984 10.2224 14.481 10.0932 14.481 11.4039C14.481 11.9318 14.5251 12.4085 14.5791 12.4634C14.8348 12.7232 14.9109 12.4826 14.865 11.5602ZM15.7505 12.0957C15.6998 11.8386 15.6585 11.4011 15.6585 11.1235C15.6585 10.8459 15.5922 10.6187 15.5113 10.6187C15.4282 10.6187 15.3641 11.0425 15.3641 11.5909C15.3641 12.3886 15.407 12.5631 15.6033 12.5631C15.7927 12.5631 15.8233 12.4658 15.7505 12.0957ZM16.6291 11.6323C16.5687 10.7498 16.3917 10.4096 16.1768 10.7629C16.0017 11.051 16.2622 12.5631 16.487 12.5631C16.6482 12.5631 16.679 12.3609 16.6291 11.6323ZM17.5407 11.6668C17.5126 11.073 17.4362 10.77 17.3143 10.7694C17.1187 10.7694 17.0424 12.2745 17.2285 12.4636C17.4863 12.7256 17.5796 12.4879 17.5407 11.6668ZM3.73255 12.0301C3.52327 11.4707 3.557 10.388 3.80228 9.79148C3.99046 9.33381 3.98958 9.27282 3.79477 9.27282C3.27528 9.27282 2.94319 11.1963 3.31826 12.0328C3.55361 12.5577 3.92904 12.5552 3.73255 12.0328L3.73255 12.0301ZM18.455 11.6747C18.455 10.9563 18.2615 10.6017 18.0124 10.8638C17.8135 11.0731 18.0219 12.4137 18.2534 12.4137C18.3969 12.4137 18.455 12.2007 18.455 11.6747V11.6747ZM19.2855 11.8528C19.2353 11.5444 19.1935 11.1742 19.1926 11.0302C19.1914 10.8863 19.1248 10.7685 19.0438 10.7685C18.9628 10.7685 18.8966 11.1386 18.8966 11.5911C18.8966 12.2519 18.9438 12.4137 19.1367 12.4137C19.3321 12.4137 19.3598 12.3096 19.2855 11.8528V11.8528ZM20.2197 12.2268C20.214 11.5732 20.0113 10.9181 19.8148 10.9181C19.6416 10.9181 19.6137 11.0389 19.6853 11.479C19.7354 11.7874 19.7772 12.124 19.7781 12.2268C19.7793 12.3296 19.8791 12.4137 20.0005 12.4137C20.122 12.4137 20.2206 12.3296 20.2197 12.2268ZM2.74265 11.2541C2.69169 10.5304 2.73819 10.082 2.90672 9.67214C3.07436 9.26445 3.08986 9.11708 2.96068 9.15897C2.66917 9.25354 2.2583 10.6325 2.34741 11.2172C2.56119 12.62 2.84064 12.6461 2.74263 11.254L2.74265 11.2541ZM21.1044 11.5911C21.1044 11.0926 21.0472 10.9181 20.8837 10.9181C20.7201 10.9181 20.6629 11.0926 20.6629 11.5911C20.6629 12.0897 20.7201 12.2642 20.8837 12.2642C21.0472 12.2642 21.1044 12.0897 21.1044 11.5911ZM21.9876 11.5911C21.9876 11.0926 21.9303 10.9181 21.7668 10.9181C21.6032 10.9181 21.546 11.0926 21.546 11.5911C21.546 12.0897 21.6032 12.2642 21.7668 12.2642C21.9303 12.2642 21.9876 12.0897 21.9876 11.5911ZM22.8707 11.5163C22.8707 11.0843 22.8094 10.9181 22.6499 10.9181C22.4905 10.9181 22.4291 11.0843 22.4291 11.5163C22.4291 11.9484 22.4905 12.1146 22.6499 12.1146C22.8094 12.1146 22.8707 11.9484 22.8707 11.5163ZM1.92434 11.0261C1.91877 10.4297 2.00606 9.90318 2.16357 9.58232C2.45545 8.98774 2.45761 8.97366 2.25712 8.97366C2.03105 8.97366 1.53536 10.1677 1.5316 10.7213C1.52882 11.1719 1.74704 11.9651 1.87425 11.9651C1.90657 11.9651 1.9291 11.5425 1.92431 11.0261H1.92434ZM23.7264 11.3926C23.7605 11.042 23.7124 10.9181 23.5424 10.9181C23.3765 10.9181 23.3123 11.0676 23.3123 11.454C23.3123 12.1298 23.6597 12.0783 23.7264 11.3926ZM24.4898 11.292C24.4898 11.004 24.4235 10.7685 24.3426 10.7685C24.2616 10.7685 24.1954 11.004 24.1954 11.292C24.1954 11.5799 24.2616 11.8155 24.3426 11.8155C24.4235 11.8155 24.4898 11.5799 24.4898 11.292ZM25.2257 11.0676C25.2257 10.8208 25.1595 10.6189 25.0785 10.6189C24.9976 10.6189 24.9313 10.8208 24.9313 11.0676C24.9313 11.3144 24.9976 11.5163 25.0785 11.5163C25.1595 11.5163 25.2257 11.3144 25.2257 11.0676ZM1.37835 9.42777C1.47398 9.24619 1.51862 9.06349 1.47756 9.02171C1.31019 8.85167 0.940797 9.90002 0.95693 10.4993L0.974231 11.1424L1.08934 10.4502C1.15265 10.0694 1.2827 9.60934 1.37833 9.42777H1.37835ZM25.9617 10.7685C25.9617 10.604 25.8954 10.4693 25.8145 10.4693C25.7335 10.4693 25.6673 10.604 25.6673 10.7685C25.6673 10.933 25.7335 11.0676 25.8145 11.0676C25.8954 11.0676 25.9617 10.933 25.9617 10.7685ZM24.7293 10.246C26.0353 9.9921 26.6299 9.58628 26.2514 9.20707C25.9629 8.91815 24.1162 8.12114 20.8178 6.86222C18.36 5.92405 18.0892 5.85016 17.9611 6.08267C17.745 6.47516 16.6687 7.62757 16.5182 7.62757C16.2113 7.62757 16.2301 7.14181 16.5504 6.79534C16.8132 6.51117 16.851 6.38652 16.7163 6.24954C16.6202 6.15192 16.5416 5.88357 16.5416 5.65327C16.5416 5.42291 16.5083 5.23444 16.4676 5.23444C16.4269 5.23444 16.1653 5.49125 15.8863 5.80511C15.6072 6.11896 15.1412 6.50585 14.8508 6.66481C14.3893 6.91733 14.3048 6.92553 14.1819 6.72982C14.0756 6.5604 14.1661 6.4024 14.5534 6.08165C15.0061 5.70675 15.0402 5.63179 14.8471 5.43563C14.6873 5.27327 14.6681 5.13879 14.7756 4.93477C15.0702 4.37535 14.9076 4.34833 14.2234 4.84286C13.8388 5.12081 13.2492 5.48888 12.9131 5.66084C12.3538 5.94688 12.2852 5.95293 12.1045 5.73179C11.9367 5.52625 11.9468 5.46542 12.1724 5.32489C14.0707 4.14234 14.2132 4.02634 14.0352 3.80847C13.813 3.53645 13.5978 3.52486 13.5978 3.78473C13.5978 3.89242 13.5025 4.11113 13.386 4.27083C13.1953 4.53222 13.1513 4.53827 12.9443 4.33132C12.736 4.12306 12.7419 4.04675 13.0067 3.51893C13.1674 3.19846 13.2679 2.90467 13.2298 2.86606C13.1918 2.82762 12.8085 3.03339 12.3781 3.32373C11.3889 3.99118 10.4376 4.48638 10.1447 4.48638C9.70601 4.48638 9.90942 3.94771 10.4464 3.6875C10.737 3.54668 11.3312 3.19982 11.7668 2.9166L12.5589 2.40173L11.9475 1.50126C11.2132 0.41996 11.1675 0.439689 10.2065 2.25401C9.45283 3.67704 8.78109 4.33759 7.6504 4.76745C5.84367 5.4544 4.41826 4.90945 3.61113 3.22322C3.33922 2.65515 3.32754 2.64871 3.15715 2.97223C3.00474 3.2616 3.04019 3.37138 3.43281 3.82577C4.0724 4.56603 4.02511 4.99792 3.21843 5.78334C2.85272 6.13942 2.48679 6.43078 2.40525 6.43078C2.32372 6.43078 2.19405 6.26249 2.11711 6.05684C1.92736 5.54971 1.7313 5.58662 1.62034 6.15033C1.49536 6.78533 1.50805 8.11362 1.64098 8.313C1.80213 8.55466 9.76555 9.6315 14.2601 10.0194C19.905 10.5065 23.0398 10.5743 24.7293 10.2458L24.7293 10.246ZM3.2563 5.06129C3.47554 4.6939 3.4745 4.63437 3.24261 4.27473C3.10463 4.06071 2.6215 3.63583 2.16901 3.33057L1.34629 2.77545L0.996494 3.21971C0.804108 3.46404 0.646368 3.71028 0.645967 3.76687C0.645567 3.82345 0.936146 4.08202 1.2917 4.34149C1.64726 4.60096 2.05897 5.04122 2.20661 5.3198C2.44178 5.76356 2.50876 5.80358 2.74707 5.64258C2.89668 5.54151 3.12583 5.27995 3.25629 5.06129H3.2563ZM2.55869 5.00985C2.55869 4.8865 2.49245 4.78553 2.4115 4.78553C2.33055 4.78553 2.26431 4.7134 2.26431 4.62527C2.26431 4.42787 2.02119 4.17552 1.49284 3.82441C1.27091 3.67693 1.12579 3.49632 1.17035 3.42305C1.30161 3.20722 1.52837 3.27053 1.52837 3.523C1.52837 3.65126 1.59534 3.71412 1.67719 3.66274C1.84136 3.55963 2.70588 4.36784 2.70588 4.62442C2.70588 4.71301 2.77211 4.78553 2.85307 4.78553C2.93402 4.78553 3.00026 4.8865 3.00026 5.00985C3.00026 5.13325 2.9009 5.23421 2.77947 5.23421C2.65804 5.23421 2.55869 5.13325 2.55869 5.00985V5.00985ZM15.7321 4.93511C15.7821 4.85281 15.7529 4.78553 15.6672 4.78553C15.5814 4.78553 15.5113 4.85281 15.5113 4.93511C15.5113 5.01736 15.5405 5.08463 15.5762 5.08463C15.6119 5.08463 15.682 5.01736 15.7321 4.93511Z" fill="#313131"/>
</svg>
