<svg width="35" height="21" viewBox="0 0 35 21" fill="none" xmlns="http://www.w3.org/2000/svg">
<path d="M13.6202 0C5.45407 0 5.24936 0.00257812 5.1391 0.101758L5.02607 0.203405L5.00211 1.92438L4.97815 3.64524L3.83747 3.67188C2.76688 3.69688 2.6925 3.70505 2.62686 3.80492C2.51786 3.97079 2.49886 4.12978 2.56874 4.29175C2.68195 4.55426 2.78173 4.575 3.93714 4.57581L5.0021 4.57665V5.93363V7.29062H1.02579H0.246968L0.107119 7.4461C0.0577936 8.04301 -0.0766962 7.8571 0.058732 8.04301L0.150257 8.16867L0.96544 8.19531L4.97821 8.22195L4.99112 9.35277L5.00411 10.4836H3.93812C2.97076 10.4836 2.85828 10.4933 2.72125 10.5862C2.53113 10.7151 2.47728 10.9435 2.58327 11.1713C2.62509 11.2613 2.66411 11.3398 2.67002 11.3457C2.6762 11.3518 3.1977 11.3697 3.8295 11.3856L4.97821 11.4147L4.99073 13.4746L5.00326 15.5344L4.82246 15.5886C4.56993 15.6642 4.22504 15.9184 4.07161 16.1421C3.51923 16.9472 3.72982 18.0392 4.53061 18.5219L4.83461 18.7052L6.42607 18.7217C7.69514 18.7349 8.01751 18.7523 8.01751 18.8077C8.01751 18.9543 8.35888 19.6224 8.57037 19.8898C8.99846 20.4311 9.6473 20.8386 10.2825 20.9648C10.6428 21.0364 11.2248 20.9823 11.6295 20.8394C12.0549 20.6892 12.5756 20.3156 12.8744 19.9462C13.1079 19.6573 13.3982 19.1206 13.4519 18.8781L13.4844 18.7318H19.7868H26.0892L26.1709 18.9766C26.2924 19.341 26.6572 19.9209 26.9384 20.1966C27.2763 20.5278 27.8654 20.8435 28.3356 20.9453C29.2871 21.1513 30.2969 20.7663 30.9682 19.9415C31.2131 19.6406 31.5663 18.9716 31.5663 18.8086C31.5663 18.755 31.8246 18.7361 32.7509 18.722C33.8945 18.7047 33.9438 18.6995 34.1729 18.5738C34.9936 18.1236 35.2538 16.9969 34.7247 16.1848C34.5607 15.9332 34.2189 15.6698 33.9532 15.5902L33.778 15.5377L33.7584 14.2745C33.7389 13.0146 33.7385 13.0098 33.5835 12.5056C33.3846 11.8583 33.1228 11.3694 32.7232 10.8984C32.0655 10.1233 31.373 9.74146 30.3869 9.61036L29.9492 9.55219L28.8609 7.8493C28.2624 6.91272 27.5009 5.71753 27.1687 5.19333C26.8365 4.66914 26.4772 4.11836 26.3703 3.96938L26.176 3.69853L24.2304 3.68469L22.2847 3.67077L22.2708 1.96383L22.2569 0.256893L22.1227 0.128433L21.9884 6.87498e-05L13.6202 0ZM5.81582 0.904765H13.6176H21.4193V8.22183V15.5389H17.1118H12.8042L12.5049 15.2938C11.9236 14.8178 11.4398 14.6335 10.7766 14.6355C10.0666 14.6372 9.60757 14.8003 9.04416 15.2498L8.68181 15.5389H7.24881H5.81582V13.4635V11.3881H8.76258C10.5575 11.3881 11.743 11.3681 11.7954 11.3369C11.9413 11.2501 12.0121 10.9899 11.9414 10.8002C11.8207 10.4763 11.8934 10.4835 8.71397 10.4835H5.81582V9.33938V8.19525H7.1343H8.45269L8.57019 8.0646C8.73487 7.88152 8.72627 7.64456 8.54778 7.44609L8.40783 7.2906H7.11188H5.81583V5.93362V4.57662H9.33621C13.2027 4.57662 13.0762 4.58711 13.1796 4.25744C13.2379 4.07148 13.2135 3.96197 13.0756 3.79171L12.9787 3.67197H9.39725H5.81583V2.28838L5.81582 0.904765ZM22.2807 4.5766H24.0231H25.7654L27.3376 7.03323C28.2023 8.38439 28.917 9.5099 28.9258 9.53434C28.9346 9.55874 27.9061 9.57885 26.6403 9.57885H24.3389V7.99571C24.3388 6.59486 24.3291 6.39112 24.2551 6.22683C24.097 5.87594 23.7202 5.87594 23.5602 6.22683C23.4833 6.39577 23.4768 6.58389 23.4884 8.31355C23.5013 10.2117 23.5014 10.2147 23.6103 10.3357L23.7193 10.4569L27.1521 10.4846C30.5311 10.5118 30.5899 10.5141 30.8961 10.6296C31.6464 10.9123 32.2913 11.5404 32.6247 12.3134C32.8971 12.9449 32.9526 13.316 32.9535 14.5146L32.9543 15.539H31.9202H30.886L30.6417 15.3227C30.3416 15.057 29.8091 14.7707 29.4699 14.6926C29.1093 14.6096 28.4762 14.6204 28.1422 14.7153C27.7608 14.8236 27.3337 15.0614 27.0499 15.3239L26.8173 15.539H24.549H22.2807V10.0578L22.2807 4.5766ZM28.8818 15.534C29.2552 15.5383 29.635 15.6585 29.9807 15.9152C31.28 16.8798 31.1659 19.0661 29.7767 19.8236C29.5895 19.9256 29.3204 20.033 29.1786 20.0622C28.7413 20.1523 28.4136 20.0969 27.9463 19.8538C27.1617 19.4456 26.6611 18.3835 26.8162 17.4561C27.014 16.2739 27.9273 15.5237 28.8818 15.534ZM10.7611 15.5357C12.0437 15.5435 13.0798 16.8933 12.7296 18.3883C12.5269 19.2538 11.8642 19.9172 11.0568 20.0631C10.8989 20.0916 10.7374 20.1123 10.6979 20.1091C9.7594 20.0313 8.98336 19.3417 8.76146 18.3883C8.57936 17.6059 8.7773 16.7857 9.28235 16.2302C9.60484 15.8754 9.75387 15.7708 10.1166 15.6448C10.3347 15.569 10.5512 15.5344 10.7611 15.5357ZM19.8075 16.4437H26.2367L26.1248 16.8143C26.0634 17.018 25.9994 17.3293 25.9828 17.5061L25.9526 17.8274H19.7917H13.6308L13.5981 17.4727C13.5801 17.2776 13.5233 16.9791 13.4718 16.8093C13.4203 16.6394 13.3782 16.4876 13.3782 16.4721C13.3782 16.4566 16.2714 16.4437 19.8075 16.4437ZM6.56966 16.4437C7.41864 16.4437 8.11325 16.4564 8.11325 16.4719C8.11325 16.4875 8.07112 16.6392 8.01968 16.8091C7.9682 16.979 7.91135 17.2774 7.89338 17.4725L7.86076 17.8271H6.49133C5.28306 17.8271 5.10219 17.8161 4.95522 17.734C4.76275 17.6265 4.57138 17.3365 4.57138 17.1524C4.57138 16.9311 4.7038 16.6625 4.86763 16.5514C5.01788 16.4496 5.10586 16.4439 6.56966 16.4437ZM32.6073 16.4437C33.6631 16.4437 33.7554 16.4515 33.9026 16.5514C34.0664 16.6625 34.1988 16.931 34.1988 17.1524C34.1988 17.3364 34.0074 17.6265 33.815 17.734C33.6733 17.8131 33.5076 17.8271 32.7059 17.8271C32.1875 17.8272 31.7543 17.8091 31.743 17.7872C31.7317 17.7653 31.7074 17.5936 31.689 17.4057C31.6706 17.2178 31.6138 16.9424 31.563 16.7937C31.5122 16.6451 31.4706 16.5054 31.4706 16.4835C31.4706 16.4616 31.9821 16.4436 32.6073 16.4437ZM28.862 16.4557C28.3123 16.4431 27.7697 16.8331 27.6368 17.5689C27.5537 18.0285 27.6697 18.4102 28.0013 18.7693C28.142 18.9216 28.3287 19.069 28.416 19.097C28.6848 19.1831 29.1313 19.1644 29.3418 19.058C29.5801 18.9376 29.8141 18.6823 29.9514 18.393C30.0887 18.1036 30.0973 17.5154 29.9682 17.2417C29.7214 16.7185 29.2896 16.4654 28.862 16.4557ZM10.7457 16.4726C10.3155 16.4726 10.0803 16.5889 9.81577 16.9325C9.29093 17.6142 9.4932 18.6393 10.2328 19.0464C10.4945 19.1904 10.9763 19.1959 11.2494 19.058C11.9902 18.6838 12.2039 17.6185 11.6757 16.9325C11.4112 16.5889 11.176 16.4726 10.7457 16.4726ZM10.7552 17.3492C10.8427 17.3544 10.9329 17.395 11.0159 17.4743C11.1892 17.6401 11.1973 17.9253 11.0341 18.1184C10.7277 18.4811 10.1811 18.0565 10.3863 17.6154C10.471 17.4332 10.6093 17.3411 10.7552 17.3492ZM28.8178 17.3561C29.0101 17.3459 29.2063 17.5015 29.2506 17.7583C29.2753 17.9011 29.2561 17.9556 29.1346 18.0909C28.9566 18.2888 28.7516 18.3043 28.5802 18.1329C28.398 17.9507 28.3949 17.6763 28.5724 17.4786C28.6435 17.3996 28.7304 17.3607 28.8178 17.3561Z" fill="#313131"/>
</svg>
