<svg width="442" height="117" viewBox="0 0 442 117" fill="none" xmlns="http://www.w3.org/2000/svg">
<g filter="url(#filter0_d_0:1)">
<rect x="9" y="8" width="420" height="95" rx="10.6279" fill="white"/>
</g>
<path d="M78.9024 29L69.9261 29.008L60.9499 29.016L60.5949 30.6041C60.3996 31.4776 60.1679 32.5127 60.0801 32.9043C59.9923 33.2959 59.8547 33.9119 59.7745 34.2733C59.6943 34.6348 59.4717 35.632 59.2798 36.4893C59.0878 37.3467 58.9308 38.0572 58.9308 38.0683C58.9308 38.0794 63.8892 38.0886 69.9492 38.0886H80.9674L80.8906 37.7326C80.8484 37.5368 80.5591 36.2429 80.2479 34.8574C79.4862 31.4662 79.4116 31.1311 79.1824 30.0747C79.0734 29.5727 78.9658 29.1256 78.9433 29.081L78.9024 29ZM53.6875 32.539C49.4311 32.539 48.7579 32.5464 48.536 32.595C47.9255 32.7287 47.4547 33.0621 47.1707 33.5614L47.0149 33.8353L47.0039 56.1778C46.994 76.204 46.9999 78.5429 47.0598 78.7405C47.1486 79.0332 47.3521 79.3105 47.6469 79.54C47.9155 79.7493 48.1616 79.8635 48.5147 79.9433V79.9437C48.7211 79.9904 51.4728 79.9976 69.9806 79.9996C88.909 80.0018 91.2372 79.9959 91.4647 79.946C92.2072 79.7834 92.8122 79.2675 92.963 78.6686C92.9948 78.5419 93.0055 71.7166 92.9974 56.1611L92.9859 33.8355L92.8301 33.5616C92.5461 33.0623 92.0753 32.7291 91.4647 32.5954C91.2429 32.5468 90.5697 32.5395 86.3133 32.5395C81.6781 32.5395 81.4171 32.5429 81.42 32.6034C81.4217 32.6386 81.573 33.4148 81.7564 34.3284L82.0901 35.9897L85.2588 35.9981C87.0017 36.0029 88.5401 36.0069 88.6774 36.0072L88.927 36.0076V56.2887V76.5699H70.0004H51.074V56.2887V36.0076L52.4306 36.0068C53.1766 36.0064 54.7151 36.0023 55.8491 35.9977L57.9109 35.9893L58.2446 34.3282C58.428 33.4145 58.5796 32.6381 58.581 32.603C58.5837 32.5424 58.3229 32.539 53.6877 32.539L53.6875 32.539ZM64.299 40.6507C63.9635 40.6449 63.6173 40.709 63.2857 40.8501C62.9158 41.0075 62.6692 41.2448 62.1642 41.9294C61.9079 42.2768 61.6245 42.6597 61.5342 42.7802C61.3724 42.9963 59.2903 45.8276 58.8763 46.3945C58.759 46.5552 58.6495 46.6986 58.633 46.7132C58.6165 46.7277 58.341 46.4763 58.0206 46.1544C57.1887 45.3187 56.9631 45.1609 56.4365 45.0456C55.6816 44.8802 54.9247 45.0635 54.401 45.5383C53.9999 45.9019 53.824 46.324 53.8636 46.8286C53.8912 47.1794 54.0101 47.4599 54.2389 47.7142C54.7136 48.2416 57.4916 50.9618 57.6656 51.0694C57.8917 51.2095 58.2467 51.3346 58.5401 51.3775C58.8206 51.4185 58.877 51.4184 59.1912 51.3762C59.5143 51.3329 59.9181 51.1841 60.1621 51.0186C60.4582 50.8177 60.4169 50.871 62.7714 47.654C63.0873 47.2223 63.8106 46.2367 64.3788 45.4636C64.947 44.6905 65.5677 43.8452 65.7579 43.5854C66.2237 42.9492 66.2766 42.8138 66.2592 42.3035C66.2461 41.9229 66.2361 41.8844 66.0848 41.628C65.7227 41.0142 65.037 40.6633 64.299 40.6507V40.6507ZM77.1193 44.989C70.6848 44.989 69.8151 44.9954 69.5862 45.0456C68.9292 45.1894 68.3559 45.6645 68.1594 46.2278C68.0707 46.4821 68.0709 46.9282 68.1594 47.182C68.3513 47.7305 68.9341 48.2192 69.5669 48.3622C69.7715 48.4084 70.821 48.4163 77.0992 48.4183C85.1522 48.421 84.6596 48.435 85.1437 48.1911C85.2715 48.1267 85.478 47.9816 85.6028 47.8686C86.5017 47.0551 86.2553 45.7647 85.0915 45.1911C84.6613 44.9792 85.0476 44.989 77.1191 44.989H77.1193ZM64.3188 50.9038C63.7862 50.8909 63.2407 51.0499 62.8556 51.3484C62.682 51.483 62.3626 51.8927 61.3523 53.2766C61.0561 53.6824 59.3689 55.9772 59.0035 56.4713C58.8847 56.6319 58.7562 56.8084 58.718 56.8635C58.6798 56.9186 58.6356 56.9637 58.6197 56.9638C58.6037 56.9639 58.3889 56.7641 58.1422 56.5196C57.2618 55.6468 57.1698 55.5699 56.8296 55.4234C56.4207 55.2473 55.7989 55.1885 55.3669 55.2852C54.8834 55.3934 54.3354 55.7527 54.1005 56.1157C53.778 56.614 53.7702 57.2406 54.0804 57.7491C54.1416 57.8495 54.4972 58.2356 54.8704 58.6071C55.2437 58.9786 55.9761 59.7096 56.4982 60.2317C57.0202 60.7537 57.5132 61.224 57.5936 61.2766C57.7744 61.3949 58.0719 61.5249 58.3013 61.5861C58.706 61.6941 59.4295 61.6316 59.8475 61.4526C60.0719 61.3564 60.4633 61.0451 60.6142 60.8427C60.6852 60.7476 60.8698 60.4974 61.0242 60.2865C61.7704 59.2678 62.439 58.3555 63.0988 57.4569C63.4968 56.9147 64.3324 55.7761 64.9558 54.9265C65.5792 54.0768 66.1268 53.2964 66.1729 53.1922C66.5698 52.2952 65.9501 51.2634 64.8409 50.9751C64.6726 50.9314 64.4964 50.9081 64.3188 50.9038ZM77.1093 55.5403C70.5946 55.5403 69.87 55.546 69.6158 55.5996C69.104 55.7075 68.6558 55.9892 68.3739 56.3799C68.1775 56.6521 68.0902 56.9226 68.0902 57.259C68.0902 58.0256 68.6476 58.6687 69.5139 58.9017C69.7493 58.965 70.1218 58.9682 77.1007 58.9702C85.0644 58.9724 84.6117 58.983 85.0804 58.7822C85.5212 58.5934 85.9609 58.1153 86.0847 57.6903C86.1749 57.3808 86.1523 56.9302 86.0336 56.6719C85.7816 56.1236 85.2024 55.6976 84.5511 55.5812C84.3859 55.5517 82.2872 55.5403 77.1093 55.5403ZM64.2709 61.6488C63.7638 61.6436 63.2548 61.8052 62.8459 62.1345C62.6302 62.3082 62.425 62.562 61.7708 63.4628C61.3261 64.0753 60.917 64.6339 60.8619 64.7042C60.76 64.8341 60.1629 65.6466 59.2248 66.9312C58.9389 67.3228 58.6822 67.6633 58.6546 67.6879C58.6157 67.7224 58.4551 67.5848 57.9458 67.081C57.073 66.2175 56.7752 66.0497 56.0165 65.9935C54.8861 65.9097 53.8521 66.7237 53.8521 67.697C53.8521 68.1617 54.0274 68.5351 54.4301 68.9273C54.5538 69.0478 55.2755 69.7649 56.0338 70.5209C56.7921 71.2769 57.5149 71.9638 57.64 72.0473C57.886 72.2115 58.0294 72.271 58.3793 72.3541C58.6904 72.428 59.2667 72.4011 59.5961 72.2974C59.7352 72.2536 59.9692 72.1415 60.1162 72.0482C60.404 71.8654 60.5558 71.6876 61.3127 70.6479C61.5364 70.3406 61.8414 69.9249 61.9903 69.7241C62.1393 69.5233 62.4531 69.0963 62.6876 68.775C63.1344 68.1628 63.7537 67.3197 64.8999 65.7628C66.2056 63.9894 66.2188 63.9678 66.2883 63.5141C66.3565 63.0685 66.113 62.524 65.6846 62.1637C65.2832 61.826 64.778 61.654 64.2709 61.6488ZM77.0079 65.8812L69.6313 65.8907L69.3822 65.9753C68.8698 66.1494 68.4173 66.5299 68.2141 66.958C68.1302 67.1346 68.114 67.2361 68.1137 67.5885C68.1137 67.9673 68.1256 68.0321 68.2359 68.2528C68.4681 68.7169 69.0103 69.1115 69.6095 69.2521V69.2519C69.8775 69.3147 84.2016 69.3257 84.5511 69.2633C85.4648 69.1001 86.1475 68.3838 86.1475 67.5883C86.1475 66.815 85.5138 66.115 84.6444 65.9276C84.415 65.8783 83.5194 65.8728 77.0079 65.8812V65.8812Z" fill="#3CB043"/>
<path d="M135.987 60.3369C135.987 59.6452 135.743 59.1162 135.254 58.75C134.766 58.3757 133.887 57.985 132.618 57.5781C131.348 57.1631 130.343 56.7562 129.603 56.3574C127.584 55.2669 126.575 53.798 126.575 51.9507C126.575 50.9904 126.844 50.1359 127.381 49.3872C127.926 48.6304 128.703 48.0404 129.712 47.6172C130.73 47.194 131.869 46.9824 133.13 46.9824C134.4 46.9824 135.531 47.2144 136.524 47.6782C137.517 48.134 138.286 48.7809 138.831 49.6191C139.384 50.4574 139.661 51.4095 139.661 52.4756H135.999C135.999 51.6618 135.743 51.0311 135.23 50.5835C134.717 50.1278 133.997 49.8999 133.069 49.8999C132.174 49.8999 131.478 50.0911 130.982 50.4736C130.486 50.848 130.237 51.3444 130.237 51.9629C130.237 52.5407 130.526 53.0249 131.104 53.4155C131.69 53.8062 132.549 54.1724 133.68 54.5142C135.763 55.1408 137.281 55.918 138.233 56.8457C139.185 57.7734 139.661 58.929 139.661 60.3125C139.661 61.8506 139.079 63.0591 137.916 63.938C136.752 64.8088 135.185 65.2441 133.216 65.2441C131.849 65.2441 130.604 64.9959 129.48 64.4995C128.357 63.995 127.499 63.3073 126.905 62.4365C126.319 61.5658 126.026 60.5566 126.026 59.4092H129.7C129.7 61.3704 130.872 62.3511 133.216 62.3511C134.087 62.3511 134.766 62.1761 135.254 61.8262C135.743 61.4681 135.987 60.9717 135.987 60.3369ZM145.228 51.792L145.337 53.269C146.273 52.1216 147.539 51.5479 149.134 51.5479C150.835 51.5479 152.002 52.2192 152.637 53.562C153.565 52.2192 154.887 51.5479 156.604 51.5479C158.037 51.5479 159.103 51.967 159.803 52.8052C160.503 53.6353 160.853 54.8885 160.853 56.5649V65H157.312V56.5771C157.312 55.8285 157.166 55.2832 156.873 54.9414C156.58 54.5915 156.063 54.4165 155.323 54.4165C154.265 54.4165 153.532 54.9211 153.125 55.9302L153.138 65H149.61V56.5894C149.61 55.8244 149.459 55.271 149.158 54.9292C148.857 54.5874 148.344 54.4165 147.62 54.4165C146.619 54.4165 145.895 54.8315 145.447 55.6616V65H141.919V51.792H145.228ZM171.229 65C171.066 64.6826 170.948 64.2879 170.875 63.8159C170.02 64.7681 168.909 65.2441 167.542 65.2441C166.248 65.2441 165.174 64.8698 164.319 64.1211C163.473 63.3724 163.05 62.4284 163.05 61.2891C163.05 59.8893 163.567 58.8151 164.6 58.0664C165.642 57.3177 167.143 56.9393 169.104 56.9312H170.728V56.1743C170.728 55.564 170.569 55.0757 170.252 54.7095C169.943 54.3433 169.45 54.1602 168.775 54.1602C168.181 54.1602 167.713 54.3026 167.371 54.5874C167.037 54.8722 166.871 55.2629 166.871 55.7593H163.343C163.343 54.9943 163.579 54.2863 164.051 53.6353C164.523 52.9842 165.19 52.4756 166.053 52.1094C166.915 51.735 167.884 51.5479 168.958 51.5479C170.586 51.5479 171.875 51.9588 172.828 52.7808C173.788 53.5946 174.268 54.742 174.268 56.2231V61.9482C174.276 63.2015 174.451 64.1496 174.793 64.7925V65H171.229ZM168.311 62.5464C168.832 62.5464 169.312 62.4325 169.751 62.2046C170.191 61.9686 170.516 61.6553 170.728 61.2646V58.9941H169.41C167.644 58.9941 166.704 59.6045 166.59 60.8252L166.578 61.0327C166.578 61.4722 166.732 61.8343 167.042 62.1191C167.351 62.404 167.774 62.5464 168.311 62.5464ZM184.4 55.1001C183.92 55.035 183.497 55.0024 183.13 55.0024C181.796 55.0024 180.921 55.4541 180.506 56.3574V65H176.978V51.792H180.311L180.408 53.3667C181.116 52.1541 182.097 51.5479 183.35 51.5479C183.741 51.5479 184.107 51.6007 184.449 51.7065L184.4 55.1001ZM190.943 48.5449V51.792H193.201V54.3799H190.943V60.9717C190.943 61.46 191.036 61.8099 191.224 62.0215C191.411 62.2331 191.769 62.3389 192.298 62.3389C192.688 62.3389 193.034 62.3104 193.335 62.2534V64.9268C192.644 65.1383 191.932 65.2441 191.199 65.2441C188.725 65.2441 187.464 63.995 187.415 61.4966V54.3799H185.486V51.792H187.415V48.5449H190.943ZM201.246 65.2441C199.309 65.2441 197.73 64.6501 196.509 63.4619C195.297 62.2738 194.69 60.6909 194.69 58.7134V58.3716C194.69 57.0451 194.947 55.861 195.459 54.8193C195.972 53.7695 196.696 52.9639 197.632 52.4023C198.576 51.8327 199.651 51.5479 200.855 51.5479C202.662 51.5479 204.082 52.1175 205.115 53.2568C206.157 54.3962 206.678 56.0116 206.678 58.103V59.5435H198.267C198.381 60.4061 198.723 61.0978 199.292 61.6187C199.87 62.1395 200.599 62.3999 201.478 62.3999C202.837 62.3999 203.899 61.9076 204.664 60.9229L206.397 62.8638C205.868 63.6125 205.152 64.1984 204.249 64.6216C203.345 65.0366 202.344 65.2441 201.246 65.2441ZM200.843 54.4043C200.143 54.4043 199.573 54.6403 199.134 55.1123C198.702 55.5843 198.426 56.2598 198.304 57.1387H203.211V56.8579C203.195 56.0767 202.983 55.4744 202.576 55.0513C202.169 54.62 201.591 54.4043 200.843 54.4043ZM216.114 55.1001C215.634 55.035 215.21 55.0024 214.844 55.0024C213.51 55.0024 212.635 55.4541 212.22 56.3574V65H208.692V51.792H212.024L212.122 53.3667C212.83 52.1541 213.811 51.5479 215.064 51.5479C215.455 51.5479 215.821 51.6007 216.163 51.7065L216.114 55.1001ZM227.942 62.0581H235.718V65H224.28V47.2266H227.942V62.0581ZM241.321 65H237.781V51.792H241.321V65ZM237.574 48.374C237.574 47.8451 237.749 47.4097 238.099 47.0679C238.457 46.7261 238.941 46.5552 239.551 46.5552C240.153 46.5552 240.634 46.7261 240.992 47.0679C241.35 47.4097 241.529 47.8451 241.529 48.374C241.529 48.9111 241.346 49.3506 240.979 49.6924C240.621 50.0342 240.145 50.2051 239.551 50.2051C238.957 50.2051 238.477 50.0342 238.111 49.6924C237.753 49.3506 237.574 48.9111 237.574 48.374ZM251.392 61.3501C251.392 60.9188 251.176 60.5811 250.745 60.3369C250.322 60.0846 249.638 59.8608 248.694 59.6655C245.553 59.0063 243.982 57.6717 243.982 55.6616C243.982 54.4897 244.467 53.5132 245.435 52.7319C246.412 51.9425 247.685 51.5479 249.256 51.5479C250.932 51.5479 252.271 51.9425 253.272 52.7319C254.281 53.5213 254.786 54.5467 254.786 55.8081H251.258C251.258 55.3035 251.095 54.8885 250.77 54.563C250.444 54.2293 249.935 54.0625 249.244 54.0625C248.65 54.0625 248.19 54.1968 247.864 54.4653C247.539 54.7339 247.376 55.0757 247.376 55.4907C247.376 55.8813 247.559 56.1987 247.925 56.4429C248.3 56.6789 248.926 56.8864 249.805 57.0654C250.684 57.2363 251.425 57.4316 252.027 57.6514C253.89 58.335 254.822 59.519 254.822 61.2036C254.822 62.408 254.306 63.3846 253.272 64.1333C252.238 64.8739 250.904 65.2441 249.268 65.2441C248.161 65.2441 247.177 65.0488 246.314 64.6582C245.459 64.2594 244.788 63.7183 244.3 63.0347C243.812 62.3429 243.567 61.5983 243.567 60.8008H246.912C246.945 61.4274 247.177 61.9076 247.608 62.2412C248.039 62.5749 248.617 62.7417 249.341 62.7417C250.017 62.7417 250.525 62.6156 250.867 62.3633C251.217 62.1029 251.392 61.7651 251.392 61.3501ZM261.329 48.5449V51.792H263.587V54.3799H261.329V60.9717C261.329 61.46 261.422 61.8099 261.609 62.0215C261.797 62.2331 262.155 62.3389 262.684 62.3389C263.074 62.3389 263.42 62.3104 263.721 62.2534V64.9268C263.029 65.1383 262.317 65.2441 261.585 65.2441C259.111 65.2441 257.85 63.995 257.801 61.4966V54.3799H255.872V51.792H257.801V48.5449H261.329ZM269.275 65H265.735V51.792H269.275V65ZM265.528 48.374C265.528 47.8451 265.703 47.4097 266.053 47.0679C266.411 46.7261 266.895 46.5552 267.505 46.5552C268.108 46.5552 268.588 46.7261 268.946 47.0679C269.304 47.4097 269.483 47.8451 269.483 48.374C269.483 48.9111 269.3 49.3506 268.934 49.6924C268.576 50.0342 268.099 50.2051 267.505 50.2051C266.911 50.2051 266.431 50.0342 266.065 49.6924C265.707 49.3506 265.528 48.9111 265.528 48.374ZM275.44 51.792L275.55 53.3179C276.494 52.1379 277.759 51.5479 279.346 51.5479C280.746 51.5479 281.788 51.9588 282.471 52.7808C283.155 53.6027 283.505 54.8315 283.521 56.4673V65H279.993V56.5527C279.993 55.804 279.83 55.2629 279.505 54.9292C279.179 54.5874 278.638 54.4165 277.881 54.4165C276.889 54.4165 276.144 54.8397 275.647 55.686V65H272.12V51.792H275.44ZM285.694 58.2983C285.694 56.272 286.174 54.6403 287.134 53.4033C288.103 52.1663 289.405 51.5479 291.041 51.5479C292.489 51.5479 293.616 52.0443 294.422 53.0371L294.568 51.792H297.767V64.5605C297.767 65.7161 297.502 66.7212 296.973 67.5757C296.452 68.4302 295.716 69.0812 294.764 69.5288C293.812 69.9764 292.697 70.2002 291.419 70.2002C290.451 70.2002 289.507 70.0049 288.587 69.6143C287.667 69.2318 286.972 68.7354 286.5 68.125L288.062 65.9766C288.941 66.9613 290.007 67.4536 291.26 67.4536C292.196 67.4536 292.924 67.2013 293.445 66.6968C293.966 66.2004 294.227 65.4924 294.227 64.5728V63.8647C293.413 64.7843 292.343 65.2441 291.016 65.2441C289.429 65.2441 288.143 64.6257 287.159 63.3887C286.182 62.1436 285.694 60.4956 285.694 58.4448V58.2983ZM289.222 58.5547C289.222 59.751 289.462 60.6909 289.942 61.3745C290.422 62.05 291.081 62.3877 291.919 62.3877C292.994 62.3877 293.763 61.9849 294.227 61.1792V55.625C293.755 54.8193 292.994 54.4165 291.944 54.4165C291.097 54.4165 290.43 54.7624 289.942 55.4541C289.462 56.1458 289.222 57.1794 289.222 58.5547ZM307.642 61.3501C307.642 60.9188 307.426 60.5811 306.995 60.3369C306.572 60.0846 305.888 59.8608 304.944 59.6655C301.803 59.0063 300.232 57.6717 300.232 55.6616C300.232 54.4897 300.717 53.5132 301.685 52.7319C302.662 51.9425 303.935 51.5479 305.506 51.5479C307.182 51.5479 308.521 51.9425 309.522 52.7319C310.531 53.5213 311.036 54.5467 311.036 55.8081H307.508C307.508 55.3035 307.345 54.8885 307.02 54.563C306.694 54.2293 306.185 54.0625 305.494 54.0625C304.9 54.0625 304.44 54.1968 304.114 54.4653C303.789 54.7339 303.626 55.0757 303.626 55.4907C303.626 55.8813 303.809 56.1987 304.175 56.4429C304.55 56.6789 305.176 56.8864 306.055 57.0654C306.934 57.2363 307.675 57.4316 308.277 57.6514C310.14 58.335 311.072 59.519 311.072 61.2036C311.072 62.408 310.556 63.3846 309.522 64.1333C308.488 64.8739 307.154 65.2441 305.518 65.2441C304.411 65.2441 303.427 65.0488 302.564 64.6582C301.709 64.2594 301.038 63.7183 300.55 63.0347C300.062 62.3429 299.817 61.5983 299.817 60.8008H303.162C303.195 61.4274 303.427 61.9076 303.858 62.2412C304.289 62.5749 304.867 62.7417 305.591 62.7417C306.267 62.7417 306.775 62.6156 307.117 62.3633C307.467 62.1029 307.642 61.7651 307.642 61.3501Z" fill="#313131"/>
<defs>
<filter id="filter0_d_0:1" x="0.497707" y="0.560494" width="441.256" height="116.256" filterUnits="userSpaceOnUse" color-interpolation-filters="sRGB">
<feFlood flood-opacity="0" result="BackgroundImageFix"/>
<feColorMatrix in="SourceAlpha" type="matrix" values="0 0 0 0 0 0 0 0 0 0 0 0 0 0 0 0 0 0 127 0" result="hardAlpha"/>
<feOffset dx="2.12557" dy="3.18836"/>
<feGaussianBlur stdDeviation="5.31393"/>
<feComposite in2="hardAlpha" operator="out"/>
<feColorMatrix type="matrix" values="0 0 0 0 0 0 0 0 0 0 0 0 0 0 0 0 0 0 0.1 0"/>
<feBlend mode="normal" in2="BackgroundImageFix" result="effect1_dropShadow_0:1"/>
<feBlend mode="normal" in="SourceGraphic" in2="effect1_dropShadow_0:1" result="shape"/>
</filter>
</defs>
</svg>
