<svg width="36" height="20" viewBox="0 0 36 20" fill="none" xmlns="http://www.w3.org/2000/svg">
<path d="M15.8002 0.000685794C11.9239 0.00354346 8.82596 0.0153551 8.81212 0.0379307C8.79995 0.0577438 8.83654 0.214125 8.89352 0.385527L8.99718 0.697156L19.3567 0.709348C28.9125 0.720493 29.7231 0.727542 29.8043 0.800603C29.8842 0.872616 29.8923 0.973206 29.8923 1.9032C29.8923 2.46604 29.9083 2.9265 29.9279 2.9265C29.9896 2.9265 31.1688 2.67718 31.1871 2.66028C31.2152 2.63418 31.1972 0.280451 31.1681 0.189234C31.1535 0.143417 31.0741 0.0825007 30.9917 0.0539336C30.883 0.0162124 22.2607 -0.00407698 15.8002 0.000685794ZM5.91009 0.00925879C5.41351 0.00973507 4.87092 0.0111639 4.30532 0.013069L0.191957 0.0265L0.0998283 0.139711C0.0108601 0.249045 0.00789126 0.376259 0.0128712 3.87928C0.0157442 5.87378 0.031929 7.72474 0.0490714 7.99255C0.066118 8.26036 0.0638196 8.46946 0.044283 8.45719C0.0243633 8.4449 0.0080828 10.2376 0.0080828 12.441V16.447H15.6131H31.2182V12.5157C31.2182 10.3534 31.2106 8.58434 31.2022 8.58434C31.1936 8.58435 30.8952 8.84486 30.5395 9.16323L29.8927 9.7421V12.7591V15.7759L15.6132 15.7638L1.33363 15.7518V8.3047C1.33362 0.988276 1.33554 0.85647 1.42719 0.78962C1.50553 0.732657 1.98871 0.721608 4.39437 0.721608C6.84643 0.721608 7.28172 0.711225 7.36156 0.651214C7.48377 0.559388 7.74048 0.558435 7.81664 0.649309C7.87889 0.723894 8.39523 0.756023 8.39487 0.68522C8.39487 0.665407 8.27548 0.585306 8.12976 0.507121C7.87431 0.370067 7.80906 0.281718 7.91521 0.216468C7.96472 0.186081 8.62803 0.552415 8.69367 0.646461C8.77565 0.763825 8.77804 0.612169 8.69846 0.341481C8.63573 0.127728 8.58524 0.0397977 8.51544 0.0227279C8.47569 0.0130118 7.39981 0.00802046 5.91009 0.00925879ZM35.9789 2.46437C35.8931 2.47009 35.5565 2.53058 35.1648 2.61073C34.7171 2.70227 33.3965 2.973 32.2301 3.21227C31.0636 3.45154 29.9937 3.67039 29.8525 3.69864C29.6197 3.74522 29.6021 3.75741 29.6641 3.82973C29.7018 3.87354 30.0929 4.31467 30.5333 4.80993L31.3341 5.71046L31.0582 5.96057C30.9065 6.09816 30.2354 6.69358 29.5671 7.28369C28.8987 7.8738 28.3638 8.37587 28.3785 8.39949C28.3932 8.42311 28.3862 8.43655 28.3634 8.42931C28.324 8.41692 27.8592 8.78925 27.3121 9.27159L27.0696 9.48537L25.4323 7.97403C23.1315 5.85031 22.9852 5.72237 22.813 5.68475C22.7301 5.66665 22.5966 5.66608 22.5163 5.68379C22.4262 5.70351 21.7762 6.19585 20.8172 6.97077C19.963 7.66103 18.4555 8.87971 17.4673 9.679C16.4792 10.4783 15.651 11.1253 15.6269 11.1167C15.6029 11.1082 15.1099 10.6563 14.5315 10.1125C12.9775 8.65172 12.8232 8.51216 12.7602 8.51216C12.7286 8.51216 12.5093 8.71443 12.2728 8.96163L11.8428 9.41109L11.9921 9.53694C12.0743 9.60619 12.8402 10.3208 13.6943 11.1251C14.5483 11.9293 15.2832 12.602 15.3275 12.6199C15.3717 12.6378 15.5091 12.654 15.6326 12.6558C15.8263 12.6587 15.8927 12.6313 16.1146 12.4571C16.3426 12.2781 19.1466 10.0121 20.1117 9.22686C20.3128 9.06322 20.9614 8.53972 21.5528 8.06358L22.6283 7.19789L22.7515 7.29424C22.8192 7.3472 23.0286 7.53502 23.2169 7.71159C24.8283 9.22274 26.647 10.8766 26.7728 10.9452C26.9801 11.0584 27.1822 11.0504 27.3897 10.9209C27.4846 10.8618 28.4375 10.0367 29.5072 9.0874C30.577 8.13813 31.6244 7.21136 31.835 7.0279L32.2179 6.69427L32.3275 6.82096C32.7935 7.35982 33.9567 8.63246 33.9706 8.61864C34.0091 8.58035 36.0194 2.48464 35.9999 2.46525C35.9978 2.46335 35.9912 2.46333 35.9789 2.46437ZM0 17.741L0.0158974 18.616C0.030933 19.4424 0.0380198 19.4996 0.144121 19.6476C0.205891 19.7337 0.336049 19.8461 0.43333 19.8972C0.60575 19.9878 0.774483 19.9902 7.14155 19.9923L13.673 19.9942L13.8135 19.8462C13.9217 19.7322 13.9855 19.7027 14.0905 19.718C14.2125 19.7358 14.2484 19.7068 14.234 19.6024C14.2311 19.5847 14.2918 19.5038 14.368 19.4226C14.6174 19.1571 14.7972 19.2363 15.2028 19.7905C15.3514 19.9935 15.3531 19.9942 15.6601 19.9942H15.9683L15.9532 19.8411C15.9395 19.7028 15.8891 19.6585 15.4321 19.3834C14.834 19.0234 14.8141 19.0064 14.9434 18.9656C15.0129 18.9436 15.1554 18.9991 15.4169 19.1499C15.6226 19.2685 15.7992 19.3574 15.8093 19.3474C15.8193 19.3374 15.7692 19.1544 15.6976 18.9409C15.5757 18.5769 15.5652 18.4121 15.6639 18.4121C15.711 18.4121 16.0954 19.551 16.1394 19.8212L16.1677 19.9942H23.3813H30.5949L30.8072 19.8863C31.149 19.7126 31.1893 19.584 31.1941 18.6518C31.1961 18.2167 31.1969 17.8338 31.1961 17.8008C31.1941 17.7532 29.8901 17.7409 24.8407 17.7409H18.4874L18.4045 17.9279C18.2507 18.2745 18.3021 18.2683 15.5887 18.2683H13.181L13.0188 18.1596C12.9232 18.0954 12.8382 17.9872 12.8118 17.8959L12.7671 17.7409H6.38369L0 17.741ZM14.6214 19.4686C14.406 19.4724 14.2536 19.7743 14.3956 19.9156C14.4959 20.0154 15.1225 20.033 15.0659 19.9345C14.9586 19.7476 14.691 19.4673 14.6214 19.4686ZM14.0342 19.9176C14.0063 19.9176 13.9785 19.9262 13.9498 19.9426C13.881 19.9824 13.8966 19.9915 14.0342 19.9915C14.1718 19.9915 14.1874 19.9829 14.1186 19.9426C14.0899 19.926 14.0621 19.9176 14.0342 19.9176Z" fill="#313131"/>
</svg>
