<svg width="23" height="15" viewBox="0 0 23 15" fill="none" xmlns="http://www.w3.org/2000/svg">
<path d="M6.31619 14.9488C5.73321 14.7838 5.21116 14.3173 4.97497 13.7504L4.88951 13.5453L3.6469 13.5347C2.44688 13.5244 2.39958 13.5215 2.26627 13.4521C1.73785 13.1774 1.61471 12.4505 2.01159 11.949C2.13842 11.7886 2.44003 11.6159 2.59322 11.6159C2.70953 11.6158 2.69461 11.7075 2.80279 10.3381C2.8445 9.8087 2.88622 9.30526 2.89571 9.2193L2.91267 9.06303L1.96286 9.05352C1.05391 9.04439 1.00932 9.04068 0.926468 8.97432C0.824053 8.89192 0.769116 8.70127 0.811167 8.57339C0.828123 8.52555 0.878652 8.45505 0.926468 8.41667C1.0126 8.34731 1.02515 8.3469 3.22239 8.3469H5.43169L5.52122 8.4553C5.64941 8.61055 5.64772 8.8107 5.51783 8.94641L5.42389 9.04388L4.49009 9.05415C3.79238 9.06181 3.55585 9.07432 3.55462 9.10393C3.55357 9.12594 3.50782 9.68875 3.45221 10.355C3.39693 11.0213 3.3542 11.5706 3.35759 11.5758C3.36438 11.5883 5.00366 11.5883 5.01441 11.5759C5.0178 11.5708 5.09308 11.4525 5.17888 11.3134C5.64283 10.5612 6.39626 10.1226 7.22259 10.1235C8.05571 10.1244 8.73216 10.5736 9.10821 11.3756L9.20554 11.583H12.1923H15.179L15.196 11.4586C15.2062 11.3901 15.2197 11.1997 15.2313 11.0354C15.2414 10.8711 15.255 10.6769 15.2618 10.6039C15.2686 10.5309 15.2889 10.2994 15.3072 10.0895C15.3242 9.87959 15.4096 8.84906 15.4934 7.79946C15.5772 6.74985 15.707 5.13686 15.782 4.21504C15.8569 3.29321 15.9261 2.43444 15.9356 2.30666C15.9811 1.7012 16.0173 1.25754 16.0384 1.04548C16.0519 0.917711 16.0553 0.787005 16.0519 0.75509C16.0418 0.700028 15.7355 0.697019 10.1375 0.697019C4.53595 0.697019 4.23346 0.699931 4.23146 0.75509C4.23041 0.787003 4.20433 1.08947 4.17516 1.42717C4.14464 1.76488 4.12633 2.05237 4.13311 2.06606C4.13989 2.07963 4.58709 2.091 5.12721 2.091C5.74204 2.091 6.13128 2.10384 6.16825 2.12512C6.30423 2.2038 6.36188 2.47607 6.27202 2.61477C6.1557 2.79445 6.26523 2.78792 3.32848 2.78792C0.976807 2.78792 0.598212 2.78132 0.521503 2.73833C0.350233 2.64252 0.29326 2.46329 0.373632 2.27254C0.449934 2.09176 0.457395 2.09092 2.02102 2.09092H3.46269L3.47964 1.94987C3.48982 1.87228 3.52509 1.45784 3.55934 1.02887C3.59359 0.599902 3.62886 0.223178 3.63801 0.19171C3.64819 0.160166 3.68956 0.104222 3.73331 0.067242C3.81198 0.000221994 3.83131 0 10.1765 0C14.4828 0 16.5599 0.0110053 16.5998 0.0341153C16.6337 0.0528284 16.6809 0.11449 16.708 0.170947C16.7555 0.269957 16.7548 0.384558 16.7046 0.829826C16.6978 0.875532 16.6876 1.03985 16.6774 1.19491C16.6673 1.34997 16.6313 1.80272 16.5984 2.20101C16.5645 2.59928 16.5387 2.93906 16.5387 2.95606C16.5387 2.9744 16.8531 2.98687 17.307 2.98687C18.3822 2.98687 18.8278 3.04653 19.4535 3.27415C20.6637 3.71452 21.6636 4.71776 22.144 5.97388C22.3038 6.39109 22.3652 6.61595 22.4435 7.068C22.5439 7.64858 22.5368 7.9909 22.3862 9.81152C22.3089 10.7448 22.2458 11.5327 22.2458 11.5622C22.2458 11.5956 22.2729 11.6161 22.315 11.6164C22.511 11.6172 22.8102 11.8584 22.9431 12.1226C23.0201 12.2758 23.0187 12.7477 22.9405 12.9179C22.8466 13.1227 22.6533 13.3324 22.4671 13.4313L22.2918 13.5244L21.4726 13.5354L20.6533 13.5464L20.5607 13.7239C20.3746 14.0804 19.927 14.5278 19.5507 14.7331C19.159 14.9468 18.9969 14.9846 18.472 14.9846C18.0499 14.9846 17.9725 14.9757 17.7833 14.905C17.2327 14.6995 16.8081 14.2966 16.5677 13.7519L16.4747 13.5408H12.7672C9.41759 13.5408 9.05778 13.546 9.041 13.5932C8.96809 13.7987 8.58854 14.2775 8.33413 14.4849C8.11472 14.6637 7.73046 14.8635 7.46435 14.9371C7.18051 15.0156 6.57979 15.0219 6.3224 14.9489L6.31619 14.9488ZM7.45588 14.2082C8.25125 13.8762 8.75987 13.0001 8.64887 12.1534C8.52543 11.2127 7.672 10.6223 6.79337 10.8699C6.23358 11.0276 5.71113 11.5431 5.51247 12.1338C5.42091 12.4061 5.4009 12.9293 5.47144 13.1962C5.602 13.6887 5.95065 14.0808 6.4008 14.2415C6.64836 14.33 7.20622 14.3124 7.45574 14.2082L7.45588 14.2082ZM6.74576 13.576C6.35224 13.4461 6.09366 13.0925 6.08867 12.6777C6.08528 12.3718 6.1158 12.2446 6.25552 12.0207C6.4573 11.6939 6.73005 11.5424 7.10855 11.5469C7.40324 11.5504 7.59353 11.6384 7.77268 11.854C8.21795 12.3897 7.96903 13.3029 7.31439 13.5354C7.11194 13.6073 6.88876 13.6232 6.74576 13.576ZM7.12957 12.8623C7.24861 12.8084 7.35916 12.6382 7.35916 12.508C7.35923 12.4602 7.33203 12.3818 7.29574 12.3337C7.24454 12.2635 7.20621 12.2463 7.10041 12.2463C6.78638 12.2463 6.60251 12.6506 6.82877 12.8433C6.92203 12.9225 6.98714 12.9266 7.12957 12.8623L7.12957 12.8623ZM18.8648 14.2681C19.072 14.2167 19.4128 14.0277 19.5887 13.8664C20.5053 13.0264 20.4677 11.5693 19.5148 11.0083C19.0759 10.7499 18.5118 10.7565 18.0056 11.0259C17.6983 11.1896 17.3427 11.5881 17.1834 11.9474C16.882 12.6281 16.962 13.3276 17.3984 13.8268C17.6904 14.1609 17.9984 14.2997 18.4506 14.3013C18.6025 14.3018 18.7887 14.287 18.8648 14.2679L18.8648 14.2681ZM18.2566 13.5431C18.0422 13.457 17.8804 13.301 17.7718 13.076C17.6945 12.9158 17.684 12.859 17.685 12.6114C17.6866 12.3078 17.7352 12.1599 17.9146 11.9144C18.1279 11.6225 18.6067 11.4592 18.941 11.5643C19.6233 11.7789 19.8145 12.7028 19.2942 13.2713C19.0239 13.5664 18.5946 13.6789 18.2564 13.5431L18.2566 13.5431ZM18.8022 12.8063C18.9029 12.7257 18.9721 12.5299 18.9371 12.4241C18.8934 12.2916 18.8279 12.2463 18.6797 12.2463C18.5577 12.2463 18.52 12.2628 18.4407 12.3505C18.3288 12.4744 18.2938 12.6142 18.3427 12.7423C18.4115 12.9219 18.6211 12.9511 18.8023 12.8063L18.8022 12.8063ZM4.75908 12.7499C4.75569 12.7074 4.76247 12.5916 4.77604 12.4926L4.80317 12.3127H3.70028H2.59735L2.5085 12.4157C2.39354 12.5488 2.39083 12.6817 2.50172 12.7753C2.58107 12.8429 2.60854 12.8443 3.67528 12.8358L4.76749 12.827L4.75908 12.7499ZM16.3493 12.7026C16.3495 12.625 16.3595 12.5055 16.3696 12.4371L16.39 12.3126H12.8619H9.33383L9.31348 12.4869C9.30331 12.5827 9.29313 12.7022 9.29313 12.7524L9.2929 12.8437H12.8213H16.3496L16.3499 12.7026L16.3493 12.7026ZM22.178 12.7941C22.3513 12.6971 22.4151 12.4969 22.3117 12.3733C22.2655 12.3181 22.2011 12.3126 21.5948 12.3126H20.9288L20.9084 12.4666C20.8982 12.5513 20.8881 12.6708 20.8881 12.7321V12.8436H21.4879C21.96 12.8436 22.1065 12.833 22.1763 12.794L22.178 12.7941ZM21.5872 11.5433C21.5906 11.5191 21.658 10.7229 21.7357 9.77366C21.8466 8.42233 21.873 7.97613 21.8571 7.71741C21.7262 5.55917 20.2882 3.93757 18.3101 3.71798C18.0327 3.68717 16.4716 3.66711 16.4716 3.69451C16.4716 3.70033 16.4298 4.21202 16.3786 4.83123C16.2403 6.51048 16.1121 8.102 16.0578 8.81133C16.0307 9.15814 16.0039 9.50167 15.9964 9.57468C15.9896 9.64768 15.9761 9.82692 15.9659 9.97295C15.9557 10.119 15.9422 10.2982 15.9354 10.3712C15.9286 10.4442 15.9083 10.6981 15.8903 10.9354C15.8733 11.1727 15.8506 11.4154 15.8418 11.4748L15.8248 11.5826L16.2174 11.5822L16.61 11.5819L16.7473 11.3487C16.9403 11.0213 17.251 10.6935 17.561 10.4903C17.9333 10.2462 18.3531 10.1222 18.8072 10.1222C19.6283 10.1222 20.3286 10.5806 20.6832 11.3502C20.7378 11.4688 20.7917 11.5734 20.8026 11.5825C20.8127 11.5916 20.9931 11.5965 21.2014 11.5932C21.4876 11.5888 21.5819 11.5763 21.5873 11.5434L21.5872 11.5433ZM16.8489 8.74193C16.723 8.67304 16.6749 8.52175 16.699 8.27032C16.7091 8.16621 16.7227 7.97648 16.7329 7.84869C16.7566 7.47911 16.7783 7.21025 16.8099 6.83642C16.8268 6.64475 16.8465 6.39833 16.8553 6.28881C17.0049 4.44099 17.0008 4.46587 17.1683 4.38326C17.2779 4.32933 18.075 4.33884 18.3927 4.39794C19.5049 4.60465 20.4058 5.32078 20.8968 6.38842C21.1434 6.92471 21.258 7.4875 21.2485 8.11581C21.2417 8.54627 21.2051 8.6686 21.0643 8.72515C21.0274 8.7402 20.0857 8.76205 18.9719 8.77405C17.14 8.79386 16.9376 8.79056 16.8486 8.74214L16.8489 8.74193ZM19.9621 8.06442H20.6199L20.5995 7.82381C20.5127 6.82715 20.0762 6.03929 19.3147 5.50444C18.9464 5.2457 18.3075 5.04551 17.8472 5.04466L17.6111 5.04422L17.5942 5.18527C17.5738 5.34943 17.5511 5.65451 17.5287 6.0067C17.5186 6.14361 17.505 6.30788 17.4982 6.37178C17.4914 6.43569 17.4629 6.78665 17.4372 7.15173C17.41 7.51681 17.3816 7.88144 17.371 7.96202L17.3507 8.10853L18.3264 8.08652C18.863 8.07442 19.5981 8.06451 19.9598 8.06451L19.9621 8.06442ZM6.44763 9.03682C6.26587 8.99878 6.16108 8.67427 6.27434 8.49976C6.38083 8.33501 6.42966 8.32992 7.88778 8.33014C8.74674 8.33027 9.2893 8.34334 9.36306 8.36535C9.49193 8.40408 9.59909 8.55358 9.59909 8.69503C9.59909 8.83648 9.49227 8.98597 9.36306 9.02471C9.25081 9.05845 6.60356 9.06946 6.44777 9.03681L6.44763 9.03682ZM0.219366 6.94591C0.182062 6.93824 0.114916 6.88479 0.0704914 6.82749C0.00164976 6.73887 -0.00818477 6.70097 0.00504096 6.57353C0.0152146 6.46575 0.0433617 6.40251 0.10203 6.34796C0.182401 6.27301 0.192575 6.2722 1.01779 6.27323C1.89992 6.2744 1.895 6.27353 1.99931 6.43721C2.11224 6.61447 2.01627 6.87338 1.81551 6.93374C1.70428 6.96712 0.369461 6.97725 0.219535 6.94584L0.219366 6.94591ZM2.84986 6.93197C2.67081 6.85475 2.59281 6.6604 2.6647 6.47224C2.74609 6.25991 2.56127 6.27206 5.71883 6.27206C7.62981 6.27206 8.61038 6.28343 8.64965 6.30617C8.72019 6.34693 8.80124 6.5065 8.80124 6.6039C8.80124 6.72628 8.70866 6.87301 8.60082 6.9218C8.51299 6.96146 8.05219 6.96865 5.71116 6.96685C3.95089 6.96559 2.89788 6.95254 2.84979 6.93201L2.84986 6.93197ZM1.44949 4.83041C1.26569 4.74379 1.20465 4.54625 1.30028 4.34641C1.32741 4.2931 1.37455 4.23338 1.40846 4.21372C1.44949 4.18987 1.82331 4.17888 2.51542 4.18034C3.4557 4.18238 3.56785 4.1884 3.63249 4.23999C3.83325 4.40045 3.79832 4.72746 3.56941 4.831C3.42121 4.89798 1.59216 4.89755 1.4497 4.83048L1.44949 4.83041ZM4.54859 4.84581C4.51298 4.83004 4.45296 4.7749 4.41531 4.72318C4.31799 4.58954 4.34172 4.36349 4.46483 4.25707L4.55232 4.18143L7.18475 4.18127C10.0763 4.18111 9.94923 4.17215 10.0294 4.38145C10.0836 4.52283 10.0395 4.70214 9.92695 4.79193C9.84082 4.86115 9.82759 4.86152 7.227 4.86798C5.78967 4.87157 4.58454 4.86177 4.54889 4.84596L4.54859 4.84581ZM7.08976 2.73789C6.96937 2.68037 6.88595 2.49673 6.91511 2.35314C6.92529 2.30076 6.97582 2.22016 7.02668 2.17405L7.11893 2.09019H8.00434C8.50664 2.09019 8.92386 2.10413 8.96859 2.12247C9.15036 2.19726 9.18597 2.53076 9.02896 2.69042L8.95028 2.77039L8.07064 2.77806C7.35689 2.78427 7.17193 2.7768 7.0901 2.73767L7.08976 2.73789Z" fill="#313131"/>
</svg>
