<svg width="60" height="60" viewBox="0 0 60 60" fill="none" xmlns="http://www.w3.org/2000/svg">
<circle cx="30" cy="30" r="30" fill="#079BE2"/>
<path d="M42.8135 25.2304C42.8332 25.5039 42.8332 25.7774 42.8332 26.0508C42.8332 34.3906 36.4405 44 24.7564 44C21.1567 44 17.8128 42.9648 15 41.168C15.5114 41.2266 16.0031 41.2461 16.5343 41.2461C19.5044 41.2461 22.2386 40.25 24.422 38.5508C21.6288 38.4922 19.2881 36.6758 18.4816 34.1758C18.875 34.2343 19.2684 34.2734 19.6815 34.2734C20.2519 34.2734 20.8224 34.1953 21.3535 34.0586C18.4423 33.4726 16.2588 30.9336 16.2588 27.8672V27.7891C17.1046 28.2578 18.0882 28.5508 19.1306 28.5898C17.4193 27.457 16.2982 25.5234 16.2982 23.3359C16.2982 22.164 16.6129 21.0898 17.1637 20.1523C20.2912 23.9804 24.9924 26.4804 30.2639 26.7539C30.1656 26.2851 30.1066 25.7969 30.1066 25.3086C30.1066 21.832 32.9391 19 36.46 19C38.2893 19 39.9416 19.7617 41.1022 20.9922C42.538 20.7188 43.9149 20.1914 45.1345 19.4688C44.6624 20.9336 43.6592 22.1641 42.3414 22.9453C43.62 22.8086 44.8592 22.457 46 21.9688C45.1347 23.2187 44.0527 24.332 42.8135 25.2304Z" fill="white"/>
</svg>
