<svg width="29" height="25" viewBox="0 0 29 25" fill="none" xmlns="http://www.w3.org/2000/svg">
<path d="M1.88292 24.8114C1.25223 24.5643 0.576364 23.9256 0.26758 23.2849C-0.0755832 22.5728 -0.0902038 21.5408 0.232556 20.8126C0.902169 19.302 2.73941 17.7369 5.40026 16.4104C7.30093 15.4628 9.2461 14.8543 10.3743 14.8543C10.6615 14.8543 11.0637 14.9512 11.4856 15.122C12.4349 15.5062 13.3659 15.6772 14.5081 15.6772C15.6504 15.6772 16.5814 15.5062 17.5307 15.122C18.3009 14.8102 18.8385 14.7821 19.8735 14.9998C21.6125 15.3654 24.1417 16.4761 25.8145 17.6089C26.9955 18.4087 28.2828 19.7345 28.6887 20.569C28.9703 21.1479 29 21.2833 29 21.9863C29 22.6524 28.9641 22.838 28.7487 23.2849C28.4341 23.9378 27.759 24.5676 27.1079 24.8159C26.6197 25.002 26.5073 25.0036 14.4823 24.9989C2.57388 24.994 2.34072 24.9906 1.88292 24.8114ZM26.8567 23.215C27.8324 22.4727 27.7044 21.337 26.5098 20.1376C25.2281 18.8507 22.6105 17.4148 20.3059 16.7343C19.0123 16.3523 18.7109 16.3443 17.81 16.6683C16.7088 17.0643 15.7282 17.2317 14.5081 17.2317C13.2895 17.2317 12.3075 17.0644 11.2108 16.67C10.5523 16.4331 10.3634 16.4012 9.93787 16.4549C9.11133 16.5593 7.367 17.195 5.93866 17.9123C2.22745 19.7762 0.707974 21.6757 1.88423 22.9809C2.32117 23.4657 1.71572 23.4446 14.6137 23.4233C26.5738 23.4036 26.6097 23.4029 26.8567 23.215ZM13.207 14.6318C10.8769 14.1597 9.00315 12.7094 8.00122 10.6026C7.4984 9.54527 7.33705 8.90888 7.27099 7.7224C7.1504 5.55664 7.85434 3.69717 9.38552 2.13676C10.2855 1.21959 11.0661 0.721609 12.2648 0.299896C13.0853 0.0112314 13.1694 0 14.5081 0C15.8468 0 15.931 0.0114042 16.7515 0.299896C17.9789 0.731734 18.7295 1.21541 19.6776 2.18549C20.3845 2.90886 20.5572 3.15091 20.9564 3.97771C21.6088 5.3289 21.7307 5.86407 21.7259 7.35667C21.7213 8.80846 21.5955 9.38326 21.0153 10.6026C20.5613 11.5567 19.8681 12.4491 19.0663 13.1115C18.3946 13.6664 17.1148 14.3235 16.3028 14.5303C15.4833 14.7391 13.98 14.7884 13.207 14.6318ZM16.2774 12.8912C18.5011 12.1754 20.0915 10.0769 20.2231 7.68507C20.3722 4.97651 18.7647 2.63845 16.1233 1.72179C15.7357 1.58729 15.3795 1.5518 14.4633 1.5565C13.4112 1.56168 13.2309 1.5876 12.6256 1.81973C11.1678 2.37864 10.039 3.39866 9.38714 4.74618C8.91548 5.7211 8.73439 6.61712 8.79316 7.68507C8.94267 10.4021 10.9003 12.6206 13.589 13.12C14.2795 13.2483 15.4874 13.1456 16.2774 12.8912Z" fill="white"/>
</svg>
