<svg width="442" height="117" viewBox="0 0 442 117" fill="none" xmlns="http://www.w3.org/2000/svg">
<g filter="url(#filter0_d_0:1)">
<rect x="9" y="8" width="420" height="95" rx="10.6279" fill="white"/>
</g>
<path d="M77.3387 81.3142L72.66 76.6283L74.552 74.7192L76.4441 72.8101L79.7484 76.1052L83.0527 79.4003L91.5481 70.9083L100.044 62.4162L102.022 64.395L104 66.3738L94.1752 76.1869C84.5636 85.787 84.3251 86 83.1839 86C82.0676 86 81.8161 85.7984 77.3387 81.3142ZM50.3739 80.0242C49.1685 79.499 47.6929 77.7532 47.3204 76.4115C46.8831 74.837 46.8982 33.816 47.3366 32.2368C47.7512 30.7432 49.4784 29.0159 50.972 28.6013C51.613 28.4233 54.0822 28.277 56.4593 28.2761L60.7812 28.2744V31.0581V33.8418H56.679H52.5769V54.5V75.1581H58.0769H63.577L66.2018 77.7953L68.8267 80.4325L60.0425 80.4211C53.4475 80.4124 51.038 80.3136 50.3739 80.0242L50.3739 80.0242ZM85.6182 51.5644L85.6959 33.8419H81.4428H77.1897V31.0581V28.2744L81.5116 28.2761C83.8886 28.277 86.3238 28.4139 86.9231 28.5804C88.3807 28.9852 89.7539 30.1869 90.4103 31.6321C90.9103 32.7327 90.9487 33.9132 90.9547 48.3523L90.9611 63.8883L88.2508 66.5876L85.5404 69.2869L85.6182 51.5644L85.6182 51.5644ZM58.1441 62.7687C58.1441 61.6393 58.3059 61.3509 59.7654 59.8797C64.3988 55.209 70.831 54.55 76.2783 58.1878C78.798 59.8704 79.8268 61.1993 79.8268 62.7714V64.0233H68.9854H58.1441V62.7687ZM66.9344 52.56C65.9984 52.1878 64.6561 50.9168 64.1246 49.8994C63.5639 48.8262 63.6032 46.3187 64.2003 45.0602C64.8452 43.7012 66.6651 42.4158 68.2894 42.1722C71.9505 41.6232 75.1705 45.143 74.2719 48.7118C73.8252 50.4861 73.2236 51.3188 71.7749 52.1678C70.4564 52.9406 68.3257 53.1132 66.9344 52.56ZM63.7113 29.1402C63.7113 24.5389 63.7266 24.4231 64.4305 23.7192C65.1223 23.0273 65.2985 23 69.0675 23C72.899 23 73.0011 23.0167 73.6957 23.7553C74.3766 24.4792 74.41 24.7044 74.4995 29.1762L74.5929 33.8419H69.1521H63.7113V29.1402ZM70.8311 30.3954C71.7119 29.6023 71.9769 28.6158 71.6089 27.5006C71.1934 26.2416 70.3167 25.6372 68.9062 25.6372C66.1659 25.6372 65.3141 29.403 67.7475 30.7597C68.6847 31.2823 70.0216 31.1243 70.8311 30.3954Z" fill="#3CB043"/>
<path d="M140.649 62.7539C139.99 63.5433 139.058 64.1577 137.854 64.5972C136.65 65.0285 135.315 65.2441 133.85 65.2441C132.312 65.2441 130.961 64.9105 129.797 64.2432C128.642 63.5677 127.747 62.5911 127.112 61.3135C126.485 60.0358 126.164 58.5343 126.147 56.8091V55.6006C126.147 53.8265 126.444 52.2925 127.039 50.9985C127.641 49.6965 128.503 48.7036 129.626 48.02C130.758 47.3283 132.08 46.9824 133.594 46.9824C135.701 46.9824 137.349 47.487 138.538 48.4961C139.726 49.4971 140.43 50.9578 140.649 52.8784H137.085C136.922 51.8612 136.56 51.1165 135.999 50.6445C135.445 50.1725 134.68 49.9365 133.704 49.9365C132.458 49.9365 131.51 50.4045 130.859 51.3403C130.208 52.2762 129.879 53.6678 129.871 55.5151V56.6504C129.871 58.514 130.225 59.9219 130.933 60.874C131.641 61.8262 132.678 62.3022 134.045 62.3022C135.421 62.3022 136.401 62.0093 136.987 61.4233V58.3594H133.655V55.6616H140.649V62.7539ZM149.475 65.2441C147.538 65.2441 145.959 64.6501 144.739 63.4619C143.526 62.2738 142.92 60.6909 142.92 58.7134V58.3716C142.92 57.0451 143.176 55.861 143.689 54.8193C144.202 53.7695 144.926 52.9639 145.862 52.4023C146.806 51.8327 147.88 51.5479 149.084 51.5479C150.891 51.5479 152.311 52.1175 153.345 53.2568C154.386 54.3962 154.907 56.0116 154.907 58.103V59.5435H146.497C146.611 60.4061 146.952 61.0978 147.522 61.6187C148.1 62.1395 148.828 62.3999 149.707 62.3999C151.066 62.3999 152.128 61.9076 152.893 60.9229L154.626 62.8638C154.097 63.6125 153.381 64.1984 152.478 64.6216C151.575 65.0366 150.574 65.2441 149.475 65.2441ZM149.072 54.4043C148.372 54.4043 147.803 54.6403 147.363 55.1123C146.932 55.5843 146.655 56.2598 146.533 57.1387H151.44V56.8579C151.424 56.0767 151.213 55.4744 150.806 55.0513C150.399 54.62 149.821 54.4043 149.072 54.4043ZM161.145 48.5449V51.792H163.403V54.3799H161.145V60.9717C161.145 61.46 161.239 61.8099 161.426 62.0215C161.613 62.2331 161.971 62.3389 162.5 62.3389C162.891 62.3389 163.236 62.3104 163.538 62.2534V64.9268C162.846 65.1383 162.134 65.2441 161.401 65.2441C158.927 65.2441 157.666 63.995 157.617 61.4966V54.3799H155.688V51.792H157.617V48.5449H161.145ZM178.394 60.5933L182.422 47.2266H186.499L180.31 65H176.489L170.325 47.2266H174.39L178.394 60.5933ZM193.494 65.2441C191.557 65.2441 189.978 64.6501 188.757 63.4619C187.545 62.2738 186.938 60.6909 186.938 58.7134V58.3716C186.938 57.0451 187.195 55.861 187.708 54.8193C188.22 53.7695 188.944 52.9639 189.88 52.4023C190.824 51.8327 191.899 51.5479 193.103 51.5479C194.91 51.5479 196.33 52.1175 197.363 53.2568C198.405 54.3962 198.926 56.0116 198.926 58.103V59.5435H190.515C190.629 60.4061 190.971 61.0978 191.541 61.6187C192.118 62.1395 192.847 62.3999 193.726 62.3999C195.085 62.3999 196.147 61.9076 196.912 60.9229L198.645 62.8638C198.116 63.6125 197.4 64.1984 196.497 64.6216C195.593 65.0366 194.592 65.2441 193.494 65.2441ZM193.091 54.4043C192.391 54.4043 191.821 54.6403 191.382 55.1123C190.951 55.5843 190.674 56.2598 190.552 57.1387H195.459V56.8579C195.443 56.0767 195.231 55.4744 194.824 55.0513C194.417 54.62 193.84 54.4043 193.091 54.4043ZM208.362 55.1001C207.882 55.035 207.458 55.0024 207.092 55.0024C205.758 55.0024 204.883 55.4541 204.468 56.3574V65H200.94V51.792H204.272L204.37 53.3667C205.078 52.1541 206.059 51.5479 207.312 51.5479C207.703 51.5479 208.069 51.6007 208.411 51.7065L208.362 55.1001ZM213.794 65H210.254V51.792H213.794V65ZM210.046 48.374C210.046 47.8451 210.221 47.4097 210.571 47.0679C210.929 46.7261 211.414 46.5552 212.024 46.5552C212.626 46.5552 213.106 46.7261 213.464 47.0679C213.822 47.4097 214.001 47.8451 214.001 48.374C214.001 48.9111 213.818 49.3506 213.452 49.6924C213.094 50.0342 212.618 50.2051 212.024 50.2051C211.43 50.2051 210.95 50.0342 210.583 49.6924C210.225 49.3506 210.046 48.9111 210.046 48.374ZM217.566 65V54.3799H215.601V51.792H217.566V51.1816C217.582 49.5215 218.091 48.2438 219.092 47.3486C220.101 46.4453 221.521 45.9937 223.352 45.9937C224.451 45.9937 225.785 46.2337 227.356 46.7139L226.843 49.6313C226.046 49.3953 225.427 49.2448 224.988 49.1797C224.548 49.1064 224.076 49.0698 223.572 49.0698C221.928 49.0698 221.106 49.7982 221.106 51.2549V51.792H223.706V54.3799H221.106V65H217.566ZM229.004 65H225.464V51.792H229.004V65ZM238 65.2441C236.064 65.2441 234.485 64.6501 233.264 63.4619C232.052 62.2738 231.445 60.6909 231.445 58.7134V58.3716C231.445 57.0451 231.702 55.861 232.214 54.8193C232.727 53.7695 233.451 52.9639 234.387 52.4023C235.331 51.8327 236.405 51.5479 237.61 51.5479C239.417 51.5479 240.837 52.1175 241.87 53.2568C242.912 54.3962 243.433 56.0116 243.433 58.103V59.5435H235.022C235.136 60.4061 235.478 61.0978 236.047 61.6187C236.625 62.1395 237.354 62.3999 238.232 62.3999C239.591 62.3999 240.653 61.9076 241.418 60.9229L243.152 62.8638C242.623 63.6125 241.907 64.1984 241.003 64.6216C240.1 65.0366 239.099 65.2441 238 65.2441ZM237.598 54.4043C236.898 54.4043 236.328 54.6403 235.889 55.1123C235.457 55.5843 235.181 56.2598 235.059 57.1387H239.966V56.8579C239.95 56.0767 239.738 55.4744 239.331 55.0513C238.924 54.62 238.346 54.4043 237.598 54.4043ZM244.897 58.2983C244.897 56.2394 245.357 54.5996 246.277 53.3789C247.205 52.1582 248.47 51.5479 250.073 51.5479C251.359 51.5479 252.421 52.028 253.259 52.9883V46.25H256.799V65H253.613L253.442 63.5962C252.563 64.6948 251.432 65.2441 250.049 65.2441C248.494 65.2441 247.245 64.6338 246.301 63.4131C245.365 62.1842 244.897 60.4793 244.897 58.2983ZM248.425 58.5547C248.425 59.7917 248.641 60.7397 249.072 61.3989C249.504 62.0581 250.13 62.3877 250.952 62.3877C252.043 62.3877 252.812 61.9279 253.259 61.0083V55.7959C252.82 54.8763 252.059 54.4165 250.977 54.4165C249.276 54.4165 248.425 55.7959 248.425 58.5547ZM275.208 60.3369C275.208 59.6452 274.963 59.1162 274.475 58.75C273.987 58.3757 273.108 57.985 271.838 57.5781C270.569 57.1631 269.564 56.7562 268.823 56.3574C266.805 55.2669 265.796 53.798 265.796 51.9507C265.796 50.9904 266.064 50.1359 266.602 49.3872C267.147 48.6304 267.924 48.0404 268.933 47.6172C269.95 47.194 271.09 46.9824 272.351 46.9824C273.621 46.9824 274.752 47.2144 275.745 47.6782C276.737 48.134 277.507 48.7809 278.052 49.6191C278.605 50.4574 278.882 51.4095 278.882 52.4756H275.22C275.22 51.6618 274.963 51.0311 274.451 50.5835C273.938 50.1278 273.218 49.8999 272.29 49.8999C271.395 49.8999 270.699 50.0911 270.203 50.4736C269.706 50.848 269.458 51.3444 269.458 51.9629C269.458 52.5407 269.747 53.0249 270.325 53.4155C270.911 53.8062 271.769 54.1724 272.9 54.5142C274.984 55.1408 276.501 55.918 277.454 56.8457C278.406 57.7734 278.882 58.929 278.882 60.3125C278.882 61.8506 278.3 63.0591 277.136 63.938C275.972 64.8088 274.406 65.2441 272.437 65.2441C271.069 65.2441 269.824 64.9959 268.701 64.4995C267.578 63.995 266.72 63.3073 266.125 62.4365C265.54 61.5658 265.247 60.5566 265.247 59.4092H268.921C268.921 61.3704 270.093 62.3511 272.437 62.3511C273.307 62.3511 273.987 62.1761 274.475 61.8262C274.963 61.4681 275.208 60.9717 275.208 60.3369ZM280.591 58.2739C280.591 56.9637 280.843 55.7959 281.348 54.7705C281.852 53.7451 282.576 52.9517 283.521 52.3901C284.473 51.8286 285.575 51.5479 286.829 51.5479C288.611 51.5479 290.063 52.0931 291.187 53.1836C292.318 54.2741 292.948 55.7552 293.079 57.627L293.103 58.5303C293.103 60.5566 292.537 62.1842 291.406 63.4131C290.275 64.6338 288.757 65.2441 286.853 65.2441C284.949 65.2441 283.427 64.6338 282.288 63.4131C281.156 62.1924 280.591 60.5322 280.591 58.4326V58.2739ZM284.119 58.5303C284.119 59.7835 284.355 60.7438 284.827 61.4111C285.299 62.0703 285.974 62.3999 286.853 62.3999C287.708 62.3999 288.375 62.0744 288.855 61.4233C289.335 60.7642 289.575 59.7144 289.575 58.2739C289.575 57.0451 289.335 56.0929 288.855 55.4175C288.375 54.742 287.699 54.4043 286.829 54.4043C285.966 54.4043 285.299 54.742 284.827 55.4175C284.355 56.0848 284.119 57.1224 284.119 58.5303ZM294.727 58.2739C294.727 56.9637 294.979 55.7959 295.483 54.7705C295.988 53.7451 296.712 52.9517 297.656 52.3901C298.608 51.8286 299.711 51.5479 300.964 51.5479C302.747 51.5479 304.199 52.0931 305.322 53.1836C306.453 54.2741 307.084 55.7552 307.214 57.627L307.239 58.5303C307.239 60.5566 306.673 62.1842 305.542 63.4131C304.411 64.6338 302.893 65.2441 300.989 65.2441C299.084 65.2441 297.563 64.6338 296.423 63.4131C295.292 62.1924 294.727 60.5322 294.727 58.4326V58.2739ZM298.254 58.5303C298.254 59.7835 298.49 60.7438 298.962 61.4111C299.434 62.0703 300.11 62.3999 300.989 62.3999C301.843 62.3999 302.511 62.0744 302.991 61.4233C303.471 60.7642 303.711 59.7144 303.711 58.2739C303.711 57.0451 303.471 56.0929 302.991 55.4175C302.511 54.742 301.835 54.4043 300.964 54.4043C300.102 54.4043 299.434 54.742 298.962 55.4175C298.49 56.0848 298.254 57.1224 298.254 58.5303ZM312.659 51.792L312.769 53.3179C313.713 52.1379 314.978 51.5479 316.565 51.5479C317.965 51.5479 319.006 51.9588 319.69 52.7808C320.374 53.6027 320.723 54.8315 320.74 56.4673V65H317.212V56.5527C317.212 55.804 317.049 55.2629 316.724 54.9292C316.398 54.5874 315.857 54.4165 315.1 54.4165C314.107 54.4165 313.363 54.8397 312.866 55.686V65H309.338V51.792H312.659Z" fill="#313131"/>
<defs>
<filter id="filter0_d_0:1" x="0.497707" y="0.560494" width="441.256" height="116.256" filterUnits="userSpaceOnUse" color-interpolation-filters="sRGB">
<feFlood flood-opacity="0" result="BackgroundImageFix"/>
<feColorMatrix in="SourceAlpha" type="matrix" values="0 0 0 0 0 0 0 0 0 0 0 0 0 0 0 0 0 0 127 0" result="hardAlpha"/>
<feOffset dx="2.12557" dy="3.18836"/>
<feGaussianBlur stdDeviation="5.31393"/>
<feComposite in2="hardAlpha" operator="out"/>
<feColorMatrix type="matrix" values="0 0 0 0 0 0 0 0 0 0 0 0 0 0 0 0 0 0 0.1 0"/>
<feBlend mode="normal" in2="BackgroundImageFix" result="effect1_dropShadow_0:1"/>
<feBlend mode="normal" in="SourceGraphic" in2="effect1_dropShadow_0:1" result="shape"/>
</filter>
</defs>
</svg>
