<svg width="19" height="13" viewBox="0 0 19 13" fill="none" xmlns="http://www.w3.org/2000/svg">
<path d="M1.36772 12.9668C0.925162 12.8994 0.465282 12.5733 0.228184 12.1586C-0.0123667 11.7379 0.000113124 12.0475 0.000113124 6.50205C0.000113124 0.956657 -0.0124839 1.26628 0.228184 0.84555C0.47363 0.416209 0.920511 0.107442 1.4012 0.0350306C1.71194 -0.0116769 17.2821 -0.0116769 17.5929 0.0350306C18.2224 0.129972 18.7737 0.628933 18.942 1.2564C19.0193 1.54458 19.0193 11.4596 18.942 11.7477C18.7737 12.3752 18.2224 12.8742 17.5929 12.9691C17.3097 13.0118 1.64849 13.0094 1.36772 12.9672V12.9668ZM17.8719 12.3542C18.0526 12.2614 18.165 12.1708 18.27 12.0324C18.5413 11.675 18.5293 11.873 18.5293 7.7339V4.02437H9.49704H0.464753V7.7339C0.464753 11.8651 0.453604 11.6759 0.719245 12.0259C0.875264 12.2313 1.15674 12.411 1.40227 12.4618C1.48971 12.4801 5.17454 12.4923 9.59076 12.4893L17.6203 12.4832L17.8719 12.3542ZM2.6947 9.91219C2.51479 9.85358 2.37217 9.7577 2.2413 9.60671C2.02807 9.36096 2.00729 9.25024 2.00729 8.36033C2.00729 7.60864 2.01168 7.55706 2.09343 7.38449C2.14082 7.28436 2.23996 7.14699 2.31376 7.07952C2.59157 6.82553 2.54605 6.83101 4.34899 6.83101C5.98416 6.83101 5.98451 6.83102 6.1594 6.92077C6.35572 7.02151 6.54067 7.22148 6.62887 7.42828C6.71929 7.64044 6.73838 8.93297 6.65554 9.23001C6.58552 9.48094 6.39945 9.71752 6.17291 9.84381C6.02487 9.92654 5.98794 9.92837 4.40481 9.93539C3.51552 9.93844 2.74599 9.9293 2.69475 9.91098L2.6947 9.91219ZM5.99601 9.36584C6.19529 9.23945 6.2261 9.10606 6.2261 8.37062C6.2261 7.63527 6.19389 7.51441 5.96363 7.38579C5.84703 7.32077 5.71912 7.31499 4.34903 7.31499C2.97894 7.31499 2.85104 7.32107 2.73443 7.38579C2.50355 7.51462 2.47195 7.63429 2.47195 8.37966C2.47195 9.11065 2.49862 9.22011 2.71355 9.36738C2.82001 9.44034 2.8942 9.4437 4.34904 9.444C5.81225 9.44412 5.87791 9.44115 5.99604 9.36584H5.99601ZM8.79909 9.22907C8.74137 9.18695 8.71648 9.12925 8.71648 9.03767C8.71648 8.7788 8.65613 8.78613 10.8434 8.78613C12.7556 8.78613 12.8071 8.78804 12.8795 8.86369C12.9204 8.90612 12.9539 8.98457 12.9539 9.038C12.9539 9.09111 12.9204 9.16957 12.8795 9.21231C12.8071 9.28771 12.7556 9.28954 10.8434 9.28954C9.12807 9.28954 8.87133 9.28343 8.7991 9.2294L8.79909 9.22907ZM8.77798 7.24414C8.7025 7.15744 8.69861 7.00666 8.76919 6.90619C8.82074 6.83292 8.91125 6.83079 12.7928 6.82011C14.9768 6.814 16.8002 6.81819 16.8447 6.82924C17.0352 6.87747 17.1106 7.12199 16.9745 7.25015C16.9121 7.30876 16.5741 7.31429 12.873 7.31429C9.01257 7.31429 8.83681 7.31143 8.77793 7.24344L8.77798 7.24414ZM18.5293 2.17308C18.5293 1.45458 18.4867 1.25725 18.27 0.971693C18.1649 0.833098 18.0526 0.742466 17.8719 0.649815L17.6202 0.520644H9.49703H1.37384L1.12212 0.649815C0.941421 0.742619 0.829099 0.83325 0.724041 0.971693C0.50732 1.25713 0.464731 1.45458 0.464731 2.17308V2.78544H9.49703H18.5293L18.5293 2.17308Z" fill="#3A3A3A"/>
</svg>
