<svg width="108" height="20" viewBox="0 0 108 20" fill="none" xmlns="http://www.w3.org/2000/svg">
<path d="M37.3574 12.5098L41.4199 0.78125H43.4707L38.1973 15H36.5371L31.2734 0.78125H33.3145L37.3574 12.5098ZM44.1738 9.61914C44.1738 8.58398 44.3757 7.65299 44.7793 6.82617C45.1895 5.99935 45.7559 5.36133 46.4785 4.91211C47.2077 4.46289 48.0378 4.23828 48.9688 4.23828C50.4076 4.23828 51.5697 4.73633 52.4551 5.73242C53.347 6.72852 53.793 8.05339 53.793 9.70703V9.83398C53.793 10.8626 53.5944 11.7871 53.1973 12.6074C52.8066 13.4212 52.2435 14.056 51.5078 14.5117C50.7786 14.9674 49.9388 15.1953 48.9883 15.1953C47.556 15.1953 46.3939 14.6973 45.502 13.7012C44.6165 12.7051 44.1738 11.3867 44.1738 9.74609V9.61914ZM45.9902 9.83398C45.9902 11.0059 46.2604 11.9466 46.8008 12.6562C47.3477 13.3659 48.0768 13.7207 48.9883 13.7207C49.9062 13.7207 50.6354 13.3626 51.1758 12.6465C51.7161 11.9238 51.9863 10.9147 51.9863 9.61914C51.9863 8.46029 51.7096 7.52279 51.1562 6.80664C50.6094 6.08398 49.8802 5.72266 48.9688 5.72266C48.0768 5.72266 47.3574 6.07747 46.8105 6.78711C46.2637 7.49674 45.9902 8.51237 45.9902 9.83398ZM58.0215 15H56.2148V0H58.0215V15ZM67.4453 15C67.3411 14.7917 67.2565 14.4206 67.1914 13.8867C66.3516 14.7591 65.349 15.1953 64.1836 15.1953C63.1419 15.1953 62.2858 14.9023 61.6152 14.3164C60.9512 13.724 60.6191 12.9753 60.6191 12.0703C60.6191 10.9701 61.0358 10.1172 61.8691 9.51172C62.709 8.89974 63.8874 8.59375 65.4043 8.59375H67.1621V7.76367C67.1621 7.13216 66.9733 6.63086 66.5957 6.25977C66.2181 5.88216 65.6615 5.69336 64.9258 5.69336C64.2812 5.69336 63.7409 5.85612 63.3047 6.18164C62.8685 6.50716 62.6504 6.90104 62.6504 7.36328H60.834C60.834 6.83594 61.0195 6.32812 61.3906 5.83984C61.7682 5.34505 62.276 4.95443 62.9141 4.66797C63.5586 4.38151 64.265 4.23828 65.0332 4.23828C66.2507 4.23828 67.2044 4.54427 67.8945 5.15625C68.5846 5.76172 68.9427 6.59831 68.9688 7.66602V12.5293C68.9688 13.4993 69.0924 14.2708 69.3398 14.8438V15H67.4453ZM64.4473 13.623C65.0137 13.623 65.5508 13.4766 66.0586 13.1836C66.5664 12.8906 66.9342 12.5098 67.1621 12.041V9.87305H65.7461C63.5326 9.87305 62.4258 10.5208 62.4258 11.8164C62.4258 12.3828 62.6146 12.8255 62.9922 13.1445C63.3698 13.4635 63.8548 13.623 64.4473 13.623ZM74.252 1.875V4.43359H76.2246V5.83008H74.252V12.3828C74.252 12.806 74.3398 13.125 74.5156 13.3398C74.6914 13.5482 74.9909 13.6523 75.4141 13.6523C75.6224 13.6523 75.9089 13.6133 76.2734 13.5352V15C75.7982 15.1302 75.3359 15.1953 74.8867 15.1953C74.0794 15.1953 73.4707 14.9512 73.0605 14.4629C72.6504 13.9746 72.4453 13.2812 72.4453 12.3828V5.83008H70.5215V4.43359H72.4453V1.875H74.252ZM80.3066 15H78.5V4.43359H80.3066V15ZM78.3535 1.63086C78.3535 1.33789 78.4414 1.09049 78.6172 0.888672C78.7995 0.686849 79.0664 0.585938 79.418 0.585938C79.7695 0.585938 80.0365 0.686849 80.2188 0.888672C80.401 1.09049 80.4922 1.33789 80.4922 1.63086C80.4922 1.92383 80.401 2.16797 80.2188 2.36328C80.0365 2.55859 79.7695 2.65625 79.418 2.65625C79.0664 2.65625 78.7995 2.55859 78.6172 2.36328C78.4414 2.16797 78.3535 1.92383 78.3535 1.63086ZM85.1699 15H83.3633V0H85.1699V15ZM90.0332 15H88.2266V4.43359H90.0332V15ZM88.0801 1.63086C88.0801 1.33789 88.168 1.09049 88.3438 0.888672C88.526 0.686849 88.793 0.585938 89.1445 0.585938C89.4961 0.585938 89.763 0.686849 89.9453 0.888672C90.1276 1.09049 90.2188 1.33789 90.2188 1.63086C90.2188 1.92383 90.1276 2.16797 89.9453 2.36328C89.763 2.55859 89.4961 2.65625 89.1445 2.65625C88.793 2.65625 88.526 2.55859 88.3438 2.36328C88.168 2.16797 88.0801 1.92383 88.0801 1.63086ZM95.3848 1.875V4.43359H97.3574V5.83008H95.3848V12.3828C95.3848 12.806 95.4727 13.125 95.6484 13.3398C95.8242 13.5482 96.1237 13.6523 96.5469 13.6523C96.7552 13.6523 97.0417 13.6133 97.4062 13.5352V15C96.931 15.1302 96.4688 15.1953 96.0195 15.1953C95.2122 15.1953 94.6035 14.9512 94.1934 14.4629C93.7832 13.9746 93.5781 13.2812 93.5781 12.3828V5.83008H91.6543V4.43359H93.5781V1.875H95.3848ZM102.934 12.3535L105.395 4.43359H107.328L103.08 16.6309C102.423 18.3887 101.378 19.2676 99.9453 19.2676L99.6035 19.2383L98.9297 19.1113V17.6465L99.418 17.6855C100.03 17.6855 100.505 17.5618 100.844 17.3145C101.189 17.0671 101.472 16.6146 101.693 15.957L102.094 14.8828L98.3242 4.43359H100.297L102.934 12.3535Z" fill="#626262"/>
<path d="M0.0189093 0V7.5V15H12.0095H24V14.727V14.454L18.6776 14.4498C22.1924 14.4444 23.9917 14.4338 23.9814 14.4175C23.9661 14.3933 20.0276 14.3811 12.2866 14.3811H0.614713L0.605549 7.19964L0.596314 0.0182039L0.586639 7.17645L0.57733 0H0.298121H0.0189093ZM22.4362 0.00276699C22.4248 0.00378641 22.4096 0.0119163 22.3904 0.0270182C22.3643 0.0475813 22.2848 0.0765692 22.2138 0.0914418C22.1428 0.106311 22.059 0.131993 22.0276 0.14854C21.9962 0.165091 21.7359 0.254337 21.4492 0.346864C21.1625 0.439391 20.8944 0.528561 20.8534 0.544973C20.6604 0.622307 20.4352 0.691744 20.3774 0.691744C20.3422 0.691744 20.3135 0.716319 20.3135 0.746356C20.3135 0.776392 20.3268 0.800967 20.343 0.800967C20.3592 0.800967 20.4807 0.897797 20.613 1.01621C20.8524 1.23057 20.8531 1.23188 20.7789 1.30179C20.738 1.3404 20.6374 1.45154 20.5555 1.54882C20.4736 1.6461 20.3605 1.77217 20.3042 1.82892C20.2478 1.88567 20.2018 1.9397 20.2018 1.94902C20.2018 1.95834 20.1389 2.02813 20.0621 2.10404C19.9853 2.17995 19.8617 2.31511 19.7874 2.4044C19.7131 2.49369 19.5916 2.62931 19.5174 2.70583C19.4433 2.78235 19.3825 2.85085 19.3825 2.85801C19.3825 2.86516 19.3219 2.93359 19.2477 3.01011C19.1735 3.08662 19.052 3.22232 18.9777 3.31161C18.9034 3.4009 18.7797 3.53606 18.7029 3.61197C18.6261 3.68789 18.5633 3.75943 18.5633 3.77097C18.5633 3.78253 18.517 3.83726 18.4605 3.89257C18.4039 3.94788 18.2908 4.07176 18.2091 4.1679C18.1274 4.26405 17.9894 4.41476 17.9023 4.50283C17.8153 4.59089 17.7441 4.67146 17.7441 4.68188C17.7441 4.6923 17.6783 4.76953 17.598 4.85347C17.5177 4.93739 17.4161 5.04702 17.3722 5.09708C17.3283 5.14714 17.2188 5.27002 17.1288 5.37014C17.0389 5.47026 16.9327 5.58971 16.8928 5.63559C16.853 5.68146 16.8146 5.70604 16.8074 5.6902C16.8003 5.67436 16.7191 5.60134 16.6269 5.52793C16.5348 5.45452 16.4075 5.34803 16.3442 5.29128C16.1993 5.16162 16.0492 5.03235 15.696 4.73301C15.5424 4.60284 15.4112 4.48407 15.4043 4.46905C15.3754 4.40543 15.2953 4.45682 15.1465 4.63459C15.0593 4.73874 14.9034 4.91413 14.8001 5.02427C14.6968 5.1344 14.5583 5.28185 14.4925 5.35194C14.4266 5.42202 14.2725 5.59352 14.15 5.73308C14.0275 5.87264 13.8934 6.02009 13.8521 6.06075C13.8108 6.10141 13.6684 6.25688 13.5356 6.40627C13.4028 6.55566 13.269 6.7042 13.2383 6.73629C13.1899 6.78688 12.9146 7.08917 12.6784 7.35017L12.4637 7.14097C12.5736 7.24335 12.6521 7.31365 12.6608 7.31447C12.6811 7.31637 12.3551 6.98263 11.9364 6.57288C11.5176 6.16313 11.1685 5.83436 11.1603 5.8423C11.1549 5.84767 11.3085 6.00794 11.5297 6.23056L11.5244 6.22537C11.3742 6.07896 11.2313 5.9406 11.0976 5.81194C11.1024 5.81117 11.1069 5.80968 11.1102 5.80639C11.1208 5.79605 11.1096 5.76816 11.0853 5.74446C11.0586 5.71833 11.0413 5.71617 11.0413 5.73898C11.0413 5.74591 11.0429 5.75366 11.0451 5.76138C10.9985 5.71667 10.9619 5.6821 10.9187 5.64071C10.9232 5.64206 10.9277 5.64311 10.9318 5.64311C10.9854 5.64311 10.9736 5.61704 10.9091 5.59284C10.8848 5.58375 10.8705 5.58469 10.8696 5.59382C10.847 5.57235 10.823 5.54933 10.8016 5.52897C10.8085 5.53185 10.8154 5.53388 10.8216 5.53388C10.8416 5.53388 10.8365 5.51098 10.8101 5.48297C10.7603 5.43019 10.7279 5.43437 10.7544 5.4838C10.7336 5.46416 10.7087 5.44018 10.6893 5.4218C10.6949 5.41684 10.6937 5.39879 10.6818 5.36846C10.6696 5.33756 10.6517 5.32009 10.642 5.32964C10.6327 5.33872 10.6354 5.36198 10.6472 5.38262C10.5045 5.24835 10.3944 5.1467 10.3527 5.11269C10.4296 5.13878 10.4461 5.13091 10.4006 5.08332C10.3743 5.05578 10.3288 5.0423 10.2995 5.05331C10.2583 5.06877 10.2625 5.07957 10.3179 5.10081C10.3199 5.10158 10.3207 5.10172 10.3226 5.10245C10.2948 5.12284 10.1752 5.23373 10.0208 5.37949C10.0264 5.36376 10.0192 5.35183 10.0009 5.35183C9.97918 5.35183 9.96138 5.36821 9.96138 5.38824C9.96138 5.4056 9.96704 5.41957 9.9744 5.42315C9.95426 5.44224 9.94318 5.45226 9.9216 5.47279C9.92301 5.46906 9.92413 5.4652 9.92413 5.46105C9.92413 5.44103 9.9168 5.42464 9.90777 5.42464C9.89874 5.42464 9.88093 5.44103 9.86827 5.46105C9.85562 5.48108 9.86302 5.49746 9.88471 5.49746C9.88947 5.49746 9.89394 5.4964 9.89817 5.49498C9.87282 5.51912 9.83761 5.55322 9.81053 5.5791C9.81135 5.57623 9.81243 5.57341 9.81243 5.57029C9.81243 5.55026 9.8051 5.53388 9.79607 5.53388C9.78703 5.53388 9.76923 5.55026 9.75657 5.57029C9.74392 5.59031 9.75132 5.60669 9.77301 5.60669C9.77686 5.60669 9.78039 5.60568 9.78392 5.60469C9.75731 5.63016 9.72742 5.65888 9.69934 5.68583C9.69974 5.68368 9.70071 5.68174 9.70071 5.6795C9.70071 5.65947 9.69338 5.64309 9.68435 5.64309C9.67532 5.64309 9.65751 5.65947 9.64486 5.6795C9.6322 5.69952 9.63961 5.71591 9.66129 5.71591C9.66423 5.71591 9.66688 5.71492 9.66966 5.71434C9.65049 5.73276 9.6327 5.74978 9.61293 5.76881C9.61196 5.75912 9.60481 5.75231 9.59126 5.75231C9.56956 5.75231 9.55176 5.7687 9.55176 5.78872C9.55176 5.80202 9.55523 5.81323 9.56005 5.81959C9.54329 5.83574 9.53035 5.84799 9.51322 5.86452C9.51363 5.86208 9.51452 5.85956 9.51452 5.85727C9.51452 5.83724 9.49776 5.83096 9.47728 5.84333C9.4568 5.85571 9.44004 5.88226 9.44004 5.90229C9.44004 5.91355 9.44572 5.9198 9.45401 5.92148C9.29257 6.07753 9.11763 6.24748 8.93472 6.42622C8.59577 6.75744 8.34758 7.00086 8.15258 7.18843C8.12396 7.21597 8.09169 7.24712 8.0656 7.27198C8.09591 7.24276 8.12095 7.21903 8.15258 7.18843C8.69527 6.66335 9.40546 5.96127 9.39459 5.95064C9.38702 5.94324 8.9628 6.34612 8.45186 6.84597C8.10842 7.18196 7.8245 7.46501 7.67147 7.62226C7.59185 7.68107 7.54106 7.70253 7.50034 7.70041C7.49282 7.68696 7.47208 7.66663 7.43852 7.6409C7.37946 7.59561 7.37816 7.59687 7.42448 7.65462C7.43429 7.66685 7.44342 7.67632 7.45256 7.68605C7.42086 7.66868 7.39086 7.6375 7.34921 7.60207C7.33357 7.58877 7.29486 7.5568 7.27 7.53594C7.27652 7.53678 7.28026 7.5327 7.28026 7.52257C7.28026 7.51501 7.25094 7.48634 7.21509 7.45886C7.15603 7.41357 7.15474 7.41484 7.20106 7.47258C7.20797 7.48121 7.2136 7.48706 7.21975 7.49399C7.18643 7.46614 7.1617 7.44535 7.12658 7.41619C7.12952 7.40961 7.13131 7.40059 7.13131 7.39066C7.13131 7.37064 7.11358 7.35426 7.09189 7.35426C7.07905 7.35426 7.07198 7.36042 7.07036 7.36926C7.03904 7.34337 7.02015 7.32727 6.98839 7.30085C7.03292 7.33014 7.0206 7.30538 6.94526 7.22697C6.89724 7.17699 6.8501 7.14388 6.84046 7.1533C6.8348 7.15883 6.84459 7.17551 6.86264 7.19597C6.85155 7.18663 6.82661 7.166 6.81922 7.1597C6.81383 7.15511 6.7963 7.14091 6.78904 7.13482C6.80827 7.12981 6.78718 7.10146 6.731 7.05837C6.67194 7.01309 6.67065 7.01435 6.71697 7.0721C6.72089 7.07699 6.72426 7.0801 6.72817 7.08468C6.68991 7.053 6.65776 7.02619 6.61325 6.98989C6.63214 6.98913 6.64722 6.98251 6.64722 6.97418C6.64722 6.96535 6.63046 6.94794 6.60998 6.93557C6.5895 6.92319 6.57274 6.93043 6.57274 6.95164C6.57274 6.95371 6.5736 6.95549 6.57389 6.95747C6.54266 6.9321 6.50587 6.90095 6.46996 6.87072C6.50094 6.89097 6.52588 6.9024 6.53149 6.89696C6.53951 6.88917 6.506 6.85102 6.45702 6.81219C6.40803 6.77337 6.3614 6.74802 6.35338 6.7558C6.34995 6.75915 6.35535 6.76878 6.36516 6.78098C6.34419 6.76271 6.32113 6.74292 6.30487 6.72829C6.30912 6.72169 6.31207 6.71124 6.31207 6.69892C6.31207 6.67889 6.29434 6.66251 6.27265 6.66251C6.25821 6.66251 6.25082 6.67017 6.25075 6.68093C6.23116 6.66358 6.21133 6.64612 6.18792 6.62589C6.21575 6.62462 6.19586 6.59519 6.13519 6.54867C6.07613 6.50338 6.07483 6.50464 6.12115 6.56239C6.1291 6.5723 6.13628 6.57946 6.14391 6.58784C6.09755 6.54828 6.04939 6.50765 6.00929 6.47485C5.99579 6.46381 5.98504 6.45472 5.97067 6.44293C5.98859 6.43737 5.96721 6.40914 5.91176 6.36663C5.8527 6.32134 5.8514 6.32261 5.89772 6.38035C5.90041 6.38366 5.90269 6.38569 5.90536 6.38888C5.86433 6.35501 5.82544 6.32303 5.79547 6.29801C5.81363 6.29695 5.82797 6.29047 5.82797 6.28236C5.82797 6.27353 5.81122 6.25619 5.79074 6.24382C5.77026 6.23144 5.7535 6.23869 5.7535 6.25989C5.7535 6.26131 5.75417 6.26255 5.75432 6.26394C5.75432 6.26394 5.75369 6.26343 5.7535 6.26332C5.73761 6.24992 5.7159 6.23215 5.69568 6.21525C5.72662 6.23286 5.71044 6.20606 5.64193 6.13476C5.59391 6.08478 5.54678 6.05159 5.53713 6.06102C5.53227 6.06577 5.53806 6.07843 5.55124 6.09486C5.53507 6.0815 5.50996 6.05999 5.48862 6.0421C5.49126 6.04046 5.49284 6.03715 5.49284 6.03108C5.49284 6.02417 5.45513 5.98731 5.40905 5.94916L5.32527 5.87976L5.39625 5.96168C5.40018 5.96621 5.40276 5.96869 5.40643 5.97284C5.38321 5.95315 5.36341 5.93693 5.34301 5.91944C5.31464 5.89511 5.27105 5.85899 5.22803 5.82337C5.2306 5.82133 5.23217 5.81769 5.23217 5.81143C5.23217 5.80386 5.20285 5.77519 5.16701 5.74771C5.10795 5.70243 5.10665 5.70369 5.15297 5.76144C5.15334 5.7618 5.15338 5.76191 5.15364 5.76224C5.1108 5.72721 5.0667 5.69112 5.02949 5.6614C4.99078 5.63049 4.94872 5.59536 4.90803 5.56135C4.93799 5.5807 4.96205 5.59163 4.96752 5.58631C4.97554 5.57853 4.94203 5.54037 4.89305 5.50155C4.84406 5.46272 4.79743 5.4373 4.78941 5.44509C4.78613 5.44826 4.79116 5.45736 4.79995 5.46863C4.78374 5.45433 4.76075 5.43502 4.74977 5.42475C4.69625 5.37469 4.57821 5.27639 4.48743 5.20631C4.47595 5.19744 4.46287 5.18641 4.4507 5.1768C4.46725 5.18536 4.47974 5.18941 4.48343 5.18583C4.49145 5.17804 4.45794 5.13989 4.40896 5.10106C4.35997 5.06224 4.31334 5.03681 4.30532 5.04461C4.30234 5.04748 4.30658 5.05553 4.31376 5.0653C4.27843 5.03542 4.24609 5.0075 4.2251 4.98786C4.20614 4.97012 4.17315 4.94161 4.14211 4.91462C4.14858 4.91542 4.15229 4.91134 4.15229 4.90125C4.15229 4.89369 4.12297 4.86502 4.08713 4.83754C4.02807 4.79225 4.02677 4.79352 4.07309 4.85126C4.07797 4.85735 4.08182 4.86109 4.08633 4.86634C4.04501 4.83126 4.00168 4.79483 3.9632 4.76372C3.94822 4.75162 3.93799 4.74296 3.92414 4.73172C3.92712 4.7299 3.92887 4.72598 3.92887 4.71921C3.92887 4.71165 3.89954 4.68298 3.8637 4.6555C3.80464 4.61021 3.80335 4.61147 3.84967 4.66922C3.85153 4.67155 3.85287 4.67279 3.85468 4.67498C3.82035 4.64688 3.7815 4.61539 3.74726 4.58688C3.7655 4.58586 3.77992 4.57937 3.77992 4.57123C3.77992 4.5624 3.76316 4.54506 3.74268 4.53269C3.7222 4.52032 3.70544 4.52756 3.70544 4.54876C3.70544 4.54996 3.706 4.55098 3.70611 4.55218C3.67959 4.52997 3.64638 4.50183 3.61578 4.47595C3.64027 4.49067 3.65944 4.49872 3.66422 4.49409C3.67224 4.4863 3.63872 4.44815 3.58974 4.40932C3.54076 4.3705 3.49412 4.34507 3.4861 4.35287C3.48301 4.35585 3.48759 4.3643 3.49534 4.37462C3.47853 4.36043 3.42877 4.3193 3.39999 4.29526C3.42055 4.29149 3.39446 4.26103 3.30515 4.18405L3.20275 4.0958L3.29308 4.19593C3.31062 4.21539 3.32557 4.2305 3.34064 4.24592C3.2833 4.1982 3.24683 4.16756 3.17991 4.11223C3.18248 4.11023 3.18413 4.10658 3.18413 4.10029C3.18413 4.09272 3.1548 4.06405 3.11896 4.03657C3.06041 3.99167 3.05894 3.99287 3.10405 4.04916C3.02708 3.98553 2.95276 3.92363 2.8783 3.8615C2.89929 3.87342 2.91515 3.87934 2.91946 3.87516C2.92748 3.86736 2.89397 3.82922 2.84499 3.79039C2.79601 3.75157 2.74937 3.72614 2.74135 3.73393C2.73844 3.73674 2.74246 3.7444 2.74913 3.7537C2.69801 3.71084 2.62637 3.65031 2.56745 3.60067C2.57013 3.60242 2.57289 3.60431 2.57429 3.60431C2.60493 3.60431 2.58519 3.57444 2.52316 3.52688C2.4641 3.48159 2.4628 3.48286 2.50912 3.5406C2.5229 3.55779 2.53686 3.57327 2.54854 3.58476C2.51108 3.55319 2.47707 3.52458 2.43508 3.48912C2.43773 3.48532 2.43866 3.47827 2.43821 3.46779C2.43758 3.45277 2.39148 3.40902 2.33581 3.37058L2.23456 3.30068L2.31864 3.39113C2.24597 3.32983 2.14579 3.24656 2.08918 3.20063C2.08441 3.19676 2.07747 3.19066 2.07231 3.18641C2.11781 3.21655 2.1057 3.19184 2.0299 3.11295C1.98188 3.06297 1.93476 3.02979 1.9251 3.03921C1.92056 3.04365 1.92588 3.05529 1.93725 3.07014C1.9186 3.05355 1.89757 3.03529 1.88313 3.02186C1.8544 2.99514 1.80695 2.95496 1.7552 2.91257C1.7856 2.91257 1.76584 2.8826 1.70393 2.83513C1.64487 2.78984 1.64357 2.79111 1.68989 2.84885C1.70261 2.86471 1.71515 2.87842 1.72626 2.8896C1.68985 2.86019 1.6525 2.82989 1.61891 2.80434C1.6008 2.79057 1.58721 2.77953 1.57025 2.76637C1.59351 2.78008 1.61153 2.78742 1.61614 2.78294C1.62416 2.77515 1.59065 2.737 1.54167 2.69817C1.49269 2.65935 1.44605 2.63392 1.43803 2.64171C1.43348 2.64613 1.44323 2.6608 1.46065 2.67933C1.44714 2.66796 1.43691 2.65898 1.43395 2.65544C1.42225 2.64138 1.39236 2.6141 1.35628 2.58248C1.35822 2.58073 1.35948 2.57795 1.35948 2.57302C1.35948 2.5665 1.3134 2.52145 1.25708 2.4729L1.15467 2.38465L1.24501 2.48478C1.25063 2.49102 1.25411 2.49445 1.25926 2.50006C1.21938 2.46706 1.17754 2.43299 1.13438 2.39866C1.14188 2.38907 1.11969 2.36284 1.07089 2.32542C1.0133 2.28126 1.01145 2.28229 1.05431 2.33588C0.948009 2.2534 0.857056 2.18715 0.841427 2.18498C0.843401 2.18221 0.845449 2.18006 0.847538 2.17879C0.871917 2.16406 0.880936 2.14126 0.867538 2.12817C0.788311 2.05071 0.764241 2.18655 0.771826 2.66895L0.77997 3.18563L0.791607 2.69561C0.795331 2.53913 0.801479 2.41969 0.81008 2.33438C0.804785 2.41785 0.802216 2.53424 0.802737 2.68509L0.804562 3.1857L0.847255 3.21933C0.852744 3.22675 0.860102 3.23616 0.870674 3.24934C0.918736 3.30926 0.949011 3.32863 0.949729 3.30018L1.01235 3.34953C1.05356 3.38202 1.09925 3.41963 1.14385 3.4562C1.12296 3.44435 1.1072 3.43851 1.1029 3.44269C1.09488 3.45047 1.12839 3.48862 1.17737 3.52745C1.22636 3.56627 1.27299 3.5917 1.28101 3.58391C1.28377 3.58125 1.28023 3.57411 1.27425 3.56549C1.29464 3.58298 1.32077 3.60467 1.33534 3.61776C1.32751 3.62009 1.32225 3.62704 1.32225 3.63859C1.32225 3.6598 1.33901 3.67713 1.35949 3.67713C1.37409 3.67713 1.38657 3.67341 1.39266 3.6681C1.4547 3.72285 1.52573 3.78415 1.57339 3.82319C1.59358 3.83972 1.63753 3.87561 1.66925 3.90155C1.64784 3.88694 1.65587 3.89867 1.6899 3.94109C1.73855 4.00173 1.7691 4.02104 1.7691 3.99108C1.7691 3.98776 1.76281 3.98001 1.75354 3.97053C1.7859 3.99698 1.80959 4.01632 1.84031 4.04142C1.81963 4.04208 1.81256 4.058 1.82496 4.07762C1.83762 4.09764 1.85542 4.11402 1.86446 4.11402C1.87349 4.11402 1.88082 4.09764 1.88082 4.07762C1.88082 4.07649 1.88022 4.07554 1.88011 4.07441C1.91295 4.10143 1.94703 4.13014 1.98084 4.15889C1.95129 4.13989 1.92758 4.12916 1.92215 4.13443C1.91413 4.14222 1.94764 4.18037 1.99662 4.21919C2.04561 4.25802 2.09224 4.28344 2.10026 4.27565C2.10309 4.27292 2.09929 4.26554 2.09299 4.25659C2.10704 4.26916 2.12779 4.28689 2.13765 4.29613C2.18966 4.34494 2.31178 4.44676 2.41278 4.52588C2.38976 4.51953 2.41059 4.55571 2.4837 4.6223C2.52852 4.66314 2.58156 4.69654 2.60159 4.69654C2.61118 4.69654 2.61811 4.6956 2.62203 4.69407C2.67185 4.73502 2.72006 4.77532 2.76654 4.81502C2.71342 4.7743 2.67223 4.74891 2.66596 4.75479C2.65743 4.76281 2.65743 4.77431 2.66596 4.78032C2.67449 4.78633 2.73725 4.83548 2.80538 4.88954C2.93462 4.99209 2.97765 5.00871 2.92597 4.95439C2.95939 4.98444 3.07119 5.07803 3.18438 5.171C3.18222 5.17041 3.18009 5.16987 3.17841 5.16987C3.16111 5.16987 3.17625 5.20132 3.21208 5.2397C3.24793 5.27807 3.29246 5.31078 3.311 5.31244C3.32651 5.31382 3.31739 5.29158 3.2926 5.26096C3.36515 5.32094 3.45229 5.3927 3.46729 5.40616C3.48845 5.42514 3.57483 5.49662 3.65923 5.56538C3.63026 5.54194 3.60002 5.51847 3.57101 5.49754C3.52938 5.4675 3.56152 5.50436 3.64243 5.57945C3.72334 5.65454 3.79981 5.71598 3.81233 5.71598C3.83013 5.71598 3.75937 5.64781 3.67334 5.57704C3.75627 5.64443 3.81655 5.69408 3.88695 5.75296C3.86759 5.75442 3.861 5.76972 3.87305 5.7888C3.88572 5.80882 3.90351 5.82521 3.91255 5.82521C3.92158 5.82521 3.92891 5.80882 3.92891 5.7888C3.92891 5.78843 3.92891 5.78833 3.92891 5.78811C3.95116 5.80682 3.98992 5.83997 4.01582 5.86192C3.99278 5.84838 3.97495 5.84118 3.97037 5.84563C3.96235 5.85342 3.99586 5.89157 4.04484 5.9304C4.09383 5.96922 4.14046 5.99464 4.14848 5.98686C4.15113 5.98427 4.14792 5.97757 4.14245 5.96943C4.16851 5.99165 4.17781 5.99933 4.20834 6.0254C4.26534 6.07407 4.35813 6.15164 4.45744 6.23424C4.45317 6.23272 4.45038 6.23286 4.45038 6.23566C4.45038 6.24861 4.49631 6.30084 4.55243 6.35171C4.60854 6.40258 4.6588 6.44415 4.66414 6.44415C4.68665 6.44415 4.66667 6.41726 4.59301 6.34645C4.62642 6.37404 4.6617 6.40352 4.69243 6.42872C4.72037 6.45164 4.73989 6.46819 4.76603 6.4898C4.69021 6.43827 4.70061 6.47239 4.82858 6.58616C4.8971 6.64707 4.96851 6.69739 4.98728 6.69794C4.99933 6.6983 4.98085 6.6744 4.94633 6.64013C4.97976 6.66862 5.00522 6.69074 5.00895 6.69517C5.01395 6.70111 5.04338 6.72643 5.0835 6.7603C5.03584 6.72413 5.03556 6.72715 5.0787 6.78093C5.12734 6.84157 5.1579 6.86088 5.1579 6.83092C5.1579 6.82717 5.15067 6.8182 5.13907 6.80681C5.16326 6.82694 5.19944 6.85649 5.23005 6.88169C5.22893 6.88132 5.22759 6.88103 5.22662 6.88103C5.20932 6.88103 5.22446 6.91248 5.2603 6.95086C5.29614 6.98924 5.34068 7.02201 5.35921 7.02368C5.37471 7.02506 5.36562 7.00284 5.34088 6.97227C5.377 7.00179 5.41079 7.02946 5.45245 7.06335C5.43185 7.06405 5.4248 7.07989 5.43718 7.09948C5.44984 7.1195 5.46763 7.13589 5.47667 7.13589C5.4857 7.13589 5.49303 7.1195 5.49303 7.09948C5.49303 7.0982 5.49236 7.09711 5.49221 7.09584C5.5201 7.11849 5.53364 7.12985 5.56364 7.15415C5.58585 7.17214 5.61614 7.19801 5.64655 7.2244C5.58773 7.17884 5.54089 7.14979 5.53396 7.15657C5.52514 7.16524 5.52485 7.17722 5.53336 7.18323C5.5419 7.18924 5.60461 7.23841 5.67272 7.29245C5.79664 7.39078 5.84249 7.40935 5.80283 7.36378C5.86304 7.41578 5.94633 7.48399 6.01425 7.53643C6.02571 7.54527 6.03883 7.55628 6.05098 7.56587C6.03447 7.55732 6.02202 7.55325 6.01833 7.55684C6.01031 7.56462 6.04382 7.60277 6.0928 7.6416C6.14178 7.68043 6.18842 7.70578 6.19644 7.69799C6.19953 7.69497 6.19495 7.68655 6.18713 7.67616C6.22327 7.70652 6.25634 7.73496 6.2779 7.75488C6.31398 7.78818 6.40781 7.86702 6.51144 7.95277C6.50207 7.94565 6.49289 7.93843 6.48336 7.93144C6.35099 7.83433 6.35538 7.84171 6.51696 7.98712C6.61937 8.07927 6.70941 8.15487 6.71704 8.15501C6.737 8.15548 6.69914 8.11203 6.63617 8.05538C6.64755 8.06463 6.65791 8.07343 6.66919 8.08255C6.72133 8.1247 6.76683 8.16246 6.81414 8.20144C6.73731 8.14981 6.74675 8.18486 6.87472 8.29914C6.94312 8.36022 7.01489 8.41022 7.03422 8.41022C7.04599 8.41022 7.03 8.3882 6.99924 8.35667C7.00592 8.3626 7.01634 8.37146 7.01996 8.37494C7.03564 8.39002 7.07645 8.42536 7.12848 8.46924C7.08425 8.43584 7.08455 8.43964 7.12665 8.49213C7.15476 8.52718 7.18409 8.55585 7.19182 8.55585C7.21396 8.55585 7.20896 8.53985 7.18156 8.51325C7.22434 8.54892 7.26759 8.58502 7.31459 8.62326L7.33669 8.64125C7.32699 8.63524 7.3168 8.62946 7.30622 8.62411L7.22447 8.5828L7.29895 8.65817C7.33991 8.69963 7.38704 8.73444 7.40361 8.73568C7.42888 8.7375 7.42625 8.72091 7.40703 8.69849L7.51169 8.78361C7.51053 8.78324 7.5089 8.78361 7.50791 8.78324C7.4762 8.77189 7.46623 8.78066 7.48216 8.80586C7.52368 8.87154 7.55424 8.85629 7.71032 8.69222L7.85752 8.53749L7.70857 8.66961C7.69922 8.67791 7.68974 8.68583 7.68028 8.69351L7.69817 8.67658C7.72798 8.64837 7.88827 8.49286 8.03978 8.34585C8.00571 8.38349 7.98511 8.41006 7.99193 8.41006C8.00217 8.41006 8.06733 8.35279 8.1368 8.28271C8.20628 8.21262 8.25476 8.15528 8.24452 8.15528C8.2412 8.15528 8.23076 8.16287 8.21768 8.17334C8.3065 8.08702 8.42768 7.96888 8.53078 7.86857C8.51681 7.88731 8.51003 7.90043 8.51631 7.90043C8.52655 7.90043 8.5652 7.86766 8.60227 7.82761C8.63935 7.78756 8.66132 7.75472 8.65108 7.75472C8.64981 7.75472 8.64694 7.75665 8.64482 7.75764C8.74415 7.66096 8.82926 7.57815 8.93523 7.47491C8.92472 7.48995 8.9204 7.49987 8.92592 7.49987C8.93616 7.49987 8.97482 7.4671 9.01189 7.42705C9.04896 7.387 9.07094 7.35423 9.06069 7.35423C9.06013 7.35423 9.05872 7.35533 9.05801 7.35551C9.06193 7.35169 9.06464 7.34902 9.06856 7.3452C9.54165 6.88411 9.95206 6.49314 10.1685 6.29499C10.1721 6.29714 10.1768 6.29841 10.1827 6.29841C10.2044 6.29841 10.2221 6.28203 10.2221 6.26201C10.2221 6.25647 10.2215 6.25135 10.2205 6.24664C10.2872 6.18635 10.3269 6.15285 10.3325 6.15285C10.3358 6.15285 10.3513 6.16468 10.3722 6.18186C10.3719 6.18368 10.3711 6.185 10.3711 6.18706C10.3711 6.20826 10.3878 6.2256 10.4083 6.2256C10.4133 6.2256 10.418 6.22516 10.4223 6.2244C10.4572 6.25501 10.5113 6.30473 10.5631 6.35218C10.5594 6.35593 10.5573 6.36159 10.5573 6.3691C10.5573 6.39031 10.574 6.40764 10.5945 6.40764C10.6042 6.40764 10.6128 6.406 10.6195 6.40338C10.6371 6.41966 10.6597 6.44108 10.6785 6.45863C10.6727 6.46191 10.669 6.46856 10.669 6.47833C10.669 6.49953 10.6857 6.51687 10.7062 6.51687C10.7176 6.51687 10.7275 6.51454 10.7343 6.51104C10.7535 6.52901 10.7734 6.54772 10.7936 6.56672C10.7859 6.56912 10.7807 6.5761 10.7807 6.58755C10.7807 6.60876 10.7975 6.62609 10.8179 6.62609C10.831 6.62609 10.8421 6.623 10.8487 6.61855C10.8934 6.66081 10.9372 6.70223 10.9854 6.74826C10.9746 6.74862 10.9669 6.7556 10.9669 6.76959C10.9669 6.7908 10.9836 6.80813 11.0041 6.80813C11.0192 6.80813 11.0321 6.80423 11.0379 6.79867C11.058 6.81782 11.0786 6.83763 11.0991 6.85726C11.0871 6.85646 11.0786 6.86395 11.0786 6.87881C11.0786 6.90002 11.0954 6.91735 11.1158 6.91735C11.1319 6.91735 11.1454 6.91287 11.1506 6.90668C11.1718 6.92704 11.1912 6.94558 11.2127 6.96635C11.1996 6.96442 11.1903 6.97233 11.1903 6.98803C11.1903 7.00924 11.2071 7.02658 11.2276 7.02658C11.2448 7.02658 11.2588 7.02138 11.263 7.01449C11.2662 7.01758 11.2689 7.02014 11.2721 7.02323L11.5486 7.29089C11.4557 7.2045 11.3899 7.14709 11.3857 7.15123C11.3784 7.15837 11.5409 7.32758 11.7468 7.52726C11.9528 7.72693 12.1213 7.9084 12.1213 7.93051C12.1213 7.95263 12.0752 8.0173 12.0189 8.0743C11.9625 8.13129 11.8327 8.27463 11.7303 8.39279C11.6279 8.51095 11.5022 8.65155 11.451 8.70524C11.1852 8.98395 10.8652 9.34163 10.7993 9.43354C10.7163 9.54943 10.6851 9.55969 10.6171 9.49327C10.5915 9.46824 10.4898 9.38223 10.3911 9.30213C10.2924 9.22204 10.138 9.08687 10.0479 9.00177C9.95787 8.91667 9.87547 8.84704 9.86481 8.84704C9.85415 8.84704 9.77143 8.7792 9.68102 8.69636C9.59063 8.61351 9.4632 8.50292 9.39781 8.4506C9.33243 8.39828 9.26076 8.3365 9.23854 8.31329C9.2082 8.28161 9.1517 8.29514 9.01191 8.36762C8.90951 8.42071 8.81735 8.4725 8.8071 8.48268C8.79686 8.49284 8.7047 8.54212 8.60229 8.59218C8.49989 8.64224 8.40773 8.69139 8.39748 8.70141C8.37797 8.72049 8.24459 8.79422 8.02518 8.90727C7.95352 8.94419 7.88643 8.98265 7.87616 8.99267C7.86589 9.00268 7.79887 9.04107 7.72721 9.078C7.47523 9.20783 7.37329 9.26597 7.3541 9.29076C7.34345 9.30452 7.29318 9.33269 7.24239 9.3534C7.19161 9.37411 7.06624 9.43974 6.96383 9.49925C6.86143 9.55875 6.70224 9.64527 6.61007 9.69145C6.51791 9.73764 6.4204 9.79591 6.39334 9.82094C6.36628 9.84597 6.32019 9.86645 6.29094 9.86645C6.26168 9.86645 6.2377 9.87919 6.2377 9.89483C6.2377 9.91046 6.19162 9.94205 6.13529 9.96501C6.03088 10.0076 5.75009 10.1612 5.71637 10.1941C5.70613 10.2041 5.61397 10.2533 5.51156 10.3033C5.40916 10.3534 5.317 10.4026 5.30675 10.4126C5.27303 10.4455 4.99225 10.599 4.88783 10.6416C4.83151 10.6646 4.78543 10.6962 4.78543 10.7118C4.78543 10.7274 4.76152 10.7402 4.73226 10.7402C4.703 10.7402 4.65692 10.7607 4.62986 10.7858C4.60279 10.8108 4.50521 10.8691 4.41305 10.9152C4.32089 10.9614 4.1617 11.048 4.05929 11.1076C3.95689 11.1672 3.83121 11.2355 3.78001 11.2595C3.72881 11.2834 3.67854 11.3116 3.6683 11.322C3.64899 11.3416 3.52047 11.413 3.29599 11.5286C3.22432 11.5655 3.1573 11.6043 3.14704 11.6147C3.13678 11.6252 3.08646 11.6533 3.03525 11.6772C2.98405 11.7012 2.82486 11.7875 2.6815 11.8689C2.53813 11.9503 2.37894 12.0365 2.32774 12.0604C2.27654 12.0844 2.22627 12.1125 2.21602 12.123C2.18695 12.1525 2.06372 12.2226 1.88088 12.3135C1.78872 12.3593 1.70778 12.4091 1.70095 12.4241C1.69413 12.4391 1.66596 12.4514 1.6384 12.4514C1.61085 12.4514 1.56619 12.4719 1.53913 12.4969C1.51206 12.5219 1.41448 12.5804 1.32232 12.6269C1.23016 12.6734 1.07516 12.755 0.97787 12.8082L0.800991 12.9048V13.4791C0.800991 13.8308 0.815171 14.0533 0.837577 14.0533C0.857693 14.0533 0.983668 13.9878 1.11751 13.9077C1.25136 13.8276 1.36866 13.7621 1.37818 13.7621C1.38769 13.7621 1.505 13.6966 1.63884 13.6165C1.77269 13.5364 1.88999 13.4708 1.8995 13.4708C1.90903 13.4708 2.02184 13.4083 2.15021 13.3319C2.27857 13.2555 2.40873 13.1819 2.43945 13.1683C2.47017 13.1547 2.52044 13.1275 2.55116 13.108C2.74081 12.9871 3.11644 12.7791 3.145 12.7791C3.16366 12.7791 3.20181 12.7586 3.22981 12.7336C3.25781 12.7085 3.33863 12.6577 3.40938 12.6206C3.68014 12.4786 3.95294 12.3274 4.08649 12.2454C4.16289 12.1985 4.23381 12.1601 4.2441 12.1601C4.25439 12.1601 4.3723 12.0946 4.50614 12.0145C4.63999 11.9344 4.76481 11.8689 4.78346 11.8689C4.80212 11.8689 4.83981 11.8484 4.86725 11.8234C4.91655 11.7784 5.01563 11.7209 5.26952 11.5901C5.34118 11.5532 5.40819 11.5148 5.41847 11.5048C5.42874 11.4948 5.49583 11.4563 5.56749 11.4194C5.79197 11.3037 5.9205 11.2324 5.9398 11.2128C5.95004 11.2023 6.00031 11.1742 6.05151 11.1503C6.10271 11.1263 6.22839 11.0582 6.33079 10.9989C6.53113 10.8828 6.70111 10.7891 6.90798 10.6809C6.97964 10.6434 7.04667 10.6046 7.05693 10.5946C7.09074 10.5616 7.37149 10.408 7.47585 10.3655C7.53217 10.3425 7.57826 10.3109 7.57826 10.2953C7.57826 10.2797 7.60224 10.2669 7.63149 10.2669C7.66075 10.2669 7.70711 10.2465 7.73448 10.2214C7.76186 10.1964 7.85099 10.1432 7.9326 10.1032C8.01421 10.0632 8.10314 10.0099 8.1302 9.98485C8.15727 9.95977 8.20335 9.93927 8.23261 9.93927C8.26187 9.93927 8.28577 9.92646 8.28577 9.91082C8.28577 9.89519 8.33185 9.86342 8.38818 9.84021C8.4445 9.81701 8.60788 9.73052 8.75124 9.64801C8.89461 9.56549 9.05799 9.47893 9.11431 9.45573C9.17064 9.43252 9.21671 9.39938 9.21671 9.38206C9.21671 9.3523 9.40746 9.4891 9.57047 9.63577C9.61143 9.67263 9.76932 9.80924 9.92132 9.93934C10.0733 10.0694 10.2425 10.2169 10.2973 10.2669C10.352 10.317 10.4455 10.3971 10.505 10.445C10.5645 10.4929 10.6433 10.5576 10.6801 10.5888C10.7419 10.6411 10.7562 10.6354 10.8663 10.5148C10.9319 10.4429 11.1028 10.2563 11.2462 10.1002C11.3895 9.94406 11.5739 9.74276 11.6558 9.65284C11.7377 9.56293 11.8466 9.44566 11.8978 9.39223C11.949 9.33879 12.0615 9.21472 12.1477 9.11654C12.2339 9.01836 12.3718 8.86433 12.4543 8.77422C12.5367 8.68411 12.6045 8.59916 12.6048 8.5855C12.6051 8.57183 12.6412 8.54957 12.6849 8.53601C12.7527 8.51498 13.0201 8.76119 14.4909 10.199C15.4405 11.1273 16.2174 11.8737 16.2174 11.8578C16.2174 11.8421 15.4668 11.0998 14.5437 10.2022C14.5299 10.1887 14.5183 10.1775 14.5045 10.164C13.5624 9.24832 12.7915 8.47453 12.7915 8.44449C12.7915 8.44281 12.7919 8.44092 12.7921 8.43915C12.7986 8.47869 13.584 9.26928 14.5437 10.2022C15.4728 11.1053 16.227 11.8338 16.2866 11.886C16.2751 11.8914 16.2703 11.9005 16.2771 11.9113C16.2877 11.928 16.3027 11.9417 16.3105 11.9417C16.3183 11.9417 16.3334 11.928 16.344 11.9113C16.3516 11.8992 16.3455 11.8889 16.3306 11.884C16.3603 11.8576 16.4446 11.7773 16.5656 11.6607C16.5326 11.6974 16.5127 11.7233 16.5194 11.7233C16.5296 11.7233 16.5948 11.6659 16.6643 11.5958C16.7337 11.5257 16.7822 11.4684 16.772 11.4684C16.7688 11.4684 16.7591 11.4753 16.7468 11.485C16.8167 11.4173 16.8749 11.3613 16.9539 11.2842C16.9338 11.3079 16.9238 11.3227 16.929 11.3227C16.9392 11.3227 17.0044 11.2654 17.0739 11.1953C17.1434 11.1252 17.1918 11.0678 17.1816 11.0678C17.1801 11.0678 17.1772 11.0694 17.1736 11.0716C17.2768 10.9723 17.3722 10.8812 17.4514 10.8073C17.4502 10.811 17.4508 10.813 17.4534 10.813C17.4636 10.813 17.5023 10.7802 17.5394 10.7402C17.5585 10.7195 17.5734 10.701 17.5821 10.6877C17.6095 10.6631 17.6374 10.6379 17.6544 10.6238C17.661 10.6258 17.6703 10.6275 17.6853 10.6281C17.7058 10.6289 17.7214 10.6269 17.7301 10.6231C17.7424 10.6334 17.7591 10.6484 17.7771 10.6644L17.8912 10.7857C17.9617 10.8608 18.0246 10.9222 18.0308 10.9222C18.0414 10.9222 18.0443 10.9179 18.037 10.9064C18.1439 11.0081 18.2622 11.1217 18.3937 11.2506C18.7064 11.557 18.9734 11.8141 19.0514 11.8845C19.0476 11.8852 19.0445 11.8853 19.0426 11.8841C19.0151 11.8675 19.0087 11.8733 19.0254 11.8996C19.04 11.9227 19.0636 11.9417 19.078 11.9417C19.0923 11.9417 19.4809 11.569 19.9416 11.1136C20.4022 10.6581 20.6145 10.441 20.4134 10.6312C20.2123 10.8213 19.8315 11.187 19.5671 11.4437C19.4909 11.5177 19.4214 11.5835 19.3593 11.6405C19.5086 11.4981 19.6995 11.3146 19.9139 11.1069C20.5613 10.4797 20.7468 10.3185 20.7974 10.34C20.7898 10.3468 20.8647 10.4322 20.9923 10.5524C21.0993 10.6533 21.1935 10.7294 21.2016 10.7215C21.2066 10.7166 21.1959 10.6997 21.1723 10.6728L21.2827 10.779L21.3195 10.6844C21.3397 10.6324 21.3562 10.5509 21.3562 10.5033C21.3562 10.4982 21.357 10.4934 21.3573 10.4884C21.3586 10.5291 21.3649 10.5285 21.3935 10.4853C21.4406 10.414 21.4406 10.3658 21.3935 10.3943C21.3864 10.3986 21.3802 10.4065 21.3746 10.4156C21.3791 10.4071 21.3839 10.4002 21.3892 10.397C21.4034 10.3884 21.4223 10.3252 21.4367 10.2455C21.4401 10.2585 21.4459 10.2642 21.4533 10.257C21.4656 10.2449 21.4669 10.2135 21.4562 10.1872C21.4533 10.1802 21.4506 10.1757 21.4482 10.1731C21.4535 10.1323 21.4608 10.0949 21.4686 10.0613C21.4692 10.1242 21.4761 10.1288 21.5052 10.0848C21.5518 10.0143 21.5525 9.93174 21.5074 9.95633C21.5075 9.95633 21.5077 9.95593 21.5078 9.95582C21.5268 9.94431 21.5424 9.8968 21.5424 9.85022C21.5424 9.80364 21.5662 9.68581 21.5952 9.5884C21.6114 9.53399 21.6342 9.45275 21.6573 9.36817C21.657 9.40244 21.6627 9.40008 21.6914 9.35665C21.7112 9.32662 21.7265 9.26928 21.7254 9.22923L21.7234 9.15641L21.6994 9.21088C21.7024 9.19945 21.7063 9.18544 21.7091 9.17469C21.7287 9.09876 21.7501 9.02065 21.7695 8.95197C21.7731 8.96224 21.7819 8.95197 21.8031 8.91976C21.8229 8.88972 21.8392 8.84057 21.8392 8.81054C21.8392 8.77022 21.8354 8.76538 21.8161 8.79205C21.8272 8.7505 21.8322 8.71772 21.8272 8.71283C21.8221 8.70784 21.7836 8.71207 21.7279 8.72151C21.7454 8.71632 21.7641 8.70996 21.7845 8.70139C21.851 8.67346 21.8483 8.66975 21.7588 8.66747C21.7037 8.66605 21.6482 8.68136 21.6355 8.70139C21.6217 8.72329 21.6334 8.73405 21.6616 8.73388C21.5954 8.74679 21.5185 8.76359 21.4387 8.78245C21.4504 8.77764 21.4606 8.77295 21.4679 8.76873C21.5037 8.74825 21.4836 8.7453 21.4121 8.76041C21.3506 8.77339 21.2752 8.79842 21.2445 8.81601C21.2246 8.82741 21.2238 8.83275 21.2378 8.83322C21.1693 8.852 21.1106 8.8698 21.0769 8.88343C21.077 8.88341 21.0769 8.88343 21.0769 8.88343C21.1042 8.84036 21.0677 8.84036 20.9652 8.88343C20.8934 8.9136 20.8937 8.91481 20.9724 8.91727C20.9732 8.9173 20.974 8.91727 20.9748 8.91727C20.931 8.93028 20.8809 8.94409 20.8349 8.95553C20.7786 8.96953 20.731 8.98212 20.6822 8.99478C20.6833 8.99409 20.6848 8.99351 20.686 8.99278C20.7356 8.96141 20.7356 8.95751 20.686 8.95751C20.6552 8.95751 20.605 8.97337 20.5742 8.99278C20.5322 9.01937 20.528 9.02593 20.5572 9.02741C20.4965 9.04373 20.4077 9.06813 20.3121 9.09447C20.3625 9.07271 20.3582 9.07036 20.2879 9.06816C20.243 9.06674 20.1959 9.08198 20.1832 9.102C20.1738 9.11701 20.1725 9.12647 20.1786 9.13102C20.112 9.14935 20.0525 9.16536 19.9853 9.18364C19.9976 9.17863 20.008 9.1738 20.0157 9.16942C20.0514 9.14894 20.0313 9.14591 19.9598 9.16103C19.8984 9.17402 19.823 9.19911 19.7922 9.2167C19.7657 9.23192 19.7703 9.23733 19.8036 9.23299L19.6763 9.26705L19.9391 9.51614C20.009 9.58244 20.0715 9.64315 20.1187 9.69015C20.1096 9.69829 20.1061 9.718 20.1143 9.74874C20.1265 9.79424 19.9784 9.96045 19.6057 10.3195L19.0799 10.826L18.4024 10.1642C18.0297 9.80028 17.6999 9.50382 17.6693 9.50541C17.6206 9.50792 17.6206 9.51071 17.6697 9.5288C17.6726 9.52989 17.6807 9.53591 17.6888 9.5421C17.681 9.54638 17.655 9.5687 17.6178 9.60218C17.6228 9.58687 17.6155 9.5753 17.5975 9.5753C17.5758 9.5753 17.558 9.59169 17.558 9.61171C17.558 9.62821 17.5631 9.64171 17.5699 9.64613C17.553 9.66163 17.5389 9.67443 17.5189 9.69299C17.5197 9.69019 17.5208 9.68752 17.5208 9.68453C17.5208 9.6645 17.5134 9.64812 17.5044 9.64812C17.4954 9.64812 17.4776 9.6645 17.4649 9.68453C17.4523 9.70455 17.4597 9.72094 17.4813 9.72094C17.4846 9.72094 17.4875 9.71992 17.4906 9.71923C17.4666 9.74173 17.4355 9.77144 17.4083 9.79716C17.4083 9.796 17.409 9.79494 17.409 9.79374C17.409 9.77372 17.4017 9.75733 17.3927 9.75733C17.3836 9.75733 17.3658 9.77372 17.3532 9.79374C17.3405 9.81377 17.3479 9.83015 17.3696 9.83015C17.3713 9.83015 17.3728 9.82949 17.3744 9.82931C17.3479 9.85446 17.3259 9.87493 17.2972 9.90234C17.2972 9.88263 17.2899 9.86657 17.281 9.86657C17.2719 9.86657 17.2541 9.88295 17.2415 9.90298C17.2288 9.923 17.2362 9.93939 17.2579 9.93939C17.2583 9.93939 17.2588 9.93902 17.2592 9.93902C17.2432 9.9544 17.2255 9.97153 17.209 9.98744C17.2063 9.98031 17.1992 9.97564 17.1879 9.97564C17.1662 9.97564 17.1484 9.99202 17.1484 10.012C17.1484 10.0234 17.151 10.0332 17.1547 10.0399C17.1399 10.0543 17.126 10.0676 17.1109 10.0822C17.1103 10.0635 17.1034 10.0485 17.0948 10.0485C17.0857 10.0485 17.0679 10.0648 17.0553 10.0849C17.0428 10.1045 17.0499 10.1205 17.0707 10.1211C17.0673 10.1244 17.0644 10.1271 17.0609 10.1304C17.0337 10.157 17.0245 10.1658 16.9991 10.1905C16.9983 10.1722 16.9915 10.1577 16.983 10.1577C16.974 10.1577 16.9562 10.1741 16.9436 10.1941C16.9313 10.2135 16.9382 10.2292 16.9584 10.2301C16.9307 10.2572 16.9127 10.2745 16.8873 10.2992C16.8864 10.2812 16.8797 10.2669 16.8713 10.2669C16.8623 10.2669 16.8445 10.2833 16.8318 10.3033C16.8197 10.3225 16.8264 10.338 16.8461 10.3393C16.83 10.355 16.8136 10.3709 16.7985 10.3856C16.7951 10.3798 16.7883 10.3761 16.7782 10.3761C16.7565 10.3761 16.7387 10.3925 16.7387 10.4125C16.7387 10.4228 16.7408 10.432 16.7438 10.4386C16.7312 10.4509 16.7129 10.4687 16.7011 10.4802C16.6999 10.4627 16.6934 10.4489 16.6851 10.4489C16.6761 10.4489 16.6583 10.4653 16.6457 10.4853C16.6337 10.5042 16.6401 10.5194 16.659 10.5211C16.6398 10.5397 16.6065 10.5722 16.5893 10.5887C16.5879 10.5716 16.5815 10.5582 16.5734 10.5582C16.5644 10.5582 16.5466 10.5745 16.5339 10.5946C16.5224 10.6128 16.5282 10.6274 16.5455 10.63C16.5216 10.6527 16.497 10.6761 16.4773 10.6943C16.4753 10.679 16.4692 10.6674 16.4617 10.6674C16.4527 10.6674 16.4349 10.6838 16.4222 10.7038C16.4118 10.7203 16.4156 10.7338 16.4293 10.7382C16.3937 10.7699 16.3658 10.793 16.344 10.8085C16.3391 10.7976 16.3181 10.7886 16.2885 10.7864C16.2551 10.7839 16.2339 10.7927 16.2347 10.8066C16.2303 10.8016 16.2265 10.7973 16.2212 10.792C16.198 10.7686 15.6835 10.2682 15.3068 9.90162C15.809 10.3881 16.1668 10.7291 16.1717 10.7243C16.1783 10.7177 15.5379 10.0849 14.7483 9.31788C13.9588 8.55087 13.3129 7.90493 13.3129 7.88248C13.3129 7.84086 13.4434 7.67319 13.6108 7.4997C13.662 7.44664 13.8123 7.28168 13.9448 7.13306C14.0773 6.98444 14.2239 6.82674 14.2707 6.78264C14.3174 6.73854 14.3555 6.69348 14.3555 6.68252C14.3555 6.67155 14.4184 6.60075 14.4952 6.52522C14.572 6.44969 14.7186 6.29129 14.821 6.17316C14.9234 6.05504 15.0867 5.87517 15.1838 5.77346C15.2809 5.67175 15.3605 5.57629 15.3607 5.56127C15.3614 5.49881 15.4444 5.54273 15.5844 5.6796C15.6663 5.75969 15.7427 5.82523 15.7541 5.82523C15.7656 5.82523 15.8452 5.88948 15.931 5.96801C16.0168 6.04655 16.129 6.14575 16.1802 6.18852C16.2314 6.2313 16.3738 6.35396 16.4967 6.46108C16.6196 6.56821 16.7608 6.68773 16.8105 6.72667L16.9009 6.7975L16.9967 6.70065C17.0494 6.64738 17.1538 6.53099 17.2287 6.44203C17.3036 6.35306 17.4293 6.21248 17.508 6.12957C17.5867 6.04667 17.7349 5.88396 17.8373 5.76806C18.1764 5.38423 18.2959 5.2505 18.5075 5.01807C18.569 4.95059 18.7282 4.77348 18.8613 4.62448C18.9944 4.47549 19.1285 4.32587 19.1592 4.29205C19.1899 4.25822 19.2653 4.17526 19.3268 4.10766C19.3882 4.04006 19.5223 3.88749 19.6247 3.76862C19.7271 3.64974 19.8528 3.50862 19.904 3.4551C20.0216 3.33212 20.1282 3.21363 20.4075 2.89547C20.5299 2.75591 20.6644 2.60846 20.7062 2.5678C20.7481 2.52714 20.93 2.32599 21.1105 2.12074C21.2909 1.91549 21.4442 1.74756 21.4513 1.74756C21.4713 1.74756 21.9305 2.12183 21.9572 2.15985C22.0014 2.22287 22.0538 2.15048 22.0772 1.99409C22.0994 1.84587 22.1423 1.62266 22.2698 0.992097C22.3012 0.836909 22.3412 0.628019 22.3587 0.527898C22.3762 0.427777 22.4102 0.274551 22.4344 0.187427C22.4695 0.0605243 22.4704 -0.000265777 22.4363 0.00275607L22.4362 0.00276699ZM0.00501964 2.86369C0.00200339 2.96919 0 4.65718 0 7.5C0 11.635 0.00429351 13.3266 0.00959988 11.2591C0.0149063 9.19159 0.0149063 5.8084 0.00959988 3.74089C0.00796142 3.0948 0.00639744 2.81574 0.00501964 2.86369ZM1.43394 3.71352C1.43201 3.71541 1.4433 3.73015 1.46645 3.75903C1.5151 3.81967 1.54566 3.83898 1.54566 3.80902C1.54566 3.80146 1.51633 3.77278 1.48049 3.7453C1.45096 3.72266 1.43586 3.71164 1.43394 3.71352ZM10.2057 5.13342C10.1966 5.13342 10.1788 5.1498 10.1662 5.16983C10.1535 5.18985 10.1609 5.20623 10.1826 5.20623C10.2043 5.20623 10.222 5.18985 10.222 5.16983C10.222 5.1498 10.2147 5.13342 10.2057 5.13342ZM10.094 5.24264C10.0849 5.24264 10.0671 5.25903 10.0545 5.27905C10.0418 5.29907 10.0492 5.31546 10.0709 5.31546C10.0926 5.31546 10.1103 5.29907 10.1103 5.27905C10.1103 5.25903 10.103 5.24264 10.094 5.24264ZM4.30125 6.11643C4.29931 6.11832 4.3106 6.13307 4.33376 6.16194C4.3824 6.22259 4.41296 6.24189 4.41296 6.21193C4.41296 6.20437 4.38364 6.1757 4.34779 6.14822C4.31826 6.12557 4.30317 6.11455 4.30125 6.11643ZM5.86523 7.42711C5.86329 7.429 5.87458 7.44375 5.89774 7.47262C5.94639 7.53327 5.97694 7.55257 5.97694 7.52261C5.97694 7.51505 5.94762 7.48638 5.91178 7.4589C5.88225 7.43625 5.86716 7.42523 5.86523 7.42711ZM11.9895 7.7178L12.1711 7.89358L12.17 7.89478L11.9895 7.7178ZM13.2495 7.93803C13.2702 7.93854 13.7524 8.39331 14.3714 8.99278C13.6722 8.3189 13.2583 7.94067 13.2264 7.94777C13.2362 7.94177 13.2444 7.93788 13.2495 7.93803ZM12.9264 8.26164C12.917 8.27181 12.9087 8.28064 12.9003 8.28945C12.9083 8.28114 12.9174 8.27133 12.9264 8.26164ZM12.8872 8.30289C12.8765 8.31385 12.8671 8.32294 12.8591 8.33027C12.8664 8.32374 12.8763 8.31397 12.8872 8.30289ZM21.6324 9.52468C21.6295 9.52563 21.6255 9.53026 21.6204 9.53876C21.6026 9.5688 21.5771 9.65071 21.5636 9.7208C21.5478 9.80325 21.551 9.82895 21.5729 9.79361C21.5914 9.76358 21.617 9.68166 21.6297 9.61157C21.6404 9.55209 21.6412 9.52179 21.6324 9.52468ZM20.1777 9.7501C20.1926 9.76584 20.2018 9.77635 20.2018 9.77825C20.2018 9.78858 19.9624 10.0224 19.7082 10.2661C20.0101 9.97298 20.1659 9.80213 20.1777 9.7501ZM17.6928 10.5953C17.6935 10.5953 17.6975 10.5985 17.699 10.5994C17.6939 10.5994 17.6888 10.5994 17.6834 10.6005C17.6879 10.5973 17.6915 10.5953 17.6928 10.5953V10.5953ZM18.0606 10.9405L18.3016 11.1863C18.5254 11.4145 18.5633 11.4487 18.5633 11.4219C18.5633 11.4163 18.4502 11.3057 18.3119 11.1761L18.0606 10.9405ZM18.5819 11.4502L18.7667 11.6414C18.8684 11.7465 18.9563 11.8325 18.9622 11.8325C18.99 11.8325 18.9591 11.7987 18.7774 11.6309L18.5819 11.4502ZM0.596094 14.4089C0.608967 14.4209 0.925402 14.4298 1.64886 14.4365L0.596094 14.4357V14.4089Z" fill="#313131"/>
</svg>
