<svg width="19" height="19" viewBox="0 0 19 19" fill="none" xmlns="http://www.w3.org/2000/svg">
<mask id="path-1-outside-1" maskUnits="userSpaceOnUse" x="0" y="0" width="19" height="19" fill="black">
<rect fill="white" width="19" height="19"/>
<path d="M5.21275 15.7554L1 13.5128V9.50736V5.50194L5.23814 3.25097L9.47628 1L13.7126 3.25294L17.949 5.50589L17.9745 9.49131L18 13.4767L17.3835 13.813L16.767 14.1492L16.7696 14.9689C16.7718 15.7317 16.7488 15.8281 16.4389 16.3564C15.8581 17.3463 14.8621 17.9342 13.7418 17.9486C12.8804 17.9596 12.499 17.8599 11.8329 17.4498L11.2394 17.0843L10.3699 17.5431C9.89167 17.7955 9.4836 18.001 9.46305 18C9.4425 17.999 7.52994 16.9889 5.21293 15.7554H5.21275ZM14.6951 17.1646C15.5287 16.8419 16.2345 15.8589 16.2345 15.0208C16.2345 14.5427 15.9382 13.8693 15.548 13.4606C15.0029 12.8896 14.3955 12.6341 13.5901 12.6373C12.1338 12.643 11.0493 13.6499 11.0442 15.0011C11.0408 15.9051 11.4678 16.6265 12.2599 17.0545C13.0336 17.4726 13.8092 17.5077 14.6951 17.1646ZM13.4129 16.8095C13.343 16.7449 13.2954 16.434 13.2954 16.0416V15.3821H12.515C11.8566 15.3821 11.7196 15.3561 11.6379 15.2153C11.4755 14.9355 11.7027 14.8401 12.5312 14.8401H13.2954V14.0833C13.2954 13.2952 13.415 13.0427 13.735 13.1559C13.8521 13.1974 13.8832 13.3793 13.8832 14.0242V14.8401H14.719C15.3747 14.8401 15.5671 14.8695 15.6117 14.9767C15.7323 15.2665 15.4593 15.3821 14.655 15.3821H13.8832V16.0952C13.8832 16.662 13.8514 16.8194 13.7282 16.863C13.5309 16.9328 13.5503 16.9361 13.4129 16.8095ZM9.18057 13.7305V10.2721L7.74202 9.50722C6.95082 9.08652 6.24542 8.72917 6.17449 8.7131C6.07495 8.69057 6.0455 8.87166 6.0455 9.50639C6.0455 10.1376 6.01281 10.3405 5.90491 10.3786C5.82758 10.406 5.36679 10.2116 4.88092 9.9467L3.99751 9.46501L3.96833 8.47538L3.93915 7.48575L2.77841 6.87189C2.14 6.53426 1.59993 6.25803 1.57827 6.25803C1.5566 6.25803 1.53974 7.81296 1.5408 9.71344L1.54265 13.1688L5.33506 15.1789C7.42088 16.2844 9.1394 17.1889 9.15399 17.1889C9.16858 17.1889 9.1805 15.6326 9.1805 13.7305H9.18057ZM5.11478 14.302C2.96075 13.1439 2.7271 12.9623 3.10688 12.7414C3.21688 12.6774 3.81417 12.9536 5.45818 13.8286C7.34797 14.8344 7.66202 15.0319 7.66202 15.2144C7.66202 15.3615 7.60146 15.4325 7.46608 15.444C7.35831 15.4532 6.30023 14.9393 5.11478 14.302ZM10.6751 16.7217C10.8381 16.6079 10.8362 16.5761 10.6387 16.1048C10.1948 15.0456 10.4623 13.7754 11.2958 12.9846C12.5155 11.8274 14.4422 11.7707 15.7786 12.8526C15.981 13.0165 16.2123 13.2678 16.2927 13.4111L16.4389 13.6718L16.9244 13.4203L17.41 13.1688L17.41 9.70591C17.4101 7.71548 17.373 6.25578 17.3228 6.27308C17.2747 6.28964 15.5554 7.19612 13.5019 8.28747L9.76841 10.2717V13.7321V17.1925L10.1358 17.0171C10.3379 16.9206 10.5805 16.7877 10.6751 16.7217H10.6751ZM13.2954 7.75729C15.316 6.68255 16.9693 5.76382 16.9693 5.71566C16.9693 5.62301 14.3001 4.15868 14.1214 4.1533C14.0022 4.14972 6.84969 7.93652 6.64957 8.10918C6.54311 8.20103 6.78863 8.3658 7.97217 8.99682C8.7715 9.42299 9.46959 9.75811 9.52347 9.74152C9.57736 9.72493 11.2747 8.83203 13.2954 7.75729ZM5.55565 8.03535C5.5826 8.01135 7.30198 7.08729 9.37652 5.98192C11.451 4.87655 13.2222 3.92587 13.3123 3.86931C13.4547 3.77996 13.4162 3.73559 13.0184 3.53102L12.5606 3.29558L8.59275 5.39879L4.62492 7.50199L4.59693 8.31433L4.56894 9.12665L4.98883 9.35584L5.40873 9.58502L5.45771 8.83202C5.48467 8.41787 5.52874 8.05937 5.55568 8.03535H5.55565ZM8.07976 5.03242C10.1131 3.96085 11.8121 3.05226 11.8552 3.01333C11.8984 2.9744 11.3791 2.65115 10.7014 2.29499L9.46907 1.64743L5.69683 3.65064C3.62209 4.75241 1.93699 5.68762 1.95214 5.72889C1.98847 5.82778 4.09899 6.96808 4.25889 6.97521C4.32699 6.97828 6.04639 6.10399 8.07976 5.03242Z"/>
</mask>
<path d="M5.21275 15.7554L1 13.5128V9.50736V5.50194L5.23814 3.25097L9.47628 1L13.7126 3.25294L17.949 5.50589L17.9745 9.49131L18 13.4767L17.3835 13.813L16.767 14.1492L16.7696 14.9689C16.7718 15.7317 16.7488 15.8281 16.4389 16.3564C15.8581 17.3463 14.8621 17.9342 13.7418 17.9486C12.8804 17.9596 12.499 17.8599 11.8329 17.4498L11.2394 17.0843L10.3699 17.5431C9.89167 17.7955 9.4836 18.001 9.46305 18C9.4425 17.999 7.52994 16.9889 5.21293 15.7554H5.21275ZM14.6951 17.1646C15.5287 16.8419 16.2345 15.8589 16.2345 15.0208C16.2345 14.5427 15.9382 13.8693 15.548 13.4606C15.0029 12.8896 14.3955 12.6341 13.5901 12.6373C12.1338 12.643 11.0493 13.6499 11.0442 15.0011C11.0408 15.9051 11.4678 16.6265 12.2599 17.0545C13.0336 17.4726 13.8092 17.5077 14.6951 17.1646ZM13.4129 16.8095C13.343 16.7449 13.2954 16.434 13.2954 16.0416V15.3821H12.515C11.8566 15.3821 11.7196 15.3561 11.6379 15.2153C11.4755 14.9355 11.7027 14.8401 12.5312 14.8401H13.2954V14.0833C13.2954 13.2952 13.415 13.0427 13.735 13.1559C13.8521 13.1974 13.8832 13.3793 13.8832 14.0242V14.8401H14.719C15.3747 14.8401 15.5671 14.8695 15.6117 14.9767C15.7323 15.2665 15.4593 15.3821 14.655 15.3821H13.8832V16.0952C13.8832 16.662 13.8514 16.8194 13.7282 16.863C13.5309 16.9328 13.5503 16.9361 13.4129 16.8095ZM9.18057 13.7305V10.2721L7.74202 9.50722C6.95082 9.08652 6.24542 8.72917 6.17449 8.7131C6.07495 8.69057 6.0455 8.87166 6.0455 9.50639C6.0455 10.1376 6.01281 10.3405 5.90491 10.3786C5.82758 10.406 5.36679 10.2116 4.88092 9.9467L3.99751 9.46501L3.96833 8.47538L3.93915 7.48575L2.77841 6.87189C2.14 6.53426 1.59993 6.25803 1.57827 6.25803C1.5566 6.25803 1.53974 7.81296 1.5408 9.71344L1.54265 13.1688L5.33506 15.1789C7.42088 16.2844 9.1394 17.1889 9.15399 17.1889C9.16858 17.1889 9.1805 15.6326 9.1805 13.7305H9.18057ZM5.11478 14.302C2.96075 13.1439 2.7271 12.9623 3.10688 12.7414C3.21688 12.6774 3.81417 12.9536 5.45818 13.8286C7.34797 14.8344 7.66202 15.0319 7.66202 15.2144C7.66202 15.3615 7.60146 15.4325 7.46608 15.444C7.35831 15.4532 6.30023 14.9393 5.11478 14.302ZM10.6751 16.7217C10.8381 16.6079 10.8362 16.5761 10.6387 16.1048C10.1948 15.0456 10.4623 13.7754 11.2958 12.9846C12.5155 11.8274 14.4422 11.7707 15.7786 12.8526C15.981 13.0165 16.2123 13.2678 16.2927 13.4111L16.4389 13.6718L16.9244 13.4203L17.41 13.1688L17.41 9.70591C17.4101 7.71548 17.373 6.25578 17.3228 6.27308C17.2747 6.28964 15.5554 7.19612 13.5019 8.28747L9.76841 10.2717V13.7321V17.1925L10.1358 17.0171C10.3379 16.9206 10.5805 16.7877 10.6751 16.7217H10.6751ZM13.2954 7.75729C15.316 6.68255 16.9693 5.76382 16.9693 5.71566C16.9693 5.62301 14.3001 4.15868 14.1214 4.1533C14.0022 4.14972 6.84969 7.93652 6.64957 8.10918C6.54311 8.20103 6.78863 8.3658 7.97217 8.99682C8.7715 9.42299 9.46959 9.75811 9.52347 9.74152C9.57736 9.72493 11.2747 8.83203 13.2954 7.75729ZM5.55565 8.03535C5.5826 8.01135 7.30198 7.08729 9.37652 5.98192C11.451 4.87655 13.2222 3.92587 13.3123 3.86931C13.4547 3.77996 13.4162 3.73559 13.0184 3.53102L12.5606 3.29558L8.59275 5.39879L4.62492 7.50199L4.59693 8.31433L4.56894 9.12665L4.98883 9.35584L5.40873 9.58502L5.45771 8.83202C5.48467 8.41787 5.52874 8.05937 5.55568 8.03535H5.55565ZM8.07976 5.03242C10.1131 3.96085 11.8121 3.05226 11.8552 3.01333C11.8984 2.9744 11.3791 2.65115 10.7014 2.29499L9.46907 1.64743L5.69683 3.65064C3.62209 4.75241 1.93699 5.68762 1.95214 5.72889C1.98847 5.82778 4.09899 6.96808 4.25889 6.97521C4.32699 6.97828 6.04639 6.10399 8.07976 5.03242Z" fill="#313131"/>
<path d="M5.21275 15.7554L1 13.5128V9.50736V5.50194L5.23814 3.25097L9.47628 1L13.7126 3.25294L17.949 5.50589L17.9745 9.49131L18 13.4767L17.3835 13.813L16.767 14.1492L16.7696 14.9689C16.7718 15.7317 16.7488 15.8281 16.4389 16.3564C15.8581 17.3463 14.8621 17.9342 13.7418 17.9486C12.8804 17.9596 12.499 17.8599 11.8329 17.4498L11.2394 17.0843L10.3699 17.5431C9.89167 17.7955 9.4836 18.001 9.46305 18C9.4425 17.999 7.52994 16.9889 5.21293 15.7554H5.21275ZM14.6951 17.1646C15.5287 16.8419 16.2345 15.8589 16.2345 15.0208C16.2345 14.5427 15.9382 13.8693 15.548 13.4606C15.0029 12.8896 14.3955 12.6341 13.5901 12.6373C12.1338 12.643 11.0493 13.6499 11.0442 15.0011C11.0408 15.9051 11.4678 16.6265 12.2599 17.0545C13.0336 17.4726 13.8092 17.5077 14.6951 17.1646ZM13.4129 16.8095C13.343 16.7449 13.2954 16.434 13.2954 16.0416V15.3821H12.515C11.8566 15.3821 11.7196 15.3561 11.6379 15.2153C11.4755 14.9355 11.7027 14.8401 12.5312 14.8401H13.2954V14.0833C13.2954 13.2952 13.415 13.0427 13.735 13.1559C13.8521 13.1974 13.8832 13.3793 13.8832 14.0242V14.8401H14.719C15.3747 14.8401 15.5671 14.8695 15.6117 14.9767C15.7323 15.2665 15.4593 15.3821 14.655 15.3821H13.8832V16.0952C13.8832 16.662 13.8514 16.8194 13.7282 16.863C13.5309 16.9328 13.5503 16.9361 13.4129 16.8095ZM9.18057 13.7305V10.2721L7.74202 9.50722C6.95082 9.08652 6.24542 8.72917 6.17449 8.7131C6.07495 8.69057 6.0455 8.87166 6.0455 9.50639C6.0455 10.1376 6.01281 10.3405 5.90491 10.3786C5.82758 10.406 5.36679 10.2116 4.88092 9.9467L3.99751 9.46501L3.96833 8.47538L3.93915 7.48575L2.77841 6.87189C2.14 6.53426 1.59993 6.25803 1.57827 6.25803C1.5566 6.25803 1.53974 7.81296 1.5408 9.71344L1.54265 13.1688L5.33506 15.1789C7.42088 16.2844 9.1394 17.1889 9.15399 17.1889C9.16858 17.1889 9.1805 15.6326 9.1805 13.7305H9.18057ZM5.11478 14.302C2.96075 13.1439 2.7271 12.9623 3.10688 12.7414C3.21688 12.6774 3.81417 12.9536 5.45818 13.8286C7.34797 14.8344 7.66202 15.0319 7.66202 15.2144C7.66202 15.3615 7.60146 15.4325 7.46608 15.444C7.35831 15.4532 6.30023 14.9393 5.11478 14.302ZM10.6751 16.7217C10.8381 16.6079 10.8362 16.5761 10.6387 16.1048C10.1948 15.0456 10.4623 13.7754 11.2958 12.9846C12.5155 11.8274 14.4422 11.7707 15.7786 12.8526C15.981 13.0165 16.2123 13.2678 16.2927 13.4111L16.4389 13.6718L16.9244 13.4203L17.41 13.1688L17.41 9.70591C17.4101 7.71548 17.373 6.25578 17.3228 6.27308C17.2747 6.28964 15.5554 7.19612 13.5019 8.28747L9.76841 10.2717V13.7321V17.1925L10.1358 17.0171C10.3379 16.9206 10.5805 16.7877 10.6751 16.7217H10.6751ZM13.2954 7.75729C15.316 6.68255 16.9693 5.76382 16.9693 5.71566C16.9693 5.62301 14.3001 4.15868 14.1214 4.1533C14.0022 4.14972 6.84969 7.93652 6.64957 8.10918C6.54311 8.20103 6.78863 8.3658 7.97217 8.99682C8.7715 9.42299 9.46959 9.75811 9.52347 9.74152C9.57736 9.72493 11.2747 8.83203 13.2954 7.75729ZM5.55565 8.03535C5.5826 8.01135 7.30198 7.08729 9.37652 5.98192C11.451 4.87655 13.2222 3.92587 13.3123 3.86931C13.4547 3.77996 13.4162 3.73559 13.0184 3.53102L12.5606 3.29558L8.59275 5.39879L4.62492 7.50199L4.59693 8.31433L4.56894 9.12665L4.98883 9.35584L5.40873 9.58502L5.45771 8.83202C5.48467 8.41787 5.52874 8.05937 5.55568 8.03535H5.55565ZM8.07976 5.03242C10.1131 3.96085 11.8121 3.05226 11.8552 3.01333C11.8984 2.9744 11.3791 2.65115 10.7014 2.29499L9.46907 1.64743L5.69683 3.65064C3.62209 4.75241 1.93699 5.68762 1.95214 5.72889C1.98847 5.82778 4.09899 6.96808 4.25889 6.97521C4.32699 6.97828 6.04639 6.10399 8.07976 5.03242Z" stroke="#313131" stroke-width="0.5" mask="url(#path-1-outside-1)"/>
</svg>
